<?xml version="1.0" encoding="utf-8"?>
<!-- Generator: Adobe Illustrator 26.0.1, SVG Export Plug-In . SVG Version: 6.00 Build 0)  -->
<svg version="1.1" id="Layer_1" xmlns="http://www.w3.org/2000/svg" xmlns:xlink="http://www.w3.org/1999/xlink" x="0px" y="0px"
	 viewBox="0 0 283.46 283.46" style="enable-background:new 0 0 283.46 283.46;" xml:space="preserve">
<style type="text/css">
	.st0{fill:#52AE32;}
	.st1{fill:#DADADA;}
	.st2{fill-rule:evenodd;clip-rule:evenodd;fill:#52AE32;}
	.st3{fill:#575756;}
	.st4{fill-rule:evenodd;clip-rule:evenodd;fill:#575756;}
	.st5{fill-rule:evenodd;clip-rule:evenodd;fill:#FFFFFF;}
	.st6{fill:none;}
	.st7{fill:none;stroke:#000000;stroke-width:0;stroke-linecap:round;stroke-linejoin:round;}
	.st8{fill:#FFFFFF;}
	.st9{fill:#E30613;}
	.st10{fill:none;stroke:#F9B233;stroke-width:3.1609;stroke-miterlimit:10;}
	.st11{fill:url(#SVGID_1_);}
	.st12{fill:#F9B233;}
	.st13{fill:url(#SVGID_00000124147642660991108810000014637382476831286661_);}
	.st14{fill:url(#SVGID_00000181786171547737027730000001339953576250444190_);}
	.st15{fill:url(#SVGID_00000083771876687257506590000011806400508943833492_);}
	.st16{fill:#009640;}
	.st17{fill:url(#SVGID_00000149341101451801747230000011839723416240018861_);}
	.st18{fill:url(#SVGID_00000152249949253413247970000005548896432391940237_);}
	.st19{fill:#C00D0D;stroke:#000000;stroke-width:1.3278;stroke-miterlimit:10;}
	.st20{fill:#FFED00;stroke:#000000;stroke-width:1.3278;stroke-miterlimit:10;}
	.st21{fill:#0093C4;}
	.st22{fill:#241B45;}
	.st23{fill:#38328A;}
	.st24{opacity:0.65;}
	.st25{filter:url(#Adobe_OpacityMaskFilter);}
	.st26{clip-path:url(#SVGID_00000063610639170760362960000014130769244205524640_);}
	.st27{enable-background:new    ;}
	.st28{clip-path:url(#SVGID_00000003819383303476408800000010281240431136065954_);}
	.st29{clip-path:url(#SVGID_00000068638880507873297440000015391958760252373667_);}
	
		.st30{clip-path:url(#SVGID_00000063610639170760362960000014130769244205524640_);mask:url(#SVGID_00000120530936943676499780000005016784228315416454_);}
	.st31{clip-path:url(#SVGID_00000068662183849561582060000010247536922570384316_);}
	.st32{clip-path:url(#SVGID_00000050624446718365208400000016046531775786597280_);}
	
		.st33{clip-path:url(#SVGID_00000086657700036886244270000014591170660002031233_);fill:url(#SVGID_00000114035794260179854840000012618310713481062847_);}
	.st34{fill:#13110C;}
	.st35{fill:#FBFDFF;}
	.st36{fill:#FFED00;}
	.st37{fill:#3AAA35;}
	
		.st38{clip-path:url(#SVGID_00000179613557191688583120000001955590985515605174_);fill:url(#SVGID_00000162317916537403649460000005095233311041781658_);}
	.st39{clip-path:url(#SVGID_00000141434360455482204940000014719538025255928767_);fill:#273A20;}
	
		.st40{clip-path:url(#SVGID_00000141434360455482204940000014719538025255928767_);fill:url(#SVGID_00000117669160029353370580000007898781884050397322_);}
	.st41{fill:#273A20;}
	.st42{fill:url(#SVGID_00000042697274284911757790000010607066964799799698_);}
	.st43{fill:url(#SVGID_00000041295035528283872820000013405457507263434152_);}
	.st44{fill:#312783;}
	.st45{fill:#FFFFFF;stroke:#FFFFFF;stroke-width:2.7678;stroke-linecap:round;stroke-linejoin:round;stroke-miterlimit:10;}
	.st46{fill:#CA981B;}
	.st47{fill:#392B86;}
	.st48{fill-rule:evenodd;clip-rule:evenodd;fill:#E30613;}
	.st49{fill-rule:evenodd;clip-rule:evenodd;fill:url(#SVGID_00000142868370549433959050000012923198282037669008_);}
	.st50{fill-rule:evenodd;clip-rule:evenodd;fill:#FFCC00;}
	.st51{fill:#E3E3E3;}
	.st52{fill:url(#SVGID_00000093862317750953123770000013078481450509381046_);}
	.st53{fill:#675FA7;}
	.st54{fill:none;stroke:#2D2E87;stroke-width:1.8095;stroke-linecap:round;stroke-linejoin:round;}
	.st55{fill:#9089C1;}
	.st56{fill:none;stroke:#2D2E87;stroke-width:1.8095;}
	.st57{fill:#2D2E87;}
	.st58{fill:#00A13A;}
	.st59{fill:#E30C13;}
	.st60{fill:#007A3D;}
	.st61{fill:none;stroke:#E30C13;stroke-width:0.8093;stroke-miterlimit:10;}
	.st62{opacity:0.3;fill:#FFFFFF;}
	.st63{fill:#FFFFFF;stroke:#FFFFFF;stroke-width:0.0907;stroke-linecap:round;stroke-linejoin:round;}
	.st64{stroke:#000000;stroke-width:0.0605;stroke-linecap:round;stroke-linejoin:round;}
	.st65{fill:#83D0F5;}
	.st66{fill:#A6A0CF;}
	.st67{fill:none;stroke:#E6007E;stroke-width:0.3701;}
	.st68{fill:url(#SVGID_00000137835570481993279170000003911496185437480589_);}
	.st69{fill:#7B73B4;}
	.st70{fill:#DFF2FD;}
	.st71{fill:url(#SVGID_00000101088985922361167470000010719014328750839185_);}
	.st72{fill:#BCB7DC;}
	.st73{fill:#DFF2FD;stroke:#DFF2FD;stroke-width:0.6046;}
	.st74{fill:#2D2E87;stroke:#2D2E87;stroke-width:0.6046;stroke-linecap:round;stroke-linejoin:round;}
	.st75{fill:url(#SVGID_00000013157565046366248770000013389662916848864137_);}
	.st76{fill:#E30613;stroke:#E30613;stroke-width:0.9069;stroke-linecap:round;stroke-linejoin:round;}
	.st77{fill:url(#SVGID_00000044148586053182137780000006987408359707719056_);}
	.st78{fill:url(#SVGID_00000115515179058037045120000000002939859765416099_);}
	.st79{fill:#FFFFFF;stroke:#FFFFFF;stroke-width:0.0424;stroke-linecap:round;stroke-linejoin:round;}
	.st80{fill:#AE0F0A;}
	.st81{clip-path:url(#SVGID_00000165944810663500058160000007014610135746754717_);}
	.st82{clip-path:url(#SVGID_00000039132359912019133220000001543941683459876790_);}
	.st83{clip-path:url(#SVGID_00000080920278966536525780000014434728102235463296_);fill:#1E1E1C;}
	.st84{opacity:0.75;clip-path:url(#SVGID_00000080920278966536525780000014434728102235463296_);}
	.st85{clip-path:url(#SVGID_00000166665506813364961680000004926575392378174894_);}
	.st86{clip-path:url(#SVGID_00000080920278966536525780000014434728102235463296_);enable-background:new    ;}
	.st87{clip-path:url(#SVGID_00000116935397292694786600000012069245506141264542_);fill:#FFFFFF;}
	
		.st88{clip-path:url(#SVGID_00000116935397292694786600000012069245506141264542_);fill:none;stroke:#FFFFFF;stroke-width:3.7282;stroke-linejoin:round;stroke-miterlimit:10;}
	.st89{clip-path:url(#SVGID_00000034778931087452184940000015046103646711358106_);fill:#FFFFFF;}
	
		.st90{clip-path:url(#SVGID_00000034778931087452184940000015046103646711358106_);fill:none;stroke:#FFFFFF;stroke-width:3.7282;stroke-linejoin:round;stroke-miterlimit:10;}
	.st91{clip-path:url(#SVGID_00000025419068527180809340000001111249601849804989_);fill:#FFFFFF;}
	
		.st92{clip-path:url(#SVGID_00000025419068527180809340000001111249601849804989_);fill:none;stroke:#FFFFFF;stroke-width:3.7282;stroke-linejoin:round;stroke-miterlimit:10;}
	.st93{clip-path:url(#SVGID_00000097480806693148757100000015730904055674034600_);fill:#FFFFFF;}
	
		.st94{clip-path:url(#SVGID_00000097480806693148757100000015730904055674034600_);fill:none;stroke:#FFFFFF;stroke-width:3.7282;stroke-linejoin:round;stroke-miterlimit:10;}
	.st95{clip-path:url(#SVGID_00000080920278966536525780000014434728102235463296_);fill:#FFFFFF;}
	
		.st96{clip-path:url(#SVGID_00000080920278966536525780000014434728102235463296_);fill:none;stroke:#FFFFFF;stroke-width:3.7282;stroke-linejoin:round;stroke-miterlimit:10;}
	.st97{clip-path:url(#SVGID_00000123421193208404340580000005322031153708399539_);fill:#FFFFFF;}
	
		.st98{clip-path:url(#SVGID_00000123421193208404340580000005322031153708399539_);fill:none;stroke:#FFFFFF;stroke-width:3.7282;stroke-linejoin:round;stroke-miterlimit:10;}
	.st99{clip-path:url(#SVGID_00000088824586151283141740000002042326250348313765_);fill:#FFFFFF;}
	
		.st100{clip-path:url(#SVGID_00000088824586151283141740000002042326250348313765_);fill:none;stroke:#FFFFFF;stroke-width:3.7282;stroke-linejoin:round;stroke-miterlimit:10;}
	.st101{clip-path:url(#SVGID_00000163789427526981747940000000230417716912261306_);fill:#FFFFFF;}
	
		.st102{clip-path:url(#SVGID_00000163789427526981747940000000230417716912261306_);fill:none;stroke:#FFFFFF;stroke-width:3.7282;stroke-linejoin:round;stroke-miterlimit:10;}
	.st103{clip-path:url(#SVGID_00000060727877923472252380000016299341375081961359_);fill:#FFFFFF;}
	
		.st104{clip-path:url(#SVGID_00000060727877923472252380000016299341375081961359_);fill:none;stroke:#FFFFFF;stroke-width:3.7282;stroke-linejoin:round;stroke-miterlimit:10;}
	.st105{clip-path:url(#SVGID_00000050640853076630525710000008765929443313288880_);fill:#FFFFFF;}
	
		.st106{clip-path:url(#SVGID_00000050640853076630525710000008765929443313288880_);fill:none;stroke:#FFFFFF;stroke-width:3.7282;stroke-linejoin:round;stroke-miterlimit:10;}
	.st107{clip-path:url(#SVGID_00000155867260857566172710000005545357225645871763_);fill:#FFFFFF;}
	
		.st108{clip-path:url(#SVGID_00000155867260857566172710000005545357225645871763_);fill:none;stroke:#FFFFFF;stroke-width:3.7282;stroke-linejoin:round;stroke-miterlimit:10;}
	.st109{clip-path:url(#SVGID_00000147222242738689830820000011711131464398123185_);fill:#FFFFFF;}
	
		.st110{clip-path:url(#SVGID_00000147222242738689830820000011711131464398123185_);fill:none;stroke:#FFFFFF;stroke-width:3.7282;stroke-linejoin:round;stroke-miterlimit:10;}
	.st111{clip-path:url(#SVGID_00000083787476141706199750000002245146253791058356_);fill:#FFFFFF;}
	
		.st112{clip-path:url(#SVGID_00000083787476141706199750000002245146253791058356_);fill:none;stroke:#FFFFFF;stroke-width:3.7282;stroke-linejoin:round;stroke-miterlimit:10;}
	.st113{clip-path:url(#SVGID_00000082342164626628926020000010316065160653522080_);fill:#FFFFFF;}
	
		.st114{clip-path:url(#SVGID_00000082342164626628926020000010316065160653522080_);fill:none;stroke:#FFFFFF;stroke-width:3.7282;stroke-linejoin:round;stroke-miterlimit:10;}
	.st115{clip-path:url(#SVGID_00000077304584034235891280000014623272521423461550_);fill:#FFFFFF;}
	
		.st116{clip-path:url(#SVGID_00000077304584034235891280000014623272521423461550_);fill:none;stroke:#FFFFFF;stroke-width:3.7282;stroke-linejoin:round;stroke-miterlimit:10;}
	.st117{clip-path:url(#SVGID_00000118361872365657610350000002556942805631699647_);fill:#FFFFFF;}
	
		.st118{clip-path:url(#SVGID_00000118361872365657610350000002556942805631699647_);fill:none;stroke:#FFFFFF;stroke-width:3.7282;stroke-linejoin:round;stroke-miterlimit:10;}
	.st119{clip-path:url(#SVGID_00000142854377080877311810000017085177782583804055_);fill:#FFFFFF;}
	
		.st120{clip-path:url(#SVGID_00000142854377080877311810000017085177782583804055_);fill:none;stroke:#FFFFFF;stroke-width:3.7282;stroke-linejoin:round;stroke-miterlimit:10;}
	.st121{clip-path:url(#SVGID_00000119076648746182311380000008568717982385436077_);fill:#FFFFFF;}
	
		.st122{clip-path:url(#SVGID_00000119076648746182311380000008568717982385436077_);fill:none;stroke:#FFFFFF;stroke-width:3.7282;stroke-linejoin:round;stroke-miterlimit:10;}
	.st123{clip-path:url(#SVGID_00000061449542419310723370000014511107551884340391_);fill:#FFFFFF;}
	
		.st124{clip-path:url(#SVGID_00000061449542419310723370000014511107551884340391_);fill:none;stroke:#FFFFFF;stroke-width:3.7282;stroke-linejoin:round;stroke-miterlimit:10;}
	.st125{clip-path:url(#SVGID_00000141430002890422191210000008187552949222324640_);fill:#FFFFFF;}
	
		.st126{clip-path:url(#SVGID_00000141430002890422191210000008187552949222324640_);fill:none;stroke:#FFFFFF;stroke-width:3.7282;stroke-linejoin:round;stroke-miterlimit:10;}
	.st127{clip-path:url(#SVGID_00000026130388844407415370000006031369095174743991_);fill:#FFFFFF;}
	
		.st128{clip-path:url(#SVGID_00000026130388844407415370000006031369095174743991_);fill:none;stroke:#FFFFFF;stroke-width:3.7282;stroke-linejoin:round;stroke-miterlimit:10;}
	.st129{clip-path:url(#SVGID_00000017478591754829080550000007328569441711104168_);fill:#FFFFFF;}
	
		.st130{clip-path:url(#SVGID_00000017478591754829080550000007328569441711104168_);fill:none;stroke:#FFFFFF;stroke-width:3.7282;stroke-linejoin:round;stroke-miterlimit:10;}
	.st131{clip-path:url(#SVGID_00000054240016431268191060000010182661273126606767_);fill:#FFFFFF;}
	
		.st132{clip-path:url(#SVGID_00000054240016431268191060000010182661273126606767_);fill:none;stroke:#FFFFFF;stroke-width:3.7282;stroke-linejoin:round;stroke-miterlimit:10;}
	.st133{clip-path:url(#SVGID_00000005239943739432690550000015199294076588927158_);fill:#FFFFFF;}
	
		.st134{clip-path:url(#SVGID_00000005239943739432690550000015199294076588927158_);fill:none;stroke:#FFFFFF;stroke-width:3.7282;stroke-linejoin:round;stroke-miterlimit:10;}
	.st135{clip-path:url(#SVGID_00000129884244887807373770000016700954432868077190_);fill:#FFFFFF;}
	
		.st136{clip-path:url(#SVGID_00000129884244887807373770000016700954432868077190_);fill:none;stroke:#FFFFFF;stroke-width:3.7282;stroke-linejoin:round;stroke-miterlimit:10;}
	.st137{clip-path:url(#SVGID_00000063593716494364066400000017688355277062719875_);fill:#FFFFFF;}
	
		.st138{clip-path:url(#SVGID_00000063593716494364066400000017688355277062719875_);fill:none;stroke:#FFFFFF;stroke-width:3.7282;stroke-linejoin:round;stroke-miterlimit:10;}
	.st139{clip-path:url(#SVGID_00000029021380849164413790000001796133398640167823_);fill:#FFFFFF;}
	.st140{clip-path:url(#SVGID_00000130619472576408616830000012617119104728054446_);fill:#FFFFFF;}
	.st141{clip-path:url(#SVGID_00000026851543910186767550000010356460378635048325_);fill:#FFFFFF;}
	.st142{clip-path:url(#SVGID_00000171681434974324708260000007964377183580926374_);fill:#FFFFFF;}
	.st143{clip-path:url(#SVGID_00000085234840335881145090000005973784332648375713_);fill:#FFFFFF;}
	.st144{clip-path:url(#SVGID_00000011004276827384434430000003623800427269217187_);fill:#FFFFFF;}
	.st145{clip-path:url(#SVGID_00000034056633766920079280000003253009112145749182_);fill:#FFFFFF;}
	.st146{clip-path:url(#SVGID_00000003810148044216441330000004857068395416574879_);fill:#FFFFFF;}
	.st147{clip-path:url(#SVGID_00000011021143346637369730000009635389889523710106_);fill:#FFFFFF;}
	.st148{clip-path:url(#SVGID_00000168078830441324436570000016000906624102607023_);fill:#FFFFFF;}
	.st149{clip-path:url(#SVGID_00000067957278375328683160000018433964210634525885_);fill:#FFFFFF;}
	.st150{clip-path:url(#SVGID_00000096774822455246442980000016879979546192837285_);fill:#FFFFFF;}
	.st151{clip-path:url(#SVGID_00000087405988466326489670000002779075909637124758_);fill:#FFFFFF;}
	.st152{clip-path:url(#SVGID_00000178925684354267452430000007657630610447642506_);fill:#CD8900;}
	.st153{clip-path:url(#SVGID_00000146496241068856778130000000836100783428521869_);fill:#CD8900;}
	.st154{clip-path:url(#SVGID_00000016042914696037909600000007680958305969406337_);fill:#CD8900;}
	.st155{clip-path:url(#SVGID_00000109742225455509068400000007310697138596071842_);fill:#CD8900;}
	.st156{clip-path:url(#SVGID_00000177443200196735225910000011538463053196842676_);fill:#CD8900;}
	.st157{clip-path:url(#SVGID_00000021090917340141438550000012190481311636813206_);fill:#CD8900;}
	.st158{clip-path:url(#SVGID_00000036971672314000433210000013857146913396184456_);fill:#CD8900;}
	.st159{clip-path:url(#SVGID_00000137109732090608159010000001324487856303052950_);fill:#CD8900;}
	.st160{clip-path:url(#SVGID_00000028299880335065525070000003177328065772743855_);fill:#CD8900;}
	.st161{clip-path:url(#SVGID_00000053505091391017407320000004954185098607917745_);fill:#CD8900;}
	.st162{clip-path:url(#SVGID_00000065786034231641010060000006020140288548994224_);fill:#CD8900;}
	.st163{clip-path:url(#SVGID_00000163035544795065069030000014585467494645415852_);fill:#CD8900;}
	.st164{clip-path:url(#SVGID_00000080920278966536525780000014434728102235463296_);fill:#CD8900;}
	.st165{clip-path:url(#SVGID_00000080920278966536525780000014434728102235463296_);fill:#E20E18;}
	.st166{clip-path:url(#SVGID_00000080920278966536525780000014434728102235463296_);fill:#C01818;}
	.st167{clip-path:url(#SVGID_00000080920278966536525780000014434728102235463296_);fill:#76160E;}
	.st168{clip-path:url(#SVGID_00000080920278966536525780000014434728102235463296_);fill:#05509E;}
	.st169{clip-path:url(#SVGID_00000080920278966536525780000014434728102235463296_);fill:#114585;}
	.st170{clip-path:url(#SVGID_00000080920278966536525780000014434728102235463296_);fill:#1B9DD9;}
	.st171{clip-path:url(#SVGID_00000080920278966536525780000014434728102235463296_);fill:#D5D5D4;}
	.st172{clip-path:url(#SVGID_00000080920278966536525780000014434728102235463296_);fill:#DADADA;}
	.st173{fill:#282B62;}
	.st174{fill:#BB231C;}
	.st175{fill:#FFFFFF;stroke:#FFFFFF;stroke-width:3.8215;stroke-miterlimit:10;}
	.st176{fill:#FFFFFF;stroke:#FFFFFF;stroke-width:6.3691;stroke-miterlimit:10;}
	.st177{fill:#F2F5F5;}
	.st178{fill:none;stroke:#FFFFFF;stroke-width:1.4545;stroke-linejoin:round;stroke-miterlimit:10;}
	.st179{fill:#E84E0F;}
	.st180{fill:#E5007F;}
	.st181{fill:#810F00;}
	.st182{fill:#F7A800;}
	.st183{fill:#E95015;}
	.st184{fill:url(#SVGID_00000077308469697820789150000017655102972405688477_);}
	.st185{fill:url(#SVGID_00000029013655516995076390000002039706986527604102_);}
	.st186{fill:#005F27;}
	.st187{fill:url(#SVGID_00000031921785939332727960000016844316815298352042_);}
	.st188{fill:url(#SVGID_00000078731037768843542420000007821276549437039544_);}
	.st189{fill:url(#SVGID_00000009588779254096236430000005301511794946881941_);}
	.st190{fill:url(#SVGID_00000130646923220688768410000004372349739740900011_);}
	.st191{fill:url(#SVGID_00000151504440882567247780000010420942951008598919_);}
	.st192{fill:url(#SVGID_00000125569335410293179970000014339123725583572098_);}
	.st193{fill:url(#SVGID_00000120537611510393421220000006596881477944844201_);}
	.st194{fill:url(#SVGID_00000052819644269703144960000010739719725930403246_);}
	.st195{fill:url(#SVGID_00000175295853124167961470000016178262300768487322_);}
	.st196{fill:url(#SVGID_00000050632555526779376040000000653526767066450358_);}
	.st197{fill:url(#SVGID_00000017489750129875120280000003718126182438490796_);}
	.st198{fill:url(#SVGID_00000108304718178101141770000003101224081430472853_);}
	.st199{fill:url(#SVGID_00000096765985322588468960000008258175935891581829_);}
	.st200{fill:url(#SVGID_00000112632589058609968780000010232424274636617373_);}
	.st201{fill:url(#SVGID_00000111874229819343641300000005327173167659826606_);}
	.st202{fill:url(#SVGID_00000114052429755140702550000008420107751813002923_);}
	.st203{fill:#008D3F;}
	.st204{fill:#ADC90E;}
	.st205{fill:url(#SVGID_00000052782309313812390500000000333904143937006527_);}
	.st206{fill:url(#SVGID_00000031889680268503457660000015589873817557473980_);}
	.st207{fill:url(#SVGID_00000132077534407335370660000008534942595341057440_);}
	.st208{fill:url(#SVGID_00000176732272548866696250000006642321327831545278_);}
	.st209{fill:url(#SVGID_00000148623042845772074660000016216202744887210653_);}
	.st210{fill:url(#SVGID_00000014636430635468872400000002150984720050636991_);}
	.st211{fill:url(#SVGID_00000102504422136412040150000017729167311270142599_);}
	.st212{fill:url(#SVGID_00000017495265053105093640000003977275546937724607_);}
	.st213{fill:url(#SVGID_00000121970679323481872130000015965027492338248627_);}
	.st214{fill:url(#SVGID_00000051348707170434648120000016672675769810497943_);}
	.st215{fill:url(#SVGID_00000010294727258563995800000008810085029597537190_);}
	.st216{fill:url(#SVGID_00000052793822073632114240000005711206098605842575_);}
	.st217{fill:url(#SVGID_00000170988167095268832870000004725208463087483815_);}
	.st218{fill:url(#SVGID_00000131359551505761079480000014689147922643583656_);}
	.st219{fill:url(#SVGID_00000168082442645607381490000001003175219136054453_);}
	.st220{fill:url(#SVGID_00000019674419010310993090000001886947426752272275_);}
	.st221{fill:url(#SVGID_00000091698031437497357050000012469773706123124370_);}
	.st222{fill:url(#SVGID_00000134948949595166985640000010799940490754225821_);}
	.st223{fill:url(#SVGID_00000030479831530541687360000012408878868162286480_);}
	.st224{fill:#FBBA00;}
	.st225{fill:#EDEDEF;}
	.st226{fill:none;stroke:#EDEDEF;stroke-width:2.2544;stroke-linejoin:round;stroke-miterlimit:10;}
	.st227{fill:#EDEDEF;stroke:#EDEDEF;stroke-width:2.2544;stroke-linejoin:round;stroke-miterlimit:10;}
	.st228{fill:#7FCBDC;}
	.st229{fill:#259DD9;}
	.st230{fill:#ACBAC6;}
	.st231{fill:#1C1E3F;}
	.st232{fill:url(#SVGID_00000167397130071053994180000004629807977458571446_);}
	.st233{fill:url(#SVGID_00000176760050765082022780000015273961895321050012_);}
	.st234{fill:url(#SVGID_00000054946914123134947820000011624471209087919251_);}
	.st235{fill:url(#SVGID_00000041278151093325250350000017081106849636191621_);}
	.st236{fill:url(#SVGID_00000003085972938363114780000016415511713049155519_);}
	.st237{fill:url(#SVGID_00000065060137759929650220000004451336213583482249_);}
	.st238{fill:url(#SVGID_00000008124955884427429120000016337995184576891816_);}
	.st239{fill:url(#SVGID_00000019657993255202633240000004833461840396407176_);}
	.st240{fill:url(#SVGID_00000160880856575208290450000006963693935227076531_);}
	.st241{fill:url(#SVGID_00000064313539603419928270000014312148198129981358_);}
	.st242{fill:url(#SVGID_00000111191310672435996630000014634677609610248832_);}
	.st243{fill:url(#SVGID_00000163752563814629947630000012848742115850961291_);}
	.st244{fill:url(#SVGID_00000114074467176618152000000009387537343227261331_);}
	.st245{fill:url(#SVGID_00000017489249539876898050000001442551234585002154_);}
	.st246{fill:url(#SVGID_00000049922095254605010620000006594150565663196301_);}
	.st247{fill:url(#SVGID_00000089556415414127303920000005758835005178517632_);}
	.st248{fill:url(#SVGID_00000023964271862523359910000007317128909626780328_);}
	.st249{fill:url(#SVGID_00000156564730605615029810000001003123066346369716_);}
	.st250{fill:url(#SVGID_00000143602656367178171390000017880893453162016684_);}
	.st251{fill:url(#SVGID_00000078746935879401280920000010906149006363904431_);}
	.st252{fill:url(#SVGID_00000005226485947184298050000004747081980735739526_);}
	.st253{fill:url(#SVGID_00000078729058506387302350000004149402851794277793_);}
	.st254{fill:url(#SVGID_00000016042161452718748840000002858942573968802999_);}
	.st255{fill:url(#SVGID_00000137125135239567163290000006501084890600347524_);}
	.st256{fill:#1884BC;}
	.st257{fill:#E31019;}
	.st258{fill:#FFFFFF;stroke:#FFFFFF;stroke-width:2.3193;stroke-linejoin:round;stroke-miterlimit:10;}
	.st259{fill:none;stroke:#FFFFFF;stroke-width:2.377;stroke-linejoin:round;stroke-miterlimit:10;}
	.st260{fill:url(#SVGID_00000114758957484864114020000015254753752435835327_);}
	.st261{fill:url(#SVGID_00000064331747070517565370000007553983671803093944_);}
	.st262{fill:#047046;}
	.st263{fill:#58B14C;}
	.st264{fill:#0DA54F;}
	.st265{fill:#F39424;}
	.st266{fill:#9D2E88;}
	.st267{fill:#006633;}
	.st268{stroke:#FFFFFF;stroke-width:2.5034;stroke-linecap:round;stroke-linejoin:round;stroke-miterlimit:10;}
	.st269{fill:#E30613;stroke:#FFFFFF;stroke-width:2.5034;stroke-linecap:round;stroke-linejoin:round;stroke-miterlimit:10;}
	.st270{fill:url(#SVGID_00000005259019436141833860000011758825890386454926_);}
	.st271{fill:url(#SVGID_00000005953464839831886990000017949577568467124908_);}
	.st272{fill:url(#SVGID_00000120528678200777616030000000274294261262914232_);}
	.st273{fill:url(#SVGID_00000083052751946616616820000018011421086265484432_);}
	.st274{fill:#FFFFFF;stroke:#FFFFFF;stroke-width:3.6487;stroke-linejoin:round;stroke-miterlimit:10;}
	.st275{fill:#E21618;}
	.st276{fill:#281E19;}
	.st277{fill:#FDFDFD;}
	.st278{fill:#E10F15;}
	.st279{fill:#FAF3F0;}
	.st280{fill:#11542C;}
	.st281{fill:#E73331;}
	.st282{clip-path:url(#SVGID_00000098923897290247728120000002832658542392226236_);fill:#00663A;}
	.st283{clip-path:url(#SVGID_00000098923897290247728120000002832658542392226236_);fill:#E40B30;}
	.st284{clip-path:url(#SVGID_00000098923897290247728120000002832658542392226236_);fill:#009640;}
	.st285{clip-path:url(#SVGID_00000098923897290247728120000002832658542392226236_);fill:#E30613;}
	.st286{fill:#27348B;}
	.st287{fill:none;stroke:#FFD500;stroke-width:0.1525;stroke-linejoin:round;stroke-miterlimit:10;}
	.st288{fill:#FFCC00;}
	.st289{filter:url(#Adobe_OpacityMaskFilter_00000029754727056157668620000000275727520155651712_);}
	.st290{mask:url(#SVGID_00000172404716588915337970000005005908468474271905_);}
</style>
<g>
	<g>
		<g>
			<path class="st274" d="M140.64,145.87c-0.36,1.49-1.08,2.82-1.74,4.18c-3.1-0.21-5.57-1.63-7.55-3.96
				c-2.62-3.07-5.69-5.42-9.68-6.45c-2.47-0.64-4.66-0.09-5.99,1.69c1.36,0.7,2.94,0.74,4.26,1.63c2.16,1.45,3.95,3.26,5.63,5.21
				c2.93,3.4,6.01,6.52,10.95,6.51c0.05,1.43-0.75,2.5-1.5,3.6c-1.77,0.05-3.43-0.55-5.15-0.83c-0.49-0.58-1.06-1-1.87-0.96
				c-2.6-2.56-5.11-5.22-7.82-7.64c-3.14-2.8-6.93-4.37-11.32-5.08c0.85-0.54,1.5-0.96,2.32-1.48c-2.57-0.99-4.2-2.86-5.81-4.79
				c-1.66-1.99-3.92-3.11-6.42-3.95c0.55-0.94,1.83-0.95,2.35-2.08c-3.76-0.52-6.7-2.47-9.48-4.8c-1.6-1.34-3.48-2.2-5.6-2.37
				c-1.11-0.09-1.29-0.6-0.54-1.35c0.99-0.98,0.37-1.22-0.54-1.39c-3.34-0.61-5.94-2.45-8.17-4.92c-0.83-0.92-1.62-1.87-2.45-2.79
				c-2.21-2.47-4.75-4.4-8.55-4.63c2.2-1.46,0.7-3.04,0.48-4.5c-0.24-1.65-0.78-3.26-2.7-3.76c-0.81-0.21-0.76-0.62-0.41-1.21
				c0.27-0.44,0.51-0.89,0.73-1.36c0.9-1.94,0.97-2.16,2.92-0.52c0.88,0.74,1.46,1.71,1.76,2.84c0.4,1.53,1.2,2.93,1.73,4.35
				c0.54,1.45,1.4,1.28,2.29,1.68c1.63,0.74,2.83,2.03,4.05,3.29c2.08,2.13,3.93,4.51,6.49,6.13c0.96,0.61,1.95,1.14,3.1,1.31
				c0.38,0.35,0.83,0.28,1.28,0.22c0.52-0.01,1.04-0.02,1.56-0.02c0.24,0.05,0.46,0.02,0.6-0.22c0.21,0,0.43,0,0.64,0l-0.02-0.02
				c-0.12,1.4-1.82,1.91-1.97,3.34c2.58,0.16,4.69,1.33,6.67,2.73c2.14,1.52,4.22,3.12,6.77,3.91c1.52,0.47,3.07,0.83,4.95,1.04
				c-1.22,0.89-2.16,1.57-3.21,2.33c1.04,0.55,2.08,0.67,2.89,1.32c1.07,0.87,1.85,1.99,2.8,2.97c1.88,1.94,4.2,3.15,6.82,3.67
				c2.32,0.46,4.4-0.11,6.35-1.6c1.76-1.35,3.74-1.12,5.63,0.05c2.06,1.28,3.42,3.23,4.91,5.06
				C135.04,144.69,137.35,146.3,140.64,145.87z"/>
			<path class="st274" d="M115.26,112.83c-0.56,1.36-0.96,2.81-2.05,3.88c-2.63,0.13-4.68-1.27-6.77-2.55
				c-1.4-0.85-2.8-1.71-4.15-2.64c-1.58-1.11-3.42-1.35-5.23-1.66c-0.87-0.15-1.54,0.14-2.09,0.94c-2.4,3.52-5.63,4.02-8.98,1.33
				c-1.44-1.16-2.68-2.56-4.02-3.83c-2.44-2.33-5.15-4.07-8.87-4.23c1.53-1.02,0.77-1.91,0.07-2.88c-0.94-1.32-1.2-2.94-1.76-4.42
				c-1.08-2.85-2.57-3.77-5.59-3.46c0.24-1.69,0.6-3.37,2.43-3.91c1.69-0.5,3.17,0.31,4.22,1.62c2.28,2.86,3.59,6.19,4.36,9.73
				c0.14,0.65,0.43,0.54,0.82,0.57c2.15,0.15,3.94,1.03,5.42,2.61c1.23,1.31,2.46,2.63,3.78,3.86c1.67,1.55,3.57,2.63,5.99,2.23
				c1.3-0.22,2.65-0.58,3.18-1.88c0.94-2.3,2.39-2.51,5.33-1.91c2.64,0.53,4.71,2.22,6.87,3.68
				C110.39,111.36,112.67,112.44,115.26,112.83z"/>
			<path class="st274" d="M111.52,120.32c-0.7,1.39-1.33,2.82-2.39,4c-1.15,0.16-2.23-0.12-3.3-0.53c-2.14-0.81-4-2.11-5.85-3.41
				c-2.86-2.01-5.94-3.23-9.51-2.92l0.02,0.02c0.45-0.73,0.97-1.39,1.31-2.21c0.63-1.55,1.8-2.04,3.67-1.78
				c2.34,0.32,4.4,1.3,6.32,2.64c2.15,1.5,4.29,3,6.84,3.8C109.59,120.23,110.56,120.17,111.52,120.32z"/>
			<path class="st274" d="M87.69,117.73c-0.45,0.06-0.9,0.13-1.28-0.22C86.85,117.48,87.32,117.35,87.69,117.73z"/>
			<path class="st274" d="M89.85,117.48c-0.14,0.24-0.35,0.27-0.6,0.22C89.4,117.49,89.61,117.45,89.85,117.48z"/>
			<path class="st274" d="M126.25,162.21c0.83,1.73,0.83,3.66,1.33,5.47c-1.84,0.03-3.31-1.11-5.01-1.54
				c-0.15-0.12-0.31-0.24-0.46-0.36l0.01,0.01c-0.04-0.18-0.12-0.3-0.33-0.27c-0.81-0.72-1.7-1.38-2.43-2.19
				c-1.3-1.45-2.56-2.95-3.82-4.43c-1.1-1.29-2.6-2.25-3.93-3.36c0-0.44-0.22-0.65-0.65-0.66c-1.2-1.92-3.17-2.96-4.92-4.22
				c-1.55-1.11-3.22-2.07-4.99-2.85c-0.68-0.3-1.25-0.28-1.9-0.26c-0.21,0.11-0.68-0.38-0.66,0.28c-0.18,0.43-0.61,0.17-0.89,0.33
				c-0.21,0.11-0.68-0.35-0.64,0.29c-0.2,0.39-0.62,0.16-0.91,0.32c-0.24-0.02-0.51-0.09-0.57,0.27c-0.12,0.31-0.44,0.25-0.67,0.35
				c-0.32,0-0.71-0.21-0.88,0.27c-0.23,0.39-0.67,0.21-0.99,0.37c-0.24-0.02-0.54-0.16-0.6,0.25c-0.1,0.1-0.21,0.21-0.31,0.31
				c-0.09-0.04-0.18-0.05-0.28-0.01c-3.04-0.47-4.94-2.47-6.55-4.87c-1.46-2.17-1.18-1.82-3.21-0.76c-2.04,1.07-4.02,2.24-6.08,3.28
				c-1.6,0.81-2.75,0.32-3.98-0.44c-1.79-1.11-3.3-2.61-5.12-3.7c-1.26-0.75-2.3-0.84-3.5,0.15c-1.26,1.04-2.69,1.88-4.04,2.81
				c-1.79,1.25-2.62,1.22-4.38-0.09c-1.78-1.32-2.95-3.12-4.04-5c-2.18-3.73-4.29-7.5-7.34-10.65c-1.15-1.19-2.29-1.47-3.7-0.63
				c-0.88,0.52-1.77,1.02-2.65,1.55c-0.81,0.48-1.66,0.82-2.63,0.71c-0.72-0.09-1.27-0.5-1.52-1.16c-0.29-0.76,0.44-0.94,0.88-1.23
				c1.06-0.7,1.89-1.85,3.52-1.32c0.74,0.24,1.34-0.64,1.92-1.13c0.51-0.44,1.35-0.76,0.46-1.65c-0.28-0.28,0.17-0.53,0.38-0.72
				c0.5-0.44,1.06-0.83,1.54-1.29c0.49-0.46,0.9-0.84,1.57-0.24c0.73,0.66,0.21,1.05-0.23,1.49c-0.14,0.14-0.26,0.3-0.52,0.6
				c5.57,1.41,7.62,5.96,9.75,10.45c1.18,2.48,2.56,4.81,4.8,6.52c2.01,1.53,4.59,1.07,5.76-1.14c0.26-0.49,0.1-0.67-0.43-0.85
				c-2.49-0.83-4.05-2.72-5.38-4.85c-2.09-3.35-3.86-6.93-6.89-9.62c-1.49-1.32-3.24-2.16-5.14-3.04c0.61-0.5,1.15-0.93,1.7-1.38
				c-0.09-0.67-0.88-0.65-1.14-1.22c0.79-0.72,1.63-1.41,2.35-2.19c0.67-0.73,1.21-0.75,1.94-0.09c0.77,0.68,0.73,1.25,0.02,1.91
				c-0.14,0.13-0.2,0.34-0.38,0.65c3.53,0.87,5.34,3.57,6.98,6.4c1.86,3.23,3.94,6.27,6.73,8.78c0.77,0.7,1.62,1.24,2.58,1.65
				c0.51,0.22,1.69,0.03,0.89,1.25c-0.16,0.25,0.16,0.44,0.44,0.48c2.73,0.39,4.74,2.13,6.88,3.63c0.88,0.62,1.83,1.13,2.85,1.5
				c1.06,0.38,1.8,0.35,1.99-0.99c0.06-0.4,0.15-0.89,0.42-1.14c1.58-1.49,0.27-2-0.78-2.79c-2.56-1.91-5.27-3.37-8.88-3.31
				c1.66-1.32,0.81-1.61-0.4-2.09c-1.53-0.61-2.78-1.74-3.89-2.99c-1.61-1.81-3.1-3.72-4.53-5.68c-2.37-3.26-5.14-6.01-9.46-6.85
				c0.46-0.31,0.74-0.51,1.04-0.69c1.7-0.98,1.89-1.73,0.41-2.98c-0.93-0.79-0.65-1.1,0.06-1.71c0.62-0.53,1.2-1.15,1.65-1.83
				c0.47-0.71,0.82-0.59,1.34-0.12c1.58,1.45,1.62,2.69,0.13,4.21c-0.2,0.21-0.35,0.47-0.62,0.84c4.11,0.7,6.55,3.47,8.79,6.46
				c0.86,1.15,1.63,2.38,2.42,3.59c2,3.03,4.81,4.72,8.43,5.09c0,0.08,0.04,0.21-0.01,0.27c-1.21,1.32-1.22,1.34,0.59,1.8
				c2.01,0.5,3.6,1.72,5.19,2.94c1.64,1.25,3.29,2.39,5.37,2.92c1.65,0.42,2.63,1.91,3.66,3.19c1.03,1.29,1.98,2.65,3.35,3.61
				c0.37,0.26,0.81,0.74,1.23,0.44c1.66-1.21,3.78-0.91,5.87-1.91c-3.22-1.07-4.9-3.64-7.11-5.59c-0.08-0.07-0.16-0.14-0.24-0.2
				c-3.35-2.35-6.69-4.71-10.04-7.05c-1.3-0.91-2.8-1.23-4.32-1.52c-0.33-0.06-0.8,0.07-0.97-0.33c-0.18-0.42,0.33-0.57,0.5-0.86
				c0.22-0.37,0.94-0.52,0.65-1.08c-0.2-0.4-0.75-0.15-1.14-0.22c-2.43-0.42-4.17-1.95-5.79-3.63c-1.32-1.37-2.52-2.85-3.77-4.29
				c-2.5-2.85-5.1-5.56-9.04-6.3c0.04-0.2,0.03-0.31,0.08-0.38c0.41-0.63,1.68-0.92,1.44-1.61c-0.51-1.47-0.48-3.25-1.88-4.3
				c-0.46-0.35-0.59-0.47-0.19-0.95c0.62-0.75,1.18-1.56,1.72-2.37c0.7-1.05,1.2-0.71,1.88,0.08c1.25,1.48,1.2,3.47,2.13,5.09
				c0.35,0.62-1.09,0.78-1.04,1.71c4.08,0.45,5.66,4.03,8.05,6.63c2.79,3.04,5.72,5.8,9.94,6.69c0.69,0.14,1.4,0.2,2.13,0.3
				c-0.37,0.95-1.52,1.27-1.74,2.36c1.66,0.08,2.95,0.84,4.06,1.96c2.35,2.35,5.47,3.18,8.44,4.31c0.62,0.24,1.24,0.48,1.95,0.75
				c-0.43,0.39-0.79,0.72-1.31,1.2c2.14,0.56,3.25,2.12,4.47,3.56c1.69,2,3.68,3.59,6.19,4.47c0.42,0.15,1.35,0.1,0.64,1.07
				c-0.23,0.32,0.32,0.42,0.58,0.52c4.82,1.9,8.23,5.53,11.5,9.34c1.11,1.29,2.16,2.62,3.27,3.91
				C122.61,160.3,124.31,161.43,126.25,162.21z"/>
			<path class="st274" d="M97.36,99.76c0,0-0.44,4.14-3.59,1.78c-2.71-1.96-9.07-9.97-13.61-2.93c1.68,0.19,3.86,0.13,7.17,3.46
				c2.67,1.99,6.76,6.54,10.68,2.19c1.23-1.88,1.69-2.84,1.98-3.34c0.28-0.49,0.24-1.87,0.24-1.87l-2.28,0.47L97.36,99.76z"/>
		</g>
		<g>
			<g>
				<path class="st274" d="M119.25,103.55c0,0-10.43,23.3-12.87,24.93c2.28-0.16,6.35,1.47,7.98,3.26
					c1.63,1.79,5.21,5.25,11.57,2.38c2.28-1.08,7.17-1.89,11.08,3.16c1.63,1.63,2.44,3.42,8.63,2.61c1.47-1.79,0.81-4.4,0.81-4.4
					s-5.05-11.08-5.38-11.89c-0.33-0.81-7.01-11.57-7.01-11.57l1.63-8.47l-3.75-1.79c0,0-3.75-1.14-7.49,1.3
					C123.65,103.71,120.19,103.8,119.25,103.55z"/>
				<g>
					<polygon class="st274" points="122.86,103.88 123.27,105.14 124.58,105.14 123.52,105.91 123.92,107.16 122.86,106.39 
						121.79,107.16 122.2,105.91 121.13,105.14 122.45,105.14 					"/>
					<polygon class="st274" points="119.41,110.44 119.82,111.7 121.13,111.7 120.07,112.47 120.47,113.72 119.41,112.95 
						118.34,113.72 118.75,112.47 117.68,111.7 119,111.7 					"/>
					<polygon class="st274" points="116.6,117.03 117,118.29 118.32,118.29 117.25,119.06 117.66,120.31 116.6,119.54 
						115.53,120.31 115.94,119.06 114.87,118.29 116.19,118.29 					"/>
					<polygon class="st274" points="120.63,118.39 121.03,119.64 122.35,119.64 121.28,120.42 121.69,121.67 120.63,120.89 
						119.56,121.67 119.97,120.42 118.9,119.64 120.22,119.64 					"/>
					<polygon class="st274" points="122.65,113.72 123.06,114.98 124.38,114.98 123.31,115.75 123.72,117 122.65,116.23 121.58,117 
						121.99,115.75 120.93,114.98 122.24,114.98 					"/>
					<polygon class="st274" points="126.1,116.58 126.51,117.83 127.83,117.83 126.76,118.61 127.17,119.86 126.1,119.09 
						125.03,119.86 125.44,118.61 124.38,117.83 125.69,117.83 					"/>
					<polygon class="st274" points="122.65,124.03 123.06,125.28 124.38,125.28 123.31,126.06 123.72,127.31 122.65,126.53 
						121.58,127.31 121.99,126.06 120.93,125.28 122.24,125.28 					"/>
					<polygon class="st274" points="117.18,125.45 117.58,126.71 118.9,126.71 117.83,127.48 118.24,128.73 117.18,127.96 
						116.11,128.73 116.52,127.48 115.45,126.71 116.77,126.71 					"/>
					<polygon class="st274" points="127.83,122.56 128.23,123.82 129.55,123.82 128.48,124.59 128.89,125.85 127.83,125.07 
						126.76,125.85 127.17,124.59 126.1,123.82 127.42,123.82 					"/>
					<polygon class="st274" points="124.38,130.4 124.78,131.66 126.1,131.66 125.03,132.43 125.44,133.68 124.38,132.91 
						123.31,133.68 123.72,132.43 122.65,131.66 123.97,131.66 					"/>
					<polygon class="st274" points="130.34,128.22 130.75,129.47 132.07,129.47 131,130.25 131.41,131.5 130.34,130.73 
						129.28,131.5 129.68,130.25 128.62,129.47 129.93,129.47 					"/>
					<polygon class="st274" points="133.79,128.92 134.2,130.17 135.52,130.17 134.45,130.95 134.86,132.2 133.79,131.42 
						132.73,132.2 133.13,130.95 132.07,130.17 133.38,130.17 					"/>
					<polygon class="st274" points="140.57,133.68 140.97,134.94 142.29,134.94 141.22,135.71 141.63,136.97 140.57,136.19 
						139.5,136.97 139.91,135.71 138.84,134.94 140.16,134.94 					"/>
				</g>
			</g>
			<path class="st274" d="M240.69,90.08c1.23,0.27,1.28,1.34,1.55,2.26c0.85,4.1,1.63,8.21,2.58,12.28
				c0.27,1.15,0.23,1.87-0.92,2.35c-1.13,0.47-2.25,1.01-3.04-0.47c-1.08-1.99-2.86-2.45-4.95-2.45c-9.14,0-18.28-0.01-27.41-0.07
				c-0.97-0.01-1.31,0.14-1.29,1.22c0.06,5.68,0.07,11.36-0.01,17.04c-0.02,1.25,0.41,1.39,1.48,1.38
				c4.85-0.06,9.71-0.06,14.56-0.01c2.98,0.03,5.67-0.26,6.76-3.71c0.28-0.87,2.3-1.21,3.34-0.71c1.1,0.53,0.91,1.4,0.65,2.38
				c-0.5,1.88-0.9,3.78-1.34,5.68c-1.18,5.02-2.35,10.03-3.54,15.05c-0.2,0.86-0.6,1.44-1.64,1.51c-2.27,0.14-2.53-0.05-2.58-2.39
				c-0.05-2.11-0.4-2.51-2.5-2.66c-4.74-0.34-9.49-0.04-14.24-0.17c-1.13-0.03-0.91,0.67-0.91,1.31c0,10.53-0.01,21.06,0,31.6
				c0,2.98,1.17,4.4,4.07,5.04c1.68,0.38,1.97,0.81,1.79,2.73c-0.13,1.34-1.07,1.63-2.18,1.62c-8.15-0.08-16.3-0.18-24.46-0.25
				c-1.07-0.01-1.84-0.26-1.85-1.51c-0.01-1.2-0.1-2.35,1.63-2.6c2.78-0.41,3-0.86,2.42-3.68c-0.17-0.81-0.49-1.56-0.83-2.3
				c-1.4-3.07-2.92-6.1-4.17-9.24c-0.68-1.7-1.58-2.37-3.4-2.14c-0.88,0.11-1.13,0.3-1.32,1.19c-1.51,7.03-5.37,12.47-11.44,16.32
				c-6.53,4.14-13.69,4.22-21.01,3.18c-3.06-0.43-5.96-1.51-8.96-2.2c-1.45-0.34-2.86-0.39-3.77,1.21c-0.46,0.81-1.3,0.68-2.08,0.55
				c-0.33-0.01-0.65-0.02-0.98-0.03c-0.56-0.39-0.58-1.09-0.94-1.59c-0.09-0.41,0.29-0.95-0.32-1.22c-0.1-0.11-0.2-0.21-0.3-0.32
				c0-0.18,0-0.37,0-0.55c0.09-2.89-0.98-5.6-1.33-8.43c-0.49-1.81-0.49-3.74-1.33-5.47c0.46-1.03-0.11-1.99-0.27-2.95
				c-0.39-2.26-0.2-2.61,2.04-2.77c0.81-0.04,1.38,0.38,1.87,0.96c0.99,1.63,2.37,2.88,3.92,4.11c0.47-1.13,1.24-2.05,1.23-3.28
				c0.74-1.1,1.55-2.17,1.5-3.6c1.44-1.21,1.7-3.03,2.37-4.63c0.66-1.36,1.38-2.7,1.74-4.18c1.27-1.61,1.87-3.55,2.59-5.43
				c0.29-0.48,0.62-0.94,0.88-1.43c0.29-0.56,0.59-1.27-0.05-1.67c-0.92-0.58-1.69-1.49-2.89-1.57c-0.56-0.43-1.13-0.87-1.69-1.3
				c-1.34-1.03-2.66-2.1-4.04-3.09c-0.73-0.52-0.98-1.52-1.93-1.77c-0.1-0.1-0.19-0.2-0.29-0.3c-0.79-1.22-1.77-2.29-2.56-3.53
				c-1.36-2.15-1.88-4.62-2.99-6.85c-0.01-0.15-0.03-0.31-0.04-0.46c0.27-1.96-0.49-3.84-0.35-5.8c0.26-3.68,1.2-7.16,2.93-10.42
				c0.13-0.16,0.26-0.31,0.38-0.48c4.78-7.02,11.42-10.64,19.9-11.03c4.64-0.21,9.28-0.05,13.92-0.11c0.77-0.01,1.33-0.09,1.74-0.87
				c0.5-0.95,1.55-1.01,1.95-0.17c0.59,1.24,1.48,1.03,2.41,1.03c20.38,0,40.76,0.01,61.13,0
				C234.82,90.23,237.75,90.13,240.69,90.08z M207.65,178.1c-1.42-1.39-2.42-2.78-3.15-4.37c-4.05-8.8-8.11-17.61-12.17-26.41
				c-6.46-14.02-12.94-28.03-19.37-42.07c-0.39-0.86-0.8-1.23-1.79-1.2c-2.58,0.08-5.16,0.04-7.74,0.02c-0.61,0-0.97,0.11-1.26,0.77
				c-2.62,5.97-5.29,11.91-7.98,17.85c-0.35,0.77-0.25,1.16,0.51,1.59c2.25,1.26,4.47,2.55,6.65,3.93c0.83,0.52,1.09,0.29,1.42-0.5
				c0.84-1.98,1.76-3.93,2.67-5.89c0.33-0.71,0.68-1.44,1.64-1.41c0.97,0.03,1.19,0.8,1.51,1.51c3.47,7.67,6.93,15.34,10.44,22.98
				c0.76,1.66,0.17,2.65-1.69,2.62c-6.92-0.11-13.84-0.12-20.75,0c-2.03,0.03-2.61-1.02-1.66-2.69c0.47-0.82,0.31-1.25-0.47-1.71
				c-2.18-1.27-4.36-2.55-6.47-3.93c-0.85-0.56-1.08-0.2-1.39,0.51c-3.31,7.46-6.63,14.91-10,22.34c-0.35,0.78-0.16,1.02,0.49,1.4
				c2.14,1.22,4.48,1.92,6.75,2.81c0.92,0.36,1.65,0.13,2.11-1.02c1.01-2.52,2.23-4.96,3.34-7.44c0.38-0.84,0.95-1.31,1.89-1.31
				c10.58,0,21.17,0,31.75,0c0.83,0,1.46,0.28,1.83,1.11c1.87,4.11,3.88,8.16,5.64,12.32c1.11,2.64,2.07,5.42-0.04,8.18
				C196.1,178.1,201.72,178.1,207.65,178.1z M160.75,92.92c-3,0-5.99-0.04-8.98,0.01c-3.44,0.06-6.8,0.53-9.91,2.13
				c-7.16,3.67-11.4,9.34-11.76,17.53c-0.26,6.07,1.92,11.23,6.31,15.43c3.15,3.01,6.93,5.14,10.6,7.42
				c4.32,2.68,8.83,5.04,12.73,8.36c0.5,0.43,0.97,0.96,1.83,0.96c4.13-0.01,8.25-0.16,12.38,0.09c0.91,0.06,1.08-0.43,0.64-1.15
				c-0.56-0.91-1.13-1.83-1.77-2.68c-3.23-4.28-7.57-7.22-12.03-10.01c-4.63-2.91-9.56-5.34-13.96-8.63c-2.73-2.04-5.29-4.22-5.52-8
				c-0.18-2.95,0.19-5.77,2.19-8.11c3.22-3.77,7.64-4.88,12.27-4.9c26.28-0.08,52.57-0.05,78.85,0.01c1.96,0.01,4.02,0.03,5.88,0.98
				c0.79,0.4,0.92-0.03,0.78-0.68c-0.6-2.76-1.22-5.52-1.81-8.28c-0.13-0.59-0.47-0.69-1-0.69c-2.46,0.01-4.92-0.04-7.39-0.03
				C207.62,92.78,184.18,92.46,160.75,92.92z M204.19,166.73c0.08-0.01,0.16-0.03,0.25-0.04c0-9.33,0-18.65,0-27.98
				c0-0.51-0.01-1.04,0.08-1.54c0.14-0.81,0.59-1.23,1.49-1.23c5.57,0.04,11.15,0,16.72,0.07c1.37,0.02,2.77,0.34,3.73,1.44
				c0.6,0.69,0.83,0.44,1-0.23c0.21-0.85,0.36-1.71,0.56-2.56c0.69-2.91,1.4-5.81,2.08-8.72c0.08-0.33,0.28-0.75-0.06-1.01
				c-0.14-0.11-0.52-0.03-0.71,0.09c-2,1.31-4.27,1.32-6.53,1.34c-5.06,0.03-10.12,0.03-15.17,0.04c-2.98,0.01-3.16-0.17-3.17-3.13
				c-0.02-5.83-0.06-11.66-0.02-17.49c0.01-1.31-0.1-1.94-1.74-1.77c-2.34,0.24-4.72-0.02-7.09,0.2c-2.35,0.21-2.34,0.08-2.34,2.44
				c0.01,11.56,0.03,23.12,0,34.68c0,1.11,0.17,2.13,0.64,3.13c2.16,4.64,4.29,9.3,6.44,13.94
				C201.61,161.18,202.9,163.96,204.19,166.73z M132.38,176.8c0.93-1.06,1.75-1.56,2.73-1.74c2.14-0.39,4.31,0.14,6.15,0.88
				c3.81,1.54,7.79,1.54,11.71,2.09c1.39,0.2,2.81-0.2,4.22-0.36c2.9-0.33,5.55-1.2,8.09-2.54c5.56-2.93,8.78-7.79,10.91-13.47
				c0.7-1.87,0.15-2.43-1.9-2.43c-2.48,0.01-4.95,0.06-7.43-0.01c-1.41-0.04-2.11,0.5-2.54,1.85c-0.81,2.54-2.6,4.49-4.82,5.77
				c-5.68,3.26-11.77,3.11-17.79,1.2c-4.32-1.37-8.32-3.48-11.46-6.92c-0.21-0.24-0.51-0.47-0.8-0.29
				c-0.39,0.23-0.23,0.65-0.11,0.97c0.62,1.59,0.7,3.29,1.05,4.93C131.07,169.96,131.67,173.22,132.38,176.8z M175.26,104.02
				c5.05,10.97,10.02,21.75,14.98,32.52c0.3-3.14,0.3-6.21,0.3-9.28c0-7.32,0.01-14.65-0.02-21.97c0-0.48,0.44-1.3-0.71-1.29
				C185.03,104.04,180.25,104.02,175.26,104.02z M159.64,104.18c-4.62-0.67-8.54-0.02-11.92,1.91c-4.5,2.58-5.35,8.54-1.74,12.23
				c1.38,1.41,3.01,2.47,4.61,3.59c0.67,0.46,0.95,0.46,1.31-0.38c1.68-3.89,3.44-7.75,5.17-11.62
				C157.92,108.01,158.77,106.12,159.64,104.18z M156.74,159.21c-1.44,0-2.88,0.02-4.32-0.01c-0.62-0.01-1.03,0.11-1.3,0.77
				c-0.8,1.93-1.65,3.84-2.57,5.72c-0.47,0.96,0.02,1.07,0.74,1.07c1.13-0.01,2.27,0.03,3.39-0.12c4.16-0.57,7.43-2.49,9.35-6.39
				c0.39-0.8,0.25-1.08-0.66-1.05C159.83,159.24,158.28,159.21,156.74,159.21z M167.03,125.18c-0.79,1.66-1.48,3.12-2.17,4.58
				c-0.15,0.32-0.09,0.57,0.23,0.78c2.13,1.34,4.13,2.87,6.31,4.29C169.98,131.69,168.56,128.56,167.03,125.18z"/>
			<path class="st274" d="M207.65,178.1c-5.93,0-11.55,0-17.28,0c2.11-2.76,1.16-5.55,0.04-8.18c-1.76-4.16-3.77-8.21-5.64-12.32
				c-0.38-0.83-1.01-1.11-1.83-1.11c-10.58,0-21.17,0-31.75,0c-0.94,0-1.51,0.46-1.89,1.31c-1.11,2.48-2.33,4.92-3.34,7.44
				c-0.46,1.15-1.19,1.38-2.11,1.02c-2.27-0.89-4.62-1.59-6.75-2.81c-0.65-0.37-0.85-0.61-0.49-1.4c3.37-7.43,6.68-14.89,10-22.34
				c0.31-0.7,0.54-1.06,1.39-0.51c2.11,1.38,4.29,2.66,6.47,3.93c0.79,0.46,0.94,0.89,0.47,1.71c-0.95,1.67-0.37,2.72,1.66,2.69
				c6.92-0.11,13.84-0.11,20.75,0c1.86,0.03,2.45-0.96,1.69-2.62c-3.51-7.65-6.98-15.31-10.44-22.98c-0.32-0.71-0.54-1.49-1.51-1.51
				c-0.96-0.03-1.31,0.7-1.64,1.41c-0.91,1.95-1.83,3.9-2.67,5.89c-0.33,0.79-0.59,1.02-1.42,0.5c-2.18-1.37-4.41-2.67-6.65-3.93
				c-0.76-0.42-0.86-0.82-0.51-1.59c2.69-5.94,5.36-11.88,7.98-17.85c0.29-0.66,0.65-0.78,1.26-0.77c2.58,0.02,5.16,0.06,7.74-0.02
				c0.99-0.03,1.39,0.34,1.79,1.2c6.43,14.03,12.91,28.05,19.37,42.07c4.06,8.8,8.11,17.61,12.17,26.41
				C205.23,175.32,206.24,176.72,207.65,178.1z"/>
			<path class="st274" d="M160.75,92.92c23.44-0.46,46.87-0.14,70.31-0.23c2.46-0.01,4.92,0.03,7.39,0.03c0.53,0,0.88,0.1,1,0.69
				c0.59,2.76,1.22,5.52,1.81,8.28c0.14,0.65,0.01,1.08-0.78,0.68c-1.85-0.95-3.91-0.97-5.88-0.98c-26.28-0.07-52.57-0.1-78.85-0.01
				c-4.63,0.01-9.05,1.13-12.27,4.9c-2,2.34-2.37,5.16-2.19,8.11c0.23,3.78,2.79,5.96,5.52,8c4.4,3.29,9.32,5.72,13.96,8.63
				c4.46,2.8,8.81,5.74,12.03,10.01c0.64,0.85,1.21,1.77,1.77,2.68c0.44,0.71,0.28,1.2-0.64,1.15c-4.13-0.25-8.25-0.09-12.38-0.09
				c-0.86,0-1.33-0.53-1.83-0.96c-3.9-3.32-8.41-5.69-12.73-8.36c-3.67-2.28-7.45-4.4-10.6-7.42c-4.39-4.2-6.57-9.36-6.31-15.43
				c0.36-8.19,4.6-13.86,11.76-17.53c3.11-1.6,6.48-2.07,9.91-2.13C154.76,92.88,157.75,92.92,160.75,92.92z"/>
			<path class="st274" d="M204.19,166.73c-1.28-2.78-2.57-5.55-3.85-8.33c-2.15-4.65-4.28-9.3-6.44-13.94
				c-0.47-1-0.64-2.02-0.64-3.13c0.02-11.56,0.01-23.12,0-34.68c0-2.36-0.01-2.22,2.34-2.44c2.37-0.22,4.75,0.04,7.09-0.2
				c1.64-0.17,1.75,0.46,1.74,1.77c-0.04,5.83,0,11.66,0.02,17.49c0.01,2.96,0.19,3.13,3.17,3.13c5.06-0.01,10.12-0.01,15.17-0.04
				c2.26-0.01,4.53-0.03,6.53-1.34c0.19-0.12,0.57-0.2,0.71-0.09c0.34,0.26,0.14,0.68,0.06,1.01c-0.68,2.91-1.39,5.82-2.08,8.72
				c-0.2,0.85-0.35,1.71-0.56,2.56c-0.17,0.67-0.39,0.92-1,0.23c-0.97-1.11-2.36-1.43-3.73-1.44c-5.57-0.07-11.15-0.04-16.72-0.07
				c-0.9-0.01-1.35,0.42-1.49,1.23c-0.09,0.5-0.08,1.03-0.08,1.54c0,9.33,0,18.65,0,27.98
				C204.35,166.71,204.27,166.72,204.19,166.73z"/>
			<path class="st274" d="M132.38,176.8c-0.71-3.58-1.31-6.84-2.01-10.07c-0.35-1.64-0.43-3.34-1.05-4.93
				c-0.12-0.32-0.28-0.74,0.11-0.97c0.3-0.17,0.59,0.06,0.8,0.29c3.14,3.43,7.14,5.55,11.46,6.92c6.03,1.91,12.11,2.06,17.79-1.2
				c2.22-1.27,4.01-3.23,4.82-5.77c0.43-1.36,1.14-1.9,2.54-1.85c2.47,0.07,4.95,0.01,7.43,0.01c2.05,0,2.6,0.56,1.9,2.43
				c-2.13,5.69-5.35,10.54-10.91,13.47c-2.54,1.34-5.19,2.21-8.09,2.54c-1.41,0.16-2.82,0.55-4.22,0.36
				c-3.92-0.55-7.9-0.55-11.71-2.09c-1.83-0.74-4.01-1.27-6.15-0.88C134.13,175.24,133.3,175.74,132.38,176.8z"/>
			<path class="st274" d="M167.03,125.18c1.53,3.38,2.95,6.51,4.37,9.65c-2.18-1.42-4.17-2.95-6.31-4.29
				c-0.33-0.21-0.38-0.46-0.23-0.78C165.54,128.3,166.24,126.84,167.03,125.18z"/>
		</g>
	</g>
	<g>
		<g>
			<path class="st275" d="M140.64,145.87c-0.36,1.49-1.08,2.82-1.74,4.18c-3.1-0.21-5.57-1.63-7.55-3.96
				c-2.62-3.07-5.69-5.42-9.68-6.45c-2.47-0.64-4.66-0.09-5.99,1.69c1.36,0.7,2.94,0.74,4.26,1.63c2.16,1.45,3.95,3.26,5.63,5.21
				c2.93,3.4,6.01,6.52,10.95,6.51c0.05,1.43-0.75,2.5-1.5,3.6c-1.77,0.05-3.43-0.55-5.15-0.83c-0.49-0.58-1.06-1-1.87-0.96
				c-2.6-2.56-5.11-5.22-7.82-7.64c-3.14-2.8-6.93-4.37-11.32-5.08c0.85-0.54,1.5-0.96,2.32-1.48c-2.57-0.99-4.2-2.86-5.81-4.79
				c-1.66-1.99-3.92-3.11-6.42-3.95c0.55-0.94,1.83-0.95,2.35-2.08c-3.76-0.52-6.7-2.47-9.48-4.8c-1.6-1.34-3.48-2.2-5.6-2.37
				c-1.11-0.09-1.29-0.6-0.54-1.35c0.99-0.98,0.37-1.22-0.54-1.39c-3.34-0.61-5.94-2.45-8.17-4.92c-0.83-0.92-1.62-1.87-2.45-2.79
				c-2.21-2.47-4.75-4.4-8.55-4.63c2.2-1.46,0.7-3.04,0.48-4.5c-0.24-1.65-0.78-3.26-2.7-3.76c-0.81-0.21-0.76-0.62-0.41-1.21
				c0.27-0.44,0.51-0.89,0.73-1.36c0.9-1.94,0.97-2.16,2.92-0.52c0.88,0.74,1.46,1.71,1.76,2.84c0.4,1.53,1.2,2.93,1.73,4.35
				c0.54,1.45,1.4,1.28,2.29,1.68c1.63,0.74,2.83,2.03,4.05,3.29c2.08,2.13,3.93,4.51,6.49,6.13c0.96,0.61,1.95,1.14,3.1,1.31
				c0.38,0.35,0.83,0.28,1.28,0.22c0.52-0.01,1.04-0.02,1.56-0.02c0.24,0.05,0.46,0.02,0.6-0.22c0.21,0,0.43,0,0.64,0l-0.02-0.02
				c-0.12,1.4-1.82,1.91-1.97,3.34c2.58,0.16,4.69,1.33,6.67,2.73c2.14,1.52,4.22,3.12,6.77,3.91c1.52,0.47,3.07,0.83,4.95,1.04
				c-1.22,0.89-2.16,1.57-3.21,2.33c1.04,0.55,2.08,0.67,2.89,1.32c1.07,0.87,1.85,1.99,2.8,2.97c1.88,1.94,4.2,3.15,6.82,3.67
				c2.32,0.46,4.4-0.11,6.35-1.6c1.76-1.35,3.74-1.12,5.63,0.05c2.06,1.28,3.42,3.23,4.91,5.06
				C135.04,144.69,137.35,146.3,140.64,145.87z"/>
			<path class="st275" d="M115.26,112.83c-0.56,1.36-0.96,2.81-2.05,3.88c-2.63,0.13-4.68-1.27-6.77-2.55
				c-1.4-0.85-2.8-1.71-4.15-2.64c-1.58-1.11-3.42-1.35-5.23-1.66c-0.87-0.15-1.54,0.14-2.09,0.94c-2.4,3.52-5.63,4.02-8.98,1.33
				c-1.44-1.16-2.68-2.56-4.02-3.83c-2.44-2.33-5.15-4.07-8.87-4.23c1.53-1.02,0.77-1.91,0.07-2.88c-0.94-1.32-1.2-2.94-1.76-4.42
				c-1.08-2.85-2.57-3.77-5.59-3.46c0.24-1.69,0.6-3.37,2.43-3.91c1.69-0.5,3.17,0.31,4.22,1.62c2.28,2.86,3.59,6.19,4.36,9.73
				c0.14,0.65,0.43,0.54,0.82,0.57c2.15,0.15,3.94,1.03,5.42,2.61c1.23,1.31,2.46,2.63,3.78,3.86c1.67,1.55,3.57,2.63,5.99,2.23
				c1.3-0.22,2.65-0.58,3.18-1.88c0.94-2.3,2.39-2.51,5.33-1.91c2.64,0.53,4.71,2.22,6.87,3.68
				C110.39,111.36,112.67,112.44,115.26,112.83z"/>
			<path class="st275" d="M111.52,120.32c-0.7,1.39-1.33,2.82-2.39,4c-1.15,0.16-2.23-0.12-3.3-0.53c-2.14-0.81-4-2.11-5.85-3.41
				c-2.86-2.01-5.94-3.23-9.51-2.92l0.02,0.02c0.45-0.73,0.97-1.39,1.31-2.21c0.63-1.55,1.8-2.04,3.67-1.78
				c2.34,0.32,4.4,1.3,6.32,2.64c2.15,1.5,4.29,3,6.84,3.8C109.59,120.23,110.56,120.17,111.52,120.32z"/>
			<path class="st275" d="M87.69,117.73c-0.45,0.06-0.9,0.13-1.28-0.22C86.85,117.48,87.32,117.35,87.69,117.73z"/>
			<path class="st275" d="M89.85,117.48c-0.14,0.24-0.35,0.27-0.6,0.22C89.4,117.49,89.61,117.45,89.85,117.48z"/>
			<path class="st275" d="M126.25,162.21c0.83,1.73,0.83,3.66,1.33,5.47c-1.84,0.03-3.31-1.11-5.01-1.54
				c-0.15-0.12-0.31-0.24-0.46-0.36l0.01,0.01c-0.04-0.18-0.12-0.3-0.33-0.27c-0.81-0.72-1.7-1.38-2.43-2.19
				c-1.3-1.45-2.56-2.95-3.82-4.43c-1.1-1.29-2.6-2.25-3.93-3.36c0-0.44-0.22-0.65-0.65-0.66c-1.2-1.92-3.17-2.96-4.92-4.22
				c-1.55-1.11-3.22-2.07-4.99-2.85c-0.68-0.3-1.25-0.28-1.9-0.26c-0.21,0.11-0.68-0.38-0.66,0.28c-0.18,0.43-0.61,0.17-0.89,0.33
				c-0.21,0.11-0.68-0.35-0.64,0.29c-0.2,0.39-0.62,0.16-0.91,0.32c-0.24-0.02-0.51-0.09-0.57,0.27c-0.12,0.31-0.44,0.25-0.67,0.35
				c-0.32,0-0.71-0.21-0.88,0.27c-0.23,0.39-0.67,0.21-0.99,0.37c-0.24-0.02-0.54-0.16-0.6,0.25c-0.1,0.1-0.21,0.21-0.31,0.31
				c-0.09-0.04-0.18-0.05-0.28-0.01c-3.04-0.47-4.94-2.47-6.55-4.87c-1.46-2.17-1.18-1.82-3.21-0.76c-2.04,1.07-4.02,2.24-6.08,3.28
				c-1.6,0.81-2.75,0.32-3.98-0.44c-1.79-1.11-3.3-2.61-5.12-3.7c-1.26-0.75-2.3-0.84-3.5,0.15c-1.26,1.04-2.69,1.88-4.04,2.81
				c-1.79,1.25-2.62,1.22-4.38-0.09c-1.78-1.32-2.95-3.12-4.04-5c-2.18-3.73-4.29-7.5-7.34-10.65c-1.15-1.19-2.29-1.47-3.7-0.63
				c-0.88,0.52-1.77,1.02-2.65,1.55c-0.81,0.48-1.66,0.82-2.63,0.71c-0.72-0.09-1.27-0.5-1.52-1.16c-0.29-0.76,0.44-0.94,0.88-1.23
				c1.06-0.7,1.89-1.85,3.52-1.32c0.74,0.24,1.34-0.64,1.92-1.13c0.51-0.44,1.35-0.76,0.46-1.65c-0.28-0.28,0.17-0.53,0.38-0.72
				c0.5-0.44,1.06-0.83,1.54-1.29c0.49-0.46,0.9-0.84,1.57-0.24c0.73,0.66,0.21,1.05-0.23,1.49c-0.14,0.14-0.26,0.3-0.52,0.6
				c5.57,1.41,7.62,5.96,9.75,10.45c1.18,2.48,2.56,4.81,4.8,6.52c2.01,1.53,4.59,1.07,5.76-1.14c0.26-0.49,0.1-0.67-0.43-0.85
				c-2.49-0.83-4.05-2.72-5.38-4.85c-2.09-3.35-3.86-6.93-6.89-9.62c-1.49-1.32-3.24-2.16-5.14-3.04c0.61-0.5,1.15-0.93,1.7-1.38
				c-0.09-0.67-0.88-0.65-1.14-1.22c0.79-0.72,1.63-1.41,2.35-2.19c0.67-0.73,1.21-0.75,1.94-0.09c0.77,0.68,0.73,1.25,0.02,1.91
				c-0.14,0.13-0.2,0.34-0.38,0.65c3.53,0.87,5.34,3.57,6.98,6.4c1.86,3.23,3.94,6.27,6.73,8.78c0.77,0.7,1.62,1.24,2.58,1.65
				c0.51,0.22,1.69,0.03,0.89,1.25c-0.16,0.25,0.16,0.44,0.44,0.48c2.73,0.39,4.74,2.13,6.88,3.63c0.88,0.62,1.83,1.13,2.85,1.5
				c1.06,0.38,1.8,0.35,1.99-0.99c0.06-0.4,0.15-0.89,0.42-1.14c1.58-1.49,0.27-2-0.78-2.79c-2.56-1.91-5.27-3.37-8.88-3.31
				c1.66-1.32,0.81-1.61-0.4-2.09c-1.53-0.61-2.78-1.74-3.89-2.99c-1.61-1.81-3.1-3.72-4.53-5.68c-2.37-3.26-5.14-6.01-9.46-6.85
				c0.46-0.31,0.74-0.51,1.04-0.69c1.7-0.98,1.89-1.73,0.41-2.98c-0.93-0.79-0.65-1.1,0.06-1.71c0.62-0.53,1.2-1.15,1.65-1.83
				c0.47-0.71,0.82-0.59,1.34-0.12c1.58,1.45,1.62,2.69,0.13,4.21c-0.2,0.21-0.35,0.47-0.62,0.84c4.11,0.7,6.55,3.47,8.79,6.46
				c0.86,1.15,1.63,2.38,2.42,3.59c2,3.03,4.81,4.72,8.43,5.09c0,0.08,0.04,0.21-0.01,0.27c-1.21,1.32-1.22,1.34,0.59,1.8
				c2.01,0.5,3.6,1.72,5.19,2.94c1.64,1.25,3.29,2.39,5.37,2.92c1.65,0.42,2.63,1.91,3.66,3.19c1.03,1.29,1.98,2.65,3.35,3.61
				c0.37,0.26,0.81,0.74,1.23,0.44c1.66-1.21,3.78-0.91,5.87-1.91c-3.22-1.07-4.9-3.64-7.11-5.59c-0.08-0.07-0.16-0.14-0.24-0.2
				c-3.35-2.35-6.69-4.71-10.04-7.05c-1.3-0.91-2.8-1.23-4.32-1.52c-0.33-0.06-0.8,0.07-0.97-0.33c-0.18-0.42,0.33-0.57,0.5-0.86
				c0.22-0.37,0.94-0.52,0.65-1.08c-0.2-0.4-0.75-0.15-1.14-0.22c-2.43-0.42-4.17-1.95-5.79-3.63c-1.32-1.37-2.52-2.85-3.77-4.29
				c-2.5-2.85-5.1-5.56-9.04-6.3c0.04-0.2,0.03-0.31,0.08-0.38c0.41-0.63,1.68-0.92,1.44-1.61c-0.51-1.47-0.48-3.25-1.88-4.3
				c-0.46-0.35-0.59-0.47-0.19-0.95c0.62-0.75,1.18-1.56,1.72-2.37c0.7-1.05,1.2-0.71,1.88,0.08c1.25,1.48,1.2,3.47,2.13,5.09
				c0.35,0.62-1.09,0.78-1.04,1.71c4.08,0.45,5.66,4.03,8.05,6.63c2.79,3.04,5.72,5.8,9.94,6.69c0.69,0.14,1.4,0.2,2.13,0.3
				c-0.37,0.95-1.52,1.27-1.74,2.36c1.66,0.08,2.95,0.84,4.06,1.96c2.35,2.35,5.47,3.18,8.44,4.31c0.62,0.24,1.24,0.48,1.95,0.75
				c-0.43,0.39-0.79,0.72-1.31,1.2c2.14,0.56,3.25,2.12,4.47,3.56c1.69,2,3.68,3.59,6.19,4.47c0.42,0.15,1.35,0.1,0.64,1.07
				c-0.23,0.32,0.32,0.42,0.58,0.52c4.82,1.9,8.23,5.53,11.5,9.34c1.11,1.29,2.16,2.62,3.27,3.91
				C122.61,160.3,124.31,161.43,126.25,162.21z"/>
			<path class="st275" d="M97.36,99.76c0,0-0.44,4.14-3.59,1.78c-2.71-1.96-9.07-9.97-13.61-2.93c1.68,0.19,3.86,0.13,7.17,3.46
				c2.67,1.99,6.76,6.54,10.68,2.19c1.23-1.88,1.69-2.84,1.98-3.34c0.28-0.49,0.24-1.87,0.24-1.87l-2.28,0.47L97.36,99.76z"/>
		</g>
		<g>
			<g>
				<path class="st44" d="M119.25,103.55c0,0-10.43,23.3-12.87,24.93c2.28-0.16,6.35,1.47,7.98,3.26c1.63,1.79,5.21,5.25,11.57,2.38
					c2.28-1.08,7.17-1.89,11.08,3.16c1.63,1.63,2.44,3.42,8.63,2.61c1.47-1.79,0.81-4.4,0.81-4.4s-5.05-11.08-5.38-11.89
					c-0.33-0.81-7.01-11.57-7.01-11.57l1.63-8.47l-3.75-1.79c0,0-3.75-1.14-7.49,1.3C123.65,103.71,120.19,103.8,119.25,103.55z"/>
				<g>
					<polygon class="st8" points="122.86,103.88 123.27,105.14 124.58,105.14 123.52,105.91 123.92,107.16 122.86,106.39 
						121.79,107.16 122.2,105.91 121.13,105.14 122.45,105.14 					"/>
					<polygon class="st8" points="119.41,110.44 119.82,111.7 121.13,111.7 120.07,112.47 120.47,113.72 119.41,112.95 
						118.34,113.72 118.75,112.47 117.68,111.7 119,111.7 					"/>
					<polygon class="st8" points="116.6,117.03 117,118.29 118.32,118.29 117.25,119.06 117.66,120.31 116.6,119.54 115.53,120.31 
						115.94,119.06 114.87,118.29 116.19,118.29 					"/>
					<polygon class="st8" points="120.63,118.39 121.03,119.64 122.35,119.64 121.28,120.42 121.69,121.67 120.63,120.89 
						119.56,121.67 119.97,120.42 118.9,119.64 120.22,119.64 					"/>
					<polygon class="st8" points="122.65,113.72 123.06,114.98 124.38,114.98 123.31,115.75 123.72,117 122.65,116.23 121.58,117 
						121.99,115.75 120.93,114.98 122.24,114.98 					"/>
					<polygon class="st8" points="126.1,116.58 126.51,117.83 127.83,117.83 126.76,118.61 127.17,119.86 126.1,119.09 
						125.03,119.86 125.44,118.61 124.38,117.83 125.69,117.83 					"/>
					<polygon class="st8" points="122.65,124.03 123.06,125.28 124.38,125.28 123.31,126.06 123.72,127.31 122.65,126.53 
						121.58,127.31 121.99,126.06 120.93,125.28 122.24,125.28 					"/>
					<polygon class="st8" points="117.18,125.45 117.58,126.71 118.9,126.71 117.83,127.48 118.24,128.73 117.18,127.96 
						116.11,128.73 116.52,127.48 115.45,126.71 116.77,126.71 					"/>
					<polygon class="st8" points="127.83,122.56 128.23,123.82 129.55,123.82 128.48,124.59 128.89,125.85 127.83,125.07 
						126.76,125.85 127.17,124.59 126.1,123.82 127.42,123.82 					"/>
					<polygon class="st8" points="124.38,130.4 124.78,131.66 126.1,131.66 125.03,132.43 125.44,133.68 124.38,132.91 
						123.31,133.68 123.72,132.43 122.65,131.66 123.97,131.66 					"/>
					<polygon class="st8" points="130.34,128.22 130.75,129.47 132.07,129.47 131,130.25 131.41,131.5 130.34,130.73 129.28,131.5 
						129.68,130.25 128.62,129.47 129.93,129.47 					"/>
					<polygon class="st8" points="133.79,128.92 134.2,130.17 135.52,130.17 134.45,130.95 134.86,132.2 133.79,131.42 
						132.73,132.2 133.13,130.95 132.07,130.17 133.38,130.17 					"/>
					<polygon class="st8" points="140.57,133.68 140.97,134.94 142.29,134.94 141.22,135.71 141.63,136.97 140.57,136.19 
						139.5,136.97 139.91,135.71 138.84,134.94 140.16,134.94 					"/>
				</g>
			</g>
			<path class="st276" d="M240.69,90.08c1.23,0.27,1.28,1.34,1.55,2.26c0.85,4.1,1.63,8.21,2.58,12.28
				c0.27,1.15,0.23,1.87-0.92,2.35c-1.13,0.47-2.25,1.01-3.04-0.47c-1.08-1.99-2.86-2.45-4.95-2.45c-9.14,0-18.28-0.01-27.41-0.07
				c-0.97-0.01-1.31,0.14-1.29,1.22c0.06,5.68,0.07,11.36-0.01,17.04c-0.02,1.25,0.41,1.39,1.48,1.38
				c4.85-0.06,9.71-0.06,14.56-0.01c2.98,0.03,5.67-0.26,6.76-3.71c0.28-0.87,2.3-1.21,3.34-0.71c1.1,0.53,0.91,1.4,0.65,2.38
				c-0.5,1.88-0.9,3.78-1.34,5.68c-1.18,5.02-2.35,10.03-3.54,15.05c-0.2,0.86-0.6,1.44-1.64,1.51c-2.27,0.14-2.53-0.05-2.58-2.39
				c-0.05-2.11-0.4-2.51-2.5-2.66c-4.74-0.34-9.49-0.04-14.24-0.17c-1.13-0.03-0.91,0.67-0.91,1.31c0,10.53-0.01,21.06,0,31.6
				c0,2.98,1.17,4.4,4.07,5.04c1.68,0.38,1.97,0.81,1.79,2.73c-0.13,1.34-1.07,1.63-2.18,1.62c-8.15-0.08-16.3-0.18-24.46-0.25
				c-1.07-0.01-1.84-0.26-1.85-1.51c-0.01-1.2-0.1-2.35,1.63-2.6c2.78-0.41,3-0.86,2.42-3.68c-0.17-0.81-0.49-1.56-0.83-2.3
				c-1.4-3.07-2.92-6.1-4.17-9.24c-0.68-1.7-1.58-2.37-3.4-2.14c-0.88,0.11-1.13,0.3-1.32,1.19c-1.51,7.03-5.37,12.47-11.44,16.32
				c-6.53,4.14-13.69,4.22-21.01,3.18c-3.06-0.43-5.96-1.51-8.96-2.2c-1.45-0.34-2.86-0.39-3.77,1.21c-0.46,0.81-1.3,0.68-2.08,0.55
				c-0.33-0.01-0.65-0.02-0.98-0.03c-0.56-0.39-0.58-1.09-0.94-1.59c-0.09-0.41,0.29-0.95-0.32-1.22c-0.1-0.11-0.2-0.21-0.3-0.32
				c0-0.18,0-0.37,0-0.55c0.09-2.89-0.98-5.6-1.33-8.43c-0.49-1.81-0.49-3.74-1.33-5.47c0.46-1.03-0.11-1.99-0.27-2.95
				c-0.39-2.26-0.2-2.61,2.04-2.77c0.81-0.04,1.38,0.38,1.87,0.96c0.99,1.63,2.37,2.88,3.92,4.11c0.47-1.13,1.24-2.05,1.23-3.28
				c0.74-1.1,1.55-2.17,1.5-3.6c1.44-1.21,1.7-3.03,2.37-4.63c0.66-1.36,1.38-2.7,1.74-4.18c1.27-1.61,1.87-3.55,2.59-5.43
				c0.29-0.48,0.62-0.94,0.88-1.43c0.29-0.56,0.59-1.27-0.05-1.67c-0.92-0.58-1.69-1.49-2.89-1.57c-0.56-0.43-1.13-0.87-1.69-1.3
				c-1.34-1.03-2.66-2.1-4.04-3.09c-0.73-0.52-0.98-1.52-1.93-1.77c-0.1-0.1-0.19-0.2-0.29-0.3c-0.79-1.22-1.77-2.29-2.56-3.53
				c-1.36-2.15-1.88-4.62-2.99-6.85c-0.01-0.15-0.03-0.31-0.04-0.46c0.27-1.96-0.49-3.84-0.35-5.8c0.26-3.68,1.2-7.16,2.93-10.42
				c0.13-0.16,0.26-0.31,0.38-0.48c4.78-7.02,11.42-10.64,19.9-11.03c4.64-0.21,9.28-0.05,13.92-0.11c0.77-0.01,1.33-0.09,1.74-0.87
				c0.5-0.95,1.55-1.01,1.95-0.17c0.59,1.24,1.48,1.03,2.41,1.03c20.38,0,40.76,0.01,61.13,0
				C234.82,90.23,237.75,90.13,240.69,90.08z M207.65,178.1c-1.42-1.39-2.42-2.78-3.15-4.37c-4.05-8.8-8.11-17.61-12.17-26.41
				c-6.46-14.02-12.94-28.03-19.37-42.07c-0.39-0.86-0.8-1.23-1.79-1.2c-2.58,0.08-5.16,0.04-7.74,0.02c-0.61,0-0.97,0.11-1.26,0.77
				c-2.62,5.97-5.29,11.91-7.98,17.85c-0.35,0.77-0.25,1.16,0.51,1.59c2.25,1.26,4.47,2.55,6.65,3.93c0.83,0.52,1.09,0.29,1.42-0.5
				c0.84-1.98,1.76-3.93,2.67-5.89c0.33-0.71,0.68-1.44,1.64-1.41c0.97,0.03,1.19,0.8,1.51,1.51c3.47,7.67,6.93,15.34,10.44,22.98
				c0.76,1.66,0.17,2.65-1.69,2.62c-6.92-0.11-13.84-0.12-20.75,0c-2.03,0.03-2.61-1.02-1.66-2.69c0.47-0.82,0.31-1.25-0.47-1.71
				c-2.18-1.27-4.36-2.55-6.47-3.93c-0.85-0.56-1.08-0.2-1.39,0.51c-3.31,7.46-6.63,14.91-10,22.34c-0.35,0.78-0.16,1.02,0.49,1.4
				c2.14,1.22,4.48,1.92,6.75,2.81c0.92,0.36,1.65,0.13,2.11-1.02c1.01-2.52,2.23-4.96,3.34-7.44c0.38-0.84,0.95-1.31,1.89-1.31
				c10.58,0,21.17,0,31.75,0c0.83,0,1.46,0.28,1.83,1.11c1.87,4.11,3.88,8.16,5.64,12.32c1.11,2.64,2.07,5.42-0.04,8.18
				C196.1,178.1,201.72,178.1,207.65,178.1z M160.75,92.92c-3,0-5.99-0.04-8.98,0.01c-3.44,0.06-6.8,0.53-9.91,2.13
				c-7.16,3.67-11.4,9.34-11.76,17.53c-0.26,6.07,1.92,11.23,6.31,15.43c3.15,3.01,6.93,5.14,10.6,7.42
				c4.32,2.68,8.83,5.04,12.73,8.36c0.5,0.43,0.97,0.96,1.83,0.96c4.13-0.01,8.25-0.16,12.38,0.09c0.91,0.06,1.08-0.43,0.64-1.15
				c-0.56-0.91-1.13-1.83-1.77-2.68c-3.23-4.28-7.57-7.22-12.03-10.01c-4.63-2.91-9.56-5.34-13.96-8.63c-2.73-2.04-5.29-4.22-5.52-8
				c-0.18-2.95,0.19-5.77,2.19-8.11c3.22-3.77,7.64-4.88,12.27-4.9c26.28-0.08,52.57-0.05,78.85,0.01c1.96,0.01,4.02,0.03,5.88,0.98
				c0.79,0.4,0.92-0.03,0.78-0.68c-0.6-2.76-1.22-5.52-1.81-8.28c-0.13-0.59-0.47-0.69-1-0.69c-2.46,0.01-4.92-0.04-7.39-0.03
				C207.62,92.78,184.18,92.46,160.75,92.92z M204.19,166.73c0.08-0.01,0.16-0.03,0.25-0.04c0-9.33,0-18.65,0-27.98
				c0-0.51-0.01-1.04,0.08-1.54c0.14-0.81,0.59-1.23,1.49-1.23c5.57,0.04,11.15,0,16.72,0.07c1.37,0.02,2.77,0.34,3.73,1.44
				c0.6,0.69,0.83,0.44,1-0.23c0.21-0.85,0.36-1.71,0.56-2.56c0.69-2.91,1.4-5.81,2.08-8.72c0.08-0.33,0.28-0.75-0.06-1.01
				c-0.14-0.11-0.52-0.03-0.71,0.09c-2,1.31-4.27,1.32-6.53,1.34c-5.06,0.03-10.12,0.03-15.17,0.04c-2.98,0.01-3.16-0.17-3.17-3.13
				c-0.02-5.83-0.06-11.66-0.02-17.49c0.01-1.31-0.1-1.94-1.74-1.77c-2.34,0.24-4.72-0.02-7.09,0.2c-2.35,0.21-2.34,0.08-2.34,2.44
				c0.01,11.56,0.03,23.12,0,34.68c0,1.11,0.17,2.13,0.64,3.13c2.16,4.64,4.29,9.3,6.44,13.94
				C201.61,161.18,202.9,163.96,204.19,166.73z M132.38,176.8c0.93-1.06,1.75-1.56,2.73-1.74c2.14-0.39,4.31,0.14,6.15,0.88
				c3.81,1.54,7.79,1.54,11.71,2.09c1.39,0.2,2.81-0.2,4.22-0.36c2.9-0.33,5.55-1.2,8.09-2.54c5.56-2.93,8.78-7.79,10.91-13.47
				c0.7-1.87,0.15-2.43-1.9-2.43c-2.48,0.01-4.95,0.06-7.43-0.01c-1.41-0.04-2.11,0.5-2.54,1.85c-0.81,2.54-2.6,4.49-4.82,5.77
				c-5.68,3.26-11.77,3.11-17.79,1.2c-4.32-1.37-8.32-3.48-11.46-6.92c-0.21-0.24-0.51-0.47-0.8-0.29
				c-0.39,0.23-0.23,0.65-0.11,0.97c0.62,1.59,0.7,3.29,1.05,4.93C131.07,169.96,131.67,173.22,132.38,176.8z M175.26,104.02
				c5.05,10.97,10.02,21.75,14.98,32.52c0.3-3.14,0.3-6.21,0.3-9.28c0-7.32,0.01-14.65-0.02-21.97c0-0.48,0.44-1.3-0.71-1.29
				C185.03,104.04,180.25,104.02,175.26,104.02z M159.64,104.18c-4.62-0.67-8.54-0.02-11.92,1.91c-4.5,2.58-5.35,8.54-1.74,12.23
				c1.38,1.41,3.01,2.47,4.61,3.59c0.67,0.46,0.95,0.46,1.31-0.38c1.68-3.89,3.44-7.75,5.17-11.62
				C157.92,108.01,158.77,106.12,159.64,104.18z M156.74,159.21c-1.44,0-2.88,0.02-4.32-0.01c-0.62-0.01-1.03,0.11-1.3,0.77
				c-0.8,1.93-1.65,3.84-2.57,5.72c-0.47,0.96,0.02,1.07,0.74,1.07c1.13-0.01,2.27,0.03,3.39-0.12c4.16-0.57,7.43-2.49,9.35-6.39
				c0.39-0.8,0.25-1.08-0.66-1.05C159.83,159.24,158.28,159.21,156.74,159.21z M167.03,125.18c-0.79,1.66-1.48,3.12-2.17,4.58
				c-0.15,0.32-0.09,0.57,0.23,0.78c2.13,1.34,4.13,2.87,6.31,4.29C169.98,131.69,168.56,128.56,167.03,125.18z"/>
			<path class="st277" d="M207.65,178.1c-5.93,0-11.55,0-17.28,0c2.11-2.76,1.16-5.55,0.04-8.18c-1.76-4.16-3.77-8.21-5.64-12.32
				c-0.38-0.83-1.01-1.11-1.83-1.11c-10.58,0-21.17,0-31.75,0c-0.94,0-1.51,0.46-1.89,1.31c-1.11,2.48-2.33,4.92-3.34,7.44
				c-0.46,1.15-1.19,1.38-2.11,1.02c-2.27-0.89-4.62-1.59-6.75-2.81c-0.65-0.37-0.85-0.61-0.49-1.4c3.37-7.43,6.68-14.89,10-22.34
				c0.31-0.7,0.54-1.06,1.39-0.51c2.11,1.38,4.29,2.66,6.47,3.93c0.79,0.46,0.94,0.89,0.47,1.71c-0.95,1.67-0.37,2.72,1.66,2.69
				c6.92-0.11,13.84-0.11,20.75,0c1.86,0.03,2.45-0.96,1.69-2.62c-3.51-7.65-6.98-15.31-10.44-22.98c-0.32-0.71-0.54-1.49-1.51-1.51
				c-0.96-0.03-1.31,0.7-1.64,1.41c-0.91,1.95-1.83,3.9-2.67,5.89c-0.33,0.79-0.59,1.02-1.42,0.5c-2.18-1.37-4.41-2.67-6.65-3.93
				c-0.76-0.42-0.86-0.82-0.51-1.59c2.69-5.94,5.36-11.88,7.98-17.85c0.29-0.66,0.65-0.78,1.26-0.77c2.58,0.02,5.16,0.06,7.74-0.02
				c0.99-0.03,1.39,0.34,1.79,1.2c6.43,14.03,12.91,28.05,19.37,42.07c4.06,8.8,8.11,17.61,12.17,26.41
				C205.23,175.32,206.24,176.72,207.65,178.1z"/>
			<path class="st278" d="M160.75,92.92c23.44-0.46,46.87-0.14,70.31-0.23c2.46-0.01,4.92,0.03,7.39,0.03c0.53,0,0.88,0.1,1,0.69
				c0.59,2.76,1.22,5.52,1.81,8.28c0.14,0.65,0.01,1.08-0.78,0.68c-1.85-0.95-3.91-0.97-5.88-0.98c-26.28-0.07-52.57-0.1-78.85-0.01
				c-4.63,0.01-9.05,1.13-12.27,4.9c-2,2.34-2.37,5.16-2.19,8.11c0.23,3.78,2.79,5.96,5.52,8c4.4,3.29,9.32,5.72,13.96,8.63
				c4.46,2.8,8.81,5.74,12.03,10.01c0.64,0.85,1.21,1.77,1.77,2.68c0.44,0.71,0.28,1.2-0.64,1.15c-4.13-0.25-8.25-0.09-12.38-0.09
				c-0.86,0-1.33-0.53-1.83-0.96c-3.9-3.32-8.41-5.69-12.73-8.36c-3.67-2.28-7.45-4.4-10.6-7.42c-4.39-4.2-6.57-9.36-6.31-15.43
				c0.36-8.19,4.6-13.86,11.76-17.53c3.11-1.6,6.48-2.07,9.91-2.13C154.76,92.88,157.75,92.92,160.75,92.92z"/>
			<path class="st278" d="M204.19,166.73c-1.28-2.78-2.57-5.55-3.85-8.33c-2.15-4.65-4.28-9.3-6.44-13.94
				c-0.47-1-0.64-2.02-0.64-3.13c0.02-11.56,0.01-23.12,0-34.68c0-2.36-0.01-2.22,2.34-2.44c2.37-0.22,4.75,0.04,7.09-0.2
				c1.64-0.17,1.75,0.46,1.74,1.77c-0.04,5.83,0,11.66,0.02,17.49c0.01,2.96,0.19,3.13,3.17,3.13c5.06-0.01,10.12-0.01,15.17-0.04
				c2.26-0.01,4.53-0.03,6.53-1.34c0.19-0.12,0.57-0.2,0.71-0.09c0.34,0.26,0.14,0.68,0.06,1.01c-0.68,2.91-1.39,5.82-2.08,8.72
				c-0.2,0.85-0.35,1.71-0.56,2.56c-0.17,0.67-0.39,0.92-1,0.23c-0.97-1.11-2.36-1.43-3.73-1.44c-5.57-0.07-11.15-0.04-16.72-0.07
				c-0.9-0.01-1.35,0.42-1.49,1.23c-0.09,0.5-0.08,1.03-0.08,1.54c0,9.33,0,18.65,0,27.98
				C204.35,166.71,204.27,166.72,204.19,166.73z"/>
			<path class="st278" d="M132.38,176.8c-0.71-3.58-1.31-6.84-2.01-10.07c-0.35-1.64-0.43-3.34-1.05-4.93
				c-0.12-0.32-0.28-0.74,0.11-0.97c0.3-0.17,0.59,0.06,0.8,0.29c3.14,3.43,7.14,5.55,11.46,6.92c6.03,1.91,12.11,2.06,17.79-1.2
				c2.22-1.27,4.01-3.23,4.82-5.77c0.43-1.36,1.14-1.9,2.54-1.85c2.47,0.07,4.95,0.01,7.43,0.01c2.05,0,2.6,0.56,1.9,2.43
				c-2.13,5.69-5.35,10.54-10.91,13.47c-2.54,1.34-5.19,2.21-8.09,2.54c-1.41,0.16-2.82,0.55-4.22,0.36
				c-3.92-0.55-7.9-0.55-11.71-2.09c-1.83-0.74-4.01-1.27-6.15-0.88C134.13,175.24,133.3,175.74,132.38,176.8z"/>
			<path class="st279" d="M167.03,125.18c1.53,3.38,2.95,6.51,4.37,9.65c-2.18-1.42-4.17-2.95-6.31-4.29
				c-0.33-0.21-0.38-0.46-0.23-0.78C165.54,128.3,166.24,126.84,167.03,125.18z"/>
		</g>
	</g>
</g>
</svg>
