<?xml version="1.0" encoding="utf-8"?>
<!-- Generator: Adobe Illustrator 26.0.1, SVG Export Plug-In . SVG Version: 6.00 Build 0)  -->
<svg version="1.1" id="Layer_1" xmlns="http://www.w3.org/2000/svg" xmlns:xlink="http://www.w3.org/1999/xlink" x="0px" y="0px"
	 viewBox="0 0 276.89 239.96" style="enable-background:new 0 0 276.89 239.96;" xml:space="preserve">
<style type="text/css">
	.st0{fill:#00AEEF;}
</style>
<g>
	<g>
		<polygon class="st0" points="185.17,65.12 185.17,114.14 184.13,113.53 171.08,105.85 171.08,73.16 170.21,72.65 157,64.87 
			156.36,64.49 142.91,56.57 142.5,56.34 128.82,64.46 128.69,64.55 114.86,72.75 114.74,72.68 114.74,83.29 100.65,74.99 
			100.65,64.81 101.01,64.6 114.74,56.45 114.83,56.4 128.66,48.18 128.82,48.28 128.82,48.09 142.47,39.98 142.91,40.24 
			156.33,48.14 157,48.53 170.18,56.29 171.08,56.82 184.03,64.45 		"/>
		<polygon class="st0" points="199.55,169.9 199.25,170.07 198.07,170.77 185.17,178.44 184.24,178.98 171.08,186.8 170.43,187.18 
			157,195.16 156.6,195.39 142.91,203.52 142.78,203.61 128.92,195.44 128.82,195.39 115.07,187.29 114.74,187.09 101.21,179.13 
			100.65,178.8 100.65,102.92 114.74,111.2 114.74,170.74 115.04,170.92 128.82,179.04 128.82,179.13 128.89,179.08 142.75,187.23 
			142.91,187.14 156.56,179.03 157,178.78 170.39,170.82 157,162.94 157,146.26 171.04,154.06 171.08,154.08 		"/>
		<polygon class="st0" points="213.34,81.7 213.34,163.42 211.89,162.56 199.25,155.13 198.04,154.41 185.17,146.83 184.19,146.26 
			171.08,138.54 170.33,138.1 157,130.25 156.48,129.95 142.91,121.95 142.62,121.79 128.82,113.66 128.82,113.6 128.76,113.63 
			114.92,105.48 114.74,105.37 101.06,97.32 100.65,97.08 87.21,89.17 86.57,88.79 86.57,170.51 73.51,162.82 72.48,162.21 
			72.48,81.54 73.36,81.02 86.57,73.17 87.18,72.81 100.65,80.73 101.03,80.96 114.74,89.03 114.74,89.21 114.89,89.11 
			128.74,97.27 128.82,97.31 142.59,105.42 142.91,105.61 156.45,113.58 157,113.91 170.3,121.74 171.08,122.19 184.16,129.89 
			185.17,130.49 198.01,138.05 199.25,138.77 199.25,73.4 211.74,80.76 		"/>
	</g>
</g>
</svg>
