<?xml version="1.0" encoding="utf-8"?>
<!-- Generator: Adobe Illustrator 27.0.0, SVG Export Plug-In . SVG Version: 6.00 Build 0)  -->
<svg version="1.1" id="Layer_1" xmlns="http://www.w3.org/2000/svg" xmlns:xlink="http://www.w3.org/1999/xlink" x="0px" y="0px"
	 viewBox="0 0 226.77 226.77" style="enable-background:new 0 0 226.77 226.77;" xml:space="preserve">
<style type="text/css">
	.st0{fill:#FFF200;}
	.st1{stroke:#000000;stroke-width:5.2476;stroke-miterlimit:10;}
	.st2{fill:#FFFFFF;}
	.st3{fill:#ED1C24;}
	.st4{fill:#50B848;}
	.st5{fill:#007F3E;}
	.st6{fill:#F58220;}
	.st7{fill:#F37021;}
	.st8{fill:#1282C5;}
	.st9{fill:#F7941D;}
	.st10{fill:#FFFFFF;stroke:#FFFFFF;stroke-width:2.321;stroke-linecap:round;stroke-linejoin:round;}
	.st11{fill:#00854A;}
	.st12{fill:#34B34A;}
	.st13{fill:#13421E;}
	.st14{fill:#8CC540;stroke:#FFFFFF;stroke-width:1.2029;stroke-miterlimit:10;}
	.st15{fill:#065643;stroke:#FFFFFF;stroke-width:1.2029;stroke-miterlimit:10;}
	.st16{fill:#FFCB05;}
	.st17{fill:#224D71;}
	.st18{fill:#F8BC1B;}
	.st19{fill:#4CB748;}
	.st20{fill:url(#SVGID_00000030478552160995242540000013402988732743922841_);}
	.st21{fill:none;stroke:#FFFFFF;stroke-width:0.8396;stroke-miterlimit:10;}
	
		.st22{fill:url(#SVGID_00000090266165648892402410000017324368943231123848_);stroke:url(#SVGID_00000025443249347325021410000000289375270726631064_);stroke-width:0.6997;stroke-miterlimit:10;}
	
		.st23{fill:url(#SVGID_00000158010549326051171780000015632771324610092972_);stroke:url(#SVGID_00000010278971782386156720000005095649966004094879_);stroke-width:0.6997;stroke-miterlimit:10;}
	
		.st24{fill:url(#SVGID_00000070836774258930284550000011264111828045127839_);stroke:url(#SVGID_00000016798255893993724100000011882028618813638022_);stroke-width:0.6997;stroke-miterlimit:10;}
	
		.st25{fill:url(#SVGID_00000060740022515658838310000010411604002272927367_);stroke:url(#SVGID_00000111881332148879492550000016600046902766158509_);stroke-width:0.6997;stroke-miterlimit:10;}
	
		.st26{fill:url(#SVGID_00000155110125928727537380000000048141115189193887_);stroke:url(#SVGID_00000151541074211606816730000007202150812462219914_);stroke-width:0.6997;stroke-miterlimit:10;}
	.st27{fill:url(#SVGID_00000024718331306916233820000000187275094301562536_);}
	.st28{fill:url(#SVGID_00000034797724465393422590000016616245556587329215_);}
	.st29{fill:#005826;}
	.st30{fill:#BFD730;}
	.st31{fill:#00A651;stroke:#000000;stroke-width:2.8889;stroke-linecap:round;stroke-linejoin:round;stroke-miterlimit:10;}
	.st32{fill:#FFF200;stroke:#000000;stroke-width:2.8889;stroke-linecap:round;stroke-linejoin:round;stroke-miterlimit:10;}
	.st33{fill:#8DC63F;stroke:#000000;stroke-width:2.8889;stroke-linecap:round;stroke-linejoin:round;stroke-miterlimit:10;}
	.st34{fill:#0DB14B;stroke:#000000;stroke-width:2.8889;stroke-linecap:round;stroke-linejoin:round;stroke-miterlimit:10;}
	.st35{fill:#FFFFFF;stroke:#000000;stroke-width:2.8889;stroke-linecap:round;stroke-linejoin:round;stroke-miterlimit:10;}
	.st36{fill:#00A651;}
	.st37{fill:#8DC63F;}
	.st38{fill:#0DB14B;}
	.st39{fill:#034EA2;}
	.st40{fill:#00763F;}
	.st41{fill:url(#SVGID_00000079461631570664064200000006848233974022998939_);}
	.st42{fill:url(#SVGID_00000029761138421806260810000001017790874475479224_);}
	.st43{fill:url(#SVGID_00000021112870609741928780000016511180666129619902_);}
	.st44{fill:url(#SVGID_00000165930716659516420470000008585696722965607581_);}
	.st45{fill:url(#SVGID_00000085963139099457706830000017382208390803772548_);}
	.st46{fill:url(#SVGID_00000094590278726508054720000007439963333561601447_);}
	.st47{fill:url(#SVGID_00000166664883537283455110000007834832587703186600_);}
	.st48{fill:url(#SVGID_00000137125813102859792090000016103991336593976466_);}
	.st49{fill:url(#SVGID_00000034069260428335982640000014627895614035335076_);}
	.st50{fill:url(#SVGID_00000101818815133641154810000005403903053837854858_);}
	.st51{fill:#FFFFFF;stroke:#FFFFFF;stroke-width:4.8073;stroke-linecap:round;stroke-linejoin:round;stroke-miterlimit:10;}
	.st52{fill:url(#SVGID_00000049219405571771370780000012103474846888698548_);}
	.st53{fill:#00A651;stroke:#00A651;stroke-width:4.2345;stroke-linecap:round;stroke-linejoin:round;stroke-miterlimit:10;}
	.st54{fill:#939598;stroke:#939598;stroke-width:4.2345;stroke-linecap:round;stroke-linejoin:round;stroke-miterlimit:10;}
	.st55{fill:#CE181E;stroke:#CE181E;stroke-width:9.3609;stroke-miterlimit:10;}
	
		.st56{fill:none;stroke:url(#SVGID_00000070839285853792755380000016845773626420035248_);stroke-width:3.3359;stroke-miterlimit:10;}
	.st57{fill-rule:evenodd;clip-rule:evenodd;fill:#21A347;}
	.st58{filter:url(#Adobe_OpacityMaskFilter);}
	
		.st59{clip-path:url(#SVGID_00000051347773321520228220000013844408229125415556_);fill-rule:evenodd;clip-rule:evenodd;fill:url(#);}
	
		.st60{opacity:0.49;clip-path:url(#SVGID_00000051347773321520228220000013844408229125415556_);mask:url(#SVGID_00000147180137238652804310000002565816754170780822_);fill-rule:evenodd;clip-rule:evenodd;}
	
		.st61{clip-path:url(#SVGID_00000051347773321520228220000013844408229125415556_);fill-rule:evenodd;clip-rule:evenodd;fill:#007836;}
	.st62{filter:url(#Adobe_OpacityMaskFilter_00000064352152942273448360000010200843799260755603_);}
	
		.st63{opacity:0.49;clip-path:url(#SVGID_00000051347773321520228220000013844408229125415556_);mask:url(#SVGID_00000083059047606120328950000007251939845792462740_);fill-rule:evenodd;clip-rule:evenodd;}
	
		.st64{clip-path:url(#SVGID_00000051347773321520228220000013844408229125415556_);fill-rule:evenodd;clip-rule:evenodd;fill:#95C940;}
	.st65{fill-rule:evenodd;clip-rule:evenodd;fill:#FFFFFF;}
	.st66{fill:#FFC759;}
	.st67{fill:#D1A342;}
	.st68{fill:none;}
	.st69{clip-path:url(#SVGID_00000073718192660687706560000016995804332457900208_);}
	.st70{clip-path:url(#SVGID_00000077293720237933585280000005802523989603763081_);}
	.st71{fill:#9E1D20;}
	.st72{fill:#86888A;}
	.st73{fill:url(#SVGID_00000058577603393322443890000018291909409569850018_);}
	.st74{fill:url(#SVGID_00000052804581677196806770000013069692709028928668_);}
	.st75{fill:url(#SVGID_00000122701535786465370690000016264473312306282396_);}
	.st76{fill:url(#SVGID_00000016040563292236644450000010271893781680793787_);}
	.st77{fill:#F89522;}
	.st78{fill:#C0BFBF;}
	.st79{clip-path:url(#SVGID_00000166661080578435747620000017597230556862921088_);}
	.st80{clip-path:url(#SVGID_00000112612291940910877910000001956140649037590967_);fill:#650F0E;}
	.st81{clip-path:url(#SVGID_00000112612291940910877910000001956140649037590967_);fill:#670E0D;}
	.st82{clip-path:url(#SVGID_00000112612291940910877910000001956140649037590967_);fill:#690C0D;}
	.st83{clip-path:url(#SVGID_00000112612291940910877910000001956140649037590967_);fill:#6C0D0F;}
	.st84{clip-path:url(#SVGID_00000112612291940910877910000001956140649037590967_);fill:#6F0F10;}
	.st85{clip-path:url(#SVGID_00000112612291940910877910000001956140649037590967_);fill:#700F10;}
	.st86{clip-path:url(#SVGID_00000112612291940910877910000001956140649037590967_);fill:#721011;}
	.st87{clip-path:url(#SVGID_00000112612291940910877910000001956140649037590967_);fill:#741012;}
	.st88{clip-path:url(#SVGID_00000112612291940910877910000001956140649037590967_);fill:#761113;}
	.st89{clip-path:url(#SVGID_00000112612291940910877910000001956140649037590967_);fill:#781214;}
	.st90{clip-path:url(#SVGID_00000112612291940910877910000001956140649037590967_);fill:#7A1214;}
	.st91{clip-path:url(#SVGID_00000112612291940910877910000001956140649037590967_);fill:#7B1315;}
	.st92{clip-path:url(#SVGID_00000112612291940910877910000001956140649037590967_);fill:#7D1416;}
	.st93{clip-path:url(#SVGID_00000112612291940910877910000001956140649037590967_);fill:#7F1416;}
	.st94{clip-path:url(#SVGID_00000112612291940910877910000001956140649037590967_);fill:#801517;}
	.st95{clip-path:url(#SVGID_00000112612291940910877910000001956140649037590967_);fill:#811517;}
	.st96{clip-path:url(#SVGID_00000112612291940910877910000001956140649037590967_);fill:#831618;}
	.st97{clip-path:url(#SVGID_00000112612291940910877910000001956140649037590967_);fill:#851619;}
	.st98{clip-path:url(#SVGID_00000112612291940910877910000001956140649037590967_);fill:#871719;}
	.st99{clip-path:url(#SVGID_00000112612291940910877910000001956140649037590967_);fill:#88171A;}
	.st100{clip-path:url(#SVGID_00000112612291940910877910000001956140649037590967_);fill:#89181A;}
	.st101{clip-path:url(#SVGID_00000112612291940910877910000001956140649037590967_);fill:#8B181B;}
	.st102{clip-path:url(#SVGID_00000112612291940910877910000001956140649037590967_);fill:#8D181B;}
	.st103{clip-path:url(#SVGID_00000112612291940910877910000001956140649037590967_);fill:#8F191C;}
	.st104{clip-path:url(#SVGID_00000112612291940910877910000001956140649037590967_);fill:#91191C;}
	.st105{clip-path:url(#SVGID_00000112612291940910877910000001956140649037590967_);fill:#921A1D;}
	.st106{clip-path:url(#SVGID_00000112612291940910877910000001956140649037590967_);fill:#941A1D;}
	.st107{clip-path:url(#SVGID_00000112612291940910877910000001956140649037590967_);fill:#951B1E;}
	.st108{clip-path:url(#SVGID_00000112612291940910877910000001956140649037590967_);fill:#971B1E;}
	.st109{clip-path:url(#SVGID_00000112612291940910877910000001956140649037590967_);fill:#981B1F;}
	.st110{clip-path:url(#SVGID_00000112612291940910877910000001956140649037590967_);fill:#9A1C1F;}
	.st111{clip-path:url(#SVGID_00000112612291940910877910000001956140649037590967_);fill:#9B1C1F;}
	.st112{clip-path:url(#SVGID_00000112612291940910877910000001956140649037590967_);fill:#9D1C20;}
	.st113{clip-path:url(#SVGID_00000112612291940910877910000001956140649037590967_);fill:#9E1D20;}
	.st114{clip-path:url(#SVGID_00000112612291940910877910000001956140649037590967_);fill:#A01D20;}
	.st115{clip-path:url(#SVGID_00000112612291940910877910000001956140649037590967_);fill:#A01D21;}
	.st116{clip-path:url(#SVGID_00000112612291940910877910000001956140649037590967_);fill:#A11D21;}
	.st117{clip-path:url(#SVGID_00000112612291940910877910000001956140649037590967_);fill:#A21E21;}
	.st118{clip-path:url(#SVGID_00000112612291940910877910000001956140649037590967_);fill:#A31E22;}
	.st119{clip-path:url(#SVGID_00000112612291940910877910000001956140649037590967_);fill:#A51E22;}
	.st120{clip-path:url(#SVGID_00000112612291940910877910000001956140649037590967_);fill:#A61E22;}
	.st121{clip-path:url(#SVGID_00000112612291940910877910000001956140649037590967_);fill:#A71E22;}
	.st122{clip-path:url(#SVGID_00000112612291940910877910000001956140649037590967_);fill:#A91E23;}
	.st123{clip-path:url(#SVGID_00000112612291940910877910000001956140649037590967_);fill:#AB1F23;}
	.st124{clip-path:url(#SVGID_00000112612291940910877910000001956140649037590967_);fill:#AC1F23;}
	.st125{clip-path:url(#SVGID_00000112612291940910877910000001956140649037590967_);fill:#AD1F23;}
	.st126{clip-path:url(#SVGID_00000112612291940910877910000001956140649037590967_);fill:#AE1F24;}
	.st127{clip-path:url(#SVGID_00000112612291940910877910000001956140649037590967_);fill:#AF1F24;}
	.st128{clip-path:url(#SVGID_00000112612291940910877910000001956140649037590967_);fill:#B22024;}
	.st129{clip-path:url(#SVGID_00000112612291940910877910000001956140649037590967_);fill:#B32025;}
	.st130{clip-path:url(#SVGID_00000112612291940910877910000001956140649037590967_);fill:#B42025;}
	.st131{clip-path:url(#SVGID_00000112612291940910877910000001956140649037590967_);fill:#B52025;}
	.st132{clip-path:url(#SVGID_00000112612291940910877910000001956140649037590967_);fill:#B72025;}
	.st133{clip-path:url(#SVGID_00000112612291940910877910000001956140649037590967_);fill:#B92025;}
	.st134{clip-path:url(#SVGID_00000112612291940910877910000001956140649037590967_);fill:#BC2026;}
	.st135{clip-path:url(#SVGID_00000112612291940910877910000001956140649037590967_);fill:#BE2126;}
	.st136{clip-path:url(#SVGID_00000112612291940910877910000001956140649037590967_);fill:#BF2126;}
	.st137{clip-path:url(#SVGID_00000112612291940910877910000001956140649037590967_);fill:#C02126;}
	.st138{clip-path:url(#SVGID_00000112612291940910877910000001956140649037590967_);fill:#C12126;}
	.st139{clip-path:url(#SVGID_00000112612291940910877910000001956140649037590967_);fill:#C22126;}
	.st140{clip-path:url(#SVGID_00000112612291940910877910000001956140649037590967_);fill:#C32126;}
	.st141{clip-path:url(#SVGID_00000112612291940910877910000001956140649037590967_);fill:#C42126;}
	.st142{clip-path:url(#SVGID_00000112612291940910877910000001956140649037590967_);fill:#C52126;}
	.st143{clip-path:url(#SVGID_00000112612291940910877910000001956140649037590967_);fill:#C62127;}
	.st144{clip-path:url(#SVGID_00000112612291940910877910000001956140649037590967_);fill:#C72127;}
	.st145{clip-path:url(#SVGID_00000112612291940910877910000001956140649037590967_);fill:#C82127;}
	.st146{clip-path:url(#SVGID_00000112612291940910877910000001956140649037590967_);fill:#C92127;}
	.st147{clip-path:url(#SVGID_00000112612291940910877910000001956140649037590967_);fill:#CA2127;}
	.st148{clip-path:url(#SVGID_00000112612291940910877910000001956140649037590967_);fill:#CA2027;}
	.st149{clip-path:url(#SVGID_00000112612291940910877910000001956140649037590967_);fill:#CC2027;}
	.st150{clip-path:url(#SVGID_00000112612291940910877910000001956140649037590967_);fill:#CD2027;}
	.st151{clip-path:url(#SVGID_00000112612291940910877910000001956140649037590967_);fill:#CE2127;}
	.st152{clip-path:url(#SVGID_00000112612291940910877910000001956140649037590967_);fill:#CF2127;}
	.st153{clip-path:url(#SVGID_00000112612291940910877910000001956140649037590967_);fill:#D02027;}
	.st154{clip-path:url(#SVGID_00000112612291940910877910000001956140649037590967_);fill:#D12027;}
	.st155{clip-path:url(#SVGID_00000112612291940910877910000001956140649037590967_);fill:#D22027;}
	.st156{clip-path:url(#SVGID_00000112612291940910877910000001956140649037590967_);fill:#D32027;}
	.st157{clip-path:url(#SVGID_00000112612291940910877910000001956140649037590967_);fill:#D42027;}
	.st158{clip-path:url(#SVGID_00000112612291940910877910000001956140649037590967_);fill:#D52027;}
	.st159{clip-path:url(#SVGID_00000112612291940910877910000001956140649037590967_);fill:#D62027;}
	.st160{clip-path:url(#SVGID_00000112612291940910877910000001956140649037590967_);fill:#D72027;}
	.st161{clip-path:url(#SVGID_00000112612291940910877910000001956140649037590967_);fill:#D71F27;}
	.st162{clip-path:url(#SVGID_00000155107610998920815250000010478112683332027797_);}
	.st163{clip-path:url(#SVGID_00000041281660875936763810000001983912535300938401_);fill:#650F0E;}
	.st164{clip-path:url(#SVGID_00000041281660875936763810000001983912535300938401_);fill:#670E0D;}
	.st165{clip-path:url(#SVGID_00000041281660875936763810000001983912535300938401_);fill:#690C0D;}
	.st166{clip-path:url(#SVGID_00000041281660875936763810000001983912535300938401_);fill:#6C0D0F;}
	.st167{clip-path:url(#SVGID_00000041281660875936763810000001983912535300938401_);fill:#6F0F10;}
	.st168{clip-path:url(#SVGID_00000041281660875936763810000001983912535300938401_);fill:#700F10;}
	.st169{clip-path:url(#SVGID_00000041281660875936763810000001983912535300938401_);fill:#721011;}
	.st170{clip-path:url(#SVGID_00000041281660875936763810000001983912535300938401_);fill:#741012;}
	.st171{clip-path:url(#SVGID_00000041281660875936763810000001983912535300938401_);fill:#761113;}
	.st172{clip-path:url(#SVGID_00000041281660875936763810000001983912535300938401_);fill:#781214;}
	.st173{clip-path:url(#SVGID_00000041281660875936763810000001983912535300938401_);fill:#7A1214;}
	.st174{clip-path:url(#SVGID_00000041281660875936763810000001983912535300938401_);fill:#7B1315;}
	.st175{clip-path:url(#SVGID_00000041281660875936763810000001983912535300938401_);fill:#7D1416;}
	.st176{clip-path:url(#SVGID_00000041281660875936763810000001983912535300938401_);fill:#7F1416;}
	.st177{clip-path:url(#SVGID_00000041281660875936763810000001983912535300938401_);fill:#801517;}
	.st178{clip-path:url(#SVGID_00000041281660875936763810000001983912535300938401_);fill:#811517;}
	.st179{clip-path:url(#SVGID_00000041281660875936763810000001983912535300938401_);fill:#831618;}
	.st180{clip-path:url(#SVGID_00000041281660875936763810000001983912535300938401_);fill:#851619;}
	.st181{clip-path:url(#SVGID_00000041281660875936763810000001983912535300938401_);fill:#871719;}
	.st182{clip-path:url(#SVGID_00000041281660875936763810000001983912535300938401_);fill:#88171A;}
	.st183{clip-path:url(#SVGID_00000041281660875936763810000001983912535300938401_);fill:#89181A;}
	.st184{clip-path:url(#SVGID_00000041281660875936763810000001983912535300938401_);fill:#8B181B;}
	.st185{clip-path:url(#SVGID_00000041281660875936763810000001983912535300938401_);fill:#8D181B;}
	.st186{clip-path:url(#SVGID_00000041281660875936763810000001983912535300938401_);fill:#8F191C;}
	.st187{clip-path:url(#SVGID_00000041281660875936763810000001983912535300938401_);fill:#91191C;}
	.st188{clip-path:url(#SVGID_00000041281660875936763810000001983912535300938401_);fill:#921A1D;}
	.st189{clip-path:url(#SVGID_00000041281660875936763810000001983912535300938401_);fill:#941A1D;}
	.st190{clip-path:url(#SVGID_00000041281660875936763810000001983912535300938401_);fill:#951B1E;}
	.st191{clip-path:url(#SVGID_00000041281660875936763810000001983912535300938401_);fill:#971B1E;}
	.st192{clip-path:url(#SVGID_00000041281660875936763810000001983912535300938401_);fill:#981B1F;}
	.st193{clip-path:url(#SVGID_00000041281660875936763810000001983912535300938401_);fill:#9A1C1F;}
	.st194{clip-path:url(#SVGID_00000041281660875936763810000001983912535300938401_);fill:#9B1C1F;}
	.st195{clip-path:url(#SVGID_00000041281660875936763810000001983912535300938401_);fill:#9D1C20;}
	.st196{clip-path:url(#SVGID_00000041281660875936763810000001983912535300938401_);fill:#9E1D20;}
	.st197{clip-path:url(#SVGID_00000041281660875936763810000001983912535300938401_);fill:#A01D20;}
	.st198{clip-path:url(#SVGID_00000041281660875936763810000001983912535300938401_);fill:#A01D21;}
	.st199{clip-path:url(#SVGID_00000041281660875936763810000001983912535300938401_);fill:#A11D21;}
	.st200{clip-path:url(#SVGID_00000041281660875936763810000001983912535300938401_);fill:#A21E21;}
	.st201{clip-path:url(#SVGID_00000041281660875936763810000001983912535300938401_);fill:#A31E22;}
	.st202{clip-path:url(#SVGID_00000041281660875936763810000001983912535300938401_);fill:#A51E22;}
	.st203{clip-path:url(#SVGID_00000041281660875936763810000001983912535300938401_);fill:#A61E22;}
	.st204{clip-path:url(#SVGID_00000041281660875936763810000001983912535300938401_);fill:#A71E22;}
	.st205{clip-path:url(#SVGID_00000041281660875936763810000001983912535300938401_);fill:#A91E23;}
	.st206{clip-path:url(#SVGID_00000041281660875936763810000001983912535300938401_);fill:#AB1F23;}
	.st207{clip-path:url(#SVGID_00000041281660875936763810000001983912535300938401_);fill:#AC1F23;}
	.st208{clip-path:url(#SVGID_00000041281660875936763810000001983912535300938401_);fill:#AD1F23;}
	.st209{clip-path:url(#SVGID_00000041281660875936763810000001983912535300938401_);fill:#AE1F24;}
	.st210{clip-path:url(#SVGID_00000041281660875936763810000001983912535300938401_);fill:#AF1F24;}
	.st211{clip-path:url(#SVGID_00000041281660875936763810000001983912535300938401_);fill:#B22024;}
	.st212{clip-path:url(#SVGID_00000041281660875936763810000001983912535300938401_);fill:#B32025;}
	.st213{clip-path:url(#SVGID_00000041281660875936763810000001983912535300938401_);fill:#B42025;}
	.st214{clip-path:url(#SVGID_00000041281660875936763810000001983912535300938401_);fill:#B52025;}
	.st215{clip-path:url(#SVGID_00000041281660875936763810000001983912535300938401_);fill:#B72025;}
	.st216{clip-path:url(#SVGID_00000041281660875936763810000001983912535300938401_);fill:#B92025;}
	.st217{clip-path:url(#SVGID_00000041281660875936763810000001983912535300938401_);fill:#BC2026;}
	.st218{clip-path:url(#SVGID_00000041281660875936763810000001983912535300938401_);fill:#BE2126;}
	.st219{clip-path:url(#SVGID_00000041281660875936763810000001983912535300938401_);fill:#BF2126;}
	.st220{clip-path:url(#SVGID_00000041281660875936763810000001983912535300938401_);fill:#C02126;}
	.st221{clip-path:url(#SVGID_00000041281660875936763810000001983912535300938401_);fill:#C12126;}
	.st222{clip-path:url(#SVGID_00000041281660875936763810000001983912535300938401_);fill:#C22126;}
	.st223{clip-path:url(#SVGID_00000041281660875936763810000001983912535300938401_);fill:#C32126;}
	.st224{clip-path:url(#SVGID_00000041281660875936763810000001983912535300938401_);fill:#C42126;}
	.st225{clip-path:url(#SVGID_00000041281660875936763810000001983912535300938401_);fill:#C52126;}
	.st226{clip-path:url(#SVGID_00000041281660875936763810000001983912535300938401_);fill:#C62127;}
	.st227{clip-path:url(#SVGID_00000041281660875936763810000001983912535300938401_);fill:#C72127;}
	.st228{clip-path:url(#SVGID_00000041281660875936763810000001983912535300938401_);fill:#C82127;}
	.st229{clip-path:url(#SVGID_00000041281660875936763810000001983912535300938401_);fill:#C92127;}
	.st230{clip-path:url(#SVGID_00000041281660875936763810000001983912535300938401_);fill:#CA2127;}
	.st231{clip-path:url(#SVGID_00000041281660875936763810000001983912535300938401_);fill:#CA2027;}
	.st232{clip-path:url(#SVGID_00000041281660875936763810000001983912535300938401_);fill:#CC2027;}
	.st233{clip-path:url(#SVGID_00000041281660875936763810000001983912535300938401_);fill:#CD2027;}
	.st234{clip-path:url(#SVGID_00000041281660875936763810000001983912535300938401_);fill:#CE2127;}
	.st235{clip-path:url(#SVGID_00000041281660875936763810000001983912535300938401_);fill:#CF2127;}
	.st236{clip-path:url(#SVGID_00000041281660875936763810000001983912535300938401_);fill:#D02027;}
	.st237{clip-path:url(#SVGID_00000041281660875936763810000001983912535300938401_);fill:#D12027;}
	.st238{clip-path:url(#SVGID_00000041281660875936763810000001983912535300938401_);fill:#D22027;}
	.st239{clip-path:url(#SVGID_00000041281660875936763810000001983912535300938401_);fill:#D32027;}
	.st240{clip-path:url(#SVGID_00000041281660875936763810000001983912535300938401_);fill:#D42027;}
	.st241{clip-path:url(#SVGID_00000041281660875936763810000001983912535300938401_);fill:#D52027;}
	.st242{clip-path:url(#SVGID_00000041281660875936763810000001983912535300938401_);fill:#D62027;}
	.st243{clip-path:url(#SVGID_00000041281660875936763810000001983912535300938401_);fill:#D72027;}
	.st244{clip-path:url(#SVGID_00000041281660875936763810000001983912535300938401_);fill:#D71F27;}
	.st245{fill:#C3996B;}
	.st246{fill:#F06724;}
	.st247{fill:#231F20;}
	.st248{fill:#AEB3B6;}
	.st249{fill:#EE3537;}
	.st250{fill:#9BA0A3;}
	.st251{fill:#AFB3B5;}
	.st252{fill:#F2EB44;}
	.st253{fill:#FFDD26;}
	.st254{clip-path:url(#XMLID_00000146460116439346932090000009729806653180991882_);}
	.st255{fill:#7E8386;}
	.st256{fill:#A4AAAC;}
	.st257{fill:#131718;}
	.st258{fill:#007843;}
	.st259{fill:#2AB34B;}
	.st260{fill:none;stroke:#FFFFFF;stroke-width:1.4841;stroke-miterlimit:10;}
	.st261{fill:#2E3192;}
	.st262{fill:#154458;}
	.st263{fill:#C72026;}
	.st264{fill:#5FBB46;}
	.st265{fill:#1A5F30;}
	.st266{fill:#293896;}
	.st267{filter:url(#Adobe_OpacityMaskFilter_00000127036691773154280450000008422473442980091285_);}
	.st268{filter:url(#Adobe_OpacityMaskFilter_00000082354227854142197380000015452853727893304975_);}
	
		.st269{mask:url(#SVGID_00000099655098184956364600000007021207537757380505_);fill:url(#SVGID_00000165218599362321961460000005006248399290400696_);}
	.st270{filter:url(#Adobe_OpacityMaskFilter_00000166659292201452088300000011549661836020163460_);}
	.st271{filter:url(#Adobe_OpacityMaskFilter_00000067220078408031945530000016440858953412563093_);}
	
		.st272{mask:url(#SVGID_00000141428845296039419560000007266673747331643047_);fill:url(#SVGID_00000031913499562400801000000001692323024948769421_);}
	.st273{filter:url(#Adobe_OpacityMaskFilter_00000142151955694765170210000002169858452864908194_);}
	.st274{filter:url(#Adobe_OpacityMaskFilter_00000124844005202906498410000001743028595463634074_);}
	
		.st275{mask:url(#SVGID_00000000903521207667416930000011218112286042581404_);fill:url(#SVGID_00000119837723579468160800000015314746511582178436_);}
	.st276{filter:url(#Adobe_OpacityMaskFilter_00000000939974338243216000000013336324000494836895_);}
	.st277{filter:url(#Adobe_OpacityMaskFilter_00000048477268494965612900000013487782695725265844_);}
	
		.st278{mask:url(#SVGID_00000112628180371149958860000014559935835254195365_);fill:url(#SVGID_00000109751224054613799360000007117927735672361603_);}
	.st279{filter:url(#Adobe_OpacityMaskFilter_00000179606976655842737640000009759057881816079773_);}
	.st280{filter:url(#Adobe_OpacityMaskFilter_00000167379008629915098470000010436731064350501812_);}
	
		.st281{mask:url(#SVGID_00000063598173963554713660000009130094520452035510_);fill:url(#SVGID_00000101804152855918330230000017403501026737703847_);}
	.st282{filter:url(#Adobe_OpacityMaskFilter_00000029014465250814346690000006116892436641953168_);}
	.st283{filter:url(#Adobe_OpacityMaskFilter_00000114764870540514662960000008643336221536763559_);}
	
		.st284{mask:url(#SVGID_00000065783869892926352890000001294087286037579950_);fill:url(#SVGID_00000048496569085298284910000003609884847854367167_);}
	.st285{filter:url(#Adobe_OpacityMaskFilter_00000013174384282243336270000000711417477329622154_);}
	.st286{filter:url(#Adobe_OpacityMaskFilter_00000063592737316860745160000005440918796689187986_);}
	
		.st287{mask:url(#SVGID_00000057847635135276744140000002535640868301907599_);fill:url(#SVGID_00000031189715736615565840000017146729231181267589_);}
	.st288{filter:url(#Adobe_OpacityMaskFilter_00000153697399784020328130000003501309714009203899_);}
	.st289{filter:url(#Adobe_OpacityMaskFilter_00000062910252696572657300000008102875455225771439_);}
	
		.st290{mask:url(#SVGID_00000073701025178634494460000018364093266613388169_);fill:url(#SVGID_00000034772997683929661480000011776191714992499112_);}
	.st291{filter:url(#Adobe_OpacityMaskFilter_00000034061735669269994430000008815508517918027198_);}
	.st292{filter:url(#Adobe_OpacityMaskFilter_00000018931794933690170910000014691314298661047170_);}
	
		.st293{mask:url(#SVGID_00000072255520480000844260000002702920348473372076_);fill:url(#SVGID_00000129201971045193129690000004578826034610458254_);}
	.st294{filter:url(#Adobe_OpacityMaskFilter_00000168799451578989915060000013577619093816183437_);}
	.st295{filter:url(#Adobe_OpacityMaskFilter_00000078750363299159238460000012720900649496087207_);}
	
		.st296{mask:url(#SVGID_00000180366645695048827040000003337083480448748167_);fill:url(#SVGID_00000007403144386021081790000008833146880582847372_);}
	.st297{clip-path:url(#SVGID_00000140015826295829470260000006301228441831445902_);fill:#FFF200;}
	
		.st298{clip-path:url(#SVGID_00000140015826295829470260000006301228441831445902_);fill:none;stroke:#FFFFFF;stroke-width:4.8568;stroke-linejoin:round;stroke-miterlimit:10;}
	.st299{clip-path:url(#SVGID_00000140015826295829470260000006301228441831445902_);fill:#ED1C24;}
	.st300{clip-path:url(#SVGID_00000140015826295829470260000006301228441831445902_);fill:#FFFFFF;}
	.st301{clip-path:url(#SVGID_00000140015826295829470260000006301228441831445902_);fill:#2E3192;}
	.st302{clip-path:url(#SVGID_00000140015826295829470260000006301228441831445902_);}
	.st303{clip-path:url(#SVGID_00000140015826295829470260000006301228441831445902_);fill:#F4817F;}
	.st304{clip-path:url(#SVGID_00000140015826295829470260000006301228441831445902_);fill:#56BF98;}
	.st305{clip-path:url(#SVGID_00000140015826295829470260000006301228441831445902_);fill:#570C08;}
	.st306{clip-path:url(#SVGID_00000140015826295829470260000006301228441831445902_);fill:#00A750;}
	
		.st307{fill:#FFFFFF;stroke:url(#SVGID_00000179640773573304212790000001811178576494088866_);stroke-width:7.11;stroke-miterlimit:10;}
	.st308{fill:#ED2224;}
	.st309{fill:#074E28;}
	.st310{fill:#EB2627;}
	.st311{fill:#D1D3D4;}
	.st312{fill:#5F1F16;}
	.st313{fill:#F1E7E6;}
	.st314{fill:#ED2024;}
	.st315{fill:url(#SVGID_00000050648688719030535370000001921224781337354125_);}
	.st316{fill:url(#SVGID_00000075149584490946449040000007851340996390415542_);}
	.st317{fill:#BB2025;}
	.st318{fill:url(#SVGID_00000047055379584503674560000011454340374438269119_);}
	.st319{fill:url(#SVGID_00000152247036629551002330000016836372304850844032_);}
	.st320{fill:none;stroke:#7F8080;stroke-width:0.8623;stroke-miterlimit:10;}
	.st321{fill:url(#SVGID_00000158016565338251238970000002563861809542735767_);}
	.st322{fill:url(#SVGID_00000176754471886226153110000000247376730030158260_);}
	.st323{fill:url(#SVGID_00000084518752330431798920000017208853172766035075_);}
	.st324{fill:url(#SVGID_00000106124197003622021960000002743787925988423832_);}
	.st325{fill:url(#SVGID_00000024690840113165689770000009453235190097070224_);}
	.st326{fill:url(#SVGID_00000023994480414177190590000010278538373498533254_);}
	.st327{fill:url(#SVGID_00000177455093235158651240000008450261191635664831_);}
	.st328{fill:url(#SVGID_00000019670443465632715100000007456762126202912168_);}
	.st329{fill:url(#SVGID_00000061429421002477530710000011472324376991057798_);}
	.st330{fill:url(#SVGID_00000167355222180779312270000014263758092704506770_);}
	.st331{fill:url(#SVGID_00000017508924054368358100000000732099272345524360_);}
	.st332{fill:url(#SVGID_00000160149236076831022400000006409317816118120853_);}
	.st333{fill:url(#SVGID_00000031183740832041335440000016750824828832403344_);}
	.st334{fill:url(#SVGID_00000163788290405359446320000011380619652620603541_);}
	.st335{fill:#E01E26;}
</style>
<g>
	<g>
		<path class="st7" d="M35.66,135.65c-0.04-2.09-0.01-4.13-0.02-6.17c0-2.05,0-4.1,0-6.15c0-2.04,0-4.08,0-6.19
			c-1.88,0-3.65,0-5.53,0c-0.03,0.35-0.08,0.69-0.08,1.04c0,7.37,0,14.75,0,22.12c0,0.33,0.03,0.65,0.05,1.09
			c0.36,0.04,0.67,0.1,0.99,0.1c9.95,0,19.9,0,29.86,0c3.4,0,6.64-0.69,9.57-2.47c4.99-3.04,7.91-7.51,8.77-13.26
			c1.36-9.03-5.04-18.57-14.99-20.3c-1.1-0.19-2.24-0.24-3.35-0.24c-11.8-0.02-23.61-0.01-35.41-0.01c-0.42,0-0.84,0-1.32,0
			c0-11.05,0-21.98,0-32.99c0.32-0.03,0.61-0.08,0.89-0.08c10.61,0,21.23-0.25,31.84,0.08c9.43,0.29,16.25,5.05,20.06,13.74
			c2.56,5.84,2.31,11.77-0.13,17.63c-0.14,0.33-0.27,0.67-0.44,1.08c0.23,0.22,0.46,0.45,0.7,0.66c4.38,3.86,7.1,8.66,7.96,14.45
			c1.6,10.74-4.15,21.38-14.4,25.71c-2.99,1.27-6.1,1.93-9.34,1.93c-12.03,0.01-24.07,0.01-36.1,0.01c-0.29,0-0.59,0-1,0
			c-0.03-0.48-0.09-0.89-0.09-1.3c-0.01-6.81,0-13.62,0-20.43c0-4.36,0-8.73,0-13.09c0-0.42,0-0.85,0-1.36
			c0.41-0.03,0.73-0.08,1.05-0.08c12.03,0,24.07,0.04,36.1-0.02c5.69-0.03,10.42,4.11,11.8,8.8c1.44,4.9-0.2,9.76-4.13,12.99
			c-2.25,1.85-4.86,2.78-7.78,2.78c-8.17,0-16.33,0-24.5,0C36.39,135.71,36.1,135.67,35.66,135.65z M71.33,101.4
			c0.11-0.22,0.18-0.33,0.23-0.45c1.55-3.83,1.73-7.73,0.39-11.62c-2.34-6.83-8.54-11.26-15.77-11.29
			c-8.33-0.04-16.66-0.01-24.98-0.01c-0.32,0-0.65,0-1.06,0c-0.04,0.42-0.1,0.74-0.1,1.05c-0.01,6.41-0.01,12.82,0,19.23
			c0,0.31,0.07,0.62,0.11,0.9c1.5,0.18,4.71,0.13,5.51-0.1c0-0.99,0-2.01,0-3.03c0-1.02,0-2.05,0-3.07c0-0.99,0-1.98,0-2.97
			c0-1.02,0-2.05,0-3.07c0.01-1.01,0.02-2.02,0.04-3.03c0.26-0.04,0.39-0.07,0.52-0.07c6.81,0,13.62-0.1,20.42,0.04
			c6.97,0.14,12.48,7.36,9.59,14.85c-0.12,0.3-0.23,0.6-0.36,0.94C67.71,100.26,69.48,100.82,71.33,101.4z M41.62,129.64
			c0.33,0.03,0.56,0.07,0.79,0.07c6.38,0,12.76,0,19.14-0.01c0.43,0,0.87-0.02,1.28-0.12c3.61-0.87,5.63-4.48,4.61-8.06
			c-0.69-2.39-3.28-4.48-6.03-4.46c-6.31,0.04-12.62,0.01-18.94,0.02c-0.26,0-0.51,0.04-0.84,0.06
			C41.62,121.31,41.62,125.43,41.62,129.64z M41.75,99.25c0.24,0.02,0.5,0.06,0.76,0.06c4.86,0,9.72,0,14.58,0
			c0.29,0,0.6-0.04,0.87-0.14c2.18-0.81,3.48-3.23,3.02-5.64c-0.43-2.24-2.49-3.85-4.66-3.84c-4.63,0.03-9.26,0.01-13.88,0.01
			c-0.25,0-0.5,0.05-0.73,0.08C41.46,90.86,41.5,98.45,41.75,99.25z"/>
	</g>
	<g>
		<g>
			<path class="st5" d="M116.75,130.79c0-2.99,0-5.98,0-8.96c0-2.97,0-5.94,0-9.01c1.84-0.14,3.61-0.07,5.35-0.05
				c0.21,0.79,0.28,25.86,0.07,27.3c-0.33,0.01-0.68,0.04-1.03,0.04c-1.19,0-2.38-0.04-3.57,0.02c-0.66,0.03-1-0.22-1.32-0.77
				c-3.27-5.51-6.58-11.01-9.88-16.5c-0.17-0.28-0.35-0.54-0.57-0.88c-0.33,0.36-0.21,0.73-0.21,1.06
				c-0.01,5.22-0.01,10.45-0.01,15.67c0,0.42,0,0.85,0,1.34c-1.86,0-3.63,0-5.39,0c-0.19-0.75-0.24-25.85-0.06-27.21
				c0.23-0.03,0.48-0.09,0.74-0.09c1.32-0.01,2.65,0.03,3.97-0.02c0.62-0.02,0.94,0.24,1.24,0.74c3.2,5.37,6.41,10.72,9.63,16.08
				c0.26,0.44,0.54,0.87,0.81,1.31C116.6,130.83,116.68,130.81,116.75,130.79z"/>
		</g>
		<g>
			<path class="st5" d="M174.71,140.11c-2.01,0-3.8-0.02-5.58,0.01c-0.52,0.01-0.67-0.32-0.85-0.68c-0.93-1.82-1.86-3.65-2.79-5.47
				c-0.57-1.12-1.16-2.23-1.71-3.36c-0.23-0.48-0.53-0.68-1.07-0.67c-1.25,0.03-2.5,0.01-3.86,0.01c0,3.41,0,6.71,0,10.14
				c-0.99,0.01-1.87,0.01-2.75,0.02c-0.89,0-1.78,0-2.66,0c-0.22-0.76-0.31-25.36-0.1-27.26c0.23-0.04,0.47-0.11,0.72-0.11
				c3.57,0.01,7.14,0.01,10.71,0.04c1.26,0.01,2.49,0.29,3.68,0.71c3.21,1.14,5.02,3.64,5.13,7.04c0.11,3.49-1.23,6.16-4.41,7.78
				c-0.14,0.07-0.27,0.17-0.51,0.31C170.66,132.42,172.64,136.17,174.71,140.11z M158.91,125.69c2.03-0.07,3.95-0.07,5.85-0.21
				c1.02-0.07,1.9-0.61,2.48-1.48c1.02-1.53,1.05-3.17,0.31-4.81c-0.68-1.5-2-2.05-3.54-2.1c-1.52-0.05-3.04-0.02-4.56-0.02
				c-0.16,0-0.32,0.05-0.53,0.09C158.91,119.94,158.91,122.7,158.91,125.69z"/>
		</g>
		<g>
			<path class="st5" d="M140.58,112.74c3.41,9.14,6.79,18.18,10.2,27.32c-2.03,0-3.93,0-5.91,0c-0.62-1.86-1.24-3.73-1.89-5.66
				c-3.32,0-6.6,0-9.98,0c-0.62,1.85-1.24,3.72-1.89,5.65c-1.92,0-3.82,0-5.72,0c0.03-0.66,9.35-25.94,10.06-27.25
				c0.21-0.02,0.44-0.05,0.67-0.05C137.56,112.74,139.02,112.74,140.58,112.74z M141.48,129.82c-1.13-3.42-2.25-6.83-3.37-10.24
				c-0.09,0-0.18,0-0.26,0c-1.12,3.42-2.24,6.84-3.37,10.27C135.52,130.08,140.62,130.06,141.48,129.82z"/>
		</g>
		<g>
			<path class="st5" d="M192.2,112.81c2.04,0,3.97,0,6.02,0c-0.29,0.59-0.53,1.09-0.78,1.58c-2.55,4.93-5.09,9.86-7.65,14.78
				c-0.35,0.66-0.52,1.32-0.51,2.07c0.03,2.58,0.01,5.16,0.01,7.73c0,0.33,0,0.65,0,1.04c-0.96,0.2-1.88,0.08-2.79,0.1
				c-0.89,0.02-1.78,0-2.8,0c-0.02-0.39-0.06-0.74-0.06-1.08c0-2.64-0.01-5.29,0.01-7.93c0.01-0.65-0.13-1.22-0.43-1.79
				c-2.67-5.12-5.32-10.26-7.98-15.39c-0.16-0.32-0.32-0.64-0.48-0.97c0.74-0.24,4.58-0.3,5.98-0.1c1.85,4.04,3.72,8.12,5.56,12.14
				c0.12,0.02,0.15,0.04,0.17,0.03c0.03-0.01,0.07-0.02,0.09-0.05c0.05-0.05,0.1-0.1,0.12-0.15
				C188.52,120.83,190.35,116.84,192.2,112.81z"/>
		</g>
		<g>
			<path class="st5" d="M94.57,140.06c-1.82,0-3.56,0-5.29,0c-0.24-0.69-0.34-25.33-0.12-27.13c0.73-0.24,4.43-0.27,5.41-0.02
				C94.57,121.91,94.57,130.92,94.57,140.06z"/>
		</g>
	</g>
	<g>
		<g>
			<path class="st7" d="M182.03,104.32c-0.01-2.02,0.78-3.66,2.47-4.79c2.48-1.64,5.73-0.9,7.37,1.63c1.19,1.85,1.18,4.67-0.08,6.47
				c-1.44,2.06-3.44,2.74-5.7,2.21c-2.23-0.52-3.87-2.56-4.06-4.83C182.01,104.78,182.03,104.55,182.03,104.32z M182.72,104.48
				c0,0.1,0.01,0.33,0.03,0.56c0.18,1.84,1.56,3.5,3.34,4.02c1.82,0.54,3.7-0.06,4.87-1.55c1.31-1.66,1.45-4.16,0.28-5.93
				c-0.84-1.29-2.05-2.05-3.6-2.13C184.87,99.31,182.71,101.48,182.72,104.48z"/>
		</g>
		<g>
			<path class="st7" d="M186.09,107.37c-0.31-0.02-0.53-0.03-0.8-0.04c0-2.08,0-4.11,0-6.21c0.95,0,1.84-0.05,2.72,0.02
				c0.73,0.06,1.32,0.45,1.58,1.18c0.29,0.84-0.05,1.48-0.77,2.03c0.96,0.8,0.9,1.85,0.82,2.98c-0.26,0.01-0.5,0.02-0.83,0.04
				c-0.02-0.45-0.04-0.84-0.06-1.22c-0.06-0.98-0.36-1.28-1.35-1.32c-0.36-0.01-0.71,0-1.18,0
				C186.16,105.69,186.13,106.47,186.09,107.37z M186.19,103.88c0.69,0.21,1.31,0.19,1.91-0.03c0.44-0.16,0.68-0.51,0.65-1
				c-0.03-0.49-0.28-0.79-0.77-0.88c-0.58-0.11-1.16-0.2-1.78,0.06C186.19,102.62,186.19,103.2,186.19,103.88z"/>
		</g>
	</g>
</g>
</svg>
