<?xml version="1.0" encoding="utf-8"?>
<!-- Generator: Adobe Illustrator 27.0.0, SVG Export Plug-In . SVG Version: 6.00 Build 0)  -->
<svg version="1.1" id="Layer_1" xmlns="http://www.w3.org/2000/svg" xmlns:xlink="http://www.w3.org/1999/xlink" x="0px" y="0px"
	 viewBox="0 0 226.77 226.77" style="enable-background:new 0 0 226.77 226.77;" xml:space="preserve">
<style type="text/css">
	.st0{fill:#FFF200;}
	.st1{stroke:#000000;stroke-width:5.2476;stroke-miterlimit:10;}
	.st2{fill:#FFFFFF;}
	.st3{fill:#ED1C24;}
	.st4{fill:#50B848;}
	.st5{fill:#007F3E;}
	.st6{fill:#F58220;}
	.st7{fill:#F37021;}
	.st8{fill:#1282C5;}
	.st9{fill:#F7941D;}
	.st10{fill:#FFFFFF;stroke:#FFFFFF;stroke-width:2.321;stroke-linecap:round;stroke-linejoin:round;}
	.st11{fill:#00854A;}
	.st12{fill:#34B34A;}
	.st13{fill:#13421E;}
	.st14{fill:#8CC540;stroke:#FFFFFF;stroke-width:1.2029;stroke-miterlimit:10;}
	.st15{fill:#065643;stroke:#FFFFFF;stroke-width:1.2029;stroke-miterlimit:10;}
	.st16{fill:#FFCB05;}
	.st17{fill:#224D71;}
	.st18{fill:#F8BC1B;}
	.st19{fill:#4CB748;}
	.st20{fill:url(#SVGID_00000005262991730764031570000001612651788119809450_);}
	.st21{fill:none;stroke:#FFFFFF;stroke-width:0.8396;stroke-miterlimit:10;}
	
		.st22{fill:url(#SVGID_00000121966732107984943450000010140133589202066063_);stroke:url(#SVGID_00000053520282063068815200000015336930527071194032_);stroke-width:0.6997;stroke-miterlimit:10;}
	
		.st23{fill:url(#SVGID_00000071544585515245448650000003167159464959755956_);stroke:url(#SVGID_00000108276637918670764610000011489933272751016589_);stroke-width:0.6997;stroke-miterlimit:10;}
	
		.st24{fill:url(#SVGID_00000114791283131592371320000007414227399818363817_);stroke:url(#SVGID_00000039091779552643540640000007816041312406473121_);stroke-width:0.6997;stroke-miterlimit:10;}
	
		.st25{fill:url(#SVGID_00000103985743447123594880000008012770202259039392_);stroke:url(#SVGID_00000072982717390830587340000006386736427575325584_);stroke-width:0.6997;stroke-miterlimit:10;}
	
		.st26{fill:url(#SVGID_00000056389377767261466190000004588491878551761547_);stroke:url(#SVGID_00000008827427029759710240000005578062988883051432_);stroke-width:0.6997;stroke-miterlimit:10;}
	.st27{fill:url(#SVGID_00000165204244415849354050000017428453074790402474_);}
	.st28{fill:url(#SVGID_00000080194360133524841760000010518578779267725219_);}
	.st29{fill:#005826;}
	.st30{fill:#BFD730;}
	.st31{fill:#00A651;stroke:#000000;stroke-width:2.8889;stroke-linecap:round;stroke-linejoin:round;stroke-miterlimit:10;}
	.st32{fill:#FFF200;stroke:#000000;stroke-width:2.8889;stroke-linecap:round;stroke-linejoin:round;stroke-miterlimit:10;}
	.st33{fill:#8DC63F;stroke:#000000;stroke-width:2.8889;stroke-linecap:round;stroke-linejoin:round;stroke-miterlimit:10;}
	.st34{fill:#0DB14B;stroke:#000000;stroke-width:2.8889;stroke-linecap:round;stroke-linejoin:round;stroke-miterlimit:10;}
	.st35{fill:#FFFFFF;stroke:#000000;stroke-width:2.8889;stroke-linecap:round;stroke-linejoin:round;stroke-miterlimit:10;}
	.st36{fill:#00A651;}
	.st37{fill:#8DC63F;}
	.st38{fill:#0DB14B;}
	.st39{fill:#034EA2;}
	.st40{fill:#00763F;}
	.st41{fill:url(#SVGID_00000000917846866003260070000002487567518573371578_);}
	.st42{fill:url(#SVGID_00000135671616155434915860000015536312743675315897_);}
	.st43{fill:url(#SVGID_00000140696415187040550350000012572438677398955189_);}
	.st44{fill:url(#SVGID_00000081605674027695109340000012101846547002803863_);}
	.st45{fill:url(#SVGID_00000142140898982570898110000009109099789546395278_);}
	.st46{fill:url(#SVGID_00000077325555687673996640000011704270025755829145_);}
	.st47{fill:url(#SVGID_00000020385992115121174030000008798304027824234145_);}
	.st48{fill:url(#SVGID_00000088100968114270888180000015313834395490800289_);}
	.st49{fill:url(#SVGID_00000112616218999283189610000017386457901141317543_);}
	.st50{fill:url(#SVGID_00000182517288088247908880000017179645133605186202_);}
	.st51{fill:#FFFFFF;stroke:#FFFFFF;stroke-width:4.8073;stroke-linecap:round;stroke-linejoin:round;stroke-miterlimit:10;}
	.st52{fill:url(#SVGID_00000163775416573811268260000016865827848107685558_);}
	.st53{fill:#00A651;stroke:#00A651;stroke-width:4.2345;stroke-linecap:round;stroke-linejoin:round;stroke-miterlimit:10;}
	.st54{fill:#939598;stroke:#939598;stroke-width:4.2345;stroke-linecap:round;stroke-linejoin:round;stroke-miterlimit:10;}
	.st55{fill:#CE181E;stroke:#CE181E;stroke-width:9.3609;stroke-miterlimit:10;}
	
		.st56{fill:none;stroke:url(#SVGID_00000159463377973179143020000007191457422972405949_);stroke-width:3.3359;stroke-miterlimit:10;}
	.st57{fill-rule:evenodd;clip-rule:evenodd;fill:#21A347;}
	.st58{filter:url(#Adobe_OpacityMaskFilter);}
	
		.st59{clip-path:url(#SVGID_00000033354113104959379900000006587067634422939272_);fill-rule:evenodd;clip-rule:evenodd;fill:url(#);}
	
		.st60{opacity:0.49;clip-path:url(#SVGID_00000033354113104959379900000006587067634422939272_);mask:url(#SVGID_00000014613755669528698710000000392256875792651943_);fill-rule:evenodd;clip-rule:evenodd;}
	
		.st61{clip-path:url(#SVGID_00000033354113104959379900000006587067634422939272_);fill-rule:evenodd;clip-rule:evenodd;fill:#007836;}
	.st62{filter:url(#Adobe_OpacityMaskFilter_00000129175940640419469470000014445059220643297185_);}
	
		.st63{opacity:0.49;clip-path:url(#SVGID_00000033354113104959379900000006587067634422939272_);mask:url(#SVGID_00000133516021023402221390000014264980781471641253_);fill-rule:evenodd;clip-rule:evenodd;}
	
		.st64{clip-path:url(#SVGID_00000033354113104959379900000006587067634422939272_);fill-rule:evenodd;clip-rule:evenodd;fill:#95C940;}
	.st65{fill-rule:evenodd;clip-rule:evenodd;fill:#FFFFFF;}
	.st66{fill:#FFC759;}
	.st67{fill:#D1A342;}
	.st68{fill:none;}
	.st69{clip-path:url(#SVGID_00000060746888843016792180000006566942332009969540_);}
	.st70{clip-path:url(#SVGID_00000043458259545512162340000012052476662439684284_);}
	.st71{fill:#9E1D20;}
	.st72{fill:#86888A;}
	.st73{fill:url(#SVGID_00000068662119280221998770000003402674675827320466_);}
	.st74{fill:url(#SVGID_00000119097910825093586000000012722714015123809214_);}
	.st75{fill:url(#SVGID_00000082346653709834296910000008812180287372687508_);}
	.st76{fill:url(#SVGID_00000045590068210380090210000016236179804479694001_);}
	.st77{fill:#F89522;}
	.st78{fill:#C0BFBF;}
	.st79{clip-path:url(#SVGID_00000165213559546617654810000015376140672265923228_);}
	.st80{clip-path:url(#SVGID_00000003817302365463802750000001092604191237061521_);fill:#650F0E;}
	.st81{clip-path:url(#SVGID_00000003817302365463802750000001092604191237061521_);fill:#670E0D;}
	.st82{clip-path:url(#SVGID_00000003817302365463802750000001092604191237061521_);fill:#690C0D;}
	.st83{clip-path:url(#SVGID_00000003817302365463802750000001092604191237061521_);fill:#6C0D0F;}
	.st84{clip-path:url(#SVGID_00000003817302365463802750000001092604191237061521_);fill:#6F0F10;}
	.st85{clip-path:url(#SVGID_00000003817302365463802750000001092604191237061521_);fill:#700F10;}
	.st86{clip-path:url(#SVGID_00000003817302365463802750000001092604191237061521_);fill:#721011;}
	.st87{clip-path:url(#SVGID_00000003817302365463802750000001092604191237061521_);fill:#741012;}
	.st88{clip-path:url(#SVGID_00000003817302365463802750000001092604191237061521_);fill:#761113;}
	.st89{clip-path:url(#SVGID_00000003817302365463802750000001092604191237061521_);fill:#781214;}
	.st90{clip-path:url(#SVGID_00000003817302365463802750000001092604191237061521_);fill:#7A1214;}
	.st91{clip-path:url(#SVGID_00000003817302365463802750000001092604191237061521_);fill:#7B1315;}
	.st92{clip-path:url(#SVGID_00000003817302365463802750000001092604191237061521_);fill:#7D1416;}
	.st93{clip-path:url(#SVGID_00000003817302365463802750000001092604191237061521_);fill:#7F1416;}
	.st94{clip-path:url(#SVGID_00000003817302365463802750000001092604191237061521_);fill:#801517;}
	.st95{clip-path:url(#SVGID_00000003817302365463802750000001092604191237061521_);fill:#811517;}
	.st96{clip-path:url(#SVGID_00000003817302365463802750000001092604191237061521_);fill:#831618;}
	.st97{clip-path:url(#SVGID_00000003817302365463802750000001092604191237061521_);fill:#851619;}
	.st98{clip-path:url(#SVGID_00000003817302365463802750000001092604191237061521_);fill:#871719;}
	.st99{clip-path:url(#SVGID_00000003817302365463802750000001092604191237061521_);fill:#88171A;}
	.st100{clip-path:url(#SVGID_00000003817302365463802750000001092604191237061521_);fill:#89181A;}
	.st101{clip-path:url(#SVGID_00000003817302365463802750000001092604191237061521_);fill:#8B181B;}
	.st102{clip-path:url(#SVGID_00000003817302365463802750000001092604191237061521_);fill:#8D181B;}
	.st103{clip-path:url(#SVGID_00000003817302365463802750000001092604191237061521_);fill:#8F191C;}
	.st104{clip-path:url(#SVGID_00000003817302365463802750000001092604191237061521_);fill:#91191C;}
	.st105{clip-path:url(#SVGID_00000003817302365463802750000001092604191237061521_);fill:#921A1D;}
	.st106{clip-path:url(#SVGID_00000003817302365463802750000001092604191237061521_);fill:#941A1D;}
	.st107{clip-path:url(#SVGID_00000003817302365463802750000001092604191237061521_);fill:#951B1E;}
	.st108{clip-path:url(#SVGID_00000003817302365463802750000001092604191237061521_);fill:#971B1E;}
	.st109{clip-path:url(#SVGID_00000003817302365463802750000001092604191237061521_);fill:#981B1F;}
	.st110{clip-path:url(#SVGID_00000003817302365463802750000001092604191237061521_);fill:#9A1C1F;}
	.st111{clip-path:url(#SVGID_00000003817302365463802750000001092604191237061521_);fill:#9B1C1F;}
	.st112{clip-path:url(#SVGID_00000003817302365463802750000001092604191237061521_);fill:#9D1C20;}
	.st113{clip-path:url(#SVGID_00000003817302365463802750000001092604191237061521_);fill:#9E1D20;}
	.st114{clip-path:url(#SVGID_00000003817302365463802750000001092604191237061521_);fill:#A01D20;}
	.st115{clip-path:url(#SVGID_00000003817302365463802750000001092604191237061521_);fill:#A01D21;}
	.st116{clip-path:url(#SVGID_00000003817302365463802750000001092604191237061521_);fill:#A11D21;}
	.st117{clip-path:url(#SVGID_00000003817302365463802750000001092604191237061521_);fill:#A21E21;}
	.st118{clip-path:url(#SVGID_00000003817302365463802750000001092604191237061521_);fill:#A31E22;}
	.st119{clip-path:url(#SVGID_00000003817302365463802750000001092604191237061521_);fill:#A51E22;}
	.st120{clip-path:url(#SVGID_00000003817302365463802750000001092604191237061521_);fill:#A61E22;}
	.st121{clip-path:url(#SVGID_00000003817302365463802750000001092604191237061521_);fill:#A71E22;}
	.st122{clip-path:url(#SVGID_00000003817302365463802750000001092604191237061521_);fill:#A91E23;}
	.st123{clip-path:url(#SVGID_00000003817302365463802750000001092604191237061521_);fill:#AB1F23;}
	.st124{clip-path:url(#SVGID_00000003817302365463802750000001092604191237061521_);fill:#AC1F23;}
	.st125{clip-path:url(#SVGID_00000003817302365463802750000001092604191237061521_);fill:#AD1F23;}
	.st126{clip-path:url(#SVGID_00000003817302365463802750000001092604191237061521_);fill:#AE1F24;}
	.st127{clip-path:url(#SVGID_00000003817302365463802750000001092604191237061521_);fill:#AF1F24;}
	.st128{clip-path:url(#SVGID_00000003817302365463802750000001092604191237061521_);fill:#B22024;}
	.st129{clip-path:url(#SVGID_00000003817302365463802750000001092604191237061521_);fill:#B32025;}
	.st130{clip-path:url(#SVGID_00000003817302365463802750000001092604191237061521_);fill:#B42025;}
	.st131{clip-path:url(#SVGID_00000003817302365463802750000001092604191237061521_);fill:#B52025;}
	.st132{clip-path:url(#SVGID_00000003817302365463802750000001092604191237061521_);fill:#B72025;}
	.st133{clip-path:url(#SVGID_00000003817302365463802750000001092604191237061521_);fill:#B92025;}
	.st134{clip-path:url(#SVGID_00000003817302365463802750000001092604191237061521_);fill:#BC2026;}
	.st135{clip-path:url(#SVGID_00000003817302365463802750000001092604191237061521_);fill:#BE2126;}
	.st136{clip-path:url(#SVGID_00000003817302365463802750000001092604191237061521_);fill:#BF2126;}
	.st137{clip-path:url(#SVGID_00000003817302365463802750000001092604191237061521_);fill:#C02126;}
	.st138{clip-path:url(#SVGID_00000003817302365463802750000001092604191237061521_);fill:#C12126;}
	.st139{clip-path:url(#SVGID_00000003817302365463802750000001092604191237061521_);fill:#C22126;}
	.st140{clip-path:url(#SVGID_00000003817302365463802750000001092604191237061521_);fill:#C32126;}
	.st141{clip-path:url(#SVGID_00000003817302365463802750000001092604191237061521_);fill:#C42126;}
	.st142{clip-path:url(#SVGID_00000003817302365463802750000001092604191237061521_);fill:#C52126;}
	.st143{clip-path:url(#SVGID_00000003817302365463802750000001092604191237061521_);fill:#C62127;}
	.st144{clip-path:url(#SVGID_00000003817302365463802750000001092604191237061521_);fill:#C72127;}
	.st145{clip-path:url(#SVGID_00000003817302365463802750000001092604191237061521_);fill:#C82127;}
	.st146{clip-path:url(#SVGID_00000003817302365463802750000001092604191237061521_);fill:#C92127;}
	.st147{clip-path:url(#SVGID_00000003817302365463802750000001092604191237061521_);fill:#CA2127;}
	.st148{clip-path:url(#SVGID_00000003817302365463802750000001092604191237061521_);fill:#CA2027;}
	.st149{clip-path:url(#SVGID_00000003817302365463802750000001092604191237061521_);fill:#CC2027;}
	.st150{clip-path:url(#SVGID_00000003817302365463802750000001092604191237061521_);fill:#CD2027;}
	.st151{clip-path:url(#SVGID_00000003817302365463802750000001092604191237061521_);fill:#CE2127;}
	.st152{clip-path:url(#SVGID_00000003817302365463802750000001092604191237061521_);fill:#CF2127;}
	.st153{clip-path:url(#SVGID_00000003817302365463802750000001092604191237061521_);fill:#D02027;}
	.st154{clip-path:url(#SVGID_00000003817302365463802750000001092604191237061521_);fill:#D12027;}
	.st155{clip-path:url(#SVGID_00000003817302365463802750000001092604191237061521_);fill:#D22027;}
	.st156{clip-path:url(#SVGID_00000003817302365463802750000001092604191237061521_);fill:#D32027;}
	.st157{clip-path:url(#SVGID_00000003817302365463802750000001092604191237061521_);fill:#D42027;}
	.st158{clip-path:url(#SVGID_00000003817302365463802750000001092604191237061521_);fill:#D52027;}
	.st159{clip-path:url(#SVGID_00000003817302365463802750000001092604191237061521_);fill:#D62027;}
	.st160{clip-path:url(#SVGID_00000003817302365463802750000001092604191237061521_);fill:#D72027;}
	.st161{clip-path:url(#SVGID_00000003817302365463802750000001092604191237061521_);fill:#D71F27;}
	.st162{clip-path:url(#SVGID_00000059272040603579997020000009774037187105060750_);}
	.st163{clip-path:url(#SVGID_00000043431453080156886070000011201376252023629758_);fill:#650F0E;}
	.st164{clip-path:url(#SVGID_00000043431453080156886070000011201376252023629758_);fill:#670E0D;}
	.st165{clip-path:url(#SVGID_00000043431453080156886070000011201376252023629758_);fill:#690C0D;}
	.st166{clip-path:url(#SVGID_00000043431453080156886070000011201376252023629758_);fill:#6C0D0F;}
	.st167{clip-path:url(#SVGID_00000043431453080156886070000011201376252023629758_);fill:#6F0F10;}
	.st168{clip-path:url(#SVGID_00000043431453080156886070000011201376252023629758_);fill:#700F10;}
	.st169{clip-path:url(#SVGID_00000043431453080156886070000011201376252023629758_);fill:#721011;}
	.st170{clip-path:url(#SVGID_00000043431453080156886070000011201376252023629758_);fill:#741012;}
	.st171{clip-path:url(#SVGID_00000043431453080156886070000011201376252023629758_);fill:#761113;}
	.st172{clip-path:url(#SVGID_00000043431453080156886070000011201376252023629758_);fill:#781214;}
	.st173{clip-path:url(#SVGID_00000043431453080156886070000011201376252023629758_);fill:#7A1214;}
	.st174{clip-path:url(#SVGID_00000043431453080156886070000011201376252023629758_);fill:#7B1315;}
	.st175{clip-path:url(#SVGID_00000043431453080156886070000011201376252023629758_);fill:#7D1416;}
	.st176{clip-path:url(#SVGID_00000043431453080156886070000011201376252023629758_);fill:#7F1416;}
	.st177{clip-path:url(#SVGID_00000043431453080156886070000011201376252023629758_);fill:#801517;}
	.st178{clip-path:url(#SVGID_00000043431453080156886070000011201376252023629758_);fill:#811517;}
	.st179{clip-path:url(#SVGID_00000043431453080156886070000011201376252023629758_);fill:#831618;}
	.st180{clip-path:url(#SVGID_00000043431453080156886070000011201376252023629758_);fill:#851619;}
	.st181{clip-path:url(#SVGID_00000043431453080156886070000011201376252023629758_);fill:#871719;}
	.st182{clip-path:url(#SVGID_00000043431453080156886070000011201376252023629758_);fill:#88171A;}
	.st183{clip-path:url(#SVGID_00000043431453080156886070000011201376252023629758_);fill:#89181A;}
	.st184{clip-path:url(#SVGID_00000043431453080156886070000011201376252023629758_);fill:#8B181B;}
	.st185{clip-path:url(#SVGID_00000043431453080156886070000011201376252023629758_);fill:#8D181B;}
	.st186{clip-path:url(#SVGID_00000043431453080156886070000011201376252023629758_);fill:#8F191C;}
	.st187{clip-path:url(#SVGID_00000043431453080156886070000011201376252023629758_);fill:#91191C;}
	.st188{clip-path:url(#SVGID_00000043431453080156886070000011201376252023629758_);fill:#921A1D;}
	.st189{clip-path:url(#SVGID_00000043431453080156886070000011201376252023629758_);fill:#941A1D;}
	.st190{clip-path:url(#SVGID_00000043431453080156886070000011201376252023629758_);fill:#951B1E;}
	.st191{clip-path:url(#SVGID_00000043431453080156886070000011201376252023629758_);fill:#971B1E;}
	.st192{clip-path:url(#SVGID_00000043431453080156886070000011201376252023629758_);fill:#981B1F;}
	.st193{clip-path:url(#SVGID_00000043431453080156886070000011201376252023629758_);fill:#9A1C1F;}
	.st194{clip-path:url(#SVGID_00000043431453080156886070000011201376252023629758_);fill:#9B1C1F;}
	.st195{clip-path:url(#SVGID_00000043431453080156886070000011201376252023629758_);fill:#9D1C20;}
	.st196{clip-path:url(#SVGID_00000043431453080156886070000011201376252023629758_);fill:#9E1D20;}
	.st197{clip-path:url(#SVGID_00000043431453080156886070000011201376252023629758_);fill:#A01D20;}
	.st198{clip-path:url(#SVGID_00000043431453080156886070000011201376252023629758_);fill:#A01D21;}
	.st199{clip-path:url(#SVGID_00000043431453080156886070000011201376252023629758_);fill:#A11D21;}
	.st200{clip-path:url(#SVGID_00000043431453080156886070000011201376252023629758_);fill:#A21E21;}
	.st201{clip-path:url(#SVGID_00000043431453080156886070000011201376252023629758_);fill:#A31E22;}
	.st202{clip-path:url(#SVGID_00000043431453080156886070000011201376252023629758_);fill:#A51E22;}
	.st203{clip-path:url(#SVGID_00000043431453080156886070000011201376252023629758_);fill:#A61E22;}
	.st204{clip-path:url(#SVGID_00000043431453080156886070000011201376252023629758_);fill:#A71E22;}
	.st205{clip-path:url(#SVGID_00000043431453080156886070000011201376252023629758_);fill:#A91E23;}
	.st206{clip-path:url(#SVGID_00000043431453080156886070000011201376252023629758_);fill:#AB1F23;}
	.st207{clip-path:url(#SVGID_00000043431453080156886070000011201376252023629758_);fill:#AC1F23;}
	.st208{clip-path:url(#SVGID_00000043431453080156886070000011201376252023629758_);fill:#AD1F23;}
	.st209{clip-path:url(#SVGID_00000043431453080156886070000011201376252023629758_);fill:#AE1F24;}
	.st210{clip-path:url(#SVGID_00000043431453080156886070000011201376252023629758_);fill:#AF1F24;}
	.st211{clip-path:url(#SVGID_00000043431453080156886070000011201376252023629758_);fill:#B22024;}
	.st212{clip-path:url(#SVGID_00000043431453080156886070000011201376252023629758_);fill:#B32025;}
	.st213{clip-path:url(#SVGID_00000043431453080156886070000011201376252023629758_);fill:#B42025;}
	.st214{clip-path:url(#SVGID_00000043431453080156886070000011201376252023629758_);fill:#B52025;}
	.st215{clip-path:url(#SVGID_00000043431453080156886070000011201376252023629758_);fill:#B72025;}
	.st216{clip-path:url(#SVGID_00000043431453080156886070000011201376252023629758_);fill:#B92025;}
	.st217{clip-path:url(#SVGID_00000043431453080156886070000011201376252023629758_);fill:#BC2026;}
	.st218{clip-path:url(#SVGID_00000043431453080156886070000011201376252023629758_);fill:#BE2126;}
	.st219{clip-path:url(#SVGID_00000043431453080156886070000011201376252023629758_);fill:#BF2126;}
	.st220{clip-path:url(#SVGID_00000043431453080156886070000011201376252023629758_);fill:#C02126;}
	.st221{clip-path:url(#SVGID_00000043431453080156886070000011201376252023629758_);fill:#C12126;}
	.st222{clip-path:url(#SVGID_00000043431453080156886070000011201376252023629758_);fill:#C22126;}
	.st223{clip-path:url(#SVGID_00000043431453080156886070000011201376252023629758_);fill:#C32126;}
	.st224{clip-path:url(#SVGID_00000043431453080156886070000011201376252023629758_);fill:#C42126;}
	.st225{clip-path:url(#SVGID_00000043431453080156886070000011201376252023629758_);fill:#C52126;}
	.st226{clip-path:url(#SVGID_00000043431453080156886070000011201376252023629758_);fill:#C62127;}
	.st227{clip-path:url(#SVGID_00000043431453080156886070000011201376252023629758_);fill:#C72127;}
	.st228{clip-path:url(#SVGID_00000043431453080156886070000011201376252023629758_);fill:#C82127;}
	.st229{clip-path:url(#SVGID_00000043431453080156886070000011201376252023629758_);fill:#C92127;}
	.st230{clip-path:url(#SVGID_00000043431453080156886070000011201376252023629758_);fill:#CA2127;}
	.st231{clip-path:url(#SVGID_00000043431453080156886070000011201376252023629758_);fill:#CA2027;}
	.st232{clip-path:url(#SVGID_00000043431453080156886070000011201376252023629758_);fill:#CC2027;}
	.st233{clip-path:url(#SVGID_00000043431453080156886070000011201376252023629758_);fill:#CD2027;}
	.st234{clip-path:url(#SVGID_00000043431453080156886070000011201376252023629758_);fill:#CE2127;}
	.st235{clip-path:url(#SVGID_00000043431453080156886070000011201376252023629758_);fill:#CF2127;}
	.st236{clip-path:url(#SVGID_00000043431453080156886070000011201376252023629758_);fill:#D02027;}
	.st237{clip-path:url(#SVGID_00000043431453080156886070000011201376252023629758_);fill:#D12027;}
	.st238{clip-path:url(#SVGID_00000043431453080156886070000011201376252023629758_);fill:#D22027;}
	.st239{clip-path:url(#SVGID_00000043431453080156886070000011201376252023629758_);fill:#D32027;}
	.st240{clip-path:url(#SVGID_00000043431453080156886070000011201376252023629758_);fill:#D42027;}
	.st241{clip-path:url(#SVGID_00000043431453080156886070000011201376252023629758_);fill:#D52027;}
	.st242{clip-path:url(#SVGID_00000043431453080156886070000011201376252023629758_);fill:#D62027;}
	.st243{clip-path:url(#SVGID_00000043431453080156886070000011201376252023629758_);fill:#D72027;}
	.st244{clip-path:url(#SVGID_00000043431453080156886070000011201376252023629758_);fill:#D71F27;}
	.st245{fill:#C3996B;}
	.st246{fill:#F06724;}
	.st247{fill:#231F20;}
	.st248{fill:#AEB3B6;}
	.st249{fill:#EE3537;}
	.st250{fill:#9BA0A3;}
	.st251{fill:#AFB3B5;}
	.st252{fill:#F2EB44;}
	.st253{fill:#FFDD26;}
	.st254{clip-path:url(#XMLID_00000003801647030460776870000009292111690986504359_);}
	.st255{fill:#7E8386;}
	.st256{fill:#A4AAAC;}
	.st257{fill:#131718;}
	.st258{fill:#007843;}
	.st259{fill:#2AB34B;}
	.st260{fill:none;stroke:#FFFFFF;stroke-width:1.4841;stroke-miterlimit:10;}
	.st261{fill:#2E3192;}
	.st262{fill:#154458;}
	.st263{fill:#C72026;}
	.st264{fill:#5FBB46;}
	.st265{fill:#1A5F30;}
	.st266{fill:#293896;}
	.st267{filter:url(#Adobe_OpacityMaskFilter_00000182504809681498345410000009309678506601111954_);}
	.st268{filter:url(#Adobe_OpacityMaskFilter_00000102545584656741604420000014410186800536059529_);}
	
		.st269{mask:url(#SVGID_00000076577811852398644310000014586354494167932574_);fill:url(#SVGID_00000113331094420223633100000004594337073871706023_);}
	.st270{filter:url(#Adobe_OpacityMaskFilter_00000089575977955940110730000013396667968902218416_);}
	.st271{filter:url(#Adobe_OpacityMaskFilter_00000080189185199898359200000014592707399673243529_);}
	
		.st272{mask:url(#SVGID_00000075876601334767710770000012928894874447277963_);fill:url(#SVGID_00000140694145895916269990000012189017651341268897_);}
	.st273{filter:url(#Adobe_OpacityMaskFilter_00000057851906182690349080000006275363458051784858_);}
	.st274{filter:url(#Adobe_OpacityMaskFilter_00000093869939624537462080000001654039925645391000_);}
	
		.st275{mask:url(#SVGID_00000160181297218444096120000002650078212455216049_);fill:url(#SVGID_00000105417339668476890640000001474342384332155054_);}
	.st276{filter:url(#Adobe_OpacityMaskFilter_00000042700207835109348820000000338143394034162090_);}
	.st277{filter:url(#Adobe_OpacityMaskFilter_00000054249775852900578260000004366352308542481044_);}
	
		.st278{mask:url(#SVGID_00000047051817785815504950000004225217471986544525_);fill:url(#SVGID_00000172398983502722697030000008803013047888130944_);}
	.st279{filter:url(#Adobe_OpacityMaskFilter_00000035528076859428525020000015121796588099767469_);}
	.st280{filter:url(#Adobe_OpacityMaskFilter_00000165940763015775653790000014806724096026669503_);}
	
		.st281{mask:url(#SVGID_00000083808630210881187520000016216881811939318441_);fill:url(#SVGID_00000077289142010044170290000001284539936090355589_);}
	.st282{filter:url(#Adobe_OpacityMaskFilter_00000124119311382810982310000004125197828497670300_);}
	.st283{filter:url(#Adobe_OpacityMaskFilter_00000022556633029413472930000009113672226958097543_);}
	
		.st284{mask:url(#SVGID_00000054231796269267637210000010448868035667252411_);fill:url(#SVGID_00000183225162480775032050000014982735910946173587_);}
	.st285{filter:url(#Adobe_OpacityMaskFilter_00000160157265645357532740000011239125727152431535_);}
	.st286{filter:url(#Adobe_OpacityMaskFilter_00000102532619360768884610000007387128901783746965_);}
	
		.st287{mask:url(#SVGID_00000152980223331724814530000001953976626543049391_);fill:url(#SVGID_00000055697384293086517610000001741411553625997496_);}
	.st288{filter:url(#Adobe_OpacityMaskFilter_00000015325649339568219810000005237956276082345396_);}
	.st289{filter:url(#Adobe_OpacityMaskFilter_00000062183773749135409380000004286958151283600557_);}
	
		.st290{mask:url(#SVGID_00000143588788618869043400000011882279356543064981_);fill:url(#SVGID_00000003789428506931114730000011851114439953043841_);}
	.st291{filter:url(#Adobe_OpacityMaskFilter_00000049936774774729332740000016599287028517811632_);}
	.st292{filter:url(#Adobe_OpacityMaskFilter_00000183216566154003681760000017241411497733774525_);}
	
		.st293{mask:url(#SVGID_00000016044586059628655670000010653310821257942153_);fill:url(#SVGID_00000150102045923714125060000010770526378464241815_);}
	.st294{filter:url(#Adobe_OpacityMaskFilter_00000002350477526235980960000014545683580365620352_);}
	.st295{filter:url(#Adobe_OpacityMaskFilter_00000083049441809866319280000001740074240573183921_);}
	
		.st296{mask:url(#SVGID_00000159462263355990957770000002484728530232226705_);fill:url(#SVGID_00000005969806722798473500000017668526949702270387_);}
	.st297{clip-path:url(#SVGID_00000088845879094443658760000001247275721782404023_);fill:#FFF200;}
	
		.st298{clip-path:url(#SVGID_00000088845879094443658760000001247275721782404023_);fill:none;stroke:#FFFFFF;stroke-width:4.8568;stroke-linejoin:round;stroke-miterlimit:10;}
	.st299{clip-path:url(#SVGID_00000088845879094443658760000001247275721782404023_);fill:#ED1C24;}
	.st300{clip-path:url(#SVGID_00000088845879094443658760000001247275721782404023_);fill:#FFFFFF;}
	.st301{clip-path:url(#SVGID_00000088845879094443658760000001247275721782404023_);fill:#2E3192;}
	.st302{clip-path:url(#SVGID_00000088845879094443658760000001247275721782404023_);}
	.st303{clip-path:url(#SVGID_00000088845879094443658760000001247275721782404023_);fill:#F4817F;}
	.st304{clip-path:url(#SVGID_00000088845879094443658760000001247275721782404023_);fill:#56BF98;}
	.st305{clip-path:url(#SVGID_00000088845879094443658760000001247275721782404023_);fill:#570C08;}
	.st306{clip-path:url(#SVGID_00000088845879094443658760000001247275721782404023_);fill:#00A750;}
	
		.st307{fill:#FFFFFF;stroke:url(#SVGID_00000142881967424970188790000013434419960297765278_);stroke-width:7.11;stroke-miterlimit:10;}
	.st308{fill:#ED2224;}
	.st309{fill:#074E28;}
	.st310{fill:#EB2627;}
	.st311{fill:#D1D3D4;}
	.st312{fill:#5F1F16;}
	.st313{fill:#F1E7E6;}
	.st314{fill:#ED2024;}
	.st315{fill:url(#SVGID_00000042003007748594952470000003426251536333490606_);}
	.st316{fill:url(#SVGID_00000081635561865960849010000005398652368896500898_);}
	.st317{fill:#BB2025;}
	.st318{fill:url(#SVGID_00000082362042955276765010000005781114178977773465_);}
	.st319{fill:url(#SVGID_00000088840002895469718500000003382682194222478497_);}
	.st320{fill:none;stroke:#7F8080;stroke-width:0.8623;stroke-miterlimit:10;}
	.st321{fill:url(#SVGID_00000111169878510701110900000015693070209528197546_);}
	.st322{fill:url(#SVGID_00000013162977288028130110000011532896133193857672_);}
	.st323{fill:url(#SVGID_00000138573600376277517450000016159624740371272337_);}
	.st324{fill:url(#SVGID_00000183970735123149666260000011512570232153440663_);}
	.st325{fill:url(#SVGID_00000122002393164415758000000003714277310537237399_);}
	.st326{fill:url(#SVGID_00000052062996273368088420000013590646207553282471_);}
	.st327{fill:url(#SVGID_00000129885442747885005550000005412558431071178644_);}
	.st328{fill:url(#SVGID_00000074417262040541117350000001688652095801232046_);}
	.st329{fill:url(#SVGID_00000128456015914780676090000009499887250607130553_);}
	.st330{fill:url(#SVGID_00000142898344810419777050000013759722376042438020_);}
	.st331{fill:url(#SVGID_00000082352384193907206240000006342656766525806757_);}
	.st332{fill:url(#SVGID_00000119804739819139512160000003333554751488648893_);}
	.st333{fill:url(#SVGID_00000029762014606984991460000011473705966839808189_);}
	.st334{fill:url(#SVGID_00000078730275000448743130000001713619836218606227_);}
	.st335{fill:#E01E26;}
</style>
<g>
	<g>
		<g>
			<path class="st39" d="M33.08,112.92c-2.48-5.47-4.81-10.6-7.21-15.9c13.4,0,30.47-0.62,43.92-0.62
				c-1.03,2.18-1.91,4.29-3.02,6.27c-0.8,1.44-2.26,1.94-3.91,1.94c-7.04-0.02-14.07,0.01-21.11-0.03c-1.06-0.01-4.84,0.39-5.32,1.4
				C35.47,108.03,34.1,110.6,33.08,112.92z"/>
			<path class="st39" d="M42.07,133.4c-1.66-3.63-3.17-6.9-4.62-10.19c-0.16-0.35-0.08-0.91,0.09-1.3c1.82-4.2,3.66-8.4,5.56-12.57
				c0.18-0.4,0.78-0.84,1.2-0.85c2.85-0.07,5.7-0.04,8.83-0.04c-0.63,1.45-1.18,2.71-1.8,4.15c3.77,0,7.32,0,11.34,0
				c-1.3,2.53-2.26,4.94-3.72,6.98c-0.62,0.87-2.28,1.25-3.51,1.38c-2.17,0.22-4.38,0.14-6.57,0.06c-1.04-0.04-1.54,0.34-1.94,1.27
				C45.4,125.89,43.8,129.46,42.07,133.4z"/>
		</g>
	</g>
	<path class="st39" d="M77.53,96.77h14.76l-1.02,4.52h-5.63v4.28h5.01l-0.24,2.06c-0.15,1.28-1.23,2.24-2.52,2.24h-2.25v9.49h-8.11
		V96.77z"/>
	<path class="st39" d="M106.47,96.77l4.64,22.59h-8.29l-0.44-4.06h-2.9l0,0c-0.28,2.32-2.24,4.06-4.58,4.06h-4.3l4.14-22.59H106.47z
		 M102.17,111.29c-0.41-2.56-0.82-5.72-1.24-9.49c-0.83,4.33-1.35,7.49-1.56,9.49H102.17z"/>
	<path class="st39" d="M137.52,96.77v22.59h-7.09l-0.01-15.25l-2.82,15.25h0c-2.92,0-5.44-2.06-6.02-4.93l-1.99-9.97l-0.01,14.9
		h-7.09V96.77h10.5c0.31,1.36,0.63,2.96,0.96,4.8l1.15,5.75l1.86-10.55H137.52z"/>
	<path class="st39" d="M159.31,110c0,2.27-0.07,3.88-0.22,4.82c-0.15,0.94-0.61,1.81-1.39,2.59c-0.78,0.78-1.83,1.38-3.15,1.8
		c-1.32,0.42-2.87,0.63-4.63,0.63c-1.67,0-3.17-0.2-4.5-0.59c-1.33-0.4-2.4-0.99-3.21-1.78c-0.81-0.79-1.29-1.65-1.45-2.58
		c-0.15-0.93-0.23-2.56-0.23-4.88v-3.86c0-2.27,0.07-3.88,0.22-4.82c0.15-0.94,0.61-1.81,1.39-2.59c0.78-0.78,1.83-1.38,3.15-1.8
		c1.32-0.42,2.86-0.63,4.62-0.63c1.67,0,3.17,0.2,4.5,0.59c1.33,0.4,2.4,0.99,3.21,1.78c0.81,0.79,1.29,1.65,1.45,2.58
		c0.15,0.93,0.23,2.56,0.23,4.88V110z M151.2,102.57c0-1.05-0.08-1.72-0.24-2.02c-0.16-0.29-0.49-0.44-0.99-0.44
		c-0.42,0-0.75,0.12-0.97,0.36c-0.23,0.24-0.34,0.94-0.34,2.1v10.55c0,1.31,0.07,2.12,0.22,2.43c0.15,0.31,0.49,0.46,1.03,0.46
		c0.55,0,0.91-0.18,1.06-0.53c0.15-0.35,0.23-1.2,0.23-2.53V102.57z"/>
	<path class="st39" d="M180.78,96.77v15.1c0,1.71-0.08,2.91-0.23,3.61c-0.15,0.69-0.61,1.4-1.37,2.13c-0.76,0.73-1.76,1.28-3,1.66
		c-1.24,0.38-2.7,0.57-4.38,0.57c-1.86,0-3.51-0.22-4.93-0.67c-1.43-0.45-2.49-1.03-3.2-1.74c-0.71-0.72-1.12-1.47-1.25-2.27
		c-0.13-0.8-0.19-2.47-0.19-5.02V96.77h3.64c2.47,0,4.47,2,4.47,4.47v12.47c0,0.99,0.07,1.62,0.22,1.89
		c0.15,0.27,0.45,0.41,0.9,0.41c0.51,0,0.84-0.15,0.99-0.45c0.15-0.3,0.22-1.02,0.22-2.14V96.77H180.78z"/>
	<path class="st39" d="M201.11,103.61h-5.86c-0.92,0-1.67-0.75-1.67-1.67v0c0-0.78-0.1-1.28-0.29-1.49
		c-0.19-0.21-0.51-0.32-0.96-0.32c-0.49,0-0.86,0.14-1.11,0.43c-0.25,0.29-0.38,0.73-0.38,1.31c0,0.75,0.14,1.32,0.42,1.7
		c0.27,0.38,1.03,0.84,2.29,1.38c3.61,1.55,5.89,2.83,6.82,3.82c0.94,1,1.41,2.6,1.41,4.81c0,1.61-0.26,2.8-0.78,3.56
		c-0.52,0.76-1.53,1.4-3.02,1.92c-1.49,0.52-3.23,0.77-5.2,0.77c-2.17,0-4.02-0.3-5.56-0.89c-1.54-0.6-2.54-1.35-3.02-2.27
		c-0.48-0.92-0.71-2.23-0.71-3.92v-1.48h4.79c1.52,0,2.75,1.23,2.75,2.75v0c0,0.85,0.11,1.39,0.32,1.63
		c0.21,0.24,0.59,0.36,1.13,0.36s0.94-0.15,1.2-0.46c0.26-0.31,0.39-0.76,0.39-1.37c0-1.33-0.25-2.2-0.75-2.61
		c-0.51-0.41-1.78-1.09-3.8-2.05c-2.02-0.97-3.35-1.67-4.01-2.11c-0.66-0.44-1.2-1.04-1.63-1.81c-0.43-0.77-0.65-1.76-0.65-2.96
		c0-1.73,0.3-2.99,0.92-3.79c0.61-0.8,1.6-1.43,2.96-1.88c1.36-0.45,3.01-0.68,4.93-0.68c2.11,0,3.9,0.25,5.39,0.74
		c1.48,0.49,2.47,1.11,2.95,1.86c0.48,0.75,0.72,2.02,0.72,3.82V103.61z"/>
	<g>
		<g>
			<path d="M77.56,125.51h3.57v1.26h-2.29v2.57h1.81v1.26h-1.81v3.7h-1.28V125.51z"/>
			<path d="M84.18,132.35h-1.37l-0.28,1.95h-1.28l1.4-8.79h1.71l1.4,8.79h-1.3L84.18,132.35z M84.01,131.07l-0.52-3.68l-0.52,3.68
				H84.01z"/>
			<path d="M92.55,125.51v8.79h-1.28v-6.03l-1.19,6.03h-0.89L88,128.27v6.03h-1.25v-8.79h1.81l1.11,5.61l1.06-5.61H92.55z"/>
			<path d="M94.41,133.84c-0.38-0.39-0.57-0.9-0.57-1.54v-4.8c0-0.64,0.19-1.15,0.57-1.54c0.38-0.39,0.87-0.58,1.48-0.58
				c0.61,0,1.1,0.19,1.48,0.58c0.38,0.39,0.57,0.9,0.57,1.54v4.8c0,0.64-0.19,1.15-0.57,1.54c-0.38,0.39-0.87,0.58-1.48,0.58
				C95.28,134.42,94.78,134.23,94.41,133.84z M96.45,132.94c0.14-0.15,0.2-0.36,0.2-0.64v-4.8c0-0.28-0.07-0.49-0.2-0.64
				c-0.14-0.15-0.33-0.23-0.57-0.23c-0.24,0-0.43,0.08-0.57,0.23c-0.14,0.15-0.2,0.36-0.2,0.64v4.8c0,0.28,0.07,0.49,0.2,0.64
				c0.14,0.15,0.33,0.23,0.57,0.23C96.13,133.17,96.32,133.09,96.45,132.94z"/>
			<path d="M99.73,133.85c-0.37-0.38-0.55-0.88-0.55-1.49v-6.86h1.28v6.86c0,0.25,0.07,0.45,0.2,0.59c0.13,0.14,0.3,0.21,0.51,0.21
				s0.38-0.07,0.51-0.21c0.13-0.14,0.2-0.34,0.2-0.59v-6.86h1.25v6.86c0,0.61-0.18,1.11-0.54,1.49c-0.36,0.38-0.84,0.57-1.42,0.57
				S100.1,134.23,99.73,133.85z"/>
			<path d="M105.18,134.15c-0.31-0.18-0.56-0.44-0.73-0.77c-0.17-0.33-0.26-0.7-0.26-1.12v-0.31l1.23-0.14v0.33
				c0,0.32,0.07,0.57,0.22,0.75c0.14,0.18,0.35,0.28,0.6,0.28c0.25,0,0.45-0.08,0.6-0.23c0.15-0.15,0.22-0.36,0.22-0.62
				c0-0.28-0.08-0.56-0.23-0.82c-0.16-0.26-0.47-0.62-0.93-1.08c-0.63-0.62-1.05-1.13-1.28-1.54c-0.23-0.41-0.34-0.86-0.34-1.34
				c0-0.66,0.17-1.19,0.52-1.58c0.35-0.39,0.82-0.58,1.42-0.58c0.6,0,1.08,0.2,1.42,0.59c0.35,0.39,0.52,0.92,0.52,1.58v0.23
				l-1.23,0.14v-0.25c0-0.33-0.06-0.59-0.18-0.77c-0.12-0.18-0.29-0.26-0.52-0.26c-0.23,0-0.4,0.07-0.52,0.21
				c-0.12,0.14-0.18,0.35-0.18,0.63s0.08,0.54,0.24,0.8c0.16,0.26,0.47,0.62,0.93,1.1c0.63,0.65,1.05,1.18,1.28,1.58
				s0.34,0.83,0.34,1.31c0,0.42-0.09,0.79-0.26,1.12c-0.17,0.33-0.42,0.58-0.73,0.77c-0.31,0.18-0.67,0.28-1.07,0.28
				S105.49,134.33,105.18,134.15z"/>
			<path d="M111.8,125.51h3.57v1.26h-2.29v2.57h1.81v1.26h-1.81v3.7h-1.28V125.51z"/>
			<path d="M116.35,125.51h1.28v7.53h2.28v1.26h-3.55V125.51z"/>
			<path d="M120.89,125.51h3.63v1.26h-2.35v2.45h1.87v1.26h-1.87v2.57h2.35v1.26h-3.63V125.51z"/>
			<path d="M128.64,134.3l-1.08-3.06l-1.02,3.06h-1.32l1.67-4.54l-1.57-4.24h1.37l1,2.81l0.94-2.81h1.32l-1.59,4.31l1.65,4.48
				H128.64z"/>
			<path d="M130.98,125.51h1.28v8.79h-1.28V125.51z"/>
			<path d="M137.53,130.42c0.16,0.29,0.25,0.65,0.25,1.07v0.72c0,0.64-0.18,1.14-0.54,1.53c-0.36,0.38-0.85,0.57-1.46,0.57h-2.13
				v-8.79h2.02c0.61,0,1.1,0.19,1.46,0.57c0.36,0.38,0.54,0.89,0.54,1.53v0.46c0,0.79-0.28,1.35-0.85,1.68
				C137.13,129.9,137.37,130.12,137.53,130.42z M134.93,126.76v2.39h0.57c0.31,0,0.53-0.08,0.68-0.23c0.15-0.15,0.22-0.39,0.22-0.71
				v-0.63c0-0.26-0.07-0.46-0.2-0.6c-0.14-0.14-0.33-0.21-0.58-0.21H134.93z M136.5,131.35c0-0.32-0.07-0.55-0.22-0.71
				c-0.15-0.15-0.38-0.23-0.68-0.23h-0.67v2.64h0.8c0.25,0,0.44-0.07,0.58-0.21c0.14-0.14,0.2-0.34,0.2-0.6V131.35z"/>
			<path d="M138.94,125.51h1.28v7.53h2.28v1.26h-3.55V125.51z"/>
			<path d="M143.48,125.51h3.63v1.26h-2.35v2.45h1.87v1.26h-1.87v2.57h2.35v1.26h-3.63V125.51z"/>
			<path d="M148.18,125.51h2c0.61,0,1.1,0.19,1.46,0.57s0.54,0.89,0.54,1.53v1.03c0,0.64-0.18,1.14-0.54,1.53s-0.85,0.57-1.46,0.57
				h-0.72v3.57h-1.28V125.51z M150.11,129.47c0.25,0,0.44-0.07,0.58-0.21c0.14-0.14,0.2-0.34,0.2-0.6v-1.08
				c0-0.26-0.07-0.46-0.2-0.6c-0.14-0.14-0.33-0.21-0.58-0.21h-0.66v2.71H150.11z"/>
			<path d="M155.31,132.35h-1.37l-0.28,1.95h-1.28l1.4-8.79h1.71l1.4,8.79h-1.3L155.31,132.35z M155.14,131.07l-0.52-3.68
				l-0.52,3.68H155.14z"/>
			<path d="M158.31,133.84c-0.37-0.38-0.55-0.89-0.55-1.51v-4.87c0-0.62,0.18-1.12,0.55-1.51c0.37-0.38,0.85-0.58,1.45-0.58
				s1.08,0.19,1.45,0.58c0.37,0.39,0.55,0.89,0.55,1.51v1.03h-1.25v-1.03c0-0.25-0.07-0.45-0.2-0.6c-0.14-0.15-0.31-0.23-0.53-0.23
				s-0.39,0.08-0.53,0.23c-0.14,0.15-0.2,0.35-0.2,0.6v4.87c0,0.25,0.07,0.45,0.2,0.6c0.14,0.15,0.31,0.23,0.53,0.23
				s0.39-0.08,0.53-0.23c0.14-0.15,0.2-0.35,0.2-0.6v-1.26h1.25v1.26c0,0.62-0.18,1.12-0.55,1.51c-0.37,0.39-0.85,0.58-1.45,0.58
				S158.67,134.23,158.31,133.84z"/>
			<path d="M164.68,130.68l-0.48,0.97v2.65h-1.28v-8.79h1.28v3.57l1.69-3.57h1.37l-1.79,3.73l1.93,5.06h-1.37L164.68,130.68z"/>
			<path d="M170.75,125.51h1.28v7.53h2.28v1.26h-3.55V125.51z"/>
			<path d="M175.29,125.51h1.28v8.79h-1.28V125.51z"/>
			<path d="M183.77,125.51v8.79h-1.28v-6.03l-1.19,6.03h-0.89l-1.19-6.03v6.03h-1.25v-8.79h1.81l1.11,5.61l1.06-5.61H183.77z"/>
			<path d="M185.17,125.51h1.28v8.79h-1.28V125.51z"/>
			<path d="M187.43,125.51h4.07v1.26h-1.4v7.53h-1.28v-7.53h-1.4V125.51z"/>
			<path d="M192.49,125.51h3.63v1.26h-2.35v2.45h1.87v1.26h-1.87v2.57h2.35v1.26h-3.63V125.51z"/>
			<path d="M197.19,125.51h2c0.61,0,1.1,0.19,1.46,0.57s0.54,0.89,0.54,1.53v4.6c0,0.64-0.18,1.14-0.54,1.53s-0.85,0.57-1.46,0.57
				h-2V125.51z M199.13,133.04c0.25,0,0.44-0.07,0.58-0.21c0.14-0.14,0.2-0.34,0.2-0.6v-4.65c0-0.26-0.07-0.46-0.2-0.6
				c-0.14-0.14-0.33-0.21-0.58-0.21h-0.66v6.28H199.13z"/>
		</g>
	</g>
</g>
</svg>
