<?xml version="1.0" encoding="utf-8"?>
<!-- Generator: Adobe Illustrator 27.0.0, SVG Export Plug-In . SVG Version: 6.00 Build 0)  -->
<svg version="1.1" id="Layer_1" xmlns="http://www.w3.org/2000/svg" xmlns:xlink="http://www.w3.org/1999/xlink" x="0px" y="0px"
	 viewBox="0 0 226.77 226.77" style="enable-background:new 0 0 226.77 226.77;" xml:space="preserve">
<style type="text/css">
	.st0{fill:#FFF200;}
	.st1{stroke:#000000;stroke-width:5.2476;stroke-miterlimit:10;}
	.st2{fill:#FFFFFF;}
	.st3{fill:#ED1C24;}
	.st4{fill:#FFFFFF;stroke:#000000;stroke-width:1.6905;stroke-linecap:round;stroke-linejoin:round;stroke-miterlimit:10;}
	.st5{font-family:'Arial-Black';}
	.st6{font-size:27.5354px;}
	.st7{fill:#FFFFFF;stroke:#FFFFFF;stroke-width:1.6905;stroke-linecap:round;stroke-linejoin:round;stroke-miterlimit:10;}
	.st8{fill:#50B848;}
	.st9{fill:#007F3E;}
	.st10{fill:#F58220;}
	.st11{fill:#F37021;}
	.st12{fill:#1282C5;}
	.st13{fill:#F7941D;}
	.st14{fill:#FFFFFF;stroke:#FFFFFF;stroke-width:2.321;stroke-linecap:round;stroke-linejoin:round;}
	.st15{fill:#00854A;}
	.st16{fill:#34B34A;}
	.st17{fill:#13421E;}
	.st18{fill:#8CC540;stroke:#FFFFFF;stroke-width:1.2029;stroke-miterlimit:10;}
	.st19{fill:#065643;stroke:#FFFFFF;stroke-width:1.2029;stroke-miterlimit:10;}
	.st20{fill:#FFCB05;}
	.st21{fill:#224D71;}
	.st22{fill:#F8BC1B;}
	.st23{fill:#4CB748;}
	.st24{fill:url(#SVGID_00000154392494487360664230000017766714353713842347_);}
	.st25{fill:none;stroke:#FFFFFF;stroke-width:0.8396;stroke-miterlimit:10;}
	
		.st26{fill:url(#SVGID_00000000901064983212362530000013798096074676994436_);stroke:url(#SVGID_00000039118069101764180760000007055132154012025013_);stroke-width:0.6997;stroke-miterlimit:10;}
	
		.st27{fill:url(#SVGID_00000057841459763960170130000014903321370651428009_);stroke:url(#SVGID_00000068645035152746118160000001246987868740322735_);stroke-width:0.6997;stroke-miterlimit:10;}
	
		.st28{fill:url(#SVGID_00000042724050177659010430000014837660279101800365_);stroke:url(#SVGID_00000067946482457491079610000000717859694315387811_);stroke-width:0.6997;stroke-miterlimit:10;}
	
		.st29{fill:url(#SVGID_00000118361260430931548800000009214662182316079805_);stroke:url(#SVGID_00000166634910201525401760000011049003224312454531_);stroke-width:0.6997;stroke-miterlimit:10;}
	
		.st30{fill:url(#SVGID_00000158714988649675837730000017031779741816261526_);stroke:url(#SVGID_00000020370501160058645150000000219068978299944115_);stroke-width:0.6997;stroke-miterlimit:10;}
	.st31{fill:url(#SVGID_00000167398377818296118520000007686718772746190758_);}
	.st32{fill:url(#SVGID_00000115488495985427915590000011267428126532373397_);}
	.st33{fill:#005826;}
	.st34{fill:#BFD730;}
	.st35{fill:#00A651;stroke:#000000;stroke-width:2.8889;stroke-linecap:round;stroke-linejoin:round;stroke-miterlimit:10;}
	.st36{fill:#FFF200;stroke:#000000;stroke-width:2.8889;stroke-linecap:round;stroke-linejoin:round;stroke-miterlimit:10;}
	.st37{fill:#8DC63F;stroke:#000000;stroke-width:2.8889;stroke-linecap:round;stroke-linejoin:round;stroke-miterlimit:10;}
	.st38{fill:#0DB14B;stroke:#000000;stroke-width:2.8889;stroke-linecap:round;stroke-linejoin:round;stroke-miterlimit:10;}
	.st39{fill:#FFFFFF;stroke:#000000;stroke-width:2.8889;stroke-linecap:round;stroke-linejoin:round;stroke-miterlimit:10;}
	.st40{fill:#00A651;}
	.st41{fill:#8DC63F;}
	.st42{fill:#0DB14B;}
	.st43{fill:#034EA2;}
	.st44{fill:#00763F;}
	.st45{fill:url(#SVGID_00000044877559790920650930000016265706698602204828_);}
	.st46{fill:url(#SVGID_00000119836712759051448070000018043427332294519192_);}
	.st47{fill:url(#SVGID_00000167355306717602727910000011687468207309192381_);}
	.st48{fill:url(#SVGID_00000095298635065364861990000013422075303287573900_);}
	.st49{fill:url(#SVGID_00000111163391430358328250000005150424889130724753_);}
	.st50{fill:url(#SVGID_00000076606040102393268550000018249874601360376497_);}
	.st51{fill:url(#SVGID_00000178165408275997934930000015552022894324312481_);}
	.st52{fill:url(#SVGID_00000007417256759694042130000005372058882323935874_);}
	.st53{fill:url(#SVGID_00000118373717669144564740000000475424438479394750_);}
	.st54{fill:url(#SVGID_00000027593999784319290740000000302328416733426309_);}
	.st55{fill:#FFFFFF;stroke:#FFFFFF;stroke-width:4.8073;stroke-linecap:round;stroke-linejoin:round;stroke-miterlimit:10;}
	.st56{fill:url(#SVGID_00000064330951172071544370000010218600005467644304_);}
	.st57{fill:#00A651;stroke:#00A651;stroke-width:4.2345;stroke-linecap:round;stroke-linejoin:round;stroke-miterlimit:10;}
	.st58{fill:#939598;stroke:#939598;stroke-width:4.2345;stroke-linecap:round;stroke-linejoin:round;stroke-miterlimit:10;}
	.st59{fill:#CE181E;stroke:#CE181E;stroke-width:9.3609;stroke-miterlimit:10;}
	
		.st60{fill:none;stroke:url(#SVGID_00000070828304317801902200000001818897531350618292_);stroke-width:3.3359;stroke-miterlimit:10;}
	.st61{fill-rule:evenodd;clip-rule:evenodd;fill:#21A347;}
	.st62{filter:url(#Adobe_OpacityMaskFilter);}
	
		.st63{clip-path:url(#SVGID_00000170256631529301631760000005613673082858466208_);fill-rule:evenodd;clip-rule:evenodd;fill:url(#);}
	
		.st64{opacity:0.49;clip-path:url(#SVGID_00000170256631529301631760000005613673082858466208_);mask:url(#SVGID_00000081626265729196737220000010521685009080454566_);fill-rule:evenodd;clip-rule:evenodd;}
	
		.st65{clip-path:url(#SVGID_00000170256631529301631760000005613673082858466208_);fill-rule:evenodd;clip-rule:evenodd;fill:#007836;}
	.st66{filter:url(#Adobe_OpacityMaskFilter_00000116928514766247106970000014890364420742467477_);}
	
		.st67{opacity:0.49;clip-path:url(#SVGID_00000170256631529301631760000005613673082858466208_);mask:url(#SVGID_00000138534823847187759370000012211132641699697554_);fill-rule:evenodd;clip-rule:evenodd;}
	
		.st68{clip-path:url(#SVGID_00000170256631529301631760000005613673082858466208_);fill-rule:evenodd;clip-rule:evenodd;fill:#95C940;}
	.st69{fill-rule:evenodd;clip-rule:evenodd;fill:#FFFFFF;}
	.st70{fill:#FFC759;}
	.st71{fill:#D1A342;}
	.st72{fill:none;}
	.st73{clip-path:url(#SVGID_00000109002144002211282040000004694660093987990203_);}
	.st74{clip-path:url(#SVGID_00000150821829108311439400000001728916055013763234_);}
	.st75{fill:#9E1D20;}
	.st76{fill:#86888A;}
	.st77{fill:url(#SVGID_00000138558482670457010430000001251150820744476077_);}
	.st78{fill:url(#SVGID_00000159433468704130344200000011228457269029367439_);}
	.st79{fill:url(#SVGID_00000099661681975703797500000007810739434879189411_);}
	.st80{fill:url(#SVGID_00000083047617180678417720000015863683909201938049_);}
	.st81{fill:#F89522;}
	.st82{fill:#C0BFBF;}
	.st83{clip-path:url(#SVGID_00000022537127521973608070000007967216440298392238_);}
	.st84{clip-path:url(#SVGID_00000098182836886486085410000013012076811937126812_);fill:#650F0E;}
	.st85{clip-path:url(#SVGID_00000098182836886486085410000013012076811937126812_);fill:#670E0D;}
	.st86{clip-path:url(#SVGID_00000098182836886486085410000013012076811937126812_);fill:#690C0D;}
	.st87{clip-path:url(#SVGID_00000098182836886486085410000013012076811937126812_);fill:#6C0D0F;}
	.st88{clip-path:url(#SVGID_00000098182836886486085410000013012076811937126812_);fill:#6F0F10;}
	.st89{clip-path:url(#SVGID_00000098182836886486085410000013012076811937126812_);fill:#700F10;}
	.st90{clip-path:url(#SVGID_00000098182836886486085410000013012076811937126812_);fill:#721011;}
	.st91{clip-path:url(#SVGID_00000098182836886486085410000013012076811937126812_);fill:#741012;}
	.st92{clip-path:url(#SVGID_00000098182836886486085410000013012076811937126812_);fill:#761113;}
	.st93{clip-path:url(#SVGID_00000098182836886486085410000013012076811937126812_);fill:#781214;}
	.st94{clip-path:url(#SVGID_00000098182836886486085410000013012076811937126812_);fill:#7A1214;}
	.st95{clip-path:url(#SVGID_00000098182836886486085410000013012076811937126812_);fill:#7B1315;}
	.st96{clip-path:url(#SVGID_00000098182836886486085410000013012076811937126812_);fill:#7D1416;}
	.st97{clip-path:url(#SVGID_00000098182836886486085410000013012076811937126812_);fill:#7F1416;}
	.st98{clip-path:url(#SVGID_00000098182836886486085410000013012076811937126812_);fill:#801517;}
	.st99{clip-path:url(#SVGID_00000098182836886486085410000013012076811937126812_);fill:#811517;}
	.st100{clip-path:url(#SVGID_00000098182836886486085410000013012076811937126812_);fill:#831618;}
	.st101{clip-path:url(#SVGID_00000098182836886486085410000013012076811937126812_);fill:#851619;}
	.st102{clip-path:url(#SVGID_00000098182836886486085410000013012076811937126812_);fill:#871719;}
	.st103{clip-path:url(#SVGID_00000098182836886486085410000013012076811937126812_);fill:#88171A;}
	.st104{clip-path:url(#SVGID_00000098182836886486085410000013012076811937126812_);fill:#89181A;}
	.st105{clip-path:url(#SVGID_00000098182836886486085410000013012076811937126812_);fill:#8B181B;}
	.st106{clip-path:url(#SVGID_00000098182836886486085410000013012076811937126812_);fill:#8D181B;}
	.st107{clip-path:url(#SVGID_00000098182836886486085410000013012076811937126812_);fill:#8F191C;}
	.st108{clip-path:url(#SVGID_00000098182836886486085410000013012076811937126812_);fill:#91191C;}
	.st109{clip-path:url(#SVGID_00000098182836886486085410000013012076811937126812_);fill:#921A1D;}
	.st110{clip-path:url(#SVGID_00000098182836886486085410000013012076811937126812_);fill:#941A1D;}
	.st111{clip-path:url(#SVGID_00000098182836886486085410000013012076811937126812_);fill:#951B1E;}
	.st112{clip-path:url(#SVGID_00000098182836886486085410000013012076811937126812_);fill:#971B1E;}
	.st113{clip-path:url(#SVGID_00000098182836886486085410000013012076811937126812_);fill:#981B1F;}
	.st114{clip-path:url(#SVGID_00000098182836886486085410000013012076811937126812_);fill:#9A1C1F;}
	.st115{clip-path:url(#SVGID_00000098182836886486085410000013012076811937126812_);fill:#9B1C1F;}
	.st116{clip-path:url(#SVGID_00000098182836886486085410000013012076811937126812_);fill:#9D1C20;}
	.st117{clip-path:url(#SVGID_00000098182836886486085410000013012076811937126812_);fill:#9E1D20;}
	.st118{clip-path:url(#SVGID_00000098182836886486085410000013012076811937126812_);fill:#A01D20;}
	.st119{clip-path:url(#SVGID_00000098182836886486085410000013012076811937126812_);fill:#A01D21;}
	.st120{clip-path:url(#SVGID_00000098182836886486085410000013012076811937126812_);fill:#A11D21;}
	.st121{clip-path:url(#SVGID_00000098182836886486085410000013012076811937126812_);fill:#A21E21;}
	.st122{clip-path:url(#SVGID_00000098182836886486085410000013012076811937126812_);fill:#A31E22;}
	.st123{clip-path:url(#SVGID_00000098182836886486085410000013012076811937126812_);fill:#A51E22;}
	.st124{clip-path:url(#SVGID_00000098182836886486085410000013012076811937126812_);fill:#A61E22;}
	.st125{clip-path:url(#SVGID_00000098182836886486085410000013012076811937126812_);fill:#A71E22;}
	.st126{clip-path:url(#SVGID_00000098182836886486085410000013012076811937126812_);fill:#A91E23;}
	.st127{clip-path:url(#SVGID_00000098182836886486085410000013012076811937126812_);fill:#AB1F23;}
	.st128{clip-path:url(#SVGID_00000098182836886486085410000013012076811937126812_);fill:#AC1F23;}
	.st129{clip-path:url(#SVGID_00000098182836886486085410000013012076811937126812_);fill:#AD1F23;}
	.st130{clip-path:url(#SVGID_00000098182836886486085410000013012076811937126812_);fill:#AE1F24;}
	.st131{clip-path:url(#SVGID_00000098182836886486085410000013012076811937126812_);fill:#AF1F24;}
	.st132{clip-path:url(#SVGID_00000098182836886486085410000013012076811937126812_);fill:#B22024;}
	.st133{clip-path:url(#SVGID_00000098182836886486085410000013012076811937126812_);fill:#B32025;}
	.st134{clip-path:url(#SVGID_00000098182836886486085410000013012076811937126812_);fill:#B42025;}
	.st135{clip-path:url(#SVGID_00000098182836886486085410000013012076811937126812_);fill:#B52025;}
	.st136{clip-path:url(#SVGID_00000098182836886486085410000013012076811937126812_);fill:#B72025;}
	.st137{clip-path:url(#SVGID_00000098182836886486085410000013012076811937126812_);fill:#B92025;}
	.st138{clip-path:url(#SVGID_00000098182836886486085410000013012076811937126812_);fill:#BC2026;}
	.st139{clip-path:url(#SVGID_00000098182836886486085410000013012076811937126812_);fill:#BE2126;}
	.st140{clip-path:url(#SVGID_00000098182836886486085410000013012076811937126812_);fill:#BF2126;}
	.st141{clip-path:url(#SVGID_00000098182836886486085410000013012076811937126812_);fill:#C02126;}
	.st142{clip-path:url(#SVGID_00000098182836886486085410000013012076811937126812_);fill:#C12126;}
	.st143{clip-path:url(#SVGID_00000098182836886486085410000013012076811937126812_);fill:#C22126;}
	.st144{clip-path:url(#SVGID_00000098182836886486085410000013012076811937126812_);fill:#C32126;}
	.st145{clip-path:url(#SVGID_00000098182836886486085410000013012076811937126812_);fill:#C42126;}
	.st146{clip-path:url(#SVGID_00000098182836886486085410000013012076811937126812_);fill:#C52126;}
	.st147{clip-path:url(#SVGID_00000098182836886486085410000013012076811937126812_);fill:#C62127;}
	.st148{clip-path:url(#SVGID_00000098182836886486085410000013012076811937126812_);fill:#C72127;}
	.st149{clip-path:url(#SVGID_00000098182836886486085410000013012076811937126812_);fill:#C82127;}
	.st150{clip-path:url(#SVGID_00000098182836886486085410000013012076811937126812_);fill:#C92127;}
	.st151{clip-path:url(#SVGID_00000098182836886486085410000013012076811937126812_);fill:#CA2127;}
	.st152{clip-path:url(#SVGID_00000098182836886486085410000013012076811937126812_);fill:#CA2027;}
	.st153{clip-path:url(#SVGID_00000098182836886486085410000013012076811937126812_);fill:#CC2027;}
	.st154{clip-path:url(#SVGID_00000098182836886486085410000013012076811937126812_);fill:#CD2027;}
	.st155{clip-path:url(#SVGID_00000098182836886486085410000013012076811937126812_);fill:#CE2127;}
	.st156{clip-path:url(#SVGID_00000098182836886486085410000013012076811937126812_);fill:#CF2127;}
	.st157{clip-path:url(#SVGID_00000098182836886486085410000013012076811937126812_);fill:#D02027;}
	.st158{clip-path:url(#SVGID_00000098182836886486085410000013012076811937126812_);fill:#D12027;}
	.st159{clip-path:url(#SVGID_00000098182836886486085410000013012076811937126812_);fill:#D22027;}
	.st160{clip-path:url(#SVGID_00000098182836886486085410000013012076811937126812_);fill:#D32027;}
	.st161{clip-path:url(#SVGID_00000098182836886486085410000013012076811937126812_);fill:#D42027;}
	.st162{clip-path:url(#SVGID_00000098182836886486085410000013012076811937126812_);fill:#D52027;}
	.st163{clip-path:url(#SVGID_00000098182836886486085410000013012076811937126812_);fill:#D62027;}
	.st164{clip-path:url(#SVGID_00000098182836886486085410000013012076811937126812_);fill:#D72027;}
	.st165{clip-path:url(#SVGID_00000098182836886486085410000013012076811937126812_);fill:#D71F27;}
	.st166{clip-path:url(#SVGID_00000039120186897875864090000000714572772176833157_);}
	.st167{clip-path:url(#SVGID_00000163042650906913570210000005360307952911441548_);fill:#650F0E;}
	.st168{clip-path:url(#SVGID_00000163042650906913570210000005360307952911441548_);fill:#670E0D;}
	.st169{clip-path:url(#SVGID_00000163042650906913570210000005360307952911441548_);fill:#690C0D;}
	.st170{clip-path:url(#SVGID_00000163042650906913570210000005360307952911441548_);fill:#6C0D0F;}
	.st171{clip-path:url(#SVGID_00000163042650906913570210000005360307952911441548_);fill:#6F0F10;}
	.st172{clip-path:url(#SVGID_00000163042650906913570210000005360307952911441548_);fill:#700F10;}
	.st173{clip-path:url(#SVGID_00000163042650906913570210000005360307952911441548_);fill:#721011;}
	.st174{clip-path:url(#SVGID_00000163042650906913570210000005360307952911441548_);fill:#741012;}
	.st175{clip-path:url(#SVGID_00000163042650906913570210000005360307952911441548_);fill:#761113;}
	.st176{clip-path:url(#SVGID_00000163042650906913570210000005360307952911441548_);fill:#781214;}
	.st177{clip-path:url(#SVGID_00000163042650906913570210000005360307952911441548_);fill:#7A1214;}
	.st178{clip-path:url(#SVGID_00000163042650906913570210000005360307952911441548_);fill:#7B1315;}
	.st179{clip-path:url(#SVGID_00000163042650906913570210000005360307952911441548_);fill:#7D1416;}
	.st180{clip-path:url(#SVGID_00000163042650906913570210000005360307952911441548_);fill:#7F1416;}
	.st181{clip-path:url(#SVGID_00000163042650906913570210000005360307952911441548_);fill:#801517;}
	.st182{clip-path:url(#SVGID_00000163042650906913570210000005360307952911441548_);fill:#811517;}
	.st183{clip-path:url(#SVGID_00000163042650906913570210000005360307952911441548_);fill:#831618;}
	.st184{clip-path:url(#SVGID_00000163042650906913570210000005360307952911441548_);fill:#851619;}
	.st185{clip-path:url(#SVGID_00000163042650906913570210000005360307952911441548_);fill:#871719;}
	.st186{clip-path:url(#SVGID_00000163042650906913570210000005360307952911441548_);fill:#88171A;}
	.st187{clip-path:url(#SVGID_00000163042650906913570210000005360307952911441548_);fill:#89181A;}
	.st188{clip-path:url(#SVGID_00000163042650906913570210000005360307952911441548_);fill:#8B181B;}
	.st189{clip-path:url(#SVGID_00000163042650906913570210000005360307952911441548_);fill:#8D181B;}
	.st190{clip-path:url(#SVGID_00000163042650906913570210000005360307952911441548_);fill:#8F191C;}
	.st191{clip-path:url(#SVGID_00000163042650906913570210000005360307952911441548_);fill:#91191C;}
	.st192{clip-path:url(#SVGID_00000163042650906913570210000005360307952911441548_);fill:#921A1D;}
	.st193{clip-path:url(#SVGID_00000163042650906913570210000005360307952911441548_);fill:#941A1D;}
	.st194{clip-path:url(#SVGID_00000163042650906913570210000005360307952911441548_);fill:#951B1E;}
	.st195{clip-path:url(#SVGID_00000163042650906913570210000005360307952911441548_);fill:#971B1E;}
	.st196{clip-path:url(#SVGID_00000163042650906913570210000005360307952911441548_);fill:#981B1F;}
	.st197{clip-path:url(#SVGID_00000163042650906913570210000005360307952911441548_);fill:#9A1C1F;}
	.st198{clip-path:url(#SVGID_00000163042650906913570210000005360307952911441548_);fill:#9B1C1F;}
	.st199{clip-path:url(#SVGID_00000163042650906913570210000005360307952911441548_);fill:#9D1C20;}
	.st200{clip-path:url(#SVGID_00000163042650906913570210000005360307952911441548_);fill:#9E1D20;}
	.st201{clip-path:url(#SVGID_00000163042650906913570210000005360307952911441548_);fill:#A01D20;}
	.st202{clip-path:url(#SVGID_00000163042650906913570210000005360307952911441548_);fill:#A01D21;}
	.st203{clip-path:url(#SVGID_00000163042650906913570210000005360307952911441548_);fill:#A11D21;}
	.st204{clip-path:url(#SVGID_00000163042650906913570210000005360307952911441548_);fill:#A21E21;}
	.st205{clip-path:url(#SVGID_00000163042650906913570210000005360307952911441548_);fill:#A31E22;}
	.st206{clip-path:url(#SVGID_00000163042650906913570210000005360307952911441548_);fill:#A51E22;}
	.st207{clip-path:url(#SVGID_00000163042650906913570210000005360307952911441548_);fill:#A61E22;}
	.st208{clip-path:url(#SVGID_00000163042650906913570210000005360307952911441548_);fill:#A71E22;}
	.st209{clip-path:url(#SVGID_00000163042650906913570210000005360307952911441548_);fill:#A91E23;}
	.st210{clip-path:url(#SVGID_00000163042650906913570210000005360307952911441548_);fill:#AB1F23;}
	.st211{clip-path:url(#SVGID_00000163042650906913570210000005360307952911441548_);fill:#AC1F23;}
	.st212{clip-path:url(#SVGID_00000163042650906913570210000005360307952911441548_);fill:#AD1F23;}
	.st213{clip-path:url(#SVGID_00000163042650906913570210000005360307952911441548_);fill:#AE1F24;}
	.st214{clip-path:url(#SVGID_00000163042650906913570210000005360307952911441548_);fill:#AF1F24;}
	.st215{clip-path:url(#SVGID_00000163042650906913570210000005360307952911441548_);fill:#B22024;}
	.st216{clip-path:url(#SVGID_00000163042650906913570210000005360307952911441548_);fill:#B32025;}
	.st217{clip-path:url(#SVGID_00000163042650906913570210000005360307952911441548_);fill:#B42025;}
	.st218{clip-path:url(#SVGID_00000163042650906913570210000005360307952911441548_);fill:#B52025;}
	.st219{clip-path:url(#SVGID_00000163042650906913570210000005360307952911441548_);fill:#B72025;}
	.st220{clip-path:url(#SVGID_00000163042650906913570210000005360307952911441548_);fill:#B92025;}
	.st221{clip-path:url(#SVGID_00000163042650906913570210000005360307952911441548_);fill:#BC2026;}
	.st222{clip-path:url(#SVGID_00000163042650906913570210000005360307952911441548_);fill:#BE2126;}
	.st223{clip-path:url(#SVGID_00000163042650906913570210000005360307952911441548_);fill:#BF2126;}
	.st224{clip-path:url(#SVGID_00000163042650906913570210000005360307952911441548_);fill:#C02126;}
	.st225{clip-path:url(#SVGID_00000163042650906913570210000005360307952911441548_);fill:#C12126;}
	.st226{clip-path:url(#SVGID_00000163042650906913570210000005360307952911441548_);fill:#C22126;}
	.st227{clip-path:url(#SVGID_00000163042650906913570210000005360307952911441548_);fill:#C32126;}
	.st228{clip-path:url(#SVGID_00000163042650906913570210000005360307952911441548_);fill:#C42126;}
	.st229{clip-path:url(#SVGID_00000163042650906913570210000005360307952911441548_);fill:#C52126;}
	.st230{clip-path:url(#SVGID_00000163042650906913570210000005360307952911441548_);fill:#C62127;}
	.st231{clip-path:url(#SVGID_00000163042650906913570210000005360307952911441548_);fill:#C72127;}
	.st232{clip-path:url(#SVGID_00000163042650906913570210000005360307952911441548_);fill:#C82127;}
	.st233{clip-path:url(#SVGID_00000163042650906913570210000005360307952911441548_);fill:#C92127;}
	.st234{clip-path:url(#SVGID_00000163042650906913570210000005360307952911441548_);fill:#CA2127;}
	.st235{clip-path:url(#SVGID_00000163042650906913570210000005360307952911441548_);fill:#CA2027;}
	.st236{clip-path:url(#SVGID_00000163042650906913570210000005360307952911441548_);fill:#CC2027;}
	.st237{clip-path:url(#SVGID_00000163042650906913570210000005360307952911441548_);fill:#CD2027;}
	.st238{clip-path:url(#SVGID_00000163042650906913570210000005360307952911441548_);fill:#CE2127;}
	.st239{clip-path:url(#SVGID_00000163042650906913570210000005360307952911441548_);fill:#CF2127;}
	.st240{clip-path:url(#SVGID_00000163042650906913570210000005360307952911441548_);fill:#D02027;}
	.st241{clip-path:url(#SVGID_00000163042650906913570210000005360307952911441548_);fill:#D12027;}
	.st242{clip-path:url(#SVGID_00000163042650906913570210000005360307952911441548_);fill:#D22027;}
	.st243{clip-path:url(#SVGID_00000163042650906913570210000005360307952911441548_);fill:#D32027;}
	.st244{clip-path:url(#SVGID_00000163042650906913570210000005360307952911441548_);fill:#D42027;}
	.st245{clip-path:url(#SVGID_00000163042650906913570210000005360307952911441548_);fill:#D52027;}
	.st246{clip-path:url(#SVGID_00000163042650906913570210000005360307952911441548_);fill:#D62027;}
	.st247{clip-path:url(#SVGID_00000163042650906913570210000005360307952911441548_);fill:#D72027;}
	.st248{clip-path:url(#SVGID_00000163042650906913570210000005360307952911441548_);fill:#D71F27;}
	.st249{fill:#C3996B;}
	.st250{fill:#F06724;}
	.st251{fill:#231F20;}
	.st252{fill:#AEB3B6;}
	.st253{fill:#EE3537;}
	.st254{fill:#9BA0A3;}
	.st255{fill:#AFB3B5;}
	.st256{fill:#F2EB44;}
	.st257{fill:#FFDD26;}
	.st258{clip-path:url(#XMLID_00000022560174699806167980000011646646746607392144_);}
	.st259{fill:#7E8386;}
	.st260{fill:#A4AAAC;}
	.st261{fill:#131718;}
	.st262{fill:#007843;}
	.st263{fill:#2AB34B;}
	.st264{fill:none;stroke:#FFFFFF;stroke-width:1.4841;stroke-miterlimit:10;}
	.st265{fill:#2E3192;}
	.st266{fill:#154458;}
	.st267{fill:#C72026;}
	.st268{fill:#5FBB46;}
	.st269{fill:#1A5F30;}
	.st270{fill:#293896;}
	.st271{filter:url(#Adobe_OpacityMaskFilter_00000003811882221923001660000002901859453567497620_);}
	.st272{filter:url(#Adobe_OpacityMaskFilter_00000130646152605753103270000009920052309239558794_);}
	
		.st273{mask:url(#SVGID_00000122708884875183293200000003172517378372690082_);fill:url(#SVGID_00000104694015551079151030000009305584318325497023_);}
	.st274{filter:url(#Adobe_OpacityMaskFilter_00000137846325779612825510000000606274746242231428_);}
	.st275{filter:url(#Adobe_OpacityMaskFilter_00000061430680450460242130000014739223022875652227_);}
	
		.st276{mask:url(#SVGID_00000001644649089279619180000003070095597087780226_);fill:url(#SVGID_00000103957671226086614280000004080000942520197560_);}
	.st277{filter:url(#Adobe_OpacityMaskFilter_00000140715539502836528160000017192889297737048766_);}
	.st278{filter:url(#Adobe_OpacityMaskFilter_00000183213327386225946990000001517060378249002684_);}
	
		.st279{mask:url(#SVGID_00000132082217137631556710000001820442632613180544_);fill:url(#SVGID_00000122692660298410037640000002839357805514733185_);}
	.st280{filter:url(#Adobe_OpacityMaskFilter_00000068658702392112562050000004162493468306683796_);}
	.st281{filter:url(#Adobe_OpacityMaskFilter_00000180357731960489732090000004535355392981302444_);}
	
		.st282{mask:url(#SVGID_00000170241047461150894310000014606795287610809477_);fill:url(#SVGID_00000168829771874330804080000017158140468698905517_);}
	.st283{filter:url(#Adobe_OpacityMaskFilter_00000049944492876986131450000010747246975091355275_);}
	.st284{filter:url(#Adobe_OpacityMaskFilter_00000163070974953322976450000010987451273366524297_);}
	
		.st285{mask:url(#SVGID_00000113319442641636914070000004812213633020371121_);fill:url(#SVGID_00000148662391470905298350000009480393472474261122_);}
	.st286{filter:url(#Adobe_OpacityMaskFilter_00000161625661307677736860000009654248133835175299_);}
	.st287{filter:url(#Adobe_OpacityMaskFilter_00000158713087780826562720000009697424331686739357_);}
	
		.st288{mask:url(#SVGID_00000125561623272199403920000014291859408601782434_);fill:url(#SVGID_00000008138633252745798110000002371172750529175203_);}
	.st289{filter:url(#Adobe_OpacityMaskFilter_00000021834987146281078330000008572995257200258949_);}
	.st290{filter:url(#Adobe_OpacityMaskFilter_00000015320134854854854230000015387617974963099043_);}
	
		.st291{mask:url(#SVGID_00000072959871743008733350000007612328708862217867_);fill:url(#SVGID_00000161591208785063836010000008508296693866593920_);}
	.st292{filter:url(#Adobe_OpacityMaskFilter_00000070119625164451054050000015571941027318940051_);}
	.st293{filter:url(#Adobe_OpacityMaskFilter_00000124858164718841385210000015083784785947027896_);}
	
		.st294{mask:url(#SVGID_00000018930543258655004220000014440747533675878806_);fill:url(#SVGID_00000016064100051039781170000015025948074631085244_);}
	.st295{filter:url(#Adobe_OpacityMaskFilter_00000181785032659474143760000008010052672794945210_);}
	.st296{filter:url(#Adobe_OpacityMaskFilter_00000046312585701097286550000012709075129453709461_);}
	
		.st297{mask:url(#SVGID_00000054266191740013346600000011528837402828407474_);fill:url(#SVGID_00000105410419162361479870000010135723733594575246_);}
	.st298{filter:url(#Adobe_OpacityMaskFilter_00000043438135614070106280000010272956460092787351_);}
	.st299{filter:url(#Adobe_OpacityMaskFilter_00000043435262711099886650000002189515307970135450_);}
	
		.st300{mask:url(#SVGID_00000075848041200264688530000005043341786640189367_);fill:url(#SVGID_00000041989015713587714350000016269610654887068823_);}
	.st301{clip-path:url(#SVGID_00000069368805425620723310000005048115139783345067_);fill:#FFF200;}
	
		.st302{clip-path:url(#SVGID_00000069368805425620723310000005048115139783345067_);fill:none;stroke:#FFFFFF;stroke-width:4.8568;stroke-linejoin:round;stroke-miterlimit:10;}
	.st303{clip-path:url(#SVGID_00000069368805425620723310000005048115139783345067_);fill:#ED1C24;}
	.st304{clip-path:url(#SVGID_00000069368805425620723310000005048115139783345067_);fill:#FFFFFF;}
	.st305{clip-path:url(#SVGID_00000069368805425620723310000005048115139783345067_);fill:#2E3192;}
	.st306{clip-path:url(#SVGID_00000069368805425620723310000005048115139783345067_);}
	.st307{clip-path:url(#SVGID_00000069368805425620723310000005048115139783345067_);fill:#F4817F;}
	.st308{clip-path:url(#SVGID_00000069368805425620723310000005048115139783345067_);fill:#56BF98;}
	.st309{clip-path:url(#SVGID_00000069368805425620723310000005048115139783345067_);fill:#570C08;}
	.st310{clip-path:url(#SVGID_00000069368805425620723310000005048115139783345067_);fill:#00A750;}
	
		.st311{fill:#FFFFFF;stroke:url(#SVGID_00000108271263269830154810000011951411638239925691_);stroke-width:7.11;stroke-miterlimit:10;}
	.st312{fill:#ED2224;}
	.st313{fill:#074E28;}
	.st314{fill:#EB2627;}
	.st315{fill:#D1D3D4;}
	.st316{fill:#5F1F16;}
	.st317{fill:#F1E7E6;}
	.st318{fill:#ED2024;}
	.st319{fill:url(#SVGID_00000105397298812871655580000004427263366135293876_);}
	.st320{fill:url(#SVGID_00000177448084335153021500000015619739669148328892_);}
	.st321{fill:#BB2025;}
	.st322{fill:url(#SVGID_00000165949179136102619890000012388076575366627248_);}
	.st323{fill:url(#SVGID_00000172415479962269951380000018352877705806479232_);}
	.st324{fill:none;stroke:#7F8080;stroke-width:0.8623;stroke-miterlimit:10;}
	.st325{fill:url(#SVGID_00000168077569084036602010000012753697205636529315_);}
	.st326{fill:url(#SVGID_00000147929463309877153550000017611548305021632683_);}
	.st327{fill:url(#SVGID_00000159463565195509819340000014680823097395891875_);}
	.st328{fill:url(#SVGID_00000157990689362980819670000006997501154363064508_);}
	.st329{fill:url(#SVGID_00000163042032835361581750000000365901622935995837_);}
	.st330{fill:url(#SVGID_00000148623934928848145760000014655200972886752701_);}
	.st331{fill:url(#SVGID_00000145748277891992640430000008870321411055397780_);}
	.st332{fill:url(#SVGID_00000159438482190698609770000015055409190148441729_);}
	.st333{fill:url(#SVGID_00000153686008089034301580000006930715466658812342_);}
	.st334{fill:url(#SVGID_00000061434760348260013320000010085981714038372287_);}
	.st335{fill:url(#SVGID_00000113331644333664306940000004855850850133429427_);}
	.st336{fill:url(#SVGID_00000144331594689444588100000004412324267979312803_);}
	.st337{fill:url(#SVGID_00000114054339299669566280000014057662911071363248_);}
	.st338{fill:url(#SVGID_00000180330496030996409080000014253613485919566210_);}
	.st339{fill:#E01E26;}
</style>
<g>
	<g>
		<g>
			<path class="st2" d="M114.81,133.02c-0.23,0-0.45-0.01-0.68-0.03l-92.27-7.82c-4.31-0.37-7.68-4.19-7.68-8.71v-35.8
				c0-4.52,3.37-8.34,7.68-8.71l91.95-7.82c0.45-0.04,0.9-0.04,1.35,0l93.17,7.82c4.31,0.36,7.69,4.19,7.69,8.71v35.79
				c0,4.52-3.37,8.34-7.68,8.71L115.48,133C115.26,133.01,115.03,133.02,114.81,133.02z M114.49,64.69c-0.21,0-0.42,0.01-0.63,0.03
				l-91.95,7.82c-4.01,0.34-7.16,3.92-7.16,8.14v35.8c0,4.22,3.14,7.8,7.16,8.14l92.27,7.82c0.41,0.04,0.83,0.04,1.25,0l92.85-7.82
				l0.02,0.28l-0.02-0.28c4.02-0.34,7.16-3.91,7.16-8.14V80.68c0-4.23-3.15-7.8-7.16-8.14l-93.17-7.82
				C114.91,64.7,114.7,64.69,114.49,64.69z"/>
		</g>
		<path class="st2" d="M206.78,123.29l-91.33,7.35c-0.42,0.03-0.85,0.03-1.28,0l-90.76-7.34c-4.12-0.33-7.3-3.78-7.3-7.91V81.76
			c0-4.13,3.17-7.58,7.29-7.91l90.45-7.34c0.42-0.03,0.85-0.03,1.28,0l91.64,7.35c4.12,0.33,7.3,3.77,7.3,7.91v33.61
			C214.08,119.51,210.9,122.96,206.78,123.29z"/>
	</g>
	<g>
		<g>
			<g>
				<text transform="matrix(1 0 0 1 23.9997 110.6599)" class="st4 st5 st6">HOQUE TEA</text>
			</g>
		</g>
		<g>
			<g>
				<text transform="matrix(1 0 0 1 23.0407 109.7019)" class="st7 st5 st6">HOQUE TEA</text>
			</g>
		</g>
		<g>
			<g>
				<text transform="matrix(1 0 0 1 23.0407 109.7019)" class="st3 st5 st6">HOQUE TEA</text>
			</g>
		</g>
	</g>
	<g>
		<path class="st8" d="M132.47,75.41c-0.22,0.31-0.43,0.63-0.68,0.92c-1.07,1.27-2.42,2.17-3.83,2.99c-1.45,0.84-2.93,1.65-4.38,2.5
			c-1.25,0.73-2.41,1.61-3.43,2.64c-1.37,1.39-2.37,3.02-3.04,4.86c-0.27,0.74-0.51,1.51-0.67,2.28c-0.18,0.87-0.26,1.76-0.36,2.65
			c-0.04,0.39-0.05,0.79-0.06,1.19l-1.14-0.67c0.05-0.76,0.12-1.53,0.17-2.29c0.04-0.63,0.11-1.27,0.08-1.91
			c-0.03-0.95-0.71-1.72-1.62-1.99c-0.61-0.18-1.24-0.22-1.87-0.2c-1.06,0.03-2.12,0.06-3.18,0.09c-0.92,0.02-1.83-0.06-2.73-0.21
			c-1.65-0.29-3.14-0.96-4.48-1.97c-1.49-1.13-2.71-2.52-3.83-4c-0.99-1.3-1.94-2.61-2.94-3.9c-0.47-0.61-0.99-1.17-1.49-1.76
			c-0.04-0.05-0.08-0.1-0.11-0.2c0.2,0.03,0.4,0.05,0.6,0.08c1.3,0.19,2.61,0.23,3.92,0.23c1.57,0.01,3.14-0.04,4.7-0.01
			c1.02,0.02,2.04,0.11,3.04,0.24c1.61,0.22,3.14,0.7,4.5,1.64c1.24,0.85,2.17,1.99,2.88,3.31c0.62,1.14,0.99,2.38,1.46,3.59
			c0.26,0.66,0.55,1.31,0.83,1.97c0.02,0.06,0.05,0.11,0.03,0.2c-0.06-0.07-0.12-0.13-0.18-0.2c-0.47-0.49-0.92-1.01-1.43-1.45
			c-0.55-0.46-0.76-1.03-0.78-1.71c-0.01-0.22-0.05-0.44-0.09-0.66v1.6c-0.37-0.28-0.75-0.55-1.11-0.84
			c-0.35-0.27-0.6-0.62-0.68-1.06c-0.07-0.44-0.08-0.88-0.14-1.32c-0.03-0.26-0.11-0.51-0.16-0.76c-0.02,0-0.05,0.01-0.07,0.01
			c0.06,0.76,0.11,1.53,0.18,2.29c0.01,0.11,0.08,0.22,0.12,0.32c-0.02,0.01-0.04,0.02-0.04,0.02c-0.51-0.29-1.04-0.55-1.54-0.86
			c-0.59-0.37-0.76-0.98-0.83-1.62c-0.06-0.51-0.12-1.02-0.19-1.52c-0.02-0.12-0.09-0.23-0.12-0.3c0.02,0.62,0.03,1.26,0.07,1.9
			c0.02,0.37,0.1,0.74,0.29,1.07c0.02,0.03,0.03,0.07,0.07,0.16c-0.14-0.06-0.23-0.1-0.33-0.14c-0.46-0.2-0.93-0.39-1.39-0.6
			c-0.62-0.28-0.9-0.8-1.07-1.42c-0.1-0.36-0.21-0.71-0.33-1.07c-0.03-0.1-0.1-0.19-0.18-0.27c0.31,0.79,0.2,1.71,0.78,2.44
			c-0.05,0.01-0.09,0.02-0.11,0.01c-0.59-0.21-1.17-0.41-1.76-0.63c-0.48-0.17-0.77-0.54-1.01-0.97c-0.16-0.28-0.34-0.55-0.51-0.82
			c-0.02,0.01-0.04,0.03-0.07,0.04c0.26,0.49,0.52,0.97,0.79,1.49c-0.12-0.03-0.21-0.06-0.31-0.07c-0.22-0.04-0.44-0.07-0.65-0.1
			c-0.36-0.05-0.66-0.21-0.9-0.48c-0.07-0.08-0.16-0.16-0.24-0.23c-0.02,0.02-0.04,0.04-0.06,0.06c0.25,0.24,0.5,0.48,0.76,0.73
			c-0.29,0.13-0.6,0.28-0.92,0.42c0,0.01,0.01,0.03,0.01,0.04c0.14-0.04,0.27-0.07,0.41-0.12c0.39-0.14,0.78-0.31,1.21-0.22
			c0.32,0.07,0.63,0.19,0.95,0.3c0.23,0.08,0.46,0.17,0.69,0.26c-0.59,0.32-1.17,0.64-1.75,0.96c0,0.01,0,0.02,0,0.03
			c0.08-0.01,0.17-0.01,0.24-0.04c0.23-0.1,0.46-0.19,0.67-0.32c0.71-0.44,1.44-0.47,2.19-0.13c0.35,0.16,0.72,0.28,1.07,0.42
			c-0.81,0.36-1.61,0.71-2.41,1.07c0.3,0.04,0.58-0.07,0.85-0.17c0.38-0.15,0.75-0.31,1.14-0.45c0.54-0.19,1.08-0.17,1.6,0.07
			c0.43,0.2,0.86,0.41,1.29,0.62c0.06,0.03,0.11,0.07,0.17,0.13c-0.87,0.08-1.47,0.75-2.26,1c0.28,0.02,0.52-0.1,0.77-0.21
			c0.34-0.14,0.68-0.31,1.03-0.44c0.49-0.18,0.97-0.11,1.41,0.15c0.45,0.27,0.87,0.56,1.31,0.85c0.03,0.02,0.05,0.06,0.12,0.13
			c-0.89-0.07-1.49,0.58-2.25,0.77c0,0.02,0.01,0.03,0.01,0.05c0.17-0.04,0.35-0.06,0.52-0.12c0.38-0.14,0.75-0.31,1.14-0.44
			c0.46-0.15,0.89-0.07,1.27,0.23c0.91,0.72,1.71,1.53,2.48,2.4c0.57,0.64,1.06,1.33,1.36,2.18c0.05-0.1,0.1-0.19,0.14-0.29
			c0.37-0.9,0.38-1.81,0.2-2.75c-0.21-1.07-0.76-1.98-1.25-2.92c-0.51-0.98-1.02-1.97-1.46-2.98c-0.54-1.25-0.6-2.57-0.42-3.92
			c0.15-1.09,0.45-2.13,0.73-3.19c0.17-0.65,0.3-1.31,0.43-1.96c0.13-0.61,0.1-1.23,0.06-1.84c-0.01-0.11-0.04-0.21-0.06-0.32
			c0.02-0.01,0.03-0.01,0.05-0.02c0.08,0.14,0.16,0.27,0.22,0.41c0.34,0.73,0.53,1.51,0.67,2.3c0.21,1.24,0.25,2.48,0.19,3.73
			c-0.05,1.04-0.16,2.07-0.44,3.08c-0.13,0.46-0.25,0.93-0.36,1.4c-0.18,0.79,0.03,1.51,0.4,2.2c0.42,0.77,0.85,1.52,1.26,2.29
			c0.36,0.68,0.61,1.41,0.71,2.18c0.01,0.05,0.02,0.11,0.03,0.16c0,0.02,0.02,0.03,0.04,0.07c0.13-0.24,0.25-0.48,0.37-0.71
			c0.83-1.46,1.94-2.68,3.24-3.73c1.56-1.27,3.32-2.22,5.13-3.09c0.66-0.32,0.88-0.54,1.07-1.31c-0.06,0.12-0.13,0.23-0.19,0.35
			c-0.15,0.34-0.4,0.57-0.74,0.72c-0.34,0.15-0.68,0.3-1.02,0.46c-0.04,0.02-0.09,0.03-0.12,0.04c0.16-0.47,0.32-0.93,0.48-1.39
			c-0.02-0.01-0.04-0.02-0.06-0.02c-0.1,0.24-0.23,0.47-0.31,0.72c-0.15,0.51-0.48,0.86-0.94,1.1c-0.41,0.21-0.83,0.41-1.21,0.6
			c0.12-0.67,0.24-1.35,0.37-2.07c-0.23,0.29-0.25,0.61-0.32,0.91c-0.05,0.24-0.09,0.49-0.16,0.73c-0.1,0.33-0.29,0.6-0.58,0.79
			c-0.4,0.28-0.81,0.54-1.25,0.8c0.23-0.72,0.01-1.43,0.03-2.14c-0.03,0-0.05,0-0.08,0c-0.02,0.3-0.05,0.6-0.04,0.9
			c0.01,0.51,0,1.02-0.32,1.45c-0.1,0.14-0.22,0.27-0.35,0.39c-0.25,0.24-0.51,0.46-0.78,0.7c-0.06-0.56-0.12-1.11-0.18-1.65
			c-0.01,0-0.03,0-0.04,0c0,0.26-0.03,0.53,0.01,0.78c0.09,0.57-0.01,1.07-0.41,1.5c-0.22,0.24-0.43,0.49-0.68,0.78
			c-0.08-0.2-0.16-0.37-0.21-0.54c-0.31-0.97-0.45-1.96-0.27-2.97c0.21-1.19,0.75-2.2,1.7-2.98c0.87-0.71,1.88-1.1,2.95-1.37
			c0.94-0.23,1.9-0.36,2.87-0.43c1.04-0.07,2.09-0.14,3.13-0.27c1.27-0.16,2.52-0.44,3.66-1.06c0.21-0.12,0.41-0.26,0.62-0.4
			C132.44,75.38,132.45,75.4,132.47,75.41z"/>
	</g>
</g>
</svg>
