<?xml version="1.0" encoding="utf-8"?>
<!-- Generator: Adobe Illustrator 27.0.0, SVG Export Plug-In . SVG Version: 6.00 Build 0)  -->
<svg version="1.1" id="Layer_1" xmlns="http://www.w3.org/2000/svg" xmlns:xlink="http://www.w3.org/1999/xlink" x="0px" y="0px"
	 viewBox="0 0 226.77 226.77" style="enable-background:new 0 0 226.77 226.77;" xml:space="preserve">
<style type="text/css">
	.st0{fill:#FFF200;}
	.st1{stroke:#000000;stroke-width:5.2476;stroke-miterlimit:10;}
	.st2{fill:#FFFFFF;}
	.st3{fill:#ED1C24;}
	.st4{fill:#50B848;}
	.st5{fill:#007F3E;}
	.st6{fill:#F58220;}
	.st7{fill:#F37021;}
	.st8{fill:#1282C5;}
	.st9{fill:#F7941D;}
	.st10{fill:#FFFFFF;stroke:#FFFFFF;stroke-width:2.321;stroke-linecap:round;stroke-linejoin:round;}
	.st11{fill:#00854A;}
	.st12{fill:#34B34A;}
	.st13{fill:#13421E;}
	.st14{fill:#8CC540;stroke:#FFFFFF;stroke-width:1.2029;stroke-miterlimit:10;}
	.st15{fill:#065643;stroke:#FFFFFF;stroke-width:1.2029;stroke-miterlimit:10;}
	.st16{fill:#FFCB05;}
	.st17{fill:#224D71;}
	.st18{fill:#F8BC1B;}
	.st19{fill:#4CB748;}
	.st20{fill:url(#SVGID_00000031176227727784438790000015513610206491877553_);}
	.st21{fill:none;stroke:#FFFFFF;stroke-width:0.8396;stroke-miterlimit:10;}
	
		.st22{fill:url(#SVGID_00000043450972469545287750000002051019852278961041_);stroke:url(#SVGID_00000044174947118495391840000012566903056442435506_);stroke-width:0.6997;stroke-miterlimit:10;}
	
		.st23{fill:url(#SVGID_00000017491586819041147630000000838916802383294901_);stroke:url(#SVGID_00000064343270870924163040000014660026673965024925_);stroke-width:0.6997;stroke-miterlimit:10;}
	
		.st24{fill:url(#SVGID_00000003086076221047726380000012655426810257621155_);stroke:url(#SVGID_00000118389907178038777650000011974670647870925996_);stroke-width:0.6997;stroke-miterlimit:10;}
	
		.st25{fill:url(#SVGID_00000097475685203798551700000001243794951201566125_);stroke:url(#SVGID_00000041274430597701912080000013021662693126346417_);stroke-width:0.6997;stroke-miterlimit:10;}
	
		.st26{fill:url(#SVGID_00000156554934446164079240000013458254930082640260_);stroke:url(#SVGID_00000006709777914242569200000000604755028810458756_);stroke-width:0.6997;stroke-miterlimit:10;}
	.st27{fill:url(#SVGID_00000019646104322804511610000016263446754721502385_);}
	.st28{fill:url(#SVGID_00000013884543138936600730000002114885713835408570_);}
	.st29{fill:#005826;}
	.st30{fill:#BFD730;}
	.st31{fill:#00A651;stroke:#000000;stroke-width:2.8889;stroke-linecap:round;stroke-linejoin:round;stroke-miterlimit:10;}
	.st32{fill:#FFF200;stroke:#000000;stroke-width:2.8889;stroke-linecap:round;stroke-linejoin:round;stroke-miterlimit:10;}
	.st33{fill:#8DC63F;stroke:#000000;stroke-width:2.8889;stroke-linecap:round;stroke-linejoin:round;stroke-miterlimit:10;}
	.st34{fill:#0DB14B;stroke:#000000;stroke-width:2.8889;stroke-linecap:round;stroke-linejoin:round;stroke-miterlimit:10;}
	.st35{fill:#FFFFFF;stroke:#000000;stroke-width:2.8889;stroke-linecap:round;stroke-linejoin:round;stroke-miterlimit:10;}
	.st36{fill:#00A651;}
	.st37{fill:#8DC63F;}
	.st38{fill:#0DB14B;}
	.st39{fill:#034EA2;}
	.st40{fill:#00763F;}
	.st41{fill:url(#SVGID_00000068641246202580081230000007498236661027310991_);}
	.st42{fill:url(#SVGID_00000096039786946844357240000006048179796264083883_);}
	.st43{fill:url(#SVGID_00000051344342182348065830000004217811602127053200_);}
	.st44{fill:url(#SVGID_00000174584718323251474820000018240779074950119306_);}
	.st45{fill:url(#SVGID_00000114789694146984214030000007873342946853896637_);}
	.st46{fill:url(#SVGID_00000054961157280543131690000005362054710382103973_);}
	.st47{fill:url(#SVGID_00000150086659331793164120000009099711729431770778_);}
	.st48{fill:url(#SVGID_00000085943514156409845380000014143104222431508385_);}
	.st49{fill:url(#SVGID_00000049925758495255811220000012177822141426508729_);}
	.st50{fill:url(#SVGID_00000068669967824507309640000003139405174107906719_);}
	.st51{fill:#FFFFFF;stroke:#FFFFFF;stroke-width:4.8073;stroke-linecap:round;stroke-linejoin:round;stroke-miterlimit:10;}
	.st52{fill:url(#SVGID_00000018928828337877916790000002555291802227966629_);}
	.st53{fill:#00A651;stroke:#00A651;stroke-width:4.2345;stroke-linecap:round;stroke-linejoin:round;stroke-miterlimit:10;}
	.st54{fill:#939598;stroke:#939598;stroke-width:4.2345;stroke-linecap:round;stroke-linejoin:round;stroke-miterlimit:10;}
	.st55{fill:#CE181E;stroke:#CE181E;stroke-width:9.3609;stroke-miterlimit:10;}
	
		.st56{fill:none;stroke:url(#SVGID_00000070813632770621709180000003900993789670646198_);stroke-width:3.3359;stroke-miterlimit:10;}
	.st57{fill-rule:evenodd;clip-rule:evenodd;fill:#21A347;}
	.st58{filter:url(#Adobe_OpacityMaskFilter);}
	
		.st59{clip-path:url(#SVGID_00000176043852958538162710000011218878691373705642_);fill-rule:evenodd;clip-rule:evenodd;fill:url(#);}
	
		.st60{opacity:0.49;clip-path:url(#SVGID_00000176043852958538162710000011218878691373705642_);mask:url(#SVGID_00000158031212528685251100000017367922639552302730_);fill-rule:evenodd;clip-rule:evenodd;}
	
		.st61{clip-path:url(#SVGID_00000176043852958538162710000011218878691373705642_);fill-rule:evenodd;clip-rule:evenodd;fill:#007836;}
	.st62{filter:url(#Adobe_OpacityMaskFilter_00000088118683644391346040000007164524049088099745_);}
	
		.st63{opacity:0.49;clip-path:url(#SVGID_00000176043852958538162710000011218878691373705642_);mask:url(#SVGID_00000128444492856505702360000003379938041187262347_);fill-rule:evenodd;clip-rule:evenodd;}
	
		.st64{clip-path:url(#SVGID_00000176043852958538162710000011218878691373705642_);fill-rule:evenodd;clip-rule:evenodd;fill:#95C940;}
	.st65{fill-rule:evenodd;clip-rule:evenodd;fill:#FFFFFF;}
	.st66{fill:#FFC759;}
	.st67{fill:#D1A342;}
	.st68{fill:none;}
	.st69{clip-path:url(#SVGID_00000165221031174358695860000005747681915352594359_);}
	.st70{clip-path:url(#SVGID_00000040557743370527103120000004069562753053219476_);}
	.st71{fill:#9E1D20;}
	.st72{fill:#86888A;}
	.st73{fill:url(#SVGID_00000170999951775501483150000016382516381962836407_);}
	.st74{fill:url(#SVGID_00000117669472183742601330000010115558141864358788_);}
	.st75{fill:url(#SVGID_00000052786842484073702240000008189727224816567947_);}
	.st76{fill:url(#SVGID_00000020368368583192233830000003619935169019510153_);}
	.st77{fill:#F89522;}
	.st78{fill:#C0BFBF;}
	.st79{clip-path:url(#SVGID_00000062168122388095996910000006378833142931193522_);}
	.st80{clip-path:url(#SVGID_00000049929072756296409380000005946240887957050780_);fill:#650F0E;}
	.st81{clip-path:url(#SVGID_00000049929072756296409380000005946240887957050780_);fill:#670E0D;}
	.st82{clip-path:url(#SVGID_00000049929072756296409380000005946240887957050780_);fill:#690C0D;}
	.st83{clip-path:url(#SVGID_00000049929072756296409380000005946240887957050780_);fill:#6C0D0F;}
	.st84{clip-path:url(#SVGID_00000049929072756296409380000005946240887957050780_);fill:#6F0F10;}
	.st85{clip-path:url(#SVGID_00000049929072756296409380000005946240887957050780_);fill:#700F10;}
	.st86{clip-path:url(#SVGID_00000049929072756296409380000005946240887957050780_);fill:#721011;}
	.st87{clip-path:url(#SVGID_00000049929072756296409380000005946240887957050780_);fill:#741012;}
	.st88{clip-path:url(#SVGID_00000049929072756296409380000005946240887957050780_);fill:#761113;}
	.st89{clip-path:url(#SVGID_00000049929072756296409380000005946240887957050780_);fill:#781214;}
	.st90{clip-path:url(#SVGID_00000049929072756296409380000005946240887957050780_);fill:#7A1214;}
	.st91{clip-path:url(#SVGID_00000049929072756296409380000005946240887957050780_);fill:#7B1315;}
	.st92{clip-path:url(#SVGID_00000049929072756296409380000005946240887957050780_);fill:#7D1416;}
	.st93{clip-path:url(#SVGID_00000049929072756296409380000005946240887957050780_);fill:#7F1416;}
	.st94{clip-path:url(#SVGID_00000049929072756296409380000005946240887957050780_);fill:#801517;}
	.st95{clip-path:url(#SVGID_00000049929072756296409380000005946240887957050780_);fill:#811517;}
	.st96{clip-path:url(#SVGID_00000049929072756296409380000005946240887957050780_);fill:#831618;}
	.st97{clip-path:url(#SVGID_00000049929072756296409380000005946240887957050780_);fill:#851619;}
	.st98{clip-path:url(#SVGID_00000049929072756296409380000005946240887957050780_);fill:#871719;}
	.st99{clip-path:url(#SVGID_00000049929072756296409380000005946240887957050780_);fill:#88171A;}
	.st100{clip-path:url(#SVGID_00000049929072756296409380000005946240887957050780_);fill:#89181A;}
	.st101{clip-path:url(#SVGID_00000049929072756296409380000005946240887957050780_);fill:#8B181B;}
	.st102{clip-path:url(#SVGID_00000049929072756296409380000005946240887957050780_);fill:#8D181B;}
	.st103{clip-path:url(#SVGID_00000049929072756296409380000005946240887957050780_);fill:#8F191C;}
	.st104{clip-path:url(#SVGID_00000049929072756296409380000005946240887957050780_);fill:#91191C;}
	.st105{clip-path:url(#SVGID_00000049929072756296409380000005946240887957050780_);fill:#921A1D;}
	.st106{clip-path:url(#SVGID_00000049929072756296409380000005946240887957050780_);fill:#941A1D;}
	.st107{clip-path:url(#SVGID_00000049929072756296409380000005946240887957050780_);fill:#951B1E;}
	.st108{clip-path:url(#SVGID_00000049929072756296409380000005946240887957050780_);fill:#971B1E;}
	.st109{clip-path:url(#SVGID_00000049929072756296409380000005946240887957050780_);fill:#981B1F;}
	.st110{clip-path:url(#SVGID_00000049929072756296409380000005946240887957050780_);fill:#9A1C1F;}
	.st111{clip-path:url(#SVGID_00000049929072756296409380000005946240887957050780_);fill:#9B1C1F;}
	.st112{clip-path:url(#SVGID_00000049929072756296409380000005946240887957050780_);fill:#9D1C20;}
	.st113{clip-path:url(#SVGID_00000049929072756296409380000005946240887957050780_);fill:#9E1D20;}
	.st114{clip-path:url(#SVGID_00000049929072756296409380000005946240887957050780_);fill:#A01D20;}
	.st115{clip-path:url(#SVGID_00000049929072756296409380000005946240887957050780_);fill:#A01D21;}
	.st116{clip-path:url(#SVGID_00000049929072756296409380000005946240887957050780_);fill:#A11D21;}
	.st117{clip-path:url(#SVGID_00000049929072756296409380000005946240887957050780_);fill:#A21E21;}
	.st118{clip-path:url(#SVGID_00000049929072756296409380000005946240887957050780_);fill:#A31E22;}
	.st119{clip-path:url(#SVGID_00000049929072756296409380000005946240887957050780_);fill:#A51E22;}
	.st120{clip-path:url(#SVGID_00000049929072756296409380000005946240887957050780_);fill:#A61E22;}
	.st121{clip-path:url(#SVGID_00000049929072756296409380000005946240887957050780_);fill:#A71E22;}
	.st122{clip-path:url(#SVGID_00000049929072756296409380000005946240887957050780_);fill:#A91E23;}
	.st123{clip-path:url(#SVGID_00000049929072756296409380000005946240887957050780_);fill:#AB1F23;}
	.st124{clip-path:url(#SVGID_00000049929072756296409380000005946240887957050780_);fill:#AC1F23;}
	.st125{clip-path:url(#SVGID_00000049929072756296409380000005946240887957050780_);fill:#AD1F23;}
	.st126{clip-path:url(#SVGID_00000049929072756296409380000005946240887957050780_);fill:#AE1F24;}
	.st127{clip-path:url(#SVGID_00000049929072756296409380000005946240887957050780_);fill:#AF1F24;}
	.st128{clip-path:url(#SVGID_00000049929072756296409380000005946240887957050780_);fill:#B22024;}
	.st129{clip-path:url(#SVGID_00000049929072756296409380000005946240887957050780_);fill:#B32025;}
	.st130{clip-path:url(#SVGID_00000049929072756296409380000005946240887957050780_);fill:#B42025;}
	.st131{clip-path:url(#SVGID_00000049929072756296409380000005946240887957050780_);fill:#B52025;}
	.st132{clip-path:url(#SVGID_00000049929072756296409380000005946240887957050780_);fill:#B72025;}
	.st133{clip-path:url(#SVGID_00000049929072756296409380000005946240887957050780_);fill:#B92025;}
	.st134{clip-path:url(#SVGID_00000049929072756296409380000005946240887957050780_);fill:#BC2026;}
	.st135{clip-path:url(#SVGID_00000049929072756296409380000005946240887957050780_);fill:#BE2126;}
	.st136{clip-path:url(#SVGID_00000049929072756296409380000005946240887957050780_);fill:#BF2126;}
	.st137{clip-path:url(#SVGID_00000049929072756296409380000005946240887957050780_);fill:#C02126;}
	.st138{clip-path:url(#SVGID_00000049929072756296409380000005946240887957050780_);fill:#C12126;}
	.st139{clip-path:url(#SVGID_00000049929072756296409380000005946240887957050780_);fill:#C22126;}
	.st140{clip-path:url(#SVGID_00000049929072756296409380000005946240887957050780_);fill:#C32126;}
	.st141{clip-path:url(#SVGID_00000049929072756296409380000005946240887957050780_);fill:#C42126;}
	.st142{clip-path:url(#SVGID_00000049929072756296409380000005946240887957050780_);fill:#C52126;}
	.st143{clip-path:url(#SVGID_00000049929072756296409380000005946240887957050780_);fill:#C62127;}
	.st144{clip-path:url(#SVGID_00000049929072756296409380000005946240887957050780_);fill:#C72127;}
	.st145{clip-path:url(#SVGID_00000049929072756296409380000005946240887957050780_);fill:#C82127;}
	.st146{clip-path:url(#SVGID_00000049929072756296409380000005946240887957050780_);fill:#C92127;}
	.st147{clip-path:url(#SVGID_00000049929072756296409380000005946240887957050780_);fill:#CA2127;}
	.st148{clip-path:url(#SVGID_00000049929072756296409380000005946240887957050780_);fill:#CA2027;}
	.st149{clip-path:url(#SVGID_00000049929072756296409380000005946240887957050780_);fill:#CC2027;}
	.st150{clip-path:url(#SVGID_00000049929072756296409380000005946240887957050780_);fill:#CD2027;}
	.st151{clip-path:url(#SVGID_00000049929072756296409380000005946240887957050780_);fill:#CE2127;}
	.st152{clip-path:url(#SVGID_00000049929072756296409380000005946240887957050780_);fill:#CF2127;}
	.st153{clip-path:url(#SVGID_00000049929072756296409380000005946240887957050780_);fill:#D02027;}
	.st154{clip-path:url(#SVGID_00000049929072756296409380000005946240887957050780_);fill:#D12027;}
	.st155{clip-path:url(#SVGID_00000049929072756296409380000005946240887957050780_);fill:#D22027;}
	.st156{clip-path:url(#SVGID_00000049929072756296409380000005946240887957050780_);fill:#D32027;}
	.st157{clip-path:url(#SVGID_00000049929072756296409380000005946240887957050780_);fill:#D42027;}
	.st158{clip-path:url(#SVGID_00000049929072756296409380000005946240887957050780_);fill:#D52027;}
	.st159{clip-path:url(#SVGID_00000049929072756296409380000005946240887957050780_);fill:#D62027;}
	.st160{clip-path:url(#SVGID_00000049929072756296409380000005946240887957050780_);fill:#D72027;}
	.st161{clip-path:url(#SVGID_00000049929072756296409380000005946240887957050780_);fill:#D71F27;}
	.st162{clip-path:url(#SVGID_00000142876224097579391670000002377160226119081902_);}
	.st163{clip-path:url(#SVGID_00000065038568898520537100000017680193697231697318_);fill:#650F0E;}
	.st164{clip-path:url(#SVGID_00000065038568898520537100000017680193697231697318_);fill:#670E0D;}
	.st165{clip-path:url(#SVGID_00000065038568898520537100000017680193697231697318_);fill:#690C0D;}
	.st166{clip-path:url(#SVGID_00000065038568898520537100000017680193697231697318_);fill:#6C0D0F;}
	.st167{clip-path:url(#SVGID_00000065038568898520537100000017680193697231697318_);fill:#6F0F10;}
	.st168{clip-path:url(#SVGID_00000065038568898520537100000017680193697231697318_);fill:#700F10;}
	.st169{clip-path:url(#SVGID_00000065038568898520537100000017680193697231697318_);fill:#721011;}
	.st170{clip-path:url(#SVGID_00000065038568898520537100000017680193697231697318_);fill:#741012;}
	.st171{clip-path:url(#SVGID_00000065038568898520537100000017680193697231697318_);fill:#761113;}
	.st172{clip-path:url(#SVGID_00000065038568898520537100000017680193697231697318_);fill:#781214;}
	.st173{clip-path:url(#SVGID_00000065038568898520537100000017680193697231697318_);fill:#7A1214;}
	.st174{clip-path:url(#SVGID_00000065038568898520537100000017680193697231697318_);fill:#7B1315;}
	.st175{clip-path:url(#SVGID_00000065038568898520537100000017680193697231697318_);fill:#7D1416;}
	.st176{clip-path:url(#SVGID_00000065038568898520537100000017680193697231697318_);fill:#7F1416;}
	.st177{clip-path:url(#SVGID_00000065038568898520537100000017680193697231697318_);fill:#801517;}
	.st178{clip-path:url(#SVGID_00000065038568898520537100000017680193697231697318_);fill:#811517;}
	.st179{clip-path:url(#SVGID_00000065038568898520537100000017680193697231697318_);fill:#831618;}
	.st180{clip-path:url(#SVGID_00000065038568898520537100000017680193697231697318_);fill:#851619;}
	.st181{clip-path:url(#SVGID_00000065038568898520537100000017680193697231697318_);fill:#871719;}
	.st182{clip-path:url(#SVGID_00000065038568898520537100000017680193697231697318_);fill:#88171A;}
	.st183{clip-path:url(#SVGID_00000065038568898520537100000017680193697231697318_);fill:#89181A;}
	.st184{clip-path:url(#SVGID_00000065038568898520537100000017680193697231697318_);fill:#8B181B;}
	.st185{clip-path:url(#SVGID_00000065038568898520537100000017680193697231697318_);fill:#8D181B;}
	.st186{clip-path:url(#SVGID_00000065038568898520537100000017680193697231697318_);fill:#8F191C;}
	.st187{clip-path:url(#SVGID_00000065038568898520537100000017680193697231697318_);fill:#91191C;}
	.st188{clip-path:url(#SVGID_00000065038568898520537100000017680193697231697318_);fill:#921A1D;}
	.st189{clip-path:url(#SVGID_00000065038568898520537100000017680193697231697318_);fill:#941A1D;}
	.st190{clip-path:url(#SVGID_00000065038568898520537100000017680193697231697318_);fill:#951B1E;}
	.st191{clip-path:url(#SVGID_00000065038568898520537100000017680193697231697318_);fill:#971B1E;}
	.st192{clip-path:url(#SVGID_00000065038568898520537100000017680193697231697318_);fill:#981B1F;}
	.st193{clip-path:url(#SVGID_00000065038568898520537100000017680193697231697318_);fill:#9A1C1F;}
	.st194{clip-path:url(#SVGID_00000065038568898520537100000017680193697231697318_);fill:#9B1C1F;}
	.st195{clip-path:url(#SVGID_00000065038568898520537100000017680193697231697318_);fill:#9D1C20;}
	.st196{clip-path:url(#SVGID_00000065038568898520537100000017680193697231697318_);fill:#9E1D20;}
	.st197{clip-path:url(#SVGID_00000065038568898520537100000017680193697231697318_);fill:#A01D20;}
	.st198{clip-path:url(#SVGID_00000065038568898520537100000017680193697231697318_);fill:#A01D21;}
	.st199{clip-path:url(#SVGID_00000065038568898520537100000017680193697231697318_);fill:#A11D21;}
	.st200{clip-path:url(#SVGID_00000065038568898520537100000017680193697231697318_);fill:#A21E21;}
	.st201{clip-path:url(#SVGID_00000065038568898520537100000017680193697231697318_);fill:#A31E22;}
	.st202{clip-path:url(#SVGID_00000065038568898520537100000017680193697231697318_);fill:#A51E22;}
	.st203{clip-path:url(#SVGID_00000065038568898520537100000017680193697231697318_);fill:#A61E22;}
	.st204{clip-path:url(#SVGID_00000065038568898520537100000017680193697231697318_);fill:#A71E22;}
	.st205{clip-path:url(#SVGID_00000065038568898520537100000017680193697231697318_);fill:#A91E23;}
	.st206{clip-path:url(#SVGID_00000065038568898520537100000017680193697231697318_);fill:#AB1F23;}
	.st207{clip-path:url(#SVGID_00000065038568898520537100000017680193697231697318_);fill:#AC1F23;}
	.st208{clip-path:url(#SVGID_00000065038568898520537100000017680193697231697318_);fill:#AD1F23;}
	.st209{clip-path:url(#SVGID_00000065038568898520537100000017680193697231697318_);fill:#AE1F24;}
	.st210{clip-path:url(#SVGID_00000065038568898520537100000017680193697231697318_);fill:#AF1F24;}
	.st211{clip-path:url(#SVGID_00000065038568898520537100000017680193697231697318_);fill:#B22024;}
	.st212{clip-path:url(#SVGID_00000065038568898520537100000017680193697231697318_);fill:#B32025;}
	.st213{clip-path:url(#SVGID_00000065038568898520537100000017680193697231697318_);fill:#B42025;}
	.st214{clip-path:url(#SVGID_00000065038568898520537100000017680193697231697318_);fill:#B52025;}
	.st215{clip-path:url(#SVGID_00000065038568898520537100000017680193697231697318_);fill:#B72025;}
	.st216{clip-path:url(#SVGID_00000065038568898520537100000017680193697231697318_);fill:#B92025;}
	.st217{clip-path:url(#SVGID_00000065038568898520537100000017680193697231697318_);fill:#BC2026;}
	.st218{clip-path:url(#SVGID_00000065038568898520537100000017680193697231697318_);fill:#BE2126;}
	.st219{clip-path:url(#SVGID_00000065038568898520537100000017680193697231697318_);fill:#BF2126;}
	.st220{clip-path:url(#SVGID_00000065038568898520537100000017680193697231697318_);fill:#C02126;}
	.st221{clip-path:url(#SVGID_00000065038568898520537100000017680193697231697318_);fill:#C12126;}
	.st222{clip-path:url(#SVGID_00000065038568898520537100000017680193697231697318_);fill:#C22126;}
	.st223{clip-path:url(#SVGID_00000065038568898520537100000017680193697231697318_);fill:#C32126;}
	.st224{clip-path:url(#SVGID_00000065038568898520537100000017680193697231697318_);fill:#C42126;}
	.st225{clip-path:url(#SVGID_00000065038568898520537100000017680193697231697318_);fill:#C52126;}
	.st226{clip-path:url(#SVGID_00000065038568898520537100000017680193697231697318_);fill:#C62127;}
	.st227{clip-path:url(#SVGID_00000065038568898520537100000017680193697231697318_);fill:#C72127;}
	.st228{clip-path:url(#SVGID_00000065038568898520537100000017680193697231697318_);fill:#C82127;}
	.st229{clip-path:url(#SVGID_00000065038568898520537100000017680193697231697318_);fill:#C92127;}
	.st230{clip-path:url(#SVGID_00000065038568898520537100000017680193697231697318_);fill:#CA2127;}
	.st231{clip-path:url(#SVGID_00000065038568898520537100000017680193697231697318_);fill:#CA2027;}
	.st232{clip-path:url(#SVGID_00000065038568898520537100000017680193697231697318_);fill:#CC2027;}
	.st233{clip-path:url(#SVGID_00000065038568898520537100000017680193697231697318_);fill:#CD2027;}
	.st234{clip-path:url(#SVGID_00000065038568898520537100000017680193697231697318_);fill:#CE2127;}
	.st235{clip-path:url(#SVGID_00000065038568898520537100000017680193697231697318_);fill:#CF2127;}
	.st236{clip-path:url(#SVGID_00000065038568898520537100000017680193697231697318_);fill:#D02027;}
	.st237{clip-path:url(#SVGID_00000065038568898520537100000017680193697231697318_);fill:#D12027;}
	.st238{clip-path:url(#SVGID_00000065038568898520537100000017680193697231697318_);fill:#D22027;}
	.st239{clip-path:url(#SVGID_00000065038568898520537100000017680193697231697318_);fill:#D32027;}
	.st240{clip-path:url(#SVGID_00000065038568898520537100000017680193697231697318_);fill:#D42027;}
	.st241{clip-path:url(#SVGID_00000065038568898520537100000017680193697231697318_);fill:#D52027;}
	.st242{clip-path:url(#SVGID_00000065038568898520537100000017680193697231697318_);fill:#D62027;}
	.st243{clip-path:url(#SVGID_00000065038568898520537100000017680193697231697318_);fill:#D72027;}
	.st244{clip-path:url(#SVGID_00000065038568898520537100000017680193697231697318_);fill:#D71F27;}
	.st245{fill:#C3996B;}
	.st246{fill:#F06724;}
	.st247{fill:#231F20;}
	.st248{fill:#AEB3B6;}
	.st249{fill:#EE3537;}
	.st250{fill:#9BA0A3;}
	.st251{fill:#AFB3B5;}
	.st252{fill:#F2EB44;}
	.st253{fill:#FFDD26;}
	.st254{clip-path:url(#XMLID_00000159465610988071341150000000925661971043592876_);}
	.st255{fill:#7E8386;}
	.st256{fill:#A4AAAC;}
	.st257{fill:#131718;}
	.st258{fill:#007843;}
	.st259{fill:#2AB34B;}
	.st260{fill:none;stroke:#FFFFFF;stroke-width:1.4841;stroke-miterlimit:10;}
	.st261{fill:#2E3192;}
	.st262{fill:#154458;}
	.st263{fill:#C72026;}
	.st264{fill:#5FBB46;}
	.st265{fill:#1A5F30;}
	.st266{fill:#293896;}
	.st267{filter:url(#Adobe_OpacityMaskFilter_00000057143499556881730520000014277397773206070153_);}
	.st268{filter:url(#Adobe_OpacityMaskFilter_00000183945115250357518960000015215072397599449230_);}
	
		.st269{mask:url(#SVGID_00000008142722608079238390000015751268507338427289_);fill:url(#SVGID_00000163040156319921026980000003283450108742407045_);}
	.st270{filter:url(#Adobe_OpacityMaskFilter_00000116198594016857281440000014837120935967519666_);}
	.st271{filter:url(#Adobe_OpacityMaskFilter_00000031918982186613797780000015947312168113862046_);}
	
		.st272{mask:url(#SVGID_00000091712230633764051110000002898419260099838389_);fill:url(#SVGID_00000022519123854893949690000005762882000876223158_);}
	.st273{filter:url(#Adobe_OpacityMaskFilter_00000181060568324478509150000016824394599422459825_);}
	.st274{filter:url(#Adobe_OpacityMaskFilter_00000000907820972774056080000010454834646527016887_);}
	
		.st275{mask:url(#SVGID_00000007388863714609503840000009535197953050757799_);fill:url(#SVGID_00000036950478276208169600000017386303143953112480_);}
	.st276{filter:url(#Adobe_OpacityMaskFilter_00000121253385498211519430000002842213356023347107_);}
	.st277{filter:url(#Adobe_OpacityMaskFilter_00000134221226970489540090000013614391802196660158_);}
	
		.st278{mask:url(#SVGID_00000183233294407425855720000015328981375752374417_);fill:url(#SVGID_00000053525847400677089670000000277172560695027610_);}
	.st279{filter:url(#Adobe_OpacityMaskFilter_00000098196727063085503690000000933449608098886316_);}
	.st280{filter:url(#Adobe_OpacityMaskFilter_00000156581653479811586660000005825490274556264335_);}
	
		.st281{mask:url(#SVGID_00000162330143959845595470000004128779311553189532_);fill:url(#SVGID_00000109721409594736444200000011237671898281805741_);}
	.st282{filter:url(#Adobe_OpacityMaskFilter_00000116937847594231399020000007041409028572707722_);}
	.st283{filter:url(#Adobe_OpacityMaskFilter_00000176022462878781544240000004138948270889031844_);}
	
		.st284{mask:url(#SVGID_00000054951984682600966930000016053642370858361748_);fill:url(#SVGID_00000109024128822475017200000010231992915226685631_);}
	.st285{filter:url(#Adobe_OpacityMaskFilter_00000029742309300007637660000016103730992983101060_);}
	.st286{filter:url(#Adobe_OpacityMaskFilter_00000174591241520184882880000006233468810478355862_);}
	
		.st287{mask:url(#SVGID_00000173135737622274214390000016297265586030077334_);fill:url(#SVGID_00000161616223747683001770000010094419021729300662_);}
	.st288{filter:url(#Adobe_OpacityMaskFilter_00000141456304644319899910000007580268176107055263_);}
	.st289{filter:url(#Adobe_OpacityMaskFilter_00000065063062759234293550000013532322363189537470_);}
	
		.st290{mask:url(#SVGID_00000017486580882317981710000003579033674140865202_);fill:url(#SVGID_00000151535979903320998760000005951774824488431246_);}
	.st291{filter:url(#Adobe_OpacityMaskFilter_00000032632688971892403950000006586386573543118475_);}
	.st292{filter:url(#Adobe_OpacityMaskFilter_00000054267812029908786460000005793140702645940134_);}
	
		.st293{mask:url(#SVGID_00000169544728814552274740000002893120361086472067_);fill:url(#SVGID_00000164479742331221699610000003894410537302880412_);}
	.st294{filter:url(#Adobe_OpacityMaskFilter_00000100380849540212243570000001393876477141689519_);}
	.st295{filter:url(#Adobe_OpacityMaskFilter_00000180354382599849907680000003947325786092710078_);}
	
		.st296{mask:url(#SVGID_00000155824870256424930440000008990167966468446339_);fill:url(#SVGID_00000162328420102420591080000009540788682230402492_);}
	.st297{clip-path:url(#SVGID_00000163757041843119560940000009476082341015203239_);fill:#FFF200;}
	
		.st298{clip-path:url(#SVGID_00000163757041843119560940000009476082341015203239_);fill:none;stroke:#FFFFFF;stroke-width:4.8568;stroke-linejoin:round;stroke-miterlimit:10;}
	.st299{clip-path:url(#SVGID_00000163757041843119560940000009476082341015203239_);fill:#ED1C24;}
	.st300{clip-path:url(#SVGID_00000163757041843119560940000009476082341015203239_);fill:#FFFFFF;}
	.st301{clip-path:url(#SVGID_00000163757041843119560940000009476082341015203239_);fill:#2E3192;}
	.st302{clip-path:url(#SVGID_00000163757041843119560940000009476082341015203239_);}
	.st303{clip-path:url(#SVGID_00000163757041843119560940000009476082341015203239_);fill:#F4817F;}
	.st304{clip-path:url(#SVGID_00000163757041843119560940000009476082341015203239_);fill:#56BF98;}
	.st305{clip-path:url(#SVGID_00000163757041843119560940000009476082341015203239_);fill:#570C08;}
	.st306{clip-path:url(#SVGID_00000163757041843119560940000009476082341015203239_);fill:#00A750;}
	
		.st307{fill:#FFFFFF;stroke:url(#SVGID_00000174568453804956265870000008262260469427244422_);stroke-width:7.11;stroke-miterlimit:10;}
	.st308{fill:#ED2224;}
	.st309{fill:#074E28;}
	.st310{fill:#EB2627;}
	.st311{fill:#D1D3D4;}
	.st312{fill:#5F1F16;}
	.st313{fill:#F1E7E6;}
	.st314{fill:#ED2024;}
	.st315{fill:url(#SVGID_00000087388946956106204370000011900472337232382597_);}
	.st316{fill:url(#SVGID_00000175317553656423031530000008433672784009147069_);}
	.st317{fill:#BB2025;}
	.st318{fill:url(#SVGID_00000142886069645823285370000006427643079735667328_);}
	.st319{fill:url(#SVGID_00000029760419372841026820000018013459346073042841_);}
	.st320{fill:none;stroke:#7F8080;stroke-width:0.8623;stroke-miterlimit:10;}
	.st321{fill:url(#SVGID_00000114760624840654728910000010642820334023278772_);}
	.st322{fill:url(#SVGID_00000108293913307514973510000002114099649143486366_);}
	.st323{fill:url(#SVGID_00000061447212843717903300000009617069030984753334_);}
	.st324{fill:url(#SVGID_00000086650066325183637180000005282549951861465245_);}
	.st325{fill:url(#SVGID_00000062881981874042231580000011999160616089441711_);}
	.st326{fill:url(#SVGID_00000129200063698896045920000007457419811642207396_);}
	.st327{fill:url(#SVGID_00000105422029938563307850000009754793940424738434_);}
	.st328{fill:url(#SVGID_00000096774538254852076650000012734888772818588342_);}
	.st329{fill:url(#SVGID_00000052824115886393864400000013921481806270241208_);}
	.st330{fill:url(#SVGID_00000036939501884125113600000012454658636638377654_);}
	.st331{fill:url(#SVGID_00000068653453134071769770000014093427872500745879_);}
	.st332{fill:url(#SVGID_00000162328121442405347620000011000562280817688764_);}
	.st333{fill:url(#SVGID_00000030459287004608327420000009235343837882785435_);}
	.st334{fill:url(#SVGID_00000168085834650332124530000007965619703334838400_);}
	.st335{fill:#E01E26;}
</style>
<g>
	<g>
		<g>
			<g>
				<path d="M183.91,96.21v-4.63h1.97c0.5,0,0.85,0.04,1.08,0.13c0.23,0.08,0.4,0.23,0.54,0.44c0.13,0.21,0.2,0.46,0.2,0.73
					c0,0.35-0.1,0.64-0.31,0.86c-0.21,0.23-0.51,0.37-0.92,0.43c0.2,0.12,0.37,0.25,0.5,0.39c0.13,0.14,0.31,0.39,0.53,0.75
					l0.57,0.9h-1.12l-0.68-1.01c-0.24-0.36-0.4-0.59-0.49-0.68c-0.09-0.09-0.18-0.16-0.28-0.19c-0.1-0.03-0.26-0.05-0.47-0.05h-0.19
					v1.93H183.91z M184.84,93.54h0.69c0.45,0,0.73-0.02,0.84-0.06c0.11-0.04,0.2-0.1,0.26-0.2c0.06-0.09,0.09-0.21,0.09-0.35
					c0-0.16-0.04-0.28-0.12-0.38c-0.08-0.1-0.2-0.16-0.35-0.18c-0.08-0.01-0.3-0.02-0.68-0.02h-0.73V93.54z"/>
			</g>
		</g>
		<g>
			<path d="M185.99,98.32c-2.44,0-4.42-1.98-4.42-4.42c0-2.44,1.98-4.42,4.42-4.42c2.44,0,4.42,1.98,4.42,4.42
				C190.41,96.33,188.43,98.32,185.99,98.32z M185.99,89.86c-2.23,0-4.04,1.81-4.04,4.04c0,2.23,1.81,4.04,4.04,4.04
				c2.23,0,4.04-1.81,4.04-4.04C190.03,91.67,188.22,89.86,185.99,89.86z"/>
		</g>
	</g>
	<g>
		<g>
			<path class="st266" d="M144.86,83.96c-2.14,4.64-6.15,4.86-9.12,3.91c-4.08-1.31-3.94-5.45-3.78-6.29
				c0.46-2.4,2.27-3.05,3.54-4.1c1.54-1.28,3.06-3.48,1.6-5.88c-0.93-1.52-2.74-2.63-4.95-2.13c-3.29,0.74-3.3,4.04-2.82,5.91
				c0.43,1.68,0.66,2.76,0.19,4.33c-1.23,4.08-5.97,5.8-10.6,3.3c-2.63-1.42-4.23-5.66-1.49-9.09c2.74-3.42,5.34-7.62,0.9-12.07
				c-2.26-2.27-4.27-4.11-5.16-5.62c-0.89,1.51-2.91,3.35-5.16,5.62c-4.43,4.45-1.84,8.65,0.9,12.07c2.74,3.42,1.14,7.66-1.49,9.09
				c-4.62,2.5-9.37,0.78-10.59-3.3c-0.47-1.57-0.24-2.65,0.19-4.33c0.48-1.86,0.46-5.16-2.82-5.91c-2.21-0.5-4.02,0.61-4.95,2.13
				c-1.46,2.4,0.05,4.61,1.6,5.88c1.27,1.05,3.08,1.7,3.54,4.1c0.16,0.84,0.3,4.98-3.78,6.29c-2.96,0.95-6.97,0.73-9.12-3.91
				c-2.36-5.1-1.37-12.72-15.89-3.88c0,0,13.45,3.94,17.51,21.22c8.93-1.72,19.17-2.69,30.06-2.69c10.89,0,21.13,0.98,30.06,2.69
				c4.06-17.28,17.51-21.22,17.51-21.22C146.23,71.24,147.21,78.86,144.86,83.96z M99.12,93.86c-1.04,0-1.89-0.85-1.89-1.89
				c0-1.04,0.85-1.89,1.89-1.89c1.04,0,1.89,0.85,1.89,1.89C101.01,93.01,100.16,93.86,99.12,93.86z M113.17,92.75
				c-1.65,0-2.98-1.33-2.98-2.98c0-1.65,1.33-2.98,2.98-2.98c1.65,0,2.98,1.33,2.98,2.98C116.15,91.42,114.82,92.75,113.17,92.75z
				 M127.22,93.86c-1.04,0-1.89-0.85-1.89-1.89c0-1.04,0.85-1.89,1.89-1.89c1.04,0,1.89,0.85,1.89,1.89
				C129.11,93.01,128.26,93.86,127.22,93.86z"/>
			<path class="st266" d="M82.31,102.53l-0.23-0.99C78.21,85.05,65.43,81.13,65.3,81.09l-2.3-0.67l2.04-1.24
				c6.01-3.66,9.86-4.86,12.49-3.89c2.4,0.89,3.2,3.32,3.97,5.68c0.28,0.86,0.57,1.76,0.94,2.55c2.05,4.44,5.79,4,7.83,3.35
				c3.64-1.17,3.07-5.05,3.06-5.08c-0.28-1.44-1.16-2.05-2.19-2.76c-0.33-0.23-0.66-0.46-0.98-0.72c-2.6-2.15-3.28-4.86-1.83-7.25
				c1.3-2.13,3.69-3.15,6.09-2.61c1.36,0.31,2.43,1.04,3.09,2.12c1.19,1.95,0.7,4.38,0.52,5.08c-0.4,1.57-0.59,2.45-0.2,3.77
				c0.45,1.51,1.5,2.67,2.95,3.27c1.81,0.75,4.05,0.53,6.13-0.6c1.11-0.6,1.98-1.85,2.26-3.25c0.21-1.05,0.19-2.64-1.1-4.25
				c-2.06-2.57-6.35-7.93-0.83-13.47c0.43-0.43,0.85-0.85,1.26-1.25c1.66-1.64,3.09-3.06,3.74-4.16l0.91-1.54l0.91,1.54
				c0.65,1.1,2.08,2.51,3.74,4.15c0.41,0.4,0.83,0.82,1.26,1.26c5.52,5.54,1.23,10.9-0.83,13.47c-1.29,1.61-1.31,3.2-1.1,4.25
				c0.28,1.4,1.15,2.64,2.26,3.25c2.09,1.13,4.32,1.34,6.13,0.6c1.45-0.6,2.5-1.76,2.95-3.27c0.38-1.26,0.23-2.07-0.2-3.76
				c-0.18-0.7-0.67-3.13,0.52-5.08c0.66-1.08,1.73-1.81,3.09-2.12c2.4-0.54,4.78,0.48,6.09,2.61c1.46,2.39,0.77,5.1-1.83,7.25
				c-0.32,0.26-0.66,0.5-0.98,0.72c-1.03,0.71-1.92,1.33-2.19,2.76c-0.01,0.04-0.57,3.91,3.07,5.08c2.04,0.66,5.78,1.1,7.83-3.35
				c0.37-0.79,0.66-1.68,0.94-2.55c0.77-2.36,1.56-4.79,3.97-5.68c2.63-0.97,6.48,0.23,12.49,3.89l2.04,1.24l-2.29,0.67
				c-0.52,0.16-12.92,4.01-16.78,20.45l-0.23,0.99l-1-0.19c-9.1-1.75-19.43-2.68-29.86-2.68c-10.44,0-20.76,0.93-29.86,2.68
				L82.31,102.53z M113.17,97.55c10.19,0,20.29,0.87,29.28,2.53c3.4-12.98,11.9-18.33,15.89-20.18c-4.2-2.35-7.15-3.24-8.8-2.62
				c-1.44,0.53-2.02,2.3-2.69,4.35c-0.3,0.92-0.61,1.88-1.03,2.78v0c-1.97,4.26-5.86,5.93-10.4,4.47c-4.55-1.47-4.78-6.01-4.49-7.49
				c0.44-2.29,1.9-3.29,3.07-4.1c0.3-0.21,0.59-0.41,0.84-0.61c1.02-0.85,2.56-2.56,1.37-4.52c-0.65-1.07-2-2.06-3.82-1.65
				c-0.82,0.19-1.39,0.56-1.76,1.16c-0.6,0.99-0.54,2.43-0.28,3.46c0.46,1.78,0.72,3.09,0.18,4.9c-0.64,2.13-2.12,3.77-4.17,4.62
				c-2.4,0.99-5.3,0.74-7.94-0.69c-1.68-0.91-2.92-2.66-3.33-4.69c-0.43-2.11,0.11-4.24,1.52-5.99c3.19-3.98,4.47-7.16,0.98-10.66
				c-0.43-0.43-0.85-0.85-1.25-1.25c-1.22-1.21-2.33-2.31-3.16-3.31c-0.83,1.01-1.94,2.1-3.17,3.32c-0.4,0.4-0.82,0.81-1.25,1.24
				c-3.49,3.5-2.21,6.68,0.98,10.66c1.41,1.75,1.95,3.88,1.52,5.99c-0.41,2.03-1.65,3.78-3.33,4.69c-2.65,1.43-5.54,1.68-7.95,0.69
				c-2.05-0.85-3.52-2.48-4.16-4.62c-0.54-1.81-0.3-3.06,0.18-4.9c0.26-1.02,0.33-2.47-0.28-3.45c-0.36-0.6-0.94-0.98-1.76-1.16
				c-1.82-0.41-3.16,0.58-3.82,1.65c-1.19,1.96,0.35,3.67,1.37,4.52c0.25,0.21,0.53,0.4,0.84,0.61c1.17,0.81,2.63,1.82,3.07,4.1
				c0.28,1.48,0.07,6.03-4.49,7.49c-4.54,1.46-8.43-0.21-10.4-4.47c-0.42-0.9-0.73-1.86-1.03-2.78c-0.67-2.05-1.25-3.82-2.69-4.35
				c-1.65-0.61-4.61,0.27-8.8,2.62c3.99,1.85,12.49,7.21,15.89,20.18C92.88,98.42,102.98,97.55,113.17,97.55z M127.22,94.91
				c-1.62,0-2.95-1.32-2.95-2.95c0-1.62,1.32-2.95,2.95-2.95s2.95,1.32,2.95,2.95C130.17,93.59,128.84,94.91,127.22,94.91z
				 M127.22,91.13c-0.46,0-0.83,0.37-0.83,0.83c0,0.46,0.37,0.83,0.83,0.83c0.46,0,0.83-0.37,0.83-0.83
				C128.05,91.51,127.68,91.13,127.22,91.13z M99.12,94.91c-1.62,0-2.95-1.32-2.95-2.95c0-1.62,1.32-2.95,2.95-2.95
				c1.62,0,2.95,1.32,2.95,2.95C102.07,93.59,100.74,94.91,99.12,94.91z M99.12,91.13c-0.46,0-0.83,0.37-0.83,0.83
				c0,0.46,0.37,0.83,0.83,0.83c0.46,0,0.83-0.37,0.83-0.83C99.95,91.51,99.58,91.13,99.12,91.13z M113.17,93.81
				c-2.23,0-4.04-1.81-4.04-4.04s1.81-4.04,4.04-4.04c2.23,0,4.04,1.81,4.04,4.04S115.4,93.81,113.17,93.81z M113.17,87.85
				c-1.06,0-1.92,0.86-1.92,1.92s0.86,1.92,1.92,1.92c1.06,0,1.92-0.86,1.92-1.92S114.23,87.85,113.17,87.85z"/>
		</g>
		<g>
			<defs>
				<filter id="Adobe_OpacityMaskFilter" filterUnits="userSpaceOnUse" x="106.5" y="58.16" width="12.36" height="17.74">
					<feFlood  style="flood-color:white;flood-opacity:1" result="back"/>
					<feBlend  in="SourceGraphic" in2="back" mode="normal"/>
				</filter>
			</defs>
			
				<mask maskUnits="userSpaceOnUse" x="106.5" y="58.16" width="12.36" height="17.74" id="SVGID_00000164486172233120715010000002691639764831452330_">
				<g class="st58">
					<defs>
						
							<filter id="Adobe_OpacityMaskFilter_00000145764620392386610900000006597576290446084502_" filterUnits="userSpaceOnUse" x="107.56" y="59.44" width="9.87" height="15.4">
							<feFlood  style="flood-color:white;flood-opacity:1" result="back"/>
							<feBlend  in="SourceGraphic" in2="back" mode="normal"/>
						</filter>
					</defs>
					
						<mask maskUnits="userSpaceOnUse" x="107.56" y="59.44" width="9.87" height="15.4" id="SVGID_00000164486172233120715010000002691639764831452330_">
					</mask>
					
						<linearGradient id="SVGID_00000068637387748183431930000017913799501008896703_" gradientUnits="userSpaceOnUse" x1="112.0453" y1="60.4745" x2="112.9479" y2="71.0797">
						<stop  offset="0" style="stop-color:#FFFFFF"/>
						<stop  offset="0.4103" style="stop-color:#B8B8B8"/>
						<stop  offset="1" style="stop-color:#000000"/>
					</linearGradient>
					
						<path style="mask:url(#SVGID_00000164486172233120715010000002691639764831452330_);fill:url(#SVGID_00000068637387748183431930000017913799501008896703_);" d="
						M113.38,59.44c0,0-5.6,3.73-5.81,7.35c-0.17,2.87,1.34,4.68,4.64,7.61c3.3,2.93-3.46-9.63,5.22-10.38
						C116.84,62.31,114.44,60.18,113.38,59.44z"/>
				</g>
			</mask>
			<g>
				<path class="st266" d="M113.38,59.44c0,0-5.6,3.73-5.81,7.35c-0.17,2.87,1.34,4.68,4.64,7.61c3.3,2.93-3.46-9.63,5.22-10.38
					C116.84,62.31,114.44,60.18,113.38,59.44z"/>
				<path class="st266" d="M112.95,75.9c-0.64,0-1.2-0.49-1.44-0.71c-3.06-2.71-5.2-4.91-4.99-8.46c0.24-4.03,5.66-7.76,6.28-8.17
					l0.6-0.4l0.59,0.42c0.92,0.65,3.7,2.97,4.44,5.1l0.44,1.28l-1.35,0.12c-1.31,0.11-2.24,0.53-2.83,1.26
					c-1.24,1.55-0.85,4.39-0.6,6.27c0.22,1.6,0.36,2.66-0.55,3.15C113.34,75.85,113.14,75.9,112.95,75.9z M113.36,60.75
					c-1.68,1.25-4.6,3.88-4.73,6.1c-0.13,2.16,0.89,3.63,3.36,5.91c-0.3-2.23-0.72-5.53,1.06-7.75c0.68-0.85,1.6-1.44,2.76-1.77
					C115.13,62.33,114.13,61.38,113.36,60.75z"/>
			</g>
			<defs>
				
					<filter id="Adobe_OpacityMaskFilter_00000180334669418761674590000013202935375332575639_" filterUnits="userSpaceOnUse" x="89.04" y="69.71" width="7.81" height="8.02">
					<feFlood  style="flood-color:white;flood-opacity:1" result="back"/>
					<feBlend  in="SourceGraphic" in2="back" mode="normal"/>
				</filter>
			</defs>
			
				<mask maskUnits="userSpaceOnUse" x="89.04" y="69.71" width="7.81" height="8.02" id="SVGID_00000116932679823960372460000015462025049447213482_">
				<g style="filter:url(#Adobe_OpacityMaskFilter_00000180334669418761674590000013202935375332575639_);">
					<defs>
						
							<filter id="Adobe_OpacityMaskFilter_00000088119340429157165570000002183061370854875288_" filterUnits="userSpaceOnUse" x="90.1" y="70.77" width="5.7" height="5.91">
							<feFlood  style="flood-color:white;flood-opacity:1" result="back"/>
							<feBlend  in="SourceGraphic" in2="back" mode="normal"/>
						</filter>
					</defs>
					
						<mask maskUnits="userSpaceOnUse" x="90.1" y="70.77" width="5.7" height="5.91" id="SVGID_00000116932679823960372460000015462025049447213482_">
					</mask>
					
						<linearGradient id="SVGID_00000180350417690802224940000004386697406905770676_" gradientUnits="userSpaceOnUse" x1="92.7431" y1="71.1594" x2="93.0897" y2="75.2323">
						<stop  offset="0" style="stop-color:#FFFFFF"/>
						<stop  offset="0.4103" style="stop-color:#B8B8B8"/>
						<stop  offset="1" style="stop-color:#000000"/>
					</linearGradient>
					
						<path style="mask:url(#SVGID_00000116932679823960372460000015462025049447213482_);fill:url(#SVGID_00000180350417690802224940000004386697406905770676_);" d="
						M92.14,70.95c-0.82,0.24-2.04,1.03-2.04,2.74c0,1.97,1.66,3.13,3.14,2.97C96.78,76.29,96.86,69.59,92.14,70.95z"/>
				</g>
			</mask>
			<g>
				<path class="st266" d="M92.14,70.95c-0.82,0.24-2.04,1.03-2.04,2.74c0,1.97,1.66,3.13,3.14,2.97
					C96.78,76.29,96.86,69.59,92.14,70.95z"/>
				<path class="st266" d="M92.97,77.73c-0.95,0-1.88-0.36-2.61-1.02c-0.85-0.76-1.31-1.84-1.31-3.02c0-2.17,1.51-3.38,2.8-3.75l0,0
					c2.24-0.65,3.49,0.25,4.04,0.84c0.98,1.06,1.25,2.81,0.66,4.36c-0.55,1.46-1.75,2.43-3.2,2.58
					C93.22,77.73,93.09,77.73,92.97,77.73z M92.43,71.97c-0.3,0.09-1.27,0.47-1.27,1.72c0,0.74,0.33,1.2,0.62,1.45
					c0.38,0.34,0.89,0.52,1.36,0.47c0.89-0.09,1.28-0.81,1.44-1.22c0.3-0.79,0.2-1.7-0.24-2.18C93.85,71.69,93.03,71.79,92.43,71.97
					L92.43,71.97z"/>
			</g>
			<defs>
				
					<filter id="Adobe_OpacityMaskFilter_00000059991517452419089350000014319443354067680643_" filterUnits="userSpaceOnUse" x="129.29" y="69.71" width="7.81" height="8.02">
					<feFlood  style="flood-color:white;flood-opacity:1" result="back"/>
					<feBlend  in="SourceGraphic" in2="back" mode="normal"/>
				</filter>
			</defs>
			
				<mask maskUnits="userSpaceOnUse" x="129.29" y="69.71" width="7.81" height="8.02" id="SVGID_00000178205965694580779810000015305659770272747679_">
				<g style="filter:url(#Adobe_OpacityMaskFilter_00000059991517452419089350000014319443354067680643_);">
					<defs>
						
							<filter id="Adobe_OpacityMaskFilter_00000177474074333817904770000000641204506893211829_" filterUnits="userSpaceOnUse" x="130.34" y="70.77" width="5.7" height="5.91">
							<feFlood  style="flood-color:white;flood-opacity:1" result="back"/>
							<feBlend  in="SourceGraphic" in2="back" mode="normal"/>
						</filter>
					</defs>
					
						<mask maskUnits="userSpaceOnUse" x="130.34" y="70.77" width="5.7" height="5.91" id="SVGID_00000178205965694580779810000015305659770272747679_">
					</mask>
					
						<linearGradient id="SVGID_00000134230573738132594900000003561088384106917528_" gradientUnits="userSpaceOnUse" x1="132.9875" y1="71.1594" x2="133.3341" y2="75.2322">
						<stop  offset="0" style="stop-color:#FFFFFF"/>
						<stop  offset="0.4103" style="stop-color:#B8B8B8"/>
						<stop  offset="1" style="stop-color:#000000"/>
					</linearGradient>
					
						<path style="mask:url(#SVGID_00000178205965694580779810000015305659770272747679_);fill:url(#SVGID_00000134230573738132594900000003561088384106917528_);" d="
						M132.38,70.95c-0.82,0.24-2.04,1.03-2.04,2.74c0,1.97,1.66,3.13,3.14,2.97C137.02,76.29,137.1,69.59,132.38,70.95z"/>
				</g>
			</mask>
			<g>
				<path class="st266" d="M132.38,70.95c-0.82,0.24-2.04,1.03-2.04,2.74c0,1.97,1.66,3.13,3.14,2.97
					C137.02,76.29,137.1,69.59,132.38,70.95z"/>
				<path class="st266" d="M133.21,77.73c-0.95,0-1.88-0.36-2.61-1.02c-0.85-0.76-1.31-1.84-1.31-3.02c0-2.17,1.51-3.38,2.8-3.75
					l0,0c2.24-0.65,3.49,0.25,4.04,0.84c0.98,1.06,1.25,2.81,0.66,4.36c-0.55,1.46-1.75,2.43-3.2,2.58
					C133.47,77.73,133.34,77.73,133.21,77.73z M132.67,71.97c-0.3,0.09-1.27,0.47-1.27,1.72c0,0.74,0.33,1.2,0.62,1.46
					c0.38,0.34,0.89,0.52,1.36,0.47c0.89-0.09,1.28-0.81,1.44-1.22c0.3-0.79,0.2-1.7-0.24-2.18
					C134.1,71.69,133.28,71.79,132.67,71.97L132.67,71.97z"/>
			</g>
			<defs>
				
					<filter id="Adobe_OpacityMaskFilter_00000087371302017787160020000002294542886764610221_" filterUnits="userSpaceOnUse" x="146.27" y="76.1" width="14.68" height="12.24">
					<feFlood  style="flood-color:white;flood-opacity:1" result="back"/>
					<feBlend  in="SourceGraphic" in2="back" mode="normal"/>
				</filter>
			</defs>
			
				<mask maskUnits="userSpaceOnUse" x="146.27" y="76.1" width="14.68" height="12.24" id="SVGID_00000129174192467851341880000002016152309172010135_">
				<g style="filter:url(#Adobe_OpacityMaskFilter_00000087371302017787160020000002294542886764610221_);">
					<defs>
						
							<filter id="Adobe_OpacityMaskFilter_00000160155933873668132090000015829249456897746846_" filterUnits="userSpaceOnUse" x="147.32" y="77.15" width="10.65" height="10.13">
							<feFlood  style="flood-color:white;flood-opacity:1" result="back"/>
							<feBlend  in="SourceGraphic" in2="back" mode="normal"/>
						</filter>
					</defs>
					
						<mask maskUnits="userSpaceOnUse" x="147.32" y="77.15" width="10.65" height="10.13" id="SVGID_00000129174192467851341880000002016152309172010135_">
					</mask>
					
						<linearGradient id="SVGID_00000044170616110589515950000000801085442204302225_" gradientUnits="userSpaceOnUse" x1="150.0285" y1="75.9991" x2="152.5836" y2="82.6529">
						<stop  offset="0" style="stop-color:#FFFFFF"/>
						<stop  offset="0.5211" style="stop-color:#B8B8B8"/>
						<stop  offset="0.5219" style="stop-color:#B7B7B7"/>
						<stop  offset="0.5855" style="stop-color:#878787"/>
						<stop  offset="0.6499" style="stop-color:#5E5E5E"/>
						<stop  offset="0.7161" style="stop-color:#3C3C3C"/>
						<stop  offset="0.7833" style="stop-color:#222222"/>
						<stop  offset="0.852" style="stop-color:#0F0F0F"/>
						<stop  offset="0.923" style="stop-color:#040404"/>
						<stop  offset="1" style="stop-color:#000000"/>
					</linearGradient>
					
						<path style="mask:url(#SVGID_00000129174192467851341880000002016152309172010135_);fill:url(#SVGID_00000044170616110589515950000000801085442204302225_);" d="
						M147.49,81.21c0,0,0.64-4.31,3.78-4.04c3.14,0.27,6.71,2.5,6.71,2.5s-5.59,0.85-9.48,7.19
						C147.17,89.01,147.19,82.35,147.49,81.21z"/>
				</g>
			</mask>
			<g>
				<path class="st266" d="M147.49,81.21c0,0,0.64-4.31,3.78-4.04c3.14,0.27,6.71,2.5,6.71,2.5s-5.59,0.85-9.48,7.19
					C147.17,89.01,147.19,82.35,147.49,81.21z"/>
				<path class="st266" d="M148.03,88.34c-0.23,0-0.41-0.06-0.5-0.1c-1.78-0.76-1.19-6.32-1.08-7.18l-0.01,0
					c0.27-1.83,1.64-5.22,4.91-4.94c3.36,0.28,7.02,2.56,7.18,2.66l2.41,1.51l-2.81,0.43c-0.21,0.03-5.17,0.89-8.73,6.69
					C148.94,88.16,148.41,88.34,148.03,88.34z M151.02,78.21c-1.97,0-2.48,3.12-2.48,3.16l-0.02,0.11
					c-0.13,0.51-0.17,2.26-0.08,3.58c2.28-3.16,4.93-4.79,6.83-5.62c-1.19-0.54-2.7-1.1-4.08-1.21
					C151.12,78.21,151.07,78.21,151.02,78.21z"/>
			</g>
			<defs>
				
					<filter id="Adobe_OpacityMaskFilter_00000145042735932433943190000000190838111466843299_" filterUnits="userSpaceOnUse" x="65.57" y="76.06" width="14.64" height="12.24">
					<feFlood  style="flood-color:white;flood-opacity:1" result="back"/>
					<feBlend  in="SourceGraphic" in2="back" mode="normal"/>
				</filter>
			</defs>
			
				<mask maskUnits="userSpaceOnUse" x="65.57" y="76.06" width="14.64" height="12.24" id="SVGID_00000116946324886327600800000000065630447131878582_">
				<g style="filter:url(#Adobe_OpacityMaskFilter_00000145042735932433943190000000190838111466843299_);">
					<defs>
						
							<filter id="Adobe_OpacityMaskFilter_00000046320161438205007340000005365164210617000611_" filterUnits="userSpaceOnUse" x="68.51" y="77.12" width="10.65" height="10.13">
							<feFlood  style="flood-color:white;flood-opacity:1" result="back"/>
							<feBlend  in="SourceGraphic" in2="back" mode="normal"/>
						</filter>
					</defs>
					
						<mask maskUnits="userSpaceOnUse" x="68.51" y="77.12" width="10.65" height="10.13" id="SVGID_00000116946324886327600800000000065630447131878582_">
					</mask>
					
						<linearGradient id="SVGID_00000122710013342863238280000010322468190275804564_" gradientUnits="userSpaceOnUse" x1="-951.4225" y1="75.964" x2="-948.8674" y2="82.6178" gradientTransform="matrix(-1 0 0 1 -874.9705 0)">
						<stop  offset="0" style="stop-color:#FFFFFF"/>
						<stop  offset="0.5211" style="stop-color:#B8B8B8"/>
						<stop  offset="0.5219" style="stop-color:#B7B7B7"/>
						<stop  offset="0.5855" style="stop-color:#878787"/>
						<stop  offset="0.6499" style="stop-color:#5E5E5E"/>
						<stop  offset="0.7161" style="stop-color:#3C3C3C"/>
						<stop  offset="0.7833" style="stop-color:#222222"/>
						<stop  offset="0.852" style="stop-color:#0F0F0F"/>
						<stop  offset="0.923" style="stop-color:#040404"/>
						<stop  offset="1" style="stop-color:#000000"/>
					</linearGradient>
					
						<path style="mask:url(#SVGID_00000116946324886327600800000000065630447131878582_);fill:url(#SVGID_00000122710013342863238280000010322468190275804564_);" d="
						M78.99,81.17c0,0-0.64-4.31-3.78-4.05c-3.14,0.27-6.71,2.5-6.71,2.5s5.59,0.85,9.48,7.19C79.31,88.98,79.29,82.32,78.99,81.17z
						"/>
				</g>
			</mask>
			<g>
				<path class="st266" d="M78.99,81.17c0,0-0.64-4.31-3.78-4.05c-3.14,0.27-6.71,2.5-6.71,2.5s5.59,0.85,9.48,7.19
					C79.31,88.98,79.29,82.32,78.99,81.17z"/>
				<path class="st266" d="M78.45,88.3c-0.39,0-0.91-0.18-1.37-0.93c-3.56-5.8-8.53-6.66-8.74-6.7l-2.78-0.45l2.38-1.49
					c0.15-0.1,3.82-2.37,7.18-2.66c3.26-0.28,4.64,3.11,4.91,4.94l-0.01,0c0.11,0.86,0.69,6.43-1.08,7.18
					C78.86,88.24,78.68,88.3,78.45,88.3z M71.22,79.4c1.9,0.83,4.55,2.47,6.83,5.62c0.09-1.32,0.05-3.07-0.08-3.58l-0.02-0.11
					c-0.01-0.07-0.56-3.33-2.65-3.15C73.92,78.3,72.41,78.85,71.22,79.4z"/>
			</g>
		</g>
	</g>
	<g>
		<g>
			<path class="st266" d="M137.09,116.93c8.01,1.13,15.66,2.21,23.3,3.29c1.93,0.27,3.85,0.71,5.78,0.76
				c1.86,0.04,2.19,0.85,1.9,2.43c-0.72,3.96-1.4,7.92-2.1,11.88c-1.24,7.1-2.46,14.2-3.76,21.28c-0.1,0.55-0.69,1.43-1.07,1.44
				c-3.76,0.11-7.52,0.07-11.58,0.07c1.72-11.75,3.4-23.27,5.12-35.02c-3.82-0.56-7.46-1.11-11.1-1.63
				c-2.12-0.31-4.24-0.57-6.36-0.88c-1.06-0.16-1.66,0.17-2.02,1.27c-0.56,1.72-1.36,3.37-1.97,5.08c-1.04,2.92,0.27,4.79,3.34,4.7
				c2.27-0.07,4.54-0.28,6.8-0.47c2.19-0.18,4.38-0.39,6.55-0.59c1.99,12.04-2.06,20.99-15.1,23.19c-8.73,1.48-16.86-0.67-24.43-5.2
				c-1.6-0.96-2.4-2.01-2.16-3.88c0.11-0.88,0.02-1.78,0.02-2.62c3.28,1.31,6.33,2.73,9.51,3.73c3.51,1.1,7.13,1.32,10.77,0.3
				c5.19-1.45,8.36-6.04,7.82-11.84c-1.83,0.13-3.68,0.21-5.52,0.4c-2.93,0.3-5.71-0.02-8.21-1.71c-2.97-2.01-3.88-5.1-2.44-8.36
				c1.55-3.5,3.14-6.99,4.71-10.49c0.28-0.63,0.52-1.29,0.89-2.2c-0.88-0.06-1.49-0.15-2.1-0.15c-6.9-0.01-13.79,0.05-20.68-0.05
				c-1.74-0.03-2.01,0.66-2.01,2.17c0.04,13.92,0.03,27.85,0.03,41.77c0,0.76,0,1.53,0,2.39c-3.81,0-7.43,0-11.34,0
				c0-15.32,0-30.68,0-46.27c-2.46,0-4.66-0.07-6.84,0.07c-0.38,0.02-0.99,0.92-1.01,1.43c-0.11,2.4-0.05,4.81-0.05,7.22
				c0,11.65,0,23.29,0,34.94c0,0.7,0,1.41,0,2.38c-3.39-0.45-6.6-0.78-9.77-1.31c-11.43-1.89-21.99-6.01-31.68-12.39
				c-1.18-0.78-1.54-1.61-1.63-2.98c-0.16-2.47,0.56-4.48,1.96-6.51c4.65-6.74,9.15-13.59,13.7-20.4c0.43-0.64,0.82-1.31,1.44-2.3
				c-7.1,0-13.93,0-20.72,0c-0.82-1.97-0.12-5.42,1.53-5.42c14.57,0.04,29.15,0.02,43.72,0.02c29.01,0,58.01,0,87.01,0
				c7.35,0,14.69,0,22.03,0c0.64,0,1.28,0,2.11,0c0.05,0.74,0.09,4.4,0.14,5.07c-0.52,0.07-0.9,0.14-1.28,0.15
				c-3.43,0.11-3.43,0.11-3.43,3.62c0,13.4,0,26.81,0,40.21c0,0.77,0,1.55,0,2.44c-3.8,0-7.47,0-11.35,0c0-15.33,0-30.65,0-46.26
				c-2.19,0-4.18,0-6.17,0c-9.17,0-18.35,0.06-27.52-0.05c-2.04-0.02-3.33,0.4-3.78,2.53C137.91,115.04,137.49,115.85,137.09,116.93
				z M70.3,151.56c0-12.3,0-24.25,0-36.52c-0.42,0.46-0.62,0.62-0.75,0.83c-5.83,8.9-11.64,17.82-17.48,26.71
				c-0.59,0.91-0.49,1.48,0.43,2.06C57.95,148.09,64.07,149.72,70.3,151.56z"/>
			<path class="st266" d="M154.75,159.78c-0.83,0-1.68,0-2.53,0c-0.87,0-1.76,0-2.65,0c-0.49,0-0.96-0.21-1.28-0.58
				c-0.32-0.37-0.46-0.86-0.39-1.35l1.66-11.36c-2.72,4.7-7.59,7.76-14.45,8.92c-8.55,1.45-17.16-0.37-25.58-5.42
				c-1.47-0.88-3.38-2.41-2.96-5.55c0.06-0.47,0.04-1,0.02-1.56c-0.01-0.29-0.02-0.57-0.02-0.85c0-0.56,0.28-1.08,0.74-1.4
				c0.46-0.31,1.05-0.38,1.57-0.17c1.03,0.41,2.04,0.83,3.02,1.24c2.18,0.91,4.25,1.78,6.37,2.44c3.39,1.07,6.68,1.16,9.8,0.29
				c3.94-1.1,6.42-4.32,6.63-8.41c-1.22,0.08-2.48,0.16-3.7,0.28c-3.72,0.38-6.77-0.27-9.33-1.99c-3.64-2.46-4.8-6.46-3.04-10.44
				c0.93-2.11,1.88-4.21,2.83-6.31c0.62-1.39,1.25-2.77,1.87-4.16c-2.01,0-4.02,0-6.02,0.01c-4.7,0.01-9.55,0.02-14.33-0.05
				c-0.12,0-0.21,0-0.28,0.01c-0.01,0.11-0.01,0.26-0.01,0.46c0.03,10.81,0.03,21.8,0.03,32.43l0,11.73c0,0.93-0.76,1.69-1.69,1.69
				H89.67c-0.93,0-1.69-0.76-1.69-1.69v-44.59c-0.06,0-0.12,0-0.18,0c-1.49-0.01-2.91-0.02-4.3,0.04c-0.07,1.69-0.06,3.43-0.05,5.11
				c0,0.63,0.01,1.25,0.01,1.88l0,23.29l0,14.03c0,0.49-0.21,0.95-0.58,1.27c-0.37,0.32-0.85,0.47-1.34,0.4
				c-1.08-0.14-2.13-0.27-3.18-0.4c-2.29-0.28-4.45-0.55-6.65-0.91c-11.65-1.93-22.52-6.18-32.33-12.65
				c-1.93-1.27-2.29-2.81-2.39-4.28c-0.18-2.69,0.54-5.09,2.25-7.58c3.42-4.96,6.82-10.07,10.11-15.01
				c1.12-1.68,2.24-3.36,3.36-5.05H35.07c-0.68,0-1.3-0.41-1.56-1.04c-0.79-1.9-0.57-4.66,0.51-6.27c0.64-0.96,1.56-1.49,2.57-1.49
				c0,0,0,0,0.01,0c11.33,0.03,22.85,0.03,33.99,0.02l120.89,0c0.89,0,1.63,0.69,1.69,1.58c0.03,0.41,0.05,1.52,0.08,2.68
				c0.02,0.98,0.04,2.09,0.06,2.38c0.06,0.9-0.59,1.68-1.48,1.79c-0.16,0.02-0.31,0.04-0.45,0.06c-0.33,0.05-0.65,0.09-1,0.1
				c-0.67,0.02-1.35,0.04-1.75,0.09c-0.04,0.41-0.04,1.13-0.04,1.83v42.65c0,0.93-0.76,1.69-1.69,1.69h-11.35
				c-0.93,0-1.69-0.76-1.69-1.69v-44.57h-4.48c-2.42,0-4.85,0-7.27,0.01c-6.64,0.01-13.51,0.02-20.27-0.06
				c-1.85-0.01-1.92,0.33-2.1,1.19c-0.07,0.36-0.18,0.69-0.29,1.02c7.24,1.02,14.21,2.01,21.17,2.99c0.6,0.08,1.2,0.19,1.8,0.29
				c1.32,0.22,2.56,0.43,3.78,0.46c0.5,0.01,2.04,0.05,2.97,1.19c0.84,1.03,0.71,2.34,0.55,3.23c-0.55,2.99-1.08,6.04-1.59,8.99
				l-1.36,7.77c-0.94,5.38-1.91,10.94-2.91,16.41c-0.17,0.96-1.14,2.78-2.68,2.83C159.06,159.77,156.93,159.78,154.75,159.78z
				 M151.51,156.4c0.24,0,0.47,0,0.71,0c2.86,0.01,5.58,0.01,8.29-0.05c0.02-0.04,0.04-0.08,0.04-0.1
				c0.99-5.42,1.96-10.98,2.9-16.35l1.36-7.77c0.52-2.96,1.05-6.01,1.6-9.02c0.03-0.18,0.05-0.31,0.06-0.42
				c-0.09-0.01-0.2-0.02-0.34-0.02c-1.46-0.04-2.89-0.27-4.26-0.51c-0.57-0.1-1.14-0.19-1.71-0.27c-7.64-1.08-15.29-2.16-23.3-3.29
				c-0.51-0.07-0.95-0.37-1.22-0.81c-0.26-0.44-0.31-0.98-0.13-1.46c0.14-0.37,0.28-0.72,0.42-1.04c0.23-0.55,0.43-1.03,0.52-1.46
				c0.82-3.93,4.18-3.89,5.45-3.88c6.74,0.08,13.6,0.07,20.23,0.06c2.43,0,4.85-0.01,7.28-0.01h6.17c0.93,0,1.69,0.76,1.69,1.69
				v44.57h7.97v-40.96c0-4.29,0.67-5.12,4.66-5.29c-0.01-0.27-0.01-0.57-0.02-0.91c-0.01-0.31-0.01-0.64-0.02-0.95l-119.25,0
				c-11.07,0-22.51,0.01-33.77-0.02c-0.23,0.34-0.43,1.2-0.39,2.04h19.37c0.61,0,1.18,0.33,1.48,0.87c0.3,0.54,0.28,1.19-0.04,1.72
				c-0.22,0.35-0.41,0.65-0.58,0.93c-0.32,0.52-0.6,0.97-0.89,1.41c-1.19,1.79-2.39,3.58-3.58,5.37
				c-3.29,4.95-6.7,10.07-10.14,15.05c-1.29,1.87-1.79,3.5-1.66,5.43c0.07,1.01,0.26,1.28,0.87,1.68
				c9.41,6.2,19.85,10.28,31.02,12.13c2.13,0.35,4.26,0.61,6.51,0.89c0.43,0.05,0.86,0.11,1.3,0.16v-35.4c0-0.62,0-1.24-0.01-1.86
				c-0.01-1.78-0.02-3.61,0.06-5.44c0.05-1.15,1.11-2.95,2.6-3.04c1.67-0.11,3.34-0.09,5.1-0.08c0.6,0,1.21,0.01,1.85,0.01
				c0.93,0,1.69,0.76,1.69,1.69v44.58h7.96l0-10.04c0-10.63,0.01-21.62-0.03-32.42c0-1.05,0.11-2.14,0.93-2.96
				c0.84-0.83,2-0.92,2.79-0.9c4.76,0.07,9.6,0.06,14.28,0.05c2.13,0,4.25-0.01,6.38,0c0.48,0,0.92,0.04,1.44,0.09
				c0.24,0.02,0.5,0.04,0.79,0.07c0.54,0.04,1.03,0.33,1.31,0.79c0.29,0.46,0.33,1.03,0.13,1.53c-0.12,0.3-0.23,0.58-0.33,0.83
				c-0.21,0.52-0.39,0.98-0.59,1.43c-0.63,1.4-1.26,2.8-1.89,4.19c-0.94,2.09-1.89,4.19-2.82,6.29c-1.1,2.5-0.45,4.73,1.84,6.28
				c1.89,1.28,4.15,1.73,7.09,1.43c0.97-0.1,1.95-0.17,2.9-0.23c-0.73-0.37-1.23-0.86-1.55-1.31c-0.67-0.92-1.27-2.54-0.37-5.07
				c0.29-0.8,0.61-1.58,0.92-2.33c0.39-0.93,0.75-1.81,1.04-2.71c0.6-1.84,1.98-2.7,3.88-2.42c1.13,0.17,2.27,0.32,3.4,0.47
				c0.99,0.13,1.97,0.27,2.95,0.41c2.6,0.38,5.2,0.76,7.87,1.16l3.24,0.48c0.92,0.14,1.56,0.99,1.43,1.92L151.51,156.4z
				 M109.94,144.54c-0.01,0.11-0.02,0.22-0.04,0.32c-0.12,0.92,0.04,1.43,1.35,2.21c7.82,4.68,15.43,6.31,23.28,4.99
				c10.64-1.8,15.32-8.42,13.94-19.7c-0.14,0.01-0.28,0.03-0.43,0.04c-1.49,0.14-3.03,0.28-4.55,0.41l-1.25,0.1
				c-1.48,0.12-3,0.25-4.52,0.32c0.16,0.23,0.27,0.51,0.3,0.81c0.61,6.57-2.94,11.92-9.05,13.63c-3.76,1.05-7.71,0.94-11.73-0.32
				c-2.27-0.71-4.4-1.6-6.66-2.55C110.37,144.73,110.16,144.64,109.94,144.54z M149.92,128.85c0.82,0,1.53,0.59,1.67,1.42
				c0.06,0.38,0.12,0.75,0.17,1.12l1.01-6.89l-1.57-0.23c-2.66-0.39-5.26-0.78-7.85-1.15c-0.97-0.14-1.95-0.27-2.92-0.4
				c-1.15-0.16-2.3-0.31-3.44-0.48c-0.05-0.01-0.09-0.01-0.12-0.01c-0.01,0.04-0.03,0.08-0.05,0.14c-0.33,1.02-0.74,2-1.13,2.95
				c-0.31,0.75-0.6,1.45-0.86,2.17c-0.31,0.86-0.34,1.59-0.08,1.94c0.25,0.34,0.89,0.53,1.78,0.5c1.8-0.05,3.66-0.21,5.46-0.36
				l1.26-0.1c1.5-0.12,3.03-0.26,4.5-0.4c0.68-0.06,1.36-0.13,2.03-0.19C149.82,128.85,149.87,128.85,149.92,128.85z M166.7,122.74
				L166.7,122.74L166.7,122.74z M136.92,122.07C136.92,122.07,136.92,122.07,136.92,122.07L136.92,122.07z M82.94,113.47
				C82.94,113.47,82.94,113.47,82.94,113.47C82.94,113.47,82.94,113.47,82.94,113.47z M83.49,113.45L83.49,113.45L83.49,113.45z
				 M83.51,113.28C83.51,113.28,83.51,113.29,83.51,113.28C83.51,113.29,83.51,113.28,83.51,113.28z M70.3,153.25
				c-0.16,0-0.32-0.02-0.48-0.07l-1.48-0.43c-5.67-1.66-11.54-3.38-16.75-6.67c-0.86-0.54-1.36-1.19-1.53-1.97
				c-0.25-1.17,0.38-2.13,0.59-2.45c3.93-5.98,7.84-11.97,11.76-17.96c1.91-2.92,3.81-5.83,5.72-8.75c0.17-0.26,0.36-0.46,0.56-0.67
				c0.09-0.1,0.21-0.22,0.36-0.38c0.47-0.52,1.21-0.69,1.86-0.44c0.65,0.25,1.08,0.88,1.08,1.58v36.52c0,0.53-0.25,1.04-0.68,1.35
				C71.02,153.14,70.67,153.25,70.3,153.25z M53.6,143.34c4.57,2.84,9.65,4.39,15.02,5.96V120.4c-1.12,1.71-2.24,3.43-3.36,5.15
				C61.37,131.48,57.49,137.41,53.6,143.34z"/>
		</g>
		<g>
			<path class="st266" d="M60,160.85c-0.02,2.99-2.64,5.51-5.64,5.43c-3.07-0.08-5.47-2.59-5.42-5.66c0.06-3.02,2.41-5.26,5.55-5.26
				C57.68,155.36,60.03,157.7,60,160.85z"/>
			<path class="st266" d="M54.49,167.98c-0.06,0-0.12,0-0.18,0c-4.04-0.11-7.14-3.35-7.06-7.39c0.08-3.94,3.19-6.91,7.24-6.92
				c2.01,0,3.85,0.74,5.18,2.08c1.32,1.33,2.04,3.14,2.02,5.11c-0.01,1.87-0.82,3.72-2.21,5.06
				C58.13,167.23,56.32,167.98,54.49,167.98z M54.49,157.05c-2.19,0-3.82,1.51-3.86,3.6c-0.04,2.15,1.62,3.89,3.77,3.94
				c0.98,0.02,1.97-0.37,2.72-1.1c0.74-0.72,1.17-1.69,1.18-2.66l0,0c0.01-1.06-0.36-2.02-1.04-2.7
				C56.58,157.44,55.59,157.05,54.49,157.05z"/>
		</g>
	</g>
	<g>
		<g>
			<g>
				<path class="st0" d="M144.86,81.29c-2.14,4.64-6.15,4.86-9.12,3.91c-4.08-1.31-3.94-5.45-3.78-6.29c0.46-2.4,2.27-3.05,3.54-4.1
					c1.54-1.28,3.06-3.48,1.6-5.88c-0.93-1.52-2.74-2.63-4.95-2.13c-3.29,0.74-3.3,4.04-2.82,5.91c0.43,1.68,0.66,2.76,0.19,4.33
					c-1.23,4.08-5.97,5.8-10.6,3.3c-2.63-1.42-4.23-5.66-1.49-9.09c2.74-3.42,5.34-7.62,0.9-12.07c-2.26-2.27-4.27-4.11-5.16-5.62
					c-0.89,1.51-2.91,3.35-5.16,5.62c-4.43,4.45-1.84,8.65,0.9,12.07c2.74,3.42,1.14,7.66-1.49,9.09c-4.62,2.5-9.37,0.78-10.59-3.3
					c-0.47-1.57-0.24-2.65,0.19-4.33c0.48-1.86,0.46-5.16-2.82-5.91c-2.21-0.5-4.02,0.61-4.95,2.13c-1.46,2.4,0.05,4.61,1.6,5.88
					c1.27,1.05,3.08,1.7,3.54,4.1c0.16,0.84,0.3,4.98-3.78,6.29c-2.96,0.95-6.97,0.73-9.12-3.91c-2.36-5.1-1.37-12.72-15.89-3.88
					c0,0,13.45,3.94,17.51,21.22c8.93-1.72,19.17-2.69,30.06-2.69c10.89,0,21.13,0.98,30.06,2.69
					c4.06-17.28,17.51-21.22,17.51-21.22C146.23,68.57,147.21,76.19,144.86,81.29z M99.12,91.19c-1.04,0-1.89-0.85-1.89-1.89
					c0-1.04,0.85-1.89,1.89-1.89c1.04,0,1.89,0.85,1.89,1.89C101.01,90.34,100.16,91.19,99.12,91.19z M113.17,90.08
					c-1.65,0-2.98-1.33-2.98-2.98c0-1.65,1.33-2.98,2.98-2.98c1.65,0,2.98,1.33,2.98,2.98C116.15,88.75,114.82,90.08,113.17,90.08z
					 M127.22,91.19c-1.04,0-1.89-0.85-1.89-1.89c0-1.04,0.85-1.89,1.89-1.89c1.04,0,1.89,0.85,1.89,1.89
					C129.11,90.34,128.26,91.19,127.22,91.19z"/>
			</g>
			<g>
				<defs>
					
						<filter id="Adobe_OpacityMaskFilter_00000081629588699398761700000007039427890941024667_" filterUnits="userSpaceOnUse" x="107.56" y="56.77" width="9.87" height="15.4">
						<feFlood  style="flood-color:white;flood-opacity:1" result="back"/>
						<feBlend  in="SourceGraphic" in2="back" mode="normal"/>
					</filter>
				</defs>
				
					<mask maskUnits="userSpaceOnUse" x="107.56" y="56.77" width="9.87" height="15.4" id="SVGID_00000071553385821019817340000006342249182959633808_">
					<g style="filter:url(#Adobe_OpacityMaskFilter_00000081629588699398761700000007039427890941024667_);">
						<defs>
							
								<filter id="Adobe_OpacityMaskFilter_00000101794843451548520620000014609726710893333417_" filterUnits="userSpaceOnUse" x="107.56" y="56.77" width="9.87" height="15.4">
								<feFlood  style="flood-color:white;flood-opacity:1" result="back"/>
								<feBlend  in="SourceGraphic" in2="back" mode="normal"/>
							</filter>
						</defs>
						
							<mask maskUnits="userSpaceOnUse" x="107.56" y="56.77" width="9.87" height="15.4" id="SVGID_00000071553385821019817340000006342249182959633808_">
						</mask>
						
							<linearGradient id="SVGID_00000175280107288175762670000015877705244809797520_" gradientUnits="userSpaceOnUse" x1="112.0453" y1="57.8043" x2="112.9479" y2="68.4095">
							<stop  offset="0" style="stop-color:#FFFFFF"/>
							<stop  offset="0.4103" style="stop-color:#B8B8B8"/>
							<stop  offset="1" style="stop-color:#000000"/>
						</linearGradient>
						
							<path style="mask:url(#SVGID_00000071553385821019817340000006342249182959633808_);fill:url(#SVGID_00000175280107288175762670000015877705244809797520_);" d="
							M113.38,56.77c0,0-5.6,3.73-5.81,7.35c-0.17,2.87,1.34,4.68,4.64,7.61c3.3,2.93-3.46-9.63,5.22-10.38
							C116.84,59.64,114.44,57.51,113.38,56.77z"/>
					</g>
				</mask>
				<g>
					<path class="st3" d="M113.38,56.77c0,0-5.6,3.73-5.81,7.35c-0.17,2.87,1.34,4.68,4.64,7.61c3.3,2.93-3.46-9.63,5.22-10.38
						C116.84,59.64,114.44,57.51,113.38,56.77z"/>
				</g>
				<defs>
					
						<filter id="Adobe_OpacityMaskFilter_00000168075374078986742680000018057677807643749003_" filterUnits="userSpaceOnUse" x="90.1" y="68.1" width="5.7" height="5.91">
						<feFlood  style="flood-color:white;flood-opacity:1" result="back"/>
						<feBlend  in="SourceGraphic" in2="back" mode="normal"/>
					</filter>
				</defs>
				
					<mask maskUnits="userSpaceOnUse" x="90.1" y="68.1" width="5.7" height="5.91" id="SVGID_00000081612673509093997390000011888806957842557853_">
					<g style="filter:url(#Adobe_OpacityMaskFilter_00000168075374078986742680000018057677807643749003_);">
						<defs>
							
								<filter id="Adobe_OpacityMaskFilter_00000106825728462590973940000013134026065635848120_" filterUnits="userSpaceOnUse" x="90.1" y="68.1" width="5.7" height="5.91">
								<feFlood  style="flood-color:white;flood-opacity:1" result="back"/>
								<feBlend  in="SourceGraphic" in2="back" mode="normal"/>
							</filter>
						</defs>
						
							<mask maskUnits="userSpaceOnUse" x="90.1" y="68.1" width="5.7" height="5.91" id="SVGID_00000081612673509093997390000011888806957842557853_">
						</mask>
						
							<linearGradient id="SVGID_00000170245507208219336540000002830195263482860697_" gradientUnits="userSpaceOnUse" x1="92.7431" y1="68.4892" x2="93.0897" y2="72.562">
							<stop  offset="0" style="stop-color:#FFFFFF"/>
							<stop  offset="0.4103" style="stop-color:#B8B8B8"/>
							<stop  offset="1" style="stop-color:#000000"/>
						</linearGradient>
						
							<path style="mask:url(#SVGID_00000081612673509093997390000011888806957842557853_);fill:url(#SVGID_00000170245507208219336540000002830195263482860697_);" d="
							M92.14,68.28c-0.82,0.24-2.04,1.03-2.04,2.74c0,1.97,1.66,3.13,3.14,2.97C96.78,73.62,96.86,66.92,92.14,68.28z"/>
					</g>
				</mask>
				<g>
					<path class="st3" d="M92.14,68.28c-0.82,0.24-2.04,1.03-2.04,2.74c0,1.97,1.66,3.13,3.14,2.97
						C96.78,73.62,96.86,66.92,92.14,68.28z"/>
				</g>
				<defs>
					
						<filter id="Adobe_OpacityMaskFilter_00000062907455768679150440000008340640437729297299_" filterUnits="userSpaceOnUse" x="130.34" y="68.1" width="5.7" height="5.91">
						<feFlood  style="flood-color:white;flood-opacity:1" result="back"/>
						<feBlend  in="SourceGraphic" in2="back" mode="normal"/>
					</filter>
				</defs>
				
					<mask maskUnits="userSpaceOnUse" x="130.34" y="68.1" width="5.7" height="5.91" id="SVGID_00000136406045422510007300000001858247766740679091_">
					<g style="filter:url(#Adobe_OpacityMaskFilter_00000062907455768679150440000008340640437729297299_);">
						<defs>
							
								<filter id="Adobe_OpacityMaskFilter_00000083089827738751940180000008189493966615290023_" filterUnits="userSpaceOnUse" x="130.34" y="68.1" width="5.7" height="5.91">
								<feFlood  style="flood-color:white;flood-opacity:1" result="back"/>
								<feBlend  in="SourceGraphic" in2="back" mode="normal"/>
							</filter>
						</defs>
						
							<mask maskUnits="userSpaceOnUse" x="130.34" y="68.1" width="5.7" height="5.91" id="SVGID_00000136406045422510007300000001858247766740679091_">
						</mask>
						
							<linearGradient id="SVGID_00000096753405768904140220000018261203352051182738_" gradientUnits="userSpaceOnUse" x1="132.9875" y1="68.4892" x2="133.3341" y2="72.562">
							<stop  offset="0" style="stop-color:#FFFFFF"/>
							<stop  offset="0.4103" style="stop-color:#B8B8B8"/>
							<stop  offset="1" style="stop-color:#000000"/>
						</linearGradient>
						
							<path style="mask:url(#SVGID_00000136406045422510007300000001858247766740679091_);fill:url(#SVGID_00000096753405768904140220000018261203352051182738_);" d="
							M132.38,68.28c-0.82,0.24-2.04,1.03-2.04,2.74c0,1.97,1.66,3.13,3.14,2.97C137.02,73.62,137.1,66.92,132.38,68.28z"/>
					</g>
				</mask>
				<g>
					<path class="st3" d="M132.38,68.28c-0.82,0.24-2.04,1.03-2.04,2.74c0,1.97,1.66,3.13,3.14,2.97
						C137.02,73.62,137.1,66.92,132.38,68.28z"/>
				</g>
				<defs>
					
						<filter id="Adobe_OpacityMaskFilter_00000082336082396180078080000003932611291669277362_" filterUnits="userSpaceOnUse" x="147.32" y="74.48" width="10.65" height="10.13">
						<feFlood  style="flood-color:white;flood-opacity:1" result="back"/>
						<feBlend  in="SourceGraphic" in2="back" mode="normal"/>
					</filter>
				</defs>
				
					<mask maskUnits="userSpaceOnUse" x="147.32" y="74.48" width="10.65" height="10.13" id="SVGID_00000052075784769996444700000018297434472759476401_">
					<g style="filter:url(#Adobe_OpacityMaskFilter_00000082336082396180078080000003932611291669277362_);">
						<defs>
							
								<filter id="Adobe_OpacityMaskFilter_00000130621625968980324150000015358881589874185630_" filterUnits="userSpaceOnUse" x="147.32" y="74.48" width="10.65" height="10.13">
								<feFlood  style="flood-color:white;flood-opacity:1" result="back"/>
								<feBlend  in="SourceGraphic" in2="back" mode="normal"/>
							</filter>
						</defs>
						
							<mask maskUnits="userSpaceOnUse" x="147.32" y="74.48" width="10.65" height="10.13" id="SVGID_00000052075784769996444700000018297434472759476401_">
						</mask>
						
							<linearGradient id="SVGID_00000095318159115009326250000002165766854428409266_" gradientUnits="userSpaceOnUse" x1="150.0285" y1="73.3288" x2="152.5836" y2="79.9827">
							<stop  offset="0" style="stop-color:#FFFFFF"/>
							<stop  offset="0.5211" style="stop-color:#B8B8B8"/>
							<stop  offset="0.5219" style="stop-color:#B7B7B7"/>
							<stop  offset="0.5855" style="stop-color:#878787"/>
							<stop  offset="0.6499" style="stop-color:#5E5E5E"/>
							<stop  offset="0.7161" style="stop-color:#3C3C3C"/>
							<stop  offset="0.7833" style="stop-color:#222222"/>
							<stop  offset="0.852" style="stop-color:#0F0F0F"/>
							<stop  offset="0.923" style="stop-color:#040404"/>
							<stop  offset="1" style="stop-color:#000000"/>
						</linearGradient>
						
							<path style="mask:url(#SVGID_00000052075784769996444700000018297434472759476401_);fill:url(#SVGID_00000095318159115009326250000002165766854428409266_);" d="
							M147.49,78.54c0,0,0.64-4.31,3.78-4.04c3.14,0.27,6.71,2.5,6.71,2.5s-5.59,0.85-9.48,7.19
							C147.17,86.34,147.19,79.68,147.49,78.54z"/>
					</g>
				</mask>
				<g>
					<path class="st3" d="M147.49,78.54c0,0,0.64-4.31,3.78-4.04c3.14,0.27,6.71,2.5,6.71,2.5s-5.59,0.85-9.48,7.19
						C147.17,86.34,147.19,79.68,147.49,78.54z"/>
				</g>
				<defs>
					
						<filter id="Adobe_OpacityMaskFilter_00000093898860989098433870000016120993651460575140_" filterUnits="userSpaceOnUse" x="68.51" y="74.45" width="10.65" height="10.13">
						<feFlood  style="flood-color:white;flood-opacity:1" result="back"/>
						<feBlend  in="SourceGraphic" in2="back" mode="normal"/>
					</filter>
				</defs>
				
					<mask maskUnits="userSpaceOnUse" x="68.51" y="74.45" width="10.65" height="10.13" id="SVGID_00000007421985765298644230000012235044245667752833_">
					<g style="filter:url(#Adobe_OpacityMaskFilter_00000093898860989098433870000016120993651460575140_);">
						<defs>
							
								<filter id="Adobe_OpacityMaskFilter_00000106114566218938971060000015538110359744198037_" filterUnits="userSpaceOnUse" x="68.51" y="74.45" width="10.65" height="10.13">
								<feFlood  style="flood-color:white;flood-opacity:1" result="back"/>
								<feBlend  in="SourceGraphic" in2="back" mode="normal"/>
							</filter>
						</defs>
						
							<mask maskUnits="userSpaceOnUse" x="68.51" y="74.45" width="10.65" height="10.13" id="SVGID_00000007421985765298644230000012235044245667752833_">
						</mask>
						
							<linearGradient id="SVGID_00000168825458357827838150000006904224604633242005_" gradientUnits="userSpaceOnUse" x1="-951.4225" y1="73.2937" x2="-948.8674" y2="79.9476" gradientTransform="matrix(-1 0 0 1 -874.9705 0)">
							<stop  offset="0" style="stop-color:#FFFFFF"/>
							<stop  offset="0.5211" style="stop-color:#B8B8B8"/>
							<stop  offset="0.5219" style="stop-color:#B7B7B7"/>
							<stop  offset="0.5855" style="stop-color:#878787"/>
							<stop  offset="0.6499" style="stop-color:#5E5E5E"/>
							<stop  offset="0.7161" style="stop-color:#3C3C3C"/>
							<stop  offset="0.7833" style="stop-color:#222222"/>
							<stop  offset="0.852" style="stop-color:#0F0F0F"/>
							<stop  offset="0.923" style="stop-color:#040404"/>
							<stop  offset="1" style="stop-color:#000000"/>
						</linearGradient>
						
							<path style="mask:url(#SVGID_00000007421985765298644230000012235044245667752833_);fill:url(#SVGID_00000168825458357827838150000006904224604633242005_);" d="
							M78.99,78.5c0,0-0.64-4.31-3.78-4.05c-3.14,0.27-6.71,2.5-6.71,2.5s5.59,0.85,9.48,7.19C79.31,86.31,79.29,79.65,78.99,78.5z"
							/>
					</g>
				</mask>
				<g>
					<path class="st3" d="M78.99,78.5c0,0-0.64-4.31-3.78-4.05c-3.14,0.27-6.71,2.5-6.71,2.5s5.59,0.85,9.48,7.19
						C79.31,86.31,79.29,79.65,78.99,78.5z"/>
				</g>
			</g>
		</g>
		<g>
			<g>
				<path class="st0" d="M137.09,113.06c8.01,1.13,15.66,2.21,23.3,3.29c1.93,0.27,3.85,0.71,5.78,0.76
					c1.86,0.04,2.19,0.85,1.9,2.43c-0.72,3.96-1.4,7.92-2.1,11.88c-1.24,7.1-2.46,14.2-3.76,21.28c-0.1,0.55-0.69,1.43-1.07,1.44
					c-3.76,0.11-7.52,0.07-11.58,0.07c1.72-11.75,3.4-23.27,5.12-35.02c-3.82-0.56-7.46-1.11-11.1-1.63
					c-2.12-0.31-4.24-0.57-6.36-0.88c-1.06-0.16-1.66,0.17-2.02,1.27c-0.56,1.72-1.36,3.37-1.97,5.08c-1.04,2.92,0.27,4.79,3.34,4.7
					c2.27-0.07,4.54-0.28,6.8-0.47c2.19-0.18,4.38-0.39,6.55-0.59c1.99,12.04-2.06,20.99-15.1,23.19
					c-8.73,1.48-16.86-0.67-24.43-5.2c-1.6-0.96-2.4-2.01-2.16-3.88c0.11-0.88,0.02-1.78,0.02-2.62c3.28,1.31,6.33,2.73,9.51,3.73
					c3.51,1.1,7.13,1.32,10.77,0.3c5.19-1.45,8.36-6.04,7.82-11.84c-1.83,0.13-3.68,0.21-5.52,0.4c-2.93,0.3-5.71-0.02-8.21-1.71
					c-2.97-2.01-3.88-5.1-2.44-8.36c1.55-3.5,3.14-6.99,4.71-10.49c0.28-0.63,0.52-1.29,0.89-2.2c-0.88-0.06-1.49-0.15-2.1-0.15
					c-6.9-0.01-13.79,0.05-20.68-0.05c-1.74-0.03-2.01,0.66-2.01,2.17c0.04,13.92,0.03,27.85,0.03,41.77c0,0.76,0,1.53,0,2.39
					c-3.81,0-7.43,0-11.34,0c0-15.32,0-30.68,0-46.27c-2.46,0-4.66-0.07-6.84,0.07c-0.38,0.02-0.99,0.92-1.01,1.43
					c-0.11,2.4-0.05,4.81-0.05,7.22c0,11.65,0,23.29,0,34.94c0,0.7,0,1.41,0,2.38c-3.39-0.45-6.6-0.78-9.77-1.31
					c-11.43-1.89-21.99-6.01-31.68-12.39c-1.18-0.78-1.54-1.61-1.63-2.98c-0.16-2.47,0.56-4.48,1.96-6.51
					c4.65-6.74,9.15-13.59,13.7-20.4c0.43-0.64,0.82-1.31,1.44-2.3c-7.1,0-13.93,0-20.72,0c-0.82-1.97-0.12-5.42,1.53-5.42
					c14.57,0.04,29.15,0.02,43.72,0.02c29.01,0,58.01,0,87.01,0c7.35,0,14.69,0,22.03,0c0.64,0,1.28,0,2.11,0
					c0.05,0.74,0.09,4.4,0.14,5.07c-0.52,0.07-0.9,0.14-1.28,0.15c-3.43,0.11-3.43,0.11-3.43,3.62c0,13.4,0,26.81,0,40.21
					c0,0.77,0,1.55,0,2.44c-3.8,0-7.47,0-11.35,0c0-15.33,0-30.65,0-46.26c-2.19,0-4.18,0-6.17,0c-9.17,0-18.35,0.06-27.52-0.05
					c-2.04-0.02-3.33,0.4-3.78,2.53C137.91,111.18,137.49,111.99,137.09,113.06z M70.3,147.7c0-12.3,0-24.25,0-36.52
					c-0.42,0.46-0.62,0.62-0.75,0.83c-5.83,8.9-11.64,17.82-17.48,26.71c-0.59,0.91-0.49,1.48,0.43,2.06
					C57.95,144.22,64.07,145.85,70.3,147.7z"/>
				<path class="st0" d="M154.73,155.91c-0.83,0-1.67,0-2.52,0c-0.87,0-1.75,0-2.65,0c-0.49,0-0.96-0.21-1.28-0.58
					c-0.32-0.37-0.46-0.86-0.39-1.35l1.66-11.36c-2.72,4.7-7.59,7.76-14.45,8.92c-8.55,1.45-17.16-0.38-25.58-5.42
					c-1.47-0.88-3.38-2.41-2.96-5.55c0.06-0.47,0.04-1,0.02-1.56c-0.01-0.29-0.02-0.57-0.02-0.85c0-0.56,0.28-1.08,0.74-1.4
					c0.46-0.31,1.05-0.38,1.57-0.17c1.03,0.41,2.04,0.83,3.02,1.24c2.18,0.91,4.25,1.78,6.37,2.44c3.38,1.07,6.68,1.16,9.8,0.29
					c3.94-1.1,6.42-4.32,6.63-8.41c-1.22,0.08-2.48,0.16-3.7,0.28c-3.72,0.39-6.77-0.27-9.33-1.99c-3.64-2.46-4.8-6.46-3.04-10.44
					c0.93-2.11,1.88-4.21,2.83-6.31c0.62-1.39,1.25-2.77,1.87-4.16c-2.01,0-4.02,0-6.02,0.01c-4.7,0.01-9.55,0.02-14.33-0.05
					c-0.12,0-0.21,0-0.28,0.01c-0.01,0.11-0.01,0.26-0.01,0.46c0.03,10.81,0.03,21.8,0.03,32.43l0,11.73c0,0.93-0.76,1.69-1.69,1.69
					H89.67c-0.93,0-1.69-0.76-1.69-1.69v-44.59c-0.06,0-0.12,0-0.18,0c-1.49-0.01-2.92-0.02-4.3,0.04
					c-0.07,1.69-0.06,3.43-0.05,5.11c0,0.63,0.01,1.25,0.01,1.88l0,23.29l0,14.03c0,0.49-0.21,0.95-0.58,1.27
					c-0.37,0.32-0.85,0.47-1.34,0.4c-1.07-0.14-2.13-0.27-3.17-0.4c-2.29-0.28-4.46-0.55-6.66-0.91
					c-11.65-1.93-22.52-6.18-32.33-12.65c-1.93-1.27-2.29-2.81-2.39-4.28c-0.18-2.69,0.54-5.09,2.25-7.58
					c3.42-4.96,6.82-10.06,10.1-15c1.12-1.68,2.24-3.37,3.37-5.05H35.07c-0.68,0-1.3-0.41-1.56-1.04c-0.79-1.9-0.57-4.66,0.51-6.27
					c0.64-0.96,1.55-1.51,2.58-1.49c11.33,0.03,22.85,0.03,33.99,0.02l120.89,0c0.89,0,1.63,0.69,1.69,1.58
					c0.03,0.41,0.05,1.52,0.08,2.68c0.02,0.98,0.04,2.09,0.06,2.38c0.06,0.9-0.59,1.68-1.48,1.79c-0.16,0.02-0.31,0.04-0.45,0.06
					c-0.33,0.05-0.65,0.09-1,0.1c-0.67,0.02-1.35,0.04-1.75,0.09c-0.04,0.41-0.04,1.13-0.04,1.83v42.65c0,0.93-0.76,1.69-1.69,1.69
					h-11.35c-0.93,0-1.69-0.76-1.69-1.69v-44.57h-4.48c-2.43,0-4.85,0-7.28,0.01c-6.64,0.01-13.51,0.02-20.27-0.06
					c-1.83-0.02-1.92,0.33-2.1,1.19c-0.07,0.36-0.18,0.69-0.29,1.02c7.24,1.02,14.21,2.01,21.17,2.99c0.6,0.08,1.2,0.19,1.8,0.29
					c1.32,0.22,2.56,0.43,3.78,0.46c0.5,0.01,2.04,0.05,2.97,1.19c0.84,1.03,0.71,2.34,0.55,3.23c-0.55,2.99-1.08,6.04-1.59,8.98
					l-1.36,7.76c-0.94,5.38-1.91,10.95-2.91,16.42c-0.17,0.96-1.14,2.78-2.68,2.83C159.05,155.9,156.92,155.91,154.73,155.91z
					 M151.51,152.53c0.23,0,0.47,0,0.7,0c2.87,0.01,5.59,0.01,8.3-0.05c0.02-0.04,0.04-0.08,0.04-0.1
					c0.99-5.43,1.96-10.99,2.9-16.36l1.36-7.76c0.51-2.95,1.05-6.01,1.6-9.01c0.03-0.18,0.05-0.31,0.06-0.41
					c-0.08-0.01-0.2-0.02-0.34-0.02c-1.46-0.04-2.89-0.27-4.26-0.51c-0.57-0.1-1.14-0.19-1.71-0.27c-7.64-1.08-15.29-2.16-23.3-3.29
					c-0.51-0.07-0.95-0.37-1.22-0.81s-0.31-0.98-0.13-1.46c0.14-0.37,0.28-0.72,0.42-1.04c0.23-0.55,0.43-1.03,0.52-1.46
					c0.82-3.93,4.18-3.89,5.45-3.88c6.74,0.08,13.59,0.07,20.22,0.06c2.43,0,4.85-0.01,7.28-0.01h6.17c0.93,0,1.69,0.76,1.69,1.69
					v44.57h7.97v-40.96c0-4.29,0.66-5.12,4.66-5.29c-0.01-0.27-0.01-0.57-0.02-0.91c-0.01-0.31-0.01-0.64-0.02-0.95l-119.25,0
					c-11.07,0-22.51,0.01-33.77-0.02c-0.23,0.34-0.43,1.2-0.39,2.04h19.37c0.61,0,1.18,0.33,1.48,0.87c0.3,0.54,0.28,1.19-0.04,1.72
					c-0.22,0.35-0.41,0.65-0.58,0.93c-0.32,0.52-0.6,0.97-0.89,1.41c-1.2,1.79-2.39,3.58-3.58,5.37
					c-3.29,4.95-6.7,10.07-10.14,15.05c-1.29,1.87-1.79,3.5-1.66,5.43c0.07,1.01,0.26,1.28,0.87,1.68
					c9.41,6.2,19.85,10.28,31.02,12.13c2.13,0.35,4.26,0.62,6.52,0.89c0.43,0.05,0.85,0.11,1.29,0.16v-35.4c0-0.62,0-1.24-0.01-1.86
					c-0.01-1.78-0.02-3.61,0.06-5.44c0.05-1.15,1.11-2.95,2.6-3.04c1.67-0.11,3.34-0.09,5.1-0.08c0.6,0,1.21,0.01,1.84,0.01
					c0.93,0,1.69,0.76,1.69,1.69v44.58h7.96l0-10.04c0-10.63,0.01-21.62-0.03-32.42c0-1.05,0.11-2.14,0.93-2.96
					c0.84-0.83,2-0.92,2.79-0.9c4.76,0.07,9.6,0.06,14.28,0.05c2.13,0,4.25-0.01,6.38,0c0.48,0,0.92,0.04,1.44,0.09
					c0.24,0.02,0.5,0.04,0.79,0.07c0.54,0.04,1.03,0.33,1.31,0.79c0.29,0.46,0.33,1.03,0.13,1.53c-0.12,0.3-0.23,0.58-0.33,0.83
					c-0.21,0.52-0.39,0.98-0.59,1.43c-0.63,1.4-1.26,2.8-1.89,4.19c-0.94,2.09-1.89,4.19-2.82,6.29c-1.1,2.5-0.45,4.73,1.84,6.28
					c1.89,1.28,4.15,1.73,7.09,1.43c0.97-0.1,1.95-0.17,2.9-0.23c-0.73-0.37-1.23-0.86-1.55-1.31c-0.67-0.92-1.27-2.54-0.37-5.07
					c0.29-0.8,0.61-1.58,0.92-2.33c0.39-0.93,0.75-1.81,1.04-2.71c0.6-1.84,1.98-2.7,3.88-2.42c1.13,0.17,2.27,0.32,3.4,0.47
					c0.99,0.13,1.97,0.27,2.95,0.41c2.57,0.37,5.13,0.75,7.76,1.14l3.34,0.49c0.92,0.14,1.56,0.99,1.43,1.92L151.51,152.53z
					 M109.94,140.68c-0.01,0.11-0.02,0.22-0.04,0.32c-0.12,0.92,0.04,1.43,1.35,2.21c7.82,4.68,15.43,6.31,23.28,4.99
					c10.64-1.8,15.32-8.42,13.94-19.7c-0.14,0.01-0.29,0.03-0.43,0.04c-1.49,0.14-3.02,0.28-4.55,0.41l-1.25,0.1
					c-1.48,0.12-3,0.25-4.52,0.32c0.16,0.23,0.27,0.51,0.3,0.81c0.61,6.57-2.94,11.92-9.05,13.63c-3.76,1.05-7.71,0.95-11.73-0.32
					c-2.27-0.71-4.4-1.6-6.66-2.55C110.37,140.86,110.16,140.77,109.94,140.68z M149.92,124.98c0.82,0,1.53,0.59,1.67,1.42
					c0.06,0.38,0.12,0.75,0.17,1.12l1.01-6.89l-1.68-0.25c-2.62-0.39-5.18-0.77-7.75-1.14c-0.97-0.14-1.95-0.27-2.92-0.4
					c-1.15-0.16-2.3-0.31-3.44-0.48c-0.05-0.01-0.09-0.01-0.12-0.01c-0.01,0.04-0.03,0.08-0.05,0.14c-0.33,1.02-0.74,2-1.13,2.95
					c-0.31,0.75-0.6,1.45-0.86,2.17c-0.31,0.86-0.34,1.59-0.08,1.94c0.25,0.34,0.9,0.53,1.78,0.5c1.8-0.05,3.66-0.21,5.46-0.36
					l1.26-0.1c1.5-0.12,3.02-0.26,4.5-0.4c0.68-0.06,1.36-0.13,2.03-0.19C149.82,124.98,149.87,124.98,149.92,124.98z M166.7,118.87
					L166.7,118.87L166.7,118.87z M136.92,118.21L136.92,118.21L136.92,118.21z M82.94,109.6C82.94,109.6,82.94,109.6,82.94,109.6
					C82.94,109.6,82.94,109.6,82.94,109.6z M83.51,109.42C83.51,109.42,83.51,109.42,83.51,109.42
					C83.51,109.42,83.51,109.42,83.51,109.42z M70.3,149.39c-0.16,0-0.32-0.02-0.48-0.07l-1.48-0.43
					c-5.67-1.66-11.54-3.38-16.75-6.67c-0.86-0.54-1.36-1.19-1.53-1.97c-0.25-1.17,0.38-2.14,0.59-2.45
					c3.92-5.97,7.83-11.96,11.75-17.94c1.91-2.92,3.82-5.85,5.73-8.77c0.17-0.26,0.36-0.46,0.56-0.67c0.09-0.1,0.21-0.22,0.36-0.38
					c0.47-0.52,1.21-0.69,1.86-0.44c0.65,0.25,1.08,0.88,1.08,1.58v36.52c0,0.53-0.25,1.04-0.68,1.35
					C71.02,149.27,70.67,149.39,70.3,149.39z M53.6,139.47c4.57,2.84,9.65,4.39,15.02,5.96v-28.91c-1.12,1.72-2.25,3.44-3.38,5.17
					C61.36,127.62,57.49,133.55,53.6,139.47z"/>
			</g>
			<g>
				<path class="st0" d="M60,156.98c-0.02,2.99-2.64,5.51-5.64,5.43c-3.07-0.08-5.47-2.59-5.42-5.66c0.06-3.02,2.41-5.26,5.55-5.26
					C57.68,151.49,60.03,153.83,60,156.98z"/>
				<path class="st0" d="M54.49,164.11c-0.06,0-0.12,0-0.18,0c-4.04-0.11-7.14-3.35-7.06-7.39c0.08-3.94,3.19-6.91,7.24-6.92
					c2.01,0,3.85,0.74,5.18,2.08c1.32,1.33,2.04,3.14,2.02,5.11c-0.01,1.87-0.82,3.72-2.21,5.06
					C58.13,163.37,56.32,164.11,54.49,164.11z M54.49,153.18c-2.19,0-3.82,1.51-3.86,3.6c-0.04,2.15,1.62,3.89,3.77,3.94
					c0.98,0.02,1.97-0.37,2.72-1.1c0.74-0.72,1.17-1.69,1.18-2.66l0,0c0.01-1.06-0.36-2.02-1.04-2.7
					C56.58,153.57,55.59,153.18,54.49,153.18z"/>
			</g>
		</g>
		<g>
			<g>
				<path class="st3" d="M137.09,113.06c8.01,1.13,15.66,2.21,23.3,3.29c1.93,0.27,3.85,0.71,5.78,0.76
					c1.86,0.04,2.19,0.85,1.9,2.43c-0.72,3.96-1.4,7.92-2.1,11.88c-1.24,7.1-2.46,14.2-3.76,21.28c-0.1,0.55-0.69,1.43-1.07,1.44
					c-3.76,0.11-7.52,0.07-11.58,0.07c1.72-11.75,3.4-23.27,5.12-35.02c-3.82-0.56-7.46-1.11-11.1-1.63
					c-2.12-0.31-4.24-0.57-6.36-0.88c-1.06-0.16-1.66,0.17-2.02,1.27c-0.56,1.72-1.36,3.37-1.97,5.08c-1.04,2.92,0.27,4.79,3.34,4.7
					c2.27-0.07,4.54-0.28,6.8-0.47c2.19-0.18,4.38-0.39,6.55-0.59c1.99,12.04-2.06,20.99-15.1,23.19
					c-8.73,1.48-16.86-0.67-24.43-5.2c-1.6-0.96-2.4-2.01-2.16-3.88c0.11-0.88,0.02-1.78,0.02-2.62c3.28,1.31,6.33,2.73,9.51,3.73
					c3.51,1.1,7.13,1.32,10.77,0.3c5.19-1.45,8.36-6.04,7.82-11.84c-1.83,0.13-3.68,0.21-5.52,0.4c-2.93,0.3-5.71-0.02-8.21-1.71
					c-2.97-2.01-3.88-5.1-2.44-8.36c1.55-3.5,3.14-6.99,4.71-10.49c0.28-0.63,0.52-1.29,0.89-2.2c-0.88-0.06-1.49-0.15-2.1-0.15
					c-6.9-0.01-13.79,0.05-20.68-0.05c-1.74-0.03-2.01,0.66-2.01,2.17c0.04,13.92,0.03,27.85,0.03,41.77c0,0.76,0,1.53,0,2.39
					c-3.81,0-7.43,0-11.34,0c0-15.32,0-30.68,0-46.27c-2.46,0-4.66-0.07-6.84,0.07c-0.38,0.02-0.99,0.92-1.01,1.43
					c-0.11,2.4-0.05,4.81-0.05,7.22c0,11.65,0,23.29,0,34.94c0,0.7,0,1.41,0,2.38c-3.39-0.45-6.6-0.78-9.77-1.31
					c-11.43-1.89-21.99-6.01-31.68-12.39c-1.18-0.78-1.54-1.61-1.63-2.98c-0.16-2.47,0.56-4.48,1.96-6.51
					c4.65-6.74,9.15-13.59,13.7-20.4c0.43-0.64,0.82-1.31,1.44-2.3c-7.1,0-13.93,0-20.72,0c-0.82-1.97-0.12-5.42,1.53-5.42
					c14.57,0.04,29.15,0.02,43.72,0.02c29.01,0,58.01,0,87.01,0c7.35,0,14.69,0,22.03,0c0.64,0,1.28,0,2.11,0
					c0.05,0.74,0.09,4.4,0.14,5.07c-0.52,0.07-0.9,0.14-1.28,0.15c-3.43,0.11-3.43,0.11-3.43,3.62c0,13.4,0,26.81,0,40.21
					c0,0.77,0,1.55,0,2.44c-3.8,0-7.47,0-11.35,0c0-15.33,0-30.65,0-46.26c-2.19,0-4.18,0-6.17,0c-9.17,0-18.35,0.06-27.52-0.05
					c-2.04-0.02-3.33,0.4-3.78,2.53C137.91,111.18,137.49,111.99,137.09,113.06z M70.3,147.7c0-12.3,0-24.25,0-36.52
					c-0.42,0.46-0.62,0.62-0.75,0.83c-5.83,8.9-11.64,17.82-17.48,26.71c-0.59,0.91-0.49,1.48,0.43,2.06
					C57.95,144.22,64.07,145.85,70.3,147.7z"/>
			</g>
			<g>
				<path class="st3" d="M60,156.98c-0.02,2.99-2.64,5.51-5.64,5.43c-3.07-0.08-5.47-2.59-5.42-5.66c0.06-3.02,2.41-5.26,5.55-5.26
					C57.68,151.49,60.03,153.83,60,156.98z"/>
			</g>
		</g>
	</g>
</g>
</svg>
