<?xml version="1.0" encoding="utf-8"?>
<!-- Generator: Adobe Illustrator 27.0.0, SVG Export Plug-In . SVG Version: 6.00 Build 0)  -->
<svg version="1.1" id="Layer_1" xmlns="http://www.w3.org/2000/svg" xmlns:xlink="http://www.w3.org/1999/xlink" x="0px" y="0px"
	 viewBox="0 0 226.77 226.77" style="enable-background:new 0 0 226.77 226.77;" xml:space="preserve">
<style type="text/css">
	.st0{fill:#FFF200;}
	.st1{stroke:#000000;stroke-width:5.2476;stroke-miterlimit:10;}
	.st2{fill:#FFFFFF;}
	.st3{fill:#ED1C24;}
	.st4{fill:#50B848;}
	.st5{fill:#007F3E;}
	.st6{fill:#F58220;}
	.st7{fill:#F37021;}
	.st8{fill:#1282C5;}
	.st9{fill:#F7941D;}
	.st10{fill:#FFFFFF;stroke:#FFFFFF;stroke-width:2.321;stroke-linecap:round;stroke-linejoin:round;}
	.st11{fill:#00854A;}
	.st12{fill:#34B34A;}
	.st13{fill:#13421E;}
	.st14{fill:#8CC540;stroke:#FFFFFF;stroke-width:1.2029;stroke-miterlimit:10;}
	.st15{fill:#065643;stroke:#FFFFFF;stroke-width:1.2029;stroke-miterlimit:10;}
	.st16{fill:#FFCB05;}
	.st17{fill:#224D71;}
	.st18{fill:#F8BC1B;}
	.st19{fill:#4CB748;}
	.st20{fill:url(#SVGID_00000021104427591078510480000017006194434795058058_);}
	.st21{fill:none;stroke:#FFFFFF;stroke-width:0.8396;stroke-miterlimit:10;}
	
		.st22{fill:url(#SVGID_00000085933878655495296440000008063247942359622335_);stroke:url(#SVGID_00000080207759148628803080000017437790148577234593_);stroke-width:0.6997;stroke-miterlimit:10;}
	
		.st23{fill:url(#SVGID_00000071525755053018529400000009670510949265566904_);stroke:url(#SVGID_00000033360854572094060880000001151615184347339650_);stroke-width:0.6997;stroke-miterlimit:10;}
	
		.st24{fill:url(#SVGID_00000178902422922675435150000003009521466983135677_);stroke:url(#SVGID_00000085242218752712950060000012832737859273030282_);stroke-width:0.6997;stroke-miterlimit:10;}
	
		.st25{fill:url(#SVGID_00000000184033170497955470000016351548124639306146_);stroke:url(#SVGID_00000040557230644042341510000006368492071879002259_);stroke-width:0.6997;stroke-miterlimit:10;}
	
		.st26{fill:url(#SVGID_00000096745072970657181400000005679691875231554986_);stroke:url(#SVGID_00000069366862637542399080000013201271191128810883_);stroke-width:0.6997;stroke-miterlimit:10;}
	.st27{fill:url(#SVGID_00000111180084945748064760000004382442887185014659_);}
	.st28{fill:url(#SVGID_00000167361316206943375380000002965636771599111052_);}
	.st29{fill:#005826;}
	.st30{fill:#BFD730;}
	.st31{fill:#00A651;stroke:#000000;stroke-width:2.8889;stroke-linecap:round;stroke-linejoin:round;stroke-miterlimit:10;}
	.st32{fill:#FFF200;stroke:#000000;stroke-width:2.8889;stroke-linecap:round;stroke-linejoin:round;stroke-miterlimit:10;}
	.st33{fill:#8DC63F;stroke:#000000;stroke-width:2.8889;stroke-linecap:round;stroke-linejoin:round;stroke-miterlimit:10;}
	.st34{fill:#0DB14B;stroke:#000000;stroke-width:2.8889;stroke-linecap:round;stroke-linejoin:round;stroke-miterlimit:10;}
	.st35{fill:#FFFFFF;stroke:#000000;stroke-width:2.8889;stroke-linecap:round;stroke-linejoin:round;stroke-miterlimit:10;}
	.st36{fill:#00A651;}
	.st37{fill:#8DC63F;}
	.st38{fill:#0DB14B;}
	.st39{fill:#034EA2;}
	.st40{fill:#00763F;}
	.st41{fill:url(#SVGID_00000173130816904451946220000010868308075832332196_);}
	.st42{fill:url(#SVGID_00000007390799362907850760000013178787347219730853_);}
	.st43{fill:url(#SVGID_00000103950387804827413660000012345417700214569660_);}
	.st44{fill:url(#SVGID_00000139992606155971903920000016629510962586925189_);}
	.st45{fill:url(#SVGID_00000146458490782049392230000016628898657172353956_);}
	.st46{fill:url(#SVGID_00000173876073256154119260000017585066220202951827_);}
	.st47{fill:url(#SVGID_00000024682381151708483540000001185657595557498009_);}
	.st48{fill:url(#SVGID_00000120543812892306986880000007087474958709738654_);}
	.st49{fill:url(#SVGID_00000018925288620819307610000005020667134053171331_);}
	.st50{fill:url(#SVGID_00000135692284838242507920000013018663748605720221_);}
	.st51{fill:#FFFFFF;stroke:#FFFFFF;stroke-width:4.8073;stroke-linecap:round;stroke-linejoin:round;stroke-miterlimit:10;}
	.st52{fill:url(#SVGID_00000173870399902256452220000002444750357933105855_);}
	.st53{fill:#00A651;stroke:#00A651;stroke-width:4.2345;stroke-linecap:round;stroke-linejoin:round;stroke-miterlimit:10;}
	.st54{fill:#939598;stroke:#939598;stroke-width:4.2345;stroke-linecap:round;stroke-linejoin:round;stroke-miterlimit:10;}
	.st55{fill:#CE181E;stroke:#CE181E;stroke-width:9.3609;stroke-miterlimit:10;}
	
		.st56{fill:none;stroke:url(#SVGID_00000176750038295267771250000008276697108835424442_);stroke-width:3.3359;stroke-miterlimit:10;}
	.st57{fill-rule:evenodd;clip-rule:evenodd;fill:#21A347;}
	.st58{filter:url(#Adobe_OpacityMaskFilter);}
	
		.st59{clip-path:url(#SVGID_00000030483252279490283880000017924573201412727174_);fill-rule:evenodd;clip-rule:evenodd;fill:url(#);}
	
		.st60{opacity:0.49;clip-path:url(#SVGID_00000030483252279490283880000017924573201412727174_);mask:url(#SVGID_00000159461287349390896090000016212229936596945833_);fill-rule:evenodd;clip-rule:evenodd;}
	
		.st61{clip-path:url(#SVGID_00000030483252279490283880000017924573201412727174_);fill-rule:evenodd;clip-rule:evenodd;fill:#007836;}
	.st62{filter:url(#Adobe_OpacityMaskFilter_00000159462749968268439880000013025252235835429539_);}
	
		.st63{opacity:0.49;clip-path:url(#SVGID_00000030483252279490283880000017924573201412727174_);mask:url(#SVGID_00000039811822709390414590000017648672560879287714_);fill-rule:evenodd;clip-rule:evenodd;}
	
		.st64{clip-path:url(#SVGID_00000030483252279490283880000017924573201412727174_);fill-rule:evenodd;clip-rule:evenodd;fill:#95C940;}
	.st65{fill-rule:evenodd;clip-rule:evenodd;fill:#FFFFFF;}
	.st66{fill:#FFC759;}
	.st67{fill:#D1A342;}
	.st68{fill:none;}
	.st69{clip-path:url(#SVGID_00000029005057633599485340000007971669350164853436_);}
	.st70{clip-path:url(#SVGID_00000056429286829822469720000010898940185836673975_);}
	.st71{fill:#9E1D20;}
	.st72{fill:#86888A;}
	.st73{fill:url(#SVGID_00000005978561650644672500000008885621446175492764_);}
	.st74{fill:url(#SVGID_00000029027230859634471770000017282318235732185496_);}
	.st75{fill:url(#SVGID_00000134954785052879803480000007701469908651567786_);}
	.st76{fill:url(#SVGID_00000123431426298019662650000012108666937233309834_);}
	.st77{fill:#F89522;}
	.st78{fill:#C0BFBF;}
	.st79{clip-path:url(#SVGID_00000059995040399482670570000001623674673792880027_);}
	.st80{clip-path:url(#SVGID_00000127032903006304072600000011341817356293452179_);fill:#650F0E;}
	.st81{clip-path:url(#SVGID_00000127032903006304072600000011341817356293452179_);fill:#670E0D;}
	.st82{clip-path:url(#SVGID_00000127032903006304072600000011341817356293452179_);fill:#690C0D;}
	.st83{clip-path:url(#SVGID_00000127032903006304072600000011341817356293452179_);fill:#6C0D0F;}
	.st84{clip-path:url(#SVGID_00000127032903006304072600000011341817356293452179_);fill:#6F0F10;}
	.st85{clip-path:url(#SVGID_00000127032903006304072600000011341817356293452179_);fill:#700F10;}
	.st86{clip-path:url(#SVGID_00000127032903006304072600000011341817356293452179_);fill:#721011;}
	.st87{clip-path:url(#SVGID_00000127032903006304072600000011341817356293452179_);fill:#741012;}
	.st88{clip-path:url(#SVGID_00000127032903006304072600000011341817356293452179_);fill:#761113;}
	.st89{clip-path:url(#SVGID_00000127032903006304072600000011341817356293452179_);fill:#781214;}
	.st90{clip-path:url(#SVGID_00000127032903006304072600000011341817356293452179_);fill:#7A1214;}
	.st91{clip-path:url(#SVGID_00000127032903006304072600000011341817356293452179_);fill:#7B1315;}
	.st92{clip-path:url(#SVGID_00000127032903006304072600000011341817356293452179_);fill:#7D1416;}
	.st93{clip-path:url(#SVGID_00000127032903006304072600000011341817356293452179_);fill:#7F1416;}
	.st94{clip-path:url(#SVGID_00000127032903006304072600000011341817356293452179_);fill:#801517;}
	.st95{clip-path:url(#SVGID_00000127032903006304072600000011341817356293452179_);fill:#811517;}
	.st96{clip-path:url(#SVGID_00000127032903006304072600000011341817356293452179_);fill:#831618;}
	.st97{clip-path:url(#SVGID_00000127032903006304072600000011341817356293452179_);fill:#851619;}
	.st98{clip-path:url(#SVGID_00000127032903006304072600000011341817356293452179_);fill:#871719;}
	.st99{clip-path:url(#SVGID_00000127032903006304072600000011341817356293452179_);fill:#88171A;}
	.st100{clip-path:url(#SVGID_00000127032903006304072600000011341817356293452179_);fill:#89181A;}
	.st101{clip-path:url(#SVGID_00000127032903006304072600000011341817356293452179_);fill:#8B181B;}
	.st102{clip-path:url(#SVGID_00000127032903006304072600000011341817356293452179_);fill:#8D181B;}
	.st103{clip-path:url(#SVGID_00000127032903006304072600000011341817356293452179_);fill:#8F191C;}
	.st104{clip-path:url(#SVGID_00000127032903006304072600000011341817356293452179_);fill:#91191C;}
	.st105{clip-path:url(#SVGID_00000127032903006304072600000011341817356293452179_);fill:#921A1D;}
	.st106{clip-path:url(#SVGID_00000127032903006304072600000011341817356293452179_);fill:#941A1D;}
	.st107{clip-path:url(#SVGID_00000127032903006304072600000011341817356293452179_);fill:#951B1E;}
	.st108{clip-path:url(#SVGID_00000127032903006304072600000011341817356293452179_);fill:#971B1E;}
	.st109{clip-path:url(#SVGID_00000127032903006304072600000011341817356293452179_);fill:#981B1F;}
	.st110{clip-path:url(#SVGID_00000127032903006304072600000011341817356293452179_);fill:#9A1C1F;}
	.st111{clip-path:url(#SVGID_00000127032903006304072600000011341817356293452179_);fill:#9B1C1F;}
	.st112{clip-path:url(#SVGID_00000127032903006304072600000011341817356293452179_);fill:#9D1C20;}
	.st113{clip-path:url(#SVGID_00000127032903006304072600000011341817356293452179_);fill:#9E1D20;}
	.st114{clip-path:url(#SVGID_00000127032903006304072600000011341817356293452179_);fill:#A01D20;}
	.st115{clip-path:url(#SVGID_00000127032903006304072600000011341817356293452179_);fill:#A01D21;}
	.st116{clip-path:url(#SVGID_00000127032903006304072600000011341817356293452179_);fill:#A11D21;}
	.st117{clip-path:url(#SVGID_00000127032903006304072600000011341817356293452179_);fill:#A21E21;}
	.st118{clip-path:url(#SVGID_00000127032903006304072600000011341817356293452179_);fill:#A31E22;}
	.st119{clip-path:url(#SVGID_00000127032903006304072600000011341817356293452179_);fill:#A51E22;}
	.st120{clip-path:url(#SVGID_00000127032903006304072600000011341817356293452179_);fill:#A61E22;}
	.st121{clip-path:url(#SVGID_00000127032903006304072600000011341817356293452179_);fill:#A71E22;}
	.st122{clip-path:url(#SVGID_00000127032903006304072600000011341817356293452179_);fill:#A91E23;}
	.st123{clip-path:url(#SVGID_00000127032903006304072600000011341817356293452179_);fill:#AB1F23;}
	.st124{clip-path:url(#SVGID_00000127032903006304072600000011341817356293452179_);fill:#AC1F23;}
	.st125{clip-path:url(#SVGID_00000127032903006304072600000011341817356293452179_);fill:#AD1F23;}
	.st126{clip-path:url(#SVGID_00000127032903006304072600000011341817356293452179_);fill:#AE1F24;}
	.st127{clip-path:url(#SVGID_00000127032903006304072600000011341817356293452179_);fill:#AF1F24;}
	.st128{clip-path:url(#SVGID_00000127032903006304072600000011341817356293452179_);fill:#B22024;}
	.st129{clip-path:url(#SVGID_00000127032903006304072600000011341817356293452179_);fill:#B32025;}
	.st130{clip-path:url(#SVGID_00000127032903006304072600000011341817356293452179_);fill:#B42025;}
	.st131{clip-path:url(#SVGID_00000127032903006304072600000011341817356293452179_);fill:#B52025;}
	.st132{clip-path:url(#SVGID_00000127032903006304072600000011341817356293452179_);fill:#B72025;}
	.st133{clip-path:url(#SVGID_00000127032903006304072600000011341817356293452179_);fill:#B92025;}
	.st134{clip-path:url(#SVGID_00000127032903006304072600000011341817356293452179_);fill:#BC2026;}
	.st135{clip-path:url(#SVGID_00000127032903006304072600000011341817356293452179_);fill:#BE2126;}
	.st136{clip-path:url(#SVGID_00000127032903006304072600000011341817356293452179_);fill:#BF2126;}
	.st137{clip-path:url(#SVGID_00000127032903006304072600000011341817356293452179_);fill:#C02126;}
	.st138{clip-path:url(#SVGID_00000127032903006304072600000011341817356293452179_);fill:#C12126;}
	.st139{clip-path:url(#SVGID_00000127032903006304072600000011341817356293452179_);fill:#C22126;}
	.st140{clip-path:url(#SVGID_00000127032903006304072600000011341817356293452179_);fill:#C32126;}
	.st141{clip-path:url(#SVGID_00000127032903006304072600000011341817356293452179_);fill:#C42126;}
	.st142{clip-path:url(#SVGID_00000127032903006304072600000011341817356293452179_);fill:#C52126;}
	.st143{clip-path:url(#SVGID_00000127032903006304072600000011341817356293452179_);fill:#C62127;}
	.st144{clip-path:url(#SVGID_00000127032903006304072600000011341817356293452179_);fill:#C72127;}
	.st145{clip-path:url(#SVGID_00000127032903006304072600000011341817356293452179_);fill:#C82127;}
	.st146{clip-path:url(#SVGID_00000127032903006304072600000011341817356293452179_);fill:#C92127;}
	.st147{clip-path:url(#SVGID_00000127032903006304072600000011341817356293452179_);fill:#CA2127;}
	.st148{clip-path:url(#SVGID_00000127032903006304072600000011341817356293452179_);fill:#CA2027;}
	.st149{clip-path:url(#SVGID_00000127032903006304072600000011341817356293452179_);fill:#CC2027;}
	.st150{clip-path:url(#SVGID_00000127032903006304072600000011341817356293452179_);fill:#CD2027;}
	.st151{clip-path:url(#SVGID_00000127032903006304072600000011341817356293452179_);fill:#CE2127;}
	.st152{clip-path:url(#SVGID_00000127032903006304072600000011341817356293452179_);fill:#CF2127;}
	.st153{clip-path:url(#SVGID_00000127032903006304072600000011341817356293452179_);fill:#D02027;}
	.st154{clip-path:url(#SVGID_00000127032903006304072600000011341817356293452179_);fill:#D12027;}
	.st155{clip-path:url(#SVGID_00000127032903006304072600000011341817356293452179_);fill:#D22027;}
	.st156{clip-path:url(#SVGID_00000127032903006304072600000011341817356293452179_);fill:#D32027;}
	.st157{clip-path:url(#SVGID_00000127032903006304072600000011341817356293452179_);fill:#D42027;}
	.st158{clip-path:url(#SVGID_00000127032903006304072600000011341817356293452179_);fill:#D52027;}
	.st159{clip-path:url(#SVGID_00000127032903006304072600000011341817356293452179_);fill:#D62027;}
	.st160{clip-path:url(#SVGID_00000127032903006304072600000011341817356293452179_);fill:#D72027;}
	.st161{clip-path:url(#SVGID_00000127032903006304072600000011341817356293452179_);fill:#D71F27;}
	.st162{clip-path:url(#SVGID_00000122697078623914562180000011608210844559656349_);}
	.st163{clip-path:url(#SVGID_00000054979603391192118870000000721447018559522957_);fill:#650F0E;}
	.st164{clip-path:url(#SVGID_00000054979603391192118870000000721447018559522957_);fill:#670E0D;}
	.st165{clip-path:url(#SVGID_00000054979603391192118870000000721447018559522957_);fill:#690C0D;}
	.st166{clip-path:url(#SVGID_00000054979603391192118870000000721447018559522957_);fill:#6C0D0F;}
	.st167{clip-path:url(#SVGID_00000054979603391192118870000000721447018559522957_);fill:#6F0F10;}
	.st168{clip-path:url(#SVGID_00000054979603391192118870000000721447018559522957_);fill:#700F10;}
	.st169{clip-path:url(#SVGID_00000054979603391192118870000000721447018559522957_);fill:#721011;}
	.st170{clip-path:url(#SVGID_00000054979603391192118870000000721447018559522957_);fill:#741012;}
	.st171{clip-path:url(#SVGID_00000054979603391192118870000000721447018559522957_);fill:#761113;}
	.st172{clip-path:url(#SVGID_00000054979603391192118870000000721447018559522957_);fill:#781214;}
	.st173{clip-path:url(#SVGID_00000054979603391192118870000000721447018559522957_);fill:#7A1214;}
	.st174{clip-path:url(#SVGID_00000054979603391192118870000000721447018559522957_);fill:#7B1315;}
	.st175{clip-path:url(#SVGID_00000054979603391192118870000000721447018559522957_);fill:#7D1416;}
	.st176{clip-path:url(#SVGID_00000054979603391192118870000000721447018559522957_);fill:#7F1416;}
	.st177{clip-path:url(#SVGID_00000054979603391192118870000000721447018559522957_);fill:#801517;}
	.st178{clip-path:url(#SVGID_00000054979603391192118870000000721447018559522957_);fill:#811517;}
	.st179{clip-path:url(#SVGID_00000054979603391192118870000000721447018559522957_);fill:#831618;}
	.st180{clip-path:url(#SVGID_00000054979603391192118870000000721447018559522957_);fill:#851619;}
	.st181{clip-path:url(#SVGID_00000054979603391192118870000000721447018559522957_);fill:#871719;}
	.st182{clip-path:url(#SVGID_00000054979603391192118870000000721447018559522957_);fill:#88171A;}
	.st183{clip-path:url(#SVGID_00000054979603391192118870000000721447018559522957_);fill:#89181A;}
	.st184{clip-path:url(#SVGID_00000054979603391192118870000000721447018559522957_);fill:#8B181B;}
	.st185{clip-path:url(#SVGID_00000054979603391192118870000000721447018559522957_);fill:#8D181B;}
	.st186{clip-path:url(#SVGID_00000054979603391192118870000000721447018559522957_);fill:#8F191C;}
	.st187{clip-path:url(#SVGID_00000054979603391192118870000000721447018559522957_);fill:#91191C;}
	.st188{clip-path:url(#SVGID_00000054979603391192118870000000721447018559522957_);fill:#921A1D;}
	.st189{clip-path:url(#SVGID_00000054979603391192118870000000721447018559522957_);fill:#941A1D;}
	.st190{clip-path:url(#SVGID_00000054979603391192118870000000721447018559522957_);fill:#951B1E;}
	.st191{clip-path:url(#SVGID_00000054979603391192118870000000721447018559522957_);fill:#971B1E;}
	.st192{clip-path:url(#SVGID_00000054979603391192118870000000721447018559522957_);fill:#981B1F;}
	.st193{clip-path:url(#SVGID_00000054979603391192118870000000721447018559522957_);fill:#9A1C1F;}
	.st194{clip-path:url(#SVGID_00000054979603391192118870000000721447018559522957_);fill:#9B1C1F;}
	.st195{clip-path:url(#SVGID_00000054979603391192118870000000721447018559522957_);fill:#9D1C20;}
	.st196{clip-path:url(#SVGID_00000054979603391192118870000000721447018559522957_);fill:#9E1D20;}
	.st197{clip-path:url(#SVGID_00000054979603391192118870000000721447018559522957_);fill:#A01D20;}
	.st198{clip-path:url(#SVGID_00000054979603391192118870000000721447018559522957_);fill:#A01D21;}
	.st199{clip-path:url(#SVGID_00000054979603391192118870000000721447018559522957_);fill:#A11D21;}
	.st200{clip-path:url(#SVGID_00000054979603391192118870000000721447018559522957_);fill:#A21E21;}
	.st201{clip-path:url(#SVGID_00000054979603391192118870000000721447018559522957_);fill:#A31E22;}
	.st202{clip-path:url(#SVGID_00000054979603391192118870000000721447018559522957_);fill:#A51E22;}
	.st203{clip-path:url(#SVGID_00000054979603391192118870000000721447018559522957_);fill:#A61E22;}
	.st204{clip-path:url(#SVGID_00000054979603391192118870000000721447018559522957_);fill:#A71E22;}
	.st205{clip-path:url(#SVGID_00000054979603391192118870000000721447018559522957_);fill:#A91E23;}
	.st206{clip-path:url(#SVGID_00000054979603391192118870000000721447018559522957_);fill:#AB1F23;}
	.st207{clip-path:url(#SVGID_00000054979603391192118870000000721447018559522957_);fill:#AC1F23;}
	.st208{clip-path:url(#SVGID_00000054979603391192118870000000721447018559522957_);fill:#AD1F23;}
	.st209{clip-path:url(#SVGID_00000054979603391192118870000000721447018559522957_);fill:#AE1F24;}
	.st210{clip-path:url(#SVGID_00000054979603391192118870000000721447018559522957_);fill:#AF1F24;}
	.st211{clip-path:url(#SVGID_00000054979603391192118870000000721447018559522957_);fill:#B22024;}
	.st212{clip-path:url(#SVGID_00000054979603391192118870000000721447018559522957_);fill:#B32025;}
	.st213{clip-path:url(#SVGID_00000054979603391192118870000000721447018559522957_);fill:#B42025;}
	.st214{clip-path:url(#SVGID_00000054979603391192118870000000721447018559522957_);fill:#B52025;}
	.st215{clip-path:url(#SVGID_00000054979603391192118870000000721447018559522957_);fill:#B72025;}
	.st216{clip-path:url(#SVGID_00000054979603391192118870000000721447018559522957_);fill:#B92025;}
	.st217{clip-path:url(#SVGID_00000054979603391192118870000000721447018559522957_);fill:#BC2026;}
	.st218{clip-path:url(#SVGID_00000054979603391192118870000000721447018559522957_);fill:#BE2126;}
	.st219{clip-path:url(#SVGID_00000054979603391192118870000000721447018559522957_);fill:#BF2126;}
	.st220{clip-path:url(#SVGID_00000054979603391192118870000000721447018559522957_);fill:#C02126;}
	.st221{clip-path:url(#SVGID_00000054979603391192118870000000721447018559522957_);fill:#C12126;}
	.st222{clip-path:url(#SVGID_00000054979603391192118870000000721447018559522957_);fill:#C22126;}
	.st223{clip-path:url(#SVGID_00000054979603391192118870000000721447018559522957_);fill:#C32126;}
	.st224{clip-path:url(#SVGID_00000054979603391192118870000000721447018559522957_);fill:#C42126;}
	.st225{clip-path:url(#SVGID_00000054979603391192118870000000721447018559522957_);fill:#C52126;}
	.st226{clip-path:url(#SVGID_00000054979603391192118870000000721447018559522957_);fill:#C62127;}
	.st227{clip-path:url(#SVGID_00000054979603391192118870000000721447018559522957_);fill:#C72127;}
	.st228{clip-path:url(#SVGID_00000054979603391192118870000000721447018559522957_);fill:#C82127;}
	.st229{clip-path:url(#SVGID_00000054979603391192118870000000721447018559522957_);fill:#C92127;}
	.st230{clip-path:url(#SVGID_00000054979603391192118870000000721447018559522957_);fill:#CA2127;}
	.st231{clip-path:url(#SVGID_00000054979603391192118870000000721447018559522957_);fill:#CA2027;}
	.st232{clip-path:url(#SVGID_00000054979603391192118870000000721447018559522957_);fill:#CC2027;}
	.st233{clip-path:url(#SVGID_00000054979603391192118870000000721447018559522957_);fill:#CD2027;}
	.st234{clip-path:url(#SVGID_00000054979603391192118870000000721447018559522957_);fill:#CE2127;}
	.st235{clip-path:url(#SVGID_00000054979603391192118870000000721447018559522957_);fill:#CF2127;}
	.st236{clip-path:url(#SVGID_00000054979603391192118870000000721447018559522957_);fill:#D02027;}
	.st237{clip-path:url(#SVGID_00000054979603391192118870000000721447018559522957_);fill:#D12027;}
	.st238{clip-path:url(#SVGID_00000054979603391192118870000000721447018559522957_);fill:#D22027;}
	.st239{clip-path:url(#SVGID_00000054979603391192118870000000721447018559522957_);fill:#D32027;}
	.st240{clip-path:url(#SVGID_00000054979603391192118870000000721447018559522957_);fill:#D42027;}
	.st241{clip-path:url(#SVGID_00000054979603391192118870000000721447018559522957_);fill:#D52027;}
	.st242{clip-path:url(#SVGID_00000054979603391192118870000000721447018559522957_);fill:#D62027;}
	.st243{clip-path:url(#SVGID_00000054979603391192118870000000721447018559522957_);fill:#D72027;}
	.st244{clip-path:url(#SVGID_00000054979603391192118870000000721447018559522957_);fill:#D71F27;}
	.st245{fill:#C3996B;}
	.st246{fill:#F06724;}
	.st247{fill:#231F20;}
	.st248{fill:#AEB3B6;}
	.st249{fill:#EE3537;}
	.st250{fill:#9BA0A3;}
	.st251{fill:#AFB3B5;}
	.st252{fill:#F2EB44;}
	.st253{fill:#FFDD26;}
	.st254{clip-path:url(#XMLID_00000096046653931352108440000002558233533396031159_);}
	.st255{fill:#7E8386;}
	.st256{fill:#A4AAAC;}
	.st257{fill:#131718;}
	.st258{fill:#007843;}
	.st259{fill:#2AB34B;}
	.st260{fill:none;stroke:#FFFFFF;stroke-width:1.4841;stroke-miterlimit:10;}
	.st261{fill:#2E3192;}
	.st262{fill:#154458;}
	.st263{fill:#C72026;}
	.st264{fill:#5FBB46;}
	.st265{fill:#1A5F30;}
	.st266{fill:#293896;}
	.st267{filter:url(#Adobe_OpacityMaskFilter_00000035531775985441057390000010846280426602650498_);}
	.st268{filter:url(#Adobe_OpacityMaskFilter_00000060026418214581516770000013335893708919195538_);}
	
		.st269{mask:url(#SVGID_00000047764280462082748220000016478292291775670451_);fill:url(#SVGID_00000059296137938481529510000002162903797168135578_);}
	.st270{filter:url(#Adobe_OpacityMaskFilter_00000124876065207343290500000015365654395130500272_);}
	.st271{filter:url(#Adobe_OpacityMaskFilter_00000034065294459531215500000000803256443802807977_);}
	
		.st272{mask:url(#SVGID_00000160873821941934164000000000940617619047533729_);fill:url(#SVGID_00000023973970694212786220000015310125725550852011_);}
	.st273{filter:url(#Adobe_OpacityMaskFilter_00000048494897731153514850000006803699934880525724_);}
	.st274{filter:url(#Adobe_OpacityMaskFilter_00000083069801583559363770000011704231571577403534_);}
	
		.st275{mask:url(#SVGID_00000178904525777940855340000002021382839467303826_);fill:url(#SVGID_00000042695030349502183670000002110108447689685684_);}
	.st276{filter:url(#Adobe_OpacityMaskFilter_00000096022300627752577960000010326524369450834111_);}
	.st277{filter:url(#Adobe_OpacityMaskFilter_00000047019861165525180650000004732279985806158488_);}
	
		.st278{mask:url(#SVGID_00000178177548685434722720000012392655393403371682_);fill:url(#SVGID_00000065787700212739657730000004066729248141593532_);}
	.st279{filter:url(#Adobe_OpacityMaskFilter_00000043418196063844821990000007712811744005678997_);}
	.st280{filter:url(#Adobe_OpacityMaskFilter_00000096043767667641411840000008957126776796300982_);}
	
		.st281{mask:url(#SVGID_00000149380563271373338020000008041263450868689804_);fill:url(#SVGID_00000183234253660427289910000002525218812925900672_);}
	.st282{filter:url(#Adobe_OpacityMaskFilter_00000023277807689901707810000009973840869307696007_);}
	.st283{filter:url(#Adobe_OpacityMaskFilter_00000144335508849660073090000012799158671861807497_);}
	
		.st284{mask:url(#SVGID_00000046320517368894043750000016546040109259862975_);fill:url(#SVGID_00000116215126618778101260000017771195164076920717_);}
	.st285{filter:url(#Adobe_OpacityMaskFilter_00000011006775224301180630000002033643681596286376_);}
	.st286{filter:url(#Adobe_OpacityMaskFilter_00000113331536474507693130000001562628334000927423_);}
	
		.st287{mask:url(#SVGID_00000136370332245674721500000009997804405723875002_);fill:url(#SVGID_00000065062089097847175680000013261801311719478682_);}
	.st288{filter:url(#Adobe_OpacityMaskFilter_00000134230716958980910560000008653438530012962439_);}
	.st289{filter:url(#Adobe_OpacityMaskFilter_00000081628959530170117300000005163758701306802608_);}
	
		.st290{mask:url(#SVGID_00000163760373478210978730000018398884272064042630_);fill:url(#SVGID_00000029746380566821426450000013061042847086498233_);}
	.st291{filter:url(#Adobe_OpacityMaskFilter_00000142898368849087194960000000582509601165879980_);}
	.st292{filter:url(#Adobe_OpacityMaskFilter_00000091728720192453437320000000761901620058069385_);}
	
		.st293{mask:url(#SVGID_00000078038250934469811720000006586048435308306860_);fill:url(#SVGID_00000158713124899430083920000017564902347205608076_);}
	.st294{filter:url(#Adobe_OpacityMaskFilter_00000180324504315710309570000001154002213603949983_);}
	.st295{filter:url(#Adobe_OpacityMaskFilter_00000052089663992025205550000017418575469067997588_);}
	
		.st296{mask:url(#SVGID_00000006703522710659190040000004163744559645302198_);fill:url(#SVGID_00000151508708436399947650000012754849730642452868_);}
	.st297{clip-path:url(#SVGID_00000177485092428528309190000007021271011552580256_);fill:#FFF200;}
	
		.st298{clip-path:url(#SVGID_00000177485092428528309190000007021271011552580256_);fill:none;stroke:#FFFFFF;stroke-width:4.8568;stroke-linejoin:round;stroke-miterlimit:10;}
	.st299{clip-path:url(#SVGID_00000177485092428528309190000007021271011552580256_);fill:#ED1C24;}
	.st300{clip-path:url(#SVGID_00000177485092428528309190000007021271011552580256_);fill:#FFFFFF;}
	.st301{clip-path:url(#SVGID_00000177485092428528309190000007021271011552580256_);fill:#2E3192;}
	.st302{clip-path:url(#SVGID_00000177485092428528309190000007021271011552580256_);}
	.st303{clip-path:url(#SVGID_00000177485092428528309190000007021271011552580256_);fill:#F4817F;}
	.st304{clip-path:url(#SVGID_00000177485092428528309190000007021271011552580256_);fill:#56BF98;}
	.st305{clip-path:url(#SVGID_00000177485092428528309190000007021271011552580256_);fill:#570C08;}
	.st306{clip-path:url(#SVGID_00000177485092428528309190000007021271011552580256_);fill:#00A750;}
	
		.st307{fill:#FFFFFF;stroke:url(#SVGID_00000024710227615389981710000005849538159776114572_);stroke-width:7.11;stroke-miterlimit:10;}
	.st308{fill:#ED2224;}
	.st309{fill:#074E28;}
	.st310{fill:#EB2627;}
	.st311{fill:#D1D3D4;}
	.st312{fill:#5F1F16;}
	.st313{fill:#F1E7E6;}
	.st314{fill:#ED2024;}
	.st315{fill:url(#SVGID_00000031197923986954786640000009499536914028105382_);}
	.st316{fill:url(#SVGID_00000153702969864660528460000015775986284224306312_);}
	.st317{fill:#BB2025;}
	.st318{fill:url(#SVGID_00000060021723438565661770000016967007086583313547_);}
	.st319{fill:url(#SVGID_00000065766521274766281740000007833233064963802774_);}
	.st320{fill:none;stroke:#7F8080;stroke-width:0.8623;stroke-miterlimit:10;}
	.st321{fill:url(#SVGID_00000052064976066835409690000004717020287888919949_);}
	.st322{fill:url(#SVGID_00000151505918493315381000000010348432803099956106_);}
	.st323{fill:url(#SVGID_00000096021421454347486370000009283429420994256063_);}
	.st324{fill:url(#SVGID_00000012453680207654517760000001279764069358304685_);}
	.st325{fill:url(#SVGID_00000127746592797146154700000007746645476328017074_);}
	.st326{fill:url(#SVGID_00000021095887563065569410000001316755224417540780_);}
	.st327{fill:url(#SVGID_00000007392679132382290100000001395656755154464916_);}
	.st328{fill:url(#SVGID_00000021110539688799313760000016586695181120543113_);}
	.st329{fill:url(#SVGID_00000013901623598304603610000016851497664717158023_);}
	.st330{fill:url(#SVGID_00000029747780537443782130000007126792476319192762_);}
	.st331{fill:url(#SVGID_00000110461661881560046920000014410946089487940002_);}
	.st332{fill:url(#SVGID_00000002355999971396522400000003148710154785601682_);}
	.st333{fill:url(#SVGID_00000119083042436628800650000015973106096945134251_);}
	.st334{fill:url(#SVGID_00000051364957757028407130000001494781564588492734_);}
	.st335{fill:#E01E26;}
</style>
<g>
	<path class="st8" d="M152.61,83.62v22.25c0,7.3-0.54,12.75-1.62,16.33c-1.08,3.59-3.84,6.67-8.27,9.24
		c-4.43,2.57-10.52,3.86-18.28,3.86c-7.27,0-12.98-0.95-17.15-2.83c-4.16-1.89-7.13-4.54-8.88-7.96c-1.76-3.41-2.63-9.44-2.63-18.07
		V69.3h18.37v3.71h-11.22L102.14,73l1.76,3.02h10.25v7.35h-11.22l-0.79-0.01l1.76,1.76h10.25v7.93h-11.22l-0.79,0l1.76,1.17h10.25
		v7.35h-11.22l-0.79-0.01l1.76,1.76h10.25v3.13c0,1.62,0.03,3.08,0.09,4.4h-11.31l-0.79-0.01l1.76,1.58h10.43
		c0.15,2.16,0.4,3.82,0.74,4.99c0.61,2.06,1.89,3.63,3.83,4.69c1.94,1.06,4.31,1.59,7.14,1.59c3.06,0,5.49-0.59,7.29-1.76
		c1.79-1.17,2.9-2.73,3.3-4.67c0.41-1.94,0.62-5.54,0.62-10.81V83.62H152.61z"/>
	<path class="st8" d="M146.35,69.3h55.74v12.35h-17.09v53.52h-18.37V81.65h-29.55v-3.09C137.09,73.45,141.24,69.3,146.35,69.3z"/>
	<g>
		<g>
			<path class="st9" d="M33.43,137.26h1.59v10.07h-1.59V137.26z M34.37,146.02h3.09c0.81,0,1.4-0.14,1.77-0.41
				c0.37-0.27,0.56-0.66,0.56-1.15v-0.02c0-0.34-0.07-0.63-0.2-0.88c-0.13-0.24-0.34-0.43-0.63-0.56c-0.29-0.13-0.66-0.2-1.11-0.2
				h-3.48v-1.27h3.48c0.59,0,1.04-0.12,1.34-0.37c0.3-0.24,0.45-0.61,0.45-1.09c0-0.5-0.17-0.88-0.5-1.13
				c-0.33-0.25-0.84-0.37-1.5-0.37h-3.26v-1.31h3.55c0.74,0,1.35,0.11,1.85,0.33c0.5,0.22,0.87,0.54,1.11,0.94
				c0.25,0.41,0.37,0.89,0.37,1.45c0,0.35-0.08,0.67-0.23,0.97c-0.15,0.3-0.38,0.56-0.69,0.78c-0.31,0.21-0.7,0.36-1.16,0.43
				c0.46,0.06,0.86,0.2,1.19,0.43c0.33,0.23,0.59,0.51,0.77,0.86c0.18,0.34,0.27,0.71,0.27,1.11v0.02c0,0.54-0.14,1.03-0.41,1.44
				c-0.27,0.42-0.66,0.74-1.17,0.96c-0.51,0.23-1.1,0.34-1.77,0.34h-3.68V146.02z"/>
			<path class="st9" d="M44.95,147.06c-0.5-0.24-0.88-0.6-1.15-1.07c-0.26-0.47-0.4-1.03-0.4-1.69v-1.17c0-0.65,0.13-1.21,0.4-1.67
				c0.26-0.46,0.65-0.82,1.15-1.06c0.5-0.24,1.11-0.36,1.81-0.36s1.31,0.12,1.81,0.36c0.5,0.24,0.88,0.6,1.15,1.06
				c0.26,0.46,0.4,1.02,0.4,1.67v1.19c0,0.66-0.13,1.22-0.4,1.68c-0.26,0.46-0.65,0.82-1.15,1.06c-0.5,0.24-1.11,0.37-1.81,0.37
				S45.45,147.31,44.95,147.06z M48.06,145.62c0.31-0.31,0.46-0.74,0.46-1.3v-1.19c0-0.56-0.15-0.99-0.46-1.3
				c-0.31-0.3-0.74-0.46-1.3-0.46c-0.56,0-0.99,0.15-1.3,0.46c-0.31,0.3-0.46,0.74-0.46,1.3v1.19c0,0.56,0.15,0.99,0.46,1.3
				c0.31,0.31,0.74,0.46,1.3,0.46C47.32,146.09,47.75,145.93,48.06,145.62z"/>
			<path class="st9" d="M52.39,140.14h1.6v7.19h-1.6V140.14z M56.33,141.49c-0.21-0.08-0.46-0.12-0.74-0.12
				c-0.51,0-0.9,0.12-1.18,0.37c-0.28,0.25-0.42,0.59-0.42,1.03l-0.16-1.39c0.25-0.43,0.57-0.76,0.97-1
				c0.4-0.24,0.84-0.36,1.32-0.36c0.37,0,0.71,0.05,1.01,0.14c0.3,0.09,0.56,0.23,0.79,0.42l-1.04,1.25
				C56.72,141.69,56.54,141.57,56.33,141.49z"/>
			<path class="st9" d="M59.24,137.26h1.6v10.07h-1.6V137.26z M64.18,142.97c0-0.51-0.15-0.9-0.45-1.18
				c-0.3-0.28-0.72-0.42-1.25-0.42c-0.52,0-0.93,0.12-1.21,0.36c-0.28,0.24-0.43,0.58-0.43,1.02l-0.16-1.39
				c0.25-0.42,0.58-0.75,0.98-0.99c0.4-0.23,0.85-0.35,1.34-0.35c0.88,0,1.57,0.26,2.05,0.77c0.48,0.51,0.73,1.23,0.73,2.16v4.36
				h-1.6V142.97z"/>
			<path class="st9" d="M68.56,146.88c-0.5-0.37-0.74-0.92-0.74-1.67c0-0.71,0.23-1.24,0.68-1.6c0.45-0.36,1.14-0.53,2.06-0.53h2.31
				l0.11,1.14h-2.41c-0.42,0-0.73,0.08-0.94,0.25c-0.21,0.16-0.31,0.41-0.31,0.75c0,0.36,0.14,0.63,0.41,0.81
				c0.27,0.18,0.69,0.26,1.25,0.26c0.61,0,1.07-0.06,1.37-0.17c0.3-0.12,0.45-0.3,0.45-0.54l0.16,1.01
				c-0.14,0.19-0.31,0.35-0.52,0.48c-0.21,0.12-0.45,0.22-0.72,0.28c-0.27,0.06-0.58,0.09-0.92,0.09
				C69.8,147.43,69.05,147.25,68.56,146.88z M72.8,142.77c0-0.47-0.14-0.84-0.43-1.1c-0.28-0.26-0.69-0.39-1.21-0.39
				c-0.32,0-0.64,0.04-0.95,0.13c-0.31,0.09-0.59,0.21-0.83,0.37l-1.17-0.71c0.31-0.33,0.71-0.58,1.22-0.77
				c0.5-0.18,1.06-0.27,1.68-0.27c0.67,0,1.25,0.11,1.73,0.32c0.48,0.21,0.85,0.51,1.1,0.91c0.25,0.4,0.38,0.88,0.38,1.44v4.62H72.8
				V142.77z"/>
			<path class="st9" d="M76.75,140.14h1.6v7.19h-1.6V140.14z M81.69,142.97c0-0.51-0.15-0.9-0.45-1.18
				c-0.3-0.28-0.72-0.42-1.25-0.42c-0.52,0-0.93,0.12-1.21,0.37c-0.28,0.24-0.43,0.59-0.43,1.03l-0.16-1.39
				c0.25-0.43,0.58-0.77,0.98-1c0.4-0.24,0.85-0.35,1.34-0.35c0.88,0,1.57,0.26,2.05,0.77c0.48,0.51,0.73,1.23,0.73,2.16v4.36h-1.6
				V142.97z"/>
			<path class="st9" d="M91.86,146.99c-0.6-0.29-1.05-0.72-1.37-1.28c-0.31-0.56-0.47-1.24-0.47-2.03v-6.43h1.6v6.48
				c0,0.73,0.21,1.3,0.63,1.7c0.42,0.4,1.01,0.6,1.77,0.6c0.77,0,1.36-0.2,1.78-0.6c0.42-0.4,0.63-0.97,0.63-1.7v-6.48h1.6v6.43
				c0,0.79-0.16,1.46-0.47,2.03c-0.31,0.56-0.77,0.99-1.37,1.28c-0.6,0.29-1.32,0.44-2.17,0.44
				C93.18,147.43,92.46,147.28,91.86,146.99z"/>
			<path class="st9" d="M101.6,147.11c-0.42-0.23-0.74-0.56-0.96-1c-0.22-0.44-0.33-0.96-0.33-1.58v-1.59
				c0-0.62,0.11-1.15,0.32-1.59c0.21-0.44,0.53-0.77,0.94-1c0.41-0.23,0.9-0.34,1.48-0.34c0.48,0,0.92,0.11,1.32,0.33
				c0.4,0.22,0.72,0.53,0.97,0.93l-0.16,1.47c0-0.3-0.06-0.57-0.19-0.78c-0.13-0.22-0.31-0.38-0.54-0.5
				c-0.24-0.11-0.53-0.17-0.87-0.17c-0.53,0-0.94,0.15-1.23,0.44c-0.29,0.29-0.44,0.7-0.44,1.23v1.57c0,0.52,0.14,0.92,0.44,1.21
				c0.29,0.28,0.7,0.43,1.23,0.43c0.34,0,0.63-0.06,0.87-0.18c0.24-0.12,0.42-0.29,0.54-0.51c0.13-0.22,0.19-0.49,0.19-0.8
				l0.11,1.52c-0.16,0.36-0.43,0.65-0.8,0.89c-0.37,0.24-0.82,0.36-1.36,0.36C102.53,147.45,102.02,147.34,101.6,147.11z
				 M105.17,137.26h1.6v10.07h-1.6V137.26z"/>
			<path class="st9" d="M110.25,147.11c-0.42-0.23-0.74-0.56-0.96-1c-0.22-0.44-0.33-0.96-0.33-1.58v-1.59
				c0-0.62,0.11-1.15,0.32-1.59c0.21-0.44,0.53-0.77,0.94-1c0.41-0.23,0.9-0.34,1.48-0.34c0.48,0,0.92,0.11,1.32,0.33
				c0.4,0.22,0.72,0.53,0.97,0.93l-0.16,1.47c0-0.3-0.06-0.57-0.19-0.78c-0.13-0.22-0.31-0.38-0.54-0.5
				c-0.24-0.11-0.53-0.17-0.87-0.17c-0.53,0-0.94,0.15-1.23,0.44c-0.29,0.29-0.44,0.7-0.44,1.23v1.57c0,0.52,0.14,0.92,0.44,1.21
				c0.29,0.28,0.7,0.43,1.23,0.43c0.34,0,0.63-0.06,0.87-0.18c0.24-0.12,0.42-0.29,0.54-0.51c0.13-0.22,0.19-0.49,0.19-0.8
				l0.11,1.52c-0.16,0.36-0.43,0.65-0.8,0.89c-0.37,0.24-0.82,0.36-1.36,0.36C111.18,147.45,110.67,147.34,110.25,147.11z
				 M113.82,137.26h1.6v10.07h-1.6V137.26z"/>
			<path class="st9" d="M117.85,137.26h1.6v1.41h-1.6V137.26z M117.85,140.14h1.6v7.19h-1.6V140.14z"/>
			<path class="st9" d="M121.88,140.14h1.6v7.19h-1.6V140.14z M126.82,142.97c0-0.51-0.15-0.9-0.45-1.18
				c-0.3-0.28-0.72-0.42-1.25-0.42c-0.52,0-0.93,0.12-1.21,0.37c-0.28,0.24-0.43,0.59-0.43,1.03l-0.16-1.39
				c0.25-0.43,0.58-0.77,0.98-1c0.4-0.24,0.85-0.35,1.34-0.35c0.88,0,1.57,0.26,2.05,0.77c0.48,0.51,0.73,1.23,0.73,2.16v4.36h-1.6
				V142.97z"/>
			<path class="st9" d="M133.75,137.26h8.04v1.34h-8.04V137.26z M136.97,138.08h1.6v9.25h-1.6V138.08z"/>
			<path class="st9" d="M142.26,140.14h1.6v7.19h-1.6V140.14z M146.2,141.49c-0.21-0.08-0.46-0.12-0.74-0.12
				c-0.51,0-0.9,0.12-1.18,0.37c-0.28,0.25-0.42,0.59-0.42,1.03l-0.16-1.39c0.25-0.43,0.57-0.76,0.97-1
				c0.4-0.24,0.84-0.36,1.32-0.36c0.37,0,0.71,0.05,1.01,0.14c0.3,0.09,0.56,0.23,0.79,0.42l-1.04,1.25
				C146.59,141.69,146.42,141.57,146.2,141.49z"/>
			<path class="st9" d="M149.46,146.88c-0.5-0.37-0.74-0.92-0.74-1.67c0-0.71,0.23-1.24,0.68-1.6c0.45-0.36,1.14-0.53,2.06-0.53
				h2.31l0.11,1.14h-2.41c-0.42,0-0.73,0.08-0.94,0.25c-0.21,0.16-0.31,0.41-0.31,0.75c0,0.36,0.14,0.63,0.41,0.81
				c0.27,0.18,0.69,0.26,1.25,0.26c0.61,0,1.07-0.06,1.37-0.17c0.3-0.12,0.45-0.3,0.45-0.54l0.16,1.01
				c-0.14,0.19-0.31,0.35-0.52,0.48c-0.21,0.12-0.45,0.22-0.72,0.28c-0.27,0.06-0.58,0.09-0.92,0.09
				C150.71,147.43,149.96,147.25,149.46,146.88z M153.7,142.77c0-0.47-0.14-0.84-0.43-1.1c-0.28-0.26-0.69-0.39-1.21-0.39
				c-0.32,0-0.64,0.04-0.95,0.13c-0.31,0.09-0.59,0.21-0.83,0.37l-1.17-0.71c0.31-0.33,0.71-0.58,1.22-0.77
				c0.5-0.18,1.06-0.27,1.68-0.27c0.67,0,1.25,0.11,1.73,0.32c0.48,0.21,0.85,0.51,1.1,0.91c0.25,0.4,0.38,0.88,0.38,1.44v4.62
				h-1.52V142.77z"/>
			<path class="st9" d="M157.65,140.14h1.6v7.19h-1.6V140.14z M162.59,142.97c0-0.51-0.15-0.9-0.45-1.18
				c-0.3-0.28-0.72-0.42-1.25-0.42c-0.52,0-0.93,0.12-1.21,0.37c-0.28,0.24-0.43,0.59-0.43,1.03l-0.16-1.39
				c0.25-0.43,0.58-0.77,0.98-1c0.4-0.24,0.85-0.35,1.34-0.35c0.88,0,1.57,0.26,2.05,0.77c0.48,0.51,0.72,1.23,0.72,2.16v4.36h-1.6
				V142.97z"/>
			<path class="st9" d="M168.14,147.31c-0.42-0.08-0.81-0.21-1.18-0.37c-0.37-0.17-0.7-0.37-1.01-0.62l0.95-1.03
				c0.44,0.3,0.88,0.52,1.31,0.66c0.43,0.15,0.86,0.22,1.29,0.22c0.63,0,1.11-0.09,1.42-0.26c0.32-0.17,0.47-0.43,0.47-0.78
				c0-0.23-0.09-0.4-0.26-0.52c-0.17-0.12-0.39-0.19-0.64-0.23c-0.26-0.04-0.62-0.08-1.08-0.11c-0.04,0-0.09,0-0.13,0
				c-0.05,0-0.09-0.01-0.13-0.01c-0.02,0-0.04,0-0.06,0c-0.02,0-0.04,0-0.06,0c-0.53-0.04-0.97-0.11-1.34-0.2
				c-0.37-0.1-0.67-0.29-0.91-0.56c-0.24-0.27-0.36-0.66-0.36-1.17c0-0.51,0.12-0.93,0.35-1.27c0.24-0.34,0.59-0.59,1.05-0.76
				c0.46-0.17,1.05-0.25,1.75-0.25c0.42,0,0.83,0.03,1.21,0.1c0.38,0.07,0.75,0.17,1.1,0.31c0.35,0.14,0.69,0.31,1.01,0.52
				l-0.96,1.03c-0.41-0.23-0.81-0.4-1.2-0.52c-0.39-0.12-0.78-0.17-1.16-0.17c-0.54,0-0.95,0.08-1.22,0.25
				c-0.27,0.16-0.41,0.41-0.41,0.74c0,0.19,0.08,0.34,0.23,0.44c0.15,0.1,0.35,0.16,0.58,0.19c0.24,0.03,0.57,0.06,1,0.08
				c0.03,0,0.06,0.01,0.1,0.01c0.03,0,0.07,0,0.11,0.01c0.02,0,0.03,0,0.05,0c0.02,0,0.03,0,0.05,0.01c0.57,0.03,1.05,0.1,1.45,0.2
				c0.4,0.1,0.74,0.3,1.01,0.6c0.27,0.3,0.41,0.73,0.41,1.3c0,0.52-0.13,0.95-0.38,1.28c-0.25,0.34-0.63,0.59-1.13,0.77
				c-0.5,0.17-1.14,0.26-1.9,0.26C169.01,147.43,168.56,147.39,168.14,147.31z"/>
			<path class="st9" d="M174.94,140.14h1.6v10.11h-1.6V140.14z M177.26,147.11c-0.38-0.21-0.65-0.52-0.83-0.91l0.11-1.5
				c0,0.31,0.06,0.57,0.19,0.79c0.13,0.22,0.31,0.38,0.54,0.5c0.24,0.12,0.53,0.17,0.87,0.17c0.53,0,0.94-0.14,1.23-0.43
				c0.29-0.28,0.43-0.68,0.43-1.2v-1.56c0-0.53-0.15-0.93-0.43-1.23c-0.29-0.29-0.7-0.44-1.23-0.44c-0.34,0-0.63,0.06-0.87,0.17
				c-0.24,0.11-0.42,0.27-0.54,0.49c-0.13,0.21-0.19,0.47-0.19,0.77l-0.16-1.39c0.25-0.42,0.57-0.74,0.96-0.97
				c0.4-0.23,0.84-0.34,1.32-0.34c0.57,0,1.07,0.11,1.48,0.34c0.41,0.23,0.72,0.56,0.94,1c0.21,0.44,0.32,0.97,0.32,1.59v1.57
				c0,0.61-0.11,1.13-0.33,1.57c-0.22,0.43-0.54,0.77-0.96,0.99c-0.42,0.23-0.93,0.34-1.52,0.34
				C178.08,147.43,177.64,147.32,177.26,147.11z"/>
			<path class="st9" d="M184.98,147.06c-0.5-0.24-0.88-0.6-1.15-1.07c-0.26-0.47-0.4-1.03-0.4-1.69v-1.17c0-0.65,0.13-1.21,0.4-1.67
				c0.26-0.46,0.65-0.82,1.15-1.06c0.5-0.24,1.11-0.36,1.81-0.36s1.31,0.12,1.81,0.36c0.5,0.24,0.88,0.6,1.15,1.06
				c0.26,0.46,0.4,1.02,0.4,1.67v1.19c0,0.66-0.13,1.22-0.4,1.68c-0.26,0.46-0.65,0.82-1.15,1.06c-0.5,0.24-1.11,0.37-1.81,0.37
				S185.49,147.31,184.98,147.06z M188.09,145.62c0.31-0.31,0.46-0.74,0.46-1.3v-1.19c0-0.56-0.15-0.99-0.46-1.3
				c-0.31-0.3-0.74-0.46-1.3-0.46c-0.56,0-0.99,0.15-1.3,0.46c-0.31,0.3-0.46,0.74-0.46,1.3v1.19c0,0.56,0.15,0.99,0.46,1.3
				c0.31,0.31,0.74,0.46,1.3,0.46C187.35,146.09,187.79,145.93,188.09,145.62z"/>
			<path class="st9" d="M192.42,140.14h1.6v7.19h-1.6V140.14z M196.36,141.49c-0.21-0.08-0.46-0.12-0.74-0.12
				c-0.51,0-0.9,0.12-1.18,0.37c-0.28,0.25-0.42,0.59-0.42,1.03l-0.16-1.39c0.25-0.43,0.57-0.76,0.97-1
				c0.4-0.24,0.84-0.36,1.32-0.36c0.37,0,0.71,0.05,1.01,0.14c0.3,0.09,0.56,0.23,0.79,0.42l-1.04,1.25
				C196.76,141.69,196.58,141.57,196.36,141.49z"/>
			<path class="st9" d="M198.65,140.14h3.67v1.27h-3.67V140.14z M199.94,146.88c-0.31-0.32-0.46-0.8-0.46-1.42v-7.41h1.6v7.42
				c0,0.18,0.04,0.31,0.12,0.41s0.19,0.14,0.34,0.14h0.77v1.34h-0.92C200.73,147.36,200.25,147.2,199.94,146.88z"/>
		</g>
		<g>
			<path class="st9" d="M193.4,127.45l0.77,2.09c-0.92,0.3-1.38,0.84-1.38,1.63c0,0.37,0.1,0.66,0.31,0.88
				c0.2,0.22,0.44,0.32,0.71,0.32c0.31,0,0.57-0.13,0.75-0.38c0.19-0.25,0.43-0.79,0.74-1.6c0.27-0.74,0.53-1.32,0.79-1.74
				c0.26-0.42,0.61-0.77,1.06-1.03c0.45-0.26,0.97-0.39,1.56-0.39c1.04,0,1.89,0.37,2.55,1.11c0.66,0.74,1,1.73,1,2.96
				c0,2.08-1.02,3.41-3.05,3.99l-0.61-2.2c1.12-0.27,1.68-0.88,1.68-1.84c0-0.44-0.11-0.79-0.33-1.06s-0.51-0.41-0.87-0.41
				c-0.27,0-0.51,0.1-0.73,0.29c-0.21,0.19-0.44,0.63-0.68,1.31c-0.3,0.88-0.58,1.54-0.83,1.97c-0.25,0.43-0.6,0.79-1.06,1.07
				c-0.46,0.28-0.98,0.42-1.57,0.42c-1,0-1.82-0.33-2.45-1c-0.64-0.66-0.96-1.54-0.96-2.64
				C190.82,129.18,191.68,127.94,193.4,127.45z"/>
			<path class="st9" d="M190.99,127.17v-2.78l4.05-1.62l-4.05-1.73v-2.46l6.41,3.19h4.69v2.52h-4.69L190.99,127.17z"/>
			<path class="st9" d="M193.4,110.95l0.77,2.09c-0.92,0.3-1.38,0.84-1.38,1.63c0,0.37,0.1,0.66,0.31,0.88
				c0.2,0.22,0.44,0.32,0.71,0.32c0.31,0,0.57-0.13,0.75-0.38c0.19-0.25,0.43-0.79,0.74-1.6c0.27-0.74,0.53-1.32,0.79-1.74
				c0.26-0.42,0.61-0.77,1.06-1.03c0.45-0.26,0.97-0.39,1.56-0.39c1.04,0,1.89,0.37,2.55,1.11c0.66,0.74,1,1.73,1,2.96
				c0,2.08-1.02,3.41-3.05,3.99l-0.61-2.2c1.12-0.27,1.68-0.88,1.68-1.84c0-0.44-0.11-0.79-0.33-1.06
				c-0.22-0.27-0.51-0.41-0.87-0.41c-0.27,0-0.51,0.1-0.73,0.29c-0.21,0.19-0.44,0.63-0.68,1.31c-0.3,0.88-0.58,1.54-0.83,1.97
				c-0.25,0.43-0.6,0.79-1.06,1.07c-0.46,0.28-0.98,0.42-1.57,0.42c-1,0-1.82-0.33-2.45-1c-0.64-0.66-0.96-1.54-0.96-2.64
				C190.82,112.69,191.68,111.44,193.4,110.95z"/>
			<path class="st9" d="M190.99,110.08v-7.15h2.08v2.35h9.02v2.52h-9.02v2.29H190.99z"/>
			<path class="st9" d="M190.99,102.05v-6.98h1.9v4.46h2.58v-3.46h1.9v3.46h2.73v-4.46h1.99v6.98H190.99z"/>
			<path class="st9" d="M190.99,93.83v-3.7l6.86-1.62l-6.86-1.82V83.1h11.11v2.36h-9.3l9.3,2.35v1.83l-9.3,2.14h9.3v2.05H190.99z"/>
		</g>
		<g>
			<polygon class="st9" points="104.11,114.45 118.55,114.45 120.3,115.63 105.07,115.63 103.32,114.44 			"/>
			<polygon class="st9" points="104.11,105.35 118.55,105.35 120.3,106.66 105.07,106.66 103.32,105.35 			"/>
			<polygon class="st9" points="104.11,96.26 118.55,96.26 120.3,98.43 105.07,98.43 103.32,96.25 			"/>
			<polygon class="st9" points="104.11,87.17 118.55,87.17 120.3,90.18 105.07,90.18 103.32,87.15 			"/>
			<polygon class="st9" points="104.11,78.07 118.55,78.07 120.3,79.81 105.07,79.81 103.32,78.05 			"/>
		</g>
	</g>
	<g>
		<g>
			<g>
				<path class="st8" d="M33.81,115.26c0-1.73-0.01-3.41,0-5.09c0.01-1.1,0.02-1.13,1.12-1.06c1.39,0.09,2.81,0.12,4.17,0.39
					c1.54,0.31,3.11,0.61,4.53,1.36c0.93,0.49,1.89,0.94,2.83,1.4c0.14,0.07,0.3,0.1,0.47,0.1c-3.83-2.94-8.28-3.81-12.99-3.82
					c-0.01-0.06-0.03-0.13-0.04-0.19c0.14-0.07,0.29-0.22,0.42-0.2c1.11,0.1,2.21,0.23,3.32,0.37c0.46,0.06,0.91,0.15,1.37,0.24
					c1.03,0.22,2.07,0.39,3.07,0.69c0.81,0.24,1.59,0.63,2.36,0.99c0.53,0.25,1.05,0.52,1.54,0.83c1.52,0.99,3.02,2.01,4.52,3.02
					c0.3,0.2,0.65,0.39,0.84,0.67c0.17,0.25,0.27,0.66,0.2,0.95c-0.04,0.17-0.48,0.35-0.73,0.34c-1.6-0.09-3.19-0.26-4.79-0.35
					c-1.49-0.08-2.99-0.1-4.48-0.15c-2.11-0.08-4.21-0.17-6.32-0.28C34.75,115.44,34.26,115.33,33.81,115.26z"/>
				<path class="st8" d="M68.16,123.26c2.98-0.02,5.49,2.48,5.46,5.33c-0.04,3.3-2.44,5.43-5.43,5.47
					c-2.85,0.04-5.41-2.26-5.42-5.42C62.76,125.73,65.26,123.25,68.16,123.26z M69.23,130.35c-0.04,0.03-0.09,0.07-0.13,0.1
					c0.05,0.93,0.08,1.86,0.17,2.78c0.01,0.12,0.34,0.35,0.42,0.31c0.67-0.35,1.47-0.5,1.95-1.31
					C70.84,131.61,70.03,130.98,69.23,130.35z M63.34,129.87c1.01-0.41,1.96-0.79,3.08-1.24c-1.12-0.52-2.07-0.96-3.06-1.42
					C63.01,128.15,62.89,129,63.34,129.87z M69.11,126.93c0.06,0.04,0.11,0.08,0.17,0.12c0.79-0.59,1.58-1.17,2.35-1.77
					c0.05-0.04,0.01-0.33-0.07-0.39c-0.53-0.37-1.08-0.73-1.65-1.04c-0.22-0.12-0.43-0.02-0.44,0.3c-0.01,0.28-0.07,0.55-0.1,0.83
					C69.28,125.62,69.2,126.28,69.11,126.93z M67.19,130.41c-0.05-0.02-0.1-0.04-0.15-0.06c-0.83,0.58-1.66,1.16-2.48,1.74
					c0,0.08-0.01,0.16-0.01,0.24c0.7,0.43,1.39,0.85,2.09,1.28c0.07-0.03,0.14-0.06,0.21-0.08
					C66.96,132.49,67.08,131.45,67.19,130.41z M66.99,123.59c-0.76,0.41-1.4,0.72-2.01,1.11c-0.09,0.06-0.06,0.53,0.07,0.65
					c0.5,0.47,1.06,0.88,1.61,1.29c0.18,0.13,0.39,0.21,0.62,0.33C67.18,125.89,67.1,124.86,66.99,123.59z M73.13,127.43
					c-1.05,0.41-2.04,0.8-3.19,1.25c1.13,0.52,2.09,0.96,3.19,1.46C73.13,129.21,73.13,128.39,73.13,127.43z M68.4,127.94
					c-0.66,0.01-0.76,0.48-0.76,0.75c0.01,0.24,0.14,0.66,0.61,0.64c0.46-0.02,0.62-0.39,0.62-0.69
					C68.87,128.41,68.57,128.18,68.4,127.94z M69.34,127.54c-0.21-0.15-0.33-0.3-0.45-0.31c-0.1,0-0.3,0.2-0.28,0.27
					c0.04,0.16,0.19,0.29,0.29,0.44C69.01,127.84,69.13,127.73,69.34,127.54z M68.08,127.74c-0.04-0.08-0.08-0.16-0.13-0.24
					c-0.11-0.09-0.25-0.26-0.32-0.24c-0.13,0.04-0.31,0.21-0.31,0.31c0.01,0.13,0.17,0.35,0.29,0.37
					C67.75,127.95,67.92,127.81,68.08,127.74z M68.08,129.75c-0.24-0.16-0.4-0.34-0.49-0.31c-0.12,0.04-0.26,0.23-0.27,0.37
					c-0.01,0.09,0.19,0.3,0.28,0.29C67.73,130.09,67.85,129.93,68.08,129.75z M69.38,129.79c-0.22-0.18-0.34-0.37-0.45-0.36
					c-0.12,0.01-0.31,0.2-0.31,0.32c0,0.12,0.16,0.32,0.28,0.36C68.99,130.13,69.14,129.95,69.38,129.79z M66.96,128.19
					c-0.2,0.25-0.31,0.39-0.42,0.53c0.02,0.05,0.05,0.11,0.07,0.16c0.24-0.02,0.48-0.05,0.72-0.07
					C67.19,128.58,67.1,128.43,66.96,128.19z M69.9,128.87c0.03-0.1,0.05-0.2,0.08-0.29c-0.22-0.08-0.43-0.17-0.65-0.25
					c-0.04,0.15-0.08,0.3-0.12,0.45C69.44,128.81,69.67,128.84,69.9,128.87z"/>
				<path class="st8" d="M27.89,123.5c0.17-0.25,0.4-0.49,0.5-0.77c0.25-0.73,0.73-0.87,1.46-0.87c9.05,0.03,18.09,0.02,27.14,0.02
					c0.2,0,0.4,0,0.61,0c-0.18,0.53-0.3,0.99-0.49,1.42c-0.07,0.15-0.27,0.28-0.43,0.35c-0.15,0.06-0.33,0.01-0.5,0.01
					c-9.16,0-18.32,0-27.48,0c-0.22,0-0.44,0-0.66,0C27.99,123.62,27.94,123.56,27.89,123.5z"/>
				<path class="st8" d="M75.57,120.56c0.18-0.08,0.4-0.23,0.62-0.26c1.11-0.11,2.21-0.08,3.26,0.41c0.37,0.17,0.84,0.11,1.04,0.61
					c0.21,0.53-0.03,1.06-0.59,1.1c-0.54,0.04-1.01-0.06-1.51-0.39C77.53,121.47,76.56,121.07,75.57,120.56z"/>
			</g>
			<path class="st8" d="M92.2,111.83c-0.7-2.14-1.72-4.04-3.23-5.69c-1.07-1.19-2.39-2.05-3.77-2.84c-1.28-0.73-2.71-1.04-4.11-1.37
				c-0.42-0.1-0.83-0.21-1.24-0.32c0.34-0.23,0.68-0.35,1.02-0.47c0.88-0.31,1.81-0.52,2.63-0.95c1.36-0.71,2.67-1.52,3.79-2.6
				c0.91-0.87,1.71-1.79,2.37-2.86c0.72-1.15,1.25-2.37,1.72-3.65c0.62-1.7,0.79-3.46,0.93-5.22c0.14-1.84-0.05-3.69-0.55-5.47
				c-0.34-1.21-0.79-2.42-1.36-3.54c-0.45-0.89-1.15-1.66-1.74-2.48c-0.63-0.86-1.43-1.55-2.34-2.07c-0.86-0.5-1.75-0.97-2.67-1.34
				c-1.15-0.46-2.33-0.93-3.54-1.17c-1.58-0.31-3.21-0.56-4.81-0.56c-3.91-0.01-7.82,0.03-11.72,0.08l-9.24-0.02l-20.72-0.06v37.67
				c0.41,0.03,1.18,0.12,1.57,0.17c0.08,0.01,0.15,0.02,0.23,0.03c0.21,0.03,0.43,0.05,0.64,0.06c1.71,0.07,3.37,0.38,5.05,0.78
				c1.6,0.38,3.14,0.92,4.63,1.57c1.65,0.72,3.2,1.66,4.77,2.55c1.02,0.57,2,1.2,2.98,1.82c0.29,0.18,0.57,0.37,0.85,0.55
				c0.64,0.42,1.29,0.85,1.94,1.27c0.24,0.15,0.53,0.32,0.8,0.34c1.04,0.1,2.08,0.15,3.12,0.22c1.06,0.07,2.12,0.13,3.17,0.22
				c2.19,0.19,4.37,0.39,6.55,0.61c0.83,0.08,1.67,0.18,2.48,0.37c1.4,0.34,2.78,0.8,4.18,1.16c1.39,0.35,2.69,0.93,3.9,1.68
				c0.37,0.23,0.7,0.67,0.86,1.08c0.28,0.72,0.37,1.5,0.61,2.23c0.13,0.4,0.41,0.75,0.6,1.14c0.1,0.2,0.23,0.44,0.2,0.64
				c-0.08,0.44-0.3,0.87-0.36,1.32c-0.13,0.96-0.21,1.93-0.28,2.9c-0.03,0.6,0.03,1.21-0.01,1.8c-0.01,0.13-0.25,0.32-0.42,0.36
				c-0.37,0.1-0.77,0.18-1.16,0.19c-1.55,0.03-3.1,0.02-4.65,0.04c-0.33,0-0.44-0.15-0.37-0.45c0.15-0.63,0.31-1.25,0.48-1.97h5.53
				c-1.54-0.12-3.07-0.12-4.6-0.12c-1.05,0-1.09,0-1.05-1.04c0.04-1.34-0.37-2.59-1-3.7c-0.59-1.05-1.47-1.91-2.57-2.53
				c-1.33-0.74-2.79-1.01-4.22-0.96c-1.4,0.04-2.83,0.26-4.11,1.1c-1.12,0.73-1.91,1.69-2.45,2.83c-0.57,1.19-0.99,2.48-0.91,3.85
				c0.02,0.31-0.12,0.45-0.43,0.44c-0.17,0-0.33,0-0.5,0H34.21c-1.86,0-1.86,0-1.73,1.93h29.44c-1.4-3.04-0.22-7.68,4.03-9.17
				c2.87-1.01,7.68,0,8.91,4.98c0.82,3.27-0.94,6.56-4.61,8.04c1.9,0.01,6.07-0.09,8.47-0.7c1.75-0.44,3.44-1,5.05-1.78
				c1.11-0.53,2.21-1.15,3.15-1.94c1.06-0.91,1.95-2.03,2.88-3.09c0.34-0.39,0.61-0.86,0.84-1.33c0.28-0.57,0.44-1.21,0.74-1.77
				c0.77-1.43,1.19-3,1.35-4.57C93.04,117.3,93.09,114.55,92.2,111.83z M54.36,82.2c0.11-0.01,0.2-0.03,0.29-0.03
				c3.51,0.01,7.03-0.04,10.54,0.06c1.48,0.04,3.01,0.2,4.37,0.89c1.04,0.53,1.86,1.37,2.26,2.44c0.76,2.05,0.73,4.08-0.35,6.08
				c-0.43,0.8-0.99,1.44-1.66,1.98c-0.48,0.39-1.11,0.64-1.7,0.84c-0.91,0.29-1.85,0.48-2.79,0.69c-0.34,0.07-0.7,0.07-1.06,0.08
				c-3.3,0.01-6.6,0.02-9.9,0.03V82.2z M72.99,116.83c-0.93-0.12-1.76-0.22-2.6-0.36c-0.64-0.1-1.26-0.28-1.91-0.36
				c-1.03-0.13-2.07-0.22-3.1-0.3c-1.84-0.12-3.68-0.21-5.52-0.32c-0.97-0.06-1.93-0.13-2.9-0.21c-0.18-0.01-0.36-0.08-0.51-0.18
				c-0.7-0.46-1.39-0.95-2.09-1.41v-5.4c3.92,0,7.86,0,11.78,0.04c1.57,0.01,3.13,0.32,4.45,1.15c1.18,0.74,2.14,1.78,2.36,3.26
				c0.12,0.82,0.21,1.65,0.23,2.48C73.2,115.75,73.06,116.28,72.99,116.83z"/>
		</g>
	</g>
</g>
</svg>
