<?xml version="1.0" encoding="utf-8"?>
<!-- Generator: Adobe Illustrator 27.0.0, SVG Export Plug-In . SVG Version: 6.00 Build 0)  -->
<svg version="1.1" id="Layer_1" xmlns="http://www.w3.org/2000/svg" xmlns:xlink="http://www.w3.org/1999/xlink" x="0px" y="0px"
	 viewBox="0 0 226.77 226.77" style="enable-background:new 0 0 226.77 226.77;" xml:space="preserve">
<style type="text/css">
	.st0{fill:#FFF200;}
	.st1{stroke:#000000;stroke-width:5.2476;stroke-miterlimit:10;}
	.st2{fill:#FFFFFF;}
	.st3{fill:#ED1C24;}
	.st4{fill:#50B848;}
	.st5{fill:#007F3E;}
	.st6{fill:#F58220;}
	.st7{fill:#F37021;}
	.st8{fill:#1282C5;}
	.st9{fill:#F7941D;}
	.st10{fill:#FFFFFF;stroke:#FFFFFF;stroke-width:2.321;stroke-linecap:round;stroke-linejoin:round;}
	.st11{fill:#00854A;}
	.st12{fill:#34B34A;}
	.st13{fill:#13421E;}
	.st14{fill:#8CC540;stroke:#FFFFFF;stroke-width:1.2029;stroke-miterlimit:10;}
	.st15{fill:#065643;stroke:#FFFFFF;stroke-width:1.2029;stroke-miterlimit:10;}
	.st16{fill:#FFCB05;}
	.st17{fill:#224D71;}
	.st18{fill:#F8BC1B;}
	.st19{fill:#4CB748;}
	.st20{fill:url(#SVGID_00000013175251012798797850000015810525438429925509_);}
	.st21{fill:none;stroke:#FFFFFF;stroke-width:0.8396;stroke-miterlimit:10;}
	
		.st22{fill:url(#SVGID_00000163769840812907223420000012106568693305591181_);stroke:url(#SVGID_00000132059375892452034710000013767827027331116699_);stroke-width:0.6997;stroke-miterlimit:10;}
	
		.st23{fill:url(#SVGID_00000086674224678400726450000001251442970518790591_);stroke:url(#SVGID_00000122710421259600406680000006710309570304320693_);stroke-width:0.6997;stroke-miterlimit:10;}
	
		.st24{fill:url(#SVGID_00000181769711112260589710000008930465837351784376_);stroke:url(#SVGID_00000159458701326730627170000006129195737191624620_);stroke-width:0.6997;stroke-miterlimit:10;}
	
		.st25{fill:url(#SVGID_00000063626083037360892570000009951742597345004428_);stroke:url(#SVGID_00000127732754956849773040000010913820697543735989_);stroke-width:0.6997;stroke-miterlimit:10;}
	
		.st26{fill:url(#SVGID_00000109738608671319453670000012961247406850115260_);stroke:url(#SVGID_00000004540592244582069740000013877639896767193268_);stroke-width:0.6997;stroke-miterlimit:10;}
	.st27{fill:url(#SVGID_00000052793375065692499680000003537430030165858193_);}
	.st28{fill:url(#SVGID_00000155860571165158910140000004443458834909378737_);}
	.st29{fill:#005826;}
	.st30{fill:#BFD730;}
	.st31{fill:#00A651;stroke:#000000;stroke-width:2.8889;stroke-linecap:round;stroke-linejoin:round;stroke-miterlimit:10;}
	.st32{fill:#FFF200;stroke:#000000;stroke-width:2.8889;stroke-linecap:round;stroke-linejoin:round;stroke-miterlimit:10;}
	.st33{fill:#8DC63F;stroke:#000000;stroke-width:2.8889;stroke-linecap:round;stroke-linejoin:round;stroke-miterlimit:10;}
	.st34{fill:#0DB14B;stroke:#000000;stroke-width:2.8889;stroke-linecap:round;stroke-linejoin:round;stroke-miterlimit:10;}
	.st35{fill:#FFFFFF;stroke:#000000;stroke-width:2.8889;stroke-linecap:round;stroke-linejoin:round;stroke-miterlimit:10;}
	.st36{fill:#00A651;}
	.st37{fill:#8DC63F;}
	.st38{fill:#0DB14B;}
	.st39{fill:#034EA2;}
	.st40{fill:#00763F;}
	.st41{fill:url(#SVGID_00000029743670842669944030000000590091877168193163_);}
	.st42{fill:url(#SVGID_00000169553218148358416280000000300277711334727351_);}
	.st43{fill:url(#SVGID_00000007391301792656097230000017064059109962423966_);}
	.st44{fill:url(#SVGID_00000004528724010107467280000014891537774097792688_);}
	.st45{fill:url(#SVGID_00000029035938892870260450000005611515158878973856_);}
	.st46{fill:url(#SVGID_00000003796121793768239790000004710844424882619017_);}
	.st47{fill:url(#SVGID_00000018204976075649841720000010507858221469721500_);}
	.st48{fill:url(#SVGID_00000041264579240773910900000009959338175052746673_);}
	.st49{fill:url(#SVGID_00000122686068121717924620000004159669703770251401_);}
	.st50{fill:url(#SVGID_00000158029173824171247940000010306879506721338784_);}
	.st51{fill:#FFFFFF;stroke:#FFFFFF;stroke-width:4.8073;stroke-linecap:round;stroke-linejoin:round;stroke-miterlimit:10;}
	.st52{fill:url(#SVGID_00000011742851249595006840000003470017289736048541_);}
	.st53{fill:#00A651;stroke:#00A651;stroke-width:4.2345;stroke-linecap:round;stroke-linejoin:round;stroke-miterlimit:10;}
	.st54{fill:#939598;stroke:#939598;stroke-width:4.2345;stroke-linecap:round;stroke-linejoin:round;stroke-miterlimit:10;}
	.st55{fill:#CE181E;stroke:#CE181E;stroke-width:9.3609;stroke-miterlimit:10;}
	
		.st56{fill:none;stroke:url(#SVGID_00000063633648907887394400000005512442341876230838_);stroke-width:3.3359;stroke-miterlimit:10;}
	.st57{fill-rule:evenodd;clip-rule:evenodd;fill:#21A347;}
	.st58{filter:url(#Adobe_OpacityMaskFilter);}
	
		.st59{clip-path:url(#SVGID_00000026870906950335503870000008479917992517823896_);fill-rule:evenodd;clip-rule:evenodd;fill:url(#);}
	
		.st60{opacity:0.49;clip-path:url(#SVGID_00000026870906950335503870000008479917992517823896_);mask:url(#SVGID_00000034797275810448977000000007344263701191053733_);fill-rule:evenodd;clip-rule:evenodd;}
	
		.st61{clip-path:url(#SVGID_00000026870906950335503870000008479917992517823896_);fill-rule:evenodd;clip-rule:evenodd;fill:#007836;}
	.st62{filter:url(#Adobe_OpacityMaskFilter_00000003783668206448982100000002550040835406776201_);}
	
		.st63{opacity:0.49;clip-path:url(#SVGID_00000026870906950335503870000008479917992517823896_);mask:url(#SVGID_00000052076375710306817130000017048737721978787763_);fill-rule:evenodd;clip-rule:evenodd;}
	
		.st64{clip-path:url(#SVGID_00000026870906950335503870000008479917992517823896_);fill-rule:evenodd;clip-rule:evenodd;fill:#95C940;}
	.st65{fill-rule:evenodd;clip-rule:evenodd;fill:#FFFFFF;}
	.st66{fill:#FFC759;}
	.st67{fill:#D1A342;}
	.st68{fill:none;}
	.st69{clip-path:url(#SVGID_00000057856260072424713450000009355809788107532975_);}
	.st70{clip-path:url(#SVGID_00000161603818578911174070000000041464764816824763_);}
	.st71{fill:#9E1D20;}
	.st72{fill:#86888A;}
	.st73{fill:url(#SVGID_00000093143307714001615990000014535651877697366161_);}
	.st74{fill:url(#SVGID_00000127735093168581174430000002359225277178267579_);}
	.st75{fill:url(#SVGID_00000088127364049456240400000010015378801487466629_);}
	.st76{fill:url(#SVGID_00000097498198171929520340000001449367930176470455_);}
	.st77{fill:#F89522;}
	.st78{fill:#C0BFBF;}
	.st79{clip-path:url(#SVGID_00000053527490389437296180000006739281122699421080_);}
	.st80{clip-path:url(#SVGID_00000161622624550663084780000014827463267335909788_);fill:#650F0E;}
	.st81{clip-path:url(#SVGID_00000161622624550663084780000014827463267335909788_);fill:#670E0D;}
	.st82{clip-path:url(#SVGID_00000161622624550663084780000014827463267335909788_);fill:#690C0D;}
	.st83{clip-path:url(#SVGID_00000161622624550663084780000014827463267335909788_);fill:#6C0D0F;}
	.st84{clip-path:url(#SVGID_00000161622624550663084780000014827463267335909788_);fill:#6F0F10;}
	.st85{clip-path:url(#SVGID_00000161622624550663084780000014827463267335909788_);fill:#700F10;}
	.st86{clip-path:url(#SVGID_00000161622624550663084780000014827463267335909788_);fill:#721011;}
	.st87{clip-path:url(#SVGID_00000161622624550663084780000014827463267335909788_);fill:#741012;}
	.st88{clip-path:url(#SVGID_00000161622624550663084780000014827463267335909788_);fill:#761113;}
	.st89{clip-path:url(#SVGID_00000161622624550663084780000014827463267335909788_);fill:#781214;}
	.st90{clip-path:url(#SVGID_00000161622624550663084780000014827463267335909788_);fill:#7A1214;}
	.st91{clip-path:url(#SVGID_00000161622624550663084780000014827463267335909788_);fill:#7B1315;}
	.st92{clip-path:url(#SVGID_00000161622624550663084780000014827463267335909788_);fill:#7D1416;}
	.st93{clip-path:url(#SVGID_00000161622624550663084780000014827463267335909788_);fill:#7F1416;}
	.st94{clip-path:url(#SVGID_00000161622624550663084780000014827463267335909788_);fill:#801517;}
	.st95{clip-path:url(#SVGID_00000161622624550663084780000014827463267335909788_);fill:#811517;}
	.st96{clip-path:url(#SVGID_00000161622624550663084780000014827463267335909788_);fill:#831618;}
	.st97{clip-path:url(#SVGID_00000161622624550663084780000014827463267335909788_);fill:#851619;}
	.st98{clip-path:url(#SVGID_00000161622624550663084780000014827463267335909788_);fill:#871719;}
	.st99{clip-path:url(#SVGID_00000161622624550663084780000014827463267335909788_);fill:#88171A;}
	.st100{clip-path:url(#SVGID_00000161622624550663084780000014827463267335909788_);fill:#89181A;}
	.st101{clip-path:url(#SVGID_00000161622624550663084780000014827463267335909788_);fill:#8B181B;}
	.st102{clip-path:url(#SVGID_00000161622624550663084780000014827463267335909788_);fill:#8D181B;}
	.st103{clip-path:url(#SVGID_00000161622624550663084780000014827463267335909788_);fill:#8F191C;}
	.st104{clip-path:url(#SVGID_00000161622624550663084780000014827463267335909788_);fill:#91191C;}
	.st105{clip-path:url(#SVGID_00000161622624550663084780000014827463267335909788_);fill:#921A1D;}
	.st106{clip-path:url(#SVGID_00000161622624550663084780000014827463267335909788_);fill:#941A1D;}
	.st107{clip-path:url(#SVGID_00000161622624550663084780000014827463267335909788_);fill:#951B1E;}
	.st108{clip-path:url(#SVGID_00000161622624550663084780000014827463267335909788_);fill:#971B1E;}
	.st109{clip-path:url(#SVGID_00000161622624550663084780000014827463267335909788_);fill:#981B1F;}
	.st110{clip-path:url(#SVGID_00000161622624550663084780000014827463267335909788_);fill:#9A1C1F;}
	.st111{clip-path:url(#SVGID_00000161622624550663084780000014827463267335909788_);fill:#9B1C1F;}
	.st112{clip-path:url(#SVGID_00000161622624550663084780000014827463267335909788_);fill:#9D1C20;}
	.st113{clip-path:url(#SVGID_00000161622624550663084780000014827463267335909788_);fill:#9E1D20;}
	.st114{clip-path:url(#SVGID_00000161622624550663084780000014827463267335909788_);fill:#A01D20;}
	.st115{clip-path:url(#SVGID_00000161622624550663084780000014827463267335909788_);fill:#A01D21;}
	.st116{clip-path:url(#SVGID_00000161622624550663084780000014827463267335909788_);fill:#A11D21;}
	.st117{clip-path:url(#SVGID_00000161622624550663084780000014827463267335909788_);fill:#A21E21;}
	.st118{clip-path:url(#SVGID_00000161622624550663084780000014827463267335909788_);fill:#A31E22;}
	.st119{clip-path:url(#SVGID_00000161622624550663084780000014827463267335909788_);fill:#A51E22;}
	.st120{clip-path:url(#SVGID_00000161622624550663084780000014827463267335909788_);fill:#A61E22;}
	.st121{clip-path:url(#SVGID_00000161622624550663084780000014827463267335909788_);fill:#A71E22;}
	.st122{clip-path:url(#SVGID_00000161622624550663084780000014827463267335909788_);fill:#A91E23;}
	.st123{clip-path:url(#SVGID_00000161622624550663084780000014827463267335909788_);fill:#AB1F23;}
	.st124{clip-path:url(#SVGID_00000161622624550663084780000014827463267335909788_);fill:#AC1F23;}
	.st125{clip-path:url(#SVGID_00000161622624550663084780000014827463267335909788_);fill:#AD1F23;}
	.st126{clip-path:url(#SVGID_00000161622624550663084780000014827463267335909788_);fill:#AE1F24;}
	.st127{clip-path:url(#SVGID_00000161622624550663084780000014827463267335909788_);fill:#AF1F24;}
	.st128{clip-path:url(#SVGID_00000161622624550663084780000014827463267335909788_);fill:#B22024;}
	.st129{clip-path:url(#SVGID_00000161622624550663084780000014827463267335909788_);fill:#B32025;}
	.st130{clip-path:url(#SVGID_00000161622624550663084780000014827463267335909788_);fill:#B42025;}
	.st131{clip-path:url(#SVGID_00000161622624550663084780000014827463267335909788_);fill:#B52025;}
	.st132{clip-path:url(#SVGID_00000161622624550663084780000014827463267335909788_);fill:#B72025;}
	.st133{clip-path:url(#SVGID_00000161622624550663084780000014827463267335909788_);fill:#B92025;}
	.st134{clip-path:url(#SVGID_00000161622624550663084780000014827463267335909788_);fill:#BC2026;}
	.st135{clip-path:url(#SVGID_00000161622624550663084780000014827463267335909788_);fill:#BE2126;}
	.st136{clip-path:url(#SVGID_00000161622624550663084780000014827463267335909788_);fill:#BF2126;}
	.st137{clip-path:url(#SVGID_00000161622624550663084780000014827463267335909788_);fill:#C02126;}
	.st138{clip-path:url(#SVGID_00000161622624550663084780000014827463267335909788_);fill:#C12126;}
	.st139{clip-path:url(#SVGID_00000161622624550663084780000014827463267335909788_);fill:#C22126;}
	.st140{clip-path:url(#SVGID_00000161622624550663084780000014827463267335909788_);fill:#C32126;}
	.st141{clip-path:url(#SVGID_00000161622624550663084780000014827463267335909788_);fill:#C42126;}
	.st142{clip-path:url(#SVGID_00000161622624550663084780000014827463267335909788_);fill:#C52126;}
	.st143{clip-path:url(#SVGID_00000161622624550663084780000014827463267335909788_);fill:#C62127;}
	.st144{clip-path:url(#SVGID_00000161622624550663084780000014827463267335909788_);fill:#C72127;}
	.st145{clip-path:url(#SVGID_00000161622624550663084780000014827463267335909788_);fill:#C82127;}
	.st146{clip-path:url(#SVGID_00000161622624550663084780000014827463267335909788_);fill:#C92127;}
	.st147{clip-path:url(#SVGID_00000161622624550663084780000014827463267335909788_);fill:#CA2127;}
	.st148{clip-path:url(#SVGID_00000161622624550663084780000014827463267335909788_);fill:#CA2027;}
	.st149{clip-path:url(#SVGID_00000161622624550663084780000014827463267335909788_);fill:#CC2027;}
	.st150{clip-path:url(#SVGID_00000161622624550663084780000014827463267335909788_);fill:#CD2027;}
	.st151{clip-path:url(#SVGID_00000161622624550663084780000014827463267335909788_);fill:#CE2127;}
	.st152{clip-path:url(#SVGID_00000161622624550663084780000014827463267335909788_);fill:#CF2127;}
	.st153{clip-path:url(#SVGID_00000161622624550663084780000014827463267335909788_);fill:#D02027;}
	.st154{clip-path:url(#SVGID_00000161622624550663084780000014827463267335909788_);fill:#D12027;}
	.st155{clip-path:url(#SVGID_00000161622624550663084780000014827463267335909788_);fill:#D22027;}
	.st156{clip-path:url(#SVGID_00000161622624550663084780000014827463267335909788_);fill:#D32027;}
	.st157{clip-path:url(#SVGID_00000161622624550663084780000014827463267335909788_);fill:#D42027;}
	.st158{clip-path:url(#SVGID_00000161622624550663084780000014827463267335909788_);fill:#D52027;}
	.st159{clip-path:url(#SVGID_00000161622624550663084780000014827463267335909788_);fill:#D62027;}
	.st160{clip-path:url(#SVGID_00000161622624550663084780000014827463267335909788_);fill:#D72027;}
	.st161{clip-path:url(#SVGID_00000161622624550663084780000014827463267335909788_);fill:#D71F27;}
	.st162{clip-path:url(#SVGID_00000004503882122059518170000012400102599327031960_);}
	.st163{clip-path:url(#SVGID_00000080910464331231208920000012690320978512946330_);fill:#650F0E;}
	.st164{clip-path:url(#SVGID_00000080910464331231208920000012690320978512946330_);fill:#670E0D;}
	.st165{clip-path:url(#SVGID_00000080910464331231208920000012690320978512946330_);fill:#690C0D;}
	.st166{clip-path:url(#SVGID_00000080910464331231208920000012690320978512946330_);fill:#6C0D0F;}
	.st167{clip-path:url(#SVGID_00000080910464331231208920000012690320978512946330_);fill:#6F0F10;}
	.st168{clip-path:url(#SVGID_00000080910464331231208920000012690320978512946330_);fill:#700F10;}
	.st169{clip-path:url(#SVGID_00000080910464331231208920000012690320978512946330_);fill:#721011;}
	.st170{clip-path:url(#SVGID_00000080910464331231208920000012690320978512946330_);fill:#741012;}
	.st171{clip-path:url(#SVGID_00000080910464331231208920000012690320978512946330_);fill:#761113;}
	.st172{clip-path:url(#SVGID_00000080910464331231208920000012690320978512946330_);fill:#781214;}
	.st173{clip-path:url(#SVGID_00000080910464331231208920000012690320978512946330_);fill:#7A1214;}
	.st174{clip-path:url(#SVGID_00000080910464331231208920000012690320978512946330_);fill:#7B1315;}
	.st175{clip-path:url(#SVGID_00000080910464331231208920000012690320978512946330_);fill:#7D1416;}
	.st176{clip-path:url(#SVGID_00000080910464331231208920000012690320978512946330_);fill:#7F1416;}
	.st177{clip-path:url(#SVGID_00000080910464331231208920000012690320978512946330_);fill:#801517;}
	.st178{clip-path:url(#SVGID_00000080910464331231208920000012690320978512946330_);fill:#811517;}
	.st179{clip-path:url(#SVGID_00000080910464331231208920000012690320978512946330_);fill:#831618;}
	.st180{clip-path:url(#SVGID_00000080910464331231208920000012690320978512946330_);fill:#851619;}
	.st181{clip-path:url(#SVGID_00000080910464331231208920000012690320978512946330_);fill:#871719;}
	.st182{clip-path:url(#SVGID_00000080910464331231208920000012690320978512946330_);fill:#88171A;}
	.st183{clip-path:url(#SVGID_00000080910464331231208920000012690320978512946330_);fill:#89181A;}
	.st184{clip-path:url(#SVGID_00000080910464331231208920000012690320978512946330_);fill:#8B181B;}
	.st185{clip-path:url(#SVGID_00000080910464331231208920000012690320978512946330_);fill:#8D181B;}
	.st186{clip-path:url(#SVGID_00000080910464331231208920000012690320978512946330_);fill:#8F191C;}
	.st187{clip-path:url(#SVGID_00000080910464331231208920000012690320978512946330_);fill:#91191C;}
	.st188{clip-path:url(#SVGID_00000080910464331231208920000012690320978512946330_);fill:#921A1D;}
	.st189{clip-path:url(#SVGID_00000080910464331231208920000012690320978512946330_);fill:#941A1D;}
	.st190{clip-path:url(#SVGID_00000080910464331231208920000012690320978512946330_);fill:#951B1E;}
	.st191{clip-path:url(#SVGID_00000080910464331231208920000012690320978512946330_);fill:#971B1E;}
	.st192{clip-path:url(#SVGID_00000080910464331231208920000012690320978512946330_);fill:#981B1F;}
	.st193{clip-path:url(#SVGID_00000080910464331231208920000012690320978512946330_);fill:#9A1C1F;}
	.st194{clip-path:url(#SVGID_00000080910464331231208920000012690320978512946330_);fill:#9B1C1F;}
	.st195{clip-path:url(#SVGID_00000080910464331231208920000012690320978512946330_);fill:#9D1C20;}
	.st196{clip-path:url(#SVGID_00000080910464331231208920000012690320978512946330_);fill:#9E1D20;}
	.st197{clip-path:url(#SVGID_00000080910464331231208920000012690320978512946330_);fill:#A01D20;}
	.st198{clip-path:url(#SVGID_00000080910464331231208920000012690320978512946330_);fill:#A01D21;}
	.st199{clip-path:url(#SVGID_00000080910464331231208920000012690320978512946330_);fill:#A11D21;}
	.st200{clip-path:url(#SVGID_00000080910464331231208920000012690320978512946330_);fill:#A21E21;}
	.st201{clip-path:url(#SVGID_00000080910464331231208920000012690320978512946330_);fill:#A31E22;}
	.st202{clip-path:url(#SVGID_00000080910464331231208920000012690320978512946330_);fill:#A51E22;}
	.st203{clip-path:url(#SVGID_00000080910464331231208920000012690320978512946330_);fill:#A61E22;}
	.st204{clip-path:url(#SVGID_00000080910464331231208920000012690320978512946330_);fill:#A71E22;}
	.st205{clip-path:url(#SVGID_00000080910464331231208920000012690320978512946330_);fill:#A91E23;}
	.st206{clip-path:url(#SVGID_00000080910464331231208920000012690320978512946330_);fill:#AB1F23;}
	.st207{clip-path:url(#SVGID_00000080910464331231208920000012690320978512946330_);fill:#AC1F23;}
	.st208{clip-path:url(#SVGID_00000080910464331231208920000012690320978512946330_);fill:#AD1F23;}
	.st209{clip-path:url(#SVGID_00000080910464331231208920000012690320978512946330_);fill:#AE1F24;}
	.st210{clip-path:url(#SVGID_00000080910464331231208920000012690320978512946330_);fill:#AF1F24;}
	.st211{clip-path:url(#SVGID_00000080910464331231208920000012690320978512946330_);fill:#B22024;}
	.st212{clip-path:url(#SVGID_00000080910464331231208920000012690320978512946330_);fill:#B32025;}
	.st213{clip-path:url(#SVGID_00000080910464331231208920000012690320978512946330_);fill:#B42025;}
	.st214{clip-path:url(#SVGID_00000080910464331231208920000012690320978512946330_);fill:#B52025;}
	.st215{clip-path:url(#SVGID_00000080910464331231208920000012690320978512946330_);fill:#B72025;}
	.st216{clip-path:url(#SVGID_00000080910464331231208920000012690320978512946330_);fill:#B92025;}
	.st217{clip-path:url(#SVGID_00000080910464331231208920000012690320978512946330_);fill:#BC2026;}
	.st218{clip-path:url(#SVGID_00000080910464331231208920000012690320978512946330_);fill:#BE2126;}
	.st219{clip-path:url(#SVGID_00000080910464331231208920000012690320978512946330_);fill:#BF2126;}
	.st220{clip-path:url(#SVGID_00000080910464331231208920000012690320978512946330_);fill:#C02126;}
	.st221{clip-path:url(#SVGID_00000080910464331231208920000012690320978512946330_);fill:#C12126;}
	.st222{clip-path:url(#SVGID_00000080910464331231208920000012690320978512946330_);fill:#C22126;}
	.st223{clip-path:url(#SVGID_00000080910464331231208920000012690320978512946330_);fill:#C32126;}
	.st224{clip-path:url(#SVGID_00000080910464331231208920000012690320978512946330_);fill:#C42126;}
	.st225{clip-path:url(#SVGID_00000080910464331231208920000012690320978512946330_);fill:#C52126;}
	.st226{clip-path:url(#SVGID_00000080910464331231208920000012690320978512946330_);fill:#C62127;}
	.st227{clip-path:url(#SVGID_00000080910464331231208920000012690320978512946330_);fill:#C72127;}
	.st228{clip-path:url(#SVGID_00000080910464331231208920000012690320978512946330_);fill:#C82127;}
	.st229{clip-path:url(#SVGID_00000080910464331231208920000012690320978512946330_);fill:#C92127;}
	.st230{clip-path:url(#SVGID_00000080910464331231208920000012690320978512946330_);fill:#CA2127;}
	.st231{clip-path:url(#SVGID_00000080910464331231208920000012690320978512946330_);fill:#CA2027;}
	.st232{clip-path:url(#SVGID_00000080910464331231208920000012690320978512946330_);fill:#CC2027;}
	.st233{clip-path:url(#SVGID_00000080910464331231208920000012690320978512946330_);fill:#CD2027;}
	.st234{clip-path:url(#SVGID_00000080910464331231208920000012690320978512946330_);fill:#CE2127;}
	.st235{clip-path:url(#SVGID_00000080910464331231208920000012690320978512946330_);fill:#CF2127;}
	.st236{clip-path:url(#SVGID_00000080910464331231208920000012690320978512946330_);fill:#D02027;}
	.st237{clip-path:url(#SVGID_00000080910464331231208920000012690320978512946330_);fill:#D12027;}
	.st238{clip-path:url(#SVGID_00000080910464331231208920000012690320978512946330_);fill:#D22027;}
	.st239{clip-path:url(#SVGID_00000080910464331231208920000012690320978512946330_);fill:#D32027;}
	.st240{clip-path:url(#SVGID_00000080910464331231208920000012690320978512946330_);fill:#D42027;}
	.st241{clip-path:url(#SVGID_00000080910464331231208920000012690320978512946330_);fill:#D52027;}
	.st242{clip-path:url(#SVGID_00000080910464331231208920000012690320978512946330_);fill:#D62027;}
	.st243{clip-path:url(#SVGID_00000080910464331231208920000012690320978512946330_);fill:#D72027;}
	.st244{clip-path:url(#SVGID_00000080910464331231208920000012690320978512946330_);fill:#D71F27;}
	.st245{fill:#C3996B;}
	.st246{fill:#F06724;}
	.st247{fill:#231F20;}
	.st248{fill:#AEB3B6;}
	.st249{fill:#EE3537;}
	.st250{fill:#9BA0A3;}
	.st251{fill:#AFB3B5;}
	.st252{fill:#F2EB44;}
	.st253{fill:#FFDD26;}
	.st254{clip-path:url(#XMLID_00000034085573030781514450000004150595255719435653_);}
	.st255{fill:#7E8386;}
	.st256{fill:#A4AAAC;}
	.st257{fill:#131718;}
	.st258{fill:#007843;}
	.st259{fill:#2AB34B;}
	.st260{fill:none;stroke:#FFFFFF;stroke-width:1.4841;stroke-miterlimit:10;}
	.st261{fill:#2E3192;}
	.st262{fill:#154458;}
	.st263{fill:#C72026;}
	.st264{fill:#5FBB46;}
	.st265{fill:#1A5F30;}
	.st266{fill:#293896;}
	.st267{filter:url(#Adobe_OpacityMaskFilter_00000090990626164462446490000017341548697422980758_);}
	.st268{filter:url(#Adobe_OpacityMaskFilter_00000144306664838065303650000003556804539870776223_);}
	
		.st269{mask:url(#SVGID_00000073691731684571294500000009115419519704171453_);fill:url(#SVGID_00000026862702841413936610000016250549145342459800_);}
	.st270{filter:url(#Adobe_OpacityMaskFilter_00000039098297993793154400000016592370534800813237_);}
	.st271{filter:url(#Adobe_OpacityMaskFilter_00000033338226219068338600000007160678212364438437_);}
	
		.st272{mask:url(#SVGID_00000102536331323086515970000015332151480548846232_);fill:url(#SVGID_00000108301260056505157070000011610758585746895805_);}
	.st273{filter:url(#Adobe_OpacityMaskFilter_00000101804800226732257680000006191600171997011118_);}
	.st274{filter:url(#Adobe_OpacityMaskFilter_00000173140124401261976160000000562940464531280304_);}
	
		.st275{mask:url(#SVGID_00000119113219052767808980000010333584183510156430_);fill:url(#SVGID_00000154389514460560334560000013168718179663913914_);}
	.st276{filter:url(#Adobe_OpacityMaskFilter_00000010305176502644204620000008438226620166469039_);}
	.st277{filter:url(#Adobe_OpacityMaskFilter_00000126300182405592651440000003534737480547624371_);}
	
		.st278{mask:url(#SVGID_00000009563076568866949080000017455173336865063100_);fill:url(#SVGID_00000134957905692890660230000015766060316657619376_);}
	.st279{filter:url(#Adobe_OpacityMaskFilter_00000084517264733724259080000002709332309990712982_);}
	.st280{filter:url(#Adobe_OpacityMaskFilter_00000091738110355070797350000005343825909887672963_);}
	
		.st281{mask:url(#SVGID_00000005985352290130274310000011318610805564958850_);fill:url(#SVGID_00000119079138626615782890000015352991406143261374_);}
	.st282{filter:url(#Adobe_OpacityMaskFilter_00000177459613888757458020000001565922076810261434_);}
	.st283{filter:url(#Adobe_OpacityMaskFilter_00000085961650570364979090000004226483593653155457_);}
	
		.st284{mask:url(#SVGID_00000071526859800684320270000015165984120520369543_);fill:url(#SVGID_00000048463442006646016720000011010656367084854937_);}
	.st285{filter:url(#Adobe_OpacityMaskFilter_00000150811189289590042090000017960910022100847263_);}
	.st286{filter:url(#Adobe_OpacityMaskFilter_00000066476289435752720230000014869962213618321084_);}
	
		.st287{mask:url(#SVGID_00000098899428007812039260000016700296664920979110_);fill:url(#SVGID_00000047031946788341973470000006333716290765857980_);}
	.st288{filter:url(#Adobe_OpacityMaskFilter_00000141436073849829006990000004371811826982903741_);}
	.st289{filter:url(#Adobe_OpacityMaskFilter_00000108291799278719836610000009403170075761432464_);}
	
		.st290{mask:url(#SVGID_00000023979491814066148900000009945152326293896859_);fill:url(#SVGID_00000109732658837469061920000000106938585189142719_);}
	.st291{filter:url(#Adobe_OpacityMaskFilter_00000029733814693934539910000005450139220594499992_);}
	.st292{filter:url(#Adobe_OpacityMaskFilter_00000059280495036141444560000014923944092940653220_);}
	
		.st293{mask:url(#SVGID_00000116939222190185468580000009542626803714486147_);fill:url(#SVGID_00000170998293030463523390000013682898541851312817_);}
	.st294{filter:url(#Adobe_OpacityMaskFilter_00000131330268910915869620000014779255187464541065_);}
	.st295{filter:url(#Adobe_OpacityMaskFilter_00000098211703418244221960000008985919716020213655_);}
	
		.st296{mask:url(#SVGID_00000134937771831821468750000002536269032344483976_);fill:url(#SVGID_00000063613545737051824480000003354016899215925134_);}
	.st297{clip-path:url(#SVGID_00000114774183070765354490000010021171256256809371_);fill:#FFF200;}
	
		.st298{clip-path:url(#SVGID_00000114774183070765354490000010021171256256809371_);fill:none;stroke:#FFFFFF;stroke-width:4.8568;stroke-linejoin:round;stroke-miterlimit:10;}
	.st299{clip-path:url(#SVGID_00000114774183070765354490000010021171256256809371_);fill:#ED1C24;}
	.st300{clip-path:url(#SVGID_00000114774183070765354490000010021171256256809371_);fill:#FFFFFF;}
	.st301{clip-path:url(#SVGID_00000114774183070765354490000010021171256256809371_);fill:#2E3192;}
	.st302{clip-path:url(#SVGID_00000114774183070765354490000010021171256256809371_);}
	.st303{clip-path:url(#SVGID_00000114774183070765354490000010021171256256809371_);fill:#F4817F;}
	.st304{clip-path:url(#SVGID_00000114774183070765354490000010021171256256809371_);fill:#56BF98;}
	.st305{clip-path:url(#SVGID_00000114774183070765354490000010021171256256809371_);fill:#570C08;}
	.st306{clip-path:url(#SVGID_00000114774183070765354490000010021171256256809371_);fill:#00A750;}
	
		.st307{fill:#FFFFFF;stroke:url(#SVGID_00000016774490063139969990000000500693762396778126_);stroke-width:7.11;stroke-miterlimit:10;}
	.st308{fill:#ED2224;}
	.st309{fill:#074E28;}
	.st310{fill:#EB2627;}
	.st311{fill:#D1D3D4;}
	.st312{fill:#5F1F16;}
	.st313{fill:#F1E7E6;}
	.st314{fill:#ED2024;}
	.st315{fill:url(#SVGID_00000062881682475671652860000005849893156044107167_);}
	.st316{fill:url(#SVGID_00000076578717316220265690000005465696123758747268_);}
	.st317{fill:#BB2025;}
	.st318{fill:url(#SVGID_00000049186881100843168550000016638807769685649796_);}
	.st319{fill:url(#SVGID_00000120526913402748243800000015778279502953779847_);}
	.st320{fill:none;stroke:#7F8080;stroke-width:0.8623;stroke-miterlimit:10;}
	.st321{fill:url(#SVGID_00000098933340605973082530000009388930360232176301_);}
	.st322{fill:url(#SVGID_00000118386697507674859580000003363557686108754608_);}
	.st323{fill:url(#SVGID_00000032616337492651326730000016787514552994146707_);}
	.st324{fill:url(#SVGID_00000148630675555001035930000011760757630541199503_);}
	.st325{fill:url(#SVGID_00000078035052775824452590000009298342037126792065_);}
	.st326{fill:url(#SVGID_00000022519388470015468220000003112687567571596959_);}
	.st327{fill:url(#SVGID_00000053507761456851869740000005354259921279886978_);}
	.st328{fill:url(#SVGID_00000078737488239160156720000002695382149939153072_);}
	.st329{fill:url(#SVGID_00000110457358360369637570000006735910705568286855_);}
	.st330{fill:url(#SVGID_00000103979318642014477340000018204581846230541475_);}
	.st331{fill:url(#SVGID_00000073697420954717569190000017392079021084280508_);}
	.st332{fill:url(#SVGID_00000141424191534307219300000011315013627610351034_);}
	.st333{fill:url(#SVGID_00000034780328508852404080000015423492096949155000_);}
	.st334{fill:url(#SVGID_00000018201338979844584050000003335161489795965615_);}
	.st335{fill:#E01E26;}
</style>
<g>
	<g>
		
			<linearGradient id="SVGID_00000134959686017938492260000012940437574303927707_" gradientUnits="userSpaceOnUse" x1="936.1882" y1="-126.1356" x2="971.2161" y2="-126.1356" gradientTransform="matrix(3.267949e-07 -1 1 3.267949e-07 166.2564 1072.5415)">
			<stop  offset="0" style="stop-color:#B49455"/>
			<stop  offset="0.414" style="stop-color:#541F0B"/>
			<stop  offset="0.6899" style="stop-color:#794A1B"/>
			<stop  offset="0.9173" style="stop-color:#D4AF68"/>
			<stop  offset="1" style="stop-color:#D1A547"/>
		</linearGradient>
		
			<linearGradient id="SVGID_00000118398210643565996160000017144957895644331444_" gradientUnits="userSpaceOnUse" x1="935.8384" y1="-126.1349" x2="971.5997" y2="-126.1349" gradientTransform="matrix(3.267949e-07 -1 1 3.267949e-07 166.2564 1072.5415)">
			<stop  offset="0" style="stop-color:#B49455"/>
			<stop  offset="0.414" style="stop-color:#541F0B"/>
			<stop  offset="0.6899" style="stop-color:#794A1B"/>
			<stop  offset="0.9173" style="stop-color:#D4AF68"/>
			<stop  offset="1" style="stop-color:#D1A547"/>
		</linearGradient>
		
			<path style="fill:url(#SVGID_00000134959686017938492260000012940437574303927707_);stroke:url(#SVGID_00000118398210643565996160000017144957895644331444_);stroke-width:0.6997;stroke-miterlimit:10;" d="
			M28.62,101.77l19.91,0c1.21,0,2.32-0.04,3.33-0.11c1.01-0.07,2.31-0.19,3.9-0.34l0.53,7.65h-0.28l-1.7-5.57
			c-1.39-0.25-2.85-0.38-4.36-0.38c-1.3,0-2.49,0.07-3.56,0.21c-1.07,0.14-2.23,0.38-3.46,0.71c-0.12,1.46-0.21,2.88-0.28,4.24
			c-0.06,1.36-0.11,2.62-0.14,3.78c-0.03,1.16-0.05,1.95-0.05,2.37l0,7.84c0,2.06,0.07,4.37,0.21,6.93c0.14,2.56,0.31,4.6,0.51,6.13
			l5.67,0.87v0.24H31.53v-0.24l5.58-0.87c0.47-3.48,0.71-7.69,0.71-12.64l0-8.55c0-1.76-0.04-3.5-0.11-5.22
			c-0.08-1.72-0.21-3.35-0.39-4.89c-0.89-0.25-1.92-0.45-3.1-0.6c-1.18-0.15-2.29-0.24-3.35-0.27c-1.67,0-3.31,0.14-4.93,0.42
			l-1.65,5.62h-0.32l0.5-7.75c0.46,0.03,1.12,0.11,2,0.22C27.33,101.71,28.05,101.77,28.62,101.77z M38.53,102.65l0,32.78h1.54
			l0-32.78H38.53z"/>
		
			<linearGradient id="SVGID_00000088839967544519905610000008696051865481475735_" gradientUnits="userSpaceOnUse" x1="935.2668" y1="-54.059" x2="970.7675" y2="-54.059" gradientTransform="matrix(3.267949e-07 -1 1 3.267949e-07 166.2564 1072.5415)">
			<stop  offset="0" style="stop-color:#B49455"/>
			<stop  offset="0.414" style="stop-color:#541F0B"/>
			<stop  offset="0.6899" style="stop-color:#794A1B"/>
			<stop  offset="0.9173" style="stop-color:#D4AF68"/>
			<stop  offset="1" style="stop-color:#D1A547"/>
		</linearGradient>
		
			<linearGradient id="SVGID_00000109723065987590756270000013880182512085298077_" gradientUnits="userSpaceOnUse" x1="934.9169" y1="-54.059" x2="971.1173" y2="-54.059" gradientTransform="matrix(3.267949e-07 -1 1 3.267949e-07 166.2564 1072.5415)">
			<stop  offset="0" style="stop-color:#B49455"/>
			<stop  offset="0.414" style="stop-color:#541F0B"/>
			<stop  offset="0.6899" style="stop-color:#794A1B"/>
			<stop  offset="0.9173" style="stop-color:#D4AF68"/>
			<stop  offset="1" style="stop-color:#D1A547"/>
		</linearGradient>
		
			<path style="fill:url(#SVGID_00000088839967544519905610000008696051865481475735_);stroke:url(#SVGID_00000109723065987590756270000013880182512085298077_);stroke-width:0.6997;stroke-miterlimit:10;" d="
			M91.21,102.01v-0.24h11.59c0.76,1.07,1.76,2.36,2.97,3.87c1.22,1.51,2.3,2.81,3.25,3.9l10.28,11.76c1.36,1.53,2.42,2.71,3.18,3.54
			s1.74,1.85,2.95,3.05c0.09-1.09,0.15-2.1,0.18-3.05c0.03-0.94,0.05-1.83,0.05-2.67v-10.2c0-3.67-0.18-6.7-0.53-9.09l-5.57-0.87
			v-0.24l13.65,0v0.24l-5.57,0.92c-0.29,2.2-0.44,5.02-0.44,8.46l0,25.89h-0.23c-2.34-3.05-4.66-5.91-6.95-8.57l-14.04-16.11
			c-2.08-2.28-3.85-4.1-5.32-5.46c-0.21,2.14-0.32,4.14-0.32,6v14.95c0,2,0.15,4.39,0.46,7.16l5.83,0.87v0.24l-13.95,0v-0.24
			l5.64-0.83c0.18-1.13,0.31-2.75,0.39-4.84c0.08-2.09,0.11-3.96,0.11-5.6v-11.57c0-1.37-0.02-2.73-0.07-4.07s-0.13-2.68-0.25-4
			l-3.05-2.31L91.21,102.01z M98.06,102.65l27.71,31.72v-2.22l-25.79-29.5H98.06z"/>
		
			<linearGradient id="SVGID_00000173129357487234745990000011745544004446404540_" gradientUnits="userSpaceOnUse" x1="935.8575" y1="-12.3716" x2="970.7675" y2="-12.3716" gradientTransform="matrix(3.267949e-07 -1 1 3.267949e-07 166.2564 1072.5415)">
			<stop  offset="0" style="stop-color:#B49455"/>
			<stop  offset="0.414" style="stop-color:#541F0B"/>
			<stop  offset="0.6899" style="stop-color:#794A1B"/>
			<stop  offset="0.9173" style="stop-color:#D4AF68"/>
			<stop  offset="1" style="stop-color:#D1A547"/>
		</linearGradient>
		
			<linearGradient id="SVGID_00000082329121932507707420000013917146300890535045_" gradientUnits="userSpaceOnUse" x1="935.5076" y1="-12.3716" x2="971.1173" y2="-12.3716" gradientTransform="matrix(3.267949e-07 -1 1 3.267949e-07 166.2564 1072.5415)">
			<stop  offset="0" style="stop-color:#B49455"/>
			<stop  offset="0.414" style="stop-color:#541F0B"/>
			<stop  offset="0.6899" style="stop-color:#794A1B"/>
			<stop  offset="0.9173" style="stop-color:#D4AF68"/>
			<stop  offset="1" style="stop-color:#D1A547"/>
		</linearGradient>
		
			<path style="fill:url(#SVGID_00000173129357487234745990000011745544004446404540_);stroke:url(#SVGID_00000082329121932507707420000013917146300890535045_);stroke-width:0.6997;stroke-miterlimit:10;" d="
			M139.38,126.34v-13.16c0-2.93-0.18-6.39-0.55-10.39l-4.8-0.78v-0.24l16.73,0v0.24l-6.06,0.78c-0.15,1.1-0.27,2.43-0.37,3.97
			c-0.09,1.54-0.17,3.19-0.24,4.94s-0.1,3.15-0.1,4.2v9.71c0,2.31,0.46,4.18,1.37,5.59c0.91,1.41,2.11,2.41,3.6,2.99
			c1.49,0.58,3.14,0.87,4.94,0.87c3.07,0,5.49-0.8,7.24-2.41c1.75-1.61,2.63-4.2,2.63-7.79v-10.11c0-1.79-0.06-3.92-0.18-6.37
			c-0.12-2.45-0.27-4.31-0.46-5.59l-6.03-0.78v-0.24l16.63,0v0.24l-4.68,0.78c-0.21,1.02-0.38,2.73-0.49,5.11
			c-0.11,2.39-0.17,4.39-0.17,6.01v11.46c0,1.78-0.21,3.29-0.62,4.53c-0.41,1.24-1.05,2.31-1.93,3.21c-0.6,0.61-1.22,1.13-1.88,1.56
			c-0.66,0.43-1.49,0.8-2.5,1.11c-1.01,0.32-2.11,0.54-3.3,0.68c-1.19,0.14-2.67,0.21-4.43,0.21c-2.88,0-5.38-0.33-7.5-0.99
			c-2.13-0.66-3.8-1.76-5.01-3.31C139.99,130.84,139.38,128.83,139.38,126.34z M152.46,136.07v-0.31c-2.16-0.13-4.04-0.57-5.66-1.33
			c-1.61-0.76-2.88-1.9-3.79-3.4c-0.91-1.5-1.36-3.34-1.36-5.52l0-22.86h-1.61l0,23.69c0,2.91,0.99,5.22,2.97,6.91
			C145,134.94,148.15,135.88,152.46,136.07z M155.47,135.76v0.31c1.8-0.11,3.36-0.41,4.68-0.91c1.32-0.5,2.41-1.19,3.27-2.08
			c0.86-0.89,1.51-2,1.94-3.34c0.43-1.34,0.64-2.89,0.64-4.65l0-22.44h-1.61l0,22.39c0,3.15-0.7,5.64-2.11,7.46
			C160.87,134.33,158.6,135.42,155.47,135.76z"/>
		
			<linearGradient id="SVGID_00000098203898123920427510000015687748748423987621_" gradientUnits="userSpaceOnUse" x1="955.155" y1="11.8237" x2="968.9247" y2="11.8237" gradientTransform="matrix(3.267949e-07 -1 1 3.267949e-07 166.2564 1072.5415)">
			<stop  offset="0" style="stop-color:#B49455"/>
			<stop  offset="0.414" style="stop-color:#541F0B"/>
			<stop  offset="0.6899" style="stop-color:#794A1B"/>
			<stop  offset="0.9173" style="stop-color:#D4AF68"/>
			<stop  offset="1" style="stop-color:#D1A547"/>
		</linearGradient>
		
			<linearGradient id="SVGID_00000141454532274593222110000000950897458069859503_" gradientUnits="userSpaceOnUse" x1="954.8051" y1="11.8237" x2="969.2745" y2="11.8237" gradientTransform="matrix(3.267949e-07 -1 1 3.267949e-07 166.2564 1072.5415)">
			<stop  offset="0" style="stop-color:#B49455"/>
			<stop  offset="0.414" style="stop-color:#541F0B"/>
			<stop  offset="0.6899" style="stop-color:#794A1B"/>
			<stop  offset="0.9173" style="stop-color:#D4AF68"/>
			<stop  offset="1" style="stop-color:#D1A547"/>
		</linearGradient>
		
			<path style="fill:url(#SVGID_00000098203898123920427510000015687748748423987621_);stroke:url(#SVGID_00000141454532274593222110000000950897458069859503_);stroke-width:0.6997;stroke-miterlimit:10;" d="
			M177.56,117.39l-1.28-7.01l-0.41-2.36c-0.06-0.54-0.09-0.95-0.09-1.25c0-1.1,0.18-1.9,0.54-2.4c0.36-0.5,0.93-0.74,1.71-0.74
			c0.75,0,1.33,0.24,1.74,0.72c0.41,0.48,0.62,1.15,0.62,2.02c0,0.55-0.07,1.1-0.21,1.65l-0.41,2.41l-1.22,6.97H177.56z
			 M178.09,116.18v-11.93c-0.66-0.05-1.1,0.2-1.33,0.73c-0.23,0.54-0.32,1.36-0.27,2.48l1.33,8.72H178.09z"/>
		
			<linearGradient id="SVGID_00000110447109794685808520000010992436970233716368_" gradientUnits="userSpaceOnUse" x1="935.9518" y1="27.5274" x2="971.2161" y2="27.5274" gradientTransform="matrix(3.267949e-07 -1 1 3.267949e-07 166.2564 1072.5415)">
			<stop  offset="0" style="stop-color:#B49455"/>
			<stop  offset="0.414" style="stop-color:#541F0B"/>
			<stop  offset="0.6899" style="stop-color:#794A1B"/>
			<stop  offset="0.9173" style="stop-color:#D4AF68"/>
			<stop  offset="1" style="stop-color:#D1A547"/>
		</linearGradient>
		
			<linearGradient id="SVGID_00000034791068241510053790000010421738441843459005_" gradientUnits="userSpaceOnUse" x1="935.6019" y1="27.5195" x2="971.5659" y2="27.5195" gradientTransform="matrix(3.267949e-07 -1 1 3.267949e-07 166.2564 1072.5415)">
			<stop  offset="0" style="stop-color:#B49455"/>
			<stop  offset="0.414" style="stop-color:#541F0B"/>
			<stop  offset="0.6899" style="stop-color:#794A1B"/>
			<stop  offset="0.9173" style="stop-color:#D4AF68"/>
			<stop  offset="1" style="stop-color:#D1A547"/>
		</linearGradient>
		
			<path style="fill:url(#SVGID_00000110447109794685808520000010992436970233716368_);stroke:url(#SVGID_00000034791068241510053790000010421738441843459005_);stroke-width:0.6997;stroke-miterlimit:10;" d="
			M184.19,128.09l1.74,5.81c0.87,0.41,1.89,0.74,3.06,0.99c1.17,0.25,2.18,0.37,3.04,0.35c1.15,0,2.2-0.2,3.16-0.61
			c0.95-0.41,1.73-0.93,2.34-1.56c0.6-0.63,1.07-1.34,1.39-2.14c0.32-0.79,0.48-1.57,0.48-2.33c0-1.56-0.51-2.87-1.54-3.94
			c-1.03-1.07-2.74-2.44-5.15-4.11c-2.41-1.67-4.16-3.06-5.24-4.18c-0.93-0.99-1.63-1.99-2.09-2.99c-0.46-1-0.69-2.11-0.69-3.34
			c0-1.35,0.36-2.7,1.08-4.04c0.72-1.34,1.83-2.45,3.33-3.34c1.5-0.89,3.34-1.33,5.53-1.33c0.99,0,2.05,0.05,3.17,0.15
			c1.12,0.1,1.89,0.15,2.32,0.15c0.37-0.02,0.71-0.03,1.03-0.04c0.32-0.01,0.58-0.02,0.77-0.05c0.19-0.02,0.39-0.05,0.61-0.08
			l0.14,8.08h-0.3l-1.45-5.46c-2.13-0.96-3.98-1.44-5.55-1.44c-1.31,0-2.5,0.26-3.54,0.77c-1.05,0.51-1.86,1.21-2.44,2.1
			c-0.58,0.89-0.87,1.89-0.87,3.01c0,1.17,0.39,2.23,1.17,3.2c0.78,0.97,1.85,1.92,3.2,2.85c1.35,0.93,2.81,1.91,4.36,2.95
			c1.55,1.04,2.79,2.04,3.73,3c1.82,1.87,2.73,4.04,2.73,6.5c0,1.39-0.35,2.81-1.06,4.29c-0.7,1.47-1.89,2.72-3.56,3.74
			c-1.67,1.02-3.82,1.54-6.47,1.54c-0.93,0-2.07-0.06-3.41-0.17c-1.34-0.11-2.32-0.17-2.95-0.17c-0.29,0-0.52,0.01-0.68,0.02
			c-0.16,0.02-0.41,0.04-0.74,0.07c-0.34,0.03-0.54,0.05-0.6,0.05l-0.37-8.31H184.19z M195.41,101.82h-0.73
			c-1.68,0-3.23,0.35-4.66,1.04c-1.42,0.69-2.55,1.68-3.37,2.95c-0.83,1.28-1.24,2.72-1.24,4.32c0,2,0.85,3.87,2.55,5.62
			c0.75,0.74,1.45,1.36,2.1,1.87c0.65,0.5,1.63,1.22,2.95,2.14c1.31,0.92,2.37,1.68,3.15,2.27c0.79,0.59,1.43,1.15,1.94,1.69
			c1.38,1.42,2.06,3,2.06,4.75c0,1.2-0.32,2.35-0.95,3.46c-0.64,1.11-1.55,2.02-2.75,2.72c-1.2,0.7-2.61,1.06-4.23,1.07v0.26
			c1.87,0.06,3.53-0.28,4.99-1.02c1.46-0.74,2.58-1.72,3.35-2.93c0.77-1.21,1.16-2.46,1.16-3.76c0-1.12-0.18-2.13-0.53-3.05
			c-0.35-0.91-0.99-1.85-1.93-2.81c-0.53-0.55-1.5-1.32-2.89-2.3c-1.39-0.98-2.8-1.98-4.22-2.98c-1.42-1-2.46-1.82-3.12-2.47
			c-1.61-1.64-2.41-3.44-2.41-5.41c0-1.73,0.73-3.35,2.19-4.84c1.46-1.5,3.66-2.28,6.6-2.36V101.82z"/>
	</g>
	<g>
		
			<linearGradient id="SVGID_00000005969898941220592520000011768632384725193405_" gradientUnits="userSpaceOnUse" x1="-508.3773" y1="-59.3879" x2="-479.1476" y2="-59.3879" gradientTransform="matrix(1 0 0 1 566.3755 163.1491)">
			<stop  offset="0" style="stop-color:#B49455"/>
			<stop  offset="0.414" style="stop-color:#541F0B"/>
			<stop  offset="0.6899" style="stop-color:#794A1B"/>
			<stop  offset="0.9173" style="stop-color:#D4AF68"/>
			<stop  offset="1" style="stop-color:#D1A547"/>
		</linearGradient>
		<path style="fill:url(#SVGID_00000005969898941220592520000011768632384725193405_);" d="M83.83,97.01
			c-1.51-1.76-5.41-1.79-7.14-0.01c-4.16,4.3-8.33,8.6-12.37,13.01c-1.9,2.07-3.3,4.55-3.61,7.46c-0.41,3.85,1.06,6.96,4.05,9.2
			c3.33,2.5,7.01,2.84,10.64,0.81c3.2-1.79,5.01-4.62,4.85-8.54c-0.07-1.77-0.81-3.24-1.95-4.48c-1.31-1.42-2.7-2.77-4.11-4.08
			c-0.22-0.21-0.93-0.23-1.13-0.03c-1.7,1.69-3.43,3.37-4.97,5.21c-1.87,2.24-2.17,4.89-1.28,7.73c-1.66-1.09-2.69-3.81-2.08-6.03
			c0.37-1.35,0.91-2.79,1.78-3.83c2.17-2.6,4.56-4.99,7.16-7.79c2.75,3.13,5.7,5.74,7.74,8.97c3.86,6.11-0.18,14.52-7.52,16.38
			c-5.13,1.3-10.63-0.78-13.54-5.13c-3.2-4.78-3.23-10.62,0.49-15.49c2.66-3.47,5.86-6.51,8.91-9.64c3.03-3.1,6.26-6.02,8.11-10.11
			c1.3-2.89,1.5-5.85,0.32-8.91c-0.03,3.5-0.49,6.85-2.56,9.8c-2.96-4.56-2.11-12.24,1.7-15.36c4.31,5.93,4.36,12.11,0.76,18.68
			c4.16-0.52,7.22,0.58,9.14,4.47c-3.4,0.82-6.43,0.49-9.46-1.5C79.7,96.32,81.71,96.7,83.83,97.01z"/>
		
			<linearGradient id="SVGID_00000058551507093578640840000003197175635532974781_" gradientUnits="userSpaceOnUse" x1="-503.5177" y1="-43.9017" x2="-478.1214" y2="-43.9017" gradientTransform="matrix(1 0 0 1 566.3755 163.1491)">
			<stop  offset="0" style="stop-color:#B49455"/>
			<stop  offset="0.414" style="stop-color:#541F0B"/>
			<stop  offset="0.6899" style="stop-color:#794A1B"/>
			<stop  offset="0.9173" style="stop-color:#D4AF68"/>
			<stop  offset="1" style="stop-color:#D1A547"/>
		</linearGradient>
		<path style="fill:url(#SVGID_00000058551507093578640840000003197175635532974781_);" d="M62.86,132.5
			c6.05,2.98,11.65,2.89,16.87-0.82c6.95-4.94,7.93-13.37,2.48-20.37c-1.53-1.97-3.31-3.74-5.05-5.53
			c-1.69-1.74-1.73-1.71,0.14-3.64c4.19,4.19,8.68,8.15,10.36,14.23c3.09,11.16-6.52,21.86-17.6,19.71
			C67.04,135.49,64.73,134.39,62.86,132.5z"/>
	</g>
</g>
</svg>
