<?xml version="1.0" encoding="utf-8"?>
<!-- Generator: Adobe Illustrator 27.0.0, SVG Export Plug-In . SVG Version: 6.00 Build 0)  -->
<svg version="1.1" id="Layer_1" xmlns="http://www.w3.org/2000/svg" xmlns:xlink="http://www.w3.org/1999/xlink" x="0px" y="0px"
	 viewBox="0 0 226.77 226.77" style="enable-background:new 0 0 226.77 226.77;" xml:space="preserve">
<style type="text/css">
	.st0{fill:#FFF200;}
	.st1{stroke:#000000;stroke-width:5.2476;stroke-miterlimit:10;}
	.st2{fill:#FFFFFF;}
	.st3{fill:#ED1C24;}
	.st4{fill:#50B848;}
	.st5{fill:#007F3E;}
	.st6{fill:#F58220;}
	.st7{fill:#F37021;}
	.st8{fill:#1282C5;}
	.st9{fill:#F7941D;}
	.st10{fill:#FFFFFF;stroke:#FFFFFF;stroke-width:2.321;stroke-linecap:round;stroke-linejoin:round;}
	.st11{fill:#00854A;}
	.st12{fill:#34B34A;}
	.st13{fill:#13421E;}
	.st14{fill:#8CC540;stroke:#FFFFFF;stroke-width:1.2029;stroke-miterlimit:10;}
	.st15{fill:#065643;stroke:#FFFFFF;stroke-width:1.2029;stroke-miterlimit:10;}
	.st16{fill:#FFCB05;}
	.st17{font-family:'Roboto-Medium';}
	.st18{font-size:9.3782px;}
	.st19{fill:#224D71;}
	.st20{fill:#F8BC1B;}
	.st21{fill:#4CB748;}
	.st22{fill:url(#SVGID_00000085249894685474691860000002144409838070607521_);}
	.st23{fill:none;stroke:#FFFFFF;stroke-width:0.8396;stroke-miterlimit:10;}
	
		.st24{fill:url(#SVGID_00000103229855991857362000000017355767191827997373_);stroke:url(#SVGID_00000125587382430629558420000009174580028247953054_);stroke-width:0.6997;stroke-miterlimit:10;}
	
		.st25{fill:url(#SVGID_00000093883289714598145090000012811073119881723032_);stroke:url(#SVGID_00000165201752331266247490000012010227531374236552_);stroke-width:0.6997;stroke-miterlimit:10;}
	
		.st26{fill:url(#SVGID_00000079479927288324062930000008298166432607368089_);stroke:url(#SVGID_00000057840797084060472520000015245292636867650211_);stroke-width:0.6997;stroke-miterlimit:10;}
	
		.st27{fill:url(#SVGID_00000048503199376602865710000015317201327772894350_);stroke:url(#SVGID_00000108307366911927430890000016306064957558615189_);stroke-width:0.6997;stroke-miterlimit:10;}
	
		.st28{fill:url(#SVGID_00000094613066175206553810000002447228986046080923_);stroke:url(#SVGID_00000125568705282569588550000003493789857691291797_);stroke-width:0.6997;stroke-miterlimit:10;}
	.st29{fill:url(#SVGID_00000096028034417150750170000018297099036849255581_);}
	.st30{fill:url(#SVGID_00000075842411966445187600000017386770313013670812_);}
	.st31{fill:#005826;}
	.st32{fill:#BFD730;}
	.st33{fill:#00A651;stroke:#000000;stroke-width:2.8889;stroke-linecap:round;stroke-linejoin:round;stroke-miterlimit:10;}
	.st34{fill:#FFF200;stroke:#000000;stroke-width:2.8889;stroke-linecap:round;stroke-linejoin:round;stroke-miterlimit:10;}
	.st35{fill:#8DC63F;stroke:#000000;stroke-width:2.8889;stroke-linecap:round;stroke-linejoin:round;stroke-miterlimit:10;}
	.st36{fill:#0DB14B;stroke:#000000;stroke-width:2.8889;stroke-linecap:round;stroke-linejoin:round;stroke-miterlimit:10;}
	.st37{fill:#FFFFFF;stroke:#000000;stroke-width:2.8889;stroke-linecap:round;stroke-linejoin:round;stroke-miterlimit:10;}
	.st38{fill:#00A651;}
	.st39{fill:#8DC63F;}
	.st40{fill:#0DB14B;}
	.st41{fill:#034EA2;}
	.st42{fill:#00763F;}
	.st43{fill:url(#SVGID_00000065063302594583157640000017575718001800777105_);}
	.st44{fill:url(#SVGID_00000054249376219875551580000001491152958397783424_);}
	.st45{fill:url(#SVGID_00000156558804108957459630000002894709265131382717_);}
	.st46{fill:url(#SVGID_00000126281409874314017400000003988161153540530064_);}
	.st47{fill:url(#SVGID_00000142162644059600769480000009433991198913035435_);}
	.st48{fill:url(#SVGID_00000081645230113524416190000017217471068515987847_);}
	.st49{fill:url(#SVGID_00000163766601230166711160000002569650825503001751_);}
	.st50{fill:url(#SVGID_00000079457907767965469020000004513333072818766474_);}
	.st51{fill:url(#SVGID_00000054236985701178468430000002681720252649895320_);}
	.st52{fill:url(#SVGID_00000163790875343070384020000018214190156651768998_);}
	.st53{fill:#FFFFFF;stroke:#FFFFFF;stroke-width:4.8073;stroke-linecap:round;stroke-linejoin:round;stroke-miterlimit:10;}
	.st54{fill:url(#SVGID_00000155826657899716601580000004053335656463007624_);}
	.st55{fill:#00A651;stroke:#00A651;stroke-width:4.2345;stroke-linecap:round;stroke-linejoin:round;stroke-miterlimit:10;}
	.st56{fill:#939598;stroke:#939598;stroke-width:4.2345;stroke-linecap:round;stroke-linejoin:round;stroke-miterlimit:10;}
	.st57{fill:#CE181E;stroke:#CE181E;stroke-width:9.3609;stroke-miterlimit:10;}
	
		.st58{fill:none;stroke:url(#SVGID_00000073712603710502014410000011212226110633418885_);stroke-width:3.3359;stroke-miterlimit:10;}
	.st59{fill-rule:evenodd;clip-rule:evenodd;fill:#21A347;}
	.st60{filter:url(#Adobe_OpacityMaskFilter);}
	
		.st61{clip-path:url(#SVGID_00000008110164073297407780000013326997629571890834_);fill-rule:evenodd;clip-rule:evenodd;fill:url(#);}
	
		.st62{opacity:0.49;clip-path:url(#SVGID_00000008110164073297407780000013326997629571890834_);mask:url(#SVGID_00000183240024642789210770000005944884231092931982_);fill-rule:evenodd;clip-rule:evenodd;}
	
		.st63{clip-path:url(#SVGID_00000008110164073297407780000013326997629571890834_);fill-rule:evenodd;clip-rule:evenodd;fill:#007836;}
	.st64{filter:url(#Adobe_OpacityMaskFilter_00000181082614894832181750000015634241525162549936_);}
	
		.st65{opacity:0.49;clip-path:url(#SVGID_00000008110164073297407780000013326997629571890834_);mask:url(#SVGID_00000141418492537668004490000000653235227232521637_);fill-rule:evenodd;clip-rule:evenodd;}
	
		.st66{clip-path:url(#SVGID_00000008110164073297407780000013326997629571890834_);fill-rule:evenodd;clip-rule:evenodd;fill:#95C940;}
	.st67{fill-rule:evenodd;clip-rule:evenodd;fill:#FFFFFF;}
	.st68{fill:#FFC759;}
	.st69{fill:#D1A342;}
	.st70{fill:none;}
	.st71{clip-path:url(#SVGID_00000061462271015978142010000015219159249059077293_);}
	.st72{clip-path:url(#SVGID_00000156566683231876450810000002862738544914855103_);}
	.st73{fill:#9E1D20;}
	.st74{fill:#86888A;}
	.st75{fill:url(#SVGID_00000036238418289444156840000007708061536460143031_);}
	.st76{fill:url(#SVGID_00000029736063210163178470000007809579003470016922_);}
	.st77{fill:url(#SVGID_00000163063535913951620640000015455707515364824965_);}
	.st78{fill:url(#SVGID_00000123417898584909501920000011240986750846343320_);}
	.st79{fill:#F89522;}
	.st80{fill:#C0BFBF;}
	.st81{clip-path:url(#SVGID_00000041259820057532141050000005317225980202986941_);}
	.st82{clip-path:url(#SVGID_00000103986873565374128470000010197315689139801010_);fill:#650F0E;}
	.st83{clip-path:url(#SVGID_00000103986873565374128470000010197315689139801010_);fill:#670E0D;}
	.st84{clip-path:url(#SVGID_00000103986873565374128470000010197315689139801010_);fill:#690C0D;}
	.st85{clip-path:url(#SVGID_00000103986873565374128470000010197315689139801010_);fill:#6C0D0F;}
	.st86{clip-path:url(#SVGID_00000103986873565374128470000010197315689139801010_);fill:#6F0F10;}
	.st87{clip-path:url(#SVGID_00000103986873565374128470000010197315689139801010_);fill:#700F10;}
	.st88{clip-path:url(#SVGID_00000103986873565374128470000010197315689139801010_);fill:#721011;}
	.st89{clip-path:url(#SVGID_00000103986873565374128470000010197315689139801010_);fill:#741012;}
	.st90{clip-path:url(#SVGID_00000103986873565374128470000010197315689139801010_);fill:#761113;}
	.st91{clip-path:url(#SVGID_00000103986873565374128470000010197315689139801010_);fill:#781214;}
	.st92{clip-path:url(#SVGID_00000103986873565374128470000010197315689139801010_);fill:#7A1214;}
	.st93{clip-path:url(#SVGID_00000103986873565374128470000010197315689139801010_);fill:#7B1315;}
	.st94{clip-path:url(#SVGID_00000103986873565374128470000010197315689139801010_);fill:#7D1416;}
	.st95{clip-path:url(#SVGID_00000103986873565374128470000010197315689139801010_);fill:#7F1416;}
	.st96{clip-path:url(#SVGID_00000103986873565374128470000010197315689139801010_);fill:#801517;}
	.st97{clip-path:url(#SVGID_00000103986873565374128470000010197315689139801010_);fill:#811517;}
	.st98{clip-path:url(#SVGID_00000103986873565374128470000010197315689139801010_);fill:#831618;}
	.st99{clip-path:url(#SVGID_00000103986873565374128470000010197315689139801010_);fill:#851619;}
	.st100{clip-path:url(#SVGID_00000103986873565374128470000010197315689139801010_);fill:#871719;}
	.st101{clip-path:url(#SVGID_00000103986873565374128470000010197315689139801010_);fill:#88171A;}
	.st102{clip-path:url(#SVGID_00000103986873565374128470000010197315689139801010_);fill:#89181A;}
	.st103{clip-path:url(#SVGID_00000103986873565374128470000010197315689139801010_);fill:#8B181B;}
	.st104{clip-path:url(#SVGID_00000103986873565374128470000010197315689139801010_);fill:#8D181B;}
	.st105{clip-path:url(#SVGID_00000103986873565374128470000010197315689139801010_);fill:#8F191C;}
	.st106{clip-path:url(#SVGID_00000103986873565374128470000010197315689139801010_);fill:#91191C;}
	.st107{clip-path:url(#SVGID_00000103986873565374128470000010197315689139801010_);fill:#921A1D;}
	.st108{clip-path:url(#SVGID_00000103986873565374128470000010197315689139801010_);fill:#941A1D;}
	.st109{clip-path:url(#SVGID_00000103986873565374128470000010197315689139801010_);fill:#951B1E;}
	.st110{clip-path:url(#SVGID_00000103986873565374128470000010197315689139801010_);fill:#971B1E;}
	.st111{clip-path:url(#SVGID_00000103986873565374128470000010197315689139801010_);fill:#981B1F;}
	.st112{clip-path:url(#SVGID_00000103986873565374128470000010197315689139801010_);fill:#9A1C1F;}
	.st113{clip-path:url(#SVGID_00000103986873565374128470000010197315689139801010_);fill:#9B1C1F;}
	.st114{clip-path:url(#SVGID_00000103986873565374128470000010197315689139801010_);fill:#9D1C20;}
	.st115{clip-path:url(#SVGID_00000103986873565374128470000010197315689139801010_);fill:#9E1D20;}
	.st116{clip-path:url(#SVGID_00000103986873565374128470000010197315689139801010_);fill:#A01D20;}
	.st117{clip-path:url(#SVGID_00000103986873565374128470000010197315689139801010_);fill:#A01D21;}
	.st118{clip-path:url(#SVGID_00000103986873565374128470000010197315689139801010_);fill:#A11D21;}
	.st119{clip-path:url(#SVGID_00000103986873565374128470000010197315689139801010_);fill:#A21E21;}
	.st120{clip-path:url(#SVGID_00000103986873565374128470000010197315689139801010_);fill:#A31E22;}
	.st121{clip-path:url(#SVGID_00000103986873565374128470000010197315689139801010_);fill:#A51E22;}
	.st122{clip-path:url(#SVGID_00000103986873565374128470000010197315689139801010_);fill:#A61E22;}
	.st123{clip-path:url(#SVGID_00000103986873565374128470000010197315689139801010_);fill:#A71E22;}
	.st124{clip-path:url(#SVGID_00000103986873565374128470000010197315689139801010_);fill:#A91E23;}
	.st125{clip-path:url(#SVGID_00000103986873565374128470000010197315689139801010_);fill:#AB1F23;}
	.st126{clip-path:url(#SVGID_00000103986873565374128470000010197315689139801010_);fill:#AC1F23;}
	.st127{clip-path:url(#SVGID_00000103986873565374128470000010197315689139801010_);fill:#AD1F23;}
	.st128{clip-path:url(#SVGID_00000103986873565374128470000010197315689139801010_);fill:#AE1F24;}
	.st129{clip-path:url(#SVGID_00000103986873565374128470000010197315689139801010_);fill:#AF1F24;}
	.st130{clip-path:url(#SVGID_00000103986873565374128470000010197315689139801010_);fill:#B22024;}
	.st131{clip-path:url(#SVGID_00000103986873565374128470000010197315689139801010_);fill:#B32025;}
	.st132{clip-path:url(#SVGID_00000103986873565374128470000010197315689139801010_);fill:#B42025;}
	.st133{clip-path:url(#SVGID_00000103986873565374128470000010197315689139801010_);fill:#B52025;}
	.st134{clip-path:url(#SVGID_00000103986873565374128470000010197315689139801010_);fill:#B72025;}
	.st135{clip-path:url(#SVGID_00000103986873565374128470000010197315689139801010_);fill:#B92025;}
	.st136{clip-path:url(#SVGID_00000103986873565374128470000010197315689139801010_);fill:#BC2026;}
	.st137{clip-path:url(#SVGID_00000103986873565374128470000010197315689139801010_);fill:#BE2126;}
	.st138{clip-path:url(#SVGID_00000103986873565374128470000010197315689139801010_);fill:#BF2126;}
	.st139{clip-path:url(#SVGID_00000103986873565374128470000010197315689139801010_);fill:#C02126;}
	.st140{clip-path:url(#SVGID_00000103986873565374128470000010197315689139801010_);fill:#C12126;}
	.st141{clip-path:url(#SVGID_00000103986873565374128470000010197315689139801010_);fill:#C22126;}
	.st142{clip-path:url(#SVGID_00000103986873565374128470000010197315689139801010_);fill:#C32126;}
	.st143{clip-path:url(#SVGID_00000103986873565374128470000010197315689139801010_);fill:#C42126;}
	.st144{clip-path:url(#SVGID_00000103986873565374128470000010197315689139801010_);fill:#C52126;}
	.st145{clip-path:url(#SVGID_00000103986873565374128470000010197315689139801010_);fill:#C62127;}
	.st146{clip-path:url(#SVGID_00000103986873565374128470000010197315689139801010_);fill:#C72127;}
	.st147{clip-path:url(#SVGID_00000103986873565374128470000010197315689139801010_);fill:#C82127;}
	.st148{clip-path:url(#SVGID_00000103986873565374128470000010197315689139801010_);fill:#C92127;}
	.st149{clip-path:url(#SVGID_00000103986873565374128470000010197315689139801010_);fill:#CA2127;}
	.st150{clip-path:url(#SVGID_00000103986873565374128470000010197315689139801010_);fill:#CA2027;}
	.st151{clip-path:url(#SVGID_00000103986873565374128470000010197315689139801010_);fill:#CC2027;}
	.st152{clip-path:url(#SVGID_00000103986873565374128470000010197315689139801010_);fill:#CD2027;}
	.st153{clip-path:url(#SVGID_00000103986873565374128470000010197315689139801010_);fill:#CE2127;}
	.st154{clip-path:url(#SVGID_00000103986873565374128470000010197315689139801010_);fill:#CF2127;}
	.st155{clip-path:url(#SVGID_00000103986873565374128470000010197315689139801010_);fill:#D02027;}
	.st156{clip-path:url(#SVGID_00000103986873565374128470000010197315689139801010_);fill:#D12027;}
	.st157{clip-path:url(#SVGID_00000103986873565374128470000010197315689139801010_);fill:#D22027;}
	.st158{clip-path:url(#SVGID_00000103986873565374128470000010197315689139801010_);fill:#D32027;}
	.st159{clip-path:url(#SVGID_00000103986873565374128470000010197315689139801010_);fill:#D42027;}
	.st160{clip-path:url(#SVGID_00000103986873565374128470000010197315689139801010_);fill:#D52027;}
	.st161{clip-path:url(#SVGID_00000103986873565374128470000010197315689139801010_);fill:#D62027;}
	.st162{clip-path:url(#SVGID_00000103986873565374128470000010197315689139801010_);fill:#D72027;}
	.st163{clip-path:url(#SVGID_00000103986873565374128470000010197315689139801010_);fill:#D71F27;}
	.st164{clip-path:url(#SVGID_00000026156613809145810640000005000297318284026286_);}
	.st165{clip-path:url(#SVGID_00000019665222072729895110000001155245981737570470_);fill:#650F0E;}
	.st166{clip-path:url(#SVGID_00000019665222072729895110000001155245981737570470_);fill:#670E0D;}
	.st167{clip-path:url(#SVGID_00000019665222072729895110000001155245981737570470_);fill:#690C0D;}
	.st168{clip-path:url(#SVGID_00000019665222072729895110000001155245981737570470_);fill:#6C0D0F;}
	.st169{clip-path:url(#SVGID_00000019665222072729895110000001155245981737570470_);fill:#6F0F10;}
	.st170{clip-path:url(#SVGID_00000019665222072729895110000001155245981737570470_);fill:#700F10;}
	.st171{clip-path:url(#SVGID_00000019665222072729895110000001155245981737570470_);fill:#721011;}
	.st172{clip-path:url(#SVGID_00000019665222072729895110000001155245981737570470_);fill:#741012;}
	.st173{clip-path:url(#SVGID_00000019665222072729895110000001155245981737570470_);fill:#761113;}
	.st174{clip-path:url(#SVGID_00000019665222072729895110000001155245981737570470_);fill:#781214;}
	.st175{clip-path:url(#SVGID_00000019665222072729895110000001155245981737570470_);fill:#7A1214;}
	.st176{clip-path:url(#SVGID_00000019665222072729895110000001155245981737570470_);fill:#7B1315;}
	.st177{clip-path:url(#SVGID_00000019665222072729895110000001155245981737570470_);fill:#7D1416;}
	.st178{clip-path:url(#SVGID_00000019665222072729895110000001155245981737570470_);fill:#7F1416;}
	.st179{clip-path:url(#SVGID_00000019665222072729895110000001155245981737570470_);fill:#801517;}
	.st180{clip-path:url(#SVGID_00000019665222072729895110000001155245981737570470_);fill:#811517;}
	.st181{clip-path:url(#SVGID_00000019665222072729895110000001155245981737570470_);fill:#831618;}
	.st182{clip-path:url(#SVGID_00000019665222072729895110000001155245981737570470_);fill:#851619;}
	.st183{clip-path:url(#SVGID_00000019665222072729895110000001155245981737570470_);fill:#871719;}
	.st184{clip-path:url(#SVGID_00000019665222072729895110000001155245981737570470_);fill:#88171A;}
	.st185{clip-path:url(#SVGID_00000019665222072729895110000001155245981737570470_);fill:#89181A;}
	.st186{clip-path:url(#SVGID_00000019665222072729895110000001155245981737570470_);fill:#8B181B;}
	.st187{clip-path:url(#SVGID_00000019665222072729895110000001155245981737570470_);fill:#8D181B;}
	.st188{clip-path:url(#SVGID_00000019665222072729895110000001155245981737570470_);fill:#8F191C;}
	.st189{clip-path:url(#SVGID_00000019665222072729895110000001155245981737570470_);fill:#91191C;}
	.st190{clip-path:url(#SVGID_00000019665222072729895110000001155245981737570470_);fill:#921A1D;}
	.st191{clip-path:url(#SVGID_00000019665222072729895110000001155245981737570470_);fill:#941A1D;}
	.st192{clip-path:url(#SVGID_00000019665222072729895110000001155245981737570470_);fill:#951B1E;}
	.st193{clip-path:url(#SVGID_00000019665222072729895110000001155245981737570470_);fill:#971B1E;}
	.st194{clip-path:url(#SVGID_00000019665222072729895110000001155245981737570470_);fill:#981B1F;}
	.st195{clip-path:url(#SVGID_00000019665222072729895110000001155245981737570470_);fill:#9A1C1F;}
	.st196{clip-path:url(#SVGID_00000019665222072729895110000001155245981737570470_);fill:#9B1C1F;}
	.st197{clip-path:url(#SVGID_00000019665222072729895110000001155245981737570470_);fill:#9D1C20;}
	.st198{clip-path:url(#SVGID_00000019665222072729895110000001155245981737570470_);fill:#9E1D20;}
	.st199{clip-path:url(#SVGID_00000019665222072729895110000001155245981737570470_);fill:#A01D20;}
	.st200{clip-path:url(#SVGID_00000019665222072729895110000001155245981737570470_);fill:#A01D21;}
	.st201{clip-path:url(#SVGID_00000019665222072729895110000001155245981737570470_);fill:#A11D21;}
	.st202{clip-path:url(#SVGID_00000019665222072729895110000001155245981737570470_);fill:#A21E21;}
	.st203{clip-path:url(#SVGID_00000019665222072729895110000001155245981737570470_);fill:#A31E22;}
	.st204{clip-path:url(#SVGID_00000019665222072729895110000001155245981737570470_);fill:#A51E22;}
	.st205{clip-path:url(#SVGID_00000019665222072729895110000001155245981737570470_);fill:#A61E22;}
	.st206{clip-path:url(#SVGID_00000019665222072729895110000001155245981737570470_);fill:#A71E22;}
	.st207{clip-path:url(#SVGID_00000019665222072729895110000001155245981737570470_);fill:#A91E23;}
	.st208{clip-path:url(#SVGID_00000019665222072729895110000001155245981737570470_);fill:#AB1F23;}
	.st209{clip-path:url(#SVGID_00000019665222072729895110000001155245981737570470_);fill:#AC1F23;}
	.st210{clip-path:url(#SVGID_00000019665222072729895110000001155245981737570470_);fill:#AD1F23;}
	.st211{clip-path:url(#SVGID_00000019665222072729895110000001155245981737570470_);fill:#AE1F24;}
	.st212{clip-path:url(#SVGID_00000019665222072729895110000001155245981737570470_);fill:#AF1F24;}
	.st213{clip-path:url(#SVGID_00000019665222072729895110000001155245981737570470_);fill:#B22024;}
	.st214{clip-path:url(#SVGID_00000019665222072729895110000001155245981737570470_);fill:#B32025;}
	.st215{clip-path:url(#SVGID_00000019665222072729895110000001155245981737570470_);fill:#B42025;}
	.st216{clip-path:url(#SVGID_00000019665222072729895110000001155245981737570470_);fill:#B52025;}
	.st217{clip-path:url(#SVGID_00000019665222072729895110000001155245981737570470_);fill:#B72025;}
	.st218{clip-path:url(#SVGID_00000019665222072729895110000001155245981737570470_);fill:#B92025;}
	.st219{clip-path:url(#SVGID_00000019665222072729895110000001155245981737570470_);fill:#BC2026;}
	.st220{clip-path:url(#SVGID_00000019665222072729895110000001155245981737570470_);fill:#BE2126;}
	.st221{clip-path:url(#SVGID_00000019665222072729895110000001155245981737570470_);fill:#BF2126;}
	.st222{clip-path:url(#SVGID_00000019665222072729895110000001155245981737570470_);fill:#C02126;}
	.st223{clip-path:url(#SVGID_00000019665222072729895110000001155245981737570470_);fill:#C12126;}
	.st224{clip-path:url(#SVGID_00000019665222072729895110000001155245981737570470_);fill:#C22126;}
	.st225{clip-path:url(#SVGID_00000019665222072729895110000001155245981737570470_);fill:#C32126;}
	.st226{clip-path:url(#SVGID_00000019665222072729895110000001155245981737570470_);fill:#C42126;}
	.st227{clip-path:url(#SVGID_00000019665222072729895110000001155245981737570470_);fill:#C52126;}
	.st228{clip-path:url(#SVGID_00000019665222072729895110000001155245981737570470_);fill:#C62127;}
	.st229{clip-path:url(#SVGID_00000019665222072729895110000001155245981737570470_);fill:#C72127;}
	.st230{clip-path:url(#SVGID_00000019665222072729895110000001155245981737570470_);fill:#C82127;}
	.st231{clip-path:url(#SVGID_00000019665222072729895110000001155245981737570470_);fill:#C92127;}
	.st232{clip-path:url(#SVGID_00000019665222072729895110000001155245981737570470_);fill:#CA2127;}
	.st233{clip-path:url(#SVGID_00000019665222072729895110000001155245981737570470_);fill:#CA2027;}
	.st234{clip-path:url(#SVGID_00000019665222072729895110000001155245981737570470_);fill:#CC2027;}
	.st235{clip-path:url(#SVGID_00000019665222072729895110000001155245981737570470_);fill:#CD2027;}
	.st236{clip-path:url(#SVGID_00000019665222072729895110000001155245981737570470_);fill:#CE2127;}
	.st237{clip-path:url(#SVGID_00000019665222072729895110000001155245981737570470_);fill:#CF2127;}
	.st238{clip-path:url(#SVGID_00000019665222072729895110000001155245981737570470_);fill:#D02027;}
	.st239{clip-path:url(#SVGID_00000019665222072729895110000001155245981737570470_);fill:#D12027;}
	.st240{clip-path:url(#SVGID_00000019665222072729895110000001155245981737570470_);fill:#D22027;}
	.st241{clip-path:url(#SVGID_00000019665222072729895110000001155245981737570470_);fill:#D32027;}
	.st242{clip-path:url(#SVGID_00000019665222072729895110000001155245981737570470_);fill:#D42027;}
	.st243{clip-path:url(#SVGID_00000019665222072729895110000001155245981737570470_);fill:#D52027;}
	.st244{clip-path:url(#SVGID_00000019665222072729895110000001155245981737570470_);fill:#D62027;}
	.st245{clip-path:url(#SVGID_00000019665222072729895110000001155245981737570470_);fill:#D72027;}
	.st246{clip-path:url(#SVGID_00000019665222072729895110000001155245981737570470_);fill:#D71F27;}
	.st247{fill:#C3996B;}
	.st248{fill:#F06724;}
	.st249{fill:#231F20;}
	.st250{fill:#AEB3B6;}
	.st251{fill:#EE3537;}
	.st252{fill:#9BA0A3;}
	.st253{fill:#AFB3B5;}
	.st254{fill:#F2EB44;}
	.st255{fill:#FFDD26;}
	.st256{clip-path:url(#XMLID_00000117678543306687842710000003024342340423334833_);}
	.st257{fill:#7E8386;}
	.st258{fill:#A4AAAC;}
	.st259{fill:#131718;}
	.st260{fill:#007843;}
	.st261{fill:#2AB34B;}
	.st262{fill:none;stroke:#FFFFFF;stroke-width:1.4841;stroke-miterlimit:10;}
	.st263{fill:#2E3192;}
	.st264{fill:#154458;}
	.st265{fill:#C72026;}
	.st266{fill:#5FBB46;}
	.st267{fill:#1A5F30;}
	.st268{fill:#293896;}
	.st269{filter:url(#Adobe_OpacityMaskFilter_00000122002107166215071830000012231949888385893778_);}
	.st270{filter:url(#Adobe_OpacityMaskFilter_00000093861323374741402230000018085592489700732840_);}
	
		.st271{mask:url(#SVGID_00000044153759346498810030000014150031351797271443_);fill:url(#SVGID_00000049902948488998738500000002439829698570379403_);}
	.st272{filter:url(#Adobe_OpacityMaskFilter_00000083779214816009545620000016614607287703877761_);}
	.st273{filter:url(#Adobe_OpacityMaskFilter_00000040572657293084048270000017076294405282733240_);}
	
		.st274{mask:url(#SVGID_00000034775767649759608760000013122488429980564401_);fill:url(#SVGID_00000133495853359075764520000007304133210754864783_);}
	.st275{filter:url(#Adobe_OpacityMaskFilter_00000034085354173493558720000006587389703490110871_);}
	.st276{filter:url(#Adobe_OpacityMaskFilter_00000047017946058530356790000016297000609087511190_);}
	
		.st277{mask:url(#SVGID_00000000928350788154142980000016240603079015084219_);fill:url(#SVGID_00000079456017274978681510000009133842738129595574_);}
	.st278{filter:url(#Adobe_OpacityMaskFilter_00000104676959444913009450000007730522550810598798_);}
	.st279{filter:url(#Adobe_OpacityMaskFilter_00000148656259139718282680000010188487879458673042_);}
	
		.st280{mask:url(#SVGID_00000108997841801638711190000008395574079221692294_);fill:url(#SVGID_00000152952889775469298040000004011025360687088556_);}
	.st281{filter:url(#Adobe_OpacityMaskFilter_00000018215310965104590930000001682363445556907428_);}
	.st282{filter:url(#Adobe_OpacityMaskFilter_00000008836167667426090300000017927530331160804028_);}
	
		.st283{mask:url(#SVGID_00000147934032591696964840000005953526811732916662_);fill:url(#SVGID_00000121269022354645003420000003265827655891291294_);}
	.st284{filter:url(#Adobe_OpacityMaskFilter_00000012457363899972753910000011314977756203739828_);}
	.st285{filter:url(#Adobe_OpacityMaskFilter_00000113329563735382467160000007487202800194877852_);}
	
		.st286{mask:url(#SVGID_00000073723219120429779330000001187135725681106071_);fill:url(#SVGID_00000119093442310560715910000017793301785936716418_);}
	.st287{filter:url(#Adobe_OpacityMaskFilter_00000080169902486167083040000006753978180580403615_);}
	.st288{filter:url(#Adobe_OpacityMaskFilter_00000121971707823960711640000013656322983306807475_);}
	
		.st289{mask:url(#SVGID_00000005258532779563947730000010306545434951739570_);fill:url(#SVGID_00000027601465383301755590000012881043588195437974_);}
	.st290{filter:url(#Adobe_OpacityMaskFilter_00000158748514099490719720000009898657696522518964_);}
	.st291{filter:url(#Adobe_OpacityMaskFilter_00000028290036670733030790000018048142031524633256_);}
	
		.st292{mask:url(#SVGID_00000105429179255563226520000017794628388045521296_);fill:url(#SVGID_00000133531129282698552000000001889024189536615824_);}
	.st293{filter:url(#Adobe_OpacityMaskFilter_00000169552555675990364150000005134330204457907864_);}
	.st294{filter:url(#Adobe_OpacityMaskFilter_00000160181151653652047730000007838920132529605304_);}
	
		.st295{mask:url(#SVGID_00000057145196520498921800000002806125518874483127_);fill:url(#SVGID_00000078030571497692336990000007660503982202532480_);}
	.st296{filter:url(#Adobe_OpacityMaskFilter_00000143610223943383976210000002760932674358245006_);}
	.st297{filter:url(#Adobe_OpacityMaskFilter_00000156578329120313211380000002147082015609427375_);}
	
		.st298{mask:url(#SVGID_00000080172062605347483070000007384682574430925952_);fill:url(#SVGID_00000151501137952857267100000011635269525296985472_);}
	.st299{clip-path:url(#SVGID_00000166666500614516470170000014542103006068802995_);fill:#FFF200;}
	
		.st300{clip-path:url(#SVGID_00000166666500614516470170000014542103006068802995_);fill:none;stroke:#FFFFFF;stroke-width:4.8568;stroke-linejoin:round;stroke-miterlimit:10;}
	.st301{clip-path:url(#SVGID_00000166666500614516470170000014542103006068802995_);fill:#ED1C24;}
	.st302{clip-path:url(#SVGID_00000166666500614516470170000014542103006068802995_);fill:#FFFFFF;}
	.st303{clip-path:url(#SVGID_00000166666500614516470170000014542103006068802995_);fill:#2E3192;}
	.st304{clip-path:url(#SVGID_00000166666500614516470170000014542103006068802995_);}
	.st305{clip-path:url(#SVGID_00000166666500614516470170000014542103006068802995_);fill:#F4817F;}
	.st306{clip-path:url(#SVGID_00000166666500614516470170000014542103006068802995_);fill:#56BF98;}
	.st307{clip-path:url(#SVGID_00000166666500614516470170000014542103006068802995_);fill:#570C08;}
	.st308{clip-path:url(#SVGID_00000166666500614516470170000014542103006068802995_);fill:#00A750;}
	
		.st309{fill:#FFFFFF;stroke:url(#SVGID_00000174589167296410926760000015348638407320174987_);stroke-width:7.11;stroke-miterlimit:10;}
	.st310{fill:#ED2224;}
	.st311{fill:#074E28;}
	.st312{fill:#EB2627;}
	.st313{fill:#D1D3D4;}
	.st314{fill:#5F1F16;}
	.st315{fill:#F1E7E6;}
	.st316{fill:#ED2024;}
	.st317{fill:url(#SVGID_00000083071771290529074510000006779142676467079596_);}
	.st318{fill:url(#SVGID_00000003792029889838656850000005839274238539870855_);}
	.st319{fill:#BB2025;}
	.st320{fill:url(#SVGID_00000003088640418427320780000016973498463889488319_);}
	.st321{fill:url(#SVGID_00000168838620394507121880000002865354328683975607_);}
	.st322{fill:none;stroke:#7F8080;stroke-width:0.8623;stroke-miterlimit:10;}
	.st323{fill:url(#SVGID_00000012468115991140051390000012348173639887084424_);}
	.st324{fill:url(#SVGID_00000181788584246437477000000015474596105372185772_);}
	.st325{fill:url(#SVGID_00000127758465100622895410000012819724277635014578_);}
	.st326{fill:url(#SVGID_00000101094475435528780890000016922565291697270438_);}
	.st327{fill:url(#SVGID_00000033343667523938041770000014067635498375378101_);}
	.st328{fill:url(#SVGID_00000012472655458556005560000018083902698595972510_);}
	.st329{fill:url(#SVGID_00000030468728323179169490000010895709099249712284_);}
	.st330{fill:url(#SVGID_00000036220339064670083540000004775259636772102804_);}
	.st331{fill:url(#SVGID_00000004535962528183571380000010203510853634797212_);}
	.st332{fill:url(#SVGID_00000069360419573108174320000012309630319192904596_);}
	.st333{fill:url(#SVGID_00000103261335602526154670000008197234608434439824_);}
	.st334{fill:url(#SVGID_00000028307934613476831040000011887259443534204035_);}
	.st335{fill:url(#SVGID_00000026165674961970823570000015458713037568435333_);}
	.st336{fill:url(#SVGID_00000022548685649669131670000009636221823685778365_);}
	.st337{fill:#E01E26;}
</style>
<g>
	<g>
		<g>
			<g>
				<path class="st13" d="M169.27,106.12c0,0,1.84-9.13,15.75-3.18c5.34,2.42,6.93,5.4,14.34,5.8c0,0-4.31,7.25-14.1,5.8
					C175.48,113.08,170.84,108.41,169.27,106.12z"/>
				<path class="st13" d="M187.85,117.95c-0.97,0-1.98-0.07-3.05-0.23c-11.85-1.76-16.91-7.93-18.17-9.78
					c-0.49-0.72-0.67-1.6-0.5-2.45c0.09-0.44,0.98-4.34,5.06-6.49c3.82-2,8.9-1.67,15.11,0.98c0.02,0.01,0.04,0.02,0.06,0.03
					c1.9,0.86,3.36,1.78,4.65,2.58c2.51,1.57,4.32,2.7,8.54,2.93c1.12,0.06,2.13,0.7,2.66,1.7c0.53,0.99,0.5,2.19-0.07,3.16
					C201.92,110.72,197.5,117.95,187.85,117.95z M173.04,105.62c1.75,1.79,5.59,4.68,12.69,5.73c2.74,0.41,4.93-0.04,6.6-0.78
					c-1.86-0.72-3.31-1.63-4.75-2.53c-1.22-0.76-2.37-1.49-3.86-2.16c-4.2-1.79-7.6-2.22-9.55-1.19
					C173.67,104.95,173.3,105.29,173.04,105.62z"/>
			</g>
			<g>
				<path class="st13" d="M169.27,74.62c-13.46,0-24.37,10.91-24.37,24.37c0,13.46,10.91,24.37,24.37,24.37
					c13.46,0,24.37-10.91,24.37-24.37C193.64,85.53,182.73,74.62,169.27,74.62z M169.27,113.45c-7.99,0-14.46-6.48-14.46-14.46
					c0-7.99,6.48-14.46,14.46-14.46c7.99,0,14.46,6.47,14.46,14.46C183.73,106.97,177.26,113.45,169.27,113.45z"/>
				<path class="st13" d="M169.27,126.57c-15.21,0-27.58-12.37-27.58-27.58c0-15.21,12.37-27.58,27.58-27.58
					c15.21,0,27.58,12.37,27.58,27.58C196.85,114.19,184.48,126.57,169.27,126.57z M169.27,77.83c-11.66,0-21.15,9.49-21.15,21.15
					s9.49,21.15,21.15,21.15s21.15-9.49,21.15-21.15S180.94,77.83,169.27,77.83z M169.27,116.66c-9.75,0-17.68-7.93-17.68-17.68
					c0-9.74,7.93-17.67,17.68-17.67c9.74,0,17.67,7.93,17.67,17.67C186.95,108.73,179.02,116.66,169.27,116.66z M169.27,87.74
					c-6.2,0-11.24,5.04-11.24,11.24c0,6.2,5.04,11.24,11.24,11.24c6.2,0,11.24-5.04,11.24-11.24
					C180.52,92.79,175.47,87.74,169.27,87.74z"/>
			</g>
			<g>
				<path class="st13" d="M169.27,106.76c0,0,0.2,10.66,5.72,13.38c5.52,2.73,16.43,1.6,18.65,5.18c0,0-0.24-11.36-8.82-13.21
					C176.24,110.26,172.62,110.42,169.27,106.76z"/>
				<path class="st13" d="M193.64,128.54c-1.08,0-2.11-0.55-2.71-1.49c-0.79-0.79-4.79-1.32-7.18-1.64
					c-3.58-0.47-7.28-0.96-10.17-2.39c-7.07-3.49-7.49-14.92-7.51-16.21c-0.03-1.34,0.78-2.55,2.02-3.05
					c1.24-0.5,2.66-0.17,3.57,0.82c1.8,1.98,3.56,2.39,8.82,3.38c1.46,0.28,3.12,0.59,5.03,1c10.93,2.36,11.34,15.72,11.36,16.28
					c0.03,1.45-0.91,2.74-2.3,3.15C194.25,128.5,193.94,128.54,193.64,128.54z M190.94,127.06L190.94,127.06L190.94,127.06z
					 M173.57,113.03c0.62,1.91,1.54,3.59,2.84,4.23c1.94,0.96,5.1,1.37,8.17,1.78c1.56,0.21,3.09,0.41,4.52,0.69
					c-0.9-2.01-2.42-3.92-4.96-4.47c-1.83-0.39-3.44-0.7-4.86-0.97C177.12,113.88,175.25,113.53,173.57,113.03z"/>
			</g>
			<g>
				<g>
					<g>
						<path class="st13" d="M55.65,103.2c4.05-3.18,6.08-7.09,6.08-11.72c0-4.54-1.63-8.29-4.9-11.25
							c-2.93-2.64-7.06-3.96-12.39-3.96h-17.5v45.84h13.64v-14.54h2.12l6.51,14.54h14.3L55.65,103.2z M44.27,95.52h-3.69v-6.93h2.42
							c3.31,0,4.97,1.09,4.97,3.26C47.96,94.13,46.73,95.36,44.27,95.52z"/>
					</g>
				</g>
				<g>
					<g>
						<path class="st13" d="M63.51,125.32h-14.3c-1.27,0-2.42-0.74-2.93-1.9l-2.48-5.54v4.22c0,1.78-1.44,3.22-3.22,3.22H26.94
							c-1.78,0-3.22-1.44-3.22-3.22V76.27c0-1.78,1.44-3.22,3.22-3.22h17.5c6.12,0,11.01,1.61,14.54,4.79
							c3.96,3.58,5.97,8.17,5.97,13.64c0,4.87-1.83,9.11-5.44,12.62l6.97,16.77c0.41,0.99,0.3,2.12-0.29,3.02
							C65.59,124.78,64.59,125.32,63.51,125.32z M51.29,118.89h7.4l-6.01-14.46c-0.55-1.33-0.15-2.87,0.99-3.76
							c3.26-2.56,4.85-5.56,4.85-9.19c0-3.63-1.26-6.53-3.84-8.87c-2.31-2.08-5.75-3.13-10.23-3.13H30.16v39.41h7.21v-11.33
							c0-1.78,1.44-3.22,3.22-3.22h2.12c1.27,0,2.42,0.74,2.93,1.9L51.29,118.89z M44.27,98.74h-3.69c-1.78,0-3.22-1.44-3.22-3.22
							v-6.93c0-1.78,1.44-3.22,3.22-3.22h2.42c7.59,0,8.18,4.95,8.18,6.47c0,3.97-2.56,6.6-6.69,6.88
							C44.41,98.74,44.34,98.74,44.27,98.74z M43.79,92.31h0.35c0.3-0.03,0.48-0.07,0.58-0.11c0.01-0.05,0.02-0.11,0.02-0.2
							c-0.18-0.06-0.48-0.13-0.95-0.17V92.31z M44.7,92.3L44.7,92.3L44.7,92.3z M44.82,92.16L44.82,92.16L44.82,92.16z"/>
					</g>
				</g>
			</g>
			<g>
				<g>
					<g>
						<path class="st13" d="M81.71,76.27v45.84H68.08V76.27H81.71z"/>
					</g>
				</g>
				<g>
					<g>
						<path class="st13" d="M81.71,125.32H68.08c-1.78,0-3.22-1.44-3.22-3.22V76.27c0-1.78,1.44-3.22,3.22-3.22h13.63
							c1.78,0,3.22,1.44,3.22,3.22v45.84C84.93,123.88,83.49,125.32,81.71,125.32z M71.29,118.89h7.2V79.48h-7.2V118.89z"/>
					</g>
				</g>
			</g>
			<g>
				<path class="st13" d="M121.84,76.27l-14.24,32.67h14.07v13.16H87.08l14.17-32.67H86.28V76.27H121.84z"/>
				<path class="st13" d="M121.67,125.32H87.08c-1.08,0-2.09-0.55-2.69-1.45c-0.59-0.91-0.69-2.05-0.26-3.04l12.22-28.18H86.28
					c-1.78,0-3.22-1.44-3.22-3.22V76.27c0-1.78,1.44-3.22,3.22-3.22h35.56c1.08,0,2.1,0.55,2.69,1.45c0.59,0.91,0.69,2.05,0.26,3.05
					l-12.28,28.17h9.16c1.78,0,3.22,1.44,3.22,3.22v13.16C124.89,123.88,123.45,125.32,121.67,125.32z M91.98,118.89h26.47v-6.73
					H107.6c-1.08,0-2.1-0.55-2.69-1.45c-0.59-0.91-0.69-2.05-0.26-3.05l12.28-28.17H89.49v6.73h11.76c1.08,0,2.09,0.55,2.69,1.45
					c0.59,0.91,0.69,2.05,0.26,3.04L91.98,118.89z"/>
			</g>
			<g>
				<path class="st13" d="M140.07,76.27v45.84h-13.63V76.27H140.07z"/>
				<path class="st13" d="M140.07,125.32h-13.63c-1.78,0-3.22-1.44-3.22-3.22V76.27c0-1.78,1.44-3.22,3.22-3.22h13.63
					c1.78,0,3.22,1.44,3.22,3.22v45.84C143.29,123.88,141.85,125.32,140.07,125.32z M129.66,118.89h7.2V79.48h-7.2V118.89z"/>
			</g>
		</g>
		<g>
			<path class="st14" d="M169.27,106.12c0,0,1.84-9.13,15.75-3.18c5.34,2.42,6.93,5.4,14.34,5.8c0,0-4.31,7.25-14.1,5.8
				C175.48,113.08,170.84,108.41,169.27,106.12z"/>
			<path class="st2" d="M169.27,74.62c-13.46,0-24.37,10.91-24.37,24.37c0,13.46,10.91,24.37,24.37,24.37
				c13.46,0,24.37-10.91,24.37-24.37C193.64,85.53,182.73,74.62,169.27,74.62z M169.27,113.45c-7.99,0-14.46-6.48-14.46-14.46
				c0-7.99,6.48-14.46,14.46-14.46c7.99,0,14.46,6.47,14.46,14.46C183.73,106.97,177.26,113.45,169.27,113.45z"/>
			<path class="st15" d="M169.27,106.76c0,0,0.2,10.66,5.72,13.38c5.52,2.73,16.43,1.6,18.65,5.18c0,0-0.24-11.36-8.82-13.21
				C176.24,110.26,172.62,110.42,169.27,106.76z"/>
			<path class="st16" d="M55.65,103.2c4.05-3.18,6.08-7.09,6.08-11.72c0-4.54-1.63-8.29-4.9-11.25c-2.93-2.64-7.06-3.96-12.39-3.96
				h-17.5v45.84h13.64v-14.54h2.12l6.51,14.54h14.3L55.65,103.2z M44.27,95.52h-3.69v-6.93h2.42c3.31,0,4.97,1.09,4.97,3.26
				C47.96,94.13,46.73,95.36,44.27,95.52z"/>
			<path class="st16" d="M81.71,76.27v45.84H68.08V76.27H81.71z"/>
			<path class="st2" d="M121.84,76.27l-14.24,32.67h14.07v13.16H87.08l14.17-32.67H86.28V76.27H121.84z"/>
			<path class="st2" d="M140.07,76.27v45.84h-13.63V76.27H140.07z"/>
		</g>
	</g>
	<text transform="matrix(0.9641 0 0 1 26.0485 139.4757)" class="st17 st18">RESTAURANT AND GRILL HOUSE</text>
</g>
</svg>
