<?xml version="1.0" encoding="utf-8"?>
<!-- Generator: Adobe Illustrator 27.0.0, SVG Export Plug-In . SVG Version: 6.00 Build 0)  -->
<svg version="1.1" id="Layer_1" xmlns="http://www.w3.org/2000/svg" xmlns:xlink="http://www.w3.org/1999/xlink" x="0px" y="0px"
	 viewBox="0 0 226.77 226.77" style="enable-background:new 0 0 226.77 226.77;" xml:space="preserve">
<style type="text/css">
	.st0{fill:#FFF200;}
	.st1{stroke:#000000;stroke-width:5.2476;stroke-miterlimit:10;}
	.st2{fill:#FFFFFF;}
	.st3{fill:#ED1C24;}
	.st4{fill:#50B848;}
	.st5{fill:#007F3E;}
	.st6{fill:#F58220;}
	.st7{fill:#F37021;}
	.st8{fill:#1282C5;}
	.st9{fill:#F7941D;}
	.st10{fill:#FFFFFF;stroke:#FFFFFF;stroke-width:2.321;stroke-linecap:round;stroke-linejoin:round;}
	.st11{fill:#00854A;}
	.st12{fill:#34B34A;}
	.st13{fill:#13421E;}
	.st14{fill:#8CC540;stroke:#FFFFFF;stroke-width:1.2029;stroke-miterlimit:10;}
	.st15{fill:#065643;stroke:#FFFFFF;stroke-width:1.2029;stroke-miterlimit:10;}
	.st16{fill:#FFCB05;}
	.st17{fill:#224D71;}
	.st18{fill:#F8BC1B;}
	.st19{fill:#4CB748;}
	.st20{fill:url(#SVGID_00000098193446637161381030000000467125276130265770_);}
	.st21{fill:none;stroke:#FFFFFF;stroke-width:0.8396;stroke-miterlimit:10;}
	
		.st22{fill:url(#SVGID_00000002363362093588707320000013315327293207077277_);stroke:url(#SVGID_00000142171740831319653950000013988961236090390669_);stroke-width:0.6997;stroke-miterlimit:10;}
	
		.st23{fill:url(#SVGID_00000067206793357193189130000004775254932552855723_);stroke:url(#SVGID_00000149360475034918623230000016543536686474448521_);stroke-width:0.6997;stroke-miterlimit:10;}
	
		.st24{fill:url(#SVGID_00000090282996127821501360000005880235360196263050_);stroke:url(#SVGID_00000133492994529489781980000001989261671581940373_);stroke-width:0.6997;stroke-miterlimit:10;}
	
		.st25{fill:url(#SVGID_00000111178417601376938790000017258872253123719296_);stroke:url(#SVGID_00000146477263054415089360000014137787830025416866_);stroke-width:0.6997;stroke-miterlimit:10;}
	
		.st26{fill:url(#SVGID_00000169525033628733215620000000562576452757661602_);stroke:url(#SVGID_00000106840147359697817420000009324522144107538305_);stroke-width:0.6997;stroke-miterlimit:10;}
	.st27{fill:url(#SVGID_00000154388811794520200870000006684577115939298236_);}
	.st28{fill:url(#SVGID_00000022543606813421902040000005836279676741876621_);}
	.st29{fill:#005826;}
	.st30{fill:#BFD730;}
	.st31{fill:#00A651;stroke:#000000;stroke-width:2.8889;stroke-linecap:round;stroke-linejoin:round;stroke-miterlimit:10;}
	.st32{fill:#FFF200;stroke:#000000;stroke-width:2.8889;stroke-linecap:round;stroke-linejoin:round;stroke-miterlimit:10;}
	.st33{fill:#8DC63F;stroke:#000000;stroke-width:2.8889;stroke-linecap:round;stroke-linejoin:round;stroke-miterlimit:10;}
	.st34{fill:#0DB14B;stroke:#000000;stroke-width:2.8889;stroke-linecap:round;stroke-linejoin:round;stroke-miterlimit:10;}
	.st35{fill:#FFFFFF;stroke:#000000;stroke-width:2.8889;stroke-linecap:round;stroke-linejoin:round;stroke-miterlimit:10;}
	.st36{fill:#00A651;}
	.st37{fill:#8DC63F;}
	.st38{fill:#0DB14B;}
	.st39{fill:#034EA2;}
	.st40{fill:#00763F;}
	.st41{fill:url(#SVGID_00000034061870869023673210000015743493244263631034_);}
	.st42{fill:url(#SVGID_00000035491548347654273390000012713680503018950539_);}
	.st43{fill:url(#SVGID_00000094612937528433073260000009467201372987308965_);}
	.st44{fill:url(#SVGID_00000147937536888376105810000006349400141110442168_);}
	.st45{fill:url(#SVGID_00000044143152718995859060000013503152233804694463_);}
	.st46{fill:url(#SVGID_00000073689607923934911940000017381049901902607024_);}
	.st47{fill:url(#SVGID_00000111900199781054586460000013212021625507145103_);}
	.st48{fill:url(#SVGID_00000102507494346829470340000003635595633558998914_);}
	.st49{fill:url(#SVGID_00000044878382164726299070000000329256236022846106_);}
	.st50{fill:url(#SVGID_00000142875484572312801420000009574390421335338938_);}
	.st51{fill:#FFFFFF;stroke:#FFFFFF;stroke-width:4.8073;stroke-linecap:round;stroke-linejoin:round;stroke-miterlimit:10;}
	.st52{fill:url(#SVGID_00000134972723052814485090000001950281797803175838_);}
	.st53{fill:#00A651;stroke:#00A651;stroke-width:4.2345;stroke-linecap:round;stroke-linejoin:round;stroke-miterlimit:10;}
	.st54{fill:#939598;stroke:#939598;stroke-width:4.2345;stroke-linecap:round;stroke-linejoin:round;stroke-miterlimit:10;}
	.st55{fill:#CE181E;stroke:#CE181E;stroke-width:9.3609;stroke-miterlimit:10;}
	
		.st56{fill:none;stroke:url(#SVGID_00000062883666353478832600000007484913193264286372_);stroke-width:3.3359;stroke-miterlimit:10;}
	.st57{fill-rule:evenodd;clip-rule:evenodd;fill:#21A347;}
	.st58{filter:url(#Adobe_OpacityMaskFilter);}
	
		.st59{clip-path:url(#SVGID_00000093173710177927688280000012222812052008020400_);fill-rule:evenodd;clip-rule:evenodd;fill:url(#);}
	
		.st60{opacity:0.49;clip-path:url(#SVGID_00000093173710177927688280000012222812052008020400_);mask:url(#SVGID_00000016782614348248661900000012645939594709549993_);fill-rule:evenodd;clip-rule:evenodd;}
	
		.st61{clip-path:url(#SVGID_00000093173710177927688280000012222812052008020400_);fill-rule:evenodd;clip-rule:evenodd;fill:#007836;}
	.st62{filter:url(#Adobe_OpacityMaskFilter_00000070097909970788833460000002374367685633726104_);}
	
		.st63{opacity:0.49;clip-path:url(#SVGID_00000093173710177927688280000012222812052008020400_);mask:url(#SVGID_00000068677132934948635300000010810243111298335373_);fill-rule:evenodd;clip-rule:evenodd;}
	
		.st64{clip-path:url(#SVGID_00000093173710177927688280000012222812052008020400_);fill-rule:evenodd;clip-rule:evenodd;fill:#95C940;}
	.st65{fill-rule:evenodd;clip-rule:evenodd;fill:#FFFFFF;}
	.st66{fill:#FFC759;}
	.st67{fill:#D1A342;}
	.st68{fill:none;}
	.st69{clip-path:url(#SVGID_00000033346695638110184730000011278116315533093567_);}
	.st70{clip-path:url(#SVGID_00000021825044662525059550000009769029657191655834_);}
	.st71{fill:#9E1D20;}
	.st72{fill:#86888A;}
	.st73{fill:url(#SVGID_00000029742881761100319210000011445749981184232330_);}
	.st74{fill:url(#SVGID_00000122716359084345337260000000654007804524185749_);}
	.st75{fill:url(#SVGID_00000000199782034892601890000007827918592511462798_);}
	.st76{fill:url(#SVGID_00000150813552654744657730000003139750457481433765_);}
	.st77{fill:#F89522;}
	.st78{fill:#C0BFBF;}
	.st79{clip-path:url(#SVGID_00000140735525999389226450000003590562885125901493_);}
	.st80{clip-path:url(#SVGID_00000000222938182421495960000011325531002024661941_);fill:#650F0E;}
	.st81{clip-path:url(#SVGID_00000000222938182421495960000011325531002024661941_);fill:#670E0D;}
	.st82{clip-path:url(#SVGID_00000000222938182421495960000011325531002024661941_);fill:#690C0D;}
	.st83{clip-path:url(#SVGID_00000000222938182421495960000011325531002024661941_);fill:#6C0D0F;}
	.st84{clip-path:url(#SVGID_00000000222938182421495960000011325531002024661941_);fill:#6F0F10;}
	.st85{clip-path:url(#SVGID_00000000222938182421495960000011325531002024661941_);fill:#700F10;}
	.st86{clip-path:url(#SVGID_00000000222938182421495960000011325531002024661941_);fill:#721011;}
	.st87{clip-path:url(#SVGID_00000000222938182421495960000011325531002024661941_);fill:#741012;}
	.st88{clip-path:url(#SVGID_00000000222938182421495960000011325531002024661941_);fill:#761113;}
	.st89{clip-path:url(#SVGID_00000000222938182421495960000011325531002024661941_);fill:#781214;}
	.st90{clip-path:url(#SVGID_00000000222938182421495960000011325531002024661941_);fill:#7A1214;}
	.st91{clip-path:url(#SVGID_00000000222938182421495960000011325531002024661941_);fill:#7B1315;}
	.st92{clip-path:url(#SVGID_00000000222938182421495960000011325531002024661941_);fill:#7D1416;}
	.st93{clip-path:url(#SVGID_00000000222938182421495960000011325531002024661941_);fill:#7F1416;}
	.st94{clip-path:url(#SVGID_00000000222938182421495960000011325531002024661941_);fill:#801517;}
	.st95{clip-path:url(#SVGID_00000000222938182421495960000011325531002024661941_);fill:#811517;}
	.st96{clip-path:url(#SVGID_00000000222938182421495960000011325531002024661941_);fill:#831618;}
	.st97{clip-path:url(#SVGID_00000000222938182421495960000011325531002024661941_);fill:#851619;}
	.st98{clip-path:url(#SVGID_00000000222938182421495960000011325531002024661941_);fill:#871719;}
	.st99{clip-path:url(#SVGID_00000000222938182421495960000011325531002024661941_);fill:#88171A;}
	.st100{clip-path:url(#SVGID_00000000222938182421495960000011325531002024661941_);fill:#89181A;}
	.st101{clip-path:url(#SVGID_00000000222938182421495960000011325531002024661941_);fill:#8B181B;}
	.st102{clip-path:url(#SVGID_00000000222938182421495960000011325531002024661941_);fill:#8D181B;}
	.st103{clip-path:url(#SVGID_00000000222938182421495960000011325531002024661941_);fill:#8F191C;}
	.st104{clip-path:url(#SVGID_00000000222938182421495960000011325531002024661941_);fill:#91191C;}
	.st105{clip-path:url(#SVGID_00000000222938182421495960000011325531002024661941_);fill:#921A1D;}
	.st106{clip-path:url(#SVGID_00000000222938182421495960000011325531002024661941_);fill:#941A1D;}
	.st107{clip-path:url(#SVGID_00000000222938182421495960000011325531002024661941_);fill:#951B1E;}
	.st108{clip-path:url(#SVGID_00000000222938182421495960000011325531002024661941_);fill:#971B1E;}
	.st109{clip-path:url(#SVGID_00000000222938182421495960000011325531002024661941_);fill:#981B1F;}
	.st110{clip-path:url(#SVGID_00000000222938182421495960000011325531002024661941_);fill:#9A1C1F;}
	.st111{clip-path:url(#SVGID_00000000222938182421495960000011325531002024661941_);fill:#9B1C1F;}
	.st112{clip-path:url(#SVGID_00000000222938182421495960000011325531002024661941_);fill:#9D1C20;}
	.st113{clip-path:url(#SVGID_00000000222938182421495960000011325531002024661941_);fill:#9E1D20;}
	.st114{clip-path:url(#SVGID_00000000222938182421495960000011325531002024661941_);fill:#A01D20;}
	.st115{clip-path:url(#SVGID_00000000222938182421495960000011325531002024661941_);fill:#A01D21;}
	.st116{clip-path:url(#SVGID_00000000222938182421495960000011325531002024661941_);fill:#A11D21;}
	.st117{clip-path:url(#SVGID_00000000222938182421495960000011325531002024661941_);fill:#A21E21;}
	.st118{clip-path:url(#SVGID_00000000222938182421495960000011325531002024661941_);fill:#A31E22;}
	.st119{clip-path:url(#SVGID_00000000222938182421495960000011325531002024661941_);fill:#A51E22;}
	.st120{clip-path:url(#SVGID_00000000222938182421495960000011325531002024661941_);fill:#A61E22;}
	.st121{clip-path:url(#SVGID_00000000222938182421495960000011325531002024661941_);fill:#A71E22;}
	.st122{clip-path:url(#SVGID_00000000222938182421495960000011325531002024661941_);fill:#A91E23;}
	.st123{clip-path:url(#SVGID_00000000222938182421495960000011325531002024661941_);fill:#AB1F23;}
	.st124{clip-path:url(#SVGID_00000000222938182421495960000011325531002024661941_);fill:#AC1F23;}
	.st125{clip-path:url(#SVGID_00000000222938182421495960000011325531002024661941_);fill:#AD1F23;}
	.st126{clip-path:url(#SVGID_00000000222938182421495960000011325531002024661941_);fill:#AE1F24;}
	.st127{clip-path:url(#SVGID_00000000222938182421495960000011325531002024661941_);fill:#AF1F24;}
	.st128{clip-path:url(#SVGID_00000000222938182421495960000011325531002024661941_);fill:#B22024;}
	.st129{clip-path:url(#SVGID_00000000222938182421495960000011325531002024661941_);fill:#B32025;}
	.st130{clip-path:url(#SVGID_00000000222938182421495960000011325531002024661941_);fill:#B42025;}
	.st131{clip-path:url(#SVGID_00000000222938182421495960000011325531002024661941_);fill:#B52025;}
	.st132{clip-path:url(#SVGID_00000000222938182421495960000011325531002024661941_);fill:#B72025;}
	.st133{clip-path:url(#SVGID_00000000222938182421495960000011325531002024661941_);fill:#B92025;}
	.st134{clip-path:url(#SVGID_00000000222938182421495960000011325531002024661941_);fill:#BC2026;}
	.st135{clip-path:url(#SVGID_00000000222938182421495960000011325531002024661941_);fill:#BE2126;}
	.st136{clip-path:url(#SVGID_00000000222938182421495960000011325531002024661941_);fill:#BF2126;}
	.st137{clip-path:url(#SVGID_00000000222938182421495960000011325531002024661941_);fill:#C02126;}
	.st138{clip-path:url(#SVGID_00000000222938182421495960000011325531002024661941_);fill:#C12126;}
	.st139{clip-path:url(#SVGID_00000000222938182421495960000011325531002024661941_);fill:#C22126;}
	.st140{clip-path:url(#SVGID_00000000222938182421495960000011325531002024661941_);fill:#C32126;}
	.st141{clip-path:url(#SVGID_00000000222938182421495960000011325531002024661941_);fill:#C42126;}
	.st142{clip-path:url(#SVGID_00000000222938182421495960000011325531002024661941_);fill:#C52126;}
	.st143{clip-path:url(#SVGID_00000000222938182421495960000011325531002024661941_);fill:#C62127;}
	.st144{clip-path:url(#SVGID_00000000222938182421495960000011325531002024661941_);fill:#C72127;}
	.st145{clip-path:url(#SVGID_00000000222938182421495960000011325531002024661941_);fill:#C82127;}
	.st146{clip-path:url(#SVGID_00000000222938182421495960000011325531002024661941_);fill:#C92127;}
	.st147{clip-path:url(#SVGID_00000000222938182421495960000011325531002024661941_);fill:#CA2127;}
	.st148{clip-path:url(#SVGID_00000000222938182421495960000011325531002024661941_);fill:#CA2027;}
	.st149{clip-path:url(#SVGID_00000000222938182421495960000011325531002024661941_);fill:#CC2027;}
	.st150{clip-path:url(#SVGID_00000000222938182421495960000011325531002024661941_);fill:#CD2027;}
	.st151{clip-path:url(#SVGID_00000000222938182421495960000011325531002024661941_);fill:#CE2127;}
	.st152{clip-path:url(#SVGID_00000000222938182421495960000011325531002024661941_);fill:#CF2127;}
	.st153{clip-path:url(#SVGID_00000000222938182421495960000011325531002024661941_);fill:#D02027;}
	.st154{clip-path:url(#SVGID_00000000222938182421495960000011325531002024661941_);fill:#D12027;}
	.st155{clip-path:url(#SVGID_00000000222938182421495960000011325531002024661941_);fill:#D22027;}
	.st156{clip-path:url(#SVGID_00000000222938182421495960000011325531002024661941_);fill:#D32027;}
	.st157{clip-path:url(#SVGID_00000000222938182421495960000011325531002024661941_);fill:#D42027;}
	.st158{clip-path:url(#SVGID_00000000222938182421495960000011325531002024661941_);fill:#D52027;}
	.st159{clip-path:url(#SVGID_00000000222938182421495960000011325531002024661941_);fill:#D62027;}
	.st160{clip-path:url(#SVGID_00000000222938182421495960000011325531002024661941_);fill:#D72027;}
	.st161{clip-path:url(#SVGID_00000000222938182421495960000011325531002024661941_);fill:#D71F27;}
	.st162{clip-path:url(#SVGID_00000100348679184371270290000013863978009969079970_);}
	.st163{clip-path:url(#SVGID_00000161620027934618867010000001900434432542991252_);fill:#650F0E;}
	.st164{clip-path:url(#SVGID_00000161620027934618867010000001900434432542991252_);fill:#670E0D;}
	.st165{clip-path:url(#SVGID_00000161620027934618867010000001900434432542991252_);fill:#690C0D;}
	.st166{clip-path:url(#SVGID_00000161620027934618867010000001900434432542991252_);fill:#6C0D0F;}
	.st167{clip-path:url(#SVGID_00000161620027934618867010000001900434432542991252_);fill:#6F0F10;}
	.st168{clip-path:url(#SVGID_00000161620027934618867010000001900434432542991252_);fill:#700F10;}
	.st169{clip-path:url(#SVGID_00000161620027934618867010000001900434432542991252_);fill:#721011;}
	.st170{clip-path:url(#SVGID_00000161620027934618867010000001900434432542991252_);fill:#741012;}
	.st171{clip-path:url(#SVGID_00000161620027934618867010000001900434432542991252_);fill:#761113;}
	.st172{clip-path:url(#SVGID_00000161620027934618867010000001900434432542991252_);fill:#781214;}
	.st173{clip-path:url(#SVGID_00000161620027934618867010000001900434432542991252_);fill:#7A1214;}
	.st174{clip-path:url(#SVGID_00000161620027934618867010000001900434432542991252_);fill:#7B1315;}
	.st175{clip-path:url(#SVGID_00000161620027934618867010000001900434432542991252_);fill:#7D1416;}
	.st176{clip-path:url(#SVGID_00000161620027934618867010000001900434432542991252_);fill:#7F1416;}
	.st177{clip-path:url(#SVGID_00000161620027934618867010000001900434432542991252_);fill:#801517;}
	.st178{clip-path:url(#SVGID_00000161620027934618867010000001900434432542991252_);fill:#811517;}
	.st179{clip-path:url(#SVGID_00000161620027934618867010000001900434432542991252_);fill:#831618;}
	.st180{clip-path:url(#SVGID_00000161620027934618867010000001900434432542991252_);fill:#851619;}
	.st181{clip-path:url(#SVGID_00000161620027934618867010000001900434432542991252_);fill:#871719;}
	.st182{clip-path:url(#SVGID_00000161620027934618867010000001900434432542991252_);fill:#88171A;}
	.st183{clip-path:url(#SVGID_00000161620027934618867010000001900434432542991252_);fill:#89181A;}
	.st184{clip-path:url(#SVGID_00000161620027934618867010000001900434432542991252_);fill:#8B181B;}
	.st185{clip-path:url(#SVGID_00000161620027934618867010000001900434432542991252_);fill:#8D181B;}
	.st186{clip-path:url(#SVGID_00000161620027934618867010000001900434432542991252_);fill:#8F191C;}
	.st187{clip-path:url(#SVGID_00000161620027934618867010000001900434432542991252_);fill:#91191C;}
	.st188{clip-path:url(#SVGID_00000161620027934618867010000001900434432542991252_);fill:#921A1D;}
	.st189{clip-path:url(#SVGID_00000161620027934618867010000001900434432542991252_);fill:#941A1D;}
	.st190{clip-path:url(#SVGID_00000161620027934618867010000001900434432542991252_);fill:#951B1E;}
	.st191{clip-path:url(#SVGID_00000161620027934618867010000001900434432542991252_);fill:#971B1E;}
	.st192{clip-path:url(#SVGID_00000161620027934618867010000001900434432542991252_);fill:#981B1F;}
	.st193{clip-path:url(#SVGID_00000161620027934618867010000001900434432542991252_);fill:#9A1C1F;}
	.st194{clip-path:url(#SVGID_00000161620027934618867010000001900434432542991252_);fill:#9B1C1F;}
	.st195{clip-path:url(#SVGID_00000161620027934618867010000001900434432542991252_);fill:#9D1C20;}
	.st196{clip-path:url(#SVGID_00000161620027934618867010000001900434432542991252_);fill:#9E1D20;}
	.st197{clip-path:url(#SVGID_00000161620027934618867010000001900434432542991252_);fill:#A01D20;}
	.st198{clip-path:url(#SVGID_00000161620027934618867010000001900434432542991252_);fill:#A01D21;}
	.st199{clip-path:url(#SVGID_00000161620027934618867010000001900434432542991252_);fill:#A11D21;}
	.st200{clip-path:url(#SVGID_00000161620027934618867010000001900434432542991252_);fill:#A21E21;}
	.st201{clip-path:url(#SVGID_00000161620027934618867010000001900434432542991252_);fill:#A31E22;}
	.st202{clip-path:url(#SVGID_00000161620027934618867010000001900434432542991252_);fill:#A51E22;}
	.st203{clip-path:url(#SVGID_00000161620027934618867010000001900434432542991252_);fill:#A61E22;}
	.st204{clip-path:url(#SVGID_00000161620027934618867010000001900434432542991252_);fill:#A71E22;}
	.st205{clip-path:url(#SVGID_00000161620027934618867010000001900434432542991252_);fill:#A91E23;}
	.st206{clip-path:url(#SVGID_00000161620027934618867010000001900434432542991252_);fill:#AB1F23;}
	.st207{clip-path:url(#SVGID_00000161620027934618867010000001900434432542991252_);fill:#AC1F23;}
	.st208{clip-path:url(#SVGID_00000161620027934618867010000001900434432542991252_);fill:#AD1F23;}
	.st209{clip-path:url(#SVGID_00000161620027934618867010000001900434432542991252_);fill:#AE1F24;}
	.st210{clip-path:url(#SVGID_00000161620027934618867010000001900434432542991252_);fill:#AF1F24;}
	.st211{clip-path:url(#SVGID_00000161620027934618867010000001900434432542991252_);fill:#B22024;}
	.st212{clip-path:url(#SVGID_00000161620027934618867010000001900434432542991252_);fill:#B32025;}
	.st213{clip-path:url(#SVGID_00000161620027934618867010000001900434432542991252_);fill:#B42025;}
	.st214{clip-path:url(#SVGID_00000161620027934618867010000001900434432542991252_);fill:#B52025;}
	.st215{clip-path:url(#SVGID_00000161620027934618867010000001900434432542991252_);fill:#B72025;}
	.st216{clip-path:url(#SVGID_00000161620027934618867010000001900434432542991252_);fill:#B92025;}
	.st217{clip-path:url(#SVGID_00000161620027934618867010000001900434432542991252_);fill:#BC2026;}
	.st218{clip-path:url(#SVGID_00000161620027934618867010000001900434432542991252_);fill:#BE2126;}
	.st219{clip-path:url(#SVGID_00000161620027934618867010000001900434432542991252_);fill:#BF2126;}
	.st220{clip-path:url(#SVGID_00000161620027934618867010000001900434432542991252_);fill:#C02126;}
	.st221{clip-path:url(#SVGID_00000161620027934618867010000001900434432542991252_);fill:#C12126;}
	.st222{clip-path:url(#SVGID_00000161620027934618867010000001900434432542991252_);fill:#C22126;}
	.st223{clip-path:url(#SVGID_00000161620027934618867010000001900434432542991252_);fill:#C32126;}
	.st224{clip-path:url(#SVGID_00000161620027934618867010000001900434432542991252_);fill:#C42126;}
	.st225{clip-path:url(#SVGID_00000161620027934618867010000001900434432542991252_);fill:#C52126;}
	.st226{clip-path:url(#SVGID_00000161620027934618867010000001900434432542991252_);fill:#C62127;}
	.st227{clip-path:url(#SVGID_00000161620027934618867010000001900434432542991252_);fill:#C72127;}
	.st228{clip-path:url(#SVGID_00000161620027934618867010000001900434432542991252_);fill:#C82127;}
	.st229{clip-path:url(#SVGID_00000161620027934618867010000001900434432542991252_);fill:#C92127;}
	.st230{clip-path:url(#SVGID_00000161620027934618867010000001900434432542991252_);fill:#CA2127;}
	.st231{clip-path:url(#SVGID_00000161620027934618867010000001900434432542991252_);fill:#CA2027;}
	.st232{clip-path:url(#SVGID_00000161620027934618867010000001900434432542991252_);fill:#CC2027;}
	.st233{clip-path:url(#SVGID_00000161620027934618867010000001900434432542991252_);fill:#CD2027;}
	.st234{clip-path:url(#SVGID_00000161620027934618867010000001900434432542991252_);fill:#CE2127;}
	.st235{clip-path:url(#SVGID_00000161620027934618867010000001900434432542991252_);fill:#CF2127;}
	.st236{clip-path:url(#SVGID_00000161620027934618867010000001900434432542991252_);fill:#D02027;}
	.st237{clip-path:url(#SVGID_00000161620027934618867010000001900434432542991252_);fill:#D12027;}
	.st238{clip-path:url(#SVGID_00000161620027934618867010000001900434432542991252_);fill:#D22027;}
	.st239{clip-path:url(#SVGID_00000161620027934618867010000001900434432542991252_);fill:#D32027;}
	.st240{clip-path:url(#SVGID_00000161620027934618867010000001900434432542991252_);fill:#D42027;}
	.st241{clip-path:url(#SVGID_00000161620027934618867010000001900434432542991252_);fill:#D52027;}
	.st242{clip-path:url(#SVGID_00000161620027934618867010000001900434432542991252_);fill:#D62027;}
	.st243{clip-path:url(#SVGID_00000161620027934618867010000001900434432542991252_);fill:#D72027;}
	.st244{clip-path:url(#SVGID_00000161620027934618867010000001900434432542991252_);fill:#D71F27;}
	.st245{fill:#C3996B;}
	.st246{fill:#F06724;}
	.st247{fill:#231F20;}
	.st248{fill:#AEB3B6;}
	.st249{fill:#EE3537;}
	.st250{fill:#9BA0A3;}
	.st251{fill:#AFB3B5;}
	.st252{fill:#F2EB44;}
	.st253{fill:#FFDD26;}
	.st254{clip-path:url(#XMLID_00000008869382864635724660000007308167124208631960_);}
	.st255{fill:#7E8386;}
	.st256{fill:#A4AAAC;}
	.st257{fill:#131718;}
	.st258{fill:#007843;}
	.st259{fill:#2AB34B;}
	.st260{fill:none;stroke:#FFFFFF;stroke-width:1.4841;stroke-miterlimit:10;}
	.st261{fill:#2E3192;}
	.st262{fill:#154458;}
	.st263{fill:#C72026;}
	.st264{fill:#5FBB46;}
	.st265{fill:#1A5F30;}
	.st266{fill:#293896;}
	.st267{filter:url(#Adobe_OpacityMaskFilter_00000036957056380352869460000018091510338648802970_);}
	.st268{filter:url(#Adobe_OpacityMaskFilter_00000073693006895994868510000012438274069636609425_);}
	
		.st269{mask:url(#SVGID_00000126319010951718570570000016459639402858730388_);fill:url(#SVGID_00000104678518060540555830000012412280200335736216_);}
	.st270{filter:url(#Adobe_OpacityMaskFilter_00000045604036471173693000000010477906032770362300_);}
	.st271{filter:url(#Adobe_OpacityMaskFilter_00000167359902324209596040000004901530846335155365_);}
	
		.st272{mask:url(#SVGID_00000077286835043600654630000013177542188167415727_);fill:url(#SVGID_00000090259710626194813100000007964986759520478336_);}
	.st273{filter:url(#Adobe_OpacityMaskFilter_00000113345564732096419010000017319479408840502434_);}
	.st274{filter:url(#Adobe_OpacityMaskFilter_00000031893245053525256040000004074546087531835309_);}
	
		.st275{mask:url(#SVGID_00000093178120553063130810000015111613629693623224_);fill:url(#SVGID_00000132074248065816749850000007412272005835864222_);}
	.st276{filter:url(#Adobe_OpacityMaskFilter_00000138546542426038169020000014424147608647051965_);}
	.st277{filter:url(#Adobe_OpacityMaskFilter_00000145019044385214993600000009351306901813738387_);}
	
		.st278{mask:url(#SVGID_00000077307712337255817830000011261054597532105373_);fill:url(#SVGID_00000162339682457914145870000010804170221668610447_);}
	.st279{filter:url(#Adobe_OpacityMaskFilter_00000037664340744283082020000012169259825323927705_);}
	.st280{filter:url(#Adobe_OpacityMaskFilter_00000054968530065761311100000009960354769698538114_);}
	
		.st281{mask:url(#SVGID_00000013884838294175466600000015571867518014745498_);fill:url(#SVGID_00000039096303621555424880000016054110246909591185_);}
	.st282{filter:url(#Adobe_OpacityMaskFilter_00000142161374956201208340000014584310107486919094_);}
	.st283{filter:url(#Adobe_OpacityMaskFilter_00000062900005578090462790000014357564147813825200_);}
	
		.st284{mask:url(#SVGID_00000164487801689960032710000014942117565242324415_);fill:url(#SVGID_00000164491851940593670040000005701098180957665674_);}
	.st285{filter:url(#Adobe_OpacityMaskFilter_00000071548416350164511660000003325984639450395537_);}
	.st286{filter:url(#Adobe_OpacityMaskFilter_00000164503877557346183390000014049842068450186386_);}
	
		.st287{mask:url(#SVGID_00000082326436181830874440000007348156700975751606_);fill:url(#SVGID_00000063596876878287057430000013941797674636255622_);}
	.st288{filter:url(#Adobe_OpacityMaskFilter_00000114038889418610391560000008369781470758370717_);}
	.st289{filter:url(#Adobe_OpacityMaskFilter_00000093887373144015079340000018149485793848916867_);}
	
		.st290{mask:url(#SVGID_00000035510160024752585400000014783997166732128139_);fill:url(#SVGID_00000013913644331056629840000013077858088255952542_);}
	.st291{filter:url(#Adobe_OpacityMaskFilter_00000053537152856114214920000014610726409479088295_);}
	.st292{filter:url(#Adobe_OpacityMaskFilter_00000046337202470383922640000015697738333988771257_);}
	
		.st293{mask:url(#SVGID_00000107575492795678877490000007108759030013412525_);fill:url(#SVGID_00000102523774650585640530000010499332927395198876_);}
	.st294{filter:url(#Adobe_OpacityMaskFilter_00000168800946840733414140000016136125811781394102_);}
	.st295{filter:url(#Adobe_OpacityMaskFilter_00000072980027616675639670000013011635971612471220_);}
	
		.st296{mask:url(#SVGID_00000111186324863870804260000016506445277420746122_);fill:url(#SVGID_00000116221158552769317030000018245607650882121393_);}
	.st297{clip-path:url(#SVGID_00000158025238526248914320000012321891144238723490_);fill:#FFF200;}
	
		.st298{clip-path:url(#SVGID_00000158025238526248914320000012321891144238723490_);fill:none;stroke:#FFFFFF;stroke-width:4.8568;stroke-linejoin:round;stroke-miterlimit:10;}
	.st299{clip-path:url(#SVGID_00000158025238526248914320000012321891144238723490_);fill:#ED1C24;}
	.st300{clip-path:url(#SVGID_00000158025238526248914320000012321891144238723490_);fill:#FFFFFF;}
	.st301{clip-path:url(#SVGID_00000158025238526248914320000012321891144238723490_);fill:#2E3192;}
	.st302{clip-path:url(#SVGID_00000158025238526248914320000012321891144238723490_);}
	.st303{clip-path:url(#SVGID_00000158025238526248914320000012321891144238723490_);fill:#F4817F;}
	.st304{clip-path:url(#SVGID_00000158025238526248914320000012321891144238723490_);fill:#56BF98;}
	.st305{clip-path:url(#SVGID_00000158025238526248914320000012321891144238723490_);fill:#570C08;}
	.st306{clip-path:url(#SVGID_00000158025238526248914320000012321891144238723490_);fill:#00A750;}
	
		.st307{fill:#FFFFFF;stroke:url(#SVGID_00000018951577934781781190000001457421351858951296_);stroke-width:7.11;stroke-miterlimit:10;}
	.st308{fill:#ED2224;}
	.st309{fill:#074E28;}
	.st310{fill:#EB2627;}
	.st311{fill:#D1D3D4;}
	.st312{fill:#5F1F16;}
	.st313{fill:#F1E7E6;}
	.st314{fill:#ED2024;}
	.st315{fill:url(#SVGID_00000141435625174056255620000001350742944403661218_);}
	.st316{fill:url(#SVGID_00000143612596178995841730000003926237387279135651_);}
	.st317{fill:#BB2025;}
	.st318{fill:url(#SVGID_00000142889328739983619570000005359594817502232202_);}
	.st319{fill:url(#SVGID_00000065042754516176828410000016633651358978796975_);}
	.st320{fill:none;stroke:#7F8080;stroke-width:0.8623;stroke-miterlimit:10;}
	.st321{fill:url(#SVGID_00000037658086541027620100000013725176513814560131_);}
	.st322{fill:url(#SVGID_00000002380999391381604360000010100141079710187677_);}
	.st323{fill:url(#SVGID_00000065049152811874808720000005557030428743502990_);}
	.st324{fill:url(#SVGID_00000135678804950244875880000001739137653412303275_);}
	.st325{fill:url(#SVGID_00000127724130393408042390000012114696902577219979_);}
	.st326{fill:url(#SVGID_00000114048703418953275120000002812823934464930991_);}
	.st327{fill:url(#SVGID_00000138569062860354275220000002520649643526795198_);}
	.st328{fill:url(#SVGID_00000177454526272153937150000015100033003220396170_);}
	.st329{fill:url(#SVGID_00000149364389522007781350000012060484145151024006_);}
	.st330{fill:url(#SVGID_00000098200828761498871610000016328886634400686762_);}
	.st331{fill:url(#SVGID_00000073693740786860536880000009110278559727823775_);}
	.st332{fill:url(#SVGID_00000027565770405967797580000000592302353986235545_);}
	.st333{fill:url(#SVGID_00000103968915308362572230000013803358839656313483_);}
	.st334{fill:url(#SVGID_00000124144432224815317690000010710346700444491402_);}
	.st335{fill:#E01E26;}
</style>
<g>
	<g>
		<g>
			<path class="st263" d="M203.01,101.61v27.5c0,10.38-8.45,18.83-18.83,18.83h-29.79l-0.18,0.23
				c-10.04,12.54-24.99,19.73-41.03,19.73c-16.05,0-31.01-7.19-41.03-19.73l-0.18-0.23H42.16c-10.38,0-18.83-8.45-18.83-18.83v-27.5
				c0-10.38,8.45-18.83,18.83-18.83h29.81l0.18-0.23c10.02-12.54,24.98-19.73,41.03-19.73c16.05,0,31,7.19,41.03,19.73l0.18,0.23
				h29.79C194.56,82.78,203.01,91.23,203.01,101.61z"/>
			<path class="st2" d="M184.17,81.56h-29.2c-10.26-12.69-25.48-19.96-41.8-19.96c-16.33,0-31.55,7.28-41.8,19.96H42.16
				c-11.06,0-20.05,8.99-20.05,20.05v27.5c0,11.06,8.99,20.05,20.05,20.05h29.22c10.25,12.69,25.47,19.96,41.8,19.96
				c16.32,0,31.54-7.28,41.8-19.96h29.2c11.06,0,20.06-8.99,20.06-20.05v-27.5C204.23,90.55,195.23,81.56,184.17,81.56z
				 M203.01,129.11c0,10.38-8.45,18.83-18.83,18.83h-29.79l-0.18,0.23c-10.04,12.54-24.99,19.73-41.03,19.73
				c-16.05,0-31.01-7.19-41.03-19.73l-0.18-0.23H42.16c-10.38,0-18.83-8.45-18.83-18.83v-27.5c0-10.38,8.45-18.83,18.83-18.83h29.81
				l0.18-0.23c10.02-12.54,24.98-19.73,41.03-19.73c16.05,0,31,7.19,41.03,19.73l0.18,0.23h29.79c10.39,0,18.83,8.45,18.83,18.83
				V129.11z"/>
		</g>
	</g>
	<g>
		<path class="st2" d="M45.34,100.68h12.06c6.7,0,12.44,2.44,12.44,10.12c0,7.45-5.94,10.68-12.44,10.68h-3.83v9.65h-8.23V100.68z
			 M57.02,115.11c3.25,0,4.79-1.59,4.79-4.31c0-2.72-1.72-3.75-4.79-3.75h-3.45v8.06H57.02z"/>
		<path class="st2" d="M96.07,126.48c-0.48,1.5-0.96,3.05-1.42,4.66h2.87L96.07,126.48z M94.23,120.57l-6.2-19.89h-9.95l-9.48,30.45
			h8.42l1.53-6.47h8.71l1.54,6.47h4.64C93.41,128.95,93.51,125.16,94.23,120.57z M80.05,118.44l0.53-2.11
			c0.76-2.91,1.53-6.56,2.2-9.65h0.19c0.77,3.04,1.54,6.74,2.3,9.65l0.53,2.11H80.05z"/>
		<path class="st2" d="M133.36,121.86c1.05,1.97,2.58,2.9,3.92,2.9c2.2,0,3.45-1.03,3.45-4.87v-19.2h8.23v19.86
			c0,6.09-3.35,11.15-10.53,11.15c-5.07,0-8.33-1.87-10.63-5.76L133.36,121.86z"/>
		<path class="st2" d="M171.91,124.67h-8.71l-1.53,6.46h-8.42l9.48-30.45h9.96l9.48,30.45h-8.71L171.91,124.67z M170.42,118.44
			l-0.53-2.11c-0.77-2.9-1.53-6.6-2.3-9.65h-0.19c-0.67,3.09-1.44,6.75-2.2,9.65l-0.53,2.11H170.42z"/>
		<path class="st2" d="M105.19,94.56c-1.66,2.16-3.22,4.03-4.41,6.34l-1.36-3.55h-55.6l60.74-4.52L105.19,94.56z"/>
		<path class="st2" d="M123.22,97.35l0.01,34.34l-9.49-0.1l-9.95-23.34c1.43-2.64,2.92-5.04,4.41-7.22l9.58,23.56V92.13l64.74,5.22
			H123.22z"/>
		<g>
			<path class="st2" d="M134,79.59c-2.86,0.94-6.17,2.4-9.68,4.61c-4.93,3.13-10.78,8.16-16.37,16.21c-1.51,2.17-3,4.56-4.44,7.18
				c-2.78,5.04-5.41,10.98-7.72,17.96c-0.59,1.78-1.17,3.65-1.72,5.58h-0.06c-0.03-1.97,0.04-5.29,0.6-9.33
				c0.8-5.75,2.58-12.99,6.48-19.86c1.32-2.33,2.87-4.61,4.72-6.79c0.08-0.1,0.17-0.2,0.26-0.31
				C112.84,86.98,122.21,81.87,134,79.59z"/>
			<path class="st2" d="M94.07,131.13c-0.03,0.06-0.03,0.12-0.06,0.18v-0.18H94.07z"/>
		</g>
	</g>
	<g>
		<path class="st2" d="M96.16,137.15c-0.01,0.42-0.01,0.85-0.02,1.27c-1.27-0.87-2.71-1.27-4.32-1.27h-1.39
			c-1.92,0-3.58,0.68-4.95,1.92c-1.37,1.23-2.03,2.63-2.03,4.35v2.36c0.66,0.11,1.32,0.21,1.99,0.32s1.26,0.43,1.76,1
			c0.51,0.57,0.75,1.2,0.75,1.86c-1.21,0.24-2.41,0.45-3.6,0.61c0.41,1.09,0.81,2.2,1.2,3.34c3.42-0.34,6.91-1.07,10.44-2.08
			c-0.03,2.55-0.05,8.72-0.09,11.26c1.37,0.26,2.73,0.49,4.11,0.69c0.06-6.08,0.13-15.77,0.18-21.84c0.43,0.01,0.86,0.02,1.29,0.03
			c0.21,0,0.43,0.01,0.65,0.01c0.43,0.01,0.86,0.02,1.29,0.03c-0.05,6.19-0.1,17.97-0.15,24.15c1.38,0.15,2.76,0.27,4.16,0.36
			c0.03-6.29,0.06-18.16,0.1-24.45c0.65,0.01,1.29,0.02,1.94,0.02c0-1.31,1.62-3.13,2.14-3.93H96.16z M96.04,146.81
			c-1.45,0.47-2.9,0.9-4.34,1.28c-0.22-0.68-0.53-1.35-0.95-1.98c-0.84-1.24-1.92-2.13-3.27-2.69c0.01-0.89,0.3-1.57,0.87-2.09
			c0.57-0.52,1.25-0.77,2.04-0.74c0.46,0.02,0.91,0.05,1.38,0.07c1.2,0.05,2.21,0.52,3.05,1.47c0.84,0.95,1.25,2.06,1.24,3.32
			C96.05,145.9,96.05,146.36,96.04,146.81z"/>
		<path class="st2" d="M129.22,163.76c-0.04-3.8-0.09-7.6-0.13-11.4c-0.24,0.03-0.47,0.06-0.71,0.09c-1.7,0.2-3.19-0.23-4.45-1.3
			c-0.81-0.66-1.37-1.58-1.68-2.74c-0.77,0.91-1.15,2.01-1.15,3.29c0.01,1.58,0.74,2.32,2.2,2.2c1.18-0.1,2.36-0.22,3.54-0.35
			c0.01,0.89,0.02,1.79,0.03,2.68c0.02,2.23-0.74,4.24-2.32,6.05c-1.57,1.8-3.47,2.85-5.69,3.02c-0.15,0.01-0.31,0.02-0.46,0.03
			c-2.22,0.16-4.14-0.62-5.74-2.26c-1.6-1.64-2.4-3.65-2.39-5.98c0.01-2.46,0.01-4.91,0.02-7.37c1.38,0.02,2.76,0.03,4.14,0.02
			c0,2.46,0.01,4.92,0.01,7.38c0,1.18,0.38,2.22,1.14,3.09c0.76,0.88,1.7,1.29,2.81,1.22c0.15-0.01,0.31-0.02,0.46-0.03
			c1.09-0.07,2.02-0.59,2.78-1.53c0.5-0.65,0.83-1.34,1-2.05c-1.65,0.16-3.01-0.33-4.06-1.46c-1.05-1.12-1.58-2.51-1.59-4.13
			c-0.01-2.35,0.74-4.41,2.25-6.15c0.8-0.92,1.69-1.62,2.67-2.08c-0.16-0.7-0.47-1.3-0.95-1.83c-0.67-0.74-1.48-1.11-2.43-1.1
			c-0.67,0.01-1.33,0.01-2,0.02c-0.65,0-1.16,0.2-1.53,0.6c-0.38,0.4-0.57,0.88-0.56,1.44c0,1.03,0.58,1.55,1.75,1.54
			c0,1.31,0.01,2.63,0.01,3.94c-1.71,0.03-3.12-0.45-4.23-1.4c-1.1-0.95-1.65-2.26-1.65-3.9c0-1.79,0.61-3.26,1.82-4.42
			c1.2-1.16,2.61-1.74,4.22-1.73c0.23,0,0.45,0,0.68,0c2.85,0,5.02,0.69,6.52,2.01c1.19-1.35,2.75-2.01,4.68-2.01
			c0.21,0,0.43,0,0.64,0c1.35,0,2.55,0.46,3.59,1.32c1.04,0.87,1.57,1.94,1.58,3.26c0.01,1.03-0.29,1.93-0.9,2.71
			c0.63,0.71,0.95,1.55,0.96,2.56c0.01,1.05-0.3,2.01-0.93,2.87c0.05,4.29,0.1,8.58,0.15,12.86
			C131.95,163.12,130.59,163.46,129.22,163.76z M129.58,148.2c0.31-0.29,0.46-0.55,0.46-0.78c-0.01-0.6-0.39-0.86-1.14-0.8
			c-0.32,0.02-0.64,0.05-0.97,0.07c-0.01-1.25-0.03-2.49-0.04-3.74c0.32-0.01,0.64-0.03,0.97-0.04c0.75-0.04,1.12-0.37,1.12-0.98
			c0-0.21-0.16-0.43-0.48-0.69c-0.31-0.25-0.73-0.37-1.24-0.36c-0.69,0.02-1.24,0.27-1.65,0.77c-0.41,0.49-0.62,1.15-0.61,1.95
			c0.01,0.87,0.02,1.75,0.03,2.62c0.01,0.8,0.23,1.44,0.65,1.9c0.43,0.46,0.98,0.66,1.67,0.6
			C128.86,148.67,129.27,148.5,129.58,148.2z"/>
		<path class="st2" d="M137.06,159.64c-0.05-5.46-0.1-13.63-0.16-19.09c-0.64,0.03-1.28,0.06-1.93,0.09
			c-0.01-1.16-0.89-2.34-1.7-3.49c2.65,0,6.97,0,9.61,0c0,1.03,0,2.06,0,3.09c-0.64,0.04-1.28,0.07-1.92,0.11
			c0.02,5.13,0.04,12.97,0.06,18.1C139.72,158.87,138.39,159.27,137.06,159.64z"/>
	</g>
	<g>
		<path class="st264" d="M111.77,95.74c0,0-4.03-20.02,11.96-18.88C123.73,76.86,113.85,81.63,111.77,95.74z"/>
		<path class="st264" d="M111.49,85.59c0,0-0.71-11.37-8.88-9.15C102.61,76.44,102.48,81.91,111.49,85.59z"/>
		<path class="st264" d="M112.2,64.41c0,0-5.32,1.97,0,15.41C112.2,79.81,116.26,70.13,112.2,64.41z"/>
		<path class="st265" d="M111.75,95.24c-0.13-1.81-0.02-3.63,0.25-5.43c0.27-1.8,0.73-3.58,1.44-5.27c0.72-1.68,1.72-3.26,3.04-4.54
			c0.67-0.63,1.42-1.17,2.22-1.61c0.81-0.43,1.67-0.74,2.55-0.95c-0.85,0.3-1.69,0.65-2.45,1.12c-0.76,0.47-1.47,1.03-2.1,1.66
			c-0.61,0.65-1.18,1.35-1.66,2.1c-0.49,0.75-0.88,1.56-1.23,2.38c-0.73,1.64-1.17,3.39-1.51,5.16c-0.17,0.88-0.29,1.78-0.38,2.68
			C111.82,93.43,111.77,94.34,111.75,95.24z"/>
		<path class="st265" d="M112.18,79.38c-0.16-1.11-0.25-2.23-0.33-3.35c-0.08-1.12-0.11-2.24-0.13-3.36c0-1.12,0.01-2.25,0.08-3.37
			c0.07-1.12,0.17-2.24,0.37-3.35c-0.01,0.56-0.04,1.12-0.04,1.68c-0.02,0.56-0.02,1.12-0.02,1.68l0.01,3.35l0.03,3.36l0.02,1.68
			L112.18,79.38z"/>
		<path class="st265" d="M111.25,85.25c-0.2-0.49-0.4-0.97-0.64-1.44c-0.22-0.47-0.47-0.94-0.73-1.39c-0.52-0.9-1.1-1.77-1.77-2.55
			c-0.67-0.79-1.43-1.49-2.29-2.06c-0.86-0.57-1.83-0.96-2.86-1.18c0.53,0.03,1.05,0.13,1.56,0.28c0.5,0.17,1,0.38,1.46,0.64
			c0.47,0.26,0.9,0.58,1.31,0.93c0.4,0.35,0.78,0.74,1.13,1.14c0.69,0.82,1.27,1.72,1.74,2.67
			C110.62,83.23,111.01,84.22,111.25,85.25z"/>
	</g>
</g>
</svg>
