<?xml version="1.0" encoding="utf-8"?>
<!-- Generator: Adobe Illustrator 27.0.0, SVG Export Plug-In . SVG Version: 6.00 Build 0)  -->
<svg version="1.1" id="Layer_1" xmlns="http://www.w3.org/2000/svg" xmlns:xlink="http://www.w3.org/1999/xlink" x="0px" y="0px"
	 viewBox="0 0 226.77 226.77" style="enable-background:new 0 0 226.77 226.77;" xml:space="preserve">
<style type="text/css">
	.st0{fill:#FFF200;}
	.st1{stroke:#000000;stroke-width:5.2476;stroke-miterlimit:10;}
	.st2{fill:#FFFFFF;}
	.st3{fill:#ED1C24;}
	.st4{fill:#50B848;}
	.st5{fill:#007F3E;}
	.st6{fill:#F58220;}
	.st7{fill:#F37021;}
	.st8{fill:#1282C5;}
	.st9{fill:#F7941D;}
	.st10{fill:#FFFFFF;stroke:#FFFFFF;stroke-width:2.321;stroke-linecap:round;stroke-linejoin:round;}
	.st11{fill:#00854A;}
	.st12{fill:#34B34A;}
	.st13{fill:#13421E;}
	.st14{fill:#8CC540;stroke:#FFFFFF;stroke-width:1.2029;stroke-miterlimit:10;}
	.st15{fill:#065643;stroke:#FFFFFF;stroke-width:1.2029;stroke-miterlimit:10;}
	.st16{fill:#FFCB05;}
	.st17{fill:#224D71;}
	.st18{fill:#F8BC1B;}
	.st19{fill:#4CB748;}
	.st20{fill:url(#SVGID_00000088854301501680377610000013086139008612577707_);}
	.st21{fill:none;stroke:#FFFFFF;stroke-width:0.8396;stroke-miterlimit:10;}
	
		.st22{fill:url(#SVGID_00000111186552154952912770000007598907057035100834_);stroke:url(#SVGID_00000023283173879256715410000012952593706049764485_);stroke-width:0.6997;stroke-miterlimit:10;}
	
		.st23{fill:url(#SVGID_00000119089987236337355560000014660179597059754642_);stroke:url(#SVGID_00000058570028976804504130000001920062543030361791_);stroke-width:0.6997;stroke-miterlimit:10;}
	
		.st24{fill:url(#SVGID_00000120551337356765576170000007809052404123035051_);stroke:url(#SVGID_00000029753776180247955280000004898857937967305097_);stroke-width:0.6997;stroke-miterlimit:10;}
	
		.st25{fill:url(#SVGID_00000105398108054592727500000001372499494128800672_);stroke:url(#SVGID_00000098196342837090103050000001627859726584020873_);stroke-width:0.6997;stroke-miterlimit:10;}
	
		.st26{fill:url(#SVGID_00000062152462300777476820000011130129190919970965_);stroke:url(#SVGID_00000105384263877781830340000008035929586010335160_);stroke-width:0.6997;stroke-miterlimit:10;}
	.st27{fill:url(#SVGID_00000066475571517156383790000017279392843642804630_);}
	.st28{fill:url(#SVGID_00000176036710192902577510000007755853260956730811_);}
	.st29{fill:#005826;}
	.st30{fill:#BFD730;}
	.st31{fill:#00A651;stroke:#000000;stroke-width:2.8889;stroke-linecap:round;stroke-linejoin:round;stroke-miterlimit:10;}
	.st32{fill:#FFF200;stroke:#000000;stroke-width:2.8889;stroke-linecap:round;stroke-linejoin:round;stroke-miterlimit:10;}
	.st33{fill:#8DC63F;stroke:#000000;stroke-width:2.8889;stroke-linecap:round;stroke-linejoin:round;stroke-miterlimit:10;}
	.st34{fill:#0DB14B;stroke:#000000;stroke-width:2.8889;stroke-linecap:round;stroke-linejoin:round;stroke-miterlimit:10;}
	.st35{fill:#FFFFFF;stroke:#000000;stroke-width:2.8889;stroke-linecap:round;stroke-linejoin:round;stroke-miterlimit:10;}
	.st36{fill:#00A651;}
	.st37{fill:#8DC63F;}
	.st38{fill:#0DB14B;}
	.st39{fill:#034EA2;}
	.st40{fill:#00763F;}
	.st41{fill:url(#SVGID_00000059285576679211478130000001634511095936246967_);}
	.st42{fill:url(#SVGID_00000152965893177607991340000018358730461277669507_);}
	.st43{fill:url(#SVGID_00000039125432475270710740000007560436090915715487_);}
	.st44{fill:url(#SVGID_00000039832596898221414320000006459591130558592676_);}
	.st45{fill:url(#SVGID_00000122700259212997796000000012539061096639513788_);}
	.st46{fill:url(#SVGID_00000121262877026758180500000015983907230790362799_);}
	.st47{fill:url(#SVGID_00000076591704329859770770000014124972088096461188_);}
	.st48{fill:url(#SVGID_00000073682457450494781780000008633428963961692600_);}
	.st49{fill:url(#SVGID_00000077285704298872268270000016308910447398283679_);}
	.st50{fill:url(#SVGID_00000121247394589395505410000009513468227343011478_);}
	.st51{fill:#FFFFFF;stroke:#FFFFFF;stroke-width:4.8073;stroke-linecap:round;stroke-linejoin:round;stroke-miterlimit:10;}
	.st52{fill:url(#SVGID_00000101819162228826435370000003230266686300108969_);}
	.st53{fill:#00A651;stroke:#00A651;stroke-width:4.2345;stroke-linecap:round;stroke-linejoin:round;stroke-miterlimit:10;}
	.st54{fill:#939598;stroke:#939598;stroke-width:4.2345;stroke-linecap:round;stroke-linejoin:round;stroke-miterlimit:10;}
	.st55{fill:#CE181E;stroke:#CE181E;stroke-width:9.3609;stroke-miterlimit:10;}
	
		.st56{fill:none;stroke:url(#SVGID_00000176744916011731274160000007147955455416077970_);stroke-width:3.3359;stroke-miterlimit:10;}
	.st57{fill-rule:evenodd;clip-rule:evenodd;fill:#21A347;}
	.st58{filter:url(#Adobe_OpacityMaskFilter);}
	
		.st59{clip-path:url(#SVGID_00000132062377815645348750000006999158050045605796_);fill-rule:evenodd;clip-rule:evenodd;fill:url(#);}
	
		.st60{opacity:0.49;clip-path:url(#SVGID_00000132062377815645348750000006999158050045605796_);mask:url(#SVGID_00000122722925486926334050000005507785157063414947_);fill-rule:evenodd;clip-rule:evenodd;}
	
		.st61{clip-path:url(#SVGID_00000132062377815645348750000006999158050045605796_);fill-rule:evenodd;clip-rule:evenodd;fill:#007836;}
	.st62{filter:url(#Adobe_OpacityMaskFilter_00000090280318253877336390000000519038742550303932_);}
	
		.st63{opacity:0.49;clip-path:url(#SVGID_00000132062377815645348750000006999158050045605796_);mask:url(#SVGID_00000135687781537179917720000011046951382822604423_);fill-rule:evenodd;clip-rule:evenodd;}
	
		.st64{clip-path:url(#SVGID_00000132062377815645348750000006999158050045605796_);fill-rule:evenodd;clip-rule:evenodd;fill:#95C940;}
	.st65{fill-rule:evenodd;clip-rule:evenodd;fill:#FFFFFF;}
	.st66{fill:#FFC759;}
	.st67{fill:#D1A342;}
	.st68{fill:none;}
	.st69{clip-path:url(#SVGID_00000030453914845485202710000011961629302430706572_);}
	.st70{clip-path:url(#SVGID_00000121960976273014803120000011026087224016203174_);}
	.st71{fill:#9E1D20;}
	.st72{fill:#86888A;}
	.st73{fill:url(#SVGID_00000074427456423632279130000009099216661551154050_);}
	.st74{fill:url(#SVGID_00000171705544671089793170000012089432158038549149_);}
	.st75{fill:url(#SVGID_00000111878193134888595160000001995473972583435394_);}
	.st76{fill:url(#SVGID_00000014635140512542803960000015242319750559322010_);}
	.st77{fill:#F89522;}
	.st78{fill:#C0BFBF;}
	.st79{clip-path:url(#SVGID_00000144296925265459473050000018353679543783581577_);}
	.st80{clip-path:url(#SVGID_00000152954727551323033840000008103336180040717698_);fill:#650F0E;}
	.st81{clip-path:url(#SVGID_00000152954727551323033840000008103336180040717698_);fill:#670E0D;}
	.st82{clip-path:url(#SVGID_00000152954727551323033840000008103336180040717698_);fill:#690C0D;}
	.st83{clip-path:url(#SVGID_00000152954727551323033840000008103336180040717698_);fill:#6C0D0F;}
	.st84{clip-path:url(#SVGID_00000152954727551323033840000008103336180040717698_);fill:#6F0F10;}
	.st85{clip-path:url(#SVGID_00000152954727551323033840000008103336180040717698_);fill:#700F10;}
	.st86{clip-path:url(#SVGID_00000152954727551323033840000008103336180040717698_);fill:#721011;}
	.st87{clip-path:url(#SVGID_00000152954727551323033840000008103336180040717698_);fill:#741012;}
	.st88{clip-path:url(#SVGID_00000152954727551323033840000008103336180040717698_);fill:#761113;}
	.st89{clip-path:url(#SVGID_00000152954727551323033840000008103336180040717698_);fill:#781214;}
	.st90{clip-path:url(#SVGID_00000152954727551323033840000008103336180040717698_);fill:#7A1214;}
	.st91{clip-path:url(#SVGID_00000152954727551323033840000008103336180040717698_);fill:#7B1315;}
	.st92{clip-path:url(#SVGID_00000152954727551323033840000008103336180040717698_);fill:#7D1416;}
	.st93{clip-path:url(#SVGID_00000152954727551323033840000008103336180040717698_);fill:#7F1416;}
	.st94{clip-path:url(#SVGID_00000152954727551323033840000008103336180040717698_);fill:#801517;}
	.st95{clip-path:url(#SVGID_00000152954727551323033840000008103336180040717698_);fill:#811517;}
	.st96{clip-path:url(#SVGID_00000152954727551323033840000008103336180040717698_);fill:#831618;}
	.st97{clip-path:url(#SVGID_00000152954727551323033840000008103336180040717698_);fill:#851619;}
	.st98{clip-path:url(#SVGID_00000152954727551323033840000008103336180040717698_);fill:#871719;}
	.st99{clip-path:url(#SVGID_00000152954727551323033840000008103336180040717698_);fill:#88171A;}
	.st100{clip-path:url(#SVGID_00000152954727551323033840000008103336180040717698_);fill:#89181A;}
	.st101{clip-path:url(#SVGID_00000152954727551323033840000008103336180040717698_);fill:#8B181B;}
	.st102{clip-path:url(#SVGID_00000152954727551323033840000008103336180040717698_);fill:#8D181B;}
	.st103{clip-path:url(#SVGID_00000152954727551323033840000008103336180040717698_);fill:#8F191C;}
	.st104{clip-path:url(#SVGID_00000152954727551323033840000008103336180040717698_);fill:#91191C;}
	.st105{clip-path:url(#SVGID_00000152954727551323033840000008103336180040717698_);fill:#921A1D;}
	.st106{clip-path:url(#SVGID_00000152954727551323033840000008103336180040717698_);fill:#941A1D;}
	.st107{clip-path:url(#SVGID_00000152954727551323033840000008103336180040717698_);fill:#951B1E;}
	.st108{clip-path:url(#SVGID_00000152954727551323033840000008103336180040717698_);fill:#971B1E;}
	.st109{clip-path:url(#SVGID_00000152954727551323033840000008103336180040717698_);fill:#981B1F;}
	.st110{clip-path:url(#SVGID_00000152954727551323033840000008103336180040717698_);fill:#9A1C1F;}
	.st111{clip-path:url(#SVGID_00000152954727551323033840000008103336180040717698_);fill:#9B1C1F;}
	.st112{clip-path:url(#SVGID_00000152954727551323033840000008103336180040717698_);fill:#9D1C20;}
	.st113{clip-path:url(#SVGID_00000152954727551323033840000008103336180040717698_);fill:#9E1D20;}
	.st114{clip-path:url(#SVGID_00000152954727551323033840000008103336180040717698_);fill:#A01D20;}
	.st115{clip-path:url(#SVGID_00000152954727551323033840000008103336180040717698_);fill:#A01D21;}
	.st116{clip-path:url(#SVGID_00000152954727551323033840000008103336180040717698_);fill:#A11D21;}
	.st117{clip-path:url(#SVGID_00000152954727551323033840000008103336180040717698_);fill:#A21E21;}
	.st118{clip-path:url(#SVGID_00000152954727551323033840000008103336180040717698_);fill:#A31E22;}
	.st119{clip-path:url(#SVGID_00000152954727551323033840000008103336180040717698_);fill:#A51E22;}
	.st120{clip-path:url(#SVGID_00000152954727551323033840000008103336180040717698_);fill:#A61E22;}
	.st121{clip-path:url(#SVGID_00000152954727551323033840000008103336180040717698_);fill:#A71E22;}
	.st122{clip-path:url(#SVGID_00000152954727551323033840000008103336180040717698_);fill:#A91E23;}
	.st123{clip-path:url(#SVGID_00000152954727551323033840000008103336180040717698_);fill:#AB1F23;}
	.st124{clip-path:url(#SVGID_00000152954727551323033840000008103336180040717698_);fill:#AC1F23;}
	.st125{clip-path:url(#SVGID_00000152954727551323033840000008103336180040717698_);fill:#AD1F23;}
	.st126{clip-path:url(#SVGID_00000152954727551323033840000008103336180040717698_);fill:#AE1F24;}
	.st127{clip-path:url(#SVGID_00000152954727551323033840000008103336180040717698_);fill:#AF1F24;}
	.st128{clip-path:url(#SVGID_00000152954727551323033840000008103336180040717698_);fill:#B22024;}
	.st129{clip-path:url(#SVGID_00000152954727551323033840000008103336180040717698_);fill:#B32025;}
	.st130{clip-path:url(#SVGID_00000152954727551323033840000008103336180040717698_);fill:#B42025;}
	.st131{clip-path:url(#SVGID_00000152954727551323033840000008103336180040717698_);fill:#B52025;}
	.st132{clip-path:url(#SVGID_00000152954727551323033840000008103336180040717698_);fill:#B72025;}
	.st133{clip-path:url(#SVGID_00000152954727551323033840000008103336180040717698_);fill:#B92025;}
	.st134{clip-path:url(#SVGID_00000152954727551323033840000008103336180040717698_);fill:#BC2026;}
	.st135{clip-path:url(#SVGID_00000152954727551323033840000008103336180040717698_);fill:#BE2126;}
	.st136{clip-path:url(#SVGID_00000152954727551323033840000008103336180040717698_);fill:#BF2126;}
	.st137{clip-path:url(#SVGID_00000152954727551323033840000008103336180040717698_);fill:#C02126;}
	.st138{clip-path:url(#SVGID_00000152954727551323033840000008103336180040717698_);fill:#C12126;}
	.st139{clip-path:url(#SVGID_00000152954727551323033840000008103336180040717698_);fill:#C22126;}
	.st140{clip-path:url(#SVGID_00000152954727551323033840000008103336180040717698_);fill:#C32126;}
	.st141{clip-path:url(#SVGID_00000152954727551323033840000008103336180040717698_);fill:#C42126;}
	.st142{clip-path:url(#SVGID_00000152954727551323033840000008103336180040717698_);fill:#C52126;}
	.st143{clip-path:url(#SVGID_00000152954727551323033840000008103336180040717698_);fill:#C62127;}
	.st144{clip-path:url(#SVGID_00000152954727551323033840000008103336180040717698_);fill:#C72127;}
	.st145{clip-path:url(#SVGID_00000152954727551323033840000008103336180040717698_);fill:#C82127;}
	.st146{clip-path:url(#SVGID_00000152954727551323033840000008103336180040717698_);fill:#C92127;}
	.st147{clip-path:url(#SVGID_00000152954727551323033840000008103336180040717698_);fill:#CA2127;}
	.st148{clip-path:url(#SVGID_00000152954727551323033840000008103336180040717698_);fill:#CA2027;}
	.st149{clip-path:url(#SVGID_00000152954727551323033840000008103336180040717698_);fill:#CC2027;}
	.st150{clip-path:url(#SVGID_00000152954727551323033840000008103336180040717698_);fill:#CD2027;}
	.st151{clip-path:url(#SVGID_00000152954727551323033840000008103336180040717698_);fill:#CE2127;}
	.st152{clip-path:url(#SVGID_00000152954727551323033840000008103336180040717698_);fill:#CF2127;}
	.st153{clip-path:url(#SVGID_00000152954727551323033840000008103336180040717698_);fill:#D02027;}
	.st154{clip-path:url(#SVGID_00000152954727551323033840000008103336180040717698_);fill:#D12027;}
	.st155{clip-path:url(#SVGID_00000152954727551323033840000008103336180040717698_);fill:#D22027;}
	.st156{clip-path:url(#SVGID_00000152954727551323033840000008103336180040717698_);fill:#D32027;}
	.st157{clip-path:url(#SVGID_00000152954727551323033840000008103336180040717698_);fill:#D42027;}
	.st158{clip-path:url(#SVGID_00000152954727551323033840000008103336180040717698_);fill:#D52027;}
	.st159{clip-path:url(#SVGID_00000152954727551323033840000008103336180040717698_);fill:#D62027;}
	.st160{clip-path:url(#SVGID_00000152954727551323033840000008103336180040717698_);fill:#D72027;}
	.st161{clip-path:url(#SVGID_00000152954727551323033840000008103336180040717698_);fill:#D71F27;}
	.st162{clip-path:url(#SVGID_00000176754098602391136190000001465438589894864778_);}
	.st163{clip-path:url(#SVGID_00000178925050400133985490000010964909354650612129_);fill:#650F0E;}
	.st164{clip-path:url(#SVGID_00000178925050400133985490000010964909354650612129_);fill:#670E0D;}
	.st165{clip-path:url(#SVGID_00000178925050400133985490000010964909354650612129_);fill:#690C0D;}
	.st166{clip-path:url(#SVGID_00000178925050400133985490000010964909354650612129_);fill:#6C0D0F;}
	.st167{clip-path:url(#SVGID_00000178925050400133985490000010964909354650612129_);fill:#6F0F10;}
	.st168{clip-path:url(#SVGID_00000178925050400133985490000010964909354650612129_);fill:#700F10;}
	.st169{clip-path:url(#SVGID_00000178925050400133985490000010964909354650612129_);fill:#721011;}
	.st170{clip-path:url(#SVGID_00000178925050400133985490000010964909354650612129_);fill:#741012;}
	.st171{clip-path:url(#SVGID_00000178925050400133985490000010964909354650612129_);fill:#761113;}
	.st172{clip-path:url(#SVGID_00000178925050400133985490000010964909354650612129_);fill:#781214;}
	.st173{clip-path:url(#SVGID_00000178925050400133985490000010964909354650612129_);fill:#7A1214;}
	.st174{clip-path:url(#SVGID_00000178925050400133985490000010964909354650612129_);fill:#7B1315;}
	.st175{clip-path:url(#SVGID_00000178925050400133985490000010964909354650612129_);fill:#7D1416;}
	.st176{clip-path:url(#SVGID_00000178925050400133985490000010964909354650612129_);fill:#7F1416;}
	.st177{clip-path:url(#SVGID_00000178925050400133985490000010964909354650612129_);fill:#801517;}
	.st178{clip-path:url(#SVGID_00000178925050400133985490000010964909354650612129_);fill:#811517;}
	.st179{clip-path:url(#SVGID_00000178925050400133985490000010964909354650612129_);fill:#831618;}
	.st180{clip-path:url(#SVGID_00000178925050400133985490000010964909354650612129_);fill:#851619;}
	.st181{clip-path:url(#SVGID_00000178925050400133985490000010964909354650612129_);fill:#871719;}
	.st182{clip-path:url(#SVGID_00000178925050400133985490000010964909354650612129_);fill:#88171A;}
	.st183{clip-path:url(#SVGID_00000178925050400133985490000010964909354650612129_);fill:#89181A;}
	.st184{clip-path:url(#SVGID_00000178925050400133985490000010964909354650612129_);fill:#8B181B;}
	.st185{clip-path:url(#SVGID_00000178925050400133985490000010964909354650612129_);fill:#8D181B;}
	.st186{clip-path:url(#SVGID_00000178925050400133985490000010964909354650612129_);fill:#8F191C;}
	.st187{clip-path:url(#SVGID_00000178925050400133985490000010964909354650612129_);fill:#91191C;}
	.st188{clip-path:url(#SVGID_00000178925050400133985490000010964909354650612129_);fill:#921A1D;}
	.st189{clip-path:url(#SVGID_00000178925050400133985490000010964909354650612129_);fill:#941A1D;}
	.st190{clip-path:url(#SVGID_00000178925050400133985490000010964909354650612129_);fill:#951B1E;}
	.st191{clip-path:url(#SVGID_00000178925050400133985490000010964909354650612129_);fill:#971B1E;}
	.st192{clip-path:url(#SVGID_00000178925050400133985490000010964909354650612129_);fill:#981B1F;}
	.st193{clip-path:url(#SVGID_00000178925050400133985490000010964909354650612129_);fill:#9A1C1F;}
	.st194{clip-path:url(#SVGID_00000178925050400133985490000010964909354650612129_);fill:#9B1C1F;}
	.st195{clip-path:url(#SVGID_00000178925050400133985490000010964909354650612129_);fill:#9D1C20;}
	.st196{clip-path:url(#SVGID_00000178925050400133985490000010964909354650612129_);fill:#9E1D20;}
	.st197{clip-path:url(#SVGID_00000178925050400133985490000010964909354650612129_);fill:#A01D20;}
	.st198{clip-path:url(#SVGID_00000178925050400133985490000010964909354650612129_);fill:#A01D21;}
	.st199{clip-path:url(#SVGID_00000178925050400133985490000010964909354650612129_);fill:#A11D21;}
	.st200{clip-path:url(#SVGID_00000178925050400133985490000010964909354650612129_);fill:#A21E21;}
	.st201{clip-path:url(#SVGID_00000178925050400133985490000010964909354650612129_);fill:#A31E22;}
	.st202{clip-path:url(#SVGID_00000178925050400133985490000010964909354650612129_);fill:#A51E22;}
	.st203{clip-path:url(#SVGID_00000178925050400133985490000010964909354650612129_);fill:#A61E22;}
	.st204{clip-path:url(#SVGID_00000178925050400133985490000010964909354650612129_);fill:#A71E22;}
	.st205{clip-path:url(#SVGID_00000178925050400133985490000010964909354650612129_);fill:#A91E23;}
	.st206{clip-path:url(#SVGID_00000178925050400133985490000010964909354650612129_);fill:#AB1F23;}
	.st207{clip-path:url(#SVGID_00000178925050400133985490000010964909354650612129_);fill:#AC1F23;}
	.st208{clip-path:url(#SVGID_00000178925050400133985490000010964909354650612129_);fill:#AD1F23;}
	.st209{clip-path:url(#SVGID_00000178925050400133985490000010964909354650612129_);fill:#AE1F24;}
	.st210{clip-path:url(#SVGID_00000178925050400133985490000010964909354650612129_);fill:#AF1F24;}
	.st211{clip-path:url(#SVGID_00000178925050400133985490000010964909354650612129_);fill:#B22024;}
	.st212{clip-path:url(#SVGID_00000178925050400133985490000010964909354650612129_);fill:#B32025;}
	.st213{clip-path:url(#SVGID_00000178925050400133985490000010964909354650612129_);fill:#B42025;}
	.st214{clip-path:url(#SVGID_00000178925050400133985490000010964909354650612129_);fill:#B52025;}
	.st215{clip-path:url(#SVGID_00000178925050400133985490000010964909354650612129_);fill:#B72025;}
	.st216{clip-path:url(#SVGID_00000178925050400133985490000010964909354650612129_);fill:#B92025;}
	.st217{clip-path:url(#SVGID_00000178925050400133985490000010964909354650612129_);fill:#BC2026;}
	.st218{clip-path:url(#SVGID_00000178925050400133985490000010964909354650612129_);fill:#BE2126;}
	.st219{clip-path:url(#SVGID_00000178925050400133985490000010964909354650612129_);fill:#BF2126;}
	.st220{clip-path:url(#SVGID_00000178925050400133985490000010964909354650612129_);fill:#C02126;}
	.st221{clip-path:url(#SVGID_00000178925050400133985490000010964909354650612129_);fill:#C12126;}
	.st222{clip-path:url(#SVGID_00000178925050400133985490000010964909354650612129_);fill:#C22126;}
	.st223{clip-path:url(#SVGID_00000178925050400133985490000010964909354650612129_);fill:#C32126;}
	.st224{clip-path:url(#SVGID_00000178925050400133985490000010964909354650612129_);fill:#C42126;}
	.st225{clip-path:url(#SVGID_00000178925050400133985490000010964909354650612129_);fill:#C52126;}
	.st226{clip-path:url(#SVGID_00000178925050400133985490000010964909354650612129_);fill:#C62127;}
	.st227{clip-path:url(#SVGID_00000178925050400133985490000010964909354650612129_);fill:#C72127;}
	.st228{clip-path:url(#SVGID_00000178925050400133985490000010964909354650612129_);fill:#C82127;}
	.st229{clip-path:url(#SVGID_00000178925050400133985490000010964909354650612129_);fill:#C92127;}
	.st230{clip-path:url(#SVGID_00000178925050400133985490000010964909354650612129_);fill:#CA2127;}
	.st231{clip-path:url(#SVGID_00000178925050400133985490000010964909354650612129_);fill:#CA2027;}
	.st232{clip-path:url(#SVGID_00000178925050400133985490000010964909354650612129_);fill:#CC2027;}
	.st233{clip-path:url(#SVGID_00000178925050400133985490000010964909354650612129_);fill:#CD2027;}
	.st234{clip-path:url(#SVGID_00000178925050400133985490000010964909354650612129_);fill:#CE2127;}
	.st235{clip-path:url(#SVGID_00000178925050400133985490000010964909354650612129_);fill:#CF2127;}
	.st236{clip-path:url(#SVGID_00000178925050400133985490000010964909354650612129_);fill:#D02027;}
	.st237{clip-path:url(#SVGID_00000178925050400133985490000010964909354650612129_);fill:#D12027;}
	.st238{clip-path:url(#SVGID_00000178925050400133985490000010964909354650612129_);fill:#D22027;}
	.st239{clip-path:url(#SVGID_00000178925050400133985490000010964909354650612129_);fill:#D32027;}
	.st240{clip-path:url(#SVGID_00000178925050400133985490000010964909354650612129_);fill:#D42027;}
	.st241{clip-path:url(#SVGID_00000178925050400133985490000010964909354650612129_);fill:#D52027;}
	.st242{clip-path:url(#SVGID_00000178925050400133985490000010964909354650612129_);fill:#D62027;}
	.st243{clip-path:url(#SVGID_00000178925050400133985490000010964909354650612129_);fill:#D72027;}
	.st244{clip-path:url(#SVGID_00000178925050400133985490000010964909354650612129_);fill:#D71F27;}
	.st245{fill:#C3996B;}
	.st246{fill:#F06724;}
	.st247{fill:#231F20;}
	.st248{fill:#AEB3B6;}
	.st249{fill:#EE3537;}
	.st250{fill:#9BA0A3;}
	.st251{fill:#AFB3B5;}
	.st252{fill:#F2EB44;}
	.st253{fill:#FFDD26;}
	.st254{clip-path:url(#XMLID_00000093872127443932783090000011935939796983136935_);}
	.st255{fill:#7E8386;}
	.st256{fill:#A4AAAC;}
	.st257{fill:#131718;}
	.st258{fill:#007843;}
	.st259{fill:#2AB34B;}
	.st260{fill:none;stroke:#FFFFFF;stroke-width:1.4841;stroke-miterlimit:10;}
	.st261{fill:#2E3192;}
	.st262{fill:#154458;}
	.st263{fill:#C72026;}
	.st264{fill:#5FBB46;}
	.st265{fill:#1A5F30;}
	.st266{fill:#293896;}
	.st267{filter:url(#Adobe_OpacityMaskFilter_00000085956532184096103040000000785071728116904873_);}
	.st268{filter:url(#Adobe_OpacityMaskFilter_00000040561096644217778530000014565711732436437937_);}
	
		.st269{mask:url(#SVGID_00000070096521173175331740000011487031181963361163_);fill:url(#SVGID_00000070824975902515885280000000951991720798915770_);}
	.st270{filter:url(#Adobe_OpacityMaskFilter_00000044170809809083152800000007136557064409590938_);}
	.st271{filter:url(#Adobe_OpacityMaskFilter_00000104691068356203710440000001381151694380199339_);}
	
		.st272{mask:url(#SVGID_00000176019413650329119830000013260122689824448179_);fill:url(#SVGID_00000032609287820427097620000013069195548109550231_);}
	.st273{filter:url(#Adobe_OpacityMaskFilter_00000075162640533138478440000001858401613668303235_);}
	.st274{filter:url(#Adobe_OpacityMaskFilter_00000112623302339600100000000011878111712426304156_);}
	
		.st275{mask:url(#SVGID_00000070118552321416718070000003988289469859266722_);fill:url(#SVGID_00000103251602324828051060000014784992003971178938_);}
	.st276{filter:url(#Adobe_OpacityMaskFilter_00000132076625955503492890000016228514687039679133_);}
	.st277{filter:url(#Adobe_OpacityMaskFilter_00000177468214519718300470000009060800369978094783_);}
	
		.st278{mask:url(#SVGID_00000036249878146426679140000017533036459328769696_);fill:url(#SVGID_00000038380066568896812950000000969417239355676081_);}
	.st279{filter:url(#Adobe_OpacityMaskFilter_00000083059069296857235720000013696169533197207443_);}
	.st280{filter:url(#Adobe_OpacityMaskFilter_00000063591941677607891690000016767163652297483700_);}
	
		.st281{mask:url(#SVGID_00000141454931149055907140000000237621835733251512_);fill:url(#SVGID_00000042007281774305486170000008765497323398984838_);}
	.st282{filter:url(#Adobe_OpacityMaskFilter_00000002361489261901443660000002606639166232872620_);}
	.st283{filter:url(#Adobe_OpacityMaskFilter_00000158714635346867476170000012506663421114759571_);}
	
		.st284{mask:url(#SVGID_00000081625043772158915030000001472854211480787865_);fill:url(#SVGID_00000154418789459010332780000012639413220391911322_);}
	.st285{filter:url(#Adobe_OpacityMaskFilter_00000039134007153858200540000017065497934501577656_);}
	.st286{filter:url(#Adobe_OpacityMaskFilter_00000147926010635394701250000011670044673543634328_);}
	
		.st287{mask:url(#SVGID_00000111192293573319464990000006121858466923573173_);fill:url(#SVGID_00000023240054169293441790000011837196717524212615_);}
	.st288{filter:url(#Adobe_OpacityMaskFilter_00000133499546897929323310000006241186464918860706_);}
	.st289{filter:url(#Adobe_OpacityMaskFilter_00000114059248447827157240000016890472068142325902_);}
	
		.st290{mask:url(#SVGID_00000025403286053398577920000017026133449248256152_);fill:url(#SVGID_00000114789079838807766530000013412031839527531455_);}
	.st291{filter:url(#Adobe_OpacityMaskFilter_00000173864130032372629840000006323730974318832823_);}
	.st292{filter:url(#Adobe_OpacityMaskFilter_00000035513239885047122880000003100177904945159052_);}
	
		.st293{mask:url(#SVGID_00000036930874908267241030000006845693233459721905_);fill:url(#SVGID_00000134218671596417298490000016737973841022345144_);}
	.st294{filter:url(#Adobe_OpacityMaskFilter_00000102535818160086522800000017790292313727565491_);}
	.st295{filter:url(#Adobe_OpacityMaskFilter_00000013909001364571433840000010263833769244349098_);}
	
		.st296{mask:url(#SVGID_00000137813876021970530710000006707609037840289467_);fill:url(#SVGID_00000116919972223807655950000006242694653777364905_);}
	.st297{clip-path:url(#SVGID_00000008867894906619749190000012186987670251374233_);fill:#FFF200;}
	
		.st298{clip-path:url(#SVGID_00000008867894906619749190000012186987670251374233_);fill:none;stroke:#FFFFFF;stroke-width:4.8568;stroke-linejoin:round;stroke-miterlimit:10;}
	.st299{clip-path:url(#SVGID_00000008867894906619749190000012186987670251374233_);fill:#ED1C24;}
	.st300{clip-path:url(#SVGID_00000008867894906619749190000012186987670251374233_);fill:#FFFFFF;}
	.st301{clip-path:url(#SVGID_00000008867894906619749190000012186987670251374233_);fill:#2E3192;}
	.st302{clip-path:url(#SVGID_00000008867894906619749190000012186987670251374233_);}
	.st303{clip-path:url(#SVGID_00000008867894906619749190000012186987670251374233_);fill:#F4817F;}
	.st304{clip-path:url(#SVGID_00000008867894906619749190000012186987670251374233_);fill:#56BF98;}
	.st305{clip-path:url(#SVGID_00000008867894906619749190000012186987670251374233_);fill:#570C08;}
	.st306{clip-path:url(#SVGID_00000008867894906619749190000012186987670251374233_);fill:#00A750;}
	
		.st307{fill:#FFFFFF;stroke:url(#SVGID_00000183216111651517884520000008623442636456390333_);stroke-width:7.11;stroke-miterlimit:10;}
	.st308{fill:#ED2224;}
	.st309{fill:#074E28;}
	.st310{fill:#EB2627;}
	.st311{fill:#D1D3D4;}
	.st312{fill:#5F1F16;}
	.st313{fill:#F1E7E6;}
	.st314{fill:#ED2024;}
	.st315{fill:url(#SVGID_00000159439212215743625390000007759965708813085058_);}
	.st316{fill:url(#SVGID_00000096739064527354544600000007633187460547942045_);}
	.st317{fill:#BB2025;}
	.st318{fill:url(#SVGID_00000153702829370061860860000004018367580518454187_);}
	.st319{fill:url(#SVGID_00000062912394097327188000000008155887462574061991_);}
	.st320{fill:none;stroke:#7F8080;stroke-width:0.8623;stroke-miterlimit:10;}
	.st321{fill:url(#SVGID_00000183225764218687337090000007000409740220349589_);}
	.st322{fill:url(#SVGID_00000092457637719112212700000010245851350278449302_);}
	.st323{fill:url(#SVGID_00000140733824491304106170000002724923685989741989_);}
	.st324{fill:url(#SVGID_00000129905178301690839380000010899897338126157225_);}
	.st325{fill:url(#SVGID_00000028322097261215870710000013018642709393496223_);}
	.st326{fill:url(#SVGID_00000047782911405094626090000007269939662365443742_);}
	.st327{fill:url(#SVGID_00000081621193078955275320000002996202242250658219_);}
	.st328{fill:url(#SVGID_00000003821860259618949110000017099647375287224717_);}
	.st329{fill:url(#SVGID_00000000908999033169210120000003403077548592276405_);}
	.st330{fill:url(#SVGID_00000011030952203996343100000004857914243808181150_);}
	.st331{fill:url(#SVGID_00000139273588642816910780000006869664892056086672_);}
	.st332{fill:url(#SVGID_00000100359868235408099050000018357105007811281064_);}
	.st333{fill:url(#SVGID_00000042725554708214699300000016270731412753767596_);}
	.st334{fill:url(#SVGID_00000062901772962849753330000015088274486222071172_);}
	.st335{fill:#E01E26;}
</style>
<g>
	<g>
		<g>
			<path d="M101.8,156.77c-4.56,0-7.87-3.3-7.87-7.85s3.31-7.85,7.87-7.85c4.56,0,7.87,3.3,7.87,7.85S106.36,156.77,101.8,156.77z
				 M101.8,144.97c-2.45,0-3.73,1.99-3.73,3.96s1.28,3.96,3.73,3.96c2.45,0,3.73-1.99,3.73-3.96S104.25,144.97,101.8,144.97z"/>
			<path d="M120.77,156.42v-7.58c0-1.91-0.26-3.87-2.2-3.87c-2.56,0-2.84,2.31-2.84,3.3v8.15h-4.14v-14.98h3.96v1.49
				c0.9-1.2,2.27-1.85,3.96-1.85c3.37,0,5.39,2.23,5.39,5.97v9.37H120.77z"/>
			<path d="M134.71,156.77c-4.56,0-7.87-3.3-7.87-7.85s3.31-7.85,7.87-7.85c4.21,0,6.83,3.11,6.83,8.12v1.32h-10.51
				c0.33,1.67,1.6,2.73,3.33,2.73c1.39,0,2.49-0.57,3.46-1.81l0.21-0.26l3.01,2.35l-0.21,0.27
				C139.28,155.77,137.22,156.77,134.71,156.77z M137.39,147.16c-0.16-1.71-1.32-2.73-3.17-2.73c-1.69,0-2.84,0.99-3.18,2.73H137.39
				z"/>
			<path d="M145.54,163.57c-0.93,0-1.85-0.12-2.74-0.37l-0.28-0.08l0.53-3.93l0.4,0.15c0.59,0.22,1.14,0.34,1.64,0.34
				c1.47,0,1.86-0.43,2.43-1.9l0.62-1.57l-6.06-14.77h4.54l3.65,9.37l3.27-9.37h4.33l-6.72,17.84
				C150.13,161.92,148.85,163.57,145.54,163.57z"/>
			<g>
				<path d="M69.04,113.44V96.19h6.51c1.15,0,2.02,0.05,2.62,0.16c0.85,0.14,1.56,0.41,2.13,0.81c0.57,0.4,1.03,0.95,1.38,1.67
					c0.35,0.71,0.52,1.5,0.52,2.35c0,1.47-0.47,2.71-1.4,3.72c-0.93,1.02-2.62,1.52-5.06,1.52h-4.42v7.01H69.04z M71.32,104.39h4.46
					c1.47,0,2.52-0.27,3.14-0.82c0.62-0.55,0.93-1.32,0.93-2.32c0-0.72-0.18-1.34-0.55-1.85c-0.36-0.51-0.85-0.85-1.44-1.02
					c-0.38-0.1-1.09-0.15-2.13-0.15h-4.41V104.39z"/>
				<path d="M97.67,113.44h-2.68l-2.51-3.66c-0.29-0.42-0.56-0.77-0.79-1.05c-0.24-0.28-0.48-0.5-0.73-0.67
					c-0.25-0.17-0.52-0.29-0.81-0.35c-0.29-0.07-0.63-0.1-1.01-0.1h-1.91v5.84h-2.19v-13.38h6.35c0.78,0,1.49,0.06,2.12,0.19
					c0.63,0.13,1.16,0.33,1.6,0.62c0.44,0.29,0.78,0.66,1.01,1.13c0.24,0.47,0.35,1.05,0.35,1.74c0,1.02-0.34,1.85-1.02,2.48
					c-0.68,0.63-1.68,1.03-3.01,1.21v0.05c0.96,0.38,1.87,1.18,2.71,2.39L97.67,113.44z M87.23,105.92h3.71
					c1.07,0,1.89-0.17,2.46-0.51c0.56-0.34,0.85-0.9,0.85-1.68c0-0.62-0.24-1.09-0.72-1.42c-0.48-0.33-1.26-0.49-2.34-0.49h-3.95
					V105.92z"/>
				<path d="M101.86,113.44h-2.19v-13.38h2.19V113.44z"/>
				<path d="M113.43,104.04c-0.07-0.78-0.37-1.38-0.91-1.8c-0.54-0.42-1.31-0.64-2.31-0.64c-0.44,0-0.85,0.04-1.22,0.12
					c-0.37,0.08-0.7,0.2-0.97,0.36c-0.27,0.16-0.49,0.36-0.64,0.59c-0.15,0.23-0.23,0.49-0.23,0.78c0,0.26,0.05,0.49,0.16,0.68
					c0.11,0.2,0.3,0.37,0.58,0.53c0.27,0.16,0.65,0.31,1.13,0.45c0.48,0.14,1.09,0.29,1.84,0.44c0.74,0.16,1.42,0.33,2.05,0.52
					c0.63,0.19,1.17,0.44,1.63,0.74c0.46,0.31,0.82,0.69,1.08,1.15c0.26,0.46,0.39,1.03,0.39,1.72c0,0.58-0.13,1.11-0.39,1.6
					c-0.26,0.49-0.62,0.9-1.09,1.25c-0.47,0.35-1.03,0.62-1.68,0.82c-0.65,0.2-1.37,0.29-2.15,0.29c-1,0-1.88-0.11-2.64-0.33
					c-0.76-0.22-1.39-0.53-1.91-0.92c-0.51-0.4-0.9-0.87-1.17-1.43c-0.27-0.56-0.42-1.17-0.45-1.85l2.09-0.14
					c0.03,0.49,0.16,0.92,0.38,1.29c0.22,0.36,0.51,0.67,0.86,0.91c0.35,0.24,0.76,0.42,1.22,0.54c0.46,0.12,0.95,0.18,1.47,0.18
					c0.5,0,0.96-0.05,1.36-0.15c0.41-0.1,0.76-0.25,1.05-0.44c0.29-0.19,0.51-0.41,0.67-0.68c0.16-0.26,0.24-0.55,0.24-0.88
					c0-0.31-0.05-0.57-0.16-0.8c-0.11-0.23-0.31-0.44-0.62-0.62c-0.31-0.19-0.75-0.36-1.31-0.52c-0.56-0.16-1.29-0.33-2.19-0.51
					c-0.8-0.16-1.49-0.36-2.06-0.6c-0.57-0.24-1.04-0.51-1.4-0.82c-0.36-0.31-0.63-0.66-0.79-1.05c-0.17-0.39-0.25-0.82-0.25-1.3
					c0-0.53,0.12-1.03,0.35-1.48c0.24-0.45,0.57-0.84,1.01-1.16c0.44-0.33,0.97-0.58,1.59-0.76c0.62-0.18,1.32-0.28,2.1-0.28
					c0.78,0,1.5,0.09,2.16,0.27c0.66,0.18,1.22,0.44,1.69,0.79c0.47,0.35,0.84,0.77,1.12,1.27c0.27,0.5,0.43,1.07,0.46,1.72
					L113.43,104.04z"/>
				<path d="M128.74,101.95h-4.58v11.5h-2.17v-11.5h-4.53v-1.88h11.27V101.95z"/>
				<path d="M133.2,113.44h-2.19v-13.38h2.19V113.44z"/>
				<path d="M148.02,113.44h-2.24l-6.9-10.1h-0.05v10.1h-2.07v-13.38h2.21l6.9,10.1h0.05v-10.1h2.09V113.44z"/>
				<path d="M162.27,113.44H151.6v-13.38h10.33v1.88h-8.14v3.64h7.61v1.88h-7.61v4.1h8.48V113.44z"/>
			</g>
			<g>
				<path d="M92.52,132.68v-13.24h8.51v1.56h-6.84v4.1h5.92v1.56h-5.92v6.01H92.52z"/>
				<path d="M102.68,126.24c0-2.2,0.56-3.92,1.69-5.16c1.12-1.24,2.58-1.86,4.35-1.86c1.16,0,2.21,0.29,3.15,0.88
					c0.93,0.58,1.65,1.4,2.14,2.44c0.49,1.04,0.74,2.23,0.74,3.55c0,1.34-0.26,2.54-0.77,3.6c-0.52,1.06-1.25,1.86-2.19,2.41
					c-0.95,0.54-1.97,0.82-3.06,0.82c-1.19,0-2.25-0.3-3.18-0.9c-0.93-0.6-1.64-1.42-2.12-2.47
					C102.93,128.5,102.68,127.4,102.68,126.24z M104.41,126.26c0,1.6,0.41,2.85,1.23,3.77c0.82,0.92,1.84,1.38,3.08,1.38
					c1.26,0,2.29-0.46,3.1-1.39c0.81-0.93,1.22-2.24,1.22-3.95c0-1.08-0.17-2.02-0.52-2.82c-0.35-0.8-0.85-1.43-1.52-1.87
					c-0.67-0.44-1.42-0.66-2.25-0.66c-1.18,0-2.2,0.43-3.05,1.28C104.83,122.85,104.41,124.27,104.41,126.26z"/>
				<path d="M116.92,132.68v-13.24h5.59c1.12,0,1.98,0.12,2.56,0.36c0.58,0.24,1.05,0.66,1.4,1.26c0.35,0.6,0.52,1.27,0.52,2
					c0,0.94-0.29,1.73-0.87,2.37c-0.58,0.64-1.47,1.05-2.68,1.23c0.44,0.22,0.78,0.44,1.01,0.66c0.49,0.47,0.95,1.06,1.39,1.76
					l2.19,3.6h-2.1l-1.67-2.75c-0.49-0.79-0.89-1.4-1.2-1.82c-0.32-0.42-0.6-0.72-0.85-0.88c-0.25-0.17-0.5-0.29-0.76-0.35
					c-0.19-0.04-0.5-0.06-0.93-0.06h-1.94v5.88H116.92z M118.59,125.29h3.59c0.76,0,1.36-0.08,1.79-0.25
					c0.43-0.17,0.76-0.43,0.98-0.79c0.22-0.36,0.34-0.76,0.34-1.19c0-0.63-0.22-1.14-0.65-1.54c-0.43-0.4-1.12-0.61-2.05-0.61h-3.99
					V125.29z"/>
				<path d="M129.65,132.68v-13.24h9.12v1.56h-7.45v4.05h6.98v1.55h-6.98v4.51h7.74v1.56H129.65z"/>
				<path d="M140.8,128.43l1.57-0.14c0.07,0.66,0.25,1.21,0.52,1.63c0.27,0.42,0.7,0.77,1.27,1.03c0.57,0.26,1.22,0.39,1.94,0.39
					c0.64,0,1.2-0.1,1.69-0.3c0.49-0.2,0.85-0.47,1.09-0.82c0.24-0.35,0.36-0.72,0.36-1.13c0-0.42-0.11-0.78-0.34-1.09
					c-0.23-0.31-0.61-0.57-1.14-0.78c-0.34-0.14-1.09-0.35-2.25-0.65c-1.16-0.29-1.97-0.57-2.43-0.83c-0.6-0.33-1.05-0.74-1.35-1.23
					c-0.3-0.49-0.44-1.04-0.44-1.65c0-0.67,0.18-1.29,0.54-1.87c0.36-0.58,0.89-1.02,1.58-1.32c0.69-0.3,1.47-0.45,2.31-0.45
					c0.93,0,1.76,0.16,2.47,0.47c0.71,0.32,1.26,0.78,1.65,1.4c0.38,0.61,0.59,1.31,0.62,2.09l-1.6,0.13
					c-0.09-0.84-0.38-1.47-0.87-1.9c-0.5-0.43-1.23-0.64-2.2-0.64c-1.01,0-1.74,0.19-2.21,0.58c-0.46,0.39-0.69,0.86-0.69,1.4
					c0,0.48,0.16,0.87,0.49,1.17c0.32,0.31,1.16,0.62,2.52,0.94c1.36,0.32,2.29,0.6,2.79,0.84c0.73,0.36,1.28,0.81,1.63,1.35
					c0.35,0.54,0.52,1.17,0.52,1.88c0,0.7-0.19,1.37-0.58,1.99c-0.38,0.62-0.94,1.11-1.66,1.45c-0.72,0.35-1.53,0.52-2.43,0.52
					c-1.14,0-2.1-0.17-2.87-0.52c-0.77-0.35-1.38-0.87-1.82-1.58C141.06,130.11,140.83,129.32,140.8,128.43z"/>
				<path d="M156.33,132.68v-11.68h-4.15v-1.56h10v1.56H158v11.68H156.33z"/>
			</g>
			<path d="M90.88,136.22l-3.39-0.12l-0.8,6.93L82,143.07l2.38-23.18c0.18-1.8-1.15-3.4-2.96-3.54L76.86,116l0.4,1.64
				c0.65,2.69,0.85,5.48,0.58,8.24l-1.71,17.26l-5.62,0.06l-1.28,0.01c-1.64,0.02-3.67,0.57-5.31,1.9
				c-2.21,1.79-1.93,5.55,0.53,6.98l2.99,1.31l-0.05-1.63c-0.05-1.7,1.06-3.26,2.71-3.69c0.76-0.2,1.58-0.28,2.34-0.29l3.23-0.03
				l-3,30.33l6.26-5.09l2.59-25.29l4.63-0.04l-1.91,18.31l5.55-4.43l2.75-23.39C92.67,137.15,91.9,136.25,90.88,136.22z"/>
			<path d="M64.79,90.34l1.14,0.27c0,0-1.42,0.75-1.61,3.84c-0.19,3.09,0.1,18.16,0.1,18.16s0.34,10,9.76,8.35
				c0,0,1.89,7.09-6.48,6.31c-5.92-0.55-5.89-11.02-5.81-19.16C61.95,100.8,60.76,91.03,64.79,90.34z"/>
		</g>
		<g>
			<path d="M173.58,161.42c-1.13,2.51-4.57,2.91-6.22,0.71c0-0.04-0.04-0.07-0.05-0.11c-0.93-1.27-1.11-2.93-0.53-4.4
				c8.5-21.13,9.08-44.99-2.17-65.16c-8.5-15.76-23.68-27.97-41.31-31.74c-1.42-0.33-2.86-0.6-4.3-0.8l0.56-4.28
				c1.91,0.22,3.82,0.53,5.75,0.93C176.68,67.29,191.78,120.2,173.58,161.42z"/>
			<path d="M54.72,89.34c-2.86,3.93-4.03,6.15-6.6,11.7c-0.36,0.76-1.32,1.02-2.01,0.53l-0.03-0.03c-0.7-0.5-0.95-1.42-0.59-2.2
				c2.56-5.54,4.12-8.46,6.49-11.73L54.72,89.34z"/>
			<g>
				<path d="M52.22,85.73c-0.08-0.04-0.16-0.07-0.23-0.09c-0.07-0.02-0.13-0.02-0.18,0c-0.05,0.01-0.1,0.04-0.15,0.08
					c-0.04,0.04-0.09,0.09-0.13,0.16c-0.06,0.09-0.12,0.2-0.18,0.33c-0.06,0.13-0.12,0.29-0.19,0.47c-0.1-0.02-0.16-0.03-0.26-0.05
					c0.06-0.2,0.12-0.4,0.19-0.58c0.06-0.19,0.13-0.35,0.19-0.51c0.06-0.15,0.12-0.28,0.17-0.4c0.05-0.11,0.1-0.2,0.14-0.26
					c0.1-0.14,0.21-0.24,0.33-0.28c0.12-0.04,0.27-0.02,0.44,0.08c0.02,0.01,0.06,0.04,0.14,0.08c0.07,0.05,0.16,0.1,0.27,0.17
					c0.11,0.07,0.23,0.15,0.37,0.24c0.14,0.09,0.28,0.19,0.44,0.3c0.15,0.11,0.31,0.22,0.47,0.33c0.16,0.12,0.32,0.23,0.48,0.35
					c0.01-0.01,0.01-0.01,0.02-0.02c-0.4-0.46-0.7-0.9-0.91-1.31c-0.21-0.41-0.35-0.78-0.41-1.12c-0.07-0.34-0.07-0.65-0.01-0.92
					c0.06-0.27,0.17-0.5,0.31-0.7c0.1-0.13,0.22-0.25,0.36-0.35c0.13-0.1,0.28-0.17,0.45-0.2c0.16-0.04,0.34-0.04,0.52-0.01
					c0.18,0.03,0.37,0.11,0.57,0.24c0.06,0.04,0.13,0.09,0.22,0.16c0.09,0.07,0.19,0.15,0.3,0.24c0.11,0.09,0.23,0.18,0.35,0.28
					c0.12,0.1,0.24,0.2,0.36,0.29c0.12,0.09,0.24,0.18,0.35,0.27c0.11,0.08,0.21,0.15,0.3,0.21c0.15,0.1,0.28,0.17,0.38,0.21
					c0.1,0.05,0.2,0.07,0.28,0.07c0.08,0,0.15-0.02,0.22-0.06c0.06-0.04,0.13-0.1,0.19-0.18c0.09-0.11,0.17-0.24,0.24-0.38
					c0.07-0.14,0.13-0.29,0.19-0.44c0.08,0.02,0.12,0.02,0.2,0.04c-0.01,0.11-0.03,0.25-0.07,0.41c-0.04,0.16-0.09,0.31-0.15,0.48
					c-0.06,0.16-0.12,0.32-0.2,0.47c-0.07,0.15-0.15,0.27-0.23,0.37c-0.09,0.12-0.19,0.19-0.3,0.22c-0.11,0.03-0.22,0.03-0.35,0.01
					c-0.12-0.03-0.25-0.08-0.39-0.15c-0.14-0.07-0.28-0.15-0.43-0.25c-0.18-0.11-0.37-0.24-0.55-0.37
					c-0.18-0.13-0.35-0.27-0.52-0.39c-0.16-0.13-0.31-0.24-0.44-0.35c-0.13-0.1-0.24-0.18-0.33-0.23c-0.23-0.14-0.44-0.2-0.62-0.16
					c-0.19,0.04-0.35,0.14-0.47,0.31c-0.1,0.14-0.16,0.31-0.18,0.52c-0.01,0.21,0.01,0.44,0.07,0.69c0.06,0.25,0.16,0.51,0.29,0.78
					c0.14,0.27,0.3,0.53,0.49,0.8c0.19,0.26,0.42,0.51,0.66,0.75c0.25,0.24,0.51,0.45,0.79,0.63c-0.17,0.3-0.25,0.45-0.41,0.76
					c-0.02,0.02-0.02,0.03-0.04,0.05c-0.18-0.12-0.38-0.25-0.59-0.39c-0.22-0.14-0.44-0.28-0.66-0.42
					c-0.22-0.14-0.45-0.28-0.67-0.41c-0.22-0.13-0.43-0.26-0.63-0.37c-0.19-0.11-0.37-0.22-0.52-0.3
					C52.43,85.85,52.31,85.78,52.22,85.73z"/>
				<path d="M59.16,77.69c-0.14-0.11-0.29-0.18-0.45-0.2c-0.16-0.02-0.31-0.02-0.47,0.02c-0.15,0.04-0.3,0.11-0.44,0.2
					c-0.14,0.09-0.26,0.2-0.37,0.31c-0.14,0.16-0.25,0.3-0.32,0.43c-0.07,0.13-0.11,0.25-0.12,0.35c-0.01,0.1,0,0.19,0.04,0.27
					c0.04,0.08,0.1,0.14,0.18,0.2c0.09,0.06,0.2,0.11,0.32,0.13c0.12,0.03,0.26,0.03,0.41,0.02c0.01,0.01,0.01,0.02,0.02,0.04
					c-0.06,0.16-0.14,0.31-0.25,0.43c-0.07,0.07-0.13,0.14-0.21,0.19c-0.08,0.05-0.15,0.09-0.23,0.11
					c-0.08,0.02-0.16,0.03-0.24,0.02c-0.08-0.01-0.15-0.04-0.22-0.09c-0.11-0.08-0.19-0.18-0.23-0.31
					c-0.04-0.13-0.06-0.28-0.05-0.44c0.01-0.16,0.04-0.33,0.1-0.52c0.06-0.18,0.13-0.37,0.22-0.55c0.09-0.18,0.19-0.35,0.3-0.52
					c0.11-0.16,0.22-0.31,0.34-0.44c0.21-0.23,0.42-0.41,0.63-0.53c0.2-0.12,0.41-0.2,0.6-0.22c0.19-0.03,0.38-0.01,0.56,0.06
					c0.18,0.06,0.36,0.16,0.53,0.3c0.12,0.09,0.24,0.2,0.37,0.33c0.13,0.13,0.26,0.26,0.4,0.39c0.14,0.14,0.29,0.28,0.44,0.42
					c0.15,0.14,0.31,0.28,0.47,0.41c0.26,0.21,0.5,0.31,0.73,0.3c0.23,0,0.43-0.09,0.6-0.26c0.15-0.15,0.27-0.36,0.36-0.63
					c0.08,0,0.12,0.01,0.2,0.01c-0.02,0.23-0.07,0.45-0.17,0.65c-0.09,0.21-0.23,0.39-0.4,0.56c-0.13,0.13-0.26,0.23-0.41,0.31
					c-0.15,0.08-0.29,0.13-0.45,0.14c-0.15,0.02-0.31,0-0.47-0.04c-0.16-0.05-0.32-0.13-0.47-0.26c-0.05-0.04-0.09-0.07-0.14-0.11
					c-0.04-0.04-0.09-0.08-0.13-0.14c-0.01,0.01-0.01,0.01-0.02,0.02c0.07,0.21,0.13,0.43,0.17,0.66c0.04,0.23,0.06,0.46,0.05,0.69
					c-0.01,0.23-0.05,0.45-0.11,0.66c-0.07,0.21-0.18,0.41-0.33,0.58c-0.13,0.14-0.26,0.26-0.41,0.34c-0.15,0.09-0.3,0.15-0.45,0.18
					c-0.15,0.03-0.3,0.03-0.45,0.01c-0.15-0.03-0.29-0.08-0.41-0.17c-0.17-0.11-0.29-0.25-0.36-0.42c-0.08-0.16-0.12-0.35-0.12-0.54
					c0-0.2,0.04-0.41,0.11-0.64c0.07-0.23,0.17-0.46,0.3-0.7c0.13-0.24,0.28-0.48,0.46-0.72c0.18-0.24,0.38-0.48,0.6-0.71
					c-0.1-0.1-0.2-0.2-0.3-0.29C59.4,77.88,59.29,77.79,59.16,77.69z M59.27,81.06c0.07,0.05,0.15,0.09,0.23,0.12
					c0.08,0.03,0.16,0.04,0.25,0.04c0.08,0,0.17-0.02,0.25-0.06c0.08-0.04,0.16-0.1,0.23-0.18c0.08-0.09,0.15-0.21,0.2-0.33
					c0.05-0.13,0.09-0.27,0.11-0.41c0.02-0.15,0.02-0.3,0.01-0.46c-0.01-0.16-0.04-0.32-0.09-0.47c-0.04-0.16-0.11-0.3-0.18-0.45
					c-0.08-0.14-0.18-0.27-0.29-0.38c-0.14,0.16-0.28,0.32-0.41,0.48c-0.13,0.16-0.24,0.33-0.34,0.49c-0.1,0.16-0.17,0.32-0.23,0.47
					c-0.06,0.16-0.09,0.3-0.1,0.44c-0.01,0.14,0.02,0.27,0.07,0.39C59.05,80.86,59.14,80.97,59.27,81.06z"/>
				<path d="M59.89,71.55c0.23,0.38,0.48,0.75,0.76,1.12c0.28,0.37,0.56,0.72,0.86,1.06c0.11-0.09,0.21-0.18,0.31-0.27
					c0.1-0.09,0.19-0.17,0.28-0.25c0.09-0.08,0.17-0.14,0.24-0.21c0.07-0.06,0.13-0.12,0.18-0.16c0.2-0.18,0.36-0.34,0.48-0.47
					c0.04,0.02,0.07,0.03,0.1,0.05c0.03,0.02,0.05,0.03,0.08,0.05c0.07,0.07,0.08,0.15,0.02,0.24c-0.06,0.09-0.17,0.21-0.32,0.34
					c-0.15,0.13-0.32,0.27-0.51,0.42c-0.19,0.15-0.4,0.32-0.63,0.51c0.16,0.19,0.32,0.36,0.47,0.53c0.16,0.17,0.31,0.33,0.45,0.47
					c0.14,0.15,0.28,0.28,0.4,0.4c0.13,0.12,0.24,0.23,0.33,0.31c0.18,0.16,0.36,0.3,0.52,0.4c0.16,0.11,0.33,0.18,0.48,0.21
					c0.16,0.04,0.31,0.03,0.46-0.01c0.15-0.04,0.31-0.14,0.46-0.28c0.11-0.1,0.22-0.23,0.33-0.38c0.11-0.15,0.22-0.34,0.33-0.56
					c0.1-0.01,0.19,0.02,0.26,0.07c-0.07,0.18-0.14,0.35-0.22,0.52c-0.08,0.17-0.16,0.33-0.25,0.48c-0.09,0.15-0.18,0.29-0.28,0.41
					c-0.1,0.13-0.2,0.24-0.3,0.33c-0.14,0.13-0.28,0.22-0.44,0.29c-0.15,0.07-0.33,0.09-0.51,0.08c-0.19-0.02-0.4-0.08-0.62-0.2
					c-0.23-0.12-0.48-0.29-0.76-0.54c-0.16-0.14-0.31-0.28-0.47-0.43c-0.16-0.15-0.32-0.3-0.48-0.46c-0.16-0.16-0.32-0.32-0.47-0.48
					c-0.15-0.16-0.3-0.33-0.45-0.49c-0.17,0.17-0.32,0.32-0.46,0.47c-0.13,0.15-0.24,0.28-0.32,0.4c-0.02,0-0.03-0.01-0.05-0.02
					c-0.04-0.03-0.05-0.08-0.04-0.15c0.01-0.07,0.04-0.15,0.09-0.25c0.05-0.1,0.12-0.21,0.22-0.33c0.09-0.12,0.2-0.25,0.33-0.38
					c-0.31-0.36-0.6-0.71-0.86-1.04c-0.26-0.33-0.49-0.64-0.69-0.91c-0.03-0.05-0.05-0.1-0.05-0.16c0-0.05,0.01-0.11,0.04-0.16
					c0.02-0.05,0.06-0.11,0.1-0.16c0.04-0.05,0.09-0.1,0.13-0.14c0.08-0.07,0.15-0.13,0.22-0.17
					C59.74,71.61,59.82,71.58,59.89,71.55z"/>
				<path d="M67.89,68.27c0.12,0.18,0.24,0.37,0.38,0.57c0.14,0.2,0.28,0.39,0.42,0.59c0.14,0.19,0.28,0.38,0.43,0.56
					c0.14,0.18,0.28,0.35,0.4,0.5c0.24,0.28,0.45,0.5,0.65,0.64c0.19,0.15,0.37,0.25,0.52,0.3c0.16,0.05,0.29,0.07,0.41,0.05
					c0.12-0.02,0.23-0.07,0.32-0.13c0.05-0.04,0.1-0.08,0.14-0.12c0.04-0.05,0.08-0.09,0.12-0.14c0.04-0.05,0.06-0.09,0.09-0.14
					c0.02-0.04,0.05-0.08,0.06-0.12c0.08,0.02,0.13,0.03,0.21,0.05c-0.02,0.1-0.06,0.2-0.11,0.31c-0.05,0.11-0.11,0.21-0.17,0.31
					c-0.07,0.1-0.14,0.19-0.23,0.29c-0.09,0.09-0.18,0.17-0.29,0.25c-0.13,0.09-0.28,0.16-0.43,0.21c-0.16,0.05-0.32,0.06-0.5,0.04
					c-0.18-0.02-0.36-0.09-0.55-0.2c-0.19-0.11-0.39-0.28-0.59-0.51c-0.06-0.07-0.13-0.15-0.19-0.23c-0.06-0.08-0.12-0.16-0.18-0.25
					c-0.06-0.09-0.13-0.19-0.19-0.3c-0.07-0.11-0.14-0.23-0.22-0.36c-0.02,0.01-0.03,0.01-0.04,0.02c0.21,0.55,0.36,1.03,0.43,1.46
					c0.07,0.42,0.09,0.8,0.07,1.11c-0.03,0.32-0.1,0.59-0.21,0.8c-0.12,0.22-0.26,0.39-0.42,0.53C68,74.5,67.8,74.6,67.6,74.62
					c-0.2,0.03-0.41,0-0.62-0.07c-0.21-0.07-0.42-0.18-0.63-0.33c-0.21-0.15-0.41-0.33-0.61-0.53c-0.17-0.17-0.34-0.35-0.5-0.54
					c-0.16-0.19-0.32-0.38-0.47-0.57c-0.15-0.19-0.28-0.38-0.41-0.56c-0.12-0.18-0.23-0.35-0.32-0.5c-0.03-0.06-0.05-0.11-0.05-0.16
					c0-0.05,0.01-0.1,0.03-0.14c0.02-0.04,0.05-0.08,0.09-0.12c0.04-0.04,0.08-0.08,0.12-0.11c0.08-0.07,0.16-0.12,0.24-0.16
					c0.08-0.04,0.17-0.08,0.26-0.11c0.14,0.22,0.28,0.44,0.42,0.65c0.14,0.21,0.28,0.41,0.42,0.61c0.14,0.19,0.28,0.38,0.42,0.55
					c0.14,0.17,0.28,0.33,0.41,0.47c0.15,0.15,0.29,0.28,0.43,0.38c0.14,0.11,0.28,0.18,0.41,0.23c0.13,0.05,0.26,0.07,0.38,0.05
					c0.12-0.01,0.24-0.06,0.35-0.15c0.19-0.15,0.31-0.38,0.37-0.68c0.06-0.31,0.05-0.68-0.03-1.12c-0.08-0.44-0.22-0.89-0.41-1.37
					c-0.19-0.47-0.46-0.94-0.8-1.41c0.29-0.26,0.43-0.38,0.72-0.63C67.85,68.29,67.86,68.28,67.89,68.27z"/>
				<path d="M72.99,70.75c-0.02,0.01-0.03,0.02-0.06,0.03c-0.11-0.18-0.24-0.38-0.37-0.59c-0.14-0.21-0.28-0.43-0.42-0.64
					c-0.14-0.22-0.29-0.43-0.43-0.64c-0.14-0.21-0.28-0.41-0.41-0.59c-0.13-0.18-0.24-0.34-0.35-0.49c-0.1-0.14-0.19-0.25-0.25-0.33
					c-0.05-0.07-0.1-0.12-0.14-0.16c-0.05-0.04-0.09-0.07-0.14-0.09c-0.05-0.01-0.11-0.01-0.17,0.01c-0.06,0.02-0.14,0.06-0.22,0.11
					c-0.04,0.03-0.08,0.06-0.13,0.09c-0.04,0.03-0.09,0.07-0.14,0.12c-0.05,0.04-0.1,0.1-0.16,0.15c-0.06,0.06-0.13,0.12-0.2,0.2
					c-0.08-0.06-0.13-0.09-0.21-0.15c0.33-0.39,0.61-0.69,0.84-0.91c0.23-0.22,0.39-0.35,0.48-0.41c0.17-0.11,0.32-0.15,0.44-0.13
					c0.13,0.02,0.24,0.1,0.34,0.24c0.01,0.01,0.03,0.05,0.08,0.12c0.04,0.07,0.09,0.15,0.16,0.25c0.07,0.1,0.14,0.23,0.22,0.36
					c0.08,0.14,0.18,0.29,0.27,0.45c0.09,0.16,0.19,0.33,0.29,0.5c0.1,0.18,0.2,0.35,0.3,0.52c0.02-0.01,0.02-0.01,0.04-0.02
					c-0.14-0.43-0.26-0.85-0.33-1.25c-0.07-0.4-0.1-0.78-0.07-1.13c0.03-0.35,0.12-0.66,0.26-0.94c0.14-0.27,0.36-0.5,0.65-0.67
					c0.1-0.06,0.2-0.1,0.31-0.13c0.1-0.03,0.2-0.04,0.29-0.04c0.09,0,0.17,0.02,0.25,0.06c0.08,0.03,0.13,0.08,0.18,0.15
					c0.06,0.09,0.08,0.18,0.08,0.29c0,0.11-0.03,0.22-0.1,0.35c-0.01,0.01-0.02,0.01-0.03,0.02c-0.15,0-0.29,0.01-0.41,0.04
					c-0.12,0.03-0.23,0.07-0.34,0.14c-0.12,0.07-0.22,0.15-0.31,0.25c-0.09,0.1-0.16,0.2-0.2,0.32c-0.08,0.19-0.12,0.39-0.14,0.63
					c-0.01,0.23,0,0.48,0.04,0.73c0.04,0.25,0.09,0.51,0.16,0.77c0.07,0.26,0.15,0.51,0.24,0.74c0.09,0.23,0.18,0.45,0.27,0.64
					c0.09,0.19,0.18,0.36,0.25,0.48C73.4,70.42,73.26,70.53,72.99,70.75z"/>
				<path d="M78,63.77c-0.09-0.15-0.2-0.27-0.33-0.35c-0.14-0.08-0.28-0.12-0.44-0.14c-0.16-0.01-0.32,0-0.48,0.04
					c-0.16,0.04-0.32,0.1-0.46,0.17c-0.19,0.1-0.35,0.2-0.46,0.3c-0.11,0.1-0.2,0.2-0.25,0.29c-0.05,0.09-0.07,0.18-0.07,0.27
					c0.01,0.09,0.03,0.17,0.08,0.25c0.06,0.09,0.14,0.17,0.24,0.24c0.1,0.07,0.23,0.12,0.37,0.16c0,0.02,0,0.02,0,0.04
					c-0.12,0.13-0.25,0.24-0.4,0.33c-0.09,0.05-0.18,0.08-0.27,0.11c-0.09,0.02-0.17,0.03-0.26,0.02c-0.08-0.01-0.16-0.03-0.22-0.06
					c-0.07-0.04-0.12-0.09-0.17-0.16c-0.07-0.11-0.1-0.24-0.09-0.38c0.01-0.14,0.05-0.29,0.13-0.44c0.07-0.15,0.17-0.3,0.3-0.46
					c0.13-0.16,0.26-0.3,0.42-0.45c0.15-0.14,0.31-0.27,0.48-0.39c0.17-0.12,0.33-0.22,0.49-0.3c0.29-0.15,0.55-0.25,0.79-0.29
					c0.24-0.05,0.45-0.05,0.64-0.01c0.19,0.04,0.35,0.12,0.49,0.25c0.14,0.12,0.26,0.28,0.37,0.47c0.07,0.13,0.14,0.28,0.21,0.44
					c0.07,0.16,0.14,0.34,0.22,0.52c0.07,0.18,0.15,0.36,0.24,0.55c0.08,0.19,0.18,0.37,0.27,0.55c0.15,0.28,0.34,0.46,0.56,0.54
					c0.22,0.08,0.43,0.06,0.66-0.04c0.2-0.09,0.39-0.25,0.58-0.48c0.07,0.03,0.11,0.05,0.18,0.08c-0.11,0.21-0.25,0.4-0.41,0.57
					c-0.17,0.16-0.36,0.3-0.59,0.41c-0.17,0.08-0.33,0.13-0.5,0.16c-0.16,0.02-0.32,0.02-0.47-0.02c-0.15-0.04-0.29-0.1-0.42-0.2
					c-0.13-0.1-0.24-0.24-0.34-0.41c-0.03-0.05-0.05-0.1-0.08-0.16c-0.02-0.05-0.05-0.11-0.07-0.17c-0.01,0-0.01,0.01-0.02,0.01
					c-0.02,0.22-0.05,0.45-0.1,0.69c-0.05,0.24-0.13,0.46-0.22,0.68c-0.1,0.22-0.22,0.41-0.36,0.59c-0.14,0.18-0.32,0.33-0.53,0.44
					c-0.17,0.09-0.34,0.16-0.51,0.19c-0.17,0.03-0.33,0.04-0.48,0.01c-0.15-0.02-0.29-0.07-0.42-0.15
					c-0.13-0.08-0.23-0.18-0.32-0.31c-0.11-0.17-0.17-0.34-0.17-0.52c-0.01-0.18,0.03-0.37,0.1-0.56c0.08-0.19,0.19-0.38,0.35-0.57
					c0.16-0.19,0.34-0.38,0.55-0.57c0.21-0.18,0.45-0.36,0.71-0.53c0.26-0.17,0.54-0.33,0.83-0.47c-0.05-0.13-0.11-0.26-0.16-0.38
					C78.14,64.04,78.08,63.91,78,63.77z M76.78,67.03c0.05,0.07,0.1,0.14,0.17,0.2c0.06,0.06,0.13,0.1,0.21,0.12
					c0.08,0.03,0.16,0.03,0.25,0.03c0.09-0.01,0.18-0.04,0.29-0.1c0.11-0.06,0.22-0.14,0.32-0.25c0.1-0.1,0.18-0.22,0.26-0.36
					c0.08-0.13,0.14-0.28,0.19-0.43c0.05-0.16,0.09-0.32,0.11-0.48c0.02-0.16,0.02-0.33,0.01-0.49c-0.02-0.16-0.05-0.32-0.11-0.47
					c-0.2,0.1-0.38,0.21-0.57,0.32c-0.18,0.11-0.35,0.23-0.5,0.35c-0.15,0.12-0.29,0.25-0.4,0.37c-0.12,0.13-0.2,0.26-0.26,0.39
					c-0.06,0.13-0.09,0.26-0.08,0.39C76.65,66.76,76.7,66.89,76.78,67.03z"/>
				<path d="M80.29,56.6c0.1,0.37,0.2,0.75,0.32,1.14c0.11,0.39,0.23,0.78,0.35,1.17c0.12,0.39,0.25,0.79,0.38,1.18
					c0.13,0.39,0.27,0.78,0.41,1.15c0.14,0.38,0.28,0.74,0.43,1.1c0.15,0.36,0.3,0.7,0.45,1.02c0.09,0.2,0.18,0.37,0.25,0.51
					c0.08,0.14,0.14,0.26,0.2,0.35c0.06,0.09,0.12,0.16,0.17,0.22c0.05,0.05,0.11,0.08,0.16,0.1c0.05,0.02,0.11,0.02,0.16,0.01
					c0.06-0.01,0.12-0.03,0.19-0.06c0.13-0.05,0.26-0.12,0.39-0.21c0.13-0.09,0.27-0.19,0.4-0.31c0.06,0.05,0.09,0.08,0.15,0.13
					c-0.07,0.1-0.17,0.21-0.28,0.33c-0.12,0.12-0.24,0.24-0.38,0.35c-0.14,0.12-0.27,0.22-0.41,0.32c-0.14,0.09-0.26,0.17-0.37,0.21
					c-0.14,0.06-0.27,0.08-0.37,0.06c-0.11-0.02-0.22-0.08-0.32-0.19c-0.1-0.11-0.21-0.26-0.32-0.45c-0.11-0.2-0.23-0.44-0.38-0.73
					c-0.05-0.11-0.12-0.26-0.21-0.45c-0.09-0.2-0.19-0.43-0.3-0.69c-0.11-0.26-0.23-0.55-0.36-0.87c-0.13-0.32-0.27-0.64-0.4-0.98
					c-0.14-0.34-0.28-0.68-0.41-1.02c-0.14-0.35-0.27-0.68-0.4-1c-0.13-0.32-0.25-0.63-0.36-0.91c-0.11-0.29-0.21-0.54-0.29-0.76
					c-0.02-0.05-0.02-0.1,0-0.15c0.02-0.05,0.06-0.1,0.11-0.15c0.05-0.05,0.12-0.09,0.19-0.14c0.07-0.04,0.15-0.08,0.23-0.12
					C79.85,56.67,80.06,56.62,80.29,56.6z"/>
				<path d="M84.01,55.17c0.08,0.38,0.16,0.76,0.24,1.16c0.09,0.39,0.18,0.79,0.28,1.19c0.1,0.4,0.2,0.8,0.3,1.2
					c0.11,0.4,0.22,0.79,0.33,1.18c0.12,0.38,0.23,0.76,0.36,1.12c0.12,0.37,0.25,0.71,0.38,1.04c0.08,0.21,0.15,0.38,0.22,0.53
					c0.06,0.14,0.12,0.27,0.18,0.36c0.06,0.1,0.11,0.17,0.16,0.22c0.05,0.05,0.1,0.09,0.15,0.11c0.05,0.02,0.11,0.03,0.16,0.02
					c0.06-0.01,0.12-0.02,0.19-0.05c0.13-0.05,0.27-0.11,0.41-0.2c0.14-0.08,0.28-0.18,0.42-0.29c0.06,0.05,0.08,0.08,0.14,0.14
					c-0.08,0.09-0.18,0.2-0.3,0.31c-0.12,0.11-0.26,0.23-0.4,0.34c-0.14,0.11-0.28,0.21-0.43,0.3c-0.14,0.09-0.27,0.15-0.38,0.19
					c-0.15,0.05-0.27,0.07-0.38,0.04c-0.11-0.03-0.21-0.09-0.31-0.21c-0.1-0.11-0.19-0.27-0.29-0.47c-0.1-0.2-0.21-0.45-0.33-0.75
					c-0.05-0.11-0.1-0.26-0.18-0.47c-0.07-0.2-0.16-0.44-0.25-0.71c-0.09-0.27-0.2-0.57-0.31-0.89c-0.11-0.32-0.22-0.66-0.34-1
					c-0.12-0.35-0.23-0.69-0.35-1.05c-0.12-0.35-0.23-0.69-0.33-1.03c-0.11-0.33-0.21-0.64-0.3-0.93c-0.09-0.29-0.17-0.55-0.24-0.78
					c-0.02-0.05-0.01-0.1,0.01-0.15c0.02-0.05,0.07-0.1,0.12-0.15c0.05-0.05,0.12-0.09,0.2-0.13c0.07-0.04,0.16-0.07,0.24-0.1
					C83.56,55.21,83.77,55.18,84.01,55.17z"/>
				<path d="M90.18,62.66c-0.14-0.18-0.28-0.37-0.43-0.57c-0.15-0.2-0.31-0.39-0.47-0.59c-0.16-0.2-0.32-0.39-0.47-0.58
					c-0.16-0.19-0.31-0.37-0.46-0.54c-0.15-0.17-0.29-0.33-0.42-0.47c-0.13-0.14-0.25-0.26-0.35-0.37c-0.1-0.1-0.2-0.19-0.29-0.25
					c-0.08-0.06-0.16-0.1-0.24-0.13c-0.08-0.02-0.15-0.03-0.23-0.03c-0.07,0.01-0.15,0.02-0.23,0.05c-0.1,0.03-0.19,0.07-0.3,0.13
					c-0.1,0.05-0.22,0.12-0.36,0.19c-0.06-0.08-0.09-0.12-0.15-0.2c0.16-0.11,0.32-0.21,0.47-0.31c0.15-0.1,0.3-0.18,0.44-0.26
					c0.14-0.08,0.26-0.14,0.36-0.19c0.11-0.05,0.2-0.09,0.26-0.11c0.08-0.03,0.15-0.04,0.23-0.04c0.08,0,0.16,0.01,0.24,0.03
					c0.08,0.03,0.17,0.07,0.26,0.14c0.09,0.06,0.19,0.15,0.29,0.26c0.07,0.07,0.15,0.16,0.25,0.27c0.1,0.11,0.21,0.23,0.33,0.37
					c0.12,0.14,0.25,0.29,0.38,0.46c0.13,0.17,0.27,0.34,0.41,0.53c0.14,0.18,0.28,0.37,0.42,0.57c0.14,0.2,0.27,0.39,0.4,0.58
					c0.06-0.32,0.12-0.66,0.19-1.01c0.07-0.35,0.14-0.7,0.22-1.06c0.08-0.36,0.16-0.71,0.24-1.06c0.08-0.35,0.17-0.69,0.25-1.01
					c0.01-0.06,0.04-0.1,0.08-0.15c0.04-0.04,0.09-0.08,0.14-0.11c0.05-0.03,0.11-0.06,0.17-0.09c0.06-0.02,0.12-0.04,0.18-0.06
					c0.1-0.03,0.2-0.04,0.3-0.04c0.1,0,0.2,0,0.29,0.01c-0.1,0.19-0.2,0.41-0.3,0.64c-0.1,0.23-0.2,0.48-0.29,0.74
					c-0.09,0.26-0.19,0.53-0.28,0.81c-0.09,0.28-0.17,0.56-0.25,0.85c-0.08,0.29-0.16,0.58-0.23,0.86c-0.07,0.29-0.14,0.57-0.2,0.85
					c-0.06,0.28-0.12,0.56-0.16,0.83c-0.05,0.27-0.09,0.53-0.13,0.79c-0.04,0.25-0.08,0.5-0.12,0.73c-0.04,0.23-0.08,0.46-0.13,0.67
					c-0.05,0.19-0.11,0.38-0.17,0.56c-0.07,0.18-0.15,0.34-0.25,0.49c-0.1,0.15-0.22,0.27-0.36,0.39c-0.14,0.11-0.31,0.2-0.5,0.27
					c-0.12,0.04-0.23,0.06-0.34,0.07c-0.1,0.01-0.2,0-0.28-0.02c-0.08-0.02-0.15-0.05-0.21-0.09c-0.06-0.04-0.1-0.1-0.12-0.16
					c-0.03-0.07-0.03-0.15,0-0.24c0.02-0.09,0.07-0.17,0.14-0.24c0.13,0.02,0.25,0.02,0.37,0c0.12-0.01,0.22-0.04,0.31-0.07
					c0.21-0.07,0.38-0.18,0.52-0.33c0.13-0.15,0.24-0.34,0.33-0.58c0.09-0.24,0.16-0.52,0.22-0.85c0.06-0.33,0.13-0.72,0.2-1.16
					c0.01-0.08,0.02-0.12,0.03-0.19C90.3,62.63,90.26,62.64,90.18,62.66z"/>
				<path d="M97.58,60.91c-0.03,0-0.04,0.01-0.07,0.01c-0.01-0.22-0.03-0.45-0.04-0.7c-0.02-0.25-0.04-0.51-0.06-0.77
					c-0.02-0.26-0.05-0.51-0.07-0.77c-0.03-0.25-0.05-0.49-0.08-0.71c-0.02-0.22-0.05-0.42-0.07-0.59
					c-0.02-0.17-0.04-0.31-0.06-0.41c-0.01-0.08-0.03-0.15-0.05-0.21c-0.02-0.06-0.05-0.1-0.09-0.14c-0.04-0.03-0.09-0.05-0.16-0.06
					c-0.07-0.01-0.15,0-0.26,0.02c-0.05,0.01-0.1,0.02-0.16,0.04c-0.05,0.02-0.12,0.03-0.18,0.06c-0.07,0.02-0.14,0.05-0.22,0.08
					c-0.08,0.03-0.18,0.07-0.28,0.11c-0.04-0.09-0.07-0.13-0.11-0.22c0.49-0.24,0.89-0.41,1.2-0.52c0.31-0.11,0.52-0.18,0.64-0.2
					c0.2-0.04,0.36-0.02,0.46,0.05c0.1,0.07,0.16,0.19,0.19,0.36c0,0.02,0.01,0.06,0.01,0.14c0,0.08,0.01,0.18,0.02,0.3
					c0.01,0.12,0.01,0.27,0.02,0.43c0.01,0.16,0.01,0.34,0.02,0.52c0.01,0.19,0.01,0.38,0.02,0.58c0,0.2,0.01,0.41,0.01,0.61
					c0.02,0,0.03,0,0.05,0c0.08-0.46,0.19-0.89,0.32-1.3c0.13-0.41,0.3-0.77,0.5-1.08c0.2-0.31,0.43-0.57,0.7-0.77
					c0.27-0.2,0.57-0.32,0.91-0.37c0.12-0.02,0.23-0.02,0.34,0c0.11,0.01,0.2,0.04,0.28,0.08c0.08,0.04,0.14,0.09,0.19,0.15
					c0.05,0.06,0.08,0.13,0.08,0.21c0.01,0.1-0.02,0.2-0.07,0.3c-0.05,0.1-0.14,0.19-0.27,0.28c-0.02,0-0.02,0-0.04,0.01
					c-0.14-0.06-0.27-0.1-0.39-0.12c-0.12-0.02-0.24-0.02-0.37,0c-0.14,0.02-0.27,0.06-0.4,0.11c-0.13,0.06-0.24,0.13-0.34,0.22
					c-0.16,0.14-0.31,0.32-0.43,0.53c-0.13,0.21-0.24,0.45-0.33,0.7c-0.09,0.25-0.17,0.51-0.23,0.78c-0.06,0.27-0.11,0.53-0.15,0.79
					c-0.04,0.25-0.06,0.49-0.07,0.71c-0.01,0.22-0.02,0.4-0.01,0.55C98.11,60.76,97.93,60.81,97.58,60.91z"/>
				<path d="M103.65,55.2c-0.04,0.26-0.08,0.52-0.11,0.78c-0.03,0.26-0.05,0.51-0.06,0.76c-0.01,0.24-0.02,0.47-0.02,0.69
					c0,0.22,0,0.41,0.01,0.58c0.01,0.23,0.02,0.43,0.04,0.6c0.02,0.17,0.04,0.31,0.06,0.42c0.03,0.11,0.06,0.2,0.09,0.27
					c0.03,0.07,0.07,0.12,0.12,0.15c0.05,0.03,0.1,0.05,0.16,0.06c0.06,0.01,0.13,0.01,0.2,0c0.14-0.01,0.29-0.04,0.46-0.09
					c0.16-0.05,0.33-0.1,0.49-0.17c0.03,0.07,0.05,0.1,0.08,0.17c-0.1,0.07-0.23,0.15-0.39,0.23c-0.16,0.08-0.32,0.16-0.5,0.23
					c-0.17,0.07-0.34,0.13-0.51,0.18c-0.17,0.05-0.31,0.08-0.43,0.09c-0.08,0.01-0.16,0.01-0.22,0.01c-0.07,0-0.13-0.02-0.18-0.06
					c-0.06-0.03-0.11-0.09-0.15-0.16c-0.05-0.07-0.09-0.18-0.12-0.31c-0.04-0.13-0.07-0.3-0.1-0.5c-0.03-0.2-0.05-0.44-0.07-0.73
					c-0.01-0.17-0.02-0.36-0.03-0.57c-0.01-0.21-0.02-0.44-0.02-0.69c-0.01-0.24-0.01-0.5-0.01-0.78c0-0.27,0-0.55,0.01-0.84
					c0-0.06,0.02-0.12,0.06-0.16c0.04-0.04,0.09-0.08,0.15-0.11c0.06-0.03,0.12-0.05,0.19-0.06c0.07-0.02,0.13-0.03,0.19-0.03
					C103.26,55.13,103.46,55.15,103.65,55.2z M103.17,53.72c-0.12,0.01-0.22,0.01-0.31-0.02c-0.09-0.02-0.17-0.06-0.23-0.11
					c-0.06-0.05-0.11-0.1-0.15-0.17c-0.04-0.06-0.06-0.13-0.06-0.21c-0.01-0.1,0.01-0.19,0.06-0.28c0.05-0.08,0.1-0.15,0.18-0.22
					c0.08-0.06,0.16-0.11,0.26-0.14c0.09-0.04,0.19-0.06,0.28-0.07c0.11-0.01,0.22-0.01,0.31,0.01c0.09,0.02,0.17,0.05,0.24,0.1
					c0.07,0.04,0.12,0.1,0.15,0.16c0.04,0.06,0.06,0.13,0.06,0.2c0,0.08-0.01,0.16-0.05,0.24c-0.04,0.08-0.09,0.16-0.16,0.23
					c-0.07,0.07-0.15,0.13-0.25,0.18C103.4,53.68,103.29,53.71,103.17,53.72z"/>
				<path d="M109.42,56.19c0.1-0.13,0.15-0.25,0.16-0.38c0.01-0.09-0.01-0.17-0.05-0.25c-0.04-0.08-0.1-0.14-0.18-0.2
					c-0.08-0.06-0.19-0.1-0.31-0.14c-0.13-0.03-0.28-0.05-0.45-0.04c-0.25,0.01-0.47,0.04-0.67,0.11c-0.2,0.07-0.37,0.16-0.53,0.27
					c-0.15,0.11-0.28,0.25-0.39,0.39c-0.11,0.15-0.2,0.3-0.27,0.47c-0.07,0.17-0.12,0.34-0.15,0.51c-0.03,0.17-0.05,0.34-0.05,0.5
					c0,0.29,0.05,0.55,0.14,0.79c0.1,0.23,0.23,0.43,0.39,0.59c0.17,0.16,0.36,0.28,0.58,0.37c0.22,0.08,0.46,0.12,0.71,0.12
					c0.27-0.01,0.54-0.07,0.83-0.18c0.28-0.11,0.56-0.29,0.84-0.53c0.02,0.01,0.04,0.02,0.07,0.03c0.03,0.01,0.05,0.03,0.08,0.04
					c0.02,0.01,0.04,0.03,0.06,0.05c0.02,0.02,0.03,0.03,0.02,0.04c0,0.01,0,0.02-0.01,0.02c0,0.01-0.01,0.01-0.01,0.01
					c-0.32,0.35-0.68,0.62-1.09,0.8c-0.41,0.18-0.85,0.28-1.32,0.3c-0.26,0.01-0.49-0.01-0.71-0.06c-0.21-0.05-0.41-0.11-0.58-0.2
					c-0.17-0.09-0.33-0.2-0.46-0.32c-0.13-0.13-0.25-0.27-0.34-0.42c-0.09-0.15-0.16-0.31-0.21-0.48c-0.05-0.17-0.07-0.34-0.07-0.52
					c0-0.24,0.03-0.48,0.1-0.72c0.07-0.24,0.17-0.48,0.31-0.71c0.14-0.23,0.31-0.44,0.51-0.65c0.2-0.2,0.43-0.38,0.69-0.53
					c0.26-0.15,0.54-0.27,0.86-0.37c0.31-0.09,0.64-0.14,1-0.15c0.26-0.01,0.51,0.01,0.73,0.06c0.23,0.04,0.42,0.11,0.57,0.19
					c0.16,0.08,0.28,0.18,0.37,0.3c0.08,0.12,0.12,0.25,0.11,0.39c-0.01,0.09-0.03,0.18-0.08,0.25c-0.04,0.07-0.1,0.13-0.18,0.18
					c-0.08,0.05-0.16,0.09-0.26,0.12c-0.1,0.03-0.2,0.04-0.31,0.04c-0.07,0-0.14,0-0.21-0.01c-0.07-0.01-0.14-0.02-0.21-0.05
					C109.43,56.21,109.42,56.2,109.42,56.19z"/>
				<path d="M112.61,57.9c0.3-0.56,0.62-1.04,0.94-1.42c0.32-0.38,0.65-0.69,0.97-0.92c0.32-0.23,0.63-0.39,0.94-0.48
					c0.3-0.09,0.59-0.13,0.84-0.1c0.18,0.01,0.35,0.05,0.51,0.12c0.16,0.06,0.29,0.15,0.4,0.26c0.11,0.11,0.18,0.25,0.23,0.42
					c0.04,0.17,0.04,0.36,0,0.58c-0.01,0.07-0.04,0.16-0.07,0.27c-0.04,0.11-0.07,0.24-0.12,0.38c-0.05,0.14-0.09,0.29-0.15,0.44
					c-0.05,0.15-0.1,0.31-0.15,0.46c-0.05,0.15-0.09,0.29-0.13,0.43c-0.04,0.14-0.07,0.25-0.09,0.35c-0.04,0.18-0.05,0.32-0.06,0.43
					c0,0.11,0.01,0.2,0.04,0.27c0.03,0.07,0.08,0.12,0.15,0.15c0.07,0.03,0.15,0.05,0.26,0.06c0.15,0.02,0.32,0.02,0.49,0
					c0.17-0.01,0.35-0.04,0.53-0.08c0.02,0.07,0.02,0.11,0.04,0.18c-0.12,0.05-0.27,0.1-0.45,0.15c-0.18,0.05-0.36,0.09-0.55,0.13
					c-0.19,0.04-0.37,0.06-0.56,0.08c-0.18,0.02-0.34,0.02-0.47,0.01c-0.16-0.01-0.28-0.06-0.36-0.13
					c-0.08-0.07-0.13-0.17-0.15-0.28c-0.02-0.12-0.03-0.25-0.02-0.4c0.01-0.15,0.04-0.31,0.07-0.49c0.04-0.21,0.09-0.42,0.15-0.64
					c0.06-0.22,0.12-0.43,0.18-0.64c0.06-0.2,0.12-0.39,0.17-0.56c0.05-0.17,0.09-0.3,0.11-0.41c0.05-0.25,0.01-0.44-0.1-0.58
					c-0.11-0.14-0.28-0.21-0.52-0.23c-0.18-0.01-0.38,0.03-0.6,0.13c-0.22,0.1-0.45,0.24-0.68,0.42c-0.23,0.18-0.45,0.4-0.67,0.65
					c-0.22,0.25-0.42,0.53-0.6,0.83c-0.19,0.3-0.35,0.62-0.48,0.95c-0.13,0.33-0.23,0.66-0.3,1c-0.38,0.02-0.57,0.04-0.95,0.06
					c-0.03,0-0.04,0-0.07,0c0.05-0.27,0.1-0.56,0.15-0.88c0.06-0.32,0.12-0.66,0.18-1.02c0.06-0.36,0.13-0.74,0.21-1.13
					c0.07-0.39,0.14-0.79,0.22-1.2c0.08-0.41,0.15-0.82,0.23-1.23c0.08-0.41,0.16-0.82,0.23-1.22c0.08-0.4,0.15-0.8,0.23-1.18
					c0.07-0.38,0.15-0.75,0.22-1.1c0.01-0.05,0.04-0.1,0.09-0.14c0.05-0.04,0.11-0.07,0.18-0.09c0.07-0.02,0.16-0.04,0.25-0.04
					c0.09-0.01,0.18-0.01,0.28-0.01c0.21,0.01,0.42,0.05,0.64,0.14c-0.14,0.46-0.27,0.88-0.38,1.26c-0.11,0.38-0.22,0.74-0.31,1.06
					c-0.09,0.33-0.18,0.63-0.25,0.91c-0.07,0.28-0.14,0.55-0.21,0.81c-0.07,0.26-0.13,0.52-0.18,0.76c-0.06,0.25-0.11,0.5-0.17,0.75
					c-0.06,0.26-0.12,0.52-0.18,0.8c-0.06,0.28-0.13,0.57-0.2,0.89C112.59,57.9,112.6,57.9,112.61,57.9z"/>
			</g>
		</g>
	</g>
	<g>
		<path d="M149.95,178.97c-1.64,1.64-4.29,1.64-5.93,0c-0.98-0.98-1.3-2.39-1.04-3.74c0.17-0.88,0.7-1.67,1.15-2.44
			c0.48-0.82,1.04-1.58,1.53-2.38c0.47-0.78,0.88-1.6,1.32-2.39c-0.06,0.1,0.36,0.77,0.41,0.87c0.72,1.46,1.61,2.81,2.45,4.2
			c0.39,0.64,0.79,1.26,0.99,1.99c0.17,0.63,0.23,1.3,0.12,1.95C150.82,177.76,150.48,178.44,149.95,178.97z"/>
	</g>
	<path d="M127.04,88.96l-0.08-6.69l-5.83-3.28l-5.33,3.16l-5.13-2.89l-0.07-6.25l-5.83-3.28l-5.75,3.41l0.08,6.69l5.46,3.07
		l0.07,6.25l5.83,3.28l5.33-3.16l5.51,3.1L127.04,88.96z M99.77,73.57l5.01-2.97l5.07,2.85l0.07,5.82l-5.01,2.97l-5.07-2.85
		L99.77,73.57z M110.44,91.56l-5.07-2.85l-0.07-5.82l5.01-2.97l5.07,2.85l0.07,5.82L110.44,91.56z M116.2,88.65l-0.07-5.82
		l5.01-2.97l5.07,2.85l0.07,5.82l-5.01,2.97L116.2,88.65z"/>
</g>
</svg>
