<?xml version="1.0" encoding="utf-8"?>
<!-- Generator: Adobe Illustrator 27.0.0, SVG Export Plug-In . SVG Version: 6.00 Build 0)  -->
<svg version="1.1" id="Layer_1" xmlns="http://www.w3.org/2000/svg" xmlns:xlink="http://www.w3.org/1999/xlink" x="0px" y="0px"
	 viewBox="0 0 226.77 226.77" style="enable-background:new 0 0 226.77 226.77;" xml:space="preserve">
<style type="text/css">
	.st0{fill:#FFF200;}
	.st1{stroke:#000000;stroke-width:5.2476;stroke-miterlimit:10;}
	.st2{fill:#FFFFFF;}
	.st3{fill:#ED1C24;}
	.st4{fill:#50B848;}
	.st5{fill:#007F3E;}
	.st6{fill:#F58220;}
	.st7{fill:#F37021;}
	.st8{fill:#1282C5;}
	.st9{fill:#F7941D;}
	.st10{fill:#FFFFFF;stroke:#FFFFFF;stroke-width:2.321;stroke-linecap:round;stroke-linejoin:round;}
	.st11{fill:#00854A;}
	.st12{fill:#34B34A;}
	.st13{fill:#13421E;}
	.st14{fill:#8CC540;stroke:#FFFFFF;stroke-width:1.2029;stroke-miterlimit:10;}
	.st15{fill:#065643;stroke:#FFFFFF;stroke-width:1.2029;stroke-miterlimit:10;}
	.st16{fill:#FFCB05;}
	.st17{fill:#224D71;}
	.st18{fill:#F8BC1B;}
	.st19{fill:#4CB748;}
	.st20{fill:url(#SVGID_00000109028707296193486530000003751098055868309181_);}
	.st21{fill:none;stroke:#FFFFFF;stroke-width:0.8396;stroke-miterlimit:10;}
	
		.st22{fill:url(#SVGID_00000027596957650404169850000011799306670982390718_);stroke:url(#SVGID_00000137833846911569083900000005115689854492699561_);stroke-width:0.6997;stroke-miterlimit:10;}
	
		.st23{fill:url(#SVGID_00000181775607524431269490000018316081202238584716_);stroke:url(#SVGID_00000120560816154773833450000000873413680508192187_);stroke-width:0.6997;stroke-miterlimit:10;}
	
		.st24{fill:url(#SVGID_00000023982974895983542660000007022277202045007757_);stroke:url(#SVGID_00000095337067630088140060000016703380775177901242_);stroke-width:0.6997;stroke-miterlimit:10;}
	
		.st25{fill:url(#SVGID_00000181053524550238859600000001789128610496487560_);stroke:url(#SVGID_00000101817268314841668220000000110474428894747564_);stroke-width:0.6997;stroke-miterlimit:10;}
	
		.st26{fill:url(#SVGID_00000047018036054107499760000000464439736596228766_);stroke:url(#SVGID_00000062909806816518539970000017482171500720478877_);stroke-width:0.6997;stroke-miterlimit:10;}
	.st27{fill:url(#SVGID_00000002343666537802806320000013821898473088132267_);}
	.st28{fill:url(#SVGID_00000009591275219693246760000002238878120895985539_);}
	.st29{fill:#005826;}
	.st30{fill:#BFD730;}
	.st31{fill:#00A651;stroke:#000000;stroke-width:2.8889;stroke-linecap:round;stroke-linejoin:round;stroke-miterlimit:10;}
	.st32{fill:#FFF200;stroke:#000000;stroke-width:2.8889;stroke-linecap:round;stroke-linejoin:round;stroke-miterlimit:10;}
	.st33{fill:#8DC63F;stroke:#000000;stroke-width:2.8889;stroke-linecap:round;stroke-linejoin:round;stroke-miterlimit:10;}
	.st34{fill:#0DB14B;stroke:#000000;stroke-width:2.8889;stroke-linecap:round;stroke-linejoin:round;stroke-miterlimit:10;}
	.st35{fill:#FFFFFF;stroke:#000000;stroke-width:2.8889;stroke-linecap:round;stroke-linejoin:round;stroke-miterlimit:10;}
	.st36{fill:#00A651;}
	.st37{fill:#8DC63F;}
	.st38{fill:#0DB14B;}
	.st39{fill:#034EA2;}
	.st40{fill:#00763F;}
	.st41{fill:url(#SVGID_00000093164257304638942460000016392504595454253740_);}
	.st42{fill:url(#SVGID_00000143607404555645050500000017090556668913834662_);}
	.st43{fill:url(#SVGID_00000056425501530711448100000011455123451699168667_);}
	.st44{fill:url(#SVGID_00000058576842452505347560000003870855823156795315_);}
	.st45{fill:url(#SVGID_00000033328722466156811960000001144354530912522152_);}
	.st46{fill:url(#SVGID_00000090274194904462179960000014672181291911449000_);}
	.st47{fill:url(#SVGID_00000007397017270774193270000009218885701517812895_);}
	.st48{fill:url(#SVGID_00000065041362707366214400000001964330156310904500_);}
	.st49{fill:url(#SVGID_00000129888561311676333860000014580280826111080359_);}
	.st50{fill:url(#SVGID_00000075131270289111406290000002768139282710412944_);}
	.st51{fill:#FFFFFF;stroke:#FFFFFF;stroke-width:4.8073;stroke-linecap:round;stroke-linejoin:round;stroke-miterlimit:10;}
	.st52{fill:url(#SVGID_00000046341974093943526670000010322118887985724565_);}
	.st53{fill:#00A651;stroke:#00A651;stroke-width:4.2345;stroke-linecap:round;stroke-linejoin:round;stroke-miterlimit:10;}
	.st54{fill:#939598;stroke:#939598;stroke-width:4.2345;stroke-linecap:round;stroke-linejoin:round;stroke-miterlimit:10;}
	.st55{fill:#CE181E;stroke:#CE181E;stroke-width:9.3609;stroke-miterlimit:10;}
	
		.st56{fill:none;stroke:url(#SVGID_00000159454577405213921500000000311887187670915472_);stroke-width:3.3359;stroke-miterlimit:10;}
	.st57{fill-rule:evenodd;clip-rule:evenodd;fill:#21A347;}
	.st58{filter:url(#Adobe_OpacityMaskFilter);}
	
		.st59{clip-path:url(#SVGID_00000141427950490568364480000011153956090580183973_);fill-rule:evenodd;clip-rule:evenodd;fill:url(#);}
	
		.st60{opacity:0.49;clip-path:url(#SVGID_00000141427950490568364480000011153956090580183973_);mask:url(#SVGID_00000049203634905907022920000013162789955592861102_);fill-rule:evenodd;clip-rule:evenodd;}
	
		.st61{clip-path:url(#SVGID_00000141427950490568364480000011153956090580183973_);fill-rule:evenodd;clip-rule:evenodd;fill:#007836;}
	.st62{filter:url(#Adobe_OpacityMaskFilter_00000169538658124856040940000004936050021240452521_);}
	
		.st63{opacity:0.49;clip-path:url(#SVGID_00000141427950490568364480000011153956090580183973_);mask:url(#SVGID_00000049925930063948331390000001082569656926980004_);fill-rule:evenodd;clip-rule:evenodd;}
	
		.st64{clip-path:url(#SVGID_00000141427950490568364480000011153956090580183973_);fill-rule:evenodd;clip-rule:evenodd;fill:#95C940;}
	.st65{fill-rule:evenodd;clip-rule:evenodd;fill:#FFFFFF;}
	.st66{fill:#FFC759;}
	.st67{fill:#D1A342;}
	.st68{fill:none;}
	.st69{clip-path:url(#SVGID_00000016051690200466669200000001881851810708315782_);}
	.st70{clip-path:url(#SVGID_00000013188530963754635540000003415499321170994603_);}
	.st71{fill:#9E1D20;}
	.st72{fill:#86888A;}
	.st73{fill:url(#SVGID_00000174561542592105695600000016222060801102694053_);}
	.st74{fill:url(#SVGID_00000031916048822954276940000003406587278731739028_);}
	.st75{fill:url(#SVGID_00000111179480037877621690000014325561777772346282_);}
	.st76{fill:url(#SVGID_00000162338266828625129660000014453603950427965857_);}
	.st77{fill:#F89522;}
	.st78{fill:#C0BFBF;}
	.st79{clip-path:url(#SVGID_00000031173145193337167160000004907532284831592362_);}
	.st80{clip-path:url(#SVGID_00000082370725290127798970000012370966428290223518_);fill:#650F0E;}
	.st81{clip-path:url(#SVGID_00000082370725290127798970000012370966428290223518_);fill:#670E0D;}
	.st82{clip-path:url(#SVGID_00000082370725290127798970000012370966428290223518_);fill:#690C0D;}
	.st83{clip-path:url(#SVGID_00000082370725290127798970000012370966428290223518_);fill:#6C0D0F;}
	.st84{clip-path:url(#SVGID_00000082370725290127798970000012370966428290223518_);fill:#6F0F10;}
	.st85{clip-path:url(#SVGID_00000082370725290127798970000012370966428290223518_);fill:#700F10;}
	.st86{clip-path:url(#SVGID_00000082370725290127798970000012370966428290223518_);fill:#721011;}
	.st87{clip-path:url(#SVGID_00000082370725290127798970000012370966428290223518_);fill:#741012;}
	.st88{clip-path:url(#SVGID_00000082370725290127798970000012370966428290223518_);fill:#761113;}
	.st89{clip-path:url(#SVGID_00000082370725290127798970000012370966428290223518_);fill:#781214;}
	.st90{clip-path:url(#SVGID_00000082370725290127798970000012370966428290223518_);fill:#7A1214;}
	.st91{clip-path:url(#SVGID_00000082370725290127798970000012370966428290223518_);fill:#7B1315;}
	.st92{clip-path:url(#SVGID_00000082370725290127798970000012370966428290223518_);fill:#7D1416;}
	.st93{clip-path:url(#SVGID_00000082370725290127798970000012370966428290223518_);fill:#7F1416;}
	.st94{clip-path:url(#SVGID_00000082370725290127798970000012370966428290223518_);fill:#801517;}
	.st95{clip-path:url(#SVGID_00000082370725290127798970000012370966428290223518_);fill:#811517;}
	.st96{clip-path:url(#SVGID_00000082370725290127798970000012370966428290223518_);fill:#831618;}
	.st97{clip-path:url(#SVGID_00000082370725290127798970000012370966428290223518_);fill:#851619;}
	.st98{clip-path:url(#SVGID_00000082370725290127798970000012370966428290223518_);fill:#871719;}
	.st99{clip-path:url(#SVGID_00000082370725290127798970000012370966428290223518_);fill:#88171A;}
	.st100{clip-path:url(#SVGID_00000082370725290127798970000012370966428290223518_);fill:#89181A;}
	.st101{clip-path:url(#SVGID_00000082370725290127798970000012370966428290223518_);fill:#8B181B;}
	.st102{clip-path:url(#SVGID_00000082370725290127798970000012370966428290223518_);fill:#8D181B;}
	.st103{clip-path:url(#SVGID_00000082370725290127798970000012370966428290223518_);fill:#8F191C;}
	.st104{clip-path:url(#SVGID_00000082370725290127798970000012370966428290223518_);fill:#91191C;}
	.st105{clip-path:url(#SVGID_00000082370725290127798970000012370966428290223518_);fill:#921A1D;}
	.st106{clip-path:url(#SVGID_00000082370725290127798970000012370966428290223518_);fill:#941A1D;}
	.st107{clip-path:url(#SVGID_00000082370725290127798970000012370966428290223518_);fill:#951B1E;}
	.st108{clip-path:url(#SVGID_00000082370725290127798970000012370966428290223518_);fill:#971B1E;}
	.st109{clip-path:url(#SVGID_00000082370725290127798970000012370966428290223518_);fill:#981B1F;}
	.st110{clip-path:url(#SVGID_00000082370725290127798970000012370966428290223518_);fill:#9A1C1F;}
	.st111{clip-path:url(#SVGID_00000082370725290127798970000012370966428290223518_);fill:#9B1C1F;}
	.st112{clip-path:url(#SVGID_00000082370725290127798970000012370966428290223518_);fill:#9D1C20;}
	.st113{clip-path:url(#SVGID_00000082370725290127798970000012370966428290223518_);fill:#9E1D20;}
	.st114{clip-path:url(#SVGID_00000082370725290127798970000012370966428290223518_);fill:#A01D20;}
	.st115{clip-path:url(#SVGID_00000082370725290127798970000012370966428290223518_);fill:#A01D21;}
	.st116{clip-path:url(#SVGID_00000082370725290127798970000012370966428290223518_);fill:#A11D21;}
	.st117{clip-path:url(#SVGID_00000082370725290127798970000012370966428290223518_);fill:#A21E21;}
	.st118{clip-path:url(#SVGID_00000082370725290127798970000012370966428290223518_);fill:#A31E22;}
	.st119{clip-path:url(#SVGID_00000082370725290127798970000012370966428290223518_);fill:#A51E22;}
	.st120{clip-path:url(#SVGID_00000082370725290127798970000012370966428290223518_);fill:#A61E22;}
	.st121{clip-path:url(#SVGID_00000082370725290127798970000012370966428290223518_);fill:#A71E22;}
	.st122{clip-path:url(#SVGID_00000082370725290127798970000012370966428290223518_);fill:#A91E23;}
	.st123{clip-path:url(#SVGID_00000082370725290127798970000012370966428290223518_);fill:#AB1F23;}
	.st124{clip-path:url(#SVGID_00000082370725290127798970000012370966428290223518_);fill:#AC1F23;}
	.st125{clip-path:url(#SVGID_00000082370725290127798970000012370966428290223518_);fill:#AD1F23;}
	.st126{clip-path:url(#SVGID_00000082370725290127798970000012370966428290223518_);fill:#AE1F24;}
	.st127{clip-path:url(#SVGID_00000082370725290127798970000012370966428290223518_);fill:#AF1F24;}
	.st128{clip-path:url(#SVGID_00000082370725290127798970000012370966428290223518_);fill:#B22024;}
	.st129{clip-path:url(#SVGID_00000082370725290127798970000012370966428290223518_);fill:#B32025;}
	.st130{clip-path:url(#SVGID_00000082370725290127798970000012370966428290223518_);fill:#B42025;}
	.st131{clip-path:url(#SVGID_00000082370725290127798970000012370966428290223518_);fill:#B52025;}
	.st132{clip-path:url(#SVGID_00000082370725290127798970000012370966428290223518_);fill:#B72025;}
	.st133{clip-path:url(#SVGID_00000082370725290127798970000012370966428290223518_);fill:#B92025;}
	.st134{clip-path:url(#SVGID_00000082370725290127798970000012370966428290223518_);fill:#BC2026;}
	.st135{clip-path:url(#SVGID_00000082370725290127798970000012370966428290223518_);fill:#BE2126;}
	.st136{clip-path:url(#SVGID_00000082370725290127798970000012370966428290223518_);fill:#BF2126;}
	.st137{clip-path:url(#SVGID_00000082370725290127798970000012370966428290223518_);fill:#C02126;}
	.st138{clip-path:url(#SVGID_00000082370725290127798970000012370966428290223518_);fill:#C12126;}
	.st139{clip-path:url(#SVGID_00000082370725290127798970000012370966428290223518_);fill:#C22126;}
	.st140{clip-path:url(#SVGID_00000082370725290127798970000012370966428290223518_);fill:#C32126;}
	.st141{clip-path:url(#SVGID_00000082370725290127798970000012370966428290223518_);fill:#C42126;}
	.st142{clip-path:url(#SVGID_00000082370725290127798970000012370966428290223518_);fill:#C52126;}
	.st143{clip-path:url(#SVGID_00000082370725290127798970000012370966428290223518_);fill:#C62127;}
	.st144{clip-path:url(#SVGID_00000082370725290127798970000012370966428290223518_);fill:#C72127;}
	.st145{clip-path:url(#SVGID_00000082370725290127798970000012370966428290223518_);fill:#C82127;}
	.st146{clip-path:url(#SVGID_00000082370725290127798970000012370966428290223518_);fill:#C92127;}
	.st147{clip-path:url(#SVGID_00000082370725290127798970000012370966428290223518_);fill:#CA2127;}
	.st148{clip-path:url(#SVGID_00000082370725290127798970000012370966428290223518_);fill:#CA2027;}
	.st149{clip-path:url(#SVGID_00000082370725290127798970000012370966428290223518_);fill:#CC2027;}
	.st150{clip-path:url(#SVGID_00000082370725290127798970000012370966428290223518_);fill:#CD2027;}
	.st151{clip-path:url(#SVGID_00000082370725290127798970000012370966428290223518_);fill:#CE2127;}
	.st152{clip-path:url(#SVGID_00000082370725290127798970000012370966428290223518_);fill:#CF2127;}
	.st153{clip-path:url(#SVGID_00000082370725290127798970000012370966428290223518_);fill:#D02027;}
	.st154{clip-path:url(#SVGID_00000082370725290127798970000012370966428290223518_);fill:#D12027;}
	.st155{clip-path:url(#SVGID_00000082370725290127798970000012370966428290223518_);fill:#D22027;}
	.st156{clip-path:url(#SVGID_00000082370725290127798970000012370966428290223518_);fill:#D32027;}
	.st157{clip-path:url(#SVGID_00000082370725290127798970000012370966428290223518_);fill:#D42027;}
	.st158{clip-path:url(#SVGID_00000082370725290127798970000012370966428290223518_);fill:#D52027;}
	.st159{clip-path:url(#SVGID_00000082370725290127798970000012370966428290223518_);fill:#D62027;}
	.st160{clip-path:url(#SVGID_00000082370725290127798970000012370966428290223518_);fill:#D72027;}
	.st161{clip-path:url(#SVGID_00000082370725290127798970000012370966428290223518_);fill:#D71F27;}
	.st162{clip-path:url(#SVGID_00000087375442585971080900000015612023305267778745_);}
	.st163{clip-path:url(#SVGID_00000083050266610574186780000009844876183148057007_);fill:#650F0E;}
	.st164{clip-path:url(#SVGID_00000083050266610574186780000009844876183148057007_);fill:#670E0D;}
	.st165{clip-path:url(#SVGID_00000083050266610574186780000009844876183148057007_);fill:#690C0D;}
	.st166{clip-path:url(#SVGID_00000083050266610574186780000009844876183148057007_);fill:#6C0D0F;}
	.st167{clip-path:url(#SVGID_00000083050266610574186780000009844876183148057007_);fill:#6F0F10;}
	.st168{clip-path:url(#SVGID_00000083050266610574186780000009844876183148057007_);fill:#700F10;}
	.st169{clip-path:url(#SVGID_00000083050266610574186780000009844876183148057007_);fill:#721011;}
	.st170{clip-path:url(#SVGID_00000083050266610574186780000009844876183148057007_);fill:#741012;}
	.st171{clip-path:url(#SVGID_00000083050266610574186780000009844876183148057007_);fill:#761113;}
	.st172{clip-path:url(#SVGID_00000083050266610574186780000009844876183148057007_);fill:#781214;}
	.st173{clip-path:url(#SVGID_00000083050266610574186780000009844876183148057007_);fill:#7A1214;}
	.st174{clip-path:url(#SVGID_00000083050266610574186780000009844876183148057007_);fill:#7B1315;}
	.st175{clip-path:url(#SVGID_00000083050266610574186780000009844876183148057007_);fill:#7D1416;}
	.st176{clip-path:url(#SVGID_00000083050266610574186780000009844876183148057007_);fill:#7F1416;}
	.st177{clip-path:url(#SVGID_00000083050266610574186780000009844876183148057007_);fill:#801517;}
	.st178{clip-path:url(#SVGID_00000083050266610574186780000009844876183148057007_);fill:#811517;}
	.st179{clip-path:url(#SVGID_00000083050266610574186780000009844876183148057007_);fill:#831618;}
	.st180{clip-path:url(#SVGID_00000083050266610574186780000009844876183148057007_);fill:#851619;}
	.st181{clip-path:url(#SVGID_00000083050266610574186780000009844876183148057007_);fill:#871719;}
	.st182{clip-path:url(#SVGID_00000083050266610574186780000009844876183148057007_);fill:#88171A;}
	.st183{clip-path:url(#SVGID_00000083050266610574186780000009844876183148057007_);fill:#89181A;}
	.st184{clip-path:url(#SVGID_00000083050266610574186780000009844876183148057007_);fill:#8B181B;}
	.st185{clip-path:url(#SVGID_00000083050266610574186780000009844876183148057007_);fill:#8D181B;}
	.st186{clip-path:url(#SVGID_00000083050266610574186780000009844876183148057007_);fill:#8F191C;}
	.st187{clip-path:url(#SVGID_00000083050266610574186780000009844876183148057007_);fill:#91191C;}
	.st188{clip-path:url(#SVGID_00000083050266610574186780000009844876183148057007_);fill:#921A1D;}
	.st189{clip-path:url(#SVGID_00000083050266610574186780000009844876183148057007_);fill:#941A1D;}
	.st190{clip-path:url(#SVGID_00000083050266610574186780000009844876183148057007_);fill:#951B1E;}
	.st191{clip-path:url(#SVGID_00000083050266610574186780000009844876183148057007_);fill:#971B1E;}
	.st192{clip-path:url(#SVGID_00000083050266610574186780000009844876183148057007_);fill:#981B1F;}
	.st193{clip-path:url(#SVGID_00000083050266610574186780000009844876183148057007_);fill:#9A1C1F;}
	.st194{clip-path:url(#SVGID_00000083050266610574186780000009844876183148057007_);fill:#9B1C1F;}
	.st195{clip-path:url(#SVGID_00000083050266610574186780000009844876183148057007_);fill:#9D1C20;}
	.st196{clip-path:url(#SVGID_00000083050266610574186780000009844876183148057007_);fill:#9E1D20;}
	.st197{clip-path:url(#SVGID_00000083050266610574186780000009844876183148057007_);fill:#A01D20;}
	.st198{clip-path:url(#SVGID_00000083050266610574186780000009844876183148057007_);fill:#A01D21;}
	.st199{clip-path:url(#SVGID_00000083050266610574186780000009844876183148057007_);fill:#A11D21;}
	.st200{clip-path:url(#SVGID_00000083050266610574186780000009844876183148057007_);fill:#A21E21;}
	.st201{clip-path:url(#SVGID_00000083050266610574186780000009844876183148057007_);fill:#A31E22;}
	.st202{clip-path:url(#SVGID_00000083050266610574186780000009844876183148057007_);fill:#A51E22;}
	.st203{clip-path:url(#SVGID_00000083050266610574186780000009844876183148057007_);fill:#A61E22;}
	.st204{clip-path:url(#SVGID_00000083050266610574186780000009844876183148057007_);fill:#A71E22;}
	.st205{clip-path:url(#SVGID_00000083050266610574186780000009844876183148057007_);fill:#A91E23;}
	.st206{clip-path:url(#SVGID_00000083050266610574186780000009844876183148057007_);fill:#AB1F23;}
	.st207{clip-path:url(#SVGID_00000083050266610574186780000009844876183148057007_);fill:#AC1F23;}
	.st208{clip-path:url(#SVGID_00000083050266610574186780000009844876183148057007_);fill:#AD1F23;}
	.st209{clip-path:url(#SVGID_00000083050266610574186780000009844876183148057007_);fill:#AE1F24;}
	.st210{clip-path:url(#SVGID_00000083050266610574186780000009844876183148057007_);fill:#AF1F24;}
	.st211{clip-path:url(#SVGID_00000083050266610574186780000009844876183148057007_);fill:#B22024;}
	.st212{clip-path:url(#SVGID_00000083050266610574186780000009844876183148057007_);fill:#B32025;}
	.st213{clip-path:url(#SVGID_00000083050266610574186780000009844876183148057007_);fill:#B42025;}
	.st214{clip-path:url(#SVGID_00000083050266610574186780000009844876183148057007_);fill:#B52025;}
	.st215{clip-path:url(#SVGID_00000083050266610574186780000009844876183148057007_);fill:#B72025;}
	.st216{clip-path:url(#SVGID_00000083050266610574186780000009844876183148057007_);fill:#B92025;}
	.st217{clip-path:url(#SVGID_00000083050266610574186780000009844876183148057007_);fill:#BC2026;}
	.st218{clip-path:url(#SVGID_00000083050266610574186780000009844876183148057007_);fill:#BE2126;}
	.st219{clip-path:url(#SVGID_00000083050266610574186780000009844876183148057007_);fill:#BF2126;}
	.st220{clip-path:url(#SVGID_00000083050266610574186780000009844876183148057007_);fill:#C02126;}
	.st221{clip-path:url(#SVGID_00000083050266610574186780000009844876183148057007_);fill:#C12126;}
	.st222{clip-path:url(#SVGID_00000083050266610574186780000009844876183148057007_);fill:#C22126;}
	.st223{clip-path:url(#SVGID_00000083050266610574186780000009844876183148057007_);fill:#C32126;}
	.st224{clip-path:url(#SVGID_00000083050266610574186780000009844876183148057007_);fill:#C42126;}
	.st225{clip-path:url(#SVGID_00000083050266610574186780000009844876183148057007_);fill:#C52126;}
	.st226{clip-path:url(#SVGID_00000083050266610574186780000009844876183148057007_);fill:#C62127;}
	.st227{clip-path:url(#SVGID_00000083050266610574186780000009844876183148057007_);fill:#C72127;}
	.st228{clip-path:url(#SVGID_00000083050266610574186780000009844876183148057007_);fill:#C82127;}
	.st229{clip-path:url(#SVGID_00000083050266610574186780000009844876183148057007_);fill:#C92127;}
	.st230{clip-path:url(#SVGID_00000083050266610574186780000009844876183148057007_);fill:#CA2127;}
	.st231{clip-path:url(#SVGID_00000083050266610574186780000009844876183148057007_);fill:#CA2027;}
	.st232{clip-path:url(#SVGID_00000083050266610574186780000009844876183148057007_);fill:#CC2027;}
	.st233{clip-path:url(#SVGID_00000083050266610574186780000009844876183148057007_);fill:#CD2027;}
	.st234{clip-path:url(#SVGID_00000083050266610574186780000009844876183148057007_);fill:#CE2127;}
	.st235{clip-path:url(#SVGID_00000083050266610574186780000009844876183148057007_);fill:#CF2127;}
	.st236{clip-path:url(#SVGID_00000083050266610574186780000009844876183148057007_);fill:#D02027;}
	.st237{clip-path:url(#SVGID_00000083050266610574186780000009844876183148057007_);fill:#D12027;}
	.st238{clip-path:url(#SVGID_00000083050266610574186780000009844876183148057007_);fill:#D22027;}
	.st239{clip-path:url(#SVGID_00000083050266610574186780000009844876183148057007_);fill:#D32027;}
	.st240{clip-path:url(#SVGID_00000083050266610574186780000009844876183148057007_);fill:#D42027;}
	.st241{clip-path:url(#SVGID_00000083050266610574186780000009844876183148057007_);fill:#D52027;}
	.st242{clip-path:url(#SVGID_00000083050266610574186780000009844876183148057007_);fill:#D62027;}
	.st243{clip-path:url(#SVGID_00000083050266610574186780000009844876183148057007_);fill:#D72027;}
	.st244{clip-path:url(#SVGID_00000083050266610574186780000009844876183148057007_);fill:#D71F27;}
	.st245{fill:#C3996B;}
	.st246{fill:#F06724;}
	.st247{fill:#231F20;}
	.st248{fill:#AEB3B6;}
	.st249{fill:#EE3537;}
	.st250{fill:#9BA0A3;}
	.st251{fill:#AFB3B5;}
	.st252{fill:#F2EB44;}
	.st253{fill:#FFDD26;}
	.st254{clip-path:url(#XMLID_00000110445498442987003520000014354479782640887683_);}
	.st255{fill:#7E8386;}
	.st256{fill:#A4AAAC;}
	.st257{fill:#131718;}
	.st258{fill:#007843;}
	.st259{fill:#2AB34B;}
	.st260{fill:none;stroke:#FFFFFF;stroke-width:1.4841;stroke-miterlimit:10;}
	.st261{fill:#2E3192;}
	.st262{fill:#154458;}
	.st263{fill:#C72026;}
	.st264{fill:#5FBB46;}
	.st265{fill:#1A5F30;}
	.st266{fill:#293896;}
	.st267{filter:url(#Adobe_OpacityMaskFilter_00000079475289935530387240000008954722708231181721_);}
	.st268{filter:url(#Adobe_OpacityMaskFilter_00000155825176303902667580000002990625297967132035_);}
	
		.st269{mask:url(#SVGID_00000072247715312161581160000003228285175563695007_);fill:url(#SVGID_00000053511380826493491500000002167205886548814991_);}
	.st270{filter:url(#Adobe_OpacityMaskFilter_00000125581512681558991080000017339009829720864659_);}
	.st271{filter:url(#Adobe_OpacityMaskFilter_00000179608109948468928340000009417814300674675888_);}
	
		.st272{mask:url(#SVGID_00000082350941911288388730000017153921345216854913_);fill:url(#SVGID_00000072967281577677672010000012189011422992673673_);}
	.st273{filter:url(#Adobe_OpacityMaskFilter_00000119119245194646876130000008021063477669046946_);}
	.st274{filter:url(#Adobe_OpacityMaskFilter_00000096028684942587598770000014183474745737707146_);}
	
		.st275{mask:url(#SVGID_00000067237602039307774860000010092679061415902102_);fill:url(#SVGID_00000042733345420498815450000015030309115689861553_);}
	.st276{filter:url(#Adobe_OpacityMaskFilter_00000092442358938272667290000000463297378740719794_);}
	.st277{filter:url(#Adobe_OpacityMaskFilter_00000137113783516583394510000004357681707738504106_);}
	
		.st278{mask:url(#SVGID_00000036223204667460428120000008994809095973034921_);fill:url(#SVGID_00000136395435662841459650000009556124559078117015_);}
	.st279{filter:url(#Adobe_OpacityMaskFilter_00000153703671269512775040000004702935640869271961_);}
	.st280{filter:url(#Adobe_OpacityMaskFilter_00000072994840397720485740000016380340096747992224_);}
	
		.st281{mask:url(#SVGID_00000084513390634626960350000002555354414693264296_);fill:url(#SVGID_00000014618391866957386580000004441926385311216534_);}
	.st282{filter:url(#Adobe_OpacityMaskFilter_00000073698040333921536810000009825277987588110985_);}
	.st283{filter:url(#Adobe_OpacityMaskFilter_00000060729793274116163550000005668143214614805666_);}
	
		.st284{mask:url(#SVGID_00000080183913834377448040000017309222063226947769_);fill:url(#SVGID_00000167389947817884144890000003799281813968687293_);}
	.st285{filter:url(#Adobe_OpacityMaskFilter_00000157268200353566955660000012894787183156756352_);}
	.st286{filter:url(#Adobe_OpacityMaskFilter_00000137826816835406093340000008517023132142111382_);}
	
		.st287{mask:url(#SVGID_00000085932365880935207520000001327061069219564701_);fill:url(#SVGID_00000062893394765086464180000002263330712496540584_);}
	.st288{filter:url(#Adobe_OpacityMaskFilter_00000011732154692852239710000010010625494194693281_);}
	.st289{filter:url(#Adobe_OpacityMaskFilter_00000152237315209868736280000014704470070681799059_);}
	
		.st290{mask:url(#SVGID_00000128466564359020328070000004007434181863230086_);fill:url(#SVGID_00000103985192322611594400000013518523376245794433_);}
	.st291{filter:url(#Adobe_OpacityMaskFilter_00000015325246804612383270000017811585898496579223_);}
	.st292{filter:url(#Adobe_OpacityMaskFilter_00000038384945715657755390000010189467527951140007_);}
	
		.st293{mask:url(#SVGID_00000075142748282868989870000002744289416074444724_);fill:url(#SVGID_00000013897961555422364640000009925069202017896888_);}
	.st294{filter:url(#Adobe_OpacityMaskFilter_00000125596715878972426100000009034917550898417543_);}
	.st295{filter:url(#Adobe_OpacityMaskFilter_00000112625579635891947740000016943037430975207297_);}
	
		.st296{mask:url(#SVGID_00000063613294372298479710000016189451117516134813_);fill:url(#SVGID_00000132088966461704100490000015080484616439293106_);}
	.st297{clip-path:url(#SVGID_00000021078604723425573530000016076182520492919977_);fill:#FFF200;}
	
		.st298{clip-path:url(#SVGID_00000021078604723425573530000016076182520492919977_);fill:none;stroke:#FFFFFF;stroke-width:4.8568;stroke-linejoin:round;stroke-miterlimit:10;}
	.st299{clip-path:url(#SVGID_00000021078604723425573530000016076182520492919977_);fill:#ED1C24;}
	.st300{clip-path:url(#SVGID_00000021078604723425573530000016076182520492919977_);fill:#FFFFFF;}
	.st301{clip-path:url(#SVGID_00000021078604723425573530000016076182520492919977_);fill:#2E3192;}
	.st302{clip-path:url(#SVGID_00000021078604723425573530000016076182520492919977_);}
	.st303{clip-path:url(#SVGID_00000021078604723425573530000016076182520492919977_);fill:#F4817F;}
	.st304{clip-path:url(#SVGID_00000021078604723425573530000016076182520492919977_);fill:#56BF98;}
	.st305{clip-path:url(#SVGID_00000021078604723425573530000016076182520492919977_);fill:#570C08;}
	.st306{clip-path:url(#SVGID_00000021078604723425573530000016076182520492919977_);fill:#00A750;}
	
		.st307{fill:#FFFFFF;stroke:url(#SVGID_00000075842900251639317590000006456990863557006767_);stroke-width:7.11;stroke-miterlimit:10;}
	.st308{fill:#ED2224;}
	.st309{fill:#074E28;}
	.st310{fill:#EB2627;}
	.st311{fill:#D1D3D4;}
	.st312{fill:#5F1F16;}
	.st313{fill:#F1E7E6;}
	.st314{fill:#ED2024;}
	.st315{fill:url(#SVGID_00000044155508241591399200000016228140849169190810_);}
	.st316{fill:url(#SVGID_00000108286677746669476420000013179785188820395182_);}
	.st317{fill:#BB2025;}
	.st318{fill:url(#SVGID_00000077288806080134546080000017832013744443000980_);}
	.st319{fill:url(#SVGID_00000103978256728120191830000012872357960441936044_);}
	.st320{fill:none;stroke:#7F8080;stroke-width:0.8623;stroke-miterlimit:10;}
	.st321{fill:url(#SVGID_00000170277188815927864990000010197242881936818091_);}
	.st322{fill:url(#SVGID_00000093859182548025171080000007740861760264412072_);}
	.st323{fill:url(#SVGID_00000085213781510980894400000014167468401315511950_);}
	.st324{fill:url(#SVGID_00000086672750047719228330000010836357195072795307_);}
	.st325{fill:url(#SVGID_00000065042202377584422030000002589852193718323382_);}
	.st326{fill:url(#SVGID_00000151519476989306295130000007647985262267945364_);}
	.st327{fill:url(#SVGID_00000097469727342402379100000010353347464401428361_);}
	.st328{fill:url(#SVGID_00000094575844210844812710000014083179598259523510_);}
	.st329{fill:url(#SVGID_00000019661827505190328050000006500876077239041471_);}
	.st330{fill:url(#SVGID_00000152259444584270767350000008782944679607328420_);}
	.st331{fill:url(#SVGID_00000050641370369491881990000014221336415342110883_);}
	.st332{fill:url(#SVGID_00000178196971109459639450000010581354581370283408_);}
	.st333{fill:url(#SVGID_00000150802411051214554660000007340414808042854585_);}
	.st334{fill:url(#SVGID_00000078765640238695105230000003886279915354039994_);}
	.st335{fill:#E01E26;}
</style>
<g>
	<g>
		<path class="st17" d="M188.89,94.25c-0.6,0.19-1.23,0.28-1.88,0.28c-3.59,0-6.51-2.92-6.51-6.51c0-0.78,0.14-1.54,0.41-2.27
			l0.41-1.1h-32.43c-2.63-5.06-7.09-9.37-12.94-12.51c-6.12-3.28-13.33-5.02-20.84-5.02c-7.51,0-14.72,1.74-20.84,5.02
			c-5.85,3.14-10.31,7.46-12.94,12.51h-32.7l0.41,1.1c0.27,0.73,0.41,1.49,0.41,2.27c0,3.59-2.92,6.51-6.51,6.51
			c-0.56,0-1.11-0.07-1.64-0.21l-1.02-0.26v33.48h149.68V93.93L188.89,94.25z M188.31,125.91H41.89V96.09
			c0.34,0.05,0.69,0.07,1.03,0.07c4.49,0,8.14-3.65,8.14-8.14c0-0.59-0.06-1.17-0.19-1.74h31.45l0.22-0.45
			c5.04-10.22,18.12-17.08,32.55-17.08s27.51,6.87,32.55,17.08l0.22,0.45h31.18c-0.13,0.57-0.19,1.15-0.19,1.74
			c0,4.49,3.65,8.14,8.14,8.14c0.44,0,0.88-0.03,1.3-0.1V125.91z"/>
		<path class="st17" d="M186.52,97.94v26.18H43.68V97.92c5.11-0.39,9.15-4.66,9.18-9.86h30.59l0.72-1.45
			C88.9,77,101.34,70.53,115.1,70.53s26.2,6.46,30.94,16.08l0.72,1.45h30.31C177.1,93.36,181.28,97.68,186.52,97.94z"/>
	</g>
	<g>
		<g>
			<g>
				<polygon class="st18" points="169.1,140.69 200.44,145.24 197.27,136.64 208.91,130.18 177.57,125.64 				"/>
				<path class="st17" d="M169.1,140.69l7.83,0.06c2.36,0.02,4.46-0.77,5.11-1.93l0.3-0.53l-10.99-1.59L169.1,140.69z"/>
			</g>
			<g>
				<g>
					<path class="st2" d="M201.27,145.99l-32.9-4.77l8.81-15.66l32.9,4.77l-12.11,6.71L201.27,145.99z M169.9,140.79l29.79,4.32
						l-3.05-8.26l11.18-6.19l-29.79-4.32L169.9,140.79z"/>
				</g>
				<g>
					<path class="st2" d="M177.05,141.38c-0.03,0-0.06,0-0.09,0l-8.63-0.06l2.47-4.38l1.18,0.17l-2.02,3.6l7.02,0.05
						c0.02,0,0.05,0,0.07,0c2.05,0,3.87-0.69,4.44-1.7l0.3-0.53l1.19,0.17l-0.3,0.53C181.95,140.5,179.65,141.38,177.05,141.38z"/>
				</g>
			</g>
			<g>
				<polygon class="st18" points="61.3,140.79 30.07,145.55 33.02,136.93 21.21,130.55 52.43,125.79 				"/>
				<path class="st17" d="M61.3,140.79l-7.83,0.11c-2.36,0.03-4.48-0.74-5.16-1.89L48,138.48l10.94-1.67L61.3,140.79z"/>
			</g>
			<g>
				<path class="st2" d="M29.34,146.31l3.07-8.97l-12.29-6.63l32.77-5l9.22,15.6L29.34,146.31z M22.38,131.02l11.34,6.12l-2.83,8.28
					l29.68-4.52l-8.51-14.4L22.38,131.02z"/>
			</g>
			<path class="st18" d="M183.02,139.28c-43.58-7.19-90.53-7.19-134.11,0c-3.18-4.96-6.35-9.93-9.53-14.89
				c49.77-8.21,103.39-8.21,153.16,0C189.38,129.36,186.2,134.32,183.02,139.28z"/>
			<g>
				<path class="st2" d="M53.36,141.53c-2.57,0-4.86-0.86-5.6-2.12l-0.31-0.53l1.18-0.18l0.31,0.53c0.6,1.01,2.47,1.7,4.55,1.67
					l7.02-0.1l-2.12-3.58l1.18-0.18l2.58,4.37l-8.63,0.12C53.47,141.53,53.42,141.53,53.36,141.53z"/>
			</g>
			<g>
				<path class="st2" d="M182.59,139.4l-0.59-0.1c-21.63-3.57-44.12-5.38-66.86-5.38c-22.74,0-45.24,1.81-66.86,5.38l-0.59,0.1
					l-9.91-15.49l0.59-0.1c24.83-4.1,50.66-6.18,76.77-6.18s51.94,2.08,76.77,6.18l0.59,0.1L182.59,139.4z M115.14,133.3
					c22.66,0,45.09,1.79,66.66,5.31l9.15-14.3c-24.53-4.01-50.03-6.05-75.81-6.05c-25.77,0-51.28,2.04-75.81,6.05l9.15,14.3
					C70.05,135.09,92.48,133.3,115.14,133.3z"/>
			</g>
		</g>
	</g>
	<g>
		<path class="st19" d="M111.74,91.62c0,0-12.24,0.1-8.87-13.13c0,0,9.48,1.77,10.9,11.36l0.27,1.1l-6.62-5.88L111.74,91.62z"/>
	</g>
	<g>
		<path class="st19" d="M117.34,91.08c0,0,14.78-1.31,9.86-17.64c0,0-11.33,3.36-12.44,15.63l-0.26,1.42l6.47-7.08L117.34,91.08z"/>
	</g>
	<g>
		<path class="st17" d="M73.28,130.97c0.34-2.49,0.69-4.97,1.06-7.46c0.05-0.27,0.21-0.43,0.49-0.47c0.27-0.04,0.46,0.04,0.56,0.25
			c1.08,2.31,2.13,4.62,3.17,6.94c0.02,0.05,0.04,0.1,0.05,0.15c0.02,0.15-0.01,0.28-0.1,0.39c-0.09,0.12-0.2,0.18-0.33,0.2
			c-0.28,0.04-0.47-0.06-0.58-0.3c-0.21-0.45-0.41-0.9-0.62-1.36c-0.81,0.12-1.63,0.24-2.44,0.36c-0.08,0.53-0.15,1.06-0.23,1.59
			c0,0.07-0.05,0.14-0.13,0.21c-0.08,0.07-0.18,0.12-0.29,0.14c-0.16,0.02-0.29-0.01-0.41-0.09c-0.12-0.09-0.19-0.21-0.21-0.35
			C73.27,131.11,73.27,131.04,73.28,130.97z M75.19,125.46c-0.16,1.04-0.32,2.08-0.48,3.12c0.6-0.09,1.21-0.18,1.81-0.27
			C76.08,127.36,75.64,126.41,75.19,125.46z"/>
		<path class="st17" d="M85.44,130.07c-1.07,0.12-2.14,0.25-3.21,0.38c-0.15,0.02-0.28-0.02-0.4-0.11c-0.12-0.09-0.18-0.21-0.2-0.36
			c-0.02-0.14,0.02-0.27,0.11-0.39c0.09-0.12,0.21-0.18,0.36-0.2c0.35-0.04,0.71-0.09,1.06-0.13c-0.25-2.06-0.49-4.11-0.74-6.17
			c-0.37,0.04-0.73,0.09-1.1,0.13c-0.15,0.02-0.29-0.02-0.4-0.1c-0.12-0.09-0.19-0.21-0.21-0.35c-0.02-0.14,0.02-0.27,0.11-0.39
			c0.09-0.12,0.22-0.18,0.37-0.2c0.56-0.07,1.11-0.14,1.67-0.2c0.15-0.02,0.28,0.02,0.4,0.11c0.12,0.09,0.19,0.21,0.21,0.35
			c0.26,2.23,0.52,4.47,0.78,6.7c0.36-0.04,0.72-0.08,1.08-0.12c0.14-0.02,0.27,0.02,0.39,0.11c0.12,0.09,0.18,0.21,0.2,0.35
			c0.02,0.15-0.02,0.28-0.11,0.39C85.7,129.99,85.58,130.06,85.44,130.07z"/>
		<path class="st17" d="M91.86,125.7c0.04,0.42,0.07,0.83,0.11,1.25c0.27,0.38,0.55,0.77,0.82,1.15c0.09-0.41,0.18-0.82,0.27-1.23
			c-0.05-1.02-0.09-2.05-0.14-3.07c0-0.14,0.04-0.27,0.14-0.38c0.1-0.11,0.22-0.17,0.36-0.19c0.15-0.01,0.28,0.03,0.4,0.12
			c0.12,0.09,0.18,0.21,0.18,0.36c0.05,1.09,0.09,2.19,0.14,3.28c-0.14,0.63-0.29,1.27-0.43,1.9c-0.06,0.26-0.22,0.4-0.46,0.42
			c-0.19,0.02-0.38,0.03-0.57,0.05c-0.2,0.02-0.36-0.07-0.49-0.25c-0.22-0.31-0.44-0.63-0.67-0.94c-0.17,0.34-0.33,0.69-0.49,1.03
			c-0.11,0.22-0.26,0.33-0.44,0.35c-0.19,0.02-0.37,0.03-0.56,0.05c-0.12,0.01-0.24-0.01-0.34-0.07c-0.11-0.06-0.18-0.14-0.21-0.23
			c-0.25-0.62-0.5-1.25-0.75-1.87c-0.15-1.07-0.29-2.14-0.44-3.21c-0.02-0.14,0.02-0.26,0.13-0.38c0.1-0.12,0.23-0.18,0.38-0.2
			c0.14-0.01,0.26,0.02,0.38,0.11c0.12,0.09,0.18,0.21,0.2,0.36c0.14,1.02,0.28,2.04,0.41,3.06c0.15,0.38,0.31,0.76,0.46,1.14
			c0.21-0.43,0.42-0.87,0.63-1.3c-0.04-0.4-0.07-0.81-0.11-1.21c-0.01-0.14,0.03-0.27,0.13-0.38c0.1-0.11,0.22-0.17,0.38-0.19
			c0.15-0.01,0.28,0.03,0.39,0.12C91.78,125.44,91.84,125.56,91.86,125.7z"/>
		<path class="st17" d="M98.15,125.15c0.71-0.04,1.41-0.09,2.12-0.12c0.12-0.01,0.28,0.01,0.51,0.05c-0.02-0.25-0.03-0.5-0.05-0.74
			c-0.01-0.15-0.07-0.27-0.18-0.36c-0.11-0.1-0.24-0.14-0.39-0.13c-0.69,0.04-1.38,0.08-2.06,0.12c-0.15,0.01-0.28-0.03-0.39-0.13
			c-0.11-0.1-0.18-0.22-0.19-0.36c-0.01-0.15,0.04-0.27,0.13-0.38c0.1-0.11,0.22-0.17,0.38-0.18c0.69-0.04,1.38-0.08,2.07-0.12
			c0.45-0.02,0.84,0.11,1.18,0.4c0.33,0.29,0.52,0.65,0.55,1.1c0.11,1.31,0.22,2.62,0.33,3.93c0.01,0.15-0.04,0.27-0.14,0.38
			c-0.1,0.11-0.22,0.16-0.37,0.17c-0.15,0.01-0.28-0.04-0.4-0.13c-0.11-0.1-0.17-0.22-0.18-0.36c-0.29,0.19-0.58,0.38-0.87,0.58
			c-0.6,0.03-1.2,0.07-1.8,0.11c-0.45,0.03-0.84-0.1-1.17-0.39c-0.33-0.29-0.52-0.65-0.55-1.09c-0.01-0.2-0.03-0.41-0.04-0.61
			c-0.03-0.44,0.1-0.82,0.4-1.16C97.32,125.36,97.7,125.18,98.15,125.15z M100.96,127.04c-0.02-0.15-0.04-0.3-0.06-0.44
			c-0.01-0.15-0.07-0.27-0.18-0.37c-0.11-0.09-0.24-0.14-0.39-0.13c-0.71,0.04-1.41,0.08-2.12,0.13c-0.15,0.01-0.27,0.07-0.37,0.18
			c-0.1,0.11-0.14,0.24-0.13,0.38c0.01,0.2,0.03,0.39,0.04,0.59c0.01,0.14,0.07,0.26,0.18,0.36c0.11,0.1,0.24,0.14,0.39,0.13
			c0.5-0.03,1.01-0.06,1.51-0.09C100.2,127.53,100.58,127.28,100.96,127.04z"/>
		<path class="st17" d="M109.93,123.95c-0.93,2.16-1.84,4.32-2.73,6.49c-0.09,0.23-0.25,0.35-0.49,0.36
			c-0.49,0.02-0.98,0.03-1.47,0.05c-0.15,0.01-0.27-0.04-0.38-0.14c-0.11-0.1-0.16-0.22-0.17-0.37c-0.01-0.15,0.04-0.27,0.14-0.38
			c0.1-0.1,0.22-0.16,0.37-0.16c0.38-0.01,0.76-0.03,1.14-0.04c0.22-0.57,0.45-1.13,0.68-1.7c-0.09,0-0.17,0.01-0.26,0.01
			c-0.24,0.01-0.42-0.11-0.53-0.35c-0.57-1.21-1.16-2.41-1.75-3.62c-0.01-0.34-0.03-0.68-0.04-1.02c-0.01-0.15,0.04-0.27,0.14-0.38
			c0.1-0.11,0.22-0.16,0.37-0.17c0.15-0.01,0.28,0.04,0.4,0.14c0.11,0.1,0.17,0.22,0.18,0.37c0.01,0.26,0.02,0.52,0.03,0.78
			c0.51,1.05,1.02,2.11,1.52,3.16c0.12,0,0.25-0.01,0.37-0.01c0.45-1.08,0.92-2.16,1.38-3.24c-0.01-0.27-0.01-0.54-0.02-0.81
			c0-0.14,0.05-0.26,0.16-0.37c0.11-0.11,0.24-0.17,0.39-0.17c0.15,0,0.28,0.05,0.39,0.15c0.11,0.1,0.17,0.22,0.17,0.37
			C109.92,123.27,109.93,123.61,109.93,123.95z"/>
		<path class="st17" d="M113.95,122.36c0.83,0,1.67,0,2.5,0c0.39,0,0.73,0.12,1.03,0.34c0.3,0.23,0.44,0.45,0.44,0.66
			c0,0.15-0.06,0.27-0.17,0.37c-0.11,0.1-0.23,0.14-0.37,0.14c-0.17,0-0.33-0.08-0.47-0.23c-0.14-0.15-0.29-0.23-0.44-0.23
			c-0.82,0-1.64,0-2.46,0c-0.24,0-0.36,0.1-0.36,0.29c0,0.14,0.08,0.24,0.24,0.31c0.96,0.41,1.92,0.83,2.87,1.25
			c0.29,0.13,0.53,0.33,0.71,0.61c0.18,0.28,0.27,0.59,0.27,0.93c0,0.45-0.17,0.83-0.5,1.14c-0.33,0.31-0.69,0.47-1.1,0.46
			c-0.72,0-1.44,0-2.16,0c-0.37,0-0.72-0.11-1.04-0.33c-0.32-0.22-0.48-0.43-0.49-0.64c0-0.14,0.05-0.26,0.15-0.37
			c0.1-0.11,0.24-0.16,0.4-0.16c0.14,0,0.28,0.07,0.44,0.22c0.16,0.15,0.38,0.22,0.67,0.22c0.66,0,1.33,0,1.99,0
			c0.16,0,0.29-0.06,0.4-0.18c0.11-0.12,0.16-0.26,0.16-0.41c0-0.24-0.12-0.41-0.36-0.52c-0.96-0.43-1.92-0.85-2.89-1.27
			c-0.28-0.12-0.5-0.29-0.65-0.52c-0.15-0.23-0.23-0.46-0.23-0.7c0-0.38,0.13-0.7,0.4-0.98
			C113.22,122.5,113.55,122.36,113.95,122.36z"/>
		<path class="st17" d="M133.72,126.47c-0.01,0.15-0.02,0.31-0.03,0.46c-0.04,0.58-0.28,1.06-0.73,1.45
			c-0.44,0.39-0.96,0.56-1.55,0.53c-1.09-0.07-2.17-0.13-3.26-0.18c0.14-2.78,0.27-5.55,0.41-8.33c1.12,0.05,2.24,0.12,3.36,0.18
			c0.61,0.04,1.11,0.28,1.51,0.72c0.4,0.44,0.58,0.96,0.54,1.54c-0.01,0.15-0.02,0.3-0.03,0.44c-0.04,0.62-0.33,1.13-0.85,1.54
			C133.56,125.31,133.77,125.85,133.72,126.47z M132.83,123.2c0.01-0.14,0.02-0.29,0.03-0.43c0.02-0.29-0.07-0.55-0.27-0.77
			c-0.2-0.22-0.45-0.34-0.75-0.36c-0.74-0.05-1.48-0.09-2.23-0.13c-0.04,0.85-0.09,1.7-0.13,2.55c0.74,0.04,1.47,0.08,2.21,0.13
			c0.29,0.02,0.55-0.07,0.78-0.26C132.69,123.73,132.81,123.49,132.83,123.2z M132.59,126.86c0.01-0.15,0.02-0.29,0.03-0.44
			c0.02-0.29-0.07-0.55-0.27-0.77c-0.2-0.22-0.45-0.34-0.74-0.36c-0.73-0.04-1.46-0.09-2.18-0.12c-0.04,0.85-0.09,1.7-0.13,2.56
			c0.72,0.04,1.44,0.08,2.16,0.12c0.29,0.02,0.54-0.07,0.77-0.26C132.45,127.39,132.58,127.15,132.59,126.86z"/>
		<path class="st17" d="M141.78,125.65c-0.04,0.42-0.08,0.85-0.12,1.27c-0.01,0.14-0.08,0.26-0.2,0.35
			c-0.12,0.09-0.25,0.13-0.39,0.12c-1.26-0.12-2.53-0.23-3.79-0.34c-0.01,0.1-0.02,0.2-0.03,0.31c-0.01,0.18,0.05,0.34,0.2,0.48
			c0.1,0.09,0.19,0.19,0.29,0.28c0.16,0.14,0.31,0.22,0.47,0.24c0.91,0.08,1.83,0.16,2.74,0.25c0.14,0.01,0.26,0.08,0.36,0.19
			c0.1,0.11,0.14,0.24,0.12,0.39c-0.01,0.14-0.08,0.26-0.2,0.35c-0.12,0.09-0.25,0.13-0.39,0.12c-0.93-0.09-1.87-0.18-2.8-0.26
			c-0.19-0.02-0.38-0.07-0.58-0.17c-0.2-0.09-0.34-0.19-0.43-0.28c-0.15-0.15-0.29-0.3-0.44-0.45c-0.14-0.13-0.25-0.3-0.33-0.52
			c-0.08-0.22-0.12-0.41-0.1-0.59c0.06-0.8,0.13-1.61,0.19-2.41c0.01-0.14,0.08-0.32,0.21-0.54c0.13-0.22,0.28-0.4,0.46-0.51
			c0.16-0.1,0.32-0.2,0.48-0.31c0.32-0.21,0.66-0.3,1.02-0.27c0.51,0.04,1.02,0.09,1.53,0.14c0.38,0.04,0.73,0.22,1.04,0.56
			c0.12,0.14,0.25,0.28,0.37,0.41C141.72,124.75,141.82,125.15,141.78,125.65z M137.44,125.18c-0.02,0.27-0.04,0.54-0.07,0.81
			c1.09,0.09,2.18,0.19,3.27,0.29c0.02-0.24,0.05-0.49,0.07-0.73c0.02-0.2-0.03-0.35-0.14-0.47c-0.1-0.1-0.19-0.2-0.29-0.3
			c-0.15-0.14-0.29-0.22-0.42-0.23c-0.45-0.04-0.91-0.08-1.36-0.12c-0.17-0.01-0.32,0.03-0.47,0.13c-0.11,0.08-0.22,0.15-0.34,0.23
			C137.54,124.88,137.45,125.01,137.44,125.18z"/>
		<path class="st17" d="M146.02,124.11c0.83,0.09,1.66,0.19,2.49,0.29c0.39,0.05,0.72,0.2,0.98,0.46c0.27,0.26,0.39,0.49,0.36,0.71
			c-0.02,0.15-0.09,0.26-0.21,0.35c-0.12,0.08-0.25,0.11-0.38,0.1c-0.17-0.02-0.32-0.12-0.44-0.28c-0.12-0.17-0.26-0.26-0.42-0.28
			c-0.81-0.1-1.63-0.2-2.44-0.29c-0.24-0.03-0.37,0.06-0.39,0.25c-0.02,0.14,0.05,0.25,0.21,0.34c0.91,0.52,1.81,1.05,2.71,1.58
			c0.27,0.16,0.49,0.39,0.64,0.69c0.15,0.3,0.2,0.62,0.16,0.95c-0.06,0.45-0.27,0.81-0.63,1.08c-0.36,0.27-0.75,0.38-1.15,0.33
			c-0.72-0.09-1.43-0.17-2.15-0.25c-0.37-0.04-0.7-0.19-1-0.45c-0.29-0.25-0.43-0.49-0.41-0.69c0.01-0.14,0.08-0.25,0.19-0.35
			c0.12-0.09,0.26-0.13,0.42-0.11c0.14,0.01,0.27,0.11,0.41,0.27c0.14,0.17,0.35,0.27,0.64,0.3c0.66,0.08,1.32,0.15,1.98,0.23
			c0.16,0.02,0.29-0.02,0.41-0.13c0.12-0.11,0.19-0.23,0.21-0.39c0.03-0.24-0.07-0.42-0.29-0.55c-0.9-0.54-1.81-1.07-2.73-1.6
			c-0.26-0.15-0.46-0.35-0.58-0.59c-0.12-0.24-0.17-0.49-0.15-0.72c0.04-0.37,0.21-0.68,0.51-0.93
			C145.27,124.16,145.62,124.06,146.02,124.11z"/>
		<path class="st17" d="M155.37,131.46c-0.35-0.05-0.71-0.11-1.06-0.16c-0.44-0.06-0.79-0.27-1.06-0.62
			c-0.27-0.35-0.38-0.74-0.32-1.17c0.16-1.13,0.32-2.26,0.48-3.39c-0.18-0.03-0.37-0.05-0.55-0.08c-0.15-0.02-0.27-0.09-0.36-0.2
			c-0.09-0.11-0.13-0.25-0.11-0.39c0.02-0.15,0.09-0.26,0.21-0.35c0.12-0.09,0.25-0.12,0.4-0.1c0.19,0.03,0.38,0.05,0.57,0.08
			c0.06-0.43,0.12-0.85,0.18-1.28c0.02-0.15,0.09-0.26,0.21-0.35c0.12-0.09,0.26-0.12,0.41-0.1c0.14,0.02,0.26,0.09,0.36,0.21
			c0.1,0.12,0.13,0.25,0.11,0.39c-0.06,0.43-0.12,0.85-0.19,1.28c0.73,0.11,1.45,0.21,2.18,0.33c0.15,0.02,0.26,0.09,0.36,0.21
			c0.09,0.12,0.13,0.25,0.1,0.39c-0.02,0.14-0.1,0.26-0.22,0.34c-0.12,0.08-0.26,0.12-0.4,0.09c-0.73-0.11-1.45-0.22-2.18-0.33
			c-0.16,1.13-0.33,2.26-0.49,3.38c-0.02,0.14,0.02,0.27,0.11,0.39c0.09,0.12,0.21,0.19,0.36,0.21c0.35,0.05,0.69,0.1,1.04,0.16
			c0.28,0.04,0.49-0.08,0.63-0.36c0.14-0.29,0.34-0.41,0.61-0.37c0.16,0.02,0.28,0.1,0.36,0.21c0.08,0.12,0.11,0.25,0.09,0.4
			c-0.05,0.31-0.25,0.6-0.6,0.87C156.24,131.43,155.83,131.53,155.37,131.46z"/>
	</g>
	<g>
		<path class="st2" d="M77.44,111.41L71.2,92.73H65l-7.33,21.42h4.7l1.43-4.41h7.39l1.41,4.41h99.92v-2.73H77.44z M65.09,105.79
			l2.45-7.52l2.4,7.52H65.09z"/>
		<path class="st2" d="M93.79,92.73v17.34h-3.7l-7.24-11.71c0.01,0.3,0.02,0.49,0.03,0.58c0.04,0.3,0.05,0.55,0.05,0.75v10.38h-3.38
			V92.73h4.67l6.3,10.22c-0.05-0.51-0.08-0.89-0.08-1.16v-9.07H93.79z"/>
		<path class="st2" d="M110.87,92.73l-5.82,10.03v7.3h-4.33v-7.3L94.9,92.73h5.03l3.53,6.56l3.51-6.56H110.87z"/>
		<path class="st2" d="M125.02,92.73v3.43h-4.58v13.91h-4.39V96.16h-4.61v-3.43H125.02z"/>
		<path class="st2" d="M131.21,92.73v17.34h-4.33V92.73H131.21z"/>
		<path class="st2" d="M143.12,110.07l-4.57-14.14v14.14h-3.63V92.73h6.75l3.25,10.38l3.42-10.38h6.77v17.34h-4.37V95.93
			l-4.66,14.14H143.12z"/>
		<path class="st2" d="M172.02,96.03h-8.81v3.56h6.93v3.26h-6.93v3.79h8.81v3.43H158.8V92.73h13.22V96.03z"/>
	</g>
</g>
</svg>
