<?xml version="1.0" encoding="utf-8"?>
<!-- Generator: Adobe Illustrator 27.0.0, SVG Export Plug-In . SVG Version: 6.00 Build 0)  -->
<svg version="1.1" id="Layer_1" xmlns="http://www.w3.org/2000/svg" xmlns:xlink="http://www.w3.org/1999/xlink" x="0px" y="0px"
	 viewBox="0 0 226.77 226.77" style="enable-background:new 0 0 226.77 226.77;" xml:space="preserve">
<style type="text/css">
	.st0{fill:#FFF200;}
	.st1{stroke:#000000;stroke-width:5.2476;stroke-miterlimit:10;}
	.st2{fill:#FFFFFF;}
	.st3{fill:#ED1C24;}
	.st4{fill:#50B848;}
	.st5{fill:#007F3E;}
	.st6{fill:#F58220;}
	.st7{fill:#F37021;}
	.st8{fill:#1282C5;}
	.st9{fill:#F7941D;}
	.st10{fill:#FFFFFF;stroke:#FFFFFF;stroke-width:2.321;stroke-linecap:round;stroke-linejoin:round;}
	.st11{fill:#00854A;}
	.st12{fill:#34B34A;}
	.st13{fill:#13421E;}
	.st14{fill:#8CC540;stroke:#FFFFFF;stroke-width:1.2029;stroke-miterlimit:10;}
	.st15{fill:#065643;stroke:#FFFFFF;stroke-width:1.2029;stroke-miterlimit:10;}
	.st16{fill:#FFCB05;}
	.st17{fill:#224D71;}
	.st18{fill:#F8BC1B;}
	.st19{fill:#4CB748;}
	.st20{fill:url(#SVGID_00000118393571770542235090000013442441915166111660_);}
	.st21{fill:none;stroke:#FFFFFF;stroke-width:0.8396;stroke-miterlimit:10;}
	
		.st22{fill:url(#SVGID_00000078011533121351070920000008404406350374123654_);stroke:url(#SVGID_00000145024092616488816830000017709383962422667660_);stroke-width:0.6997;stroke-miterlimit:10;}
	
		.st23{fill:url(#SVGID_00000038386722994709691360000012440294975818853550_);stroke:url(#SVGID_00000132784792977715580970000001945354652696732050_);stroke-width:0.6997;stroke-miterlimit:10;}
	
		.st24{fill:url(#SVGID_00000155128748390837808920000010415319295646617999_);stroke:url(#SVGID_00000098188330542661589900000013066069108196692398_);stroke-width:0.6997;stroke-miterlimit:10;}
	
		.st25{fill:url(#SVGID_00000128471293215338523830000013218397823896380567_);stroke:url(#SVGID_00000094611541504286769100000017921996328665197988_);stroke-width:0.6997;stroke-miterlimit:10;}
	
		.st26{fill:url(#SVGID_00000117678323836104582540000002655425891861658023_);stroke:url(#SVGID_00000078744987897075325770000000639902964513320872_);stroke-width:0.6997;stroke-miterlimit:10;}
	.st27{fill:url(#SVGID_00000002384759929453393570000008603828636850505888_);}
	.st28{fill:url(#SVGID_00000143619649800063306990000010918669660973762216_);}
	.st29{fill:#005826;}
	.st30{fill:#BFD730;}
	.st31{fill:#00A651;stroke:#000000;stroke-width:2.8889;stroke-linecap:round;stroke-linejoin:round;stroke-miterlimit:10;}
	.st32{fill:#FFF200;stroke:#000000;stroke-width:2.8889;stroke-linecap:round;stroke-linejoin:round;stroke-miterlimit:10;}
	.st33{fill:#8DC63F;stroke:#000000;stroke-width:2.8889;stroke-linecap:round;stroke-linejoin:round;stroke-miterlimit:10;}
	.st34{fill:#0DB14B;stroke:#000000;stroke-width:2.8889;stroke-linecap:round;stroke-linejoin:round;stroke-miterlimit:10;}
	.st35{fill:#FFFFFF;stroke:#000000;stroke-width:2.8889;stroke-linecap:round;stroke-linejoin:round;stroke-miterlimit:10;}
	.st36{fill:#00A651;}
	.st37{fill:#8DC63F;}
	.st38{fill:#0DB14B;}
	.st39{fill:#034EA2;}
	.st40{fill:#00763F;}
	.st41{fill:url(#SVGID_00000038406328922738559460000005211966384193998259_);}
	.st42{fill:url(#SVGID_00000109746581507873428500000005508061233562277522_);}
	.st43{fill:url(#SVGID_00000058591582777349433310000001585112362256876959_);}
	.st44{fill:url(#SVGID_00000181779818623116834570000000357573906653672860_);}
	.st45{fill:url(#SVGID_00000137822456377774691720000017375180888459963544_);}
	.st46{fill:url(#SVGID_00000137129095258203176390000012878137395668483224_);}
	.st47{fill:url(#SVGID_00000180334543183554962950000013337293455242304685_);}
	.st48{fill:url(#SVGID_00000062167246512663267040000005189349795648287131_);}
	.st49{fill:url(#SVGID_00000021102776103159618060000000375768175539938230_);}
	.st50{fill:url(#SVGID_00000025443667574678834780000002995609891440553399_);}
	.st51{fill:#FFFFFF;stroke:#FFFFFF;stroke-width:4.8073;stroke-linecap:round;stroke-linejoin:round;stroke-miterlimit:10;}
	.st52{fill:url(#SVGID_00000020373595987640442470000009314912477081644721_);}
	.st53{fill:#00A651;stroke:#00A651;stroke-width:4.2345;stroke-linecap:round;stroke-linejoin:round;stroke-miterlimit:10;}
	.st54{fill:#939598;stroke:#939598;stroke-width:4.2345;stroke-linecap:round;stroke-linejoin:round;stroke-miterlimit:10;}
	.st55{fill:#CE181E;stroke:#CE181E;stroke-width:9.3609;stroke-miterlimit:10;}
	
		.st56{fill:none;stroke:url(#SVGID_00000021114345764942514000000018192626569531530642_);stroke-width:3.3359;stroke-miterlimit:10;}
	.st57{fill-rule:evenodd;clip-rule:evenodd;fill:#21A347;}
	.st58{filter:url(#Adobe_OpacityMaskFilter);}
	
		.st59{clip-path:url(#SVGID_00000074403450720947196570000005267929155389987499_);fill-rule:evenodd;clip-rule:evenodd;fill:url(#);}
	
		.st60{opacity:0.49;clip-path:url(#SVGID_00000074403450720947196570000005267929155389987499_);mask:url(#SVGID_00000091716041660679001950000010094450189642616193_);fill-rule:evenodd;clip-rule:evenodd;}
	
		.st61{clip-path:url(#SVGID_00000074403450720947196570000005267929155389987499_);fill-rule:evenodd;clip-rule:evenodd;fill:#007836;}
	.st62{filter:url(#Adobe_OpacityMaskFilter_00000179642915916045351910000014688470674604058773_);}
	
		.st63{opacity:0.49;clip-path:url(#SVGID_00000074403450720947196570000005267929155389987499_);mask:url(#SVGID_00000010995212582603522910000000219954222524533901_);fill-rule:evenodd;clip-rule:evenodd;}
	
		.st64{clip-path:url(#SVGID_00000074403450720947196570000005267929155389987499_);fill-rule:evenodd;clip-rule:evenodd;fill:#95C940;}
	.st65{fill-rule:evenodd;clip-rule:evenodd;fill:#FFFFFF;}
	.st66{fill:#FFC759;}
	.st67{fill:#D1A342;}
	.st68{fill:none;}
	.st69{clip-path:url(#SVGID_00000158718115293287873410000018395373809107872154_);}
	.st70{clip-path:url(#SVGID_00000036234655197371710170000009063901132920599189_);}
	.st71{fill:#9E1D20;}
	.st72{fill:#86888A;}
	.st73{fill:url(#SVGID_00000173119174507543153850000009704466543774776718_);}
	.st74{fill:url(#SVGID_00000163033314994876203340000003187937225370072724_);}
	.st75{fill:url(#SVGID_00000023972406028964495110000008344465502287525283_);}
	.st76{fill:url(#SVGID_00000044898999065936294570000008285841145654879154_);}
	.st77{fill:#F89522;}
	.st78{fill:#C0BFBF;}
	.st79{clip-path:url(#SVGID_00000108281026002535647960000013850522397434307714_);}
	.st80{clip-path:url(#SVGID_00000091709198124034881000000002117535347458605705_);fill:#650F0E;}
	.st81{clip-path:url(#SVGID_00000091709198124034881000000002117535347458605705_);fill:#670E0D;}
	.st82{clip-path:url(#SVGID_00000091709198124034881000000002117535347458605705_);fill:#690C0D;}
	.st83{clip-path:url(#SVGID_00000091709198124034881000000002117535347458605705_);fill:#6C0D0F;}
	.st84{clip-path:url(#SVGID_00000091709198124034881000000002117535347458605705_);fill:#6F0F10;}
	.st85{clip-path:url(#SVGID_00000091709198124034881000000002117535347458605705_);fill:#700F10;}
	.st86{clip-path:url(#SVGID_00000091709198124034881000000002117535347458605705_);fill:#721011;}
	.st87{clip-path:url(#SVGID_00000091709198124034881000000002117535347458605705_);fill:#741012;}
	.st88{clip-path:url(#SVGID_00000091709198124034881000000002117535347458605705_);fill:#761113;}
	.st89{clip-path:url(#SVGID_00000091709198124034881000000002117535347458605705_);fill:#781214;}
	.st90{clip-path:url(#SVGID_00000091709198124034881000000002117535347458605705_);fill:#7A1214;}
	.st91{clip-path:url(#SVGID_00000091709198124034881000000002117535347458605705_);fill:#7B1315;}
	.st92{clip-path:url(#SVGID_00000091709198124034881000000002117535347458605705_);fill:#7D1416;}
	.st93{clip-path:url(#SVGID_00000091709198124034881000000002117535347458605705_);fill:#7F1416;}
	.st94{clip-path:url(#SVGID_00000091709198124034881000000002117535347458605705_);fill:#801517;}
	.st95{clip-path:url(#SVGID_00000091709198124034881000000002117535347458605705_);fill:#811517;}
	.st96{clip-path:url(#SVGID_00000091709198124034881000000002117535347458605705_);fill:#831618;}
	.st97{clip-path:url(#SVGID_00000091709198124034881000000002117535347458605705_);fill:#851619;}
	.st98{clip-path:url(#SVGID_00000091709198124034881000000002117535347458605705_);fill:#871719;}
	.st99{clip-path:url(#SVGID_00000091709198124034881000000002117535347458605705_);fill:#88171A;}
	.st100{clip-path:url(#SVGID_00000091709198124034881000000002117535347458605705_);fill:#89181A;}
	.st101{clip-path:url(#SVGID_00000091709198124034881000000002117535347458605705_);fill:#8B181B;}
	.st102{clip-path:url(#SVGID_00000091709198124034881000000002117535347458605705_);fill:#8D181B;}
	.st103{clip-path:url(#SVGID_00000091709198124034881000000002117535347458605705_);fill:#8F191C;}
	.st104{clip-path:url(#SVGID_00000091709198124034881000000002117535347458605705_);fill:#91191C;}
	.st105{clip-path:url(#SVGID_00000091709198124034881000000002117535347458605705_);fill:#921A1D;}
	.st106{clip-path:url(#SVGID_00000091709198124034881000000002117535347458605705_);fill:#941A1D;}
	.st107{clip-path:url(#SVGID_00000091709198124034881000000002117535347458605705_);fill:#951B1E;}
	.st108{clip-path:url(#SVGID_00000091709198124034881000000002117535347458605705_);fill:#971B1E;}
	.st109{clip-path:url(#SVGID_00000091709198124034881000000002117535347458605705_);fill:#981B1F;}
	.st110{clip-path:url(#SVGID_00000091709198124034881000000002117535347458605705_);fill:#9A1C1F;}
	.st111{clip-path:url(#SVGID_00000091709198124034881000000002117535347458605705_);fill:#9B1C1F;}
	.st112{clip-path:url(#SVGID_00000091709198124034881000000002117535347458605705_);fill:#9D1C20;}
	.st113{clip-path:url(#SVGID_00000091709198124034881000000002117535347458605705_);fill:#9E1D20;}
	.st114{clip-path:url(#SVGID_00000091709198124034881000000002117535347458605705_);fill:#A01D20;}
	.st115{clip-path:url(#SVGID_00000091709198124034881000000002117535347458605705_);fill:#A01D21;}
	.st116{clip-path:url(#SVGID_00000091709198124034881000000002117535347458605705_);fill:#A11D21;}
	.st117{clip-path:url(#SVGID_00000091709198124034881000000002117535347458605705_);fill:#A21E21;}
	.st118{clip-path:url(#SVGID_00000091709198124034881000000002117535347458605705_);fill:#A31E22;}
	.st119{clip-path:url(#SVGID_00000091709198124034881000000002117535347458605705_);fill:#A51E22;}
	.st120{clip-path:url(#SVGID_00000091709198124034881000000002117535347458605705_);fill:#A61E22;}
	.st121{clip-path:url(#SVGID_00000091709198124034881000000002117535347458605705_);fill:#A71E22;}
	.st122{clip-path:url(#SVGID_00000091709198124034881000000002117535347458605705_);fill:#A91E23;}
	.st123{clip-path:url(#SVGID_00000091709198124034881000000002117535347458605705_);fill:#AB1F23;}
	.st124{clip-path:url(#SVGID_00000091709198124034881000000002117535347458605705_);fill:#AC1F23;}
	.st125{clip-path:url(#SVGID_00000091709198124034881000000002117535347458605705_);fill:#AD1F23;}
	.st126{clip-path:url(#SVGID_00000091709198124034881000000002117535347458605705_);fill:#AE1F24;}
	.st127{clip-path:url(#SVGID_00000091709198124034881000000002117535347458605705_);fill:#AF1F24;}
	.st128{clip-path:url(#SVGID_00000091709198124034881000000002117535347458605705_);fill:#B22024;}
	.st129{clip-path:url(#SVGID_00000091709198124034881000000002117535347458605705_);fill:#B32025;}
	.st130{clip-path:url(#SVGID_00000091709198124034881000000002117535347458605705_);fill:#B42025;}
	.st131{clip-path:url(#SVGID_00000091709198124034881000000002117535347458605705_);fill:#B52025;}
	.st132{clip-path:url(#SVGID_00000091709198124034881000000002117535347458605705_);fill:#B72025;}
	.st133{clip-path:url(#SVGID_00000091709198124034881000000002117535347458605705_);fill:#B92025;}
	.st134{clip-path:url(#SVGID_00000091709198124034881000000002117535347458605705_);fill:#BC2026;}
	.st135{clip-path:url(#SVGID_00000091709198124034881000000002117535347458605705_);fill:#BE2126;}
	.st136{clip-path:url(#SVGID_00000091709198124034881000000002117535347458605705_);fill:#BF2126;}
	.st137{clip-path:url(#SVGID_00000091709198124034881000000002117535347458605705_);fill:#C02126;}
	.st138{clip-path:url(#SVGID_00000091709198124034881000000002117535347458605705_);fill:#C12126;}
	.st139{clip-path:url(#SVGID_00000091709198124034881000000002117535347458605705_);fill:#C22126;}
	.st140{clip-path:url(#SVGID_00000091709198124034881000000002117535347458605705_);fill:#C32126;}
	.st141{clip-path:url(#SVGID_00000091709198124034881000000002117535347458605705_);fill:#C42126;}
	.st142{clip-path:url(#SVGID_00000091709198124034881000000002117535347458605705_);fill:#C52126;}
	.st143{clip-path:url(#SVGID_00000091709198124034881000000002117535347458605705_);fill:#C62127;}
	.st144{clip-path:url(#SVGID_00000091709198124034881000000002117535347458605705_);fill:#C72127;}
	.st145{clip-path:url(#SVGID_00000091709198124034881000000002117535347458605705_);fill:#C82127;}
	.st146{clip-path:url(#SVGID_00000091709198124034881000000002117535347458605705_);fill:#C92127;}
	.st147{clip-path:url(#SVGID_00000091709198124034881000000002117535347458605705_);fill:#CA2127;}
	.st148{clip-path:url(#SVGID_00000091709198124034881000000002117535347458605705_);fill:#CA2027;}
	.st149{clip-path:url(#SVGID_00000091709198124034881000000002117535347458605705_);fill:#CC2027;}
	.st150{clip-path:url(#SVGID_00000091709198124034881000000002117535347458605705_);fill:#CD2027;}
	.st151{clip-path:url(#SVGID_00000091709198124034881000000002117535347458605705_);fill:#CE2127;}
	.st152{clip-path:url(#SVGID_00000091709198124034881000000002117535347458605705_);fill:#CF2127;}
	.st153{clip-path:url(#SVGID_00000091709198124034881000000002117535347458605705_);fill:#D02027;}
	.st154{clip-path:url(#SVGID_00000091709198124034881000000002117535347458605705_);fill:#D12027;}
	.st155{clip-path:url(#SVGID_00000091709198124034881000000002117535347458605705_);fill:#D22027;}
	.st156{clip-path:url(#SVGID_00000091709198124034881000000002117535347458605705_);fill:#D32027;}
	.st157{clip-path:url(#SVGID_00000091709198124034881000000002117535347458605705_);fill:#D42027;}
	.st158{clip-path:url(#SVGID_00000091709198124034881000000002117535347458605705_);fill:#D52027;}
	.st159{clip-path:url(#SVGID_00000091709198124034881000000002117535347458605705_);fill:#D62027;}
	.st160{clip-path:url(#SVGID_00000091709198124034881000000002117535347458605705_);fill:#D72027;}
	.st161{clip-path:url(#SVGID_00000091709198124034881000000002117535347458605705_);fill:#D71F27;}
	.st162{clip-path:url(#SVGID_00000061463965179626681710000004527112338560225694_);}
	.st163{clip-path:url(#SVGID_00000106109027310203534800000018090571715201275522_);fill:#650F0E;}
	.st164{clip-path:url(#SVGID_00000106109027310203534800000018090571715201275522_);fill:#670E0D;}
	.st165{clip-path:url(#SVGID_00000106109027310203534800000018090571715201275522_);fill:#690C0D;}
	.st166{clip-path:url(#SVGID_00000106109027310203534800000018090571715201275522_);fill:#6C0D0F;}
	.st167{clip-path:url(#SVGID_00000106109027310203534800000018090571715201275522_);fill:#6F0F10;}
	.st168{clip-path:url(#SVGID_00000106109027310203534800000018090571715201275522_);fill:#700F10;}
	.st169{clip-path:url(#SVGID_00000106109027310203534800000018090571715201275522_);fill:#721011;}
	.st170{clip-path:url(#SVGID_00000106109027310203534800000018090571715201275522_);fill:#741012;}
	.st171{clip-path:url(#SVGID_00000106109027310203534800000018090571715201275522_);fill:#761113;}
	.st172{clip-path:url(#SVGID_00000106109027310203534800000018090571715201275522_);fill:#781214;}
	.st173{clip-path:url(#SVGID_00000106109027310203534800000018090571715201275522_);fill:#7A1214;}
	.st174{clip-path:url(#SVGID_00000106109027310203534800000018090571715201275522_);fill:#7B1315;}
	.st175{clip-path:url(#SVGID_00000106109027310203534800000018090571715201275522_);fill:#7D1416;}
	.st176{clip-path:url(#SVGID_00000106109027310203534800000018090571715201275522_);fill:#7F1416;}
	.st177{clip-path:url(#SVGID_00000106109027310203534800000018090571715201275522_);fill:#801517;}
	.st178{clip-path:url(#SVGID_00000106109027310203534800000018090571715201275522_);fill:#811517;}
	.st179{clip-path:url(#SVGID_00000106109027310203534800000018090571715201275522_);fill:#831618;}
	.st180{clip-path:url(#SVGID_00000106109027310203534800000018090571715201275522_);fill:#851619;}
	.st181{clip-path:url(#SVGID_00000106109027310203534800000018090571715201275522_);fill:#871719;}
	.st182{clip-path:url(#SVGID_00000106109027310203534800000018090571715201275522_);fill:#88171A;}
	.st183{clip-path:url(#SVGID_00000106109027310203534800000018090571715201275522_);fill:#89181A;}
	.st184{clip-path:url(#SVGID_00000106109027310203534800000018090571715201275522_);fill:#8B181B;}
	.st185{clip-path:url(#SVGID_00000106109027310203534800000018090571715201275522_);fill:#8D181B;}
	.st186{clip-path:url(#SVGID_00000106109027310203534800000018090571715201275522_);fill:#8F191C;}
	.st187{clip-path:url(#SVGID_00000106109027310203534800000018090571715201275522_);fill:#91191C;}
	.st188{clip-path:url(#SVGID_00000106109027310203534800000018090571715201275522_);fill:#921A1D;}
	.st189{clip-path:url(#SVGID_00000106109027310203534800000018090571715201275522_);fill:#941A1D;}
	.st190{clip-path:url(#SVGID_00000106109027310203534800000018090571715201275522_);fill:#951B1E;}
	.st191{clip-path:url(#SVGID_00000106109027310203534800000018090571715201275522_);fill:#971B1E;}
	.st192{clip-path:url(#SVGID_00000106109027310203534800000018090571715201275522_);fill:#981B1F;}
	.st193{clip-path:url(#SVGID_00000106109027310203534800000018090571715201275522_);fill:#9A1C1F;}
	.st194{clip-path:url(#SVGID_00000106109027310203534800000018090571715201275522_);fill:#9B1C1F;}
	.st195{clip-path:url(#SVGID_00000106109027310203534800000018090571715201275522_);fill:#9D1C20;}
	.st196{clip-path:url(#SVGID_00000106109027310203534800000018090571715201275522_);fill:#9E1D20;}
	.st197{clip-path:url(#SVGID_00000106109027310203534800000018090571715201275522_);fill:#A01D20;}
	.st198{clip-path:url(#SVGID_00000106109027310203534800000018090571715201275522_);fill:#A01D21;}
	.st199{clip-path:url(#SVGID_00000106109027310203534800000018090571715201275522_);fill:#A11D21;}
	.st200{clip-path:url(#SVGID_00000106109027310203534800000018090571715201275522_);fill:#A21E21;}
	.st201{clip-path:url(#SVGID_00000106109027310203534800000018090571715201275522_);fill:#A31E22;}
	.st202{clip-path:url(#SVGID_00000106109027310203534800000018090571715201275522_);fill:#A51E22;}
	.st203{clip-path:url(#SVGID_00000106109027310203534800000018090571715201275522_);fill:#A61E22;}
	.st204{clip-path:url(#SVGID_00000106109027310203534800000018090571715201275522_);fill:#A71E22;}
	.st205{clip-path:url(#SVGID_00000106109027310203534800000018090571715201275522_);fill:#A91E23;}
	.st206{clip-path:url(#SVGID_00000106109027310203534800000018090571715201275522_);fill:#AB1F23;}
	.st207{clip-path:url(#SVGID_00000106109027310203534800000018090571715201275522_);fill:#AC1F23;}
	.st208{clip-path:url(#SVGID_00000106109027310203534800000018090571715201275522_);fill:#AD1F23;}
	.st209{clip-path:url(#SVGID_00000106109027310203534800000018090571715201275522_);fill:#AE1F24;}
	.st210{clip-path:url(#SVGID_00000106109027310203534800000018090571715201275522_);fill:#AF1F24;}
	.st211{clip-path:url(#SVGID_00000106109027310203534800000018090571715201275522_);fill:#B22024;}
	.st212{clip-path:url(#SVGID_00000106109027310203534800000018090571715201275522_);fill:#B32025;}
	.st213{clip-path:url(#SVGID_00000106109027310203534800000018090571715201275522_);fill:#B42025;}
	.st214{clip-path:url(#SVGID_00000106109027310203534800000018090571715201275522_);fill:#B52025;}
	.st215{clip-path:url(#SVGID_00000106109027310203534800000018090571715201275522_);fill:#B72025;}
	.st216{clip-path:url(#SVGID_00000106109027310203534800000018090571715201275522_);fill:#B92025;}
	.st217{clip-path:url(#SVGID_00000106109027310203534800000018090571715201275522_);fill:#BC2026;}
	.st218{clip-path:url(#SVGID_00000106109027310203534800000018090571715201275522_);fill:#BE2126;}
	.st219{clip-path:url(#SVGID_00000106109027310203534800000018090571715201275522_);fill:#BF2126;}
	.st220{clip-path:url(#SVGID_00000106109027310203534800000018090571715201275522_);fill:#C02126;}
	.st221{clip-path:url(#SVGID_00000106109027310203534800000018090571715201275522_);fill:#C12126;}
	.st222{clip-path:url(#SVGID_00000106109027310203534800000018090571715201275522_);fill:#C22126;}
	.st223{clip-path:url(#SVGID_00000106109027310203534800000018090571715201275522_);fill:#C32126;}
	.st224{clip-path:url(#SVGID_00000106109027310203534800000018090571715201275522_);fill:#C42126;}
	.st225{clip-path:url(#SVGID_00000106109027310203534800000018090571715201275522_);fill:#C52126;}
	.st226{clip-path:url(#SVGID_00000106109027310203534800000018090571715201275522_);fill:#C62127;}
	.st227{clip-path:url(#SVGID_00000106109027310203534800000018090571715201275522_);fill:#C72127;}
	.st228{clip-path:url(#SVGID_00000106109027310203534800000018090571715201275522_);fill:#C82127;}
	.st229{clip-path:url(#SVGID_00000106109027310203534800000018090571715201275522_);fill:#C92127;}
	.st230{clip-path:url(#SVGID_00000106109027310203534800000018090571715201275522_);fill:#CA2127;}
	.st231{clip-path:url(#SVGID_00000106109027310203534800000018090571715201275522_);fill:#CA2027;}
	.st232{clip-path:url(#SVGID_00000106109027310203534800000018090571715201275522_);fill:#CC2027;}
	.st233{clip-path:url(#SVGID_00000106109027310203534800000018090571715201275522_);fill:#CD2027;}
	.st234{clip-path:url(#SVGID_00000106109027310203534800000018090571715201275522_);fill:#CE2127;}
	.st235{clip-path:url(#SVGID_00000106109027310203534800000018090571715201275522_);fill:#CF2127;}
	.st236{clip-path:url(#SVGID_00000106109027310203534800000018090571715201275522_);fill:#D02027;}
	.st237{clip-path:url(#SVGID_00000106109027310203534800000018090571715201275522_);fill:#D12027;}
	.st238{clip-path:url(#SVGID_00000106109027310203534800000018090571715201275522_);fill:#D22027;}
	.st239{clip-path:url(#SVGID_00000106109027310203534800000018090571715201275522_);fill:#D32027;}
	.st240{clip-path:url(#SVGID_00000106109027310203534800000018090571715201275522_);fill:#D42027;}
	.st241{clip-path:url(#SVGID_00000106109027310203534800000018090571715201275522_);fill:#D52027;}
	.st242{clip-path:url(#SVGID_00000106109027310203534800000018090571715201275522_);fill:#D62027;}
	.st243{clip-path:url(#SVGID_00000106109027310203534800000018090571715201275522_);fill:#D72027;}
	.st244{clip-path:url(#SVGID_00000106109027310203534800000018090571715201275522_);fill:#D71F27;}
	.st245{fill:#C3996B;}
	.st246{fill:#F06724;}
	.st247{fill:#231F20;}
	.st248{fill:#AEB3B6;}
	.st249{fill:#EE3537;}
	.st250{fill:#9BA0A3;}
	.st251{fill:#AFB3B5;}
	.st252{fill:#F2EB44;}
	.st253{fill:#FFDD26;}
	.st254{clip-path:url(#XMLID_00000106833321929154588150000001708403883197801602_);}
	.st255{fill:#7E8386;}
	.st256{fill:#A4AAAC;}
	.st257{fill:#131718;}
	.st258{fill:#007843;}
	.st259{fill:#2AB34B;}
	.st260{fill:none;stroke:#FFFFFF;stroke-width:1.4841;stroke-miterlimit:10;}
	.st261{fill:#2E3192;}
	.st262{fill:#154458;}
	.st263{fill:#C72026;}
	.st264{fill:#5FBB46;}
	.st265{fill:#1A5F30;}
	.st266{fill:#293896;}
	.st267{filter:url(#Adobe_OpacityMaskFilter_00000174587388652180319240000013981600528200849803_);}
	.st268{filter:url(#Adobe_OpacityMaskFilter_00000124120595390873105400000013632761755137966217_);}
	
		.st269{mask:url(#SVGID_00000065050129875035953070000004302544976848671423_);fill:url(#SVGID_00000065794600170995717280000009021563335177554581_);}
	.st270{filter:url(#Adobe_OpacityMaskFilter_00000139991312634598708350000015087723743808211875_);}
	.st271{filter:url(#Adobe_OpacityMaskFilter_00000019673836812731598550000007757853915672820660_);}
	
		.st272{mask:url(#SVGID_00000080909821445508592840000004922694600773929092_);fill:url(#SVGID_00000028318320142141743790000006152834813756245120_);}
	.st273{filter:url(#Adobe_OpacityMaskFilter_00000021805888442953300570000006361585143740827010_);}
	.st274{filter:url(#Adobe_OpacityMaskFilter_00000179611430795305629310000001601548189912955558_);}
	
		.st275{mask:url(#SVGID_00000149367263517181445270000015456027060826774429_);fill:url(#SVGID_00000168830737087269502140000008331264500840661693_);}
	.st276{filter:url(#Adobe_OpacityMaskFilter_00000052071217877692473540000003121048408403740828_);}
	.st277{filter:url(#Adobe_OpacityMaskFilter_00000131327796104876360560000006462279855596104837_);}
	
		.st278{mask:url(#SVGID_00000078003246588994765280000002064925002276782254_);fill:url(#SVGID_00000091732323422072234980000007184759321164300473_);}
	.st279{filter:url(#Adobe_OpacityMaskFilter_00000106865484625357890100000014233365995912383930_);}
	.st280{filter:url(#Adobe_OpacityMaskFilter_00000155113978249153330600000001964292520045993361_);}
	
		.st281{mask:url(#SVGID_00000016036214610296781190000008043022987347881870_);fill:url(#SVGID_00000110451793952389716490000014146806125962356398_);}
	.st282{filter:url(#Adobe_OpacityMaskFilter_00000007417794612890765940000012587664573682491815_);}
	.st283{filter:url(#Adobe_OpacityMaskFilter_00000133506487008990779780000007268182783333755543_);}
	
		.st284{mask:url(#SVGID_00000078752419171158338610000018029919912682101651_);fill:url(#SVGID_00000029014053806989606640000010953289632723255957_);}
	.st285{filter:url(#Adobe_OpacityMaskFilter_00000026135560383733802430000015264863287666506652_);}
	.st286{filter:url(#Adobe_OpacityMaskFilter_00000063604576500999829650000014310371759427646889_);}
	
		.st287{mask:url(#SVGID_00000107586463544863132770000004421246334186770590_);fill:url(#SVGID_00000045598088367217255200000017417734181394484096_);}
	.st288{filter:url(#Adobe_OpacityMaskFilter_00000044886443059513649760000006311637004575962756_);}
	.st289{filter:url(#Adobe_OpacityMaskFilter_00000031917897339775930420000017275982677991261088_);}
	
		.st290{mask:url(#SVGID_00000119811980822359011850000017564584988990355587_);fill:url(#SVGID_00000078727413997161149570000008952198181825031338_);}
	.st291{filter:url(#Adobe_OpacityMaskFilter_00000103953815745294350120000008008225453089405588_);}
	.st292{filter:url(#Adobe_OpacityMaskFilter_00000018202013192353018480000000115794116549047192_);}
	
		.st293{mask:url(#SVGID_00000013171328592214552830000016494438170419405469_);fill:url(#SVGID_00000134230315925246228050000001390612449367274386_);}
	.st294{filter:url(#Adobe_OpacityMaskFilter_00000061454646947227907630000001814961217880137122_);}
	.st295{filter:url(#Adobe_OpacityMaskFilter_00000177473311452854533700000003695059852376103317_);}
	
		.st296{mask:url(#SVGID_00000154425947890051691240000013689477424729040821_);fill:url(#SVGID_00000116954702165310001500000009803847481478259859_);}
	.st297{clip-path:url(#SVGID_00000060000896228735710420000015508711191000208059_);fill:#FFF200;}
	
		.st298{clip-path:url(#SVGID_00000060000896228735710420000015508711191000208059_);fill:none;stroke:#FFFFFF;stroke-width:4.8568;stroke-linejoin:round;stroke-miterlimit:10;}
	.st299{clip-path:url(#SVGID_00000060000896228735710420000015508711191000208059_);fill:#ED1C24;}
	.st300{clip-path:url(#SVGID_00000060000896228735710420000015508711191000208059_);fill:#FFFFFF;}
	.st301{clip-path:url(#SVGID_00000060000896228735710420000015508711191000208059_);fill:#2E3192;}
	.st302{clip-path:url(#SVGID_00000060000896228735710420000015508711191000208059_);}
	.st303{clip-path:url(#SVGID_00000060000896228735710420000015508711191000208059_);fill:#F4817F;}
	.st304{clip-path:url(#SVGID_00000060000896228735710420000015508711191000208059_);fill:#56BF98;}
	.st305{clip-path:url(#SVGID_00000060000896228735710420000015508711191000208059_);fill:#570C08;}
	.st306{clip-path:url(#SVGID_00000060000896228735710420000015508711191000208059_);fill:#00A750;}
	
		.st307{fill:#FFFFFF;stroke:url(#SVGID_00000040544595633291514970000018124770582132233633_);stroke-width:7.11;stroke-miterlimit:10;}
	.st308{fill:#ED2224;}
	.st309{fill:#074E28;}
	.st310{fill:#EB2627;}
	.st311{fill:#D1D3D4;}
	.st312{fill:#5F1F16;}
	.st313{fill:#F1E7E6;}
	.st314{fill:#ED2024;}
	.st315{fill:url(#SVGID_00000039845528055450878560000007542781144606802052_);}
	.st316{fill:url(#SVGID_00000065766677882793629640000008237576017982718398_);}
	.st317{fill:#BB2025;}
	.st318{fill:url(#SVGID_00000124138707594274661700000003040564662314357903_);}
	.st319{fill:url(#SVGID_00000083062016524166583470000015933111435755928506_);}
	.st320{fill:none;stroke:#7F8080;stroke-width:0.8623;stroke-miterlimit:10;}
	.st321{fill:url(#SVGID_00000114783571524534477490000013322292204643388312_);}
	.st322{fill:url(#SVGID_00000089531810686831019780000015127286957152144787_);}
	.st323{fill:url(#SVGID_00000047766837117354832790000008116268085267108272_);}
	.st324{fill:url(#SVGID_00000055674674601675662430000017926092152019259024_);}
	.st325{fill:url(#SVGID_00000067914601374438063450000005732814649157279386_);}
	.st326{fill:url(#SVGID_00000160148783850835060580000008721035818953196196_);}
	.st327{fill:url(#SVGID_00000047748538590221570510000016439584910289830558_);}
	.st328{fill:url(#SVGID_00000109741030091135805200000001104398799864753331_);}
	.st329{fill:url(#SVGID_00000009557786071034940570000011688881175555012287_);}
	.st330{fill:url(#SVGID_00000150074121116734636750000008785439034752261806_);}
	.st331{fill:url(#SVGID_00000138557345546336969950000013123754280501403292_);}
	.st332{fill:url(#SVGID_00000107585631501210752320000010400537827165176230_);}
	.st333{fill:url(#SVGID_00000004529108945177352290000008948306633123945360_);}
	.st334{fill:url(#SVGID_00000163754477274532206950000015107359198428528313_);}
	.st335{fill:#E01E26;}
</style>
<g>
	<g>
		<g>
			<path class="st5" d="M136.27,107.71c0.65,0.92,1.3,1.7,1.81,2.57c1.26,2.09,1.74,4.42,1.88,6.82c0.47,7.96-4.46,15.61-11.91,18.5
				c-1.74,0.67-3.53,1.03-5.4,1.03c-8.58-0.01-17.16-0.01-25.74,0c-1.08,0-2.14-0.04-3.18-0.36c-1.85-0.56-3.1-1.75-3.65-3.6
				c-0.21-0.7-0.31-1.45-0.39-2.19c-0.06-0.56-0.04-1.13-0.04-1.7c0-13.94-0.01-27.88,0.01-41.82c0-1.04,0.04-2.09,0.23-3.11
				c0.45-2.31,1.84-3.8,4.14-4.43c0.99-0.27,2-0.3,3.01-0.3c5.99,0,11.97,0,17.96,0c2.32,0,4.65,0.02,6.97,0
				c4.34-0.05,8.1,1.43,11.38,4.21c2.85,2.42,5.04,5.33,5.99,9.01c1.05,4.07,0.78,8.09-0.78,12c-0.4,1-0.99,1.9-1.72,2.7
				C136.65,107.25,136.46,107.48,136.27,107.71z M103.87,107.87c0,4.38,0,8.76,0,13.13c0,0.24-0.01,0.48,0.01,0.71
				c0.03,0.58,0.1,0.64,0.7,0.68c0.15,0.01,0.3,0.01,0.45,0.01c5.54,0,11.08,0,16.62-0.01c0.53,0,1.07-0.06,1.59-0.17
				c1.35-0.28,2.21-1.18,2.39-2.55c0.08-0.61,0.08-1.25,0.02-1.86c-0.17-1.7-1.29-2.75-3-2.85c-1.31-0.07-2.62-0.08-3.93-0.15
				c-0.83-0.04-1.67-0.07-2.48-0.22c-2.36-0.44-3.89-1.84-4.53-4.15c-0.49-1.75-0.54-3.54-0.13-5.3c0.47-2.05,1.7-3.45,3.77-4.01
				c0.71-0.19,1.46-0.32,2.19-0.35c1.58-0.05,3.16,0.02,4.73-0.02c2.08-0.05,3.3-1.29,3.39-3.36c0.02-0.42,0.02-0.83,0-1.25
				c-0.07-1.36-0.83-2.31-2.14-2.62c-0.57-0.13-1.18-0.19-1.77-0.2c-5.57-0.01-11.14-0.01-16.71-0.01c-0.18,0-0.36,0.01-0.54,0.01
				c-0.4,0-0.61,0.17-0.61,0.59c0,0.27-0.01,0.54-0.01,0.8C103.87,99.11,103.87,103.49,103.87,107.87z"/>
			<path class="st5" d="M54.13,136.65c-7.09,0-14.18-0.01-21.27,0.01c-1.5,0-2.9-0.28-4.17-1.09c-2.11-1.37-3.15-3.35-3.2-5.85
				c-0.01-0.49,0.13-1.01,0.33-1.47c1.04-2.47,2.02-4.97,3.2-7.37c6.17-12.56,12.4-25.09,18.6-37.63c0.96-1.94,2.42-3.27,4.5-3.94
				c2.95-0.96,6.17,0.38,7.75,2.65c0.3,0.44,0.58,0.91,0.81,1.38c6.29,12.63,12.59,25.26,18.85,37.91c1.04,2.11,1.9,4.3,2.87,6.45
				c0.61,1.34,0.69,2.68,0.2,4.07c-0.52,1.51-1.36,2.77-2.71,3.66c-1.31,0.86-2.74,1.22-4.31,1.22
				C68.43,136.64,61.28,136.65,54.13,136.65z M54.24,101.84c-0.64,0.67-9.9,19.69-9.99,20.5c0.32,0.02,0.63,0.07,0.94,0.07
				c1.67,0.01,3.34,0,5,0c4.26,0,8.52,0,12.78,0c0.36,0,0.73-0.07,1.25-0.12C60.85,115.37,57.58,108.62,54.24,101.84z"/>
			<path class="st5" d="M181.22,79.15c2.95,0,5.9-0.02,8.85,0.01c0.76,0.01,1.54,0.13,2.29,0.31c2.39,0.59,3.77,2.16,4.27,4.53
				c0.34,1.63,0.3,3.26-0.13,4.87c-0.65,2.46-2.28,3.84-4.75,4.25c-0.82,0.14-1.66,0.18-2.49,0.18c-4.65,0.02-9.3,0.01-13.94,0.02
				c-2.03,0-4.04,0.19-6,0.77c-3.85,1.15-6.44,3.61-7.68,7.44c-0.91,2.82-1.07,5.72-0.8,8.66c0.14,1.49,0.42,2.94,0.93,4.35
				c1.28,3.52,3.72,5.8,7.25,6.99c2.29,0.77,4.66,0.95,7.05,0.96c4.32,0.03,8.64-0.01,12.96,0.02c0.98,0.01,1.97,0.06,2.93,0.25
				c2.62,0.52,4.2,2.15,4.65,4.78c0.26,1.5,0.24,3.03-0.11,4.53c-0.55,2.31-2.01,3.74-4.3,4.29c-0.63,0.15-1.29,0.23-1.94,0.23
				c-5.93,0.01-11.86,0.12-17.78-0.05c-4.76-0.13-9.39-1.12-13.66-3.38c-5.25-2.78-8.6-7.14-10.46-12.71
				c-0.91-2.72-1.4-5.53-1.64-8.39c-0.25-3.04-0.25-6.07,0.04-9.1c0.38-4.06,1.3-7.99,3.22-11.63c2.74-5.19,7.02-8.55,12.52-10.41
				c2.57-0.87,5.22-1.47,7.93-1.6c3.6-0.17,7.2-0.21,10.8-0.3C181.22,79.08,181.22,79.12,181.22,79.15z"/>
		</g>
	</g>
	<g>
		<g>
			<path class="st6" d="M182.94,64.51c0,0.32,0,0.65,0,0.97c0,2.29,0,4.59,0,6.88c0,1.11-0.19,1.3-1.3,1.31c-0.27,0-0.54,0.01-0.8,0
				c-0.68-0.04-0.96-0.3-0.99-1c-0.03-0.71-0.01-1.43-0.01-2.14c0-2.59,0-5.18,0-7.78c0-0.21-0.01-0.42,0-0.63
				c0.04-0.84,0.25-1.06,1.07-1.07c0.98-0.01,1.97-0.01,2.95,0c0.91,0.01,1.13,0.16,1.43,1.03c0.72,2.05,1.42,4.11,2.13,6.16
				c0.11,0.33,0.26,0.65,0.57,1.01c0.12-0.28,0.26-0.55,0.36-0.84c0.67-1.94,1.34-3.88,2.01-5.83c0.09-0.25,0.18-0.51,0.27-0.76
				c0.21-0.53,0.58-0.8,1.16-0.79c1.07,0.02,2.15-0.01,3.22,0.01c0.75,0.01,0.94,0.21,0.95,0.97c0.02,0.95,0.01,1.91,0.01,2.86
				c0,2.5,0,5,0,7.51c0,1.04-0.22,1.26-1.25,1.27c-1.78,0.02-1.86-0.05-1.86-1.84c0-2.12,0-4.23,0-6.35c0-0.32,0-0.64,0-1.06
				c-0.46,0.21-0.47,0.56-0.57,0.84c-0.85,2.35-1.69,4.71-2.54,7.06c-0.46,1.29-1.49,1.76-2.76,1.27c-0.54-0.21-0.73-0.66-0.91-1.15
				c-0.85-2.38-1.7-4.77-2.56-7.15c-0.1-0.29-0.23-0.57-0.35-0.86C183.11,64.46,183.02,64.48,182.94,64.51z"/>
			<path class="st6" d="M189.98,144.73c0.27-0.25,0.49-0.43,0.7-0.64c0.8-0.8,1.61-1.59,2.39-2.41c0.36-0.37,0.76-0.54,1.27-0.52
				c0.75,0.04,1.14,0.39,1.24,1.14c0,0.03,0.01,0.06,0.01,0.09c0,2.92,0.02,5.83,0,8.75c-0.01,0.82-0.44,1.19-1.22,1.23
				c-0.9,0.04-1.35-0.25-1.41-1.11c-0.09-1.3-0.05-2.62-0.07-3.92c0-0.38,0-0.75,0-1.29c-0.31,0.21-0.49,0.29-0.63,0.42
				c-0.41,0.39-0.78,0.82-1.2,1.2c-0.63,0.58-1.54,0.58-2.17,0c-0.39-0.36-0.75-0.76-1.14-1.13c-0.16-0.15-0.35-0.27-0.65-0.49
				c-0.03,0.42-0.06,0.71-0.06,0.99c-0.01,1.34,0.01,2.68-0.01,4.02c-0.02,0.88-0.42,1.27-1.24,1.3c-0.97,0.03-1.37-0.31-1.38-1.31
				c-0.03-2.2-0.01-4.41-0.02-6.61c0-0.63,0-1.25,0.01-1.88c0-0.56,0.09-1.11,0.71-1.31c0.59-0.19,1.18-0.17,1.67,0.3
				c0.74,0.73,1.48,1.47,2.22,2.2C189.3,144.08,189.62,144.38,189.98,144.73z"/>
			<path class="st6" d="M153.86,152.35c-0.83,0-1.67,0-2.5,0c-0.48,0-0.89-0.15-1.1-0.61c-0.24-0.52-0.24-1.05,0.08-1.54
				c0.25-0.39,0.66-0.46,1.1-0.46c1.34,0,2.68,0,4.02-0.02c0.41-0.01,0.85-0.05,1.22-0.2c0.23-0.09,0.5-0.41,0.5-0.63
				c0-0.22-0.27-0.54-0.5-0.63c-0.38-0.15-0.81-0.16-1.22-0.19c-0.95-0.07-1.92-0.01-2.84-0.2c-1.73-0.34-2.52-1.45-2.52-3.27
				c0-1.82,0.81-2.87,2.53-3.28c0.37-0.09,0.76-0.15,1.15-0.15c1.58-0.02,3.16-0.03,4.74-0.01c1,0.01,1.41,0.47,1.35,1.45
				c-0.04,0.77-0.38,1.15-1.17,1.17c-1.31,0.03-2.62,0-3.93,0.02c-0.44,0.01-0.89,0.06-1.33,0.14c-0.38,0.07-0.69,0.29-0.67,0.71
				c0.02,0.38,0.31,0.58,0.65,0.63c0.5,0.07,1.01,0.09,1.51,0.13c0.83,0.07,1.68,0.02,2.48,0.21c2.32,0.56,3.32,3.41,1.92,5.35
				c-0.71,0.98-1.77,1.27-2.89,1.35C155.59,152.39,154.73,152.34,153.86,152.35C153.86,152.35,153.86,152.35,153.86,152.35z"/>
			<path class="st6" d="M131.09,152.36c-0.83,0-1.67,0.02-2.5,0c-0.88-0.02-1.34-0.5-1.31-1.33c0.02-0.81,0.44-1.24,1.3-1.26
				c1.37-0.02,2.74,0,4.11-0.03c0.41-0.01,0.83-0.09,1.22-0.2c0.3-0.08,0.55-0.34,0.46-0.67c-0.06-0.22-0.26-0.51-0.46-0.58
				c-0.41-0.14-0.87-0.17-1.31-0.21c-0.98-0.08-1.97-0.04-2.92-0.22c-1.32-0.26-2.14-1.11-2.33-2.49c-0.38-2.76,1.05-3.99,3.13-4.14
				c1.81-0.13,3.63-0.06,5.45-0.04c0.78,0.01,1.13,0.47,1.14,1.3c0,0.83-0.34,1.28-1.13,1.3c-1.34,0.04-2.68,0-4.02,0.02
				c-0.44,0.01-0.89,0.07-1.32,0.15c-0.34,0.07-0.61,0.27-0.61,0.67c0,0.4,0.27,0.6,0.62,0.65c0.5,0.08,1,0.1,1.51,0.14
				c0.83,0.06,1.67,0.04,2.48,0.2c1.89,0.37,2.65,1.84,2.51,3.65c-0.14,1.83-1.11,2.84-3.41,3.06c-0.86,0.08-1.73,0.01-2.59,0.01
				C131.09,152.35,131.09,152.35,131.09,152.36z"/>
			<path class="st6" d="M175.48,143.88c0,0.51,0,0.9,0,1.28c0,1.22-0.01,2.44,0,3.66c0.01,0.85,0.06,0.9,0.93,0.9
				c1.4,0.01,2.8,0,4.2,0c0.27,0,0.54-0.01,0.8,0.02c0.82,0.07,1.18,0.49,1.15,1.37c-0.02,0.81-0.39,1.23-1.19,1.24
				c-2.44,0.02-4.88,0.02-7.33,0c-0.87-0.01-1.22-0.42-1.23-1.39c-0.01-2.08-0.01-4.17-0.01-6.25c0-0.71-0.01-1.43,0.01-2.14
				c0.03-1.01,0.41-1.4,1.43-1.41c2.35-0.01,4.71-0.01,7.06,0.01c0.9,0.01,1.26,0.39,1.28,1.24c0.02,0.91-0.34,1.36-1.24,1.38
				c-1.55,0.04-3.1,0.02-4.65,0.03C176.35,143.82,176,143.85,175.48,143.88z"/>
			<path class="st6" d="M170.16,63.34c-0.69,0-1.31,0-1.92,0c-0.65,0-1.31,0.02-1.96-0.01c-0.61-0.03-0.77-0.21-0.82-0.82
				c-0.02-0.24-0.01-0.48,0.01-0.71c0.03-0.45,0.26-0.71,0.73-0.73c0.18-0.01,0.36-0.01,0.54-0.01c3.42,0,6.85,0,10.27,0
				c1.12,0,1.58,0.7,1.2,1.76c-0.14,0.4-0.43,0.53-0.83,0.53c-0.95,0-1.9,0-2.86,0.01c-0.32,0-0.64,0.04-1.02,0.07
				c-0.02,0.39-0.05,0.71-0.05,1.03c0,2.62,0,5.24,0,7.86c0,1.14-0.22,1.35-1.34,1.36c-1.82,0.01-1.82,0.01-1.83-1.85
				c0-2.44,0-4.88,0-7.32C170.25,64.15,170.2,63.81,170.16,63.34z"/>
			<path class="st6" d="M143.65,144.44c0.28-0.31,0.5-0.54,0.71-0.78c0.56-0.66,1.11-1.32,1.67-1.97c0.28-0.33,0.62-0.55,1.07-0.55
				c0.52-0.01,1.04-0.01,1.33,0.51c0.28,0.5,0.25,1.03-0.03,1.53c-0.11,0.2-0.28,0.38-0.44,0.56c-0.85,0.99-1.69,1.99-2.56,2.97
				c-0.32,0.36-0.45,0.74-0.43,1.21c0.02,0.83,0.01,1.67,0,2.5c0,0.3-0.01,0.6-0.07,0.89c-0.15,0.8-0.52,1.08-1.37,1.06
				c-0.76-0.01-1.17-0.33-1.22-1.12c-0.07-1.04-0.07-2.08-0.03-3.12c0.02-0.64-0.15-1.13-0.58-1.61c-0.84-0.93-1.62-1.9-2.43-2.85
				c-0.11-0.14-0.23-0.27-0.32-0.42c-0.38-0.65-0.31-1.4,0.16-1.81c0.47-0.41,1.5-0.41,1.97,0.08c0.64,0.66,1.21,1.39,1.82,2.08
				C143.13,143.85,143.36,144.11,143.65,144.44z"/>
			<path class="st6" d="M167.74,143.91c0,0.46,0,0.78,0,1.11c0,1.97,0.01,3.93,0,5.9c-0.01,1.13-0.54,1.58-1.64,1.44
				c-0.58-0.07-0.9-0.38-0.97-0.98c-0.04-0.29-0.03-0.59-0.03-0.89c0-1.91,0.01-3.81,0-5.72c0-0.87-0.05-0.92-0.9-0.94
				c-0.54-0.01-1.07,0.01-1.61-0.04c-0.73-0.07-1.05-0.48-1.05-1.28c0-0.79,0.34-1.22,1.03-1.32c0.12-0.02,0.24-0.02,0.36-0.02
				c2.35,0,4.71-0.01,7.06,0.01c0.98,0.01,1.4,0.52,1.31,1.49c-0.07,0.7-0.42,1.07-1.14,1.13c-0.44,0.04-0.89,0.01-1.34,0.03
				C168.5,143.83,168.18,143.87,167.74,143.91z"/>
			<path class="st6" d="M179.16,145.46c0.51,0,1.01-0.02,1.52,0.01c0.83,0.05,1.2,0.49,1.19,1.34c-0.01,0.82-0.36,1.24-1.17,1.26
				c-1.07,0.04-2.14,0.04-3.22,0c-0.76-0.03-1.08-0.43-1.1-1.23c-0.02-0.83,0.34-1.31,1.07-1.37
				C178.03,145.43,178.6,145.47,179.16,145.46C179.16,145.47,179.16,145.47,179.16,145.46z"/>
		</g>
	</g>
</g>
</svg>
