<?xml version="1.0" encoding="utf-8"?>
<!-- Generator: Adobe Illustrator 27.0.0, SVG Export Plug-In . SVG Version: 6.00 Build 0)  -->
<svg version="1.1" id="Layer_1" xmlns="http://www.w3.org/2000/svg" xmlns:xlink="http://www.w3.org/1999/xlink" x="0px" y="0px"
	 viewBox="0 0 226.77 226.77" style="enable-background:new 0 0 226.77 226.77;" xml:space="preserve">
<style type="text/css">
	.st0{fill:#FFF200;}
	.st1{stroke:#000000;stroke-width:5.2476;stroke-miterlimit:10;}
	.st2{fill:#FFFFFF;}
	.st3{fill:#ED1C24;}
	.st4{fill:#50B848;}
	.st5{fill:#007F3E;}
	.st6{fill:#F58220;}
	.st7{fill:#F37021;}
	.st8{fill:#1282C5;}
	.st9{fill:#F7941D;}
	.st10{fill:#FFFFFF;stroke:#FFFFFF;stroke-width:2.321;stroke-linecap:round;stroke-linejoin:round;}
	.st11{fill:#00854A;}
	.st12{fill:#34B34A;}
	.st13{fill:#13421E;}
	.st14{fill:#8CC540;stroke:#FFFFFF;stroke-width:1.2029;stroke-miterlimit:10;}
	.st15{fill:#065643;stroke:#FFFFFF;stroke-width:1.2029;stroke-miterlimit:10;}
	.st16{fill:#FFCB05;}
	.st17{fill:#224D71;}
	.st18{fill:#F8BC1B;}
	.st19{fill:#4CB748;}
	.st20{fill:url(#SVGID_00000087411143824220898320000010141201664500492698_);}
	.st21{fill:none;stroke:#FFFFFF;stroke-width:0.8396;stroke-miterlimit:10;}
	
		.st22{fill:url(#SVGID_00000013150586617197422900000010036628456981869696_);stroke:url(#SVGID_00000169516726016187943870000001258648211860397982_);stroke-width:0.6997;stroke-miterlimit:10;}
	
		.st23{fill:url(#SVGID_00000124132111233286813790000009000135667868046494_);stroke:url(#SVGID_00000102531617470242671020000003079368028027312779_);stroke-width:0.6997;stroke-miterlimit:10;}
	
		.st24{fill:url(#SVGID_00000013883765150989596090000002591529574914771634_);stroke:url(#SVGID_00000151505128579867095340000002071124411617420720_);stroke-width:0.6997;stroke-miterlimit:10;}
	
		.st25{fill:url(#SVGID_00000096740850288894601340000018019279760248585863_);stroke:url(#SVGID_00000127016138531395322920000006542774793213396621_);stroke-width:0.6997;stroke-miterlimit:10;}
	
		.st26{fill:url(#SVGID_00000112628901988290553560000007659849221976541096_);stroke:url(#SVGID_00000036227067311625667880000009243853023587913120_);stroke-width:0.6997;stroke-miterlimit:10;}
	.st27{fill:url(#SVGID_00000002373106960909174690000002426822703375159177_);}
	.st28{fill:url(#SVGID_00000054256379132909804330000004519546384697045413_);}
	.st29{fill:#005826;}
	.st30{fill:#BFD730;}
	.st31{fill:#00A651;stroke:#000000;stroke-width:2.8889;stroke-linecap:round;stroke-linejoin:round;stroke-miterlimit:10;}
	.st32{fill:#FFF200;stroke:#000000;stroke-width:2.8889;stroke-linecap:round;stroke-linejoin:round;stroke-miterlimit:10;}
	.st33{fill:#8DC63F;stroke:#000000;stroke-width:2.8889;stroke-linecap:round;stroke-linejoin:round;stroke-miterlimit:10;}
	.st34{fill:#0DB14B;stroke:#000000;stroke-width:2.8889;stroke-linecap:round;stroke-linejoin:round;stroke-miterlimit:10;}
	.st35{fill:#FFFFFF;stroke:#000000;stroke-width:2.8889;stroke-linecap:round;stroke-linejoin:round;stroke-miterlimit:10;}
	.st36{fill:#00A651;}
	.st37{fill:#8DC63F;}
	.st38{fill:#0DB14B;}
	.st39{fill:#034EA2;}
	.st40{fill:#00763F;}
	.st41{fill:url(#SVGID_00000031907368958197780460000012893391531204515201_);}
	.st42{fill:url(#SVGID_00000003820899241915020530000008455378977692455341_);}
	.st43{fill:url(#SVGID_00000098939747184716500790000006685403371988888204_);}
	.st44{fill:url(#SVGID_00000181790639859383929090000001906901604159073940_);}
	.st45{fill:url(#SVGID_00000107576305343706146820000012672014761204688799_);}
	.st46{fill:url(#SVGID_00000095300594896452242300000000306825199556227981_);}
	.st47{fill:url(#SVGID_00000116937568142034396000000000792676974401401768_);}
	.st48{fill:url(#SVGID_00000171706502494392339060000000682342924249011362_);}
	.st49{fill:url(#SVGID_00000078750772578772906410000000902042859794521998_);}
	.st50{fill:url(#SVGID_00000036234323289596974480000006830385385000310940_);}
	.st51{fill:#FFFFFF;stroke:#FFFFFF;stroke-width:4.8073;stroke-linecap:round;stroke-linejoin:round;stroke-miterlimit:10;}
	.st52{fill:url(#SVGID_00000163041598747557150750000012660057765798487457_);}
	.st53{fill:#00A651;stroke:#00A651;stroke-width:4.2345;stroke-linecap:round;stroke-linejoin:round;stroke-miterlimit:10;}
	.st54{fill:#939598;stroke:#939598;stroke-width:4.2345;stroke-linecap:round;stroke-linejoin:round;stroke-miterlimit:10;}
	.st55{fill:#CE181E;stroke:#CE181E;stroke-width:9.3609;stroke-miterlimit:10;}
	
		.st56{fill:none;stroke:url(#SVGID_00000015345853674137691350000013285763678216044211_);stroke-width:3.3359;stroke-miterlimit:10;}
	.st57{fill-rule:evenodd;clip-rule:evenodd;fill:#21A347;}
	.st58{filter:url(#Adobe_OpacityMaskFilter);}
	
		.st59{clip-path:url(#SVGID_00000087377924976387993750000002690742918204607144_);fill-rule:evenodd;clip-rule:evenodd;fill:url(#);}
	
		.st60{opacity:0.49;clip-path:url(#SVGID_00000087377924976387993750000002690742918204607144_);mask:url(#SVGID_00000080166381628696872570000002996648828614971296_);fill-rule:evenodd;clip-rule:evenodd;}
	
		.st61{clip-path:url(#SVGID_00000087377924976387993750000002690742918204607144_);fill-rule:evenodd;clip-rule:evenodd;fill:#007836;}
	.st62{filter:url(#Adobe_OpacityMaskFilter_00000180364323835155163450000015161377229934000773_);}
	
		.st63{opacity:0.49;clip-path:url(#SVGID_00000087377924976387993750000002690742918204607144_);mask:url(#SVGID_00000178172202217737060530000011134310832394309267_);fill-rule:evenodd;clip-rule:evenodd;}
	
		.st64{clip-path:url(#SVGID_00000087377924976387993750000002690742918204607144_);fill-rule:evenodd;clip-rule:evenodd;fill:#95C940;}
	.st65{fill-rule:evenodd;clip-rule:evenodd;fill:#FFFFFF;}
	.st66{fill:#FFC759;}
	.st67{fill:#D1A342;}
	.st68{fill:none;}
	.st69{clip-path:url(#SVGID_00000047018019920318084790000011861929112952994944_);}
	.st70{clip-path:url(#SVGID_00000034076889962065451820000017777252577036411028_);}
	.st71{fill:#9E1D20;}
	.st72{fill:#86888A;}
	.st73{fill:url(#SVGID_00000119822035324389986190000014107091295975200394_);}
	.st74{fill:url(#SVGID_00000075841836502769441720000005363590536962174092_);}
	.st75{fill:url(#SVGID_00000065763807428563594370000014315994826959346315_);}
	.st76{fill:url(#SVGID_00000155145866446401951470000000148209054647219626_);}
	.st77{fill:#F89522;}
	.st78{fill:#C0BFBF;}
	.st79{clip-path:url(#SVGID_00000026146882295790447290000009632103998059241911_);}
	.st80{clip-path:url(#SVGID_00000034802936716981979500000006335277081380610983_);fill:#650F0E;}
	.st81{clip-path:url(#SVGID_00000034802936716981979500000006335277081380610983_);fill:#670E0D;}
	.st82{clip-path:url(#SVGID_00000034802936716981979500000006335277081380610983_);fill:#690C0D;}
	.st83{clip-path:url(#SVGID_00000034802936716981979500000006335277081380610983_);fill:#6C0D0F;}
	.st84{clip-path:url(#SVGID_00000034802936716981979500000006335277081380610983_);fill:#6F0F10;}
	.st85{clip-path:url(#SVGID_00000034802936716981979500000006335277081380610983_);fill:#700F10;}
	.st86{clip-path:url(#SVGID_00000034802936716981979500000006335277081380610983_);fill:#721011;}
	.st87{clip-path:url(#SVGID_00000034802936716981979500000006335277081380610983_);fill:#741012;}
	.st88{clip-path:url(#SVGID_00000034802936716981979500000006335277081380610983_);fill:#761113;}
	.st89{clip-path:url(#SVGID_00000034802936716981979500000006335277081380610983_);fill:#781214;}
	.st90{clip-path:url(#SVGID_00000034802936716981979500000006335277081380610983_);fill:#7A1214;}
	.st91{clip-path:url(#SVGID_00000034802936716981979500000006335277081380610983_);fill:#7B1315;}
	.st92{clip-path:url(#SVGID_00000034802936716981979500000006335277081380610983_);fill:#7D1416;}
	.st93{clip-path:url(#SVGID_00000034802936716981979500000006335277081380610983_);fill:#7F1416;}
	.st94{clip-path:url(#SVGID_00000034802936716981979500000006335277081380610983_);fill:#801517;}
	.st95{clip-path:url(#SVGID_00000034802936716981979500000006335277081380610983_);fill:#811517;}
	.st96{clip-path:url(#SVGID_00000034802936716981979500000006335277081380610983_);fill:#831618;}
	.st97{clip-path:url(#SVGID_00000034802936716981979500000006335277081380610983_);fill:#851619;}
	.st98{clip-path:url(#SVGID_00000034802936716981979500000006335277081380610983_);fill:#871719;}
	.st99{clip-path:url(#SVGID_00000034802936716981979500000006335277081380610983_);fill:#88171A;}
	.st100{clip-path:url(#SVGID_00000034802936716981979500000006335277081380610983_);fill:#89181A;}
	.st101{clip-path:url(#SVGID_00000034802936716981979500000006335277081380610983_);fill:#8B181B;}
	.st102{clip-path:url(#SVGID_00000034802936716981979500000006335277081380610983_);fill:#8D181B;}
	.st103{clip-path:url(#SVGID_00000034802936716981979500000006335277081380610983_);fill:#8F191C;}
	.st104{clip-path:url(#SVGID_00000034802936716981979500000006335277081380610983_);fill:#91191C;}
	.st105{clip-path:url(#SVGID_00000034802936716981979500000006335277081380610983_);fill:#921A1D;}
	.st106{clip-path:url(#SVGID_00000034802936716981979500000006335277081380610983_);fill:#941A1D;}
	.st107{clip-path:url(#SVGID_00000034802936716981979500000006335277081380610983_);fill:#951B1E;}
	.st108{clip-path:url(#SVGID_00000034802936716981979500000006335277081380610983_);fill:#971B1E;}
	.st109{clip-path:url(#SVGID_00000034802936716981979500000006335277081380610983_);fill:#981B1F;}
	.st110{clip-path:url(#SVGID_00000034802936716981979500000006335277081380610983_);fill:#9A1C1F;}
	.st111{clip-path:url(#SVGID_00000034802936716981979500000006335277081380610983_);fill:#9B1C1F;}
	.st112{clip-path:url(#SVGID_00000034802936716981979500000006335277081380610983_);fill:#9D1C20;}
	.st113{clip-path:url(#SVGID_00000034802936716981979500000006335277081380610983_);fill:#9E1D20;}
	.st114{clip-path:url(#SVGID_00000034802936716981979500000006335277081380610983_);fill:#A01D20;}
	.st115{clip-path:url(#SVGID_00000034802936716981979500000006335277081380610983_);fill:#A01D21;}
	.st116{clip-path:url(#SVGID_00000034802936716981979500000006335277081380610983_);fill:#A11D21;}
	.st117{clip-path:url(#SVGID_00000034802936716981979500000006335277081380610983_);fill:#A21E21;}
	.st118{clip-path:url(#SVGID_00000034802936716981979500000006335277081380610983_);fill:#A31E22;}
	.st119{clip-path:url(#SVGID_00000034802936716981979500000006335277081380610983_);fill:#A51E22;}
	.st120{clip-path:url(#SVGID_00000034802936716981979500000006335277081380610983_);fill:#A61E22;}
	.st121{clip-path:url(#SVGID_00000034802936716981979500000006335277081380610983_);fill:#A71E22;}
	.st122{clip-path:url(#SVGID_00000034802936716981979500000006335277081380610983_);fill:#A91E23;}
	.st123{clip-path:url(#SVGID_00000034802936716981979500000006335277081380610983_);fill:#AB1F23;}
	.st124{clip-path:url(#SVGID_00000034802936716981979500000006335277081380610983_);fill:#AC1F23;}
	.st125{clip-path:url(#SVGID_00000034802936716981979500000006335277081380610983_);fill:#AD1F23;}
	.st126{clip-path:url(#SVGID_00000034802936716981979500000006335277081380610983_);fill:#AE1F24;}
	.st127{clip-path:url(#SVGID_00000034802936716981979500000006335277081380610983_);fill:#AF1F24;}
	.st128{clip-path:url(#SVGID_00000034802936716981979500000006335277081380610983_);fill:#B22024;}
	.st129{clip-path:url(#SVGID_00000034802936716981979500000006335277081380610983_);fill:#B32025;}
	.st130{clip-path:url(#SVGID_00000034802936716981979500000006335277081380610983_);fill:#B42025;}
	.st131{clip-path:url(#SVGID_00000034802936716981979500000006335277081380610983_);fill:#B52025;}
	.st132{clip-path:url(#SVGID_00000034802936716981979500000006335277081380610983_);fill:#B72025;}
	.st133{clip-path:url(#SVGID_00000034802936716981979500000006335277081380610983_);fill:#B92025;}
	.st134{clip-path:url(#SVGID_00000034802936716981979500000006335277081380610983_);fill:#BC2026;}
	.st135{clip-path:url(#SVGID_00000034802936716981979500000006335277081380610983_);fill:#BE2126;}
	.st136{clip-path:url(#SVGID_00000034802936716981979500000006335277081380610983_);fill:#BF2126;}
	.st137{clip-path:url(#SVGID_00000034802936716981979500000006335277081380610983_);fill:#C02126;}
	.st138{clip-path:url(#SVGID_00000034802936716981979500000006335277081380610983_);fill:#C12126;}
	.st139{clip-path:url(#SVGID_00000034802936716981979500000006335277081380610983_);fill:#C22126;}
	.st140{clip-path:url(#SVGID_00000034802936716981979500000006335277081380610983_);fill:#C32126;}
	.st141{clip-path:url(#SVGID_00000034802936716981979500000006335277081380610983_);fill:#C42126;}
	.st142{clip-path:url(#SVGID_00000034802936716981979500000006335277081380610983_);fill:#C52126;}
	.st143{clip-path:url(#SVGID_00000034802936716981979500000006335277081380610983_);fill:#C62127;}
	.st144{clip-path:url(#SVGID_00000034802936716981979500000006335277081380610983_);fill:#C72127;}
	.st145{clip-path:url(#SVGID_00000034802936716981979500000006335277081380610983_);fill:#C82127;}
	.st146{clip-path:url(#SVGID_00000034802936716981979500000006335277081380610983_);fill:#C92127;}
	.st147{clip-path:url(#SVGID_00000034802936716981979500000006335277081380610983_);fill:#CA2127;}
	.st148{clip-path:url(#SVGID_00000034802936716981979500000006335277081380610983_);fill:#CA2027;}
	.st149{clip-path:url(#SVGID_00000034802936716981979500000006335277081380610983_);fill:#CC2027;}
	.st150{clip-path:url(#SVGID_00000034802936716981979500000006335277081380610983_);fill:#CD2027;}
	.st151{clip-path:url(#SVGID_00000034802936716981979500000006335277081380610983_);fill:#CE2127;}
	.st152{clip-path:url(#SVGID_00000034802936716981979500000006335277081380610983_);fill:#CF2127;}
	.st153{clip-path:url(#SVGID_00000034802936716981979500000006335277081380610983_);fill:#D02027;}
	.st154{clip-path:url(#SVGID_00000034802936716981979500000006335277081380610983_);fill:#D12027;}
	.st155{clip-path:url(#SVGID_00000034802936716981979500000006335277081380610983_);fill:#D22027;}
	.st156{clip-path:url(#SVGID_00000034802936716981979500000006335277081380610983_);fill:#D32027;}
	.st157{clip-path:url(#SVGID_00000034802936716981979500000006335277081380610983_);fill:#D42027;}
	.st158{clip-path:url(#SVGID_00000034802936716981979500000006335277081380610983_);fill:#D52027;}
	.st159{clip-path:url(#SVGID_00000034802936716981979500000006335277081380610983_);fill:#D62027;}
	.st160{clip-path:url(#SVGID_00000034802936716981979500000006335277081380610983_);fill:#D72027;}
	.st161{clip-path:url(#SVGID_00000034802936716981979500000006335277081380610983_);fill:#D71F27;}
	.st162{clip-path:url(#SVGID_00000098215006086227625700000007180086502038765208_);}
	.st163{clip-path:url(#SVGID_00000061445715152650248120000012211555437322788255_);fill:#650F0E;}
	.st164{clip-path:url(#SVGID_00000061445715152650248120000012211555437322788255_);fill:#670E0D;}
	.st165{clip-path:url(#SVGID_00000061445715152650248120000012211555437322788255_);fill:#690C0D;}
	.st166{clip-path:url(#SVGID_00000061445715152650248120000012211555437322788255_);fill:#6C0D0F;}
	.st167{clip-path:url(#SVGID_00000061445715152650248120000012211555437322788255_);fill:#6F0F10;}
	.st168{clip-path:url(#SVGID_00000061445715152650248120000012211555437322788255_);fill:#700F10;}
	.st169{clip-path:url(#SVGID_00000061445715152650248120000012211555437322788255_);fill:#721011;}
	.st170{clip-path:url(#SVGID_00000061445715152650248120000012211555437322788255_);fill:#741012;}
	.st171{clip-path:url(#SVGID_00000061445715152650248120000012211555437322788255_);fill:#761113;}
	.st172{clip-path:url(#SVGID_00000061445715152650248120000012211555437322788255_);fill:#781214;}
	.st173{clip-path:url(#SVGID_00000061445715152650248120000012211555437322788255_);fill:#7A1214;}
	.st174{clip-path:url(#SVGID_00000061445715152650248120000012211555437322788255_);fill:#7B1315;}
	.st175{clip-path:url(#SVGID_00000061445715152650248120000012211555437322788255_);fill:#7D1416;}
	.st176{clip-path:url(#SVGID_00000061445715152650248120000012211555437322788255_);fill:#7F1416;}
	.st177{clip-path:url(#SVGID_00000061445715152650248120000012211555437322788255_);fill:#801517;}
	.st178{clip-path:url(#SVGID_00000061445715152650248120000012211555437322788255_);fill:#811517;}
	.st179{clip-path:url(#SVGID_00000061445715152650248120000012211555437322788255_);fill:#831618;}
	.st180{clip-path:url(#SVGID_00000061445715152650248120000012211555437322788255_);fill:#851619;}
	.st181{clip-path:url(#SVGID_00000061445715152650248120000012211555437322788255_);fill:#871719;}
	.st182{clip-path:url(#SVGID_00000061445715152650248120000012211555437322788255_);fill:#88171A;}
	.st183{clip-path:url(#SVGID_00000061445715152650248120000012211555437322788255_);fill:#89181A;}
	.st184{clip-path:url(#SVGID_00000061445715152650248120000012211555437322788255_);fill:#8B181B;}
	.st185{clip-path:url(#SVGID_00000061445715152650248120000012211555437322788255_);fill:#8D181B;}
	.st186{clip-path:url(#SVGID_00000061445715152650248120000012211555437322788255_);fill:#8F191C;}
	.st187{clip-path:url(#SVGID_00000061445715152650248120000012211555437322788255_);fill:#91191C;}
	.st188{clip-path:url(#SVGID_00000061445715152650248120000012211555437322788255_);fill:#921A1D;}
	.st189{clip-path:url(#SVGID_00000061445715152650248120000012211555437322788255_);fill:#941A1D;}
	.st190{clip-path:url(#SVGID_00000061445715152650248120000012211555437322788255_);fill:#951B1E;}
	.st191{clip-path:url(#SVGID_00000061445715152650248120000012211555437322788255_);fill:#971B1E;}
	.st192{clip-path:url(#SVGID_00000061445715152650248120000012211555437322788255_);fill:#981B1F;}
	.st193{clip-path:url(#SVGID_00000061445715152650248120000012211555437322788255_);fill:#9A1C1F;}
	.st194{clip-path:url(#SVGID_00000061445715152650248120000012211555437322788255_);fill:#9B1C1F;}
	.st195{clip-path:url(#SVGID_00000061445715152650248120000012211555437322788255_);fill:#9D1C20;}
	.st196{clip-path:url(#SVGID_00000061445715152650248120000012211555437322788255_);fill:#9E1D20;}
	.st197{clip-path:url(#SVGID_00000061445715152650248120000012211555437322788255_);fill:#A01D20;}
	.st198{clip-path:url(#SVGID_00000061445715152650248120000012211555437322788255_);fill:#A01D21;}
	.st199{clip-path:url(#SVGID_00000061445715152650248120000012211555437322788255_);fill:#A11D21;}
	.st200{clip-path:url(#SVGID_00000061445715152650248120000012211555437322788255_);fill:#A21E21;}
	.st201{clip-path:url(#SVGID_00000061445715152650248120000012211555437322788255_);fill:#A31E22;}
	.st202{clip-path:url(#SVGID_00000061445715152650248120000012211555437322788255_);fill:#A51E22;}
	.st203{clip-path:url(#SVGID_00000061445715152650248120000012211555437322788255_);fill:#A61E22;}
	.st204{clip-path:url(#SVGID_00000061445715152650248120000012211555437322788255_);fill:#A71E22;}
	.st205{clip-path:url(#SVGID_00000061445715152650248120000012211555437322788255_);fill:#A91E23;}
	.st206{clip-path:url(#SVGID_00000061445715152650248120000012211555437322788255_);fill:#AB1F23;}
	.st207{clip-path:url(#SVGID_00000061445715152650248120000012211555437322788255_);fill:#AC1F23;}
	.st208{clip-path:url(#SVGID_00000061445715152650248120000012211555437322788255_);fill:#AD1F23;}
	.st209{clip-path:url(#SVGID_00000061445715152650248120000012211555437322788255_);fill:#AE1F24;}
	.st210{clip-path:url(#SVGID_00000061445715152650248120000012211555437322788255_);fill:#AF1F24;}
	.st211{clip-path:url(#SVGID_00000061445715152650248120000012211555437322788255_);fill:#B22024;}
	.st212{clip-path:url(#SVGID_00000061445715152650248120000012211555437322788255_);fill:#B32025;}
	.st213{clip-path:url(#SVGID_00000061445715152650248120000012211555437322788255_);fill:#B42025;}
	.st214{clip-path:url(#SVGID_00000061445715152650248120000012211555437322788255_);fill:#B52025;}
	.st215{clip-path:url(#SVGID_00000061445715152650248120000012211555437322788255_);fill:#B72025;}
	.st216{clip-path:url(#SVGID_00000061445715152650248120000012211555437322788255_);fill:#B92025;}
	.st217{clip-path:url(#SVGID_00000061445715152650248120000012211555437322788255_);fill:#BC2026;}
	.st218{clip-path:url(#SVGID_00000061445715152650248120000012211555437322788255_);fill:#BE2126;}
	.st219{clip-path:url(#SVGID_00000061445715152650248120000012211555437322788255_);fill:#BF2126;}
	.st220{clip-path:url(#SVGID_00000061445715152650248120000012211555437322788255_);fill:#C02126;}
	.st221{clip-path:url(#SVGID_00000061445715152650248120000012211555437322788255_);fill:#C12126;}
	.st222{clip-path:url(#SVGID_00000061445715152650248120000012211555437322788255_);fill:#C22126;}
	.st223{clip-path:url(#SVGID_00000061445715152650248120000012211555437322788255_);fill:#C32126;}
	.st224{clip-path:url(#SVGID_00000061445715152650248120000012211555437322788255_);fill:#C42126;}
	.st225{clip-path:url(#SVGID_00000061445715152650248120000012211555437322788255_);fill:#C52126;}
	.st226{clip-path:url(#SVGID_00000061445715152650248120000012211555437322788255_);fill:#C62127;}
	.st227{clip-path:url(#SVGID_00000061445715152650248120000012211555437322788255_);fill:#C72127;}
	.st228{clip-path:url(#SVGID_00000061445715152650248120000012211555437322788255_);fill:#C82127;}
	.st229{clip-path:url(#SVGID_00000061445715152650248120000012211555437322788255_);fill:#C92127;}
	.st230{clip-path:url(#SVGID_00000061445715152650248120000012211555437322788255_);fill:#CA2127;}
	.st231{clip-path:url(#SVGID_00000061445715152650248120000012211555437322788255_);fill:#CA2027;}
	.st232{clip-path:url(#SVGID_00000061445715152650248120000012211555437322788255_);fill:#CC2027;}
	.st233{clip-path:url(#SVGID_00000061445715152650248120000012211555437322788255_);fill:#CD2027;}
	.st234{clip-path:url(#SVGID_00000061445715152650248120000012211555437322788255_);fill:#CE2127;}
	.st235{clip-path:url(#SVGID_00000061445715152650248120000012211555437322788255_);fill:#CF2127;}
	.st236{clip-path:url(#SVGID_00000061445715152650248120000012211555437322788255_);fill:#D02027;}
	.st237{clip-path:url(#SVGID_00000061445715152650248120000012211555437322788255_);fill:#D12027;}
	.st238{clip-path:url(#SVGID_00000061445715152650248120000012211555437322788255_);fill:#D22027;}
	.st239{clip-path:url(#SVGID_00000061445715152650248120000012211555437322788255_);fill:#D32027;}
	.st240{clip-path:url(#SVGID_00000061445715152650248120000012211555437322788255_);fill:#D42027;}
	.st241{clip-path:url(#SVGID_00000061445715152650248120000012211555437322788255_);fill:#D52027;}
	.st242{clip-path:url(#SVGID_00000061445715152650248120000012211555437322788255_);fill:#D62027;}
	.st243{clip-path:url(#SVGID_00000061445715152650248120000012211555437322788255_);fill:#D72027;}
	.st244{clip-path:url(#SVGID_00000061445715152650248120000012211555437322788255_);fill:#D71F27;}
	.st245{fill:#C3996B;}
	.st246{fill:#F06724;}
	.st247{fill:#231F20;}
	.st248{fill:#AEB3B6;}
	.st249{fill:#EE3537;}
	.st250{fill:#9BA0A3;}
	.st251{fill:#AFB3B5;}
	.st252{fill:#F2EB44;}
	.st253{fill:#FFDD26;}
	.st254{clip-path:url(#XMLID_00000102511251072425122980000017665869775599845306_);}
	.st255{fill:#7E8386;}
	.st256{fill:#A4AAAC;}
	.st257{fill:#131718;}
	.st258{fill:#007843;}
	.st259{fill:#2AB34B;}
	.st260{fill:none;stroke:#FFFFFF;stroke-width:1.4841;stroke-miterlimit:10;}
	.st261{fill:#2E3192;}
	.st262{fill:#154458;}
	.st263{fill:#C72026;}
	.st264{fill:#5FBB46;}
	.st265{fill:#1A5F30;}
	.st266{fill:#293896;}
	.st267{filter:url(#Adobe_OpacityMaskFilter_00000003071348525121066070000015368729712498848645_);}
	.st268{filter:url(#Adobe_OpacityMaskFilter_00000113311204224321703030000005286099243603358129_);}
	
		.st269{mask:url(#SVGID_00000143581162286356373330000016164867160586528674_);fill:url(#SVGID_00000028309627382946438230000015668046229511708803_);}
	.st270{filter:url(#Adobe_OpacityMaskFilter_00000075884399657112012100000013700989116698925485_);}
	.st271{filter:url(#Adobe_OpacityMaskFilter_00000085222082454399987640000016815488413431282103_);}
	
		.st272{mask:url(#SVGID_00000031915488457051892920000005392598183906897833_);fill:url(#SVGID_00000068675150409303216280000016187013909070442159_);}
	.st273{filter:url(#Adobe_OpacityMaskFilter_00000102526516375334080630000013273734625278817186_);}
	.st274{filter:url(#Adobe_OpacityMaskFilter_00000067916400887856601590000017954341312570528162_);}
	
		.st275{mask:url(#SVGID_00000130609536441379278950000018019881819863304081_);fill:url(#SVGID_00000105408236163060851480000005684719621300070585_);}
	.st276{filter:url(#Adobe_OpacityMaskFilter_00000008118437232755546780000004752450762057325711_);}
	.st277{filter:url(#Adobe_OpacityMaskFilter_00000023243814132061971010000001371676656467160252_);}
	
		.st278{mask:url(#SVGID_00000052098721580281365480000005457514091958691219_);fill:url(#SVGID_00000161623606832208036910000015595949999335648146_);}
	.st279{filter:url(#Adobe_OpacityMaskFilter_00000021800774549391933780000008557472841450817431_);}
	.st280{filter:url(#Adobe_OpacityMaskFilter_00000150783531072881672920000017499394832294522243_);}
	
		.st281{mask:url(#SVGID_00000129206724393485858500000009591000647523264953_);fill:url(#SVGID_00000030470511309993148720000008007065184702700719_);}
	.st282{filter:url(#Adobe_OpacityMaskFilter_00000088843315688366326590000006887435248155678631_);}
	.st283{filter:url(#Adobe_OpacityMaskFilter_00000005258664311298431130000009455080449626319498_);}
	
		.st284{mask:url(#SVGID_00000038373020658267518750000008840068260287695784_);fill:url(#SVGID_00000124150202978654107850000009020285374723952309_);}
	.st285{filter:url(#Adobe_OpacityMaskFilter_00000083084907006879970120000015808246677362935455_);}
	.st286{filter:url(#Adobe_OpacityMaskFilter_00000178181404273494540680000001280998199720207294_);}
	
		.st287{mask:url(#SVGID_00000107562993839740027560000018171872418920512913_);fill:url(#SVGID_00000104705519503311366220000008814894965196083360_);}
	.st288{filter:url(#Adobe_OpacityMaskFilter_00000096758705453009030620000016816234383029063582_);}
	.st289{filter:url(#Adobe_OpacityMaskFilter_00000036970448543888601710000005622376092281250741_);}
	
		.st290{mask:url(#SVGID_00000120517931027684881420000016352618218439314065_);fill:url(#SVGID_00000040576340226332510990000017465927293428015753_);}
	.st291{filter:url(#Adobe_OpacityMaskFilter_00000075862360504850037440000017099424545840984458_);}
	.st292{filter:url(#Adobe_OpacityMaskFilter_00000008130072902524933810000017257453688850411404_);}
	
		.st293{mask:url(#SVGID_00000014610861073518138430000012939114733087175862_);fill:url(#SVGID_00000062897110965796965330000004085960262972085950_);}
	.st294{filter:url(#Adobe_OpacityMaskFilter_00000137838341010075785500000000316026914417815993_);}
	.st295{filter:url(#Adobe_OpacityMaskFilter_00000160156531175445593630000014864620980687484581_);}
	
		.st296{mask:url(#SVGID_00000056415479580032798910000004177497963261163452_);fill:url(#SVGID_00000075164470581283004660000013189908253688770457_);}
	.st297{clip-path:url(#SVGID_00000182493288018689116910000001718783931095367310_);fill:#FFF200;}
	
		.st298{clip-path:url(#SVGID_00000182493288018689116910000001718783931095367310_);fill:none;stroke:#FFFFFF;stroke-width:4.8568;stroke-linejoin:round;stroke-miterlimit:10;}
	.st299{clip-path:url(#SVGID_00000182493288018689116910000001718783931095367310_);fill:#ED1C24;}
	.st300{clip-path:url(#SVGID_00000182493288018689116910000001718783931095367310_);fill:#FFFFFF;}
	.st301{clip-path:url(#SVGID_00000182493288018689116910000001718783931095367310_);fill:#2E3192;}
	.st302{clip-path:url(#SVGID_00000182493288018689116910000001718783931095367310_);}
	.st303{clip-path:url(#SVGID_00000182493288018689116910000001718783931095367310_);fill:#F4817F;}
	.st304{clip-path:url(#SVGID_00000182493288018689116910000001718783931095367310_);fill:#56BF98;}
	.st305{clip-path:url(#SVGID_00000182493288018689116910000001718783931095367310_);fill:#570C08;}
	.st306{clip-path:url(#SVGID_00000182493288018689116910000001718783931095367310_);fill:#00A750;}
	
		.st307{fill:#FFFFFF;stroke:url(#SVGID_00000170275101947454486960000014593683065628721584_);stroke-width:7.11;stroke-miterlimit:10;}
	.st308{fill:#ED2224;}
	.st309{fill:#074E28;}
	.st310{fill:#EB2627;}
	.st311{fill:#D1D3D4;}
	.st312{fill:#5F1F16;}
	.st313{fill:#F1E7E6;}
	.st314{fill:#ED2024;}
	.st315{fill:url(#SVGID_00000014606387714968621640000009104310745843593656_);}
	.st316{fill:url(#SVGID_00000073693855371184191470000009853764032545975945_);}
	.st317{fill:#BB2025;}
	.st318{fill:url(#SVGID_00000128481376632796752850000002085870002682469258_);}
	.st319{fill:url(#SVGID_00000031171211785127269610000010453890736939736753_);}
	.st320{fill:none;stroke:#7F8080;stroke-width:0.8623;stroke-miterlimit:10;}
	.st321{fill:url(#SVGID_00000078041288512223502320000018133122338083890099_);}
	.st322{fill:url(#SVGID_00000175318398813471259680000011319968537794180498_);}
	.st323{fill:url(#SVGID_00000034810892907353120060000005045010841035053732_);}
	.st324{fill:url(#SVGID_00000114761058675179533850000009199589898771152800_);}
	.st325{fill:url(#SVGID_00000025403049443520918400000011138780476876339125_);}
	.st326{fill:url(#SVGID_00000126309785574033992700000011985606322477794462_);}
	.st327{fill:url(#SVGID_00000147906898689483672360000012814431715317264811_);}
	.st328{fill:url(#SVGID_00000003099718746530447950000003206915063491367335_);}
	.st329{fill:url(#SVGID_00000070108780566187959740000003160226786907893124_);}
	.st330{fill:url(#SVGID_00000061437274626680072380000004322643574783231137_);}
	.st331{fill:url(#SVGID_00000093888784118735684720000008478054613535947701_);}
	.st332{fill:url(#SVGID_00000156559829619333555940000005148819744076834478_);}
	.st333{fill:url(#SVGID_00000157998273382155819310000001556114734693285293_);}
	.st334{fill:url(#SVGID_00000083056591370797089960000017383262394078379650_);}
	.st335{fill:#E01E26;}
</style>
<g>
	<g>
		<g>
			<g>
				<path id="XMLID_00000036947765854341553660000016131153051140697249_" class="st31" d="M56.66,133.94
					c12.07-4.59,14.33-4.87,24.65-4.87s23.91,1.57,46.17,11.13c-6.97,2.01-22.38,5.49-33.65,5.49S64.11,140.53,56.66,133.94z"/>
				<path class="st32" d="M56.66,133.94c37.64-14.62,61.62,9.17,89.03,9.17c24.55,0,38.31-13.59,38.69-36.03
					c-9.36,17.02-17.01,28.77-35.63,28.77S77.96,115.98,56.66,133.94z"/>
				<path class="st33" d="M56.66,133.94c22.54-4.58,37.16,4.52,45.09,4.49C89.43,139.48,77.96,131.84,56.66,133.94z"/>
				<path class="st34" d="M56.66,133.94c-3.34-18.15,1.69-48.91,35.6-48.91c22.29,0,36.05,7.64,60.88,7.64
					c13.47,0,29.23-5.73,29.23-5.73c8.98,28.85-8.6,48.91-33.63,48.91c-29.61,0-44.8-8.79-66.68-8.79
					C71.66,127.06,61.15,130.31,56.66,133.94z"/>
			</g>
		</g>
		<g>
			<path class="st35" d="M83.79,103.86l0.21-0.89c1.5-0.12,3.27-0.43,5.31-0.91c-0.59,1.53-1.12,3.27-1.57,5.21l-1.36,5.77
				c-0.98,4.16-2.08,7.3-3.31,9.42c1.18,0.23,2.23,0.35,3.14,0.35c2.41,0,4.51-0.51,6.3-1.52c1.79-1.01,3.21-2.49,4.26-4.43
				c1.05-1.94,1.58-4.08,1.58-6.43c0-3.07-0.89-5.54-2.68-7.41c-1.79-1.87-4.13-2.8-7.02-2.8c-2.44,0-4.74,0.58-6.9,1.74
				c-2.16,1.16-3.87,2.69-5.13,4.6c-1.26,1.91-1.89,3.76-1.89,5.57c0,1.76,0.77,3.06,2.31,3.89c0.44,0.25,0.73,0.46,0.86,0.64
				c0.13,0.18,0.2,0.4,0.2,0.66c0,0.33-0.13,0.62-0.38,0.88c-0.26,0.26-0.55,0.38-0.88,0.38c-0.73,0-1.45-0.48-2.14-1.45
				c-0.94-1.35-1.41-2.74-1.41-4.15c0-2.37,0.71-4.66,2.12-6.87c1.41-2.21,3.38-3.97,5.9-5.28c2.52-1.31,5.33-1.96,8.41-1.96
				c3.8,0,6.83,1.02,9.08,3.05c2.25,2.03,3.38,4.58,3.38,7.66c0,2.85-0.78,5.47-2.35,7.86c-1.57,2.39-3.47,4.09-5.69,5.1
				s-4.44,1.52-6.66,1.52c-0.72,0-1.96-0.07-3.72-0.21c-1.49-0.11-2.9-0.17-4.23-0.17c-0.62,0-1.56,0.02-2.83,0.06l0.48-1.01
				c1.27-0.07,2.05-0.18,2.36-0.33c0.31-0.15,0.57-0.41,0.79-0.76c0.4-0.63,0.94-2.01,1.63-4.13l1.42-5.39l1.65-6.74
				c0.08-0.33,0.12-0.61,0.12-0.85c0-0.22-0.07-0.4-0.21-0.53c-0.14-0.13-0.33-0.2-0.58-0.2C84.27,103.8,84.07,103.82,83.79,103.86z
				"/>
			<path class="st35" d="M113.82,106.36c1.35,0,2.47,0.54,3.37,1.61c0.9,1.07,1.34,2.57,1.34,4.48c0,3.06-1.07,5.8-3.22,8.24
				c-2.15,2.43-4.42,3.65-6.82,3.65c-1.47,0-2.66-0.48-3.57-1.45c-0.9-0.96-1.35-2.28-1.35-3.95c0-2.89,0.83-5.57,2.48-8.02
				C108.13,107.88,110.72,106.36,113.82,106.36z M112.06,107.91c-1.17,0-2.3,0.84-3.4,2.51c-1.1,1.67-1.64,3.99-1.64,6.93
				c0,1.79,0.34,3.2,1.01,4.24c0.5,0.76,1.16,1.14,1.98,1.14c1.16,0,2.21-0.72,3.16-2.15c1.21-1.86,1.82-4.17,1.82-6.92
				c0-2.07-0.28-3.54-0.84-4.42C113.6,108.35,112.9,107.91,112.06,107.91z"/>
			<path class="st35" d="M137.09,119.36l0.54,0.76c-1.27,1.41-2.57,2.52-3.91,3.35c-0.91,0.56-1.66,0.85-2.25,0.85
				c-0.48,0-0.87-0.19-1.17-0.58c-0.3-0.39-0.44-0.98-0.44-1.8c0-0.55,0.11-1.35,0.34-2.41c0.23-1.05,0.87-3.32,1.93-6.79
				c0.47-1.71,0.7-2.71,0.7-3c0-0.44-0.24-0.66-0.7-0.66c-0.58,0-1.31,0.29-2.18,0.87c-1.22,0.8-2.29,1.81-3.23,3.05
				c-0.59,0.79-1.07,1.96-1.43,3.52l-1.63,7.22h-3.08c0.66-2.41,1.17-4.38,1.53-5.9l3.04-13.25c0.55-2.45,1.28-4.33,2.18-5.66
				c0.9-1.32,2.08-2.38,3.53-3.16c1.45-0.79,2.89-1.18,4.31-1.18c0.59,0,1.06,0.15,1.41,0.44c0.34,0.29,0.52,0.66,0.52,1.11
				c0,0.38-0.17,0.71-0.51,1c-0.34,0.29-0.8,0.43-1.38,0.43c-0.33,0-0.76-0.04-1.28-0.11c-1.19-0.17-2.01-0.26-2.46-0.26
				c-0.63,0-1.15,0.26-1.55,0.77c-0.4,0.51-0.81,1.72-1.24,3.61l-2.31,10.2c1.64-1.72,3.43-3.17,5.36-4.35
				c1.13-0.7,2.04-1.05,2.73-1.05c0.54,0,0.96,0.16,1.26,0.47c0.3,0.32,0.46,0.76,0.46,1.32c0,0.47-0.06,0.94-0.17,1.41
				c-0.18,0.81-0.6,2.29-1.26,4.42c-0.9,2.95-1.43,4.78-1.59,5.5c-0.16,0.72-0.24,1.36-0.24,1.92c0,0.22,0.04,0.39,0.11,0.5
				c0.08,0.11,0.19,0.17,0.34,0.17c0.33,0,0.95-0.39,1.86-1.18C135.74,120.46,136.36,119.95,137.09,119.36z"/>
			<path class="st35" d="M153.21,106.01l1.36-0.29l-1.55,5.23c-0.62,2.08-1.21,4.48-1.76,7.19c-0.3,1.47-0.45,2.43-0.45,2.85
				c0,0.43,0.17,0.64,0.52,0.64c0.22,0,0.57-0.14,1.05-0.43c0.85-0.51,1.67-1.14,2.46-1.9l0.66,0.81c-1.57,1.43-2.58,2.3-3.02,2.6
				c-0.88,0.61-1.72,1.05-2.52,1.34c-0.52,0.19-1.03,0.29-1.53,0.29c-0.36,0-0.63-0.08-0.81-0.25c-0.18-0.17-0.27-0.41-0.27-0.72
				c0-0.21,0.05-0.49,0.17-0.85l0.83-2.81c-1.18,1.42-2.6,2.64-4.24,3.66c-1.01,0.63-1.93,0.95-2.77,0.95
				c-0.8,0-1.41-0.28-1.84-0.85c-0.58-0.76-0.87-1.75-0.87-2.98c0-1.46,0.39-3.09,1.17-4.88c0.78-1.79,1.82-3.42,3.13-4.88
				c1.31-1.46,2.69-2.54,4.13-3.22c1.12-0.52,2.55-0.79,4.3-0.79c0.44,0,0.89,0.03,1.34,0.08L153.21,106.01z M150.65,109.17
				c-0.74-0.15-1.37-0.23-1.88-0.23c-1.24,0-2.32,0.34-3.24,1.02c-0.92,0.68-1.78,1.91-2.57,3.68c-0.79,1.77-1.19,3.54-1.19,5.3
				c0,0.94,0.16,1.61,0.48,2.03c0.32,0.41,0.73,0.62,1.24,0.62c0.95,0,1.97-0.51,3.06-1.54c1.09-1.03,1.89-2.5,2.4-4.43
				L150.65,109.17z"/>
		</g>
	</g>
	<g>
		<g>
			<g>
				<path id="XMLID_00000036221183759479225410000005319413344658061707_" class="st36" d="M56.66,133.94
					c12.07-4.59,14.33-4.87,24.65-4.87s23.91,1.57,46.17,11.13c-6.97,2.01-22.38,5.49-33.65,5.49S64.11,140.53,56.66,133.94z"/>
				<path class="st0" d="M56.66,133.94c37.64-14.62,61.62,9.17,89.03,9.17c24.55,0,38.31-13.59,38.69-36.03
					c-9.36,17.02-17.01,28.77-35.63,28.77S77.96,115.98,56.66,133.94z"/>
				<path class="st37" d="M56.66,133.94c22.54-4.58,37.16,4.52,45.09,4.49C89.43,139.48,77.96,131.84,56.66,133.94z"/>
				<path class="st38" d="M56.66,133.94c-3.34-18.15,1.69-48.91,35.6-48.91c22.29,0,36.05,7.64,60.88,7.64
					c13.47,0,29.23-5.73,29.23-5.73c8.98,28.85-8.6,48.91-33.63,48.91c-29.61,0-44.8-8.79-66.68-8.79
					C71.66,127.06,61.15,130.31,56.66,133.94z"/>
			</g>
		</g>
		<g>
			<path class="st2" d="M83.79,103.86l0.21-0.89c1.5-0.12,3.27-0.43,5.31-0.91c-0.59,1.53-1.12,3.27-1.57,5.21l-1.36,5.77
				c-0.98,4.16-2.08,7.3-3.31,9.42c1.18,0.23,2.23,0.35,3.14,0.35c2.41,0,4.51-0.51,6.3-1.52c1.79-1.01,3.21-2.49,4.26-4.43
				c1.05-1.94,1.58-4.08,1.58-6.43c0-3.07-0.89-5.54-2.68-7.41c-1.79-1.87-4.13-2.8-7.02-2.8c-2.44,0-4.74,0.58-6.9,1.74
				c-2.16,1.16-3.87,2.69-5.13,4.6c-1.26,1.91-1.89,3.76-1.89,5.57c0,1.76,0.77,3.06,2.31,3.89c0.44,0.25,0.73,0.46,0.86,0.64
				c0.13,0.18,0.2,0.4,0.2,0.66c0,0.33-0.13,0.62-0.38,0.88c-0.26,0.26-0.55,0.38-0.88,0.38c-0.73,0-1.45-0.48-2.14-1.45
				c-0.94-1.35-1.41-2.74-1.41-4.15c0-2.37,0.71-4.66,2.12-6.87c1.41-2.21,3.38-3.97,5.9-5.28c2.52-1.31,5.33-1.96,8.41-1.96
				c3.8,0,6.83,1.02,9.08,3.05c2.25,2.03,3.38,4.58,3.38,7.66c0,2.85-0.78,5.47-2.35,7.86c-1.57,2.39-3.47,4.09-5.69,5.1
				s-4.44,1.52-6.66,1.52c-0.72,0-1.96-0.07-3.72-0.21c-1.49-0.11-2.9-0.17-4.23-0.17c-0.62,0-1.56,0.02-2.83,0.06l0.48-1.01
				c1.27-0.07,2.05-0.18,2.36-0.33c0.31-0.15,0.57-0.41,0.79-0.76c0.4-0.63,0.94-2.01,1.63-4.13l1.42-5.39l1.65-6.74
				c0.08-0.33,0.12-0.61,0.12-0.85c0-0.22-0.07-0.4-0.21-0.53c-0.14-0.13-0.33-0.2-0.58-0.2C84.27,103.8,84.07,103.82,83.79,103.86z
				"/>
			<path class="st2" d="M113.82,106.36c1.35,0,2.47,0.54,3.37,1.61c0.9,1.07,1.34,2.57,1.34,4.48c0,3.06-1.07,5.8-3.22,8.24
				c-2.15,2.43-4.42,3.65-6.82,3.65c-1.47,0-2.66-0.48-3.57-1.45c-0.9-0.96-1.35-2.28-1.35-3.95c0-2.89,0.83-5.57,2.48-8.02
				C108.13,107.88,110.72,106.36,113.82,106.36z M112.06,107.91c-1.17,0-2.3,0.84-3.4,2.51c-1.1,1.67-1.64,3.99-1.64,6.93
				c0,1.79,0.34,3.2,1.01,4.24c0.5,0.76,1.16,1.14,1.98,1.14c1.16,0,2.21-0.72,3.16-2.15c1.21-1.86,1.82-4.17,1.82-6.92
				c0-2.07-0.28-3.54-0.84-4.42C113.6,108.35,112.9,107.91,112.06,107.91z"/>
			<path class="st2" d="M137.09,119.36l0.54,0.76c-1.27,1.41-2.57,2.52-3.91,3.35c-0.91,0.56-1.66,0.85-2.25,0.85
				c-0.48,0-0.87-0.19-1.17-0.58c-0.3-0.39-0.44-0.98-0.44-1.8c0-0.55,0.11-1.35,0.34-2.41c0.23-1.05,0.87-3.32,1.93-6.79
				c0.47-1.71,0.7-2.71,0.7-3c0-0.44-0.24-0.66-0.7-0.66c-0.58,0-1.31,0.29-2.18,0.87c-1.22,0.8-2.29,1.81-3.23,3.05
				c-0.59,0.79-1.07,1.96-1.43,3.52l-1.63,7.22h-3.08c0.66-2.41,1.17-4.38,1.53-5.9l3.04-13.25c0.55-2.45,1.28-4.33,2.18-5.66
				c0.9-1.32,2.08-2.38,3.53-3.16c1.45-0.79,2.89-1.18,4.31-1.18c0.59,0,1.06,0.15,1.41,0.44c0.34,0.29,0.52,0.66,0.52,1.11
				c0,0.38-0.17,0.71-0.51,1c-0.34,0.29-0.8,0.43-1.38,0.43c-0.33,0-0.76-0.04-1.28-0.11c-1.19-0.17-2.01-0.26-2.46-0.26
				c-0.63,0-1.15,0.26-1.55,0.77c-0.4,0.51-0.81,1.72-1.24,3.61l-2.31,10.2c1.64-1.72,3.43-3.17,5.36-4.35
				c1.13-0.7,2.04-1.05,2.73-1.05c0.54,0,0.96,0.16,1.26,0.47c0.3,0.32,0.46,0.76,0.46,1.32c0,0.47-0.06,0.94-0.17,1.41
				c-0.18,0.81-0.6,2.29-1.26,4.42c-0.9,2.95-1.43,4.78-1.59,5.5c-0.16,0.72-0.24,1.36-0.24,1.92c0,0.22,0.04,0.39,0.11,0.5
				c0.08,0.11,0.19,0.17,0.34,0.17c0.33,0,0.95-0.39,1.86-1.18C135.74,120.46,136.36,119.95,137.09,119.36z"/>
			<path class="st2" d="M153.21,106.01l1.36-0.29l-1.55,5.23c-0.62,2.08-1.21,4.48-1.76,7.19c-0.3,1.47-0.45,2.43-0.45,2.85
				c0,0.43,0.17,0.64,0.52,0.64c0.22,0,0.57-0.14,1.05-0.43c0.85-0.51,1.67-1.14,2.46-1.9l0.66,0.81c-1.57,1.43-2.58,2.3-3.02,2.6
				c-0.88,0.61-1.72,1.05-2.52,1.34c-0.52,0.19-1.03,0.29-1.53,0.29c-0.36,0-0.63-0.08-0.81-0.25c-0.18-0.17-0.27-0.41-0.27-0.72
				c0-0.21,0.05-0.49,0.17-0.85l0.83-2.81c-1.18,1.42-2.6,2.64-4.24,3.66c-1.01,0.63-1.93,0.95-2.77,0.95
				c-0.8,0-1.41-0.28-1.84-0.85c-0.58-0.76-0.87-1.75-0.87-2.98c0-1.46,0.39-3.09,1.17-4.88c0.78-1.79,1.82-3.42,3.13-4.88
				c1.31-1.46,2.69-2.54,4.13-3.22c1.12-0.52,2.55-0.79,4.3-0.79c0.44,0,0.89,0.03,1.34,0.08L153.21,106.01z M150.65,109.17
				c-0.74-0.15-1.37-0.23-1.88-0.23c-1.24,0-2.32,0.34-3.24,1.02c-0.92,0.68-1.78,1.91-2.57,3.68c-0.79,1.77-1.19,3.54-1.19,5.3
				c0,0.94,0.16,1.61,0.48,2.03c0.32,0.41,0.73,0.62,1.24,0.62c0.95,0,1.97-0.51,3.06-1.54c1.09-1.03,1.89-2.5,2.4-4.43
				L150.65,109.17z"/>
		</g>
	</g>
</g>
</svg>
