<?xml version="1.0" encoding="utf-8"?>
<!-- Generator: Adobe Illustrator 27.0.0, SVG Export Plug-In . SVG Version: 6.00 Build 0)  -->
<svg version="1.1" id="Layer_1" xmlns="http://www.w3.org/2000/svg" xmlns:xlink="http://www.w3.org/1999/xlink" x="0px" y="0px"
	 viewBox="0 0 226.77 226.77" style="enable-background:new 0 0 226.77 226.77;" xml:space="preserve">
<style type="text/css">
	.st0{fill:#FFF200;}
	.st1{stroke:#000000;stroke-width:5.2476;stroke-miterlimit:10;}
	.st2{fill:#FFFFFF;}
	.st3{fill:#ED1C24;}
	.st4{fill:#50B848;}
	.st5{fill:#007F3E;}
	.st6{fill:#F58220;}
	.st7{fill:#F37021;}
	.st8{fill:#1282C5;}
	.st9{fill:#F7941D;}
	.st10{fill:#FFFFFF;stroke:#FFFFFF;stroke-width:2.321;stroke-linecap:round;stroke-linejoin:round;}
	.st11{fill:#00854A;}
	.st12{fill:#34B34A;}
	.st13{fill:#13421E;}
	.st14{fill:#8CC540;stroke:#FFFFFF;stroke-width:1.2029;stroke-miterlimit:10;}
	.st15{fill:#065643;stroke:#FFFFFF;stroke-width:1.2029;stroke-miterlimit:10;}
	.st16{fill:#FFCB05;}
	.st17{fill:#224D71;}
	.st18{fill:#F8BC1B;}
	.st19{fill:#4CB748;}
	.st20{fill:url(#SVGID_00000006670293497003764000000001119512254268285104_);}
	.st21{fill:none;stroke:#FFFFFF;stroke-width:0.8396;stroke-miterlimit:10;}
	
		.st22{fill:url(#SVGID_00000031178136256818691580000016703043240147114668_);stroke:url(#SVGID_00000142157864518600145050000005515815227646069936_);stroke-width:0.6997;stroke-miterlimit:10;}
	
		.st23{fill:url(#SVGID_00000174592451088388332410000013409147997919837881_);stroke:url(#SVGID_00000065053279822454884370000001753886988766454417_);stroke-width:0.6997;stroke-miterlimit:10;}
	
		.st24{fill:url(#SVGID_00000057110683165331319270000005395645512687937445_);stroke:url(#SVGID_00000011734118596385362590000012688903187829831851_);stroke-width:0.6997;stroke-miterlimit:10;}
	
		.st25{fill:url(#SVGID_00000060007696267147872450000000997149893302142648_);stroke:url(#SVGID_00000179612735829405814220000008290409513571423164_);stroke-width:0.6997;stroke-miterlimit:10;}
	
		.st26{fill:url(#SVGID_00000062887980477707955560000009603373401694189962_);stroke:url(#SVGID_00000160907822933550491110000011288610240967422130_);stroke-width:0.6997;stroke-miterlimit:10;}
	.st27{fill:url(#SVGID_00000085932679465897130710000013176667393481678771_);}
	.st28{fill:url(#SVGID_00000038387078127491763180000002883487035555208858_);}
	.st29{fill:#005826;}
	.st30{fill:#BFD730;}
	.st31{fill:#00A651;stroke:#000000;stroke-width:2.8889;stroke-linecap:round;stroke-linejoin:round;stroke-miterlimit:10;}
	.st32{fill:#FFF200;stroke:#000000;stroke-width:2.8889;stroke-linecap:round;stroke-linejoin:round;stroke-miterlimit:10;}
	.st33{fill:#8DC63F;stroke:#000000;stroke-width:2.8889;stroke-linecap:round;stroke-linejoin:round;stroke-miterlimit:10;}
	.st34{fill:#0DB14B;stroke:#000000;stroke-width:2.8889;stroke-linecap:round;stroke-linejoin:round;stroke-miterlimit:10;}
	.st35{fill:#FFFFFF;stroke:#000000;stroke-width:2.8889;stroke-linecap:round;stroke-linejoin:round;stroke-miterlimit:10;}
	.st36{fill:#00A651;}
	.st37{fill:#8DC63F;}
	.st38{fill:#0DB14B;}
	.st39{fill:#034EA2;}
	.st40{fill:#00763F;}
	.st41{fill:url(#SVGID_00000180335673191364712850000013834072391517180547_);}
	.st42{fill:url(#SVGID_00000171706633506928811460000004861047572469986983_);}
	.st43{fill:url(#SVGID_00000017518672661237266850000010540330367999681668_);}
	.st44{fill:url(#SVGID_00000158011746515008826690000007479159443880194729_);}
	.st45{fill:url(#SVGID_00000124877351946261776030000012006224239135143330_);}
	.st46{fill:url(#SVGID_00000166673211405030383150000015245975534180329646_);}
	.st47{fill:url(#SVGID_00000178922168278657715820000008316979574360574119_);}
	.st48{fill:url(#SVGID_00000156580598589577107460000005627818303619040678_);}
	.st49{fill:url(#SVGID_00000158030019807501455720000001504790015646400403_);}
	.st50{fill:url(#SVGID_00000012451937960917330080000005384318064665292418_);}
	.st51{fill:#FFFFFF;stroke:#FFFFFF;stroke-width:4.8073;stroke-linecap:round;stroke-linejoin:round;stroke-miterlimit:10;}
	.st52{fill:url(#SVGID_00000074440282944749200870000012403481397090653116_);}
	.st53{fill:#00A651;stroke:#00A651;stroke-width:4.2345;stroke-linecap:round;stroke-linejoin:round;stroke-miterlimit:10;}
	.st54{fill:#939598;stroke:#939598;stroke-width:4.2345;stroke-linecap:round;stroke-linejoin:round;stroke-miterlimit:10;}
	.st55{fill:#CE181E;stroke:#CE181E;stroke-width:9.3609;stroke-miterlimit:10;}
	
		.st56{fill:none;stroke:url(#SVGID_00000160172821174474684920000015831032008866819467_);stroke-width:3.3359;stroke-miterlimit:10;}
	.st57{fill-rule:evenodd;clip-rule:evenodd;fill:#21A347;}
	.st58{filter:url(#Adobe_OpacityMaskFilter);}
	
		.st59{clip-path:url(#SVGID_00000042709363821517246200000017253997778498845316_);fill-rule:evenodd;clip-rule:evenodd;fill:url(#);}
	
		.st60{opacity:0.49;clip-path:url(#SVGID_00000042709363821517246200000017253997778498845316_);mask:url(#SVGID_00000077300405915727030890000004366391653138774166_);fill-rule:evenodd;clip-rule:evenodd;}
	
		.st61{clip-path:url(#SVGID_00000042709363821517246200000017253997778498845316_);fill-rule:evenodd;clip-rule:evenodd;fill:#007836;}
	.st62{filter:url(#Adobe_OpacityMaskFilter_00000164487088247312874740000010973199050153383815_);}
	
		.st63{opacity:0.49;clip-path:url(#SVGID_00000042709363821517246200000017253997778498845316_);mask:url(#SVGID_00000064340077067751704750000011561608893300978364_);fill-rule:evenodd;clip-rule:evenodd;}
	
		.st64{clip-path:url(#SVGID_00000042709363821517246200000017253997778498845316_);fill-rule:evenodd;clip-rule:evenodd;fill:#95C940;}
	.st65{fill-rule:evenodd;clip-rule:evenodd;fill:#FFFFFF;}
	.st66{fill:#FFC759;}
	.st67{fill:#D1A342;}
	.st68{fill:none;}
	.st69{clip-path:url(#SVGID_00000183248890059952002280000000504487541977636740_);}
	.st70{clip-path:url(#SVGID_00000174597706773683786230000004754195371339845279_);}
	.st71{fill:#9E1D20;}
	.st72{fill:#86888A;}
	.st73{fill:url(#SVGID_00000043433981139022521110000007214910466089608095_);}
	.st74{fill:url(#SVGID_00000145022016213789898270000014421448123977869700_);}
	.st75{fill:url(#SVGID_00000083067491687852135540000009609248182191702701_);}
	.st76{fill:url(#SVGID_00000078032786439127633530000002984021471098709183_);}
	.st77{fill:#F89522;}
	.st78{fill:#C0BFBF;}
	.st79{clip-path:url(#SVGID_00000042714586535174389500000001024931584739325868_);}
	.st80{clip-path:url(#SVGID_00000163768329337943309380000000165398925285039494_);fill:#650F0E;}
	.st81{clip-path:url(#SVGID_00000163768329337943309380000000165398925285039494_);fill:#670E0D;}
	.st82{clip-path:url(#SVGID_00000163768329337943309380000000165398925285039494_);fill:#690C0D;}
	.st83{clip-path:url(#SVGID_00000163768329337943309380000000165398925285039494_);fill:#6C0D0F;}
	.st84{clip-path:url(#SVGID_00000163768329337943309380000000165398925285039494_);fill:#6F0F10;}
	.st85{clip-path:url(#SVGID_00000163768329337943309380000000165398925285039494_);fill:#700F10;}
	.st86{clip-path:url(#SVGID_00000163768329337943309380000000165398925285039494_);fill:#721011;}
	.st87{clip-path:url(#SVGID_00000163768329337943309380000000165398925285039494_);fill:#741012;}
	.st88{clip-path:url(#SVGID_00000163768329337943309380000000165398925285039494_);fill:#761113;}
	.st89{clip-path:url(#SVGID_00000163768329337943309380000000165398925285039494_);fill:#781214;}
	.st90{clip-path:url(#SVGID_00000163768329337943309380000000165398925285039494_);fill:#7A1214;}
	.st91{clip-path:url(#SVGID_00000163768329337943309380000000165398925285039494_);fill:#7B1315;}
	.st92{clip-path:url(#SVGID_00000163768329337943309380000000165398925285039494_);fill:#7D1416;}
	.st93{clip-path:url(#SVGID_00000163768329337943309380000000165398925285039494_);fill:#7F1416;}
	.st94{clip-path:url(#SVGID_00000163768329337943309380000000165398925285039494_);fill:#801517;}
	.st95{clip-path:url(#SVGID_00000163768329337943309380000000165398925285039494_);fill:#811517;}
	.st96{clip-path:url(#SVGID_00000163768329337943309380000000165398925285039494_);fill:#831618;}
	.st97{clip-path:url(#SVGID_00000163768329337943309380000000165398925285039494_);fill:#851619;}
	.st98{clip-path:url(#SVGID_00000163768329337943309380000000165398925285039494_);fill:#871719;}
	.st99{clip-path:url(#SVGID_00000163768329337943309380000000165398925285039494_);fill:#88171A;}
	.st100{clip-path:url(#SVGID_00000163768329337943309380000000165398925285039494_);fill:#89181A;}
	.st101{clip-path:url(#SVGID_00000163768329337943309380000000165398925285039494_);fill:#8B181B;}
	.st102{clip-path:url(#SVGID_00000163768329337943309380000000165398925285039494_);fill:#8D181B;}
	.st103{clip-path:url(#SVGID_00000163768329337943309380000000165398925285039494_);fill:#8F191C;}
	.st104{clip-path:url(#SVGID_00000163768329337943309380000000165398925285039494_);fill:#91191C;}
	.st105{clip-path:url(#SVGID_00000163768329337943309380000000165398925285039494_);fill:#921A1D;}
	.st106{clip-path:url(#SVGID_00000163768329337943309380000000165398925285039494_);fill:#941A1D;}
	.st107{clip-path:url(#SVGID_00000163768329337943309380000000165398925285039494_);fill:#951B1E;}
	.st108{clip-path:url(#SVGID_00000163768329337943309380000000165398925285039494_);fill:#971B1E;}
	.st109{clip-path:url(#SVGID_00000163768329337943309380000000165398925285039494_);fill:#981B1F;}
	.st110{clip-path:url(#SVGID_00000163768329337943309380000000165398925285039494_);fill:#9A1C1F;}
	.st111{clip-path:url(#SVGID_00000163768329337943309380000000165398925285039494_);fill:#9B1C1F;}
	.st112{clip-path:url(#SVGID_00000163768329337943309380000000165398925285039494_);fill:#9D1C20;}
	.st113{clip-path:url(#SVGID_00000163768329337943309380000000165398925285039494_);fill:#9E1D20;}
	.st114{clip-path:url(#SVGID_00000163768329337943309380000000165398925285039494_);fill:#A01D20;}
	.st115{clip-path:url(#SVGID_00000163768329337943309380000000165398925285039494_);fill:#A01D21;}
	.st116{clip-path:url(#SVGID_00000163768329337943309380000000165398925285039494_);fill:#A11D21;}
	.st117{clip-path:url(#SVGID_00000163768329337943309380000000165398925285039494_);fill:#A21E21;}
	.st118{clip-path:url(#SVGID_00000163768329337943309380000000165398925285039494_);fill:#A31E22;}
	.st119{clip-path:url(#SVGID_00000163768329337943309380000000165398925285039494_);fill:#A51E22;}
	.st120{clip-path:url(#SVGID_00000163768329337943309380000000165398925285039494_);fill:#A61E22;}
	.st121{clip-path:url(#SVGID_00000163768329337943309380000000165398925285039494_);fill:#A71E22;}
	.st122{clip-path:url(#SVGID_00000163768329337943309380000000165398925285039494_);fill:#A91E23;}
	.st123{clip-path:url(#SVGID_00000163768329337943309380000000165398925285039494_);fill:#AB1F23;}
	.st124{clip-path:url(#SVGID_00000163768329337943309380000000165398925285039494_);fill:#AC1F23;}
	.st125{clip-path:url(#SVGID_00000163768329337943309380000000165398925285039494_);fill:#AD1F23;}
	.st126{clip-path:url(#SVGID_00000163768329337943309380000000165398925285039494_);fill:#AE1F24;}
	.st127{clip-path:url(#SVGID_00000163768329337943309380000000165398925285039494_);fill:#AF1F24;}
	.st128{clip-path:url(#SVGID_00000163768329337943309380000000165398925285039494_);fill:#B22024;}
	.st129{clip-path:url(#SVGID_00000163768329337943309380000000165398925285039494_);fill:#B32025;}
	.st130{clip-path:url(#SVGID_00000163768329337943309380000000165398925285039494_);fill:#B42025;}
	.st131{clip-path:url(#SVGID_00000163768329337943309380000000165398925285039494_);fill:#B52025;}
	.st132{clip-path:url(#SVGID_00000163768329337943309380000000165398925285039494_);fill:#B72025;}
	.st133{clip-path:url(#SVGID_00000163768329337943309380000000165398925285039494_);fill:#B92025;}
	.st134{clip-path:url(#SVGID_00000163768329337943309380000000165398925285039494_);fill:#BC2026;}
	.st135{clip-path:url(#SVGID_00000163768329337943309380000000165398925285039494_);fill:#BE2126;}
	.st136{clip-path:url(#SVGID_00000163768329337943309380000000165398925285039494_);fill:#BF2126;}
	.st137{clip-path:url(#SVGID_00000163768329337943309380000000165398925285039494_);fill:#C02126;}
	.st138{clip-path:url(#SVGID_00000163768329337943309380000000165398925285039494_);fill:#C12126;}
	.st139{clip-path:url(#SVGID_00000163768329337943309380000000165398925285039494_);fill:#C22126;}
	.st140{clip-path:url(#SVGID_00000163768329337943309380000000165398925285039494_);fill:#C32126;}
	.st141{clip-path:url(#SVGID_00000163768329337943309380000000165398925285039494_);fill:#C42126;}
	.st142{clip-path:url(#SVGID_00000163768329337943309380000000165398925285039494_);fill:#C52126;}
	.st143{clip-path:url(#SVGID_00000163768329337943309380000000165398925285039494_);fill:#C62127;}
	.st144{clip-path:url(#SVGID_00000163768329337943309380000000165398925285039494_);fill:#C72127;}
	.st145{clip-path:url(#SVGID_00000163768329337943309380000000165398925285039494_);fill:#C82127;}
	.st146{clip-path:url(#SVGID_00000163768329337943309380000000165398925285039494_);fill:#C92127;}
	.st147{clip-path:url(#SVGID_00000163768329337943309380000000165398925285039494_);fill:#CA2127;}
	.st148{clip-path:url(#SVGID_00000163768329337943309380000000165398925285039494_);fill:#CA2027;}
	.st149{clip-path:url(#SVGID_00000163768329337943309380000000165398925285039494_);fill:#CC2027;}
	.st150{clip-path:url(#SVGID_00000163768329337943309380000000165398925285039494_);fill:#CD2027;}
	.st151{clip-path:url(#SVGID_00000163768329337943309380000000165398925285039494_);fill:#CE2127;}
	.st152{clip-path:url(#SVGID_00000163768329337943309380000000165398925285039494_);fill:#CF2127;}
	.st153{clip-path:url(#SVGID_00000163768329337943309380000000165398925285039494_);fill:#D02027;}
	.st154{clip-path:url(#SVGID_00000163768329337943309380000000165398925285039494_);fill:#D12027;}
	.st155{clip-path:url(#SVGID_00000163768329337943309380000000165398925285039494_);fill:#D22027;}
	.st156{clip-path:url(#SVGID_00000163768329337943309380000000165398925285039494_);fill:#D32027;}
	.st157{clip-path:url(#SVGID_00000163768329337943309380000000165398925285039494_);fill:#D42027;}
	.st158{clip-path:url(#SVGID_00000163768329337943309380000000165398925285039494_);fill:#D52027;}
	.st159{clip-path:url(#SVGID_00000163768329337943309380000000165398925285039494_);fill:#D62027;}
	.st160{clip-path:url(#SVGID_00000163768329337943309380000000165398925285039494_);fill:#D72027;}
	.st161{clip-path:url(#SVGID_00000163768329337943309380000000165398925285039494_);fill:#D71F27;}
	.st162{clip-path:url(#SVGID_00000103252345626999525430000001008179522304733312_);}
	.st163{clip-path:url(#SVGID_00000152260743024845564890000004793279020274753411_);fill:#650F0E;}
	.st164{clip-path:url(#SVGID_00000152260743024845564890000004793279020274753411_);fill:#670E0D;}
	.st165{clip-path:url(#SVGID_00000152260743024845564890000004793279020274753411_);fill:#690C0D;}
	.st166{clip-path:url(#SVGID_00000152260743024845564890000004793279020274753411_);fill:#6C0D0F;}
	.st167{clip-path:url(#SVGID_00000152260743024845564890000004793279020274753411_);fill:#6F0F10;}
	.st168{clip-path:url(#SVGID_00000152260743024845564890000004793279020274753411_);fill:#700F10;}
	.st169{clip-path:url(#SVGID_00000152260743024845564890000004793279020274753411_);fill:#721011;}
	.st170{clip-path:url(#SVGID_00000152260743024845564890000004793279020274753411_);fill:#741012;}
	.st171{clip-path:url(#SVGID_00000152260743024845564890000004793279020274753411_);fill:#761113;}
	.st172{clip-path:url(#SVGID_00000152260743024845564890000004793279020274753411_);fill:#781214;}
	.st173{clip-path:url(#SVGID_00000152260743024845564890000004793279020274753411_);fill:#7A1214;}
	.st174{clip-path:url(#SVGID_00000152260743024845564890000004793279020274753411_);fill:#7B1315;}
	.st175{clip-path:url(#SVGID_00000152260743024845564890000004793279020274753411_);fill:#7D1416;}
	.st176{clip-path:url(#SVGID_00000152260743024845564890000004793279020274753411_);fill:#7F1416;}
	.st177{clip-path:url(#SVGID_00000152260743024845564890000004793279020274753411_);fill:#801517;}
	.st178{clip-path:url(#SVGID_00000152260743024845564890000004793279020274753411_);fill:#811517;}
	.st179{clip-path:url(#SVGID_00000152260743024845564890000004793279020274753411_);fill:#831618;}
	.st180{clip-path:url(#SVGID_00000152260743024845564890000004793279020274753411_);fill:#851619;}
	.st181{clip-path:url(#SVGID_00000152260743024845564890000004793279020274753411_);fill:#871719;}
	.st182{clip-path:url(#SVGID_00000152260743024845564890000004793279020274753411_);fill:#88171A;}
	.st183{clip-path:url(#SVGID_00000152260743024845564890000004793279020274753411_);fill:#89181A;}
	.st184{clip-path:url(#SVGID_00000152260743024845564890000004793279020274753411_);fill:#8B181B;}
	.st185{clip-path:url(#SVGID_00000152260743024845564890000004793279020274753411_);fill:#8D181B;}
	.st186{clip-path:url(#SVGID_00000152260743024845564890000004793279020274753411_);fill:#8F191C;}
	.st187{clip-path:url(#SVGID_00000152260743024845564890000004793279020274753411_);fill:#91191C;}
	.st188{clip-path:url(#SVGID_00000152260743024845564890000004793279020274753411_);fill:#921A1D;}
	.st189{clip-path:url(#SVGID_00000152260743024845564890000004793279020274753411_);fill:#941A1D;}
	.st190{clip-path:url(#SVGID_00000152260743024845564890000004793279020274753411_);fill:#951B1E;}
	.st191{clip-path:url(#SVGID_00000152260743024845564890000004793279020274753411_);fill:#971B1E;}
	.st192{clip-path:url(#SVGID_00000152260743024845564890000004793279020274753411_);fill:#981B1F;}
	.st193{clip-path:url(#SVGID_00000152260743024845564890000004793279020274753411_);fill:#9A1C1F;}
	.st194{clip-path:url(#SVGID_00000152260743024845564890000004793279020274753411_);fill:#9B1C1F;}
	.st195{clip-path:url(#SVGID_00000152260743024845564890000004793279020274753411_);fill:#9D1C20;}
	.st196{clip-path:url(#SVGID_00000152260743024845564890000004793279020274753411_);fill:#9E1D20;}
	.st197{clip-path:url(#SVGID_00000152260743024845564890000004793279020274753411_);fill:#A01D20;}
	.st198{clip-path:url(#SVGID_00000152260743024845564890000004793279020274753411_);fill:#A01D21;}
	.st199{clip-path:url(#SVGID_00000152260743024845564890000004793279020274753411_);fill:#A11D21;}
	.st200{clip-path:url(#SVGID_00000152260743024845564890000004793279020274753411_);fill:#A21E21;}
	.st201{clip-path:url(#SVGID_00000152260743024845564890000004793279020274753411_);fill:#A31E22;}
	.st202{clip-path:url(#SVGID_00000152260743024845564890000004793279020274753411_);fill:#A51E22;}
	.st203{clip-path:url(#SVGID_00000152260743024845564890000004793279020274753411_);fill:#A61E22;}
	.st204{clip-path:url(#SVGID_00000152260743024845564890000004793279020274753411_);fill:#A71E22;}
	.st205{clip-path:url(#SVGID_00000152260743024845564890000004793279020274753411_);fill:#A91E23;}
	.st206{clip-path:url(#SVGID_00000152260743024845564890000004793279020274753411_);fill:#AB1F23;}
	.st207{clip-path:url(#SVGID_00000152260743024845564890000004793279020274753411_);fill:#AC1F23;}
	.st208{clip-path:url(#SVGID_00000152260743024845564890000004793279020274753411_);fill:#AD1F23;}
	.st209{clip-path:url(#SVGID_00000152260743024845564890000004793279020274753411_);fill:#AE1F24;}
	.st210{clip-path:url(#SVGID_00000152260743024845564890000004793279020274753411_);fill:#AF1F24;}
	.st211{clip-path:url(#SVGID_00000152260743024845564890000004793279020274753411_);fill:#B22024;}
	.st212{clip-path:url(#SVGID_00000152260743024845564890000004793279020274753411_);fill:#B32025;}
	.st213{clip-path:url(#SVGID_00000152260743024845564890000004793279020274753411_);fill:#B42025;}
	.st214{clip-path:url(#SVGID_00000152260743024845564890000004793279020274753411_);fill:#B52025;}
	.st215{clip-path:url(#SVGID_00000152260743024845564890000004793279020274753411_);fill:#B72025;}
	.st216{clip-path:url(#SVGID_00000152260743024845564890000004793279020274753411_);fill:#B92025;}
	.st217{clip-path:url(#SVGID_00000152260743024845564890000004793279020274753411_);fill:#BC2026;}
	.st218{clip-path:url(#SVGID_00000152260743024845564890000004793279020274753411_);fill:#BE2126;}
	.st219{clip-path:url(#SVGID_00000152260743024845564890000004793279020274753411_);fill:#BF2126;}
	.st220{clip-path:url(#SVGID_00000152260743024845564890000004793279020274753411_);fill:#C02126;}
	.st221{clip-path:url(#SVGID_00000152260743024845564890000004793279020274753411_);fill:#C12126;}
	.st222{clip-path:url(#SVGID_00000152260743024845564890000004793279020274753411_);fill:#C22126;}
	.st223{clip-path:url(#SVGID_00000152260743024845564890000004793279020274753411_);fill:#C32126;}
	.st224{clip-path:url(#SVGID_00000152260743024845564890000004793279020274753411_);fill:#C42126;}
	.st225{clip-path:url(#SVGID_00000152260743024845564890000004793279020274753411_);fill:#C52126;}
	.st226{clip-path:url(#SVGID_00000152260743024845564890000004793279020274753411_);fill:#C62127;}
	.st227{clip-path:url(#SVGID_00000152260743024845564890000004793279020274753411_);fill:#C72127;}
	.st228{clip-path:url(#SVGID_00000152260743024845564890000004793279020274753411_);fill:#C82127;}
	.st229{clip-path:url(#SVGID_00000152260743024845564890000004793279020274753411_);fill:#C92127;}
	.st230{clip-path:url(#SVGID_00000152260743024845564890000004793279020274753411_);fill:#CA2127;}
	.st231{clip-path:url(#SVGID_00000152260743024845564890000004793279020274753411_);fill:#CA2027;}
	.st232{clip-path:url(#SVGID_00000152260743024845564890000004793279020274753411_);fill:#CC2027;}
	.st233{clip-path:url(#SVGID_00000152260743024845564890000004793279020274753411_);fill:#CD2027;}
	.st234{clip-path:url(#SVGID_00000152260743024845564890000004793279020274753411_);fill:#CE2127;}
	.st235{clip-path:url(#SVGID_00000152260743024845564890000004793279020274753411_);fill:#CF2127;}
	.st236{clip-path:url(#SVGID_00000152260743024845564890000004793279020274753411_);fill:#D02027;}
	.st237{clip-path:url(#SVGID_00000152260743024845564890000004793279020274753411_);fill:#D12027;}
	.st238{clip-path:url(#SVGID_00000152260743024845564890000004793279020274753411_);fill:#D22027;}
	.st239{clip-path:url(#SVGID_00000152260743024845564890000004793279020274753411_);fill:#D32027;}
	.st240{clip-path:url(#SVGID_00000152260743024845564890000004793279020274753411_);fill:#D42027;}
	.st241{clip-path:url(#SVGID_00000152260743024845564890000004793279020274753411_);fill:#D52027;}
	.st242{clip-path:url(#SVGID_00000152260743024845564890000004793279020274753411_);fill:#D62027;}
	.st243{clip-path:url(#SVGID_00000152260743024845564890000004793279020274753411_);fill:#D72027;}
	.st244{clip-path:url(#SVGID_00000152260743024845564890000004793279020274753411_);fill:#D71F27;}
	.st245{fill:#C3996B;}
	.st246{fill:#F06724;}
	.st247{fill:#231F20;}
	.st248{fill:#AEB3B6;}
	.st249{fill:#EE3537;}
	.st250{fill:#9BA0A3;}
	.st251{fill:#AFB3B5;}
	.st252{fill:#F2EB44;}
	.st253{fill:#FFDD26;}
	.st254{clip-path:url(#XMLID_00000027566522794764894770000012266426565757200773_);}
	.st255{fill:#7E8386;}
	.st256{fill:#A4AAAC;}
	.st257{fill:#131718;}
	.st258{fill:#007843;}
	.st259{fill:#2AB34B;}
	.st260{fill:none;stroke:#FFFFFF;stroke-width:1.4841;stroke-miterlimit:10;}
	.st261{fill:#2E3192;}
	.st262{fill:#154458;}
	.st263{fill:#C72026;}
	.st264{fill:#5FBB46;}
	.st265{fill:#1A5F30;}
	.st266{fill:#293896;}
	.st267{filter:url(#Adobe_OpacityMaskFilter_00000175311713070442979130000014393268060627467406_);}
	.st268{filter:url(#Adobe_OpacityMaskFilter_00000039841429380253990190000004310405833629109920_);}
	
		.st269{mask:url(#SVGID_00000103954196084276063490000013865532081206202240_);fill:url(#SVGID_00000174563229383968522930000001226855543128873863_);}
	.st270{filter:url(#Adobe_OpacityMaskFilter_00000086668236940718433800000003205926407168734139_);}
	.st271{filter:url(#Adobe_OpacityMaskFilter_00000137089731322893790420000013200112827358734739_);}
	
		.st272{mask:url(#SVGID_00000090973857918872361250000000149748554949198760_);fill:url(#SVGID_00000067200899134390477920000016250452893458917790_);}
	.st273{filter:url(#Adobe_OpacityMaskFilter_00000144299978586775730870000015782697205497153673_);}
	.st274{filter:url(#Adobe_OpacityMaskFilter_00000166635919326673635780000009358382402909159325_);}
	
		.st275{mask:url(#SVGID_00000121257530128135765410000013545195745846639013_);fill:url(#SVGID_00000086669645975646080640000007554328770634939298_);}
	.st276{filter:url(#Adobe_OpacityMaskFilter_00000039822293865663938540000015383347101918472838_);}
	.st277{filter:url(#Adobe_OpacityMaskFilter_00000134226787232525099480000016872995009217207436_);}
	
		.st278{mask:url(#SVGID_00000169516289624158993330000009616635665155925656_);fill:url(#SVGID_00000016773869383178541380000010107645726883670150_);}
	.st279{filter:url(#Adobe_OpacityMaskFilter_00000083062587887589894340000016248519780195875001_);}
	.st280{filter:url(#Adobe_OpacityMaskFilter_00000034787972521071190050000001197603222841629072_);}
	
		.st281{mask:url(#SVGID_00000140016061216909452690000001411926432988212661_);fill:url(#SVGID_00000132050110748028856930000008041570494125844921_);}
	.st282{filter:url(#Adobe_OpacityMaskFilter_00000069358909363674081900000014596468886425839276_);}
	.st283{filter:url(#Adobe_OpacityMaskFilter_00000143591334747207157180000010435648951958567044_);}
	
		.st284{mask:url(#SVGID_00000183932150655353464810000006827393529110058653_);fill:url(#SVGID_00000026131680577244588230000007573544046291436469_);}
	.st285{filter:url(#Adobe_OpacityMaskFilter_00000090255981697484175090000015344691597830402482_);}
	.st286{filter:url(#Adobe_OpacityMaskFilter_00000166635425313603126070000001439497549046727339_);}
	
		.st287{mask:url(#SVGID_00000077315702486262816520000002915632824620658309_);fill:url(#SVGID_00000083770665598485750470000007935486994237665157_);}
	.st288{filter:url(#Adobe_OpacityMaskFilter_00000145056932619337848500000006795002511846154633_);}
	.st289{filter:url(#Adobe_OpacityMaskFilter_00000139988359861396387060000005870202791349721233_);}
	
		.st290{mask:url(#SVGID_00000044158257836009927780000013846865400019040416_);fill:url(#SVGID_00000139271756050297849650000016140140822753091995_);}
	.st291{filter:url(#Adobe_OpacityMaskFilter_00000110469784118047206850000001339737263360605340_);}
	.st292{filter:url(#Adobe_OpacityMaskFilter_00000044883142149773932150000013639061262710323118_);}
	
		.st293{mask:url(#SVGID_00000075858524127372003540000004244334998258523023_);fill:url(#SVGID_00000131344867920489547410000018098433536917902745_);}
	.st294{filter:url(#Adobe_OpacityMaskFilter_00000014602020570342277160000017793277288501547690_);}
	.st295{filter:url(#Adobe_OpacityMaskFilter_00000101062176519745829290000004010355080545976490_);}
	
		.st296{mask:url(#SVGID_00000147927920171641806960000004086240059662751134_);fill:url(#SVGID_00000034774153121783736750000006844569011203712678_);}
	.st297{clip-path:url(#SVGID_00000007407747488559168060000010844041850259352721_);fill:#FFF200;}
	
		.st298{clip-path:url(#SVGID_00000007407747488559168060000010844041850259352721_);fill:none;stroke:#FFFFFF;stroke-width:4.8568;stroke-linejoin:round;stroke-miterlimit:10;}
	.st299{clip-path:url(#SVGID_00000007407747488559168060000010844041850259352721_);fill:#ED1C24;}
	.st300{clip-path:url(#SVGID_00000007407747488559168060000010844041850259352721_);fill:#FFFFFF;}
	.st301{clip-path:url(#SVGID_00000007407747488559168060000010844041850259352721_);fill:#2E3192;}
	.st302{clip-path:url(#SVGID_00000007407747488559168060000010844041850259352721_);}
	.st303{clip-path:url(#SVGID_00000007407747488559168060000010844041850259352721_);fill:#F4817F;}
	.st304{clip-path:url(#SVGID_00000007407747488559168060000010844041850259352721_);fill:#56BF98;}
	.st305{clip-path:url(#SVGID_00000007407747488559168060000010844041850259352721_);fill:#570C08;}
	.st306{clip-path:url(#SVGID_00000007407747488559168060000010844041850259352721_);fill:#00A750;}
	
		.st307{fill:#FFFFFF;stroke:url(#SVGID_00000000181979748309776170000005480064211269752472_);stroke-width:7.11;stroke-miterlimit:10;}
	.st308{fill:#ED2224;}
	.st309{fill:#074E28;}
	.st310{fill:#EB2627;}
	.st311{fill:#D1D3D4;}
	.st312{fill:#5F1F16;}
	.st313{fill:#F1E7E6;}
	.st314{fill:#ED2024;}
	.st315{fill:url(#SVGID_00000122719259212856918990000012917264637157969593_);}
	.st316{fill:url(#SVGID_00000036934493463959234680000015153101304801716647_);}
	.st317{fill:#BB2025;}
	.st318{fill:url(#SVGID_00000130640031769286370740000011463765857012239005_);}
	.st319{fill:url(#SVGID_00000075123089744368705800000014104293857340403901_);}
	.st320{fill:none;stroke:#7F8080;stroke-width:0.8623;stroke-miterlimit:10;}
	.st321{fill:url(#SVGID_00000044877780139531086140000005019944947408262058_);}
	.st322{fill:url(#SVGID_00000075133300274283926540000000525215627484843677_);}
	.st323{fill:url(#SVGID_00000022524831737948627260000015601823266254381462_);}
	.st324{fill:url(#SVGID_00000011008852648696524160000014088079183163865988_);}
	.st325{fill:url(#SVGID_00000142878764882457974390000010385352679402713790_);}
	.st326{fill:url(#SVGID_00000169523737141026026060000011661638382380136343_);}
	.st327{fill:url(#SVGID_00000142149458605584331560000013312840669060341644_);}
	.st328{fill:url(#SVGID_00000040555285724176206820000015919691326201217447_);}
	.st329{fill:url(#SVGID_00000014611326057880418840000016260160824803250092_);}
	.st330{fill:url(#SVGID_00000149362001014034533210000008934028484397081526_);}
	.st331{fill:url(#SVGID_00000069390205474005847440000016748920413308191669_);}
	.st332{fill:url(#SVGID_00000070106705523522280570000001384500855104025790_);}
	.st333{fill:url(#SVGID_00000139284388261283610600000010085606717909553046_);}
	.st334{fill:url(#SVGID_00000171700933527746084860000016893998626469727629_);}
	.st335{fill:#E01E26;}
</style>
<g>
	<g>
		<g>
			<path class="st2" d="M43.73,100.54h7.63l5.26,22.66l5.69-22.66h7.95l5.59,22.61l5.26-22.61h7.2l-8.7,29.75h-8.11l-5.42-20.78
				l-5.42,20.78h-8.16L43.73,100.54z"/>
			<path class="st2" d="M96.95,92.59c0-2.47,1.93-4.4,4.62-4.4c2.63,0,4.62,1.93,4.62,4.4c0,2.47-1.99,4.4-4.62,4.4
				C98.88,97,96.95,95.06,96.95,92.59z M97.75,100.54h7.52v29.75h-7.52V100.54z"/>
			<path class="st2" d="M129.44,130.78c-7.46,0-12.67-4.35-13-9.88h7.57c0.27,2.26,2.36,3.97,5.37,3.97c2.95,0,4.57-1.34,4.57-3.06
				c0-5.32-16.81-1.93-16.81-12.84c0-4.94,4.4-8.92,11.76-8.92c7.2,0,11.55,3.92,11.98,9.83h-7.2c-0.21-2.31-2.04-3.87-4.99-3.87
				c-2.79,0-4.24,1.13-4.24,2.85c0,5.42,16.49,2.04,16.7,12.94C141.14,126.91,136.69,130.78,129.44,130.78z"/>
			<path class="st2" d="M152.69,90.55h7.52v13.7c1.93-2.52,5.26-4.14,9.24-4.14c6.71,0,11.6,4.51,11.6,12.73v17.45h-7.52v-16.43
				c0-4.78-2.63-7.36-6.61-7.36c-4.08,0-6.71,2.58-6.71,7.36v16.43h-7.52V90.55z"/>
		</g>
	</g>
	
		<linearGradient id="SVGID_00000032612783636681538730000006472175680395077535_" gradientUnits="userSpaceOnUse" x1="211.2705" y1="121.4293" x2="19.9564" y2="165.2219">
		<stop  offset="0" style="stop-color:#FEC932"/>
		<stop  offset="1" style="stop-color:#F37437"/>
	</linearGradient>
	<path style="fill:url(#SVGID_00000032612783636681538730000006472175680395077535_);" d="M185.62,136.24
		c-0.79-0.47-1.6-0.86-2.36-1.19c-9.2-3.91-20.74-2.2-30.1,0.01c-6.36,1.5-12.52,3.81-18.73,5.8c-5.77,1.86-11.56,3.72-17.33,5.59
		c-0.61,0.2-1.22,0.4-1.83,0.6c0,0-19.42,6.47-36.64,7.36c-0.01,0.01-0.04,0.01-0.05,0c-0.78,0.04-1.55,0.07-2.32,0.08
		c-2.37-0.83-4.9-4.43-6.41-6.9c-0.85-1.38-1.37-2.4-1.37-2.4c5.52,2.09,11.83,2.11,17.65,1.87c11.92-0.49,23.62-2.95,35.14-5.89
		c14.28-3.65,28.64-8.91,43.48-9.43c3.58-0.13,7.19,0.02,10.73,0.66c1.78,0.32,3.55,0.76,5.25,1.39c0.68,0.24,1.36,0.52,2.02,0.82
		C183.72,135.07,184.7,135.61,185.62,136.24z"/>
	
		<linearGradient id="SVGID_00000065787078982731710930000013547657912780535738_" gradientUnits="userSpaceOnUse" x1="236.0301" y1="123.6863" x2="-521.0615" y2="300.7122">
		<stop  offset="0" style="stop-color:#FEC932"/>
		<stop  offset="1" style="stop-color:#F37437"/>
	</linearGradient>
	<path style="fill:url(#SVGID_00000065787078982731710930000013547657912780535738_);" d="M189.94,140.78
		c-4.98-2.68-10.87-1.31-16.09-0.08c-5.74,1.35-11.3,3.38-16.79,5.52c-3.38,1.31-6.76,2.67-10.12,4.02
		c-9.91,3.99-19.82,8-30.05,11.1c-9.46,2.86-19.85,5.65-29.82,5.05c-6.4-0.38-12.72-2.53-17.53-6.88c-1.38-1.25-2.63-2.65-3.67-4.21
		c-0.28-0.41-0.67-1.55-1.07-1.82c2.42,1.63,11.1,1.03,11.44,1c0.77-0.01,1.54-0.04,2.32-0.08c0.02,0.01,0.04,0.01,0.05,0
		c17.23-0.88,36.64-7.36,36.64-7.36c0.61-0.2,1.22-0.4,1.83-0.6c5.77-1.87,11.56-3.73,17.33-5.59c6.21-1.99,12.37-4.3,18.73-5.8
		c9.37-2.21,20.9-3.92,30.1-0.01c0.76,0.33,1.57,0.72,2.36,1.19c0.02,0.02,0.04,0.03,0.07,0.04c0.51,0.34,1,0.71,1.46,1.11
		c0.82,0.7,1.58,1.49,2.2,2.38c0.08,0.11,0.2,0.4,0.34,0.65c0.01,0.02,0.02,0.02,0.02,0.04
		C189.79,140.62,189.87,140.74,189.94,140.78z"/>
	<path class="st317" d="M28.93,106.34c-2.61,5.2-4.57,11.25-5.22,18.13c-0.51-1.33-0.82-2.7-0.91-4.1
		C22.47,115.55,24.68,110.81,28.93,106.34z"/>
	
		<linearGradient id="SVGID_00000052088614399116130310000014897685879763296957_" gradientUnits="userSpaceOnUse" x1="-8.031" y1="120.9385" x2="521.933" y2="82.5273">
		<stop  offset="0.0359" style="stop-color:#AF1F23"/>
		<stop  offset="0.4308" style="stop-color:#F1624D"/>
		<stop  offset="1" style="stop-color:#6E0E10"/>
	</linearGradient>
	<path style="fill:url(#SVGID_00000052088614399116130310000014897685879763296957_);" d="M180.7,133.78
		c-1.7-0.62-3.47-1.07-5.25-1.39c-3.54-0.64-7.15-0.79-10.73-0.66c-14.83,0.52-29.2,5.77-43.48,9.43
		c-11.53,2.95-23.22,5.41-35.14,5.89c-5.82,0.25-12.13,0.22-17.65-1.87c0,0,0.52,1.02,1.37,2.4c-20.68-3.22-36.5-9.76-43.34-18.36
		c0,0-0.17-13.18,8.61-28.18c15.26-11.01,43.27-19.54,75.72-21.71c49.9-3.35,91.41,9.58,92.7,28.9
		C204.13,117.48,195.42,126.51,180.7,133.78z"/>
	
		<linearGradient id="SVGID_00000137812711254295352600000017027798301474392213_" gradientUnits="userSpaceOnUse" x1="54.2321" y1="63.8139" x2="-1.9931" y2="186.5629">
		<stop  offset="0" style="stop-color:#FEC932"/>
		<stop  offset="1" style="stop-color:#F37437"/>
	</linearGradient>
	<path style="fill:url(#SVGID_00000137812711254295352600000017027798301474392213_);" d="M51.87,81.77
		c-7.69,6.17-13.04,12.88-16.78,19.27c-8.78,14.99-8.61,28.18-8.61,28.18c-1.21-1.52-2.14-3.11-2.77-4.76
		c0.64-6.88,2.61-12.92,5.22-18.13C37.01,90.23,51.28,82.1,51.87,81.77z"/>
	<path class="st320" d="M51.88,81.77c-0.01,0.01-0.01,0.01-0.01,0.01"/>
	<g>
		
			<linearGradient id="SVGID_00000134216145427888266480000014152487798052347525_" gradientUnits="userSpaceOnUse" x1="183.9206" y1="20.2509" x2="-29.2897" y2="142.9072">
			<stop  offset="0" style="stop-color:#FEC932"/>
			<stop  offset="1" style="stop-color:#F37437"/>
		</linearGradient>
		<path style="fill:url(#SVGID_00000134216145427888266480000014152487798052347525_);" d="M46.08,89.57c0,0,20.92-17.03,31.68,2.13
			C77.76,91.7,66.19,87.2,46.08,89.57z"/>
		
			<linearGradient id="SVGID_00000057859344917190721270000002016834698824127117_" gradientUnits="userSpaceOnUse" x1="175.6283" y1="5.8365" x2="-37.5821" y2="128.4928">
			<stop  offset="0" style="stop-color:#FEC932"/>
			<stop  offset="1" style="stop-color:#F37437"/>
		</linearGradient>
		<path style="fill:url(#SVGID_00000057859344917190721270000002016834698824127117_);" d="M56.03,81.36c0,0-0.84-5.57,3.06-8.98
			c0,0,15.38-13.15,15.59-15.8c0,0,2.85,5.78-0.77,11.06C73.91,67.65,66.88,77.6,56.03,81.36z"/>
		
			<linearGradient id="SVGID_00000044900679053493129100000001249640860583474590_" gradientUnits="userSpaceOnUse" x1="185.0148" y1="22.1528" x2="-28.1956" y2="144.8091">
			<stop  offset="0" style="stop-color:#FEC932"/>
			<stop  offset="1" style="stop-color:#F37437"/>
		</linearGradient>
		<path style="fill:url(#SVGID_00000044900679053493129100000001249640860583474590_);" d="M68.07,79.41c0,0,14.66-10.25,24.59,5.94
			C92.65,85.35,84.77,81.54,68.07,79.41z"/>
		
			<linearGradient id="SVGID_00000009547976369090025330000003659322829277385893_" gradientUnits="userSpaceOnUse" x1="179.469" y1="12.5127" x2="-33.7414" y2="135.169">
			<stop  offset="0" style="stop-color:#FEC932"/>
			<stop  offset="1" style="stop-color:#F37437"/>
		</linearGradient>
		<path style="fill:url(#SVGID_00000009547976369090025330000003659322829277385893_);" d="M76.21,71.96c0,0,15.24,3.27,18.44-14.96
			c-0.07,0.37-0.84,0.93-1.09,1.15c-1.25,1.12-2.69,2.04-4.16,2.86c-2.32,1.29-4.87,2.11-7.21,3.35c-1.67,0.89-3.32,2.4-4.48,3.9
			C76.89,69.32,76.23,70.59,76.21,71.96z"/>
		
			<linearGradient id="SVGID_00000065062431328623982980000006289322060510161027_" gradientUnits="userSpaceOnUse" x1="187.3337" y1="26.1837" x2="-25.8767" y2="148.84">
			<stop  offset="0" style="stop-color:#FEC932"/>
			<stop  offset="1" style="stop-color:#F37437"/>
		</linearGradient>
		<path style="fill:url(#SVGID_00000065062431328623982980000006289322060510161027_);" d="M88.22,73.32
			c0.02-0.08,0.08-0.16,0.18-0.25c0.11-0.09,0.31-0.14,0.44-0.2c1.04-0.45,2.14-0.77,3.25-0.99c3.75-0.73,7.62-0.08,10.9,1.9
			c2.84,1.71,5.1,4.24,6.9,7c-2.47-1.1-5.1-2.06-7.75-2.64c-2.67-0.59-5.41-0.87-8.04-1.68c-1.62-0.5-3.17-1.19-4.62-2.06
			C89.1,74.17,88.11,73.77,88.22,73.32z"/>
		
			<linearGradient id="SVGID_00000039831333830240375150000007346308775544222352_" gradientUnits="userSpaceOnUse" x1="183.3918" y1="19.3317" x2="-29.8185" y2="141.9879">
			<stop  offset="0" style="stop-color:#FEC932"/>
			<stop  offset="1" style="stop-color:#F37437"/>
		</linearGradient>
		<path style="fill:url(#SVGID_00000039831333830240375150000007346308775544222352_);" d="M97.48,67.53c0,0,19.53,3.11,20.83-14.52
			c-3.74,3.05-8.05,6.22-12.81,7.34C102.03,61.16,97.94,63.64,97.48,67.53z"/>
		
			<linearGradient id="SVGID_00000062878200287485139300000001645897071182722234_" gradientUnits="userSpaceOnUse" x1="191.2761" y1="33.0367" x2="-21.9343" y2="155.6929">
			<stop  offset="0" style="stop-color:#FEC932"/>
			<stop  offset="1" style="stop-color:#F37437"/>
		</linearGradient>
		<path style="fill:url(#SVGID_00000062878200287485139300000001645897071182722234_);" d="M108.36,70.29
			c0,0,18.09-0.53,18.09,10.48c0-0.18-0.8-0.69-0.92-0.78c-1.37-1.08-2.82-1.92-4.48-2.46c-2.04-0.67-3.92-1.32-5.82-2.31
			C112.79,73.94,110.12,72.46,108.36,70.29z"/>
		
			<linearGradient id="SVGID_00000027572732835436505760000002309604927310959801_" gradientUnits="userSpaceOnUse" x1="196.4041" y1="41.9507" x2="-16.8062" y2="164.6069">
			<stop  offset="0" style="stop-color:#FEC932"/>
			<stop  offset="1" style="stop-color:#F37437"/>
		</linearGradient>
		<path style="fill:url(#SVGID_00000027572732835436505760000002309604927310959801_);" d="M128.42,70.29
			c0.09-0.02,0.84,1,0.92,1.09c0.9,0.98,1.89,1.88,2.95,2.69c1.29,1,2.67,1.84,4.13,2.56c3.01,1.48,5.47,3.52,6.99,6.59
			C143.41,83.21,146.98,67.06,128.42,70.29z"/>
		
			<linearGradient id="SVGID_00000072269354803776091920000009018595734837921199_" gradientUnits="userSpaceOnUse" x1="188.4564" y1="28.1353" x2="-24.7539" y2="150.7916">
			<stop  offset="0" style="stop-color:#FEC932"/>
			<stop  offset="1" style="stop-color:#F37437"/>
		</linearGradient>
		<path style="fill:url(#SVGID_00000072269354803776091920000009018595734837921199_);" d="M118.96,66.09c0,0,14.03,4.2,21.76-10.21
			c0,0-9.92,3.9-13.08,4.35C127.63,60.24,119.82,61.3,118.96,66.09z"/>
		
			<linearGradient id="SVGID_00000037657700523666196150000009253338606420987546_" gradientUnits="userSpaceOnUse" x1="195.1301" y1="39.7361" x2="-18.0802" y2="162.3924">
			<stop  offset="0" style="stop-color:#FEC932"/>
			<stop  offset="1" style="stop-color:#F37437"/>
		</linearGradient>
		<path style="fill:url(#SVGID_00000037657700523666196150000009253338606420987546_);" d="M138.6,67.69c0,0,18.25,4.66,23.87-6.1
			c0,0-1.29,2.04-14.33,1.62C148.14,63.22,144.52,62.48,138.6,67.69z"/>
		
			<linearGradient id="SVGID_00000164478365071387251940000016374572904904775333_" gradientUnits="userSpaceOnUse" x1="203.3044" y1="53.9452" x2="-9.906" y2="176.6014">
			<stop  offset="0" style="stop-color:#FEC932"/>
			<stop  offset="1" style="stop-color:#F37437"/>
		</linearGradient>
		<path style="fill:url(#SVGID_00000164478365071387251940000016374572904904775333_);" d="M147.81,73.74
			c0,0,15.61,0.52,14.66,15.83c0.03-0.53-2.06-2.15-2.4-2.48c-1.58-1.51-3.42-2.69-5.14-4.01c-1.84-1.41-3.22-3.01-4.61-4.85
			c-0.53-0.71-1.05-1.42-1.49-2.19C148.72,75.86,147.82,73.74,147.81,73.74z"/>
		
			<linearGradient id="SVGID_00000093171695653650800400000010462794245501729702_" gradientUnits="userSpaceOnUse" x1="202.8707" y1="53.1914" x2="-10.3396" y2="175.8476">
			<stop  offset="0" style="stop-color:#FEC932"/>
			<stop  offset="1" style="stop-color:#F37437"/>
		</linearGradient>
		<path style="fill:url(#SVGID_00000093171695653650800400000010462794245501729702_);" d="M159.29,72.24c0,0,9.72,3.04,13.15,2.62
			c0,0,4.22,0.19,10.95-4.18c0,0-13.41-1.72-15.12-1.58C168.27,69.11,163.18,68.62,159.29,72.24z"/>
		
			<linearGradient id="SVGID_00000001629546496625397290000017321806819439846033_" gradientUnits="userSpaceOnUse" x1="210.813" y1="66.9973" x2="-2.3973" y2="189.6535">
			<stop  offset="0" style="stop-color:#FEC932"/>
			<stop  offset="1" style="stop-color:#F37437"/>
		</linearGradient>
		<path style="fill:url(#SVGID_00000001629546496625397290000017321806819439846033_);" d="M167.44,79.55
			c0,0,12.73,2.92,12.04,17.88c0.01-0.29-0.22-0.7-0.32-0.96c-0.36-0.88-0.84-1.72-1.4-2.49c-0.93-1.29-2.08-2.4-3.36-3.33
			c-0.96-0.69-2.19-1.11-3.03-1.93c-1.23-1.2-2-2.86-2.6-4.45c-0.26-0.69-0.49-1.4-0.69-2.11
			C167.99,81.87,167.59,79.58,167.44,79.55z"/>
		
			<linearGradient id="SVGID_00000067216811343353592310000017701707463824500667_" gradientUnits="userSpaceOnUse" x1="214.118" y1="72.7423" x2="0.9077" y2="195.3986">
			<stop  offset="0" style="stop-color:#FEC932"/>
			<stop  offset="1" style="stop-color:#F37437"/>
		</linearGradient>
		<path style="fill:url(#SVGID_00000067216811343353592310000017701707463824500667_);" d="M177.97,78.9c0,0,18.14,0.93,17.72,19.09
			c-1.42-2.14-3.14-4.13-4.97-5.93c-1.22-1.2-2.53-2.32-3.96-3.26c-0.7-0.46-1.43-0.89-2.19-1.24c-1.71-0.77-3.15-1.72-4.38-3.16
			C178.87,82.86,178,80.95,177.97,78.9z"/>
	</g>
	<g>
		<g>
			<path class="st335" d="M99.5,162.74c-1.22,0.43-2.41-0.11-2.89-1.47c-0.47-1.35,0.09-2.5,1.34-2.94
				c1.24-0.44,2.36,0.15,2.77,1.32c0.05,0.16,0.09,0.28,0.13,0.44l-3.41,1.2c0.36,0.85,1.13,1.11,1.86,0.85
				c0.64-0.22,0.93-0.69,0.92-1.21l0.76-0.27C101.03,161.52,100.56,162.37,99.5,162.74z M97.24,160.71l2.69-0.95
				c-0.28-0.84-1.07-1.08-1.8-0.82C97.44,159.19,97.03,159.85,97.24,160.71z"/>
			<path class="st335" d="M104.73,158.13c-0.3-0.87-0.93-1.15-1.65-0.9c-0.72,0.25-1.07,0.88-0.75,1.8l0.82,2.36l-0.71,0.25
				l-1.49-4.27l0.71-0.25l0.21,0.61c0.13-0.54,0.56-0.96,1.13-1.16c0.99-0.34,1.96,0,2.38,1.22l0.88,2.52l-0.7,0.24L104.73,158.13z"
				/>
			<path class="st335" d="M108.97,159.44c-1,0.35-1.89,0.04-2.21-0.72l0.73-0.25c0.18,0.4,0.66,0.59,1.26,0.38
				c0.56-0.19,0.78-0.58,0.66-0.93c-0.33-0.95-2.67,0.48-3.22-1.12c-0.23-0.66,0.2-1.41,1.16-1.74c0.94-0.33,1.74-0.03,2.08,0.78
				l-0.71,0.25c-0.18-0.42-0.62-0.62-1.18-0.42c-0.52,0.18-0.75,0.54-0.63,0.88c0.35,1.01,2.64-0.4,3.2,1.12
				C110.35,158.37,109.92,159.12,108.97,159.44z"/>
			<path class="st335" d="M115.3,157.19l-0.71,0.24l-0.22-0.63c-0.12,0.54-0.56,0.97-1.13,1.16c-0.98,0.34-1.96-0.01-2.38-1.23
				l-0.86-2.5l0.7-0.24l0.83,2.41c0.3,0.87,0.92,1.15,1.64,0.9c0.73-0.25,1.07-0.87,0.75-1.79l-0.8-2.35l0.71-0.24L115.3,157.19z"/>
			<path class="st335" d="M117.2,156.55l-0.71,0.24l-1.46-4.28l0.71-0.24l0.24,0.7c0.08-0.56,0.44-1.01,1.12-1.24l0.25,0.73
				l-0.19,0.06c-0.68,0.23-1.09,0.71-0.75,1.7L117.2,156.55z"/>
			<path class="st335" d="M121.3,155.24c-1.22,0.41-2.41-0.15-2.87-1.51c-0.46-1.35,0.13-2.5,1.38-2.92
				c1.24-0.42,2.35,0.18,2.75,1.36c0.05,0.16,0.09,0.28,0.12,0.44l-3.42,1.15c0.35,0.85,1.12,1.12,1.84,0.88
				c0.64-0.22,0.94-0.68,0.94-1.19l0.77-0.26C122.84,154.04,122.36,154.88,121.3,155.24z M119.06,153.18l2.7-0.91
				c-0.27-0.84-1.05-1.09-1.79-0.84C119.28,151.66,118.86,152.32,119.06,153.18z"/>
			<path class="st335" d="M125.8,153.73c-1,0.33-1.89,0.02-2.2-0.75l0.74-0.25c0.18,0.4,0.65,0.59,1.25,0.39
				c0.56-0.19,0.78-0.57,0.67-0.93c-0.32-0.96-2.67,0.44-3.2-1.15c-0.22-0.66,0.22-1.4,1.17-1.72c0.95-0.32,1.74-0.01,2.07,0.81
				l-0.71,0.24c-0.17-0.42-0.61-0.62-1.18-0.43c-0.52,0.17-0.75,0.53-0.64,0.87c0.34,1.02,2.64-0.37,3.19,1.16
				C127.18,152.68,126.74,153.42,125.8,153.73z"/>
			<path class="st335" d="M131.31,146.99c1.16-0.38,2.32,0.2,2.76,1.54c0.44,1.33-0.15,2.52-1.31,2.9
				c-0.78,0.26-1.47,0.05-1.89-0.34l0.26,0.79l-0.71,0.23l-1.9-5.8l0.71-0.23l0.75,2.31C130.1,147.82,130.55,147.24,131.31,146.99z
				 M131.36,147.66c-0.78,0.25-1.26,1.07-0.94,2.07c0.33,1.01,1.21,1.38,1.98,1.12c0.79-0.26,1.26-1.07,0.93-2.08
				C133.01,147.75,132.15,147.4,131.36,147.66z"/>
			<path class="st335" d="M137.6,149.86c-1.23,0.39-2.41-0.18-2.85-1.55c-0.44-1.36,0.16-2.5,1.42-2.9c1.25-0.4,2.35,0.22,2.73,1.39
				c0.05,0.16,0.08,0.29,0.12,0.44l-3.44,1.11c0.34,0.85,1.1,1.14,1.83,0.9c0.64-0.21,0.95-0.67,0.95-1.18l0.77-0.25
				C139.16,148.68,138.67,149.51,137.6,149.86z M135.39,147.77l2.72-0.87c-0.26-0.84-1.04-1.1-1.78-0.87
				C135.64,146.25,135.2,146.9,135.39,147.77z"/>
			<path class="st335" d="M142.14,148.41c-1.01,0.32-1.89-0.01-2.19-0.78l0.74-0.23c0.17,0.4,0.64,0.6,1.25,0.41
				c0.57-0.18,0.79-0.56,0.68-0.92c-0.3-0.96-2.68,0.4-3.18-1.2c-0.21-0.66,0.24-1.4,1.2-1.7c0.95-0.3,1.74,0.01,2.06,0.84
				l-0.72,0.23c-0.17-0.42-0.6-0.63-1.17-0.45c-0.53,0.17-0.76,0.52-0.65,0.86c0.32,1.02,2.65-0.33,3.17,1.21
				C143.54,147.38,143.09,148.11,142.14,148.41z"/>
			<path class="st335" d="M143.69,143.74l-0.56,0.17l-0.18-0.59l0.56-0.17l-0.34-1.09l0.72-0.22l0.34,1.09l1.13-0.35l0.18,0.59
				l-1.13,0.35l0.79,2.55c0.13,0.43,0.34,0.53,0.78,0.39l0.53-0.17l0.19,0.61l-0.65,0.2c-0.76,0.24-1.3,0.06-1.57-0.81
				L143.69,143.74z"/>
			<path class="st335" d="M148.64,142.22l-0.56,0.17l-0.18-0.59l0.56-0.17l-0.09-0.31c-0.29-0.96,0.05-1.54,1.15-1.88l0.18,0.6
				c-0.65,0.2-0.79,0.5-0.62,1.06l0.09,0.31l0.91-0.28l0.18,0.59l-0.91,0.28l1.13,3.73l-0.72,0.22L148.64,142.22z"/>
			<path class="st335" d="M154.14,144.72c-1.23,0.36-2.42-0.23-2.82-1.61c-0.41-1.37,0.3-2.52,1.53-2.88
				c1.23-0.37,2.45,0.21,2.85,1.58C156.1,143.19,155.37,144.35,154.14,144.72z M153.95,144.08c0.75-0.22,1.33-0.95,1.01-2.05
				c-0.32-1.09-1.19-1.39-1.94-1.17c-0.76,0.22-1.29,0.94-0.97,2.03C152.37,143.99,153.2,144.31,153.95,144.08z"/>
			<path class="st335" d="M159.2,143.25c-1.23,0.35-2.42-0.26-2.8-1.65c-0.39-1.37,0.34-2.51,1.57-2.86
				c1.24-0.35,2.44,0.25,2.83,1.62C161.19,141.75,160.44,142.9,159.2,143.25z M159.02,142.62c0.75-0.21,1.35-0.94,1.04-2.04
				c-0.31-1.1-1.18-1.41-1.92-1.2c-0.76,0.21-1.31,0.93-1,2.02C157.44,142.5,158.26,142.83,159.02,142.62z"/>
			<path class="st335" d="M163.01,137.38c0.69-0.18,1.41,0.01,1.84,0.44l-0.6-2.32l0.73-0.19l1.53,5.91l-0.73,0.19l-0.21-0.82
				c-0.14,0.56-0.6,1.11-1.4,1.32c-1.17,0.3-2.31-0.38-2.67-1.74C161.15,138.8,161.83,137.68,163.01,137.38z M163.31,137.97
				c-0.8,0.21-1.33,0.97-1.06,2c0.27,1.03,1.1,1.46,1.9,1.26c0.8-0.21,1.33-0.98,1.06-2.01
				C164.95,138.2,164.11,137.77,163.31,137.97z"/>
		</g>
	</g>
</g>
</svg>
