<?xml version="1.0" encoding="utf-8"?>
<!-- Generator: Adobe Illustrator 27.0.0, SVG Export Plug-In . SVG Version: 6.00 Build 0)  -->
<svg version="1.1" id="Layer_1" xmlns="http://www.w3.org/2000/svg" xmlns:xlink="http://www.w3.org/1999/xlink" x="0px" y="0px"
	 viewBox="0 0 226.77 226.77" style="enable-background:new 0 0 226.77 226.77;" xml:space="preserve">
<style type="text/css">
	.st0{fill:#FFF200;}
	.st1{stroke:#000000;stroke-width:5.2476;stroke-miterlimit:10;}
	.st2{fill:#FFFFFF;}
	.st3{fill:#ED1C24;}
	.st4{fill:#50B848;}
	.st5{fill:#007F3E;}
	.st6{fill:#F58220;}
	.st7{fill:#F37021;}
	.st8{fill:#1282C5;}
	.st9{fill:#F7941D;}
	.st10{fill:#FFFFFF;stroke:#FFFFFF;stroke-width:2.321;stroke-linecap:round;stroke-linejoin:round;}
	.st11{fill:#00854A;}
	.st12{fill:#34B34A;}
	.st13{fill:#13421E;}
	.st14{fill:#8CC540;stroke:#FFFFFF;stroke-width:1.2029;stroke-miterlimit:10;}
	.st15{fill:#065643;stroke:#FFFFFF;stroke-width:1.2029;stroke-miterlimit:10;}
	.st16{fill:#FFCB05;}
	.st17{fill:#224D71;}
	.st18{fill:#F8BC1B;}
	.st19{fill:#4CB748;}
	.st20{fill:url(#SVGID_00000062895132761555038990000016484008113683249321_);}
	.st21{fill:none;stroke:#FFFFFF;stroke-width:0.8396;stroke-miterlimit:10;}
	
		.st22{fill:url(#SVGID_00000091715850977189566690000015205396364819105462_);stroke:url(#SVGID_00000052096680571858282110000009512522632161852549_);stroke-width:0.6997;stroke-miterlimit:10;}
	
		.st23{fill:url(#SVGID_00000087374838449359082100000008692256427021958558_);stroke:url(#SVGID_00000140000759652578603030000009674048756037999246_);stroke-width:0.6997;stroke-miterlimit:10;}
	
		.st24{fill:url(#SVGID_00000007390225483601511120000007530889308402649527_);stroke:url(#SVGID_00000143615601315751566060000008087989809280735890_);stroke-width:0.6997;stroke-miterlimit:10;}
	
		.st25{fill:url(#SVGID_00000150102020868274946870000002591551292364243369_);stroke:url(#SVGID_00000088829190748088195050000014670927990867059122_);stroke-width:0.6997;stroke-miterlimit:10;}
	
		.st26{fill:url(#SVGID_00000081626474788958559730000001828723742982803108_);stroke:url(#SVGID_00000168091117195012992380000015372199200614706572_);stroke-width:0.6997;stroke-miterlimit:10;}
	.st27{fill:url(#SVGID_00000116206401166322512340000013707339359365206439_);}
	.st28{fill:url(#SVGID_00000152244307352978128860000000906085662349992371_);}
	.st29{fill:#005826;}
	.st30{fill:#BFD730;}
	.st31{fill:#00A651;stroke:#000000;stroke-width:2.8889;stroke-linecap:round;stroke-linejoin:round;stroke-miterlimit:10;}
	.st32{fill:#FFF200;stroke:#000000;stroke-width:2.8889;stroke-linecap:round;stroke-linejoin:round;stroke-miterlimit:10;}
	.st33{fill:#8DC63F;stroke:#000000;stroke-width:2.8889;stroke-linecap:round;stroke-linejoin:round;stroke-miterlimit:10;}
	.st34{fill:#0DB14B;stroke:#000000;stroke-width:2.8889;stroke-linecap:round;stroke-linejoin:round;stroke-miterlimit:10;}
	.st35{fill:#FFFFFF;stroke:#000000;stroke-width:2.8889;stroke-linecap:round;stroke-linejoin:round;stroke-miterlimit:10;}
	.st36{fill:#00A651;}
	.st37{fill:#8DC63F;}
	.st38{fill:#0DB14B;}
	.st39{fill:#034EA2;}
	.st40{fill:#00763F;}
	.st41{fill:url(#SVGID_00000067230321717958979300000012077973894923420330_);}
	.st42{fill:url(#SVGID_00000083769949466013074620000018083955465214054805_);}
	.st43{fill:url(#SVGID_00000037687600575679152840000005982177096341547443_);}
	.st44{fill:url(#SVGID_00000157283442900789517830000007390277796285903504_);}
	.st45{fill:url(#SVGID_00000162333446611810513980000005907550543748428967_);}
	.st46{fill:url(#SVGID_00000046322119540675176420000009022968758043284361_);}
	.st47{fill:url(#SVGID_00000123402158586051343840000007284388864364665501_);}
	.st48{fill:url(#SVGID_00000136382980298573467700000005160782173166269603_);}
	.st49{fill:url(#SVGID_00000043431622805995878330000001883664230063865530_);}
	.st50{fill:url(#SVGID_00000080177917315221126710000006930999423549711276_);}
	.st51{fill:#FFFFFF;stroke:#FFFFFF;stroke-width:4.8073;stroke-linecap:round;stroke-linejoin:round;stroke-miterlimit:10;}
	.st52{fill:url(#SVGID_00000116237624535387430970000003783942188211852985_);}
	.st53{fill:#00A651;stroke:#00A651;stroke-width:4.2345;stroke-linecap:round;stroke-linejoin:round;stroke-miterlimit:10;}
	.st54{fill:#939598;stroke:#939598;stroke-width:4.2345;stroke-linecap:round;stroke-linejoin:round;stroke-miterlimit:10;}
	.st55{fill:#CE181E;stroke:#CE181E;stroke-width:9.3609;stroke-miterlimit:10;}
	
		.st56{fill:none;stroke:url(#SVGID_00000097478148846891120320000000439326416623541943_);stroke-width:3.3359;stroke-miterlimit:10;}
	.st57{fill-rule:evenodd;clip-rule:evenodd;fill:#21A347;}
	.st58{filter:url(#Adobe_OpacityMaskFilter);}
	
		.st59{clip-path:url(#SVGID_00000182500437349967294450000007499443347483210378_);fill-rule:evenodd;clip-rule:evenodd;fill:url(#);}
	
		.st60{opacity:0.49;clip-path:url(#SVGID_00000182500437349967294450000007499443347483210378_);mask:url(#SVGID_00000063635161898461455010000005368627180404227221_);fill-rule:evenodd;clip-rule:evenodd;}
	
		.st61{clip-path:url(#SVGID_00000182500437349967294450000007499443347483210378_);fill-rule:evenodd;clip-rule:evenodd;fill:#007836;}
	.st62{filter:url(#Adobe_OpacityMaskFilter_00000147925767722143024950000015640700505520844720_);}
	
		.st63{opacity:0.49;clip-path:url(#SVGID_00000182500437349967294450000007499443347483210378_);mask:url(#SVGID_00000065052649826655525790000001490497102353097367_);fill-rule:evenodd;clip-rule:evenodd;}
	
		.st64{clip-path:url(#SVGID_00000182500437349967294450000007499443347483210378_);fill-rule:evenodd;clip-rule:evenodd;fill:#95C940;}
	.st65{fill-rule:evenodd;clip-rule:evenodd;fill:#FFFFFF;}
	.st66{fill:#FFC759;}
	.st67{fill:#D1A342;}
	.st68{fill:none;}
	.st69{clip-path:url(#SVGID_00000013898418396559190370000002665309209666384517_);}
	.st70{clip-path:url(#SVGID_00000109021877326024943670000002119854776919832758_);}
	.st71{fill:#9E1D20;}
	.st72{fill:#86888A;}
	.st73{fill:url(#SVGID_00000023244934102473485560000012587472778518388879_);}
	.st74{fill:url(#SVGID_00000047051681786357640240000014585801697682444194_);}
	.st75{fill:url(#SVGID_00000132796258042302841620000009561474190189929394_);}
	.st76{fill:url(#SVGID_00000016771627701783570340000000118518090383151503_);}
	.st77{fill:#F89522;}
	.st78{fill:#C0BFBF;}
	.st79{clip-path:url(#SVGID_00000173854754230664469030000001667957987213804928_);}
	.st80{clip-path:url(#SVGID_00000105415613712886470460000008347355415036615580_);fill:#650F0E;}
	.st81{clip-path:url(#SVGID_00000105415613712886470460000008347355415036615580_);fill:#670E0D;}
	.st82{clip-path:url(#SVGID_00000105415613712886470460000008347355415036615580_);fill:#690C0D;}
	.st83{clip-path:url(#SVGID_00000105415613712886470460000008347355415036615580_);fill:#6C0D0F;}
	.st84{clip-path:url(#SVGID_00000105415613712886470460000008347355415036615580_);fill:#6F0F10;}
	.st85{clip-path:url(#SVGID_00000105415613712886470460000008347355415036615580_);fill:#700F10;}
	.st86{clip-path:url(#SVGID_00000105415613712886470460000008347355415036615580_);fill:#721011;}
	.st87{clip-path:url(#SVGID_00000105415613712886470460000008347355415036615580_);fill:#741012;}
	.st88{clip-path:url(#SVGID_00000105415613712886470460000008347355415036615580_);fill:#761113;}
	.st89{clip-path:url(#SVGID_00000105415613712886470460000008347355415036615580_);fill:#781214;}
	.st90{clip-path:url(#SVGID_00000105415613712886470460000008347355415036615580_);fill:#7A1214;}
	.st91{clip-path:url(#SVGID_00000105415613712886470460000008347355415036615580_);fill:#7B1315;}
	.st92{clip-path:url(#SVGID_00000105415613712886470460000008347355415036615580_);fill:#7D1416;}
	.st93{clip-path:url(#SVGID_00000105415613712886470460000008347355415036615580_);fill:#7F1416;}
	.st94{clip-path:url(#SVGID_00000105415613712886470460000008347355415036615580_);fill:#801517;}
	.st95{clip-path:url(#SVGID_00000105415613712886470460000008347355415036615580_);fill:#811517;}
	.st96{clip-path:url(#SVGID_00000105415613712886470460000008347355415036615580_);fill:#831618;}
	.st97{clip-path:url(#SVGID_00000105415613712886470460000008347355415036615580_);fill:#851619;}
	.st98{clip-path:url(#SVGID_00000105415613712886470460000008347355415036615580_);fill:#871719;}
	.st99{clip-path:url(#SVGID_00000105415613712886470460000008347355415036615580_);fill:#88171A;}
	.st100{clip-path:url(#SVGID_00000105415613712886470460000008347355415036615580_);fill:#89181A;}
	.st101{clip-path:url(#SVGID_00000105415613712886470460000008347355415036615580_);fill:#8B181B;}
	.st102{clip-path:url(#SVGID_00000105415613712886470460000008347355415036615580_);fill:#8D181B;}
	.st103{clip-path:url(#SVGID_00000105415613712886470460000008347355415036615580_);fill:#8F191C;}
	.st104{clip-path:url(#SVGID_00000105415613712886470460000008347355415036615580_);fill:#91191C;}
	.st105{clip-path:url(#SVGID_00000105415613712886470460000008347355415036615580_);fill:#921A1D;}
	.st106{clip-path:url(#SVGID_00000105415613712886470460000008347355415036615580_);fill:#941A1D;}
	.st107{clip-path:url(#SVGID_00000105415613712886470460000008347355415036615580_);fill:#951B1E;}
	.st108{clip-path:url(#SVGID_00000105415613712886470460000008347355415036615580_);fill:#971B1E;}
	.st109{clip-path:url(#SVGID_00000105415613712886470460000008347355415036615580_);fill:#981B1F;}
	.st110{clip-path:url(#SVGID_00000105415613712886470460000008347355415036615580_);fill:#9A1C1F;}
	.st111{clip-path:url(#SVGID_00000105415613712886470460000008347355415036615580_);fill:#9B1C1F;}
	.st112{clip-path:url(#SVGID_00000105415613712886470460000008347355415036615580_);fill:#9D1C20;}
	.st113{clip-path:url(#SVGID_00000105415613712886470460000008347355415036615580_);fill:#9E1D20;}
	.st114{clip-path:url(#SVGID_00000105415613712886470460000008347355415036615580_);fill:#A01D20;}
	.st115{clip-path:url(#SVGID_00000105415613712886470460000008347355415036615580_);fill:#A01D21;}
	.st116{clip-path:url(#SVGID_00000105415613712886470460000008347355415036615580_);fill:#A11D21;}
	.st117{clip-path:url(#SVGID_00000105415613712886470460000008347355415036615580_);fill:#A21E21;}
	.st118{clip-path:url(#SVGID_00000105415613712886470460000008347355415036615580_);fill:#A31E22;}
	.st119{clip-path:url(#SVGID_00000105415613712886470460000008347355415036615580_);fill:#A51E22;}
	.st120{clip-path:url(#SVGID_00000105415613712886470460000008347355415036615580_);fill:#A61E22;}
	.st121{clip-path:url(#SVGID_00000105415613712886470460000008347355415036615580_);fill:#A71E22;}
	.st122{clip-path:url(#SVGID_00000105415613712886470460000008347355415036615580_);fill:#A91E23;}
	.st123{clip-path:url(#SVGID_00000105415613712886470460000008347355415036615580_);fill:#AB1F23;}
	.st124{clip-path:url(#SVGID_00000105415613712886470460000008347355415036615580_);fill:#AC1F23;}
	.st125{clip-path:url(#SVGID_00000105415613712886470460000008347355415036615580_);fill:#AD1F23;}
	.st126{clip-path:url(#SVGID_00000105415613712886470460000008347355415036615580_);fill:#AE1F24;}
	.st127{clip-path:url(#SVGID_00000105415613712886470460000008347355415036615580_);fill:#AF1F24;}
	.st128{clip-path:url(#SVGID_00000105415613712886470460000008347355415036615580_);fill:#B22024;}
	.st129{clip-path:url(#SVGID_00000105415613712886470460000008347355415036615580_);fill:#B32025;}
	.st130{clip-path:url(#SVGID_00000105415613712886470460000008347355415036615580_);fill:#B42025;}
	.st131{clip-path:url(#SVGID_00000105415613712886470460000008347355415036615580_);fill:#B52025;}
	.st132{clip-path:url(#SVGID_00000105415613712886470460000008347355415036615580_);fill:#B72025;}
	.st133{clip-path:url(#SVGID_00000105415613712886470460000008347355415036615580_);fill:#B92025;}
	.st134{clip-path:url(#SVGID_00000105415613712886470460000008347355415036615580_);fill:#BC2026;}
	.st135{clip-path:url(#SVGID_00000105415613712886470460000008347355415036615580_);fill:#BE2126;}
	.st136{clip-path:url(#SVGID_00000105415613712886470460000008347355415036615580_);fill:#BF2126;}
	.st137{clip-path:url(#SVGID_00000105415613712886470460000008347355415036615580_);fill:#C02126;}
	.st138{clip-path:url(#SVGID_00000105415613712886470460000008347355415036615580_);fill:#C12126;}
	.st139{clip-path:url(#SVGID_00000105415613712886470460000008347355415036615580_);fill:#C22126;}
	.st140{clip-path:url(#SVGID_00000105415613712886470460000008347355415036615580_);fill:#C32126;}
	.st141{clip-path:url(#SVGID_00000105415613712886470460000008347355415036615580_);fill:#C42126;}
	.st142{clip-path:url(#SVGID_00000105415613712886470460000008347355415036615580_);fill:#C52126;}
	.st143{clip-path:url(#SVGID_00000105415613712886470460000008347355415036615580_);fill:#C62127;}
	.st144{clip-path:url(#SVGID_00000105415613712886470460000008347355415036615580_);fill:#C72127;}
	.st145{clip-path:url(#SVGID_00000105415613712886470460000008347355415036615580_);fill:#C82127;}
	.st146{clip-path:url(#SVGID_00000105415613712886470460000008347355415036615580_);fill:#C92127;}
	.st147{clip-path:url(#SVGID_00000105415613712886470460000008347355415036615580_);fill:#CA2127;}
	.st148{clip-path:url(#SVGID_00000105415613712886470460000008347355415036615580_);fill:#CA2027;}
	.st149{clip-path:url(#SVGID_00000105415613712886470460000008347355415036615580_);fill:#CC2027;}
	.st150{clip-path:url(#SVGID_00000105415613712886470460000008347355415036615580_);fill:#CD2027;}
	.st151{clip-path:url(#SVGID_00000105415613712886470460000008347355415036615580_);fill:#CE2127;}
	.st152{clip-path:url(#SVGID_00000105415613712886470460000008347355415036615580_);fill:#CF2127;}
	.st153{clip-path:url(#SVGID_00000105415613712886470460000008347355415036615580_);fill:#D02027;}
	.st154{clip-path:url(#SVGID_00000105415613712886470460000008347355415036615580_);fill:#D12027;}
	.st155{clip-path:url(#SVGID_00000105415613712886470460000008347355415036615580_);fill:#D22027;}
	.st156{clip-path:url(#SVGID_00000105415613712886470460000008347355415036615580_);fill:#D32027;}
	.st157{clip-path:url(#SVGID_00000105415613712886470460000008347355415036615580_);fill:#D42027;}
	.st158{clip-path:url(#SVGID_00000105415613712886470460000008347355415036615580_);fill:#D52027;}
	.st159{clip-path:url(#SVGID_00000105415613712886470460000008347355415036615580_);fill:#D62027;}
	.st160{clip-path:url(#SVGID_00000105415613712886470460000008347355415036615580_);fill:#D72027;}
	.st161{clip-path:url(#SVGID_00000105415613712886470460000008347355415036615580_);fill:#D71F27;}
	.st162{clip-path:url(#SVGID_00000134941695995577606430000013095877669918226065_);}
	.st163{clip-path:url(#SVGID_00000010991564461559184520000000276728720211439265_);fill:#650F0E;}
	.st164{clip-path:url(#SVGID_00000010991564461559184520000000276728720211439265_);fill:#670E0D;}
	.st165{clip-path:url(#SVGID_00000010991564461559184520000000276728720211439265_);fill:#690C0D;}
	.st166{clip-path:url(#SVGID_00000010991564461559184520000000276728720211439265_);fill:#6C0D0F;}
	.st167{clip-path:url(#SVGID_00000010991564461559184520000000276728720211439265_);fill:#6F0F10;}
	.st168{clip-path:url(#SVGID_00000010991564461559184520000000276728720211439265_);fill:#700F10;}
	.st169{clip-path:url(#SVGID_00000010991564461559184520000000276728720211439265_);fill:#721011;}
	.st170{clip-path:url(#SVGID_00000010991564461559184520000000276728720211439265_);fill:#741012;}
	.st171{clip-path:url(#SVGID_00000010991564461559184520000000276728720211439265_);fill:#761113;}
	.st172{clip-path:url(#SVGID_00000010991564461559184520000000276728720211439265_);fill:#781214;}
	.st173{clip-path:url(#SVGID_00000010991564461559184520000000276728720211439265_);fill:#7A1214;}
	.st174{clip-path:url(#SVGID_00000010991564461559184520000000276728720211439265_);fill:#7B1315;}
	.st175{clip-path:url(#SVGID_00000010991564461559184520000000276728720211439265_);fill:#7D1416;}
	.st176{clip-path:url(#SVGID_00000010991564461559184520000000276728720211439265_);fill:#7F1416;}
	.st177{clip-path:url(#SVGID_00000010991564461559184520000000276728720211439265_);fill:#801517;}
	.st178{clip-path:url(#SVGID_00000010991564461559184520000000276728720211439265_);fill:#811517;}
	.st179{clip-path:url(#SVGID_00000010991564461559184520000000276728720211439265_);fill:#831618;}
	.st180{clip-path:url(#SVGID_00000010991564461559184520000000276728720211439265_);fill:#851619;}
	.st181{clip-path:url(#SVGID_00000010991564461559184520000000276728720211439265_);fill:#871719;}
	.st182{clip-path:url(#SVGID_00000010991564461559184520000000276728720211439265_);fill:#88171A;}
	.st183{clip-path:url(#SVGID_00000010991564461559184520000000276728720211439265_);fill:#89181A;}
	.st184{clip-path:url(#SVGID_00000010991564461559184520000000276728720211439265_);fill:#8B181B;}
	.st185{clip-path:url(#SVGID_00000010991564461559184520000000276728720211439265_);fill:#8D181B;}
	.st186{clip-path:url(#SVGID_00000010991564461559184520000000276728720211439265_);fill:#8F191C;}
	.st187{clip-path:url(#SVGID_00000010991564461559184520000000276728720211439265_);fill:#91191C;}
	.st188{clip-path:url(#SVGID_00000010991564461559184520000000276728720211439265_);fill:#921A1D;}
	.st189{clip-path:url(#SVGID_00000010991564461559184520000000276728720211439265_);fill:#941A1D;}
	.st190{clip-path:url(#SVGID_00000010991564461559184520000000276728720211439265_);fill:#951B1E;}
	.st191{clip-path:url(#SVGID_00000010991564461559184520000000276728720211439265_);fill:#971B1E;}
	.st192{clip-path:url(#SVGID_00000010991564461559184520000000276728720211439265_);fill:#981B1F;}
	.st193{clip-path:url(#SVGID_00000010991564461559184520000000276728720211439265_);fill:#9A1C1F;}
	.st194{clip-path:url(#SVGID_00000010991564461559184520000000276728720211439265_);fill:#9B1C1F;}
	.st195{clip-path:url(#SVGID_00000010991564461559184520000000276728720211439265_);fill:#9D1C20;}
	.st196{clip-path:url(#SVGID_00000010991564461559184520000000276728720211439265_);fill:#9E1D20;}
	.st197{clip-path:url(#SVGID_00000010991564461559184520000000276728720211439265_);fill:#A01D20;}
	.st198{clip-path:url(#SVGID_00000010991564461559184520000000276728720211439265_);fill:#A01D21;}
	.st199{clip-path:url(#SVGID_00000010991564461559184520000000276728720211439265_);fill:#A11D21;}
	.st200{clip-path:url(#SVGID_00000010991564461559184520000000276728720211439265_);fill:#A21E21;}
	.st201{clip-path:url(#SVGID_00000010991564461559184520000000276728720211439265_);fill:#A31E22;}
	.st202{clip-path:url(#SVGID_00000010991564461559184520000000276728720211439265_);fill:#A51E22;}
	.st203{clip-path:url(#SVGID_00000010991564461559184520000000276728720211439265_);fill:#A61E22;}
	.st204{clip-path:url(#SVGID_00000010991564461559184520000000276728720211439265_);fill:#A71E22;}
	.st205{clip-path:url(#SVGID_00000010991564461559184520000000276728720211439265_);fill:#A91E23;}
	.st206{clip-path:url(#SVGID_00000010991564461559184520000000276728720211439265_);fill:#AB1F23;}
	.st207{clip-path:url(#SVGID_00000010991564461559184520000000276728720211439265_);fill:#AC1F23;}
	.st208{clip-path:url(#SVGID_00000010991564461559184520000000276728720211439265_);fill:#AD1F23;}
	.st209{clip-path:url(#SVGID_00000010991564461559184520000000276728720211439265_);fill:#AE1F24;}
	.st210{clip-path:url(#SVGID_00000010991564461559184520000000276728720211439265_);fill:#AF1F24;}
	.st211{clip-path:url(#SVGID_00000010991564461559184520000000276728720211439265_);fill:#B22024;}
	.st212{clip-path:url(#SVGID_00000010991564461559184520000000276728720211439265_);fill:#B32025;}
	.st213{clip-path:url(#SVGID_00000010991564461559184520000000276728720211439265_);fill:#B42025;}
	.st214{clip-path:url(#SVGID_00000010991564461559184520000000276728720211439265_);fill:#B52025;}
	.st215{clip-path:url(#SVGID_00000010991564461559184520000000276728720211439265_);fill:#B72025;}
	.st216{clip-path:url(#SVGID_00000010991564461559184520000000276728720211439265_);fill:#B92025;}
	.st217{clip-path:url(#SVGID_00000010991564461559184520000000276728720211439265_);fill:#BC2026;}
	.st218{clip-path:url(#SVGID_00000010991564461559184520000000276728720211439265_);fill:#BE2126;}
	.st219{clip-path:url(#SVGID_00000010991564461559184520000000276728720211439265_);fill:#BF2126;}
	.st220{clip-path:url(#SVGID_00000010991564461559184520000000276728720211439265_);fill:#C02126;}
	.st221{clip-path:url(#SVGID_00000010991564461559184520000000276728720211439265_);fill:#C12126;}
	.st222{clip-path:url(#SVGID_00000010991564461559184520000000276728720211439265_);fill:#C22126;}
	.st223{clip-path:url(#SVGID_00000010991564461559184520000000276728720211439265_);fill:#C32126;}
	.st224{clip-path:url(#SVGID_00000010991564461559184520000000276728720211439265_);fill:#C42126;}
	.st225{clip-path:url(#SVGID_00000010991564461559184520000000276728720211439265_);fill:#C52126;}
	.st226{clip-path:url(#SVGID_00000010991564461559184520000000276728720211439265_);fill:#C62127;}
	.st227{clip-path:url(#SVGID_00000010991564461559184520000000276728720211439265_);fill:#C72127;}
	.st228{clip-path:url(#SVGID_00000010991564461559184520000000276728720211439265_);fill:#C82127;}
	.st229{clip-path:url(#SVGID_00000010991564461559184520000000276728720211439265_);fill:#C92127;}
	.st230{clip-path:url(#SVGID_00000010991564461559184520000000276728720211439265_);fill:#CA2127;}
	.st231{clip-path:url(#SVGID_00000010991564461559184520000000276728720211439265_);fill:#CA2027;}
	.st232{clip-path:url(#SVGID_00000010991564461559184520000000276728720211439265_);fill:#CC2027;}
	.st233{clip-path:url(#SVGID_00000010991564461559184520000000276728720211439265_);fill:#CD2027;}
	.st234{clip-path:url(#SVGID_00000010991564461559184520000000276728720211439265_);fill:#CE2127;}
	.st235{clip-path:url(#SVGID_00000010991564461559184520000000276728720211439265_);fill:#CF2127;}
	.st236{clip-path:url(#SVGID_00000010991564461559184520000000276728720211439265_);fill:#D02027;}
	.st237{clip-path:url(#SVGID_00000010991564461559184520000000276728720211439265_);fill:#D12027;}
	.st238{clip-path:url(#SVGID_00000010991564461559184520000000276728720211439265_);fill:#D22027;}
	.st239{clip-path:url(#SVGID_00000010991564461559184520000000276728720211439265_);fill:#D32027;}
	.st240{clip-path:url(#SVGID_00000010991564461559184520000000276728720211439265_);fill:#D42027;}
	.st241{clip-path:url(#SVGID_00000010991564461559184520000000276728720211439265_);fill:#D52027;}
	.st242{clip-path:url(#SVGID_00000010991564461559184520000000276728720211439265_);fill:#D62027;}
	.st243{clip-path:url(#SVGID_00000010991564461559184520000000276728720211439265_);fill:#D72027;}
	.st244{clip-path:url(#SVGID_00000010991564461559184520000000276728720211439265_);fill:#D71F27;}
	.st245{fill:#C3996B;}
	.st246{fill:#F06724;}
	.st247{fill:#231F20;}
	.st248{fill:#AEB3B6;}
	.st249{fill:#EE3537;}
	.st250{fill:#9BA0A3;}
	.st251{fill:#AFB3B5;}
	.st252{fill:#F2EB44;}
	.st253{fill:#FFDD26;}
	.st254{clip-path:url(#XMLID_00000111887202959679114510000018017091457215462791_);}
	.st255{fill:#7E8386;}
	.st256{fill:#A4AAAC;}
	.st257{fill:#131718;}
	.st258{fill:#007843;}
	.st259{fill:#2AB34B;}
	.st260{fill:none;stroke:#FFFFFF;stroke-width:1.4841;stroke-miterlimit:10;}
	.st261{fill:#2E3192;}
	.st262{fill:#154458;}
	.st263{fill:#C72026;}
	.st264{fill:#5FBB46;}
	.st265{fill:#1A5F30;}
	.st266{fill:#293896;}
	.st267{filter:url(#Adobe_OpacityMaskFilter_00000133506661516707124970000005087106002692525721_);}
	.st268{filter:url(#Adobe_OpacityMaskFilter_00000039823928779117827500000009638698307083380907_);}
	
		.st269{mask:url(#SVGID_00000183938414031754564450000012171396784128244614_);fill:url(#SVGID_00000176740655635406654930000013711069062766912183_);}
	.st270{filter:url(#Adobe_OpacityMaskFilter_00000109748955594214087130000006657917355773034165_);}
	.st271{filter:url(#Adobe_OpacityMaskFilter_00000044152638300683317700000007197026971003706266_);}
	
		.st272{mask:url(#SVGID_00000132807136012997816020000009041339025551977354_);fill:url(#SVGID_00000137093233154276422360000005316294145521215377_);}
	.st273{filter:url(#Adobe_OpacityMaskFilter_00000163750998508648794030000017381379000042447507_);}
	.st274{filter:url(#Adobe_OpacityMaskFilter_00000093867108592231824070000006036347569838554791_);}
	
		.st275{mask:url(#SVGID_00000016795449766515101990000007780840170004442783_);fill:url(#SVGID_00000151529347636048569250000017822842881083032967_);}
	.st276{filter:url(#Adobe_OpacityMaskFilter_00000096030719231738076170000006451409972855976624_);}
	.st277{filter:url(#Adobe_OpacityMaskFilter_00000078754981794027941340000016186963037741193886_);}
	
		.st278{mask:url(#SVGID_00000134965231296044343230000003164702490587759520_);fill:url(#SVGID_00000115517200562221286050000013691235185295733406_);}
	.st279{filter:url(#Adobe_OpacityMaskFilter_00000036253117829913043900000017901135487246028421_);}
	.st280{filter:url(#Adobe_OpacityMaskFilter_00000147219682788132500300000011556032026218831489_);}
	
		.st281{mask:url(#SVGID_00000040533245560301555160000002182535078124189571_);fill:url(#SVGID_00000142867110260148752170000014485217196087410824_);}
	.st282{filter:url(#Adobe_OpacityMaskFilter_00000174576511194708956750000005553940767576085152_);}
	.st283{filter:url(#Adobe_OpacityMaskFilter_00000055669242589784658590000012054176099424604305_);}
	
		.st284{mask:url(#SVGID_00000119838966961303316850000008917377575488356540_);fill:url(#SVGID_00000054977217057416394760000000046872150756259476_);}
	.st285{filter:url(#Adobe_OpacityMaskFilter_00000172405620584587589490000017574064425003667102_);}
	.st286{filter:url(#Adobe_OpacityMaskFilter_00000168808128713646295010000007492331940655554457_);}
	
		.st287{mask:url(#SVGID_00000106134178404791845300000015528802345233757578_);fill:url(#SVGID_00000150092497728954672620000009127041271931286919_);}
	.st288{filter:url(#Adobe_OpacityMaskFilter_00000170260339637772207790000016706866775098127529_);}
	.st289{filter:url(#Adobe_OpacityMaskFilter_00000096756943577342589460000016804993185204110492_);}
	
		.st290{mask:url(#SVGID_00000157293131147863823170000011107984696288151743_);fill:url(#SVGID_00000110437140394319158570000003253788733459650237_);}
	.st291{filter:url(#Adobe_OpacityMaskFilter_00000170255802651443883430000009842139630501525638_);}
	.st292{filter:url(#Adobe_OpacityMaskFilter_00000018233413135580526220000013308135071366107526_);}
	
		.st293{mask:url(#SVGID_00000002385128464242074690000000284028771422823585_);fill:url(#SVGID_00000103975929386603921820000009339679810963028386_);}
	.st294{filter:url(#Adobe_OpacityMaskFilter_00000020360309684393858910000013567385237033165486_);}
	.st295{filter:url(#Adobe_OpacityMaskFilter_00000057147244158206725250000007435567760955382194_);}
	
		.st296{mask:url(#SVGID_00000155869008549382084190000008767320400983612036_);fill:url(#SVGID_00000009555381744099376060000010146699373038901938_);}
	.st297{clip-path:url(#SVGID_00000067227710256283581630000002737019721136450944_);fill:#FFF200;}
	
		.st298{clip-path:url(#SVGID_00000067227710256283581630000002737019721136450944_);fill:none;stroke:#FFFFFF;stroke-width:4.8568;stroke-linejoin:round;stroke-miterlimit:10;}
	.st299{clip-path:url(#SVGID_00000067227710256283581630000002737019721136450944_);fill:#ED1C24;}
	.st300{clip-path:url(#SVGID_00000067227710256283581630000002737019721136450944_);fill:#FFFFFF;}
	.st301{clip-path:url(#SVGID_00000067227710256283581630000002737019721136450944_);fill:#2E3192;}
	.st302{clip-path:url(#SVGID_00000067227710256283581630000002737019721136450944_);}
	.st303{clip-path:url(#SVGID_00000067227710256283581630000002737019721136450944_);fill:#F4817F;}
	.st304{clip-path:url(#SVGID_00000067227710256283581630000002737019721136450944_);fill:#56BF98;}
	.st305{clip-path:url(#SVGID_00000067227710256283581630000002737019721136450944_);fill:#570C08;}
	.st306{clip-path:url(#SVGID_00000067227710256283581630000002737019721136450944_);fill:#00A750;}
	
		.st307{fill:#FFFFFF;stroke:url(#SVGID_00000008149947728406870020000005850668924949687716_);stroke-width:7.11;stroke-miterlimit:10;}
	.st308{fill:#ED2224;}
	.st309{fill:#074E28;}
	.st310{fill:#EB2627;}
	.st311{fill:#D1D3D4;}
	.st312{fill:#5F1F16;}
	.st313{fill:#F1E7E6;}
	.st314{fill:#ED2024;}
	.st315{fill:url(#SVGID_00000146497452614171907330000000926757685539626647_);}
	.st316{fill:url(#SVGID_00000125574422688228757600000005169564447809639815_);}
	.st317{fill:#BB2025;}
	.st318{fill:url(#SVGID_00000097473263131364578480000008791607576798854532_);}
	.st319{fill:url(#SVGID_00000145761508556601325270000002966561657433556409_);}
	.st320{fill:none;stroke:#7F8080;stroke-width:0.8623;stroke-miterlimit:10;}
	.st321{fill:url(#SVGID_00000129193694085873329820000013328777687151587988_);}
	.st322{fill:url(#SVGID_00000021806236692305851510000014519586694077396658_);}
	.st323{fill:url(#SVGID_00000061439077752571021790000002369362942801353386_);}
	.st324{fill:url(#SVGID_00000161632945648825079260000007279405634414403486_);}
	.st325{fill:url(#SVGID_00000064340035959758215470000006158315925023943601_);}
	.st326{fill:url(#SVGID_00000044164927811940877910000008181365146805859464_);}
	.st327{fill:url(#SVGID_00000158722095045079631160000012082765876161249979_);}
	.st328{fill:url(#SVGID_00000065063187268654709050000011909219763130054317_);}
	.st329{fill:url(#SVGID_00000158005262969037345840000008973970280814095798_);}
	.st330{fill:url(#SVGID_00000000945611378941344220000010264636460942498439_);}
	.st331{fill:url(#SVGID_00000046313310331896785540000017018129719824614028_);}
	.st332{fill:url(#SVGID_00000132082061829875794730000012207000024980830858_);}
	.st333{fill:url(#SVGID_00000020372022875845998100000011186709235706248114_);}
	.st334{fill:url(#SVGID_00000144324265629957975770000013951676253244687540_);}
	.st335{fill:#E01E26;}
</style>
<g>
	<path class="st29" d="M199.46,150.04H32.92c-4.67,0-8.7-3.26-9.68-7.82l-6.62-30.78c-1.33-6.17,3.37-11.98,9.68-11.98h179.79
		c6.31,0,11.01,5.82,9.68,11.98l-6.62,30.78C208.16,146.79,204.13,150.04,199.46,150.04z"/>
	<path class="st30" d="M197.28,147.87H30.74c-4.67,0-8.7-3.26-9.68-7.82l-6.62-30.78c-1.33-6.17,3.37-11.98,9.68-11.98h179.79
		c6.31,0,11.01,5.82,9.68,11.98l-6.62,30.78C205.98,144.61,201.95,147.87,197.28,147.87z"/>
	<g>
		<g>
			<path class="st29" d="M180,82.07c-6.04-0.08-11.75,0.26-17.03,2.98c-5.99,3.09-8.21,7.6-7.23,14.29
				c0.03,0.21-0.05,0.44-0.08,0.67c-1.53-0.68-2.09-1.92-1.85-4.19c0.49-4.56,2.57-8.21,6.42-10.71c6.54-4.24,13.84-4.67,21.67-4.36
				c-0.29,1.14-0.28,2.04-0.7,2.65c-3.14,4.51-6.13,9.15-9.63,13.36c-3.1,3.73-7.62,5.12-12.39,5.24c-1.71,0.04-2.52,0.69-2.89,2.18
				c-0.67,2.69-1.29,5.4-1.95,8.1c-0.1,0.4-0.33,0.77-0.71,1.62c-0.87-2.12-1.58-3.86-2.46-6.02c-4.12,4.36-8.46,3.54-12.98,2.08
				c-2.35-0.76-4.84-1.08-7.17-1.58c-0.11-0.31-0.23-0.48-0.19-0.59c1.77-5.65,10.09-10.22,15.59-8.28c1.74,0.61,3.2,2.13,4.63,3.41
				c0.48,0.42,0.48,1.38,0.43,2.36c-2.53-3.67-5.66-5.85-10.14-4.72c-3.67,0.93-6.33,3.34-8.95,6.74c4.41,0.89,8.4,1.95,12.45,2.38
				c1.49,0.16,3.13-1.18,4.71-1.83c-0.07-0.42-0.13-0.84-0.2-1.26c-3.95-0.41-7.9-0.82-12.09-1.25c3.54-2.39,12.16-0.64,16.14,3.23
				c2.46-8.75,6.65-16.15,14.86-20.49c-3.82,3.72-7.67,7.43-10.22,12.39C166.86,101.72,175.28,93.04,180,82.07z"/>
		</g>
	</g>
	<g>
		<path class="st29" d="M66.13,112.9c0.02,0.39-0.12,1.05-0.41,1.98c-0.3,0.93-0.68,2.02-1.15,3.25c-0.47,1.24-0.98,2.57-1.54,4.02
			c-0.55,1.44-1.09,2.87-1.61,4.29c-0.09,0.24-0.23,0.6-0.42,1.08c-0.18,0.48-0.38,1.01-0.58,1.58c-0.2,0.57-0.38,1.16-0.54,1.77
			c-0.16,0.61-0.24,1.16-0.26,1.66c-0.02,0.5,0.05,0.9,0.21,1.22c0.16,0.31,0.46,0.47,0.9,0.47c0.65,0,1.23-0.31,1.74-0.94
			c0.52-0.63,1.01-1.43,1.5-2.41h0.47c-0.28,0.61-0.62,1.27-1.02,1.99c-0.41,0.72-0.87,1.38-1.4,1.99
			c-0.53,0.61-1.12,1.12-1.77,1.52c-0.66,0.41-1.38,0.61-2.17,0.61c-0.87,0-1.49-0.23-1.88-0.69c-0.39-0.46-0.62-1.06-0.69-1.8
			c-0.07-0.74-0.02-1.56,0.15-2.46c0.17-0.9,0.4-1.8,0.66-2.69c0.27-0.89,0.54-1.71,0.83-2.48c0.29-0.77,0.51-1.37,0.68-1.81
			c0.46-1.24,0.92-2.48,1.38-3.72c0.46-1.25,0.89-2.43,1.27-3.54c0.39-1.12,0.7-2.13,0.94-3.03s0.37-1.63,0.39-2.19
			c-0.72,0.37-1.42,0.89-2.1,1.56c-0.68,0.67-1.32,1.43-1.92,2.26c-0.6,0.83-1.16,1.7-1.68,2.6c-0.52,0.91-0.97,1.77-1.36,2.6
			c-0.3,0.92-0.62,1.84-0.97,2.75c-0.35,0.91-0.69,1.8-1.01,2.64c-0.32,0.85-0.61,1.65-0.87,2.4c-0.26,0.75-0.43,1.42-0.53,2.01
			c-0.09,0.59-0.07,1.08,0.06,1.48c0.13,0.4,0.41,0.66,0.83,0.79c-0.18,0.07-0.44,0.16-0.76,0.25c-0.32,0.09-0.67,0.16-1.04,0.21
			c-0.37,0.05-0.75,0.05-1.13,0.01c-0.39-0.04-0.74-0.15-1.05-0.35c-0.31-0.19-0.57-0.48-0.76-0.86c-0.19-0.38-0.29-0.88-0.29-1.51
			c0-0.39,0.12-0.95,0.36-1.7c0.24-0.75,0.54-1.6,0.89-2.55c0.35-0.95,0.73-1.97,1.14-3.05c0.41-1.08,0.78-2.16,1.12-3.25
			s0.61-2.14,0.82-3.14c0.2-1.01,0.29-1.9,0.25-2.69c-0.04-0.78-0.23-1.43-0.58-1.94c-0.35-0.51-0.91-0.8-1.69-0.87
			c0.09,0.39,0.03,1.02-0.18,1.88c-0.21,0.87-0.53,1.88-0.94,3.05c-0.42,1.16-0.89,2.43-1.41,3.79c-0.53,1.37-1.05,2.74-1.58,4.13
			c-0.53,1.38-1.01,2.73-1.45,4.03s-0.78,2.48-1.01,3.53c-0.23,1.05-0.33,1.92-0.29,2.6c0.04,0.68,0.28,1.1,0.72,1.25
			c-0.18,0.07-0.44,0.16-0.76,0.25c-0.32,0.09-0.67,0.16-1.05,0.21c-0.38,0.05-0.76,0.05-1.15,0.01c-0.39-0.04-0.73-0.15-1.04-0.35
			c-0.3-0.19-0.54-0.48-0.72-0.86c-0.18-0.38-0.24-0.88-0.21-1.51c0.04-0.66,0.25-1.62,0.64-2.88c0.39-1.25,0.86-2.64,1.41-4.15
			c0.55-1.51,1.13-3.09,1.74-4.72c0.61-1.63,1.15-3.17,1.63-4.61c0.48-1.44,0.85-2.7,1.11-3.78c0.26-1.08,0.31-1.83,0.14-2.26
			c-1.88,0.15-3.45,0.64-4.71,1.47c-1.26,0.83-2.27,1.9-3.03,3.2c-0.77,1.3-1.32,2.78-1.67,4.44c-0.35,1.66-0.57,3.39-0.66,5.18
			c-0.35-0.02-0.71-0.02-1.08-0.01c-0.37,0.01-0.72,0.01-1.05,0c-0.33-0.01-0.64-0.05-0.91-0.12c-0.28-0.07-0.5-0.21-0.68-0.4
			c-0.18-0.19-0.29-0.47-0.33-0.83c-0.05-0.36-0.01-0.83,0.12-1.43c0.5-2.33,1.2-4.26,2.12-5.8s2.04-2.78,3.36-3.72
			c1.33-0.94,2.87-1.62,4.64-2.05c1.76-0.42,3.74-0.67,5.94-0.75c1.81-0.06,3.29,0.08,4.43,0.4c1.14,0.32,2.03,0.8,2.66,1.43
			c0.63,0.63,1.03,1.37,1.22,2.23s0.22,1.79,0.11,2.78c0.46-0.77,0.97-1.57,1.54-2.38c0.56-0.81,1.19-1.55,1.88-2.21
			c0.69-0.66,1.45-1.2,2.27-1.62c0.82-0.42,1.72-0.62,2.7-0.62c0.83,0,1.41,0.13,1.73,0.39C66.03,111.66,66.17,112.16,66.13,112.9z"
			/>
		<path class="st29" d="M72.39,130.87c-0.3,0.61-0.66,1.27-1.08,1.99c-0.43,0.72-0.91,1.38-1.47,1.99
			c-0.55,0.61-1.16,1.12-1.83,1.52c-0.66,0.41-1.39,0.61-2.19,0.61c-0.41,0-0.8-0.08-1.18-0.25c-0.38-0.17-0.7-0.45-0.96-0.86
			c-0.39-0.59-0.54-1.34-0.47-2.26c0.07-0.91,0.26-1.88,0.57-2.91c0.3-1.02,0.66-2.06,1.08-3.1c0.42-1.04,0.77-2,1.08-2.86
			c0.3-0.87,0.49-1.6,0.57-2.2c0.07-0.6-0.08-0.96-0.47-1.09c0.2-0.07,0.47-0.16,0.82-0.26c0.34-0.1,0.7-0.18,1.08-0.22
			c0.38-0.05,0.76-0.05,1.13-0.01c0.38,0.04,0.71,0.15,0.98,0.35c0.28,0.19,0.48,0.48,0.61,0.86c0.13,0.38,0.13,0.88,0,1.51
			c-0.09,0.42-0.29,0.98-0.58,1.66c-0.3,0.68-0.61,1.42-0.96,2.2c-0.34,0.78-0.67,1.57-0.98,2.37c-0.31,0.79-0.54,1.51-0.66,2.15
			c-0.13,0.64-0.12,1.16,0.01,1.56c0.14,0.41,0.49,0.61,1.07,0.61c0.65,0,1.24-0.31,1.77-0.94c0.54-0.63,1.05-1.43,1.55-2.41H72.39z
			 M68.82,120.29c-0.59,0-1.09-0.2-1.5-0.61s-0.61-0.9-0.61-1.47c0-0.59,0.2-1.08,0.61-1.48s0.9-0.6,1.5-0.6
			c0.59,0,1.09,0.2,1.5,0.6s0.61,0.89,0.61,1.48c0,0.57-0.2,1.06-0.61,1.47S69.41,120.29,68.82,120.29z"/>
		<path class="st29" d="M96.42,130.87c-0.3,0.61-0.66,1.27-1.08,1.99c-0.43,0.72-0.91,1.38-1.45,1.99
			c-0.54,0.61-1.15,1.12-1.83,1.52c-0.67,0.41-1.4,0.61-2.17,0.61c-0.66,0-1.18-0.14-1.55-0.43c-0.37-0.29-0.63-0.66-0.78-1.11
			c-0.15-0.45-0.21-0.97-0.18-1.55c0.03-0.58,0.1-1.16,0.21-1.74c0.11-0.58,0.24-1.13,0.4-1.66c0.16-0.53,0.3-0.97,0.43-1.34
			c0.07-0.22,0.18-0.51,0.32-0.87c0.14-0.36,0.27-0.74,0.4-1.14c0.13-0.4,0.24-0.8,0.33-1.2c0.09-0.41,0.12-0.77,0.1-1.11
			c-0.03-0.33-0.13-0.6-0.31-0.8c-0.18-0.2-0.46-0.31-0.84-0.31c-0.57,0-1.09,0.24-1.56,0.72c-0.47,0.48-0.93,1.11-1.37,1.88
			c-0.15,0.57-0.32,1.2-0.53,1.9c-0.2,0.69-0.4,1.4-0.6,2.12c-0.19,0.72-0.37,1.43-0.51,2.13c-0.15,0.7-0.24,1.33-0.29,1.9
			c-0.05,0.56-0.02,1.03,0.07,1.41c0.09,0.38,0.28,0.61,0.55,0.71c-0.18,0.07-0.44,0.16-0.77,0.25c-0.33,0.09-0.69,0.16-1.07,0.21
			c-0.38,0.05-0.76,0.05-1.15,0.01c-0.39-0.04-0.73-0.15-1.02-0.35c-0.3-0.19-0.53-0.48-0.69-0.86c-0.17-0.38-0.22-0.88-0.17-1.51
			c0.02-0.24,0.12-0.67,0.29-1.29c0.18-0.62,0.37-1.32,0.58-2.09c0.21-0.78,0.41-1.58,0.61-2.42c0.19-0.84,0.33-1.61,0.42-2.31
			c0.08-0.7,0.08-1.28,0-1.73c-0.08-0.45-0.31-0.68-0.68-0.68c-0.61,0-1.17,0.29-1.69,0.86c-0.52,0.57-1.02,1.31-1.5,2.21
			c-0.35,0.92-0.72,1.92-1.09,3c-0.38,1.08-0.68,2.09-0.91,3.03c-0.23,0.94-0.35,1.75-0.35,2.44c0,0.68,0.2,1.09,0.61,1.22
			c-0.18,0.07-0.44,0.16-0.78,0.25c-0.33,0.09-0.69,0.16-1.07,0.21c-0.38,0.05-0.76,0.05-1.15,0.01c-0.39-0.04-0.73-0.15-1.02-0.35
			c-0.3-0.19-0.53-0.48-0.69-0.86c-0.17-0.38-0.22-0.88-0.17-1.51c0.04-0.39,0.18-0.95,0.42-1.7c0.24-0.75,0.52-1.58,0.84-2.49
			c0.32-0.91,0.65-1.86,0.97-2.82c0.32-0.97,0.59-1.86,0.8-2.69c0.21-0.82,0.32-1.51,0.33-2.08c0.01-0.56-0.13-0.9-0.43-1.01
			c0.2-0.07,0.47-0.16,0.8-0.26c0.33-0.1,0.69-0.18,1.08-0.22c0.39-0.05,0.77-0.05,1.15-0.01c0.38,0.04,0.71,0.15,1,0.35
			c0.29,0.19,0.49,0.48,0.62,0.86c0.13,0.38,0.15,0.88,0.06,1.51c-0.02,0.09-0.04,0.21-0.07,0.35c-0.03,0.14-0.08,0.3-0.15,0.48
			c0.31-0.46,0.66-0.9,1.04-1.33c0.38-0.42,0.78-0.8,1.2-1.14c0.42-0.33,0.88-0.6,1.36-0.79c0.48-0.19,0.99-0.29,1.52-0.29
			c0.54,0,0.98,0.12,1.34,0.35c0.36,0.23,0.64,0.53,0.84,0.9c0.2,0.37,0.33,0.78,0.39,1.25c0.06,0.46,0.05,0.92-0.03,1.38
			c0.31-0.5,0.66-0.98,1.05-1.44c0.39-0.46,0.8-0.87,1.25-1.23c0.44-0.36,0.92-0.65,1.43-0.87c0.51-0.22,1.04-0.33,1.59-0.33
			c0.54,0,0.98,0.11,1.33,0.32c0.35,0.21,0.63,0.49,0.83,0.83c0.2,0.34,0.34,0.73,0.4,1.18c0.06,0.44,0.08,0.9,0.04,1.36
			c-0.07,0.78-0.23,1.56-0.47,2.34c-0.24,0.78-0.5,1.55-0.77,2.28c-0.13,0.33-0.3,0.77-0.51,1.33c-0.21,0.55-0.37,1.1-0.46,1.65
			c-0.09,0.54-0.07,1.01,0.06,1.4c0.13,0.39,0.48,0.58,1.05,0.58c0.65,0,1.23-0.31,1.76-0.94c0.53-0.63,1.05-1.43,1.56-2.41H96.42z"
			/>
		<path class="st29" d="M125.85,111.54c0.39-0.15,0.86-0.28,1.41-0.4c0.55-0.12,1.09-0.16,1.61-0.11c0.52,0.05,0.95,0.21,1.29,0.48
			c0.34,0.28,0.48,0.74,0.43,1.38c0,0.35-0.14,0.92-0.43,1.72c-0.29,0.79-0.65,1.72-1.08,2.78s-0.92,2.21-1.45,3.46
			c-0.54,1.25-1.05,2.49-1.55,3.74c-0.5,1.25-0.96,2.45-1.37,3.6c-0.42,1.15-0.72,2.18-0.9,3.07c-0.18,0.9-0.23,1.61-0.15,2.15
			c0.08,0.53,0.37,0.8,0.87,0.8c0.65,0,1.24-0.31,1.77-0.94c0.53-0.63,1.06-1.43,1.58-2.41h0.47c-0.3,0.61-0.66,1.27-1.08,1.99
			s-0.91,1.38-1.45,1.99c-0.54,0.61-1.15,1.12-1.83,1.52c-0.67,0.41-1.4,0.61-2.17,0.61c-0.9,0-1.55-0.26-1.92-0.78
			c-0.38-0.52-0.58-1.18-0.61-1.99c-0.03-0.81,0.08-1.72,0.33-2.73c0.25-1.01,0.54-1.99,0.89-2.95c0.34-0.96,0.68-1.84,1.02-2.64
			c0.34-0.8,0.61-1.43,0.79-1.87l-5.98-0.06c-0.61,1.48-1.18,2.93-1.72,4.35c-0.54,1.42-0.96,2.71-1.26,3.88
			c-0.3,1.16-0.46,2.13-0.47,2.91c-0.01,0.78,0.21,1.24,0.65,1.38c-0.18,0.07-0.44,0.16-0.77,0.25c-0.33,0.09-0.69,0.16-1.07,0.21
			c-0.38,0.05-0.76,0.05-1.15,0.01c-0.39-0.04-0.73-0.15-1.02-0.35c-0.3-0.19-0.53-0.48-0.69-0.86c-0.17-0.38-0.22-0.88-0.17-1.51
			c0.04-0.5,0.19-1.17,0.46-2.01c0.27-0.84,0.6-1.78,0.98-2.82c0.39-1.04,0.82-2.16,1.29-3.35c0.47-1.19,0.95-2.39,1.43-3.59
			c0.48-1.2,0.94-2.37,1.37-3.5c0.43-1.13,0.81-2.18,1.12-3.13c0.31-0.95,0.54-1.78,0.68-2.48c0.14-0.7,0.15-1.21,0.04-1.52
			c-1.88,0.15-3.47,0.64-4.75,1.47c-1.28,0.83-2.33,1.9-3.13,3.2c-0.8,1.3-1.41,2.78-1.81,4.44c-0.41,1.66-0.67,3.39-0.8,5.18
			c-0.54-0.04-1.08-0.04-1.63,0c-0.55,0.04-1.03,0-1.43-0.12c-0.4-0.12-0.69-0.37-0.87-0.76c-0.18-0.39-0.17-1.02,0.06-1.91
			c0.55-2.25,1.3-4.14,2.23-5.68c0.93-1.53,2.06-2.78,3.39-3.74c1.33-0.96,2.87-1.66,4.62-2.1c1.75-0.44,3.73-0.71,5.92-0.8
			c0.33,0,0.66,0.01,1,0.04c0.33,0.03,0.62,0.11,0.87,0.24c0.25,0.13,0.45,0.32,0.6,0.57c0.15,0.25,0.2,0.6,0.17,1.04
			c0,0.31-0.11,0.81-0.32,1.48c-0.21,0.67-0.5,1.46-0.86,2.37c-0.36,0.9-0.77,1.9-1.22,2.99c-0.45,1.09-0.91,2.21-1.37,3.35
			l5.98,0.06c0.55-1.4,1.09-2.78,1.61-4.13c0.52-1.35,0.94-2.56,1.27-3.63c0.33-1.07,0.54-1.95,0.62-2.64
			C126.25,112.06,126.15,111.66,125.85,111.54z"/>
		<path class="st29" d="M139.17,130.87c-0.3,0.61-0.65,1.27-1.07,1.99c-0.41,0.72-0.89,1.38-1.43,1.99
			c-0.53,0.61-1.14,1.12-1.81,1.52c-0.67,0.41-1.43,0.61-2.26,0.61c-1.11-0.02-2.02-0.26-2.74-0.72c-0.72-0.46-1.26-1.07-1.62-1.83
			c-0.36-0.76-0.56-1.61-0.61-2.56c-0.05-0.95,0.04-1.93,0.26-2.93s0.56-1.98,1.01-2.94c0.45-0.95,1-1.8,1.65-2.55
			c0.65-0.75,1.37-1.35,2.16-1.81s1.63-0.69,2.52-0.69c0.41,0,0.83,0.07,1.26,0.22c0.43,0.15,0.84,0.36,1.22,0.62
			c0.38,0.27,0.69,0.59,0.93,0.96c0.24,0.37,0.37,0.77,0.39,1.22c0.04,0.89-0.15,1.65-0.55,2.28c-0.41,0.64-0.93,1.15-1.58,1.54
			c-0.65,0.39-1.37,0.65-2.17,0.77c-0.8,0.13-1.57,0.11-2.31-0.06c-0.28,0.54-0.47,1.13-0.58,1.8c-0.11,0.66-0.1,1.29,0.03,1.87
			c0.13,0.58,0.39,1.07,0.79,1.45c0.4,0.39,0.96,0.58,1.7,0.58c0.33,0,0.65-0.01,0.96-0.04c0.3-0.03,0.62-0.15,0.96-0.36
			c0.33-0.21,0.69-0.54,1.08-1c0.39-0.45,0.83-1.1,1.33-1.95H139.17z M137.18,123.03c-0.39-0.02-0.8,0.15-1.25,0.5
			c-0.44,0.35-0.87,0.77-1.29,1.25c-0.42,0.48-0.79,0.98-1.12,1.51c-0.33,0.53-0.57,0.97-0.72,1.32c0.46,0.07,0.98-0.03,1.55-0.3
			c0.57-0.28,1.11-0.63,1.61-1.05c0.5-0.42,0.91-0.88,1.25-1.37c0.33-0.49,0.5-0.9,0.5-1.23c0-0.17-0.04-0.31-0.11-0.43
			C137.52,123.09,137.38,123.03,137.18,123.03z"/>
		<path class="st29" d="M150.35,120.96c0.31,0,0.6,0.06,0.84,0.18c0.25,0.12,0.46,0.28,0.62,0.48c0.17,0.2,0.29,0.43,0.37,0.69
			c0.08,0.26,0.11,0.53,0.1,0.8c-0.04,0.59-0.26,1.06-0.68,1.41c-0.42,0.35-0.88,0.54-1.4,0.58c-0.48,0.04-0.85-0.04-1.12-0.23
			c-0.27-0.19-0.47-0.41-0.62-0.66s-0.25-0.47-0.3-0.67c-0.06-0.2-0.12-0.3-0.19-0.3c-0.28,0.02-0.6,0.21-0.97,0.58
			c-0.37,0.37-0.76,0.85-1.18,1.44c-0.42,0.59-0.83,1.27-1.26,2.04c-0.42,0.77-0.83,1.55-1.2,2.35c-0.38,0.8-0.72,1.6-1.01,2.38
			c-0.3,0.78-0.52,1.49-0.68,2.12c-0.16,0.63-0.23,1.15-0.21,1.58c0.02,0.43,0.15,0.67,0.39,0.75c-0.2,0.07-0.48,0.16-0.82,0.25
			c-0.34,0.09-0.71,0.16-1.09,0.21c-0.39,0.05-0.77,0.05-1.15,0.01s-0.7-0.15-0.97-0.35s-0.46-0.48-0.58-0.86
			c-0.12-0.38-0.11-0.88,0.04-1.51c0.06-0.24,0.21-0.71,0.47-1.4c0.26-0.69,0.55-1.49,0.87-2.41c0.32-0.91,0.65-1.87,0.97-2.88
			c0.32-1.01,0.58-1.94,0.77-2.81c0.19-0.87,0.29-1.61,0.29-2.22s-0.17-0.98-0.5-1.09c0.2-0.07,0.47-0.16,0.82-0.27
			s0.71-0.18,1.09-0.22c0.39-0.05,0.77-0.05,1.15-0.01c0.38,0.04,0.7,0.15,0.97,0.35c0.27,0.2,0.46,0.48,0.58,0.86
			c0.12,0.38,0.11,0.88-0.04,1.51c-0.06,0.28-0.2,0.72-0.44,1.33c-0.24,0.61-0.51,1.31-0.82,2.09c-0.31,0.78-0.61,1.62-0.93,2.51
			c-0.31,0.89-0.58,1.74-0.8,2.57c0.24-0.76,0.53-1.56,0.87-2.41c0.34-0.85,0.72-1.69,1.15-2.52c0.42-0.83,0.89-1.62,1.38-2.37
			c0.5-0.75,1.03-1.41,1.59-1.99c0.56-0.58,1.14-1.04,1.74-1.39C149.08,121.13,149.71,120.96,150.35,120.96z"/>
		<path class="st29" d="M162.56,120.96c0.74,0,1.32,0.22,1.76,0.66c0.43,0.44,0.74,1.03,0.91,1.76c0.18,0.73,0.23,1.56,0.15,2.51
			c-0.07,0.94-0.25,1.91-0.53,2.89c-0.28,0.99-0.65,1.96-1.11,2.92c-0.46,0.96-0.99,1.82-1.58,2.59c-0.59,0.77-1.24,1.39-1.95,1.88
			c-0.71,0.49-1.46,0.76-2.26,0.82c-0.77,0.06-1.47-0.14-2.09-0.6s-1.15-1.07-1.59-1.84c-0.06,0.54-0.03,0.97,0.07,1.3
			c0.1,0.33,0.29,0.54,0.57,0.64c-0.18,0.07-0.44,0.16-0.77,0.25c-0.33,0.09-0.69,0.16-1.07,0.21c-0.38,0.05-0.76,0.05-1.15,0.01
			c-0.39-0.04-0.73-0.15-1.02-0.35c-0.3-0.19-0.53-0.48-0.69-0.86c-0.17-0.38-0.22-0.88-0.17-1.51c0.04-0.53,0.2-1.26,0.5-2.17
			c0.3-0.91,0.66-1.94,1.08-3.07c0.42-1.13,0.89-2.34,1.4-3.63c0.51-1.28,1.01-2.55,1.51-3.81c0.5-1.25,0.96-2.47,1.4-3.64
			c0.43-1.17,0.78-2.21,1.05-3.13c0.27-0.91,0.42-1.66,0.47-2.24c0.05-0.58-0.07-0.92-0.35-1.01c0.39-0.15,0.86-0.28,1.41-0.4
			c0.55-0.12,1.08-0.16,1.59-0.11c0.51,0.05,0.94,0.21,1.29,0.48c0.35,0.28,0.5,0.74,0.44,1.38c0,0.35-0.13,0.91-0.39,1.66
			c-0.26,0.76-0.59,1.65-1,2.67c-0.41,1.02-0.86,2.15-1.37,3.36c-0.51,1.22-1.01,2.45-1.51,3.71c0.31-0.44,0.65-0.87,1.01-1.27
			c0.36-0.41,0.75-0.76,1.16-1.07c0.42-0.31,0.86-0.55,1.33-0.73S162.05,120.96,162.56,120.96z M155.61,134.69
			c0.52-0.06,1.06-0.37,1.62-0.94c0.56-0.57,1.09-1.26,1.59-2.08c0.5-0.81,0.94-1.68,1.32-2.62c0.38-0.93,0.64-1.79,0.79-2.59
			c0.15-0.79,0.15-1.45,0.01-1.97c-0.14-0.52-0.47-0.78-0.98-0.78c-0.37,0-0.74,0.12-1.12,0.35c-0.38,0.23-0.72,0.52-1.04,0.86
			c-0.31,0.34-0.59,0.71-0.83,1.09c-0.24,0.39-0.41,0.74-0.5,1.05c-0.5,1.31-0.94,2.55-1.31,3.71c-0.38,1.16-0.64,2.19-0.79,3.07
			c0.09,0.18,0.2,0.34,0.33,0.47c0.11,0.11,0.24,0.21,0.39,0.29C155.24,134.7,155.41,134.73,155.61,134.69z"/>
		<path class="st29" d="M183.41,130.87c-0.3,0.61-0.66,1.27-1.08,1.99c-0.42,0.72-0.91,1.38-1.47,1.99
			c-0.55,0.61-1.17,1.12-1.84,1.52c-0.67,0.41-1.4,0.61-2.17,0.61c-0.41,0-0.8-0.08-1.18-0.25s-0.7-0.45-0.96-0.86
			c-0.26-0.42-0.41-0.92-0.46-1.5c-0.05-0.57-0.01-1.19,0.12-1.85c-0.33,0.55-0.7,1.1-1.09,1.63c-0.4,0.54-0.83,1.01-1.31,1.43
			c-0.48,0.42-0.99,0.75-1.54,1.01c-0.54,0.26-1.13,0.39-1.76,0.39c-0.74,0-1.32-0.22-1.74-0.66c-0.43-0.44-0.71-1.03-0.86-1.76
			c-0.15-0.73-0.18-1.56-0.08-2.51c0.09-0.94,0.29-1.91,0.6-2.89c0.31-0.99,0.7-1.96,1.18-2.92c0.48-0.96,1.03-1.82,1.65-2.59
			c0.62-0.77,1.29-1.39,2.01-1.88c0.72-0.49,1.48-0.76,2.27-0.82c0.77-0.06,1.47,0.14,2.09,0.6c0.62,0.45,1.16,1.07,1.62,1.84
			c0.13-0.52,0.17-0.95,0.14-1.29c-0.04-0.34-0.2-0.56-0.5-0.65c0.2-0.07,0.47-0.16,0.82-0.26c0.34-0.1,0.71-0.18,1.09-0.22
			c0.39-0.05,0.77-0.05,1.15-0.01c0.38,0.04,0.71,0.15,0.98,0.35c0.28,0.19,0.48,0.48,0.61,0.86c0.13,0.38,0.13,0.88,0,1.51
			c-0.09,0.42-0.29,0.98-0.58,1.66c-0.3,0.68-0.61,1.42-0.96,2.2c-0.34,0.78-0.67,1.57-0.98,2.37c-0.31,0.79-0.54,1.51-0.66,2.15
			c-0.13,0.64-0.12,1.16,0.01,1.56c0.14,0.41,0.49,0.61,1.07,0.61c0.65,0,1.23-0.31,1.76-0.94c0.53-0.63,1.05-1.43,1.56-2.41H183.41
			z M174.77,130.87c0.04-0.11,0.13-0.35,0.28-0.72c0.15-0.37,0.31-0.8,0.5-1.3c0.18-0.5,0.38-1.02,0.58-1.58
			c0.2-0.55,0.38-1.06,0.54-1.52c0.16-0.46,0.29-0.85,0.39-1.16c0.1-0.31,0.14-0.49,0.12-0.53c-0.28-0.59-0.66-0.86-1.14-0.8
			c-0.52,0.06-1.07,0.37-1.66,0.94c-0.59,0.57-1.15,1.26-1.67,2.08c-0.53,0.81-0.99,1.68-1.4,2.62c-0.41,0.93-0.7,1.8-0.89,2.59
			c-0.18,0.79-0.22,1.45-0.11,1.97c0.11,0.52,0.43,0.77,0.97,0.77c0.44,0,0.84-0.11,1.19-0.33c0.35-0.22,0.66-0.5,0.94-0.83
			c0.28-0.33,0.53-0.7,0.75-1.09C174.39,131.57,174.59,131.2,174.77,130.87z"/>
		<path class="st29" d="M187.57,134.22c0.65-0.04,1.24-0.36,1.79-0.97c0.54-0.61,1.07-1.4,1.59-2.38h0.47
			c-0.3,0.61-0.66,1.27-1.08,1.99c-0.42,0.72-0.91,1.38-1.47,1.99c-0.55,0.61-1.17,1.12-1.84,1.52c-0.67,0.41-1.4,0.61-2.17,0.61
			c-0.42,0-0.82-0.08-1.19-0.25c-0.37-0.17-0.68-0.45-0.94-0.86c-0.33-0.52-0.47-1.25-0.43-2.19c0.05-0.94,0.22-2.02,0.53-3.23
			c0.3-1.21,0.69-2.5,1.16-3.86c0.47-1.37,0.96-2.73,1.48-4.1c0.52-1.37,1.01-2.68,1.48-3.95c0.47-1.26,0.85-2.4,1.15-3.41
			c0.3-1.01,0.47-1.83,0.53-2.48c0.06-0.65-0.09-1.02-0.44-1.13c0.39-0.15,0.86-0.28,1.41-0.4c0.55-0.12,1.08-0.16,1.59-0.11
			c0.51,0.05,0.94,0.21,1.29,0.48c0.35,0.28,0.5,0.74,0.44,1.38c0,0.41-0.13,1.02-0.4,1.84c-0.27,0.82-0.61,1.77-1.02,2.85
			c-0.42,1.08-0.87,2.25-1.37,3.5c-0.5,1.26-0.98,2.5-1.44,3.74c-0.46,1.24-0.88,2.43-1.25,3.57c-0.37,1.14-0.63,2.15-0.79,3.02
			c-0.16,0.87-0.17,1.56-0.04,2.06C186.73,133.99,187.05,134.24,187.57,134.22z"/>
	</g>
</g>
</svg>
