<?xml version="1.0" encoding="utf-8"?>
<!-- Generator: Adobe Illustrator 27.0.0, SVG Export Plug-In . SVG Version: 6.00 Build 0)  -->
<svg version="1.1" id="Layer_1" xmlns="http://www.w3.org/2000/svg" xmlns:xlink="http://www.w3.org/1999/xlink" x="0px" y="0px"
	 viewBox="0 0 226.77 226.77" style="enable-background:new 0 0 226.77 226.77;" xml:space="preserve">
<style type="text/css">
	.st0{fill:#FFF200;}
	.st1{stroke:#000000;stroke-width:5.2476;stroke-miterlimit:10;}
	.st2{fill:#FFFFFF;}
	.st3{fill:#ED1C24;}
	.st4{fill:#50B848;}
	.st5{fill:#007F3E;}
	.st6{fill:#F58220;}
	.st7{fill:#F37021;}
	.st8{fill:#1282C5;}
	.st9{fill:#F7941D;}
	.st10{fill:#FFFFFF;stroke:#FFFFFF;stroke-width:2.321;stroke-linecap:round;stroke-linejoin:round;}
	.st11{fill:#00854A;}
	.st12{fill:#34B34A;}
	.st13{fill:#13421E;}
	.st14{fill:#8CC540;stroke:#FFFFFF;stroke-width:1.2029;stroke-miterlimit:10;}
	.st15{fill:#065643;stroke:#FFFFFF;stroke-width:1.2029;stroke-miterlimit:10;}
	.st16{fill:#FFCB05;}
	.st17{fill:#224D71;}
	.st18{fill:#F8BC1B;}
	.st19{fill:#4CB748;}
	.st20{fill:url(#SVGID_00000101824924999455313600000017774625454659996567_);}
	.st21{fill:none;stroke:#FFFFFF;stroke-width:0.8396;stroke-miterlimit:10;}
	
		.st22{fill:url(#SVGID_00000111167861282467602290000000372235605622434446_);stroke:url(#SVGID_00000127751403004194667160000000585833428615493567_);stroke-width:0.6997;stroke-miterlimit:10;}
	
		.st23{fill:url(#SVGID_00000170273071538604538970000017717535566333021576_);stroke:url(#SVGID_00000102544374283855766970000017796418755831906221_);stroke-width:0.6997;stroke-miterlimit:10;}
	
		.st24{fill:url(#SVGID_00000132803026804884577680000001721806583564253364_);stroke:url(#SVGID_00000084501524129814351150000010378519979403550609_);stroke-width:0.6997;stroke-miterlimit:10;}
	
		.st25{fill:url(#SVGID_00000132779307739530818700000001498588431221938067_);stroke:url(#SVGID_00000050637635494001407920000015837340309327319478_);stroke-width:0.6997;stroke-miterlimit:10;}
	
		.st26{fill:url(#SVGID_00000183249915112336699220000017797398089149594524_);stroke:url(#SVGID_00000173132224879565513250000002231560007354947472_);stroke-width:0.6997;stroke-miterlimit:10;}
	.st27{fill:url(#SVGID_00000037651377764260604480000010113051349815640200_);}
	.st28{fill:url(#SVGID_00000027599237634409743050000007526729806190450068_);}
	.st29{fill:#005826;}
	.st30{fill:#BFD730;}
	.st31{fill:#00A651;stroke:#000000;stroke-width:2.8889;stroke-linecap:round;stroke-linejoin:round;stroke-miterlimit:10;}
	.st32{fill:#FFF200;stroke:#000000;stroke-width:2.8889;stroke-linecap:round;stroke-linejoin:round;stroke-miterlimit:10;}
	.st33{fill:#8DC63F;stroke:#000000;stroke-width:2.8889;stroke-linecap:round;stroke-linejoin:round;stroke-miterlimit:10;}
	.st34{fill:#0DB14B;stroke:#000000;stroke-width:2.8889;stroke-linecap:round;stroke-linejoin:round;stroke-miterlimit:10;}
	.st35{fill:#FFFFFF;stroke:#000000;stroke-width:2.8889;stroke-linecap:round;stroke-linejoin:round;stroke-miterlimit:10;}
	.st36{fill:#00A651;}
	.st37{fill:#8DC63F;}
	.st38{fill:#0DB14B;}
	.st39{fill:#034EA2;}
	.st40{fill:#00763F;}
	.st41{fill:url(#SVGID_00000129193082112424729300000004975514418527837837_);}
	.st42{fill:url(#SVGID_00000070802158576688670950000010411911542462145210_);}
	.st43{fill:url(#SVGID_00000015347024650003606230000006153007170177479074_);}
	.st44{fill:url(#SVGID_00000054259085475727854940000016981321249844794788_);}
	.st45{fill:url(#SVGID_00000075161847840960359960000008719190215192711861_);}
	.st46{fill:url(#SVGID_00000034060973962502034200000018008707564739961535_);}
	.st47{fill:url(#SVGID_00000054944689310276330990000010264923565817687698_);}
	.st48{fill:url(#SVGID_00000028306028625805233720000011745020067152364971_);}
	.st49{fill:url(#SVGID_00000088131298422194980740000017792081875100382849_);}
	.st50{fill:url(#SVGID_00000135667988926105476510000016017234625372153248_);}
	.st51{fill:#FFFFFF;stroke:#FFFFFF;stroke-width:4.8073;stroke-linecap:round;stroke-linejoin:round;stroke-miterlimit:10;}
	.st52{fill:url(#SVGID_00000165935169131340191880000001850218938960887684_);}
	.st53{fill:#00A651;stroke:#00A651;stroke-width:4.2345;stroke-linecap:round;stroke-linejoin:round;stroke-miterlimit:10;}
	.st54{fill:#939598;stroke:#939598;stroke-width:4.2345;stroke-linecap:round;stroke-linejoin:round;stroke-miterlimit:10;}
	.st55{fill:#CE181E;stroke:#CE181E;stroke-width:9.3609;stroke-miterlimit:10;}
	
		.st56{fill:none;stroke:url(#SVGID_00000085947487324223290110000011945150043397443758_);stroke-width:3.3359;stroke-miterlimit:10;}
	.st57{fill-rule:evenodd;clip-rule:evenodd;fill:#21A347;}
	.st58{filter:url(#Adobe_OpacityMaskFilter);}
	
		.st59{clip-path:url(#SVGID_00000137092007281246387320000011337758946543483783_);fill-rule:evenodd;clip-rule:evenodd;fill:url(#);}
	
		.st60{opacity:0.49;clip-path:url(#SVGID_00000137092007281246387320000011337758946543483783_);mask:url(#SVGID_00000020399119467262035550000005298807022692574864_);fill-rule:evenodd;clip-rule:evenodd;}
	
		.st61{clip-path:url(#SVGID_00000137092007281246387320000011337758946543483783_);fill-rule:evenodd;clip-rule:evenodd;fill:#007836;}
	.st62{filter:url(#Adobe_OpacityMaskFilter_00000058583051177624341710000000045968129446188946_);}
	
		.st63{opacity:0.49;clip-path:url(#SVGID_00000137092007281246387320000011337758946543483783_);mask:url(#SVGID_00000021095896222224882260000010572906907288344458_);fill-rule:evenodd;clip-rule:evenodd;}
	
		.st64{clip-path:url(#SVGID_00000137092007281246387320000011337758946543483783_);fill-rule:evenodd;clip-rule:evenodd;fill:#95C940;}
	.st65{fill-rule:evenodd;clip-rule:evenodd;fill:#FFFFFF;}
	.st66{fill:#FFC759;}
	.st67{fill:#D1A342;}
	.st68{fill:none;}
	.st69{clip-path:url(#SVGID_00000106120098511782400920000000512233766299834530_);}
	.st70{clip-path:url(#SVGID_00000145026675027911395780000000354526493432070529_);}
	.st71{fill:#9E1D20;}
	.st72{fill:#86888A;}
	.st73{fill:url(#SVGID_00000049205797310559095690000010696611250679491714_);}
	.st74{fill:url(#SVGID_00000026844008111301050830000003167009589738832543_);}
	.st75{fill:url(#SVGID_00000148646270059382515230000010834780919320610976_);}
	.st76{fill:url(#SVGID_00000030448700309261959260000014649542226623939234_);}
	.st77{fill:#F89522;}
	.st78{fill:#C0BFBF;}
	.st79{clip-path:url(#SVGID_00000157295466065313107800000003214268700835988371_);}
	.st80{clip-path:url(#SVGID_00000150098537505663134940000006226599934599297936_);fill:#650F0E;}
	.st81{clip-path:url(#SVGID_00000150098537505663134940000006226599934599297936_);fill:#670E0D;}
	.st82{clip-path:url(#SVGID_00000150098537505663134940000006226599934599297936_);fill:#690C0D;}
	.st83{clip-path:url(#SVGID_00000150098537505663134940000006226599934599297936_);fill:#6C0D0F;}
	.st84{clip-path:url(#SVGID_00000150098537505663134940000006226599934599297936_);fill:#6F0F10;}
	.st85{clip-path:url(#SVGID_00000150098537505663134940000006226599934599297936_);fill:#700F10;}
	.st86{clip-path:url(#SVGID_00000150098537505663134940000006226599934599297936_);fill:#721011;}
	.st87{clip-path:url(#SVGID_00000150098537505663134940000006226599934599297936_);fill:#741012;}
	.st88{clip-path:url(#SVGID_00000150098537505663134940000006226599934599297936_);fill:#761113;}
	.st89{clip-path:url(#SVGID_00000150098537505663134940000006226599934599297936_);fill:#781214;}
	.st90{clip-path:url(#SVGID_00000150098537505663134940000006226599934599297936_);fill:#7A1214;}
	.st91{clip-path:url(#SVGID_00000150098537505663134940000006226599934599297936_);fill:#7B1315;}
	.st92{clip-path:url(#SVGID_00000150098537505663134940000006226599934599297936_);fill:#7D1416;}
	.st93{clip-path:url(#SVGID_00000150098537505663134940000006226599934599297936_);fill:#7F1416;}
	.st94{clip-path:url(#SVGID_00000150098537505663134940000006226599934599297936_);fill:#801517;}
	.st95{clip-path:url(#SVGID_00000150098537505663134940000006226599934599297936_);fill:#811517;}
	.st96{clip-path:url(#SVGID_00000150098537505663134940000006226599934599297936_);fill:#831618;}
	.st97{clip-path:url(#SVGID_00000150098537505663134940000006226599934599297936_);fill:#851619;}
	.st98{clip-path:url(#SVGID_00000150098537505663134940000006226599934599297936_);fill:#871719;}
	.st99{clip-path:url(#SVGID_00000150098537505663134940000006226599934599297936_);fill:#88171A;}
	.st100{clip-path:url(#SVGID_00000150098537505663134940000006226599934599297936_);fill:#89181A;}
	.st101{clip-path:url(#SVGID_00000150098537505663134940000006226599934599297936_);fill:#8B181B;}
	.st102{clip-path:url(#SVGID_00000150098537505663134940000006226599934599297936_);fill:#8D181B;}
	.st103{clip-path:url(#SVGID_00000150098537505663134940000006226599934599297936_);fill:#8F191C;}
	.st104{clip-path:url(#SVGID_00000150098537505663134940000006226599934599297936_);fill:#91191C;}
	.st105{clip-path:url(#SVGID_00000150098537505663134940000006226599934599297936_);fill:#921A1D;}
	.st106{clip-path:url(#SVGID_00000150098537505663134940000006226599934599297936_);fill:#941A1D;}
	.st107{clip-path:url(#SVGID_00000150098537505663134940000006226599934599297936_);fill:#951B1E;}
	.st108{clip-path:url(#SVGID_00000150098537505663134940000006226599934599297936_);fill:#971B1E;}
	.st109{clip-path:url(#SVGID_00000150098537505663134940000006226599934599297936_);fill:#981B1F;}
	.st110{clip-path:url(#SVGID_00000150098537505663134940000006226599934599297936_);fill:#9A1C1F;}
	.st111{clip-path:url(#SVGID_00000150098537505663134940000006226599934599297936_);fill:#9B1C1F;}
	.st112{clip-path:url(#SVGID_00000150098537505663134940000006226599934599297936_);fill:#9D1C20;}
	.st113{clip-path:url(#SVGID_00000150098537505663134940000006226599934599297936_);fill:#9E1D20;}
	.st114{clip-path:url(#SVGID_00000150098537505663134940000006226599934599297936_);fill:#A01D20;}
	.st115{clip-path:url(#SVGID_00000150098537505663134940000006226599934599297936_);fill:#A01D21;}
	.st116{clip-path:url(#SVGID_00000150098537505663134940000006226599934599297936_);fill:#A11D21;}
	.st117{clip-path:url(#SVGID_00000150098537505663134940000006226599934599297936_);fill:#A21E21;}
	.st118{clip-path:url(#SVGID_00000150098537505663134940000006226599934599297936_);fill:#A31E22;}
	.st119{clip-path:url(#SVGID_00000150098537505663134940000006226599934599297936_);fill:#A51E22;}
	.st120{clip-path:url(#SVGID_00000150098537505663134940000006226599934599297936_);fill:#A61E22;}
	.st121{clip-path:url(#SVGID_00000150098537505663134940000006226599934599297936_);fill:#A71E22;}
	.st122{clip-path:url(#SVGID_00000150098537505663134940000006226599934599297936_);fill:#A91E23;}
	.st123{clip-path:url(#SVGID_00000150098537505663134940000006226599934599297936_);fill:#AB1F23;}
	.st124{clip-path:url(#SVGID_00000150098537505663134940000006226599934599297936_);fill:#AC1F23;}
	.st125{clip-path:url(#SVGID_00000150098537505663134940000006226599934599297936_);fill:#AD1F23;}
	.st126{clip-path:url(#SVGID_00000150098537505663134940000006226599934599297936_);fill:#AE1F24;}
	.st127{clip-path:url(#SVGID_00000150098537505663134940000006226599934599297936_);fill:#AF1F24;}
	.st128{clip-path:url(#SVGID_00000150098537505663134940000006226599934599297936_);fill:#B22024;}
	.st129{clip-path:url(#SVGID_00000150098537505663134940000006226599934599297936_);fill:#B32025;}
	.st130{clip-path:url(#SVGID_00000150098537505663134940000006226599934599297936_);fill:#B42025;}
	.st131{clip-path:url(#SVGID_00000150098537505663134940000006226599934599297936_);fill:#B52025;}
	.st132{clip-path:url(#SVGID_00000150098537505663134940000006226599934599297936_);fill:#B72025;}
	.st133{clip-path:url(#SVGID_00000150098537505663134940000006226599934599297936_);fill:#B92025;}
	.st134{clip-path:url(#SVGID_00000150098537505663134940000006226599934599297936_);fill:#BC2026;}
	.st135{clip-path:url(#SVGID_00000150098537505663134940000006226599934599297936_);fill:#BE2126;}
	.st136{clip-path:url(#SVGID_00000150098537505663134940000006226599934599297936_);fill:#BF2126;}
	.st137{clip-path:url(#SVGID_00000150098537505663134940000006226599934599297936_);fill:#C02126;}
	.st138{clip-path:url(#SVGID_00000150098537505663134940000006226599934599297936_);fill:#C12126;}
	.st139{clip-path:url(#SVGID_00000150098537505663134940000006226599934599297936_);fill:#C22126;}
	.st140{clip-path:url(#SVGID_00000150098537505663134940000006226599934599297936_);fill:#C32126;}
	.st141{clip-path:url(#SVGID_00000150098537505663134940000006226599934599297936_);fill:#C42126;}
	.st142{clip-path:url(#SVGID_00000150098537505663134940000006226599934599297936_);fill:#C52126;}
	.st143{clip-path:url(#SVGID_00000150098537505663134940000006226599934599297936_);fill:#C62127;}
	.st144{clip-path:url(#SVGID_00000150098537505663134940000006226599934599297936_);fill:#C72127;}
	.st145{clip-path:url(#SVGID_00000150098537505663134940000006226599934599297936_);fill:#C82127;}
	.st146{clip-path:url(#SVGID_00000150098537505663134940000006226599934599297936_);fill:#C92127;}
	.st147{clip-path:url(#SVGID_00000150098537505663134940000006226599934599297936_);fill:#CA2127;}
	.st148{clip-path:url(#SVGID_00000150098537505663134940000006226599934599297936_);fill:#CA2027;}
	.st149{clip-path:url(#SVGID_00000150098537505663134940000006226599934599297936_);fill:#CC2027;}
	.st150{clip-path:url(#SVGID_00000150098537505663134940000006226599934599297936_);fill:#CD2027;}
	.st151{clip-path:url(#SVGID_00000150098537505663134940000006226599934599297936_);fill:#CE2127;}
	.st152{clip-path:url(#SVGID_00000150098537505663134940000006226599934599297936_);fill:#CF2127;}
	.st153{clip-path:url(#SVGID_00000150098537505663134940000006226599934599297936_);fill:#D02027;}
	.st154{clip-path:url(#SVGID_00000150098537505663134940000006226599934599297936_);fill:#D12027;}
	.st155{clip-path:url(#SVGID_00000150098537505663134940000006226599934599297936_);fill:#D22027;}
	.st156{clip-path:url(#SVGID_00000150098537505663134940000006226599934599297936_);fill:#D32027;}
	.st157{clip-path:url(#SVGID_00000150098537505663134940000006226599934599297936_);fill:#D42027;}
	.st158{clip-path:url(#SVGID_00000150098537505663134940000006226599934599297936_);fill:#D52027;}
	.st159{clip-path:url(#SVGID_00000150098537505663134940000006226599934599297936_);fill:#D62027;}
	.st160{clip-path:url(#SVGID_00000150098537505663134940000006226599934599297936_);fill:#D72027;}
	.st161{clip-path:url(#SVGID_00000150098537505663134940000006226599934599297936_);fill:#D71F27;}
	.st162{clip-path:url(#SVGID_00000086689135107962777080000002935784931263058864_);}
	.st163{clip-path:url(#SVGID_00000075133951261291895330000000208692987098574484_);fill:#650F0E;}
	.st164{clip-path:url(#SVGID_00000075133951261291895330000000208692987098574484_);fill:#670E0D;}
	.st165{clip-path:url(#SVGID_00000075133951261291895330000000208692987098574484_);fill:#690C0D;}
	.st166{clip-path:url(#SVGID_00000075133951261291895330000000208692987098574484_);fill:#6C0D0F;}
	.st167{clip-path:url(#SVGID_00000075133951261291895330000000208692987098574484_);fill:#6F0F10;}
	.st168{clip-path:url(#SVGID_00000075133951261291895330000000208692987098574484_);fill:#700F10;}
	.st169{clip-path:url(#SVGID_00000075133951261291895330000000208692987098574484_);fill:#721011;}
	.st170{clip-path:url(#SVGID_00000075133951261291895330000000208692987098574484_);fill:#741012;}
	.st171{clip-path:url(#SVGID_00000075133951261291895330000000208692987098574484_);fill:#761113;}
	.st172{clip-path:url(#SVGID_00000075133951261291895330000000208692987098574484_);fill:#781214;}
	.st173{clip-path:url(#SVGID_00000075133951261291895330000000208692987098574484_);fill:#7A1214;}
	.st174{clip-path:url(#SVGID_00000075133951261291895330000000208692987098574484_);fill:#7B1315;}
	.st175{clip-path:url(#SVGID_00000075133951261291895330000000208692987098574484_);fill:#7D1416;}
	.st176{clip-path:url(#SVGID_00000075133951261291895330000000208692987098574484_);fill:#7F1416;}
	.st177{clip-path:url(#SVGID_00000075133951261291895330000000208692987098574484_);fill:#801517;}
	.st178{clip-path:url(#SVGID_00000075133951261291895330000000208692987098574484_);fill:#811517;}
	.st179{clip-path:url(#SVGID_00000075133951261291895330000000208692987098574484_);fill:#831618;}
	.st180{clip-path:url(#SVGID_00000075133951261291895330000000208692987098574484_);fill:#851619;}
	.st181{clip-path:url(#SVGID_00000075133951261291895330000000208692987098574484_);fill:#871719;}
	.st182{clip-path:url(#SVGID_00000075133951261291895330000000208692987098574484_);fill:#88171A;}
	.st183{clip-path:url(#SVGID_00000075133951261291895330000000208692987098574484_);fill:#89181A;}
	.st184{clip-path:url(#SVGID_00000075133951261291895330000000208692987098574484_);fill:#8B181B;}
	.st185{clip-path:url(#SVGID_00000075133951261291895330000000208692987098574484_);fill:#8D181B;}
	.st186{clip-path:url(#SVGID_00000075133951261291895330000000208692987098574484_);fill:#8F191C;}
	.st187{clip-path:url(#SVGID_00000075133951261291895330000000208692987098574484_);fill:#91191C;}
	.st188{clip-path:url(#SVGID_00000075133951261291895330000000208692987098574484_);fill:#921A1D;}
	.st189{clip-path:url(#SVGID_00000075133951261291895330000000208692987098574484_);fill:#941A1D;}
	.st190{clip-path:url(#SVGID_00000075133951261291895330000000208692987098574484_);fill:#951B1E;}
	.st191{clip-path:url(#SVGID_00000075133951261291895330000000208692987098574484_);fill:#971B1E;}
	.st192{clip-path:url(#SVGID_00000075133951261291895330000000208692987098574484_);fill:#981B1F;}
	.st193{clip-path:url(#SVGID_00000075133951261291895330000000208692987098574484_);fill:#9A1C1F;}
	.st194{clip-path:url(#SVGID_00000075133951261291895330000000208692987098574484_);fill:#9B1C1F;}
	.st195{clip-path:url(#SVGID_00000075133951261291895330000000208692987098574484_);fill:#9D1C20;}
	.st196{clip-path:url(#SVGID_00000075133951261291895330000000208692987098574484_);fill:#9E1D20;}
	.st197{clip-path:url(#SVGID_00000075133951261291895330000000208692987098574484_);fill:#A01D20;}
	.st198{clip-path:url(#SVGID_00000075133951261291895330000000208692987098574484_);fill:#A01D21;}
	.st199{clip-path:url(#SVGID_00000075133951261291895330000000208692987098574484_);fill:#A11D21;}
	.st200{clip-path:url(#SVGID_00000075133951261291895330000000208692987098574484_);fill:#A21E21;}
	.st201{clip-path:url(#SVGID_00000075133951261291895330000000208692987098574484_);fill:#A31E22;}
	.st202{clip-path:url(#SVGID_00000075133951261291895330000000208692987098574484_);fill:#A51E22;}
	.st203{clip-path:url(#SVGID_00000075133951261291895330000000208692987098574484_);fill:#A61E22;}
	.st204{clip-path:url(#SVGID_00000075133951261291895330000000208692987098574484_);fill:#A71E22;}
	.st205{clip-path:url(#SVGID_00000075133951261291895330000000208692987098574484_);fill:#A91E23;}
	.st206{clip-path:url(#SVGID_00000075133951261291895330000000208692987098574484_);fill:#AB1F23;}
	.st207{clip-path:url(#SVGID_00000075133951261291895330000000208692987098574484_);fill:#AC1F23;}
	.st208{clip-path:url(#SVGID_00000075133951261291895330000000208692987098574484_);fill:#AD1F23;}
	.st209{clip-path:url(#SVGID_00000075133951261291895330000000208692987098574484_);fill:#AE1F24;}
	.st210{clip-path:url(#SVGID_00000075133951261291895330000000208692987098574484_);fill:#AF1F24;}
	.st211{clip-path:url(#SVGID_00000075133951261291895330000000208692987098574484_);fill:#B22024;}
	.st212{clip-path:url(#SVGID_00000075133951261291895330000000208692987098574484_);fill:#B32025;}
	.st213{clip-path:url(#SVGID_00000075133951261291895330000000208692987098574484_);fill:#B42025;}
	.st214{clip-path:url(#SVGID_00000075133951261291895330000000208692987098574484_);fill:#B52025;}
	.st215{clip-path:url(#SVGID_00000075133951261291895330000000208692987098574484_);fill:#B72025;}
	.st216{clip-path:url(#SVGID_00000075133951261291895330000000208692987098574484_);fill:#B92025;}
	.st217{clip-path:url(#SVGID_00000075133951261291895330000000208692987098574484_);fill:#BC2026;}
	.st218{clip-path:url(#SVGID_00000075133951261291895330000000208692987098574484_);fill:#BE2126;}
	.st219{clip-path:url(#SVGID_00000075133951261291895330000000208692987098574484_);fill:#BF2126;}
	.st220{clip-path:url(#SVGID_00000075133951261291895330000000208692987098574484_);fill:#C02126;}
	.st221{clip-path:url(#SVGID_00000075133951261291895330000000208692987098574484_);fill:#C12126;}
	.st222{clip-path:url(#SVGID_00000075133951261291895330000000208692987098574484_);fill:#C22126;}
	.st223{clip-path:url(#SVGID_00000075133951261291895330000000208692987098574484_);fill:#C32126;}
	.st224{clip-path:url(#SVGID_00000075133951261291895330000000208692987098574484_);fill:#C42126;}
	.st225{clip-path:url(#SVGID_00000075133951261291895330000000208692987098574484_);fill:#C52126;}
	.st226{clip-path:url(#SVGID_00000075133951261291895330000000208692987098574484_);fill:#C62127;}
	.st227{clip-path:url(#SVGID_00000075133951261291895330000000208692987098574484_);fill:#C72127;}
	.st228{clip-path:url(#SVGID_00000075133951261291895330000000208692987098574484_);fill:#C82127;}
	.st229{clip-path:url(#SVGID_00000075133951261291895330000000208692987098574484_);fill:#C92127;}
	.st230{clip-path:url(#SVGID_00000075133951261291895330000000208692987098574484_);fill:#CA2127;}
	.st231{clip-path:url(#SVGID_00000075133951261291895330000000208692987098574484_);fill:#CA2027;}
	.st232{clip-path:url(#SVGID_00000075133951261291895330000000208692987098574484_);fill:#CC2027;}
	.st233{clip-path:url(#SVGID_00000075133951261291895330000000208692987098574484_);fill:#CD2027;}
	.st234{clip-path:url(#SVGID_00000075133951261291895330000000208692987098574484_);fill:#CE2127;}
	.st235{clip-path:url(#SVGID_00000075133951261291895330000000208692987098574484_);fill:#CF2127;}
	.st236{clip-path:url(#SVGID_00000075133951261291895330000000208692987098574484_);fill:#D02027;}
	.st237{clip-path:url(#SVGID_00000075133951261291895330000000208692987098574484_);fill:#D12027;}
	.st238{clip-path:url(#SVGID_00000075133951261291895330000000208692987098574484_);fill:#D22027;}
	.st239{clip-path:url(#SVGID_00000075133951261291895330000000208692987098574484_);fill:#D32027;}
	.st240{clip-path:url(#SVGID_00000075133951261291895330000000208692987098574484_);fill:#D42027;}
	.st241{clip-path:url(#SVGID_00000075133951261291895330000000208692987098574484_);fill:#D52027;}
	.st242{clip-path:url(#SVGID_00000075133951261291895330000000208692987098574484_);fill:#D62027;}
	.st243{clip-path:url(#SVGID_00000075133951261291895330000000208692987098574484_);fill:#D72027;}
	.st244{clip-path:url(#SVGID_00000075133951261291895330000000208692987098574484_);fill:#D71F27;}
	.st245{fill:#C3996B;}
	.st246{fill:#F06724;}
	.st247{fill:#231F20;}
	.st248{fill:#AEB3B6;}
	.st249{fill:#EE3537;}
	.st250{fill:#9BA0A3;}
	.st251{fill:#AFB3B5;}
	.st252{fill:#F2EB44;}
	.st253{fill:#FFDD26;}
	.st254{clip-path:url(#XMLID_00000003786834702783653260000006507458768506750620_);}
	.st255{fill:#7E8386;}
	.st256{fill:#A4AAAC;}
	.st257{fill:#131718;}
	.st258{fill:#007843;}
	.st259{fill:#2AB34B;}
	.st260{fill:none;stroke:#FFFFFF;stroke-width:1.4841;stroke-miterlimit:10;}
	.st261{fill:#2E3192;}
	.st262{fill:#154458;}
	.st263{fill:#C72026;}
	.st264{fill:#5FBB46;}
	.st265{fill:#1A5F30;}
	.st266{fill:#293896;}
	.st267{filter:url(#Adobe_OpacityMaskFilter_00000082344595020309267940000003925351887966722951_);}
	.st268{filter:url(#Adobe_OpacityMaskFilter_00000126301324471547520300000000506260349304988077_);}
	
		.st269{mask:url(#SVGID_00000160162303967953928750000004158611640014116269_);fill:url(#SVGID_00000031178915803031605550000005386632493127663494_);}
	.st270{filter:url(#Adobe_OpacityMaskFilter_00000122698380881405660700000016566266256277585573_);}
	.st271{filter:url(#Adobe_OpacityMaskFilter_00000088109453261075061160000013178910476143026876_);}
	
		.st272{mask:url(#SVGID_00000047048125949464518520000013370300668283742341_);fill:url(#SVGID_00000101802296797963444300000016695630451175118244_);}
	.st273{filter:url(#Adobe_OpacityMaskFilter_00000036963967423021494110000005311454127955831208_);}
	.st274{filter:url(#Adobe_OpacityMaskFilter_00000140714148516904619990000017306608551462426788_);}
	
		.st275{mask:url(#SVGID_00000086651169346793402200000007094869499589193916_);fill:url(#SVGID_00000003806974819839616120000015588314971332964230_);}
	.st276{filter:url(#Adobe_OpacityMaskFilter_00000173859998496584353240000002529196129730889373_);}
	.st277{filter:url(#Adobe_OpacityMaskFilter_00000122719095691503945680000013136615948410845364_);}
	
		.st278{mask:url(#SVGID_00000099650030019603794600000011687942593814863516_);fill:url(#SVGID_00000119079939144225781240000014595599911738595505_);}
	.st279{filter:url(#Adobe_OpacityMaskFilter_00000106128798907068945220000012164173220396427919_);}
	.st280{filter:url(#Adobe_OpacityMaskFilter_00000111869706005073293710000013487970595814140298_);}
	
		.st281{mask:url(#SVGID_00000053539955369612205430000006261103193871852206_);fill:url(#SVGID_00000119806985007637513150000017346335711771058367_);}
	.st282{filter:url(#Adobe_OpacityMaskFilter_00000103239813787569378130000017421421156626294964_);}
	.st283{filter:url(#Adobe_OpacityMaskFilter_00000178925185133798722090000009688181294546052019_);}
	
		.st284{mask:url(#SVGID_00000095305850511053787740000010552973428111934098_);fill:url(#SVGID_00000041278981283691634030000011858102036716779449_);}
	.st285{filter:url(#Adobe_OpacityMaskFilter_00000181055748594813316470000017845888738209685926_);}
	.st286{filter:url(#Adobe_OpacityMaskFilter_00000127044064258901648470000003203803629882070698_);}
	
		.st287{mask:url(#SVGID_00000019676983551528604880000008578724738948776097_);fill:url(#SVGID_00000134931154121133048810000001129518640359122601_);}
	.st288{filter:url(#Adobe_OpacityMaskFilter_00000177448945189889377010000009770155922555556011_);}
	.st289{filter:url(#Adobe_OpacityMaskFilter_00000109727938311528277090000010475204743703294625_);}
	
		.st290{mask:url(#SVGID_00000047738897514065475710000015054893002005922223_);fill:url(#SVGID_00000171715106979803023690000001096075605088761484_);}
	.st291{filter:url(#Adobe_OpacityMaskFilter_00000047770342712172613380000003862010463927204771_);}
	.st292{filter:url(#Adobe_OpacityMaskFilter_00000041268907878562605160000013822274373084072324_);}
	
		.st293{mask:url(#SVGID_00000159470947683408179830000005611468144937530766_);fill:url(#SVGID_00000140723506170290511830000004939289749328771758_);}
	.st294{filter:url(#Adobe_OpacityMaskFilter_00000049902527500502655030000015549783420915621039_);}
	.st295{filter:url(#Adobe_OpacityMaskFilter_00000098194736722874604300000015986280917109018264_);}
	
		.st296{mask:url(#SVGID_00000070805909797271643110000005962689005010672797_);fill:url(#SVGID_00000044880024148370820830000001202044395534092217_);}
	.st297{clip-path:url(#SVGID_00000160175289060206545840000011322331702714403222_);fill:#FFF200;}
	
		.st298{clip-path:url(#SVGID_00000160175289060206545840000011322331702714403222_);fill:none;stroke:#FFFFFF;stroke-width:4.8568;stroke-linejoin:round;stroke-miterlimit:10;}
	.st299{clip-path:url(#SVGID_00000160175289060206545840000011322331702714403222_);fill:#ED1C24;}
	.st300{clip-path:url(#SVGID_00000160175289060206545840000011322331702714403222_);fill:#FFFFFF;}
	.st301{clip-path:url(#SVGID_00000160175289060206545840000011322331702714403222_);fill:#2E3192;}
	.st302{clip-path:url(#SVGID_00000160175289060206545840000011322331702714403222_);}
	.st303{clip-path:url(#SVGID_00000160175289060206545840000011322331702714403222_);fill:#F4817F;}
	.st304{clip-path:url(#SVGID_00000160175289060206545840000011322331702714403222_);fill:#56BF98;}
	.st305{clip-path:url(#SVGID_00000160175289060206545840000011322331702714403222_);fill:#570C08;}
	.st306{clip-path:url(#SVGID_00000160175289060206545840000011322331702714403222_);fill:#00A750;}
	
		.st307{fill:#FFFFFF;stroke:url(#SVGID_00000031919013551165936560000003605208603980570518_);stroke-width:7.11;stroke-miterlimit:10;}
	.st308{fill:#ED2224;}
	.st309{fill:#074E28;}
	.st310{fill:#EB2627;}
	.st311{fill:#D1D3D4;}
	.st312{fill:#5F1F16;}
	.st313{fill:#F1E7E6;}
	.st314{fill:#ED2024;}
	.st315{fill:url(#SVGID_00000164509602064200273700000016576808215654856352_);}
	.st316{fill:url(#SVGID_00000075133462143369961460000007421314808284948387_);}
	.st317{fill:#BB2025;}
	.st318{fill:url(#SVGID_00000087371398143438042180000006438665549693424825_);}
	.st319{fill:url(#SVGID_00000181057732174057735620000013924234705394660786_);}
	.st320{fill:none;stroke:#7F8080;stroke-width:0.8623;stroke-miterlimit:10;}
	.st321{fill:url(#SVGID_00000029011878130282678370000014595834104456363409_);}
	.st322{fill:url(#SVGID_00000103259017191393852230000000686426026234805655_);}
	.st323{fill:url(#SVGID_00000085233705791299311810000015302889455122423483_);}
	.st324{fill:url(#SVGID_00000028327171850019073180000009445732707819184537_);}
	.st325{fill:url(#SVGID_00000093162250469217598890000017606595130663385532_);}
	.st326{fill:url(#SVGID_00000123413298974381481460000004262242719728980656_);}
	.st327{fill:url(#SVGID_00000151523611104905227200000016334508913725179053_);}
	.st328{fill:url(#SVGID_00000014622916993824203320000009630761820195816895_);}
	.st329{fill:url(#SVGID_00000094588199088426732920000015585502087011892380_);}
	.st330{fill:url(#SVGID_00000033368561464466962670000013284628390639774338_);}
	.st331{fill:url(#SVGID_00000157986539621512819180000004105732533868061593_);}
	.st332{fill:url(#SVGID_00000063626553398734031820000009353841800796082346_);}
	.st333{fill:url(#SVGID_00000029018017520042378140000013752342038826805177_);}
	.st334{fill:url(#SVGID_00000117656905920556648050000015006298848622054018_);}
	.st335{fill:#E01E26;}
</style>
<g>
	<g>
		<g>
			<path class="st2" d="M152.84,109.95c0,21.27-17.23,38.51-38.51,38.51c-21.26,0-38.51-17.24-38.51-38.51
				c0-21.25,17.25-38.51,38.51-38.51C135.61,71.44,152.84,88.7,152.84,109.95"/>
		</g>
	</g>
	<g>
		<path class="st3" d="M113.19,48.58C79.39,48.58,52,75.95,52,109.75c0,33.78,27.39,61.16,61.19,61.16
			c33.77,0,61.14-27.38,61.14-61.16C174.34,75.95,146.97,48.58,113.19,48.58L113.19,48.58z M113.19,146.26
			c-20.18,0-36.52-16.35-36.52-36.51c0-20.15,16.34-36.53,36.52-36.53c20.18,0,36.51,16.38,36.51,36.53
			C149.7,129.91,133.37,146.26,113.19,146.26"/>
	</g>
	<g>
		<g>
			<path class="st2" d="M158.54,85.43l4.4-2.34c0.46,0.85,0.38,1.42-0.17,1.72l-2.68,1.45C159.51,86.56,159.01,86.29,158.54,85.43
				L158.54,85.43z M155.91,93.41l1.81-0.89c1.44-0.75,1.89-2.06,1.36-3.88c1.32,1.4,2.6,1.77,3.86,1.1l1.95-1.04
				c1-0.54,1.5-1.34,1.51-2.43c0.04-1.09-0.27-2.19-0.85-3.32L162.9,78l-16.2,8.65l2.11,4l7.78-4.17c0.45,0.86,0.39,1.43-0.15,1.72
				c-0.03,0.03-0.73,0.36-2.1,1.07l-0.98,0.5l-0.01,0.01c-2.15,1.14-3.34,2.05-3.56,2.73l2.14,3.99
				C152,95.82,153.32,94.78,155.91,93.41"/>
		</g>
		<g>
			<path class="st2" d="M72.44,90.38l-1.87,4.51l2.31,1.73l-1.7,4.09l-13.5-11.3l1.83-4.37l17.53,1.58l-1.74,4.18L72.44,90.38
				L72.44,90.38z M68.75,89.83l-6.16-0.89l4.98,3.71L68.75,89.83"/>
		</g>
		<g>
			<polyline class="st2" points="68.93,71.51 71.94,68.78 82.07,72.12 75.83,65.24 78.84,62.5 90.15,74.92 87.14,77.68 77.04,74.35 
				83.26,81.19 80.23,83.94 68.93,71.51 			"/>
		</g>
		<g>
			<path class="st2" d="M102.09,62.62l4.04,0.19c0.14,1.31,0.07,2.43-0.19,3.42c-0.28,0.98-0.73,1.78-1.38,2.45
				c-0.64,0.66-1.56,1.17-2.76,1.55c-1.46,0.44-2.72,0.57-3.8,0.34c-1.09-0.23-2.16-0.88-3.22-1.95c-1.07-1.06-1.9-2.59-2.53-4.57
				c-0.82-2.65-0.87-4.88-0.14-6.67c0.75-1.79,2.18-3.01,4.34-3.67c1.7-0.52,3.14-0.52,4.35,0c1.22,0.51,2.33,1.53,3.32,3.08
				l-3.36,2.12c-0.28-0.46-0.51-0.78-0.73-0.97c-0.35-0.29-0.71-0.5-1.11-0.59c-0.39-0.11-0.8-0.09-1.21,0.03
				c-0.94,0.29-1.51,0.96-1.74,2.01c-0.16,0.8-0.03,1.9,0.42,3.33c0.54,1.79,1.16,2.93,1.81,3.45c0.64,0.53,1.38,0.66,2.2,0.4
				c0.79-0.23,1.3-0.69,1.53-1.35C102.17,64.56,102.22,63.71,102.09,62.62"/>
		</g>
		<g>
			<polyline class="st2" points="116.14,52.04 120.42,52.67 119.6,58.49 124.28,59.15 125.09,53.31 129.41,53.93 127.03,70.56 
				122.73,69.94 123.69,63.23 119.01,62.57 118.06,69.27 113.76,68.67 116.14,52.04 			"/>
		</g>
		<g>
			<path class="st2" d="M137.86,66.58c1.54-2.27,3.26-3.68,5.17-4.23c1.91-0.56,3.8-0.2,5.67,1.06c1.95,1.31,3,2.94,3.21,4.88
				c0.2,1.95-0.46,4.05-1.97,6.29c-1.1,1.63-2.22,2.81-3.38,3.53c-1.16,0.73-2.36,1.1-3.61,1.08c-1.26,0-2.52-0.43-3.81-1.31
				c-1.32-0.88-2.22-1.86-2.75-2.94c-0.51-1.08-0.67-2.33-0.47-3.79C136.12,69.74,136.77,68.2,137.86,66.58L137.86,66.58z
				 M141.44,69.03c-0.95,1.39-1.42,2.55-1.4,3.46c0.03,0.91,0.4,1.61,1.17,2.11c0.76,0.52,1.56,0.61,2.37,0.31
				c0.83-0.32,1.76-1.25,2.82-2.82c0.88-1.3,1.29-2.41,1.28-3.31c-0.03-0.89-0.42-1.59-1.17-2.11c-0.73-0.49-1.51-0.57-2.35-0.25
				C143.31,66.74,142.4,67.61,141.44,69.03"/>
		</g>
		<g>
			<path class="st2" d="M68.31,133.68l0.34,3.98c-1.26,0.29-2.36,0.38-3.36,0.23c-0.99-0.11-1.86-0.46-2.59-1
				c-0.72-0.55-1.33-1.39-1.86-2.49c-0.63-1.37-0.91-2.58-0.84-3.68c0.08-1.07,0.57-2.2,1.48-3.38c0.9-1.18,2.28-2.2,4.15-3.06
				c2.48-1.17,4.64-1.5,6.49-1.01c1.83,0.48,3.23,1.73,4.17,3.74c0.74,1.58,0.92,2.98,0.57,4.24c-0.34,1.25-1.2,2.47-2.58,3.64
				l-2.49-3.01c0.39-0.33,0.67-0.61,0.82-0.83c0.25-0.38,0.41-0.76,0.44-1.17c0.04-0.41-0.02-0.8-0.2-1.18
				c-0.41-0.88-1.14-1.34-2.2-1.42c-0.79-0.06-1.86,0.23-3.2,0.85c-1.66,0.76-2.7,1.51-3.11,2.21c-0.45,0.71-0.48,1.43-0.12,2.2
				c0.33,0.74,0.84,1.19,1.53,1.33C66.41,134.02,67.27,133.95,68.31,133.68"/>
		</g>
		<g>
			<polyline class="st2" points="82.59,137.51 91.35,144.85 89.09,147.53 83.62,142.95 81.91,144.98 86.98,149.23 84.81,151.8 
				79.76,147.57 77.66,150.07 83.28,154.78 80.87,157.64 71.96,150.19 82.59,137.51 			"/>
		</g>
		<g>
			<polyline class="st2" points="96.65,147.97 102.15,149.2 102.05,159.5 106.37,150.16 111.82,151.37 108.19,167.52 104.79,166.75 
				107.55,154.45 102.15,166.15 99.08,165.47 99.21,152.57 96.44,164.88 93.05,164.11 96.65,147.97 			"/>
		</g>
		<g>
			<polyline class="st2" points="117.87,150.8 128.98,148.06 129.81,151.48 122.86,153.19 123.51,155.75 129.93,154.16 
				130.75,157.44 124.32,159.03 125.09,162.19 132.23,160.43 133.13,164.06 121.83,166.84 117.87,150.8 			"/>
		</g>
		<g>
			<polyline class="st2" points="134.68,145.32 137.72,142.78 147.6,146.48 141.72,139.45 144.81,136.86 155.4,149.56 
				152.33,152.13 142.51,148.45 148.35,155.45 145.29,158.01 134.68,145.32 			"/>
		</g>
		<g>
			<polyline class="st2" points="148.22,132.35 153.53,120.59 157.25,122.29 155.47,126.23 166.8,131.38 165.04,135.23 
				153.72,130.1 151.93,134.04 148.22,132.35 			"/>
		</g>
	</g>
	<g>
		<g>
			<g>
				<path class="st261" d="M137.16,119.44l-6.6,4.06h2.81c0,0-0.36,3.8-9.06,7.31c-2.54,0.56-7.69,1.46-8.39-1.43
					c-0.47-1.28-0.74-2.36-0.92-5.43c-0.5,0-3.65,1.75-4.18,2.04c0.07,6.39-0.48,5.85-1.37,6.7c-1.56,0.87-3.57,0-4.83-0.38
					c-0.91-0.49-1.92-0.59-1.64-0.78c0.27-0.17,0.81-0.09,2.36,0.29c2.55,1.07,3.2,0.11,4.11-0.76c0.77-0.98,0.75-4.01,0.73-4.9
					l-0.96,0.23c0,0,0.8,4.6-3.99,4.7c-3.52-0.56-2.35,0.62-8.95-3.43c-2.71-2-4.88-3.79-5.96-5.97c2.25-0.09,2.97,0,2.97,0
					l-6.33-4.39c0,0-0.82,6.12-1.09,6.65c1.49-1.5,1.49-1.5,1.49-1.5s2.59,6.73,4.49,9.18c1.82,2.36,4.15,5.16,8.95,7.42
					c2.27,0.9,4.17,1.52,5.97,2.16c1.9,0.63,4.88,2.08,5.8,3.71c0.62-0.64,5.33-4.34,8.96-5.23c2.06-0.83,5.14-1.91,7.4-4.35
					c1.79-1.89,3.97-3.88,7.32-10.57c1.54,1.72,1.9,1.9,1.9,1.9L137.16,119.44z M89.23,120.97l-0.18-0.89c0,0,1.8,0.62,2.53,1.25
					C91.31,121.51,89.23,120.54,89.23,120.97z M95.29,133.36c-3.55-2.77-5.63-8.14-5.69-8.31c0.02,0.03,0.17,0.25,1.35,1.99
					c5.42,7.42,8.78,8.49,10.48,9.21c1.64,0.64,2.18,1.09,2.8,1.72C101.26,137.25,98.1,135.25,95.29,133.36z M110.03,138.51
					c-1.26,0-2.81,0.46-6.87-1.9c0.9,0.08,2.98,1.36,4.7,1.36c1.64,0.17,2.62,1,2.45-3.51c0.27-0.83,0.35-0.55,0.35-0.55
					S111.03,137.15,110.03,138.51z M115.74,132.37c3.25,1.53,8.12,0.71,8.12,0.71c-1.35,0.92-5.7,0.55-7.49,0.19
					c-1.81-0.63-1.73,0.19-1.73,0.19s-0.08,0.63-0.17,2.43c0.37,1.99,0.99,1.37,1.81,1.56c0.8,0.17,4.16-0.47,3.89-0.19
					c-0.37,0.27-2.35,0.63-4.62,0.89c-1.63,0.29-1.44-0.8-1.44-0.8s0-2.63-0.09-4.27C114.19,131.83,114.92,132.09,115.74,132.37z
					 M125.35,136.1c-1.55,1.22-2.46,1.77-6.74,3.13c-2.17,0.73-4.7,2.81-5.13,3.7c0-0.45-0.28-0.71-0.28-0.71s0.91-2.08,5.7-3.71
					C121.83,137.58,123.68,137.14,125.35,136.1c0.48-0.38,1.03-0.83,1.76-1.38C126.52,135.28,125.95,135.73,125.35,136.1z
					 M137.35,124.87c-0.29,0.09-0.19-1.72-0.92-1.72c0,0-0.08-1.26,0.45-0.54C137.25,123.32,137.44,124.33,137.35,124.87z"/>
				<path class="st261" d="M125.35,136.1c0.48-0.38,1.03-0.83,1.76-1.38C126.52,135.28,125.95,135.73,125.35,136.1z"/>
				<path class="st261" d="M137.35,124.87c-0.29,0.09-0.19-1.72-0.92-1.72"/>
			</g>
			<g>
				<path class="st261" d="M114.78,116.78c0,0-1.09,1.15-0.95,1.83c-1.22,0.68-2.85,1.77-2.85,1.77s0.29-6.77-0.13-7.67l-0.39,7.8
					l-0.69,0.27l0.69-19.66c0,0,0.27,0.07,0.39,0.35c0.13,0.27,1.36,2.64,3.52,3.32c0.14,0.94,0.21,1.42,0.67,1.82
					C114.92,109.74,114.78,116.78,114.78,116.78z"/>
			</g>
			<g>
				<path class="st261" d="M109.63,122.75l-0.14,1.56l0.89-0.21v-1.35C110.38,122.75,109.83,122.4,109.63,122.75"/>
			</g>
			<g>
				<path class="st261" d="M94.56,89.75c0,0.45-0.36,0.8-0.82,0.8c-0.44,0-0.8-0.36-0.8-0.8c0-0.46,0.36-0.83,0.8-0.83
					C94.2,88.93,94.56,89.29,94.56,89.75"/>
			</g>
			<g>
				<path class="st261" d="M101.63,126.05c0,0,0.9,3.24,3.07,1.81c3.08-1.55,4.43-1.63,3.62-4.16c-0.64,0.09-0.82,0.09-0.82,0.09
					s0.82,2.08-1.44,2.45c-2.26,0.9-2.26,0.9-2.26,0.9s-0.81,0.73-1.45-1.81c0-0.54,0.54-0.8,3.34-1.71
					c0.81-1.09,0.81-1.35,0.81-1.35s-3.62,1.17-4.51,1.79C101.34,124.69,101.26,125.32,101.63,126.05"/>
			</g>
			<g>
				<path class="st261" d="M107.19,125.04c0,0-0.49,0.74-1.1-0.14c-0.07-0.87-0.27-1.88,1.1-2.69c1.42-0.55,3.12-1.3,3.66-1.3
					c0.55,0,2.17-0.21,2.24,1.96c-0.54,0.27-0.54,0.27-0.54,0.27s-0.42-0.74-0.83-1.01c-0.4-0.27-0.8-0.35-2.29,0.33
					c-1.51,0.56-2.24,0.41-2.24,1.5C107.24,124.44,107.19,125.04,107.19,125.04"/>
			</g>
			<g>
				<path class="st261" d="M108.88,124.97l-0.62,1.43c0,0,0.55-0.27,3.94-1.7c-0.94-0.39-1.03-0.6-1.03-0.6L108.88,124.97"/>
			</g>
			<g>
				<path class="st261" d="M111.52,122.46c0,0-0.75-0.33-0.8,0.21c0.26,0.53,0.67,1.02,0.67,1.02s0.67,0.88,1.75,0.48
					c1.29-0.62,4.08-1.85,4.4-2.31c0.36-0.49,0.97-1.29-0.32-2.58c-1.03-0.68-1.29-0.68-1.29-0.68s-0.41,0.13,0.07,0.68
					c0.54,0.33,1.36,1.5,0.28,2.3c-1.36,0.82-2.72,1.62-3.13,1.76C112.74,123.49,112.48,124.02,111.52,122.46"/>
			</g>
			<g>
				<path class="st261" d="M112.88,121.1c0,0-0.82-0.87-1.29-0.66c1.02-0.55,2.38-1.16,2.38-1.16s0.27,0.95,0.54,0.95
					C113.28,120.64,112.88,121.1,112.88,121.1"/>
			</g>
			<g>
				<path class="st261" d="M113.35,122.75l-0.33-1.16c0,0,1.16-1.01,1.97-1.01c0.06,1.08,0,1.34,0,1.34L113.35,122.75"/>
			</g>
			<g>
				<path class="st261" d="M116.41,120.29c0,0,0.13,0.63-0.07,0.63c-0.21,0-1.42-0.68-1.97-1.49c-0.07-0.82-0.13-1.22,0.75-2.38
					c0.88-1.14,2.04-2.5,2.65-2.77c0.61-0.14,1.82,0.27,1.96,0.95c-0.07,0.33-0.14,0.75-0.53,0.46c-0.42-0.27-1.08-1.07-1.91,0.14
					c-0.87,1.21-1.97,2.25-1.97,2.85C115.32,119.08,114.98,119.15,116.41,120.29"/>
			</g>
			<g>
				<path class="st261" d="M117.83,119.28l0.47,1.09c0,0,1.77-2.64,2.11-2.79c-1.1,0.08-1.37,0.08-1.37,0.08L117.83,119.28"/>
			</g>
			<g>
				<path class="st261" d="M118.11,116.04c0,0-0.49,0.13-0.49,0.33c0,0.21,0.21,0.48,0.4,0.55c0.96,0.12,2.59,0.74,3.34-1.37
					c0.54-1.83,0.8-3.65,0.6-4.68c-0.28-0.6-0.07-1.08-1.96-1.08c0.27,0.76,0.27,0.76,0.27,0.76s1.21-0.21,0.82,1.02
					c-0.19,1.28-0.48,3.31-0.88,4.07C120.08,116.1,119.59,116.85,118.11,116.04"/>
			</g>
			<g>
				<path class="st261" d="M118.11,110.06c0,0-1.23,1.16-1.16,4.01c0.54-0.21,0.82-0.47,1.21-0.27c0.22-1.03,0.08-1.83,0.55-2.59
					C118.16,110.27,118.11,110.06,118.11,110.06"/>
			</g>
			<g>
				<path class="st261" d="M114.85,105.13c0,0,0.68,0.68,1.35,0.26c0.62,0.95,0.74,1.16,1.34,1.36c-0.26,0.54-0.52,0.87-0.52,1.08
					C117.03,108.04,114.92,106.81,114.85,105.13"/>
			</g>
			<g>
				<path class="st261" d="M120.76,111.28l-0.14,0.82c0,0-0.48,0.82-1.62-1.23c-1.16-2.02-1.16-2.02-1.16-2.02s-0.81-1.17,0.28-2.31
					c0.88-0.62,1.28-0.82,1.28-0.82s0.61,0.27,0.27,0.61c-0.54,0.33-1.63,0.41-1.15,1.83c0.8,1.42,1.35,2.58,1.35,2.58
					S120.35,111.36,120.76,111.28"/>
			</g>
			<g>
				<path class="st261" d="M120.68,107.5l0.41-0.9c0,0,2.38,1.51,1.35,4.35c-0.27-0.62-0.27-1.16-0.74-1.09
					C121.69,108.78,121.09,107.98,120.68,107.5"/>
			</g>
			<g>
				<path class="st261" d="M118.78,107.29c0,0-0.26,0.95,0.42,0.69c0.81-0.3,1.35-0.69,1.76-1.78c-0.41-1.08-1.57-2.52-2.11-3.4
					c-0.41-0.33-1.77-1.48-3.25,0.09c-0.21,0.39,0.07,1.01,0.68,0.73c0.61-0.61,0.61-0.61,0.61-0.61s0.6-0.81,1.42,0.41
					c0.94,1.21,1.42,2.1,1.42,2.1s0.69,0.6,0,1.22C119.12,107.08,118.78,107.29,118.78,107.29"/>
			</g>
			<g>
				<path class="st261" d="M116.95,103.68c0,0,0.41-0.47,0.82-0.06c0.07,0.48-0.08,1.01-0.82,1.23c-0.61,0.32-0.61,0.32-1.96-0.14
					c-1.42-0.95-2.92-1.75-3.47-2.85c0.82,0.2,1.56,0.2,1.71,0.07c0.53,0.61,1.28,1.55,2.09,1.83
					C116,103.96,116.34,104.1,116.95,103.68"/>
			</g>
			<g>
				<path class="st261" d="M112.81,100.24c0,0,0.75,0.07,1.08,0c0.36-0.07-0.27,1.14-0.61,1.28c-0.34,0.15-2.83-0.14-4.75-1.97
					c0-0.13,0-0.13,0-0.13l3.46,0.67c0,0-0.06-0.88,0.42-1.16c0.47-0.26,1.56-0.26,2.17,0.07c0.6,0.34,2.65,1.96,3.18,2.72
					c-1.15,0.13-1.43,0.28-1.43,0.28s-1.42-1.84-2.09-1.98C113.56,99.76,112.88,99.43,112.81,100.24"/>
			</g>
			<g>
				<path class="st261" d="M114.58,98.68c0,0-1.24-0.28-1.84-0.07c-0.54-0.48-1.82-2.18-3.32-1.03c-0.68-0.06-0.89-0.27-0.68-0.68
					c0.48-0.41,1.89-1.09,3.38,0.15C113.89,97.92,114.58,98.13,114.58,98.68"/>
			</g>
			<g>
				<path class="st261" d="M109.97,97.86c0,0,0.34-0.54,0.88-0.27c0.42,0.21,0.61,1.03-0.67,1.58c-0.69,0-1.44,0.46-2.93-1.36
					c-1.49-1.84-2.29-2.99-2.29-2.99s0-0.67,0.4-1.15c0.4-0.49,1.01-0.34,1.42-1.01c0.06,1.08,0.13,0.87-0.08,1.27
					c-0.2,0.41-0.68,0.74,0.08,1.57c0.81,1.15,1.63,2.18,1.63,2.18S109.22,98.4,109.97,97.86"/>
			</g>
			<g>
				<path class="st261" d="M111.31,96.09c0,0-1.13-0.27-1.41-0.06c-0.35-0.82-0.82-1.28-1.09-1.43c-0.2-1.54-0.07-1.89-0.07-1.89
					S111.27,95.15,111.31,96.09"/>
			</g>
			<g>
				<path class="st261" d="M107.19,91.68c0,0,0.73,0.28,0.62-1.62c0.19,0.22,0.73-0.05,0.67,2.39c-0.21,2.03-0.14,2.63-0.35,2.91
					c-0.21,0.25-0.54,0.4-0.54,0.4s-0.2,0.06-0.81-0.88C107.04,94.27,107.39,93.85,107.19,91.68"/>
			</g>
			<g>
				<path class="st261" d="M104.95,95.7c0,0-1.08-0.13-0.68-5.49c0.19-0.41,1.41-0.55,1.69-0.41c0.06,0.48,0.06,0.48,0.06,0.48
					s-0.81-0.15-0.67,0.95c0.07,1.08,0.07,1.9,0.07,1.9S104,93.66,104.95,95.7"/>
			</g>
			<g>
				<path class="st261" d="M106.37,89.25c0,0,0.2,1.57-0.54,1.76c-0.19,1.17-0.13,1.44-0.13,1.44s0.68-0.15,0.95-0.49
					c0.27-0.33,1.16-1.14,0.54-2.7c-0.07-0.07-0.07-0.07-0.07-0.07L106.37,89.25"/>
			</g>
			<g>
				<path class="st261" d="M102.43,89.73c0,0-0.13,2.46,1.49,2.23c0-1.14,0-1.14,0-1.14s-0.6-0.41-0.4-1.23
					C102.92,89.73,102.43,89.73,102.43,89.73"/>
			</g>
			<path class="st261" d="M132.14,82.87c-0.96,0.07-1.37,0.67-1.77,1.15c-0.27,0-10.85,1.51-12,1.57c0,0,0.06-1.71-2.18-2.53
				c0-1.76,0.48-1.9-1.09-3.18c-0.82-0.53-2.91-0.68-3.53,0.68c-0.2,0.88-0.41,1.55-0.28,2.16c-0.74,0.34-2.44,1.16-3.05,2.58
				c-0.26,1.04-0.35,2.04-0.35,2.04h-1.41c0,0-0.34-1.08-0.53-1.22c-0.21-0.11-0.42,0.96-0.49,1.22c-0.06,0.28-0.89,0.42-0.89,0.42
				s1.37-2.64,1.37-3.06c-0.61,0.19-1.77,0.13-2.17,1.09c-0.88,0-1.76-0.07-1.76,1.49c-0.35,0-0.83-0.2,0.06-2.32
				c0.89-2.1,0.96-2.52,1.77-2.52c0.6,0,1.02,0,1.02,0.61c0.59-0.27,0.94-0.46,0.94-0.46s-0.13-0.7-0.47-0.89
				c-0.54-0.13-2.18-0.48-3.06,0.26c-0.67,1.31-1.83,4.23-1.83,4.23s0.06,1.09,0.68,1.64c-1.95,0.24-5.42,0.7-5.75,0.74
				c-0.37-0.51-0.97-0.84-1.66-0.84c-1.14,0-2.05,0.93-2.05,2.06c0,1.14,0.91,2.05,2.05,2.05c0.81,0,1.49-0.45,1.83-1.12
				c1-0.15,12.1-1.8,12.62-1.68c0.34,1.01,1.29,2.3,1.56,2.63c0.42,0.36,0.62,1.03,0.62,1.64c0.07,0.75,0.19,0.95,0.19,0.95
				s1.28,1.3,1.28,2.17c1.02,0.42,2.31,0.88,2.72,1.63c0.06-1.01-0.21-3.04,0.06-4.54c0.21-0.94-0.06-1.56,1.36-2.51
				c1.23-0.89,1.77-1.42,1.77-3.18h0.74c-0.55,2.83-1.28,2.83-2.18,3.73c-1.08,1.35-0.74,1.35-1.22,3.38
				c-0.61,3.59-0.07,3.87-0.07,3.87c-0.12-0.68,0.22-3.05,0.49-4.61c0.4-1.21,0.88-2.25,1.55-2.78c1.56-0.88,1.56-2.79,1.96-3.94
				c0,0,10.67-1.37,11.66-1.48c0.21,0.46,0.63,0.53,1.29,0.79c1.84-0.07,1.56-0.54,1.97-1.14
				C134.78,83.69,132.83,82.93,132.14,82.87z M93.75,91.67c-1.03,0-1.87-0.84-1.87-1.87c0-1.03,0.84-1.86,1.87-1.86
				c1.03,0,1.88,0.83,1.88,1.86C95.63,90.83,94.78,91.67,93.75,91.67z M95.78,90.06c-0.04,0.09,0,0.16-0.03,0.22
				c0.04-0.16,0.06-0.32,0.06-0.49c0-0.19-0.02-0.38-0.07-0.55c0.94-0.15,10.2-1.61,12.19-1.48c0.14,0.88,0.14,0.88,0.14,0.88
				S97.88,89.73,95.78,90.06z M109.08,86.07c-0.34,0.74-0.55,2.51,0.88,3.87c0.28,0.4,0.28,0.73-0.06,0.48c0,0-2.25-1.56-1.29-4.82
				c0.4-0.76,1.15-2.19,3.93-2.46c0.34,0.14,0.07,0.4-0.75,0.68C110.98,84.09,109.63,84.56,109.08,86.07z M112.81,89.53
				c-1.02-0.2-1.22-0.55-1.63-1.09c-0.94-2.58,1.16-2.91,1.16-2.91s0.27,0.2,0,0.54c-0.95,1.96,0.34,2.43,1.28,2.72
				c0.96-0.15,0.96,0.19,0.96,0.4C114.58,89.39,113.89,89.46,112.81,89.53z M114.92,86.26c0,0-0.81-0.14-1.09-0.4
				c-0.27-0.27-0.41-1.3,0.95-0.43C115.12,86.01,114.92,86.26,114.92,86.26z M116.88,85.38c-0.35-0.26-0.68-1.1-0.68-1.1
				s0.55-0.54,0.96,0.42c0.38,0.6,0.38,1.09,0.38,1.09S117.23,85.66,116.88,85.38z M132.21,86.01c-0.56,0-1.03-0.47-1.03-1.04
				c0-0.57,0.47-1.01,1.03-1.01c0.56,0,1.02,0.45,1.02,1.01C133.23,85.54,132.78,86.01,132.21,86.01z"/>
			<g>
				<path class="st261" d="M104.67,83.54c0,0-0.54-0.6-1.08-0.4c-0.33,0.4-0.42,1.01,0.33,1.09c0.74,0.06,1.97,0.27,3.2-1.02
					c1.41-1.03,1.89-1.1,2.03-3.67c-0.28-0.67-0.54-0.94-0.62-0.4c-0.06,0.53-0.41,1.01-0.41,1.5c0,0.46,0.28,0.73-0.6,1.34
					c-0.88,0.63-1.7,1.44-2.04,1.57C105.15,83.69,104.67,83.54,104.67,83.54"/>
			</g>
			<g>
				<path class="st261" d="M107.04,78.25c0,0-3.12,1.96-3.33,2.51c0.56,0.14,1.1,0.33,1.1,0.33s1.27-1.29,1.88-1.29
					C106.91,78.79,107.04,78.25,107.04,78.25L107.04,78.25z"/>
			</g>
			<g>
				<path class="st261" d="M107.24,81.77c0,0-0.81-1.49,0.28-3.44c0.74-0.76,4.07-2.52,4.27-2.52c-0.67,1.08-0.75,1.29-0.75,1.29
					s-1.7,0.88-2.3,1.35c-0.48,0.14-1.02,1.21-1.02,2.5C107.52,81.44,107.24,81.77,107.24,81.77L107.24,81.77z"/>
			</g>
			<g>
				<path class="st261" d="M109.35,81.58v-1.3c0,0,0.74,0,1.7-0.75c0.95-0.74,1.43-1.01,1.7-2.31c0.27-0.12,0.49-0.12,0.27,1.44
					C112.2,79.6,109.7,81.58,109.35,81.58"/>
			</g>
			<path class="st261" d="M117.08,77.1c-0.13-0.82-1.01-1.41-2.23-1.84c-1.23-0.4-2.37,0.07-2.92,1.09
				c-1.16,1.69-0.54,2.57-0.54,2.57c0.06-0.19,1.42-2.39,1.95-2.65c1.91-0.59,2.18,0.21,2.65,1.08c0,1.63-0.61,2.45-0.61,2.45
				s-0.34,0.55,0.68,1.15C117.77,78.93,117.23,77.92,117.08,77.1z M115.87,80.14c1.16-1.75,0.41-3.45,0.41-3.45s0.54,0.13,0.67,1.08
				C116.68,80.82,116,80.69,115.87,80.14z"/>
		</g>
	</g>
</g>
</svg>
