<?xml version="1.0" encoding="utf-8"?>
<!-- Generator: Adobe Illustrator 26.0.1, SVG Export Plug-In . SVG Version: 6.00 Build 0)  -->
<svg version="1.1" id="Layer_1" xmlns="http://www.w3.org/2000/svg" xmlns:xlink="http://www.w3.org/1999/xlink" x="0px" y="0px"
	 viewBox="0 0 376.85 326.02" style="enable-background:new 0 0 376.85 326.02;" xml:space="preserve">
<style type="text/css">
	.st0{fill:#105FAD;}
	.st1{fill:#751B1B;}
	.st2{fill:url(#SVGID_1_);}
</style>
<g>
	<g>
		<g>
			<g>
				<path class="st0" d="M59.55,232.42l22.31,22.93v-21.72h4.12v31.57l-22.31-22.83v21.43h-4.12V232.42z"/>
				<path class="st0" d="M86.45,266.36l-22.31-22.83v20.75h-5.06v-33.01l22.31,22.93v-21.03h5.06V266.36z M63.2,241.21l22.31,22.83
					V234.1h-3.18v22.41l-22.31-22.93v29.75h3.18V241.21z"/>
			</g>
			<g>
				<path class="st0" d="M108.2,244.26h4.12v19.54h-4.12v-3.88c-2.01,2.95-4.49,4.43-7.46,4.43c-2.57,0-4.77-1.01-6.6-3.03
					c-1.82-2.02-2.74-4.48-2.74-7.37c0-2.73,0.92-5.12,2.76-7.16c1.84-2.04,4-3.07,6.48-3.07c1.53,0,2.98,0.42,4.36,1.26
					c1.37,0.84,2.44,1.93,3.2,3.27V244.26z M108.77,254.09c0-1.78-0.64-3.31-1.92-4.58c-1.28-1.27-2.82-1.91-4.6-1.91
					c-1.74,0-3.26,0.63-4.56,1.89c-1.3,1.26-1.95,2.75-1.95,4.45c0,1.85,0.63,3.42,1.9,4.71c1.27,1.29,2.8,1.94,4.6,1.94
					c1.79,0,3.32-0.64,4.6-1.93C108.13,257.39,108.77,255.86,108.77,254.09z"/>
				<path class="st0" d="M100.74,264.82c-2.7,0-5.04-1.07-6.95-3.19c-1.9-2.1-2.86-4.68-2.86-7.68c0-2.84,0.97-5.36,2.88-7.48
					c1.92-2.14,4.22-3.22,6.83-3.22c1.61,0,3.16,0.45,4.6,1.32c0.97,0.59,1.8,1.31,2.48,2.15v-2.92h5.06v20.48h-5.06v-2.94
					C105.79,263.64,103.44,264.82,100.74,264.82z M100.64,244.19c-2.36,0-4.36,0.95-6.13,2.91c-1.75,1.95-2.64,4.25-2.64,6.85
					c0,2.76,0.88,5.13,2.61,7.05c1.75,1.94,3.79,2.88,6.25,2.88c2.83,0,5.14-1.38,7.07-4.22l0.86-1.27v4.95h3.18v-18.6h-3.18v5.3
					l-0.88-1.56c-0.71-1.27-1.73-2.31-3.03-3.1C103.46,244.59,102.08,244.19,100.64,244.19z M102.24,261.08
					c-1.93,0-3.59-0.7-4.94-2.08c-1.35-1.38-2.03-3.08-2.03-5.04c0-1.83,0.7-3.44,2.09-4.79c1.38-1.35,3.03-2.03,4.88-2.03
					c1.91,0,3.57,0.69,4.94,2.04c1.37,1.36,2.06,3.01,2.06,4.92c0,1.89-0.69,3.54-2.06,4.92S104.15,261.08,102.24,261.08z
					 M102.24,248.07c-1.63,0-3.01,0.58-4.23,1.76c-1.21,1.18-1.8,2.53-1.8,4.11c0,1.74,0.58,3.17,1.76,4.38
					c1.18,1.21,2.58,1.8,4.27,1.8c1.67,0,3.07-0.59,4.27-1.79c1.2-1.21,1.78-2.6,1.78-4.25c0-1.67-0.58-3.06-1.78-4.25
					C105.31,248.65,103.92,248.07,102.24,248.07z"/>
			</g>
			<g>
				<path class="st0" d="M117.74,263.8v-19.54h4.03v3.24c1.18-1.31,2.26-2.27,3.22-2.88c0.96-0.61,2.04-0.91,3.22-0.91
					c1.77,0,3.28,0.58,4.54,1.75c1.26,1.17,1.88,2.57,1.88,4.22v14.12h-4.12v-12.91c0-1.06-0.34-1.93-1.03-2.63
					c-0.69-0.69-1.56-1.04-2.62-1.04c-1.37,0-2.56,0.58-3.55,1.74c-0.99,1.16-1.49,2.56-1.49,4.2v10.63H117.74z"/>
				<path class="st0" d="M135.1,264.27h-5.06v-13.38c0-0.94-0.29-1.69-0.89-2.3c-0.6-0.61-1.35-0.9-2.28-0.9
					c-1.24,0-2.29,0.52-3.19,1.58c-0.93,1.08-1.38,2.36-1.38,3.9v11.11h-5.02v-20.48h4.97v2.53c0.9-0.91,1.73-1.61,2.5-2.09
					c1.03-0.65,2.2-0.98,3.47-0.98c1.88,0,3.52,0.63,4.86,1.88c1.35,1.26,2.03,2.79,2.03,4.56V264.27z M130.98,263.33h3.18v-13.64
					c0-1.52-0.57-2.79-1.73-3.87c-1.18-1.09-2.55-1.63-4.21-1.63c-1.09,0-2.09,0.28-2.97,0.84c-0.92,0.58-1.97,1.52-3.12,2.79
					l-0.82,0.91v-4h-3.08v18.6h3.13v-10.16c0-1.75,0.54-3.27,1.61-4.51c1.08-1.26,2.4-1.91,3.91-1.91c1.18,0,2.18,0.4,2.95,1.18
					c0.77,0.78,1.17,1.78,1.17,2.96V263.33z"/>
			</g>
			<g>
				<path class="st0" d="M138.65,253.95c0-2.67,1.05-5.04,3.16-7.12c2.11-2.08,4.53-3.11,7.26-3.11c2.81,0,5.27,1.02,7.37,3.07
					c2.1,2.04,3.15,4.43,3.15,7.16c0,2.75-1.03,5.17-3.09,7.26c-2.06,2.09-4.44,3.14-7.14,3.14c-2.89,0-5.4-1.03-7.52-3.1
					C139.72,259.18,138.65,256.74,138.65,253.95z M155.61,253.96c0-1.66-0.63-3.1-1.89-4.33c-1.26-1.23-2.76-1.84-4.5-1.84
					c-1.78,0-3.32,0.62-4.61,1.86c-1.29,1.24-1.93,2.72-1.93,4.45c0,1.65,0.65,3.09,1.95,4.32c1.3,1.23,2.83,1.85,4.58,1.85
					c1.71,0,3.2-0.63,4.48-1.9C154.97,257.11,155.61,255.64,155.61,253.96z"/>
				<path class="st0" d="M149.36,264.82c-3,0-5.64-1.09-7.85-3.24c-2.21-2.15-3.33-4.72-3.33-7.63c0-2.79,1.11-5.29,3.3-7.45
					c2.19-2.16,4.74-3.25,7.59-3.25c2.92,0,5.51,1.08,7.69,3.2c2.19,2.13,3.29,4.65,3.29,7.5c0,2.86-1.09,5.42-3.23,7.59
					C154.69,263.71,152.18,264.82,149.36,264.82z M149.08,244.19c-2.59,0-4.92,1-6.93,2.98c-2,1.97-3.02,4.26-3.02,6.78
					c0,2.65,1.02,4.99,3.04,6.96c2.02,1.97,4.44,2.97,7.19,2.97c2.56,0,4.85-1.01,6.8-3c1.96-1.99,2.96-4.32,2.96-6.93
					c0-2.59-1.01-4.88-3.01-6.83C154.11,245.18,151.75,244.19,149.08,244.19z M149.22,260.74c-1.87,0-3.52-0.67-4.91-1.98
					c-1.39-1.32-2.1-2.89-2.1-4.66c0-1.85,0.7-3.46,2.07-4.79c1.37-1.32,3.03-2,4.93-2c1.85,0,3.48,0.66,4.83,1.97
					c1.35,1.31,2.04,2.88,2.04,4.67c0,1.8-0.69,3.4-2.06,4.75C152.66,260.06,151.04,260.74,149.22,260.74z M149.22,248.26
					c-1.67,0-3.07,0.57-4.28,1.73c-1.2,1.16-1.79,2.5-1.79,4.11c0,1.52,0.59,2.82,1.81,3.98c1.22,1.16,2.62,1.72,4.26,1.72
					c1.59,0,2.95-0.58,4.14-1.76c1.2-1.18,1.78-2.52,1.78-4.08c0-1.54-0.57-2.85-1.75-3.99
					C152.21,248.82,150.84,248.26,149.22,248.26z"/>
			</g>
		</g>
		<g>
			<g>
				<path class="st1" d="M193.72,238.02l-3.06,3.01c-3.08-3.02-6.64-4.52-10.68-4.52c-3.54,0-6.48,1.14-8.83,3.41
					c-2.35,2.27-3.53,5.11-3.53,8.52c0,2.98,1.14,5.67,3.42,8.06c2.28,2.39,5.43,3.58,9.44,3.58c6.02,0,9.8-2.61,11.34-7.84h-8.15
					v-4.12h12.86c0,2.07-0.14,3.71-0.41,4.94c-0.28,1.23-0.85,2.59-1.72,4.07c-0.87,1.48-2.03,2.81-3.47,3.98
					c-1.45,1.17-2.99,2.01-4.64,2.52c-1.65,0.5-3.62,0.76-5.91,0.76c-5.21,0-9.37-1.64-12.47-4.91c-3.1-3.27-4.65-7.02-4.65-11.23
					c0-4.43,1.59-8.21,4.76-11.32c3.17-3.12,7.02-4.67,11.53-4.67c2.68,0,5.14,0.41,7.35,1.22
					C189.13,234.28,191.4,235.8,193.72,238.02z"/>
				<path class="st1" d="M180.39,264.85c-5.32,0-9.63-1.7-12.81-5.06c-3.17-3.35-4.78-7.24-4.78-11.55c0-4.54,1.65-8.47,4.9-11.66
					c3.25-3.19,7.24-4.81,11.86-4.81c2.73,0,5.25,0.42,7.52,1.25c2.27,0.83,4.62,2.4,6.97,4.66l0.35,0.34l-3.73,3.67l-0.33-0.32
					c-2.97-2.91-6.46-4.39-10.35-4.39c-3.39,0-6.26,1.1-8.51,3.27c-2.25,2.17-3.38,4.92-3.38,8.18c0,2.84,1.11,5.44,3.29,7.73
					c2.18,2.28,5.24,3.44,9.1,3.44c5.6,0,9.1-2.26,10.7-6.9h-7.97v-5.06h13.8v0.47c0,2.09-0.14,3.79-0.42,5.05
					c-0.29,1.27-0.88,2.69-1.77,4.2c-0.89,1.52-2.1,2.91-3.58,4.11c-1.49,1.21-3.1,2.08-4.8,2.6
					C184.74,264.59,182.71,264.85,180.39,264.85z M179.56,232.71c-4.37,0-8.14,1.53-11.2,4.54c-3.07,3.01-4.62,6.71-4.62,10.99
					c0,4.07,1.52,7.74,4.52,10.91c3,3.16,7.08,4.76,12.13,4.76c2.23,0,4.17-0.25,5.77-0.74c1.58-0.48,3.09-1.3,4.48-2.43
					c1.39-1.13,2.52-2.43,3.36-3.86c0.84-1.43,1.4-2.76,1.66-3.93c0.25-1.1,0.38-2.56,0.4-4.37h-11.91v3.18h8.31l-0.18,0.61
					c-1.61,5.43-5.58,8.18-11.8,8.18c-4.13,0-7.42-1.26-9.78-3.73c-2.36-2.47-3.55-5.29-3.55-8.38c0-3.52,1.24-6.5,3.67-8.86
					c2.43-2.35,5.52-3.54,9.16-3.54c4.01,0,7.59,1.46,10.68,4.34l2.38-2.34c-2.14-1.99-4.26-3.38-6.29-4.12
					C184.59,233.12,182.17,232.71,179.56,232.71z"/>
			</g>
			<g>
				<path class="st1" d="M206.15,243.82v4.03c0.92-1.61,1.81-2.77,2.69-3.49c0.88-0.72,2.02-1.08,3.42-1.08
					c0.39,0,0.96,0.09,1.7,0.28l-1.26,4.12c-0.79-0.16-1.31-0.24-1.56-0.24c-1.39,0-2.55,0.49-3.49,1.46
					c-0.94,0.97-1.41,2.18-1.41,3.64v10.82h-4.12v-19.54H206.15z"/>
				<path class="st1" d="M206.72,263.83h-5.06v-20.48h4.97v2.84c0.65-0.95,1.29-1.69,1.92-2.2c0.96-0.79,2.21-1.18,3.72-1.18
					c0.44,0,1.03,0.1,1.82,0.3l0.48,0.12l-1.52,5l-0.42-0.08c-0.99-0.2-1.35-0.23-1.47-0.23c-1.27,0-2.3,0.43-3.15,1.31
					c-0.86,0.89-1.28,1.97-1.28,3.31V263.83z M202.6,262.89h3.18v-10.35c0-1.57,0.52-2.91,1.54-3.96c1.03-1.06,2.32-1.6,3.83-1.6
					c0.16,0,0.45,0.02,1.24,0.16l0.99-3.23c-0.47-0.1-0.84-0.15-1.11-0.15c-1.29,0-2.34,0.33-3.12,0.97
					c-0.83,0.68-1.69,1.81-2.58,3.36l-0.88,1.55v-5.34h-3.08V262.89z"/>
			</g>
			<g>
				<path class="st1" d="M233.7,243.82h4.12v19.54h-4.12v-3.88c-2.01,2.95-4.49,4.43-7.46,4.43c-2.57,0-4.77-1.01-6.6-3.03
					c-1.82-2.02-2.74-4.48-2.74-7.37c0-2.73,0.92-5.12,2.76-7.16c1.84-2.04,4-3.07,6.48-3.07c1.53,0,2.98,0.42,4.36,1.26
					c1.37,0.84,2.44,1.93,3.2,3.27V243.82z M234.26,253.65c0-1.78-0.64-3.31-1.92-4.58c-1.28-1.27-2.81-1.91-4.6-1.91
					c-1.74,0-3.26,0.63-4.56,1.89c-1.3,1.26-1.95,2.75-1.95,4.45c0,1.85,0.63,3.42,1.9,4.71c1.27,1.29,2.8,1.94,4.6,1.94
					c1.79,0,3.32-0.64,4.6-1.93C233.62,256.95,234.26,255.42,234.26,253.65z"/>
				<path class="st1" d="M226.24,264.38c-2.7,0-5.04-1.07-6.95-3.19c-1.9-2.1-2.86-4.69-2.86-7.68c0-2.84,0.97-5.36,2.88-7.48
					c1.92-2.14,4.22-3.22,6.83-3.22c1.61,0,3.16,0.45,4.6,1.32c0.97,0.59,1.8,1.31,2.48,2.14v-2.92h5.07v20.48h-5.07v-2.94
					C231.29,263.21,228.94,264.38,226.24,264.38z M226.14,243.75c-2.36,0-4.36,0.95-6.13,2.91c-1.75,1.95-2.64,4.25-2.64,6.85
					c0,2.76,0.88,5.13,2.61,7.05c1.75,1.94,3.79,2.88,6.25,2.88c2.83,0,5.14-1.38,7.07-4.22l0.86-1.27v4.95h3.18v-18.6h-3.18v5.3
					l-0.88-1.56c-0.71-1.26-1.73-2.31-3.03-3.1C228.96,244.15,227.58,243.75,226.14,243.75z M227.74,260.64
					c-1.93,0-3.59-0.7-4.94-2.08c-1.35-1.38-2.03-3.08-2.03-5.04c0-1.83,0.7-3.44,2.09-4.79c1.38-1.35,3.03-2.03,4.88-2.03
					c1.91,0,3.57,0.69,4.94,2.04c1.37,1.36,2.06,3.01,2.06,4.92c0,1.89-0.69,3.54-2.06,4.92S229.65,260.64,227.74,260.64z
					 M227.74,247.64c-1.63,0-3.01,0.58-4.23,1.76c-1.21,1.18-1.8,2.53-1.8,4.11c0,1.74,0.58,3.17,1.76,4.38
					c1.18,1.21,2.58,1.8,4.27,1.8c1.67,0,3.07-0.59,4.27-1.79c1.2-1.21,1.79-2.6,1.79-4.25c0-1.67-0.58-3.06-1.78-4.25
					C230.81,248.21,229.41,247.64,227.74,247.64z"/>
			</g>
			<g>
				<path class="st1" d="M248.64,243.82v3.93c1.97-2.98,4.49-4.48,7.57-4.48c2.52,0,4.69,1.01,6.51,3.02
					c1.82,2.01,2.73,4.42,2.73,7.21c0,2.83-0.92,5.27-2.77,7.32c-1.85,2.05-4.02,3.08-6.53,3.08c-1.45,0-2.84-0.38-4.17-1.14
					c-1.33-0.76-2.43-1.86-3.3-3.29v13.05h-4.12v-28.7H248.64z M261.15,253.51c0-1.72-0.65-3.22-1.94-4.51
					c-1.29-1.29-2.81-1.93-4.56-1.93c-1.78,0-3.32,0.64-4.62,1.92c-1.3,1.28-1.95,2.79-1.95,4.52c0,1.78,0.64,3.33,1.93,4.64
					c1.28,1.31,2.8,1.97,4.55,1.97c1.81,0,3.36-0.65,4.66-1.94C260.5,256.88,261.15,255.33,261.15,253.51z"/>
				<path class="st1" d="M249.16,273h-5.06v-29.65h5.02v2.97c1.92-2.33,4.3-3.51,7.1-3.51c2.65,0,4.96,1.07,6.86,3.17
					c1.89,2.09,2.85,4.63,2.85,7.53c0,2.93-0.97,5.5-2.89,7.63c-1.93,2.15-4.24,3.23-6.88,3.23c-1.53,0-3.01-0.4-4.41-1.2
					c-0.98-0.56-1.85-1.3-2.59-2.21V273z M245.04,272.06h3.18v-14.27l0.88,1.45c0.82,1.36,1.87,2.41,3.13,3.13
					c1.25,0.71,2.58,1.08,3.94,1.08c2.39,0,4.41-0.96,6.18-2.92c1.76-1.95,2.65-4.31,2.65-7c0-2.66-0.88-4.98-2.61-6.89
					c-1.72-1.9-3.79-2.86-6.16-2.86c-2.93,0-5.28,1.39-7.17,4.26l-0.87,1.31v-5.03h-3.13V272.06z M254.55,260.59
					c-1.87,0-3.52-0.71-4.89-2.11c-1.37-1.4-2.06-3.07-2.06-4.97c0-1.86,0.7-3.5,2.09-4.86c1.39-1.36,3.05-2.05,4.95-2.05
					c1.87,0,3.52,0.7,4.9,2.07c1.38,1.37,2.08,3,2.08,4.85c0,1.94-0.7,3.62-2.08,5C258.16,259.89,256.48,260.59,254.55,260.59z
					 M254.64,247.54c-1.67,0-3.07,0.58-4.29,1.78c-1.22,1.2-1.81,2.57-1.81,4.19c0,1.67,0.59,3.08,1.79,4.31
					c1.2,1.23,2.58,1.82,4.21,1.82c1.7,0,3.11-0.59,4.32-1.8c1.21-1.21,1.8-2.63,1.8-4.33c0-1.6-0.59-2.97-1.8-4.18
					C257.66,248.13,256.28,247.54,254.64,247.54z"/>
			</g>
			<g>
				<path class="st1" d="M269.86,232.62h4.12v14.4c1.14-1.31,2.2-2.26,3.19-2.85c0.99-0.59,2.19-0.89,3.61-0.89
					c1.66,0,3.09,0.64,4.3,1.91c1.21,1.27,1.81,2.79,1.81,4.56v13.62h-4.12v-12.46c0-1.23-0.31-2.22-0.94-2.96
					c-0.62-0.74-1.45-1.11-2.48-1.11c-1.48,0-2.75,0.56-3.8,1.68c-1.05,1.12-1.58,2.48-1.58,4.07v10.78h-4.12V232.62z"/>
				<path class="st1" d="M287.36,263.83h-5.06v-12.93c0-1.11-0.28-2.01-0.82-2.66c-0.53-0.64-1.23-0.95-2.11-0.95
					c-1.36,0-2.49,0.5-3.46,1.53c-0.97,1.04-1.45,2.27-1.45,3.75v11.25h-5.07v-31.68h5.07v13.66c0.86-0.89,1.69-1.58,2.47-2.04
					c1.06-0.63,2.35-0.96,3.85-0.96c1.78,0,3.35,0.69,4.64,2.05c1.29,1.36,1.94,3,1.94,4.88V263.83z M283.24,262.89h3.18v-13.15
					c0-1.66-0.55-3.04-1.68-4.23c-1.13-1.18-2.42-1.76-3.96-1.76c-1.33,0-2.46,0.28-3.37,0.82c-0.94,0.56-1.97,1.49-3.07,2.76
					l-0.83,0.95v-15.19h-3.18v29.8h3.18v-10.3c0-1.71,0.57-3.19,1.7-4.4c1.14-1.21,2.53-1.83,4.15-1.83c1.17,0,2.12,0.43,2.84,1.28
					c0.69,0.83,1.05,1.92,1.05,3.26V262.89z"/>
			</g>
			<g>
				<path class="st1" d="M291.25,237.41c0-0.85,0.32-1.59,0.95-2.21c0.63-0.62,1.38-0.94,2.25-0.94c0.85,0,1.59,0.31,2.21,0.94
					c0.62,0.62,0.94,1.36,0.94,2.21c0,0.87-0.31,1.61-0.94,2.23c-0.62,0.62-1.36,0.92-2.21,0.92c-0.87,0-1.62-0.31-2.25-0.92
					C291.56,239.02,291.25,238.27,291.25,237.41z M292.41,243.82h4.07v19.54h-4.07V243.82z"/>
				<path class="st1" d="M296.95,263.83h-5.02v-20.48h5.02V263.83z M292.88,262.89h3.13v-18.6h-3.13V262.89z M294.44,241.03
					c-0.99,0-1.86-0.36-2.58-1.06c-0.72-0.7-1.09-1.57-1.09-2.56c0-0.98,0.37-1.84,1.09-2.55c0.72-0.71,1.59-1.07,2.58-1.07
					c0.98,0,1.83,0.36,2.55,1.07c0.71,0.71,1.07,1.57,1.07,2.55c0,0.99-0.36,1.86-1.08,2.56
					C296.28,240.67,295.42,241.03,294.44,241.03z M294.44,234.73c-0.75,0-1.37,0.26-1.92,0.8c-0.54,0.54-0.81,1.15-0.81,1.88
					c0,0.74,0.26,1.36,0.8,1.89c0.55,0.53,1.17,0.79,1.92,0.79c0.73,0,1.35-0.26,1.88-0.79c0.54-0.53,0.8-1.15,0.8-1.89
					c0-0.73-0.26-1.34-0.8-1.88C295.79,234.99,295.17,234.73,294.44,234.73z"/>
			</g>
			<g>
				<path class="st1" d="M317.3,257.39v4.71c-2.1,1.2-4.14,1.8-6.11,1.8c-2.7,0-5.06-1.01-7.09-3.04c-2.03-2.03-3.04-4.38-3.04-7.05
					c0-3.03,1.01-5.55,3.03-7.54c2.02-2,4.55-3,7.6-3c1.82,0,3.69,0.47,5.61,1.42v4.59c-2.07-1.33-4.03-1.99-5.87-1.99
					c-1.7,0-3.2,0.6-4.48,1.8c-1.28,1.2-1.92,2.61-1.92,4.22c0,1.82,0.6,3.34,1.8,4.58c1.2,1.24,2.67,1.86,4.4,1.86
					C313,259.76,315.02,258.97,317.3,257.39z"/>
				<path class="st1" d="M311.19,264.38c-2.82,0-5.32-1.07-7.43-3.18c-2.11-2.11-3.18-4.59-3.18-7.38c0-3.15,1.07-5.8,3.17-7.88
					c2.1-2.08,4.77-3.13,7.93-3.13c1.88,0,3.84,0.49,5.82,1.47l0.26,0.13v5.75l-0.73-0.47c-1.98-1.27-3.87-1.91-5.62-1.91
					c-1.59,0-2.95,0.55-4.15,1.67c-1.19,1.12-1.77,2.38-1.77,3.87c0,1.71,0.55,3.1,1.67,4.25c1.12,1.15,2.45,1.72,4.07,1.72
					c1.66,0,3.61-0.77,5.79-2.28l0.74-0.51v5.89l-0.24,0.14C315.37,263.75,313.24,264.38,311.19,264.38z M311.69,243.75
					c-2.9,0-5.35,0.96-7.27,2.86c-1.92,1.9-2.89,4.32-2.89,7.21c0,2.53,0.98,4.78,2.9,6.71c1.93,1.93,4.2,2.9,6.76,2.9
					c1.81,0,3.7-0.54,5.64-1.6v-3.56c-4.35,2.76-7.9,2.47-10.33-0.04c-1.28-1.32-1.93-2.98-1.93-4.91c0-1.74,0.7-3.27,2.07-4.56
					c2.65-2.48,6.32-2.53,10.2-0.31V245C315.07,244.17,313.34,243.75,311.69,243.75z"/>
			</g>
		</g>
	</g>
	<g>
		<polygon class="st1" points="230.69,78.15 230.69,127.18 229.65,126.56 216.6,118.88 216.6,86.2 215.73,85.68 202.52,77.91 
			201.87,77.53 188.43,69.61 188.02,69.38 174.34,77.5 174.2,77.59 160.38,85.79 160.26,85.72 160.26,96.33 146.17,88.03 
			146.17,77.85 146.52,77.63 160.26,69.49 160.35,69.43 174.18,61.22 174.34,61.32 174.34,61.13 187.99,53.02 188.43,53.28 
			201.85,61.17 202.52,61.57 215.7,69.33 216.6,69.86 229.55,77.48 		"/>
		<polygon class="st1" points="245.07,182.93 244.77,183.11 243.59,183.81 230.69,191.47 229.76,192.02 216.6,199.83 215.94,200.22 
			202.52,208.2 202.12,208.43 188.43,216.56 188.29,216.64 174.44,208.48 174.34,208.42 160.59,200.33 160.26,200.13 146.73,192.17 
			146.17,191.84 146.17,115.96 160.26,124.23 160.26,183.78 160.56,183.96 174.34,192.08 174.34,192.16 174.41,192.12 
			188.27,200.27 188.43,200.17 202.08,192.07 202.52,191.81 215.91,183.86 202.52,175.98 202.52,159.29 216.56,167.1 216.6,167.12 
					"/>
		<linearGradient id="SVGID_1_" gradientUnits="userSpaceOnUse" x1="117.9963" y1="134.6949" x2="258.8549" y2="134.6949">
			<stop  offset="0" style="stop-color:#A2DEF9"/>
			<stop  offset="1" style="stop-color:#005CAB"/>
		</linearGradient>
		<polygon class="st2" points="258.85,94.73 258.85,176.46 257.41,175.6 244.77,168.16 243.56,167.45 230.69,159.87 229.7,159.29 
			216.6,151.57 215.85,151.14 202.52,143.29 202,142.99 188.43,134.99 188.14,134.83 174.34,126.7 174.34,126.64 174.28,126.67 
			160.43,118.51 160.26,118.41 146.58,110.36 146.17,110.12 132.73,102.21 132.09,101.83 132.09,183.55 119.02,175.85 118,175.25 
			118,94.57 118.87,94.05 132.09,86.21 132.7,85.84 146.17,93.77 146.55,94 160.26,102.07 160.26,102.25 160.41,102.15 
			174.26,110.3 174.34,110.35 188.1,118.46 188.43,118.65 201.97,126.62 202.52,126.94 215.82,134.78 216.6,135.23 229.68,142.93 
			230.69,143.52 243.53,151.08 244.77,151.81 244.77,86.44 257.26,93.8 		"/>
	</g>
</g>
</svg>
